ISO-10303-21;
HEADER;
/* Generated by software containing ST-Developer
 * from STEP Tools, Inc. (www.steptools.com) 
 */
/* OPTION: using custom renumber hook */

FILE_DESCRIPTION(
/* description */ ('STEP AP242 Edition 2',
'CAx-IF Rec.Pracs.---Representation and Presentation of Product Manufa
cturing Information (PMI)---4.0---2014-10-13',
'CAx-IF Rec.Pracs.---3D Tessellated Geometry---0.4---2014-09-14','2;1',
'CAx-IF Rec.Pracs.---User Defined Attributes---1.5---2016-08-15'),
/* implementation_level */ '2;1');

FILE_NAME(
/* name */ 'Sensor Stem Copy 1 - Top Sensor Housing',
/* time_stamp */ '2026-08-16T04:32:32Z',
/* author */ (''),
/* organization */ (''),
/* preprocessor_version */ 'ST-DEVELOPER v20',
/* originating_system */ 'ONSHAPE BY PTC INC, 1.219',
/* authorisation */ '  ');

FILE_SCHEMA (('AP242_MANAGED_MODEL_BASED_3D_ENGINEERING_MIM_LF { 1 0 10303 442 3 1 4 }'));
ENDSEC;

DATA;
#10=SHAPE_REPRESENTATION_RELATIONSHIP('','',#658,#11);
#11=ADVANCED_BREP_SHAPE_REPRESENTATION('',(#656),#1347);
#12=TOROIDAL_SURFACE('',#709,0.0920115,0.0508);
#13=LINE('',#1264,#37);
#14=LINE('',#1267,#38);
#15=LINE('',#1269,#39);
#16=LINE('',#1271,#40);
#17=LINE('',#1273,#41);
#18=LINE('',#1275,#42);
#19=LINE('',#1277,#43);
#20=LINE('',#1279,#44);
#21=LINE('',#1308,#45);
#22=LINE('',#1310,#46);
#23=LINE('',#1312,#47);
#24=LINE('',#1314,#48);
#25=LINE('',#1316,#49);
#26=LINE('',#1318,#50);
#27=LINE('',#1320,#51);
#28=LINE('',#1326,#52);
#29=LINE('',#1328,#53);
#30=LINE('',#1330,#54);
#31=LINE('',#1332,#55);
#32=LINE('',#1334,#56);
#33=LINE('',#1336,#57);
#34=LINE('',#1338,#58);
#35=LINE('',#1340,#59);
#36=LINE('',#1342,#60);
#37=VECTOR('',#821,1.);
#38=VECTOR('',#822,1.);
#39=VECTOR('',#823,1.);
#40=VECTOR('',#824,1.);
#41=VECTOR('',#825,1.);
#42=VECTOR('',#826,1.);
#43=VECTOR('',#827,1.);
#44=VECTOR('',#828,1.);
#45=VECTOR('',#841,1.);
#46=VECTOR('',#842,1.);
#47=VECTOR('',#843,1.);
#48=VECTOR('',#846,1.);
#49=VECTOR('',#847,1.);
#50=VECTOR('',#850,1.);
#51=VECTOR('',#851,1.);
#52=VECTOR('',#858,1.);
#53=VECTOR('',#859,1.);
#54=VECTOR('',#862,1.);
#55=VECTOR('',#863,1.);
#56=VECTOR('',#866,1.);
#57=VECTOR('',#867,1.);
#58=VECTOR('',#870,1.);
#59=VECTOR('',#871,1.);
#60=VECTOR('',#874,1.);
#61=DEGENERATE_TOROIDAL_SURFACE('',#700,0.0094615,0.03175,.T.);
#62=DEGENERATE_TOROIDAL_SURFACE('',#711,0.0127,0.0508,.T.);
#63=PLANE('',#698);
#64=PLANE('',#704);
#65=PLANE('',#706);
#66=PLANE('',#712);
#67=PLANE('',#713);
#68=PLANE('',#714);
#69=PLANE('',#715);
#70=PLANE('',#718);
#71=PLANE('',#719);
#72=PLANE('',#720);
#73=PLANE('',#721);
#74=PLANE('',#722);
#75=B_SPLINE_CURVE_WITH_KNOTS('',3,(#885,#886,#887,#888,#889,#890,#891,
#892,#893,#894,#895,#896,#897,#898,#899,#900,#901,#902,#903),
 .UNSPECIFIED.,.T.,.F.,(1,1,1,1,1,1,1,1,1,1,1,1,1,1,1,1,1,1,1,1,1,1,1),
(-0.0076226366873347,-0.00508175779155645,-0.00254087889577821,3.25462973226292E-17,
0.00254087889577828,0.00508175779155652,0.00762263668733476,0.010163515583113,
0.0127043944788913,0.0152452733746695,0.0177861522704477,0.020327031166226,
0.0228679100620042,0.0254087889577825,0.0279496678535607,0.030490546749339,
0.0330314256451172,0.0355723045408955,0.0381131834366737,0.0406540623324519,
0.0431949412282302,0.0457358201240084,0.0482766990197867),.UNSPECIFIED.);
#76=B_SPLINE_CURVE_WITH_KNOTS('',3,(#908,#909,#910,#911,#912,#913,#914,
#915,#916,#917),.UNSPECIFIED.,.F.,.F.,(4,1,1,1,1,1,1,4),(1.9731767323193E-7,
0.00254414848867316,0.00508809965967309,0.00763205083067302,0.0101760020016729,
0.0127199531726729,0.0152639043436728,0.0203518066856727),.UNSPECIFIED.);
#77=B_SPLINE_CURVE_WITH_KNOTS('',3,(#920,#921,#922,#923,#924,#925,#926,
#927,#928,#929),.UNSPECIFIED.,.F.,.F.,(4,1,1,1,1,1,1,4),(0.,0.00242363438563589,
0.00484726877127177,0.00969453754254355,0.0121181719281794,0.0145418063138153,
0.0169654406994512,0.0193890750850871),.UNSPECIFIED.);
#78=B_SPLINE_CURVE_WITH_KNOTS('',3,(#933,#934,#935,#936,#937,#938,#939,
#940,#941,#942,#943,#944,#945,#946,#947,#948,#949,#950,#951),
 .UNSPECIFIED.,.T.,.F.,(1,1,1,1,1,1,1,1,1,1,1,1,1,1,1,1,1,1,1,1,1,1,1),
(-0.00762263668733475,-0.0050817577915565,-0.00254087889577825,0.,0.00254087889577825,
0.0050817577915565,0.00762263668733475,0.010163515583113,0.0127043944788912,
0.0152452733746695,0.0177861522704477,0.020327031166226,0.0228679100620042,
0.0254087889577825,0.0279496678535607,0.030490546749339,0.0330314256451172,
0.0355723045408955,0.0381131834366737,0.040654062332452,0.0431949412282302,
0.0457358201240085,0.0482766990197867),.UNSPECIFIED.);
#79=B_SPLINE_CURVE_WITH_KNOTS('',3,(#956,#957,#958,#959,#960,#961,#962,
#963,#964,#965),.UNSPECIFIED.,.F.,.F.,(4,1,1,1,1,1,1,4),(1.97317673224821E-7,
0.00254414848867315,0.00508809965967307,0.00763205083067299,0.0101760020016729,
0.0127199531726728,0.0152639043436728,0.0203518066856726),.UNSPECIFIED.);
#80=B_SPLINE_CURVE_WITH_KNOTS('',3,(#968,#969,#970,#971,#972,#973,#974,
#975,#976,#977),.UNSPECIFIED.,.F.,.F.,(4,1,1,1,1,1,1,4),(0.,0.00242363438563588,
0.00484726877127176,0.00969453754254352,0.0121181719281794,0.0145418063138153,
0.0169654406994512,0.019389075085087),.UNSPECIFIED.);
#81=B_SPLINE_CURVE_WITH_KNOTS('',3,(#981,#982,#983,#984,#985,#986,#987,
#988,#989,#990,#991,#992,#993,#994,#995,#996,#997,#998,#999),
 .UNSPECIFIED.,.T.,.F.,(1,1,1,1,1,1,1,1,1,1,1,1,1,1,1,1,1,1,1,1,1,1,1),
(-0.00762263668733475,-0.0050817577915565,-0.00254087889577825,0.,0.00254087889577825,
0.0050817577915565,0.00762263668733475,0.010163515583113,0.0127043944788913,
0.0152452733746695,0.0177861522704478,0.020327031166226,0.0228679100620043,
0.0254087889577825,0.0279496678535608,0.030490546749339,0.0330314256451173,
0.0355723045408955,0.0381131834366738,0.040654062332452,0.0431949412282303,
0.0457358201240085,0.0482766990197868),.UNSPECIFIED.);
#82=B_SPLINE_CURVE_WITH_KNOTS('',3,(#1004,#1005,#1006,#1007,#1008,#1009,
#1010,#1011,#1012,#1013),.UNSPECIFIED.,.F.,.F.,(4,1,1,1,1,1,1,4),(1.9731767323193E-7,
0.00254414848867316,0.00508809965967309,0.00763205083067301,0.0101760020016729,
0.0127199531726729,0.0152639043436728,0.0203518066856727),.UNSPECIFIED.);
#83=B_SPLINE_CURVE_WITH_KNOTS('',3,(#1016,#1017,#1018,#1019,#1020,#1021,
#1022,#1023,#1024,#1025),.UNSPECIFIED.,.F.,.F.,(4,1,1,1,1,1,1,4),(0.,0.00242363438563588,
0.00484726877127177,0.00969453754254354,0.0121181719281794,0.0145418063138153,
0.0169654406994512,0.0193890750850871),.UNSPECIFIED.);
#84=B_SPLINE_CURVE_WITH_KNOTS('',3,(#1029,#1030,#1031,#1032,#1033,#1034,
#1035,#1036,#1037,#1038,#1039,#1040,#1041,#1042,#1043,#1044,#1045,#1046,
#1047),.UNSPECIFIED.,.T.,.F.,(1,1,1,1,1,1,1,1,1,1,1,1,1,1,1,1,1,1,1,1,1,
1,1),(-0.00762263668733474,-0.00508175779155649,-0.00254087889577824,4.33680868994202E-18,
0.00254087889577825,0.0050817577915565,0.00762263668733475,0.010163515583113,
0.0127043944788913,0.0152452733746695,0.0177861522704478,0.020327031166226,
0.0228679100620043,0.0254087889577825,0.0279496678535607,0.030490546749339,
0.0330314256451172,0.0355723045408955,0.0381131834366737,0.040654062332452,
0.0431949412282302,0.0457358201240085,0.0482766990197867),.UNSPECIFIED.);
#85=B_SPLINE_CURVE_WITH_KNOTS('',3,(#1052,#1053,#1054,#1055,#1056,#1057,
#1058,#1059,#1060,#1061),.UNSPECIFIED.,.F.,.F.,(4,1,1,1,1,1,1,4),(1.97317673224821E-7,
0.00254414848867315,0.00508809965967307,0.007632050830673,0.0101760020016729,
0.0127199531726728,0.0152639043436728,0.0203518066856726),.UNSPECIFIED.);
#86=B_SPLINE_CURVE_WITH_KNOTS('',3,(#1064,#1065,#1066,#1067,#1068,#1069,
#1070,#1071,#1072,#1073),.UNSPECIFIED.,.F.,.F.,(4,1,1,1,1,1,1,4),(0.,0.00242363438563588,
0.00484726877127176,0.00969453754254352,0.0121181719281794,0.0145418063138153,
0.0169654406994512,0.019389075085087),.UNSPECIFIED.);
#87=B_SPLINE_CURVE_WITH_KNOTS('',3,(#1077,#1078,#1079,#1080,#1081,#1082,
#1083,#1084,#1085,#1086,#1087,#1088,#1089,#1090,#1091,#1092,#1093,#1094,
#1095),.UNSPECIFIED.,.T.,.F.,(1,1,1,1,1,1,1,1,1,1,1,1,1,1,1,1,1,1,1,1,1,
1,1),(-0.00762263668733475,-0.0050817577915565,-0.00254087889577825,0.,
0.00254087889577825,0.0050817577915565,0.00762263668733474,0.010163515583113,
0.0127043944788912,0.0152452733746695,0.0177861522704477,0.020327031166226,
0.0228679100620042,0.0254087889577825,0.0279496678535607,0.030490546749339,
0.0330314256451172,0.0355723045408955,0.0381131834366737,0.040654062332452,
0.0431949412282302,0.0457358201240085,0.0482766990197867),.UNSPECIFIED.);
#88=B_SPLINE_CURVE_WITH_KNOTS('',3,(#1100,#1101,#1102,#1103,#1104,#1105,
#1106,#1107,#1108,#1109),.UNSPECIFIED.,.F.,.F.,(4,1,1,1,1,1,1,4),(1.9731767323193E-7,
0.00254414848867316,0.00508809965967309,0.00763205083067301,0.0101760020016729,
0.0127199531726729,0.0152639043436728,0.0203518066856726),.UNSPECIFIED.);
#89=B_SPLINE_CURVE_WITH_KNOTS('',3,(#1112,#1113,#1114,#1115,#1116,#1117,
#1118,#1119,#1120,#1121),.UNSPECIFIED.,.F.,.F.,(4,1,1,1,1,1,1,4),(0.,0.00242363438563589,
0.00484726877127177,0.00969453754254354,0.0121181719281794,0.0145418063138153,
0.0169654406994512,0.0193890750850871),.UNSPECIFIED.);
#90=B_SPLINE_CURVE_WITH_KNOTS('',3,(#1125,#1126,#1127,#1128,#1129,#1130,
#1131,#1132,#1133,#1134,#1135,#1136,#1137,#1138,#1139,#1140,#1141,#1142,
#1143),.UNSPECIFIED.,.T.,.F.,(1,1,1,1,1,1,1,1,1,1,1,1,1,1,1,1,1,1,1,1,1,
1,1),(-0.00762263668733474,-0.00508175779155649,-0.00254087889577825,3.90312782094782E-18,
0.00254087889577825,0.0050817577915565,0.00762263668733475,0.010163515583113,
0.0127043944788913,0.0152452733746695,0.0177861522704478,0.020327031166226,
0.0228679100620043,0.0254087889577825,0.0279496678535608,0.030490546749339,
0.0330314256451173,0.0355723045408955,0.0381131834366737,0.040654062332452,
0.0431949412282302,0.0457358201240085,0.0482766990197867),.UNSPECIFIED.);
#91=B_SPLINE_CURVE_WITH_KNOTS('',3,(#1148,#1149,#1150,#1151,#1152,#1153,
#1154,#1155,#1156,#1157),.UNSPECIFIED.,.F.,.F.,(4,1,1,1,1,1,1,4),(1.97317673224821E-7,
0.00254414848867315,0.00508809965967307,0.00763205083067299,0.0101760020016729,
0.0127199531726728,0.0152639043436728,0.0203518066856726),.UNSPECIFIED.);
#92=B_SPLINE_CURVE_WITH_KNOTS('',3,(#1160,#1161,#1162,#1163,#1164,#1165,
#1166,#1167,#1168,#1169),.UNSPECIFIED.,.F.,.F.,(4,1,1,1,1,1,1,4),(0.,0.00242363438563588,
0.00484726877127176,0.00969453754254352,0.0121181719281794,0.0145418063138153,
0.0169654406994512,0.019389075085087),.UNSPECIFIED.);
#93=B_SPLINE_CURVE_WITH_KNOTS('',3,(#1173,#1174,#1175,#1176,#1177,#1178,
#1179,#1180,#1181,#1182,#1183,#1184,#1185,#1186,#1187,#1188,#1189,#1190,
#1191),.UNSPECIFIED.,.T.,.F.,(1,1,1,1,1,1,1,1,1,1,1,1,1,1,1,1,1,1,1,1,1,
1,1),(-0.00762263668733474,-0.00508175779155649,-0.00254087889577825,0.,
0.00254087889577825,0.00508175779155649,0.00762263668733474,0.010163515583113,
0.0127043944788912,0.0152452733746695,0.0177861522704477,0.020327031166226,
0.0228679100620042,0.0254087889577825,0.0279496678535607,0.030490546749339,
0.0330314256451172,0.0355723045408955,0.0381131834366737,0.040654062332452,
0.0431949412282302,0.0457358201240085,0.0482766990197867),.UNSPECIFIED.);
#94=B_SPLINE_CURVE_WITH_KNOTS('',3,(#1196,#1197,#1198,#1199,#1200,#1201,
#1202,#1203,#1204,#1205),.UNSPECIFIED.,.F.,.F.,(4,1,1,1,1,1,1,4),(1.9731767323193E-7,
0.00254414848867316,0.00508809965967309,0.00763205083067301,0.0101760020016729,
0.0127199531726729,0.0152639043436728,0.0203518066856726),.UNSPECIFIED.);
#95=B_SPLINE_CURVE_WITH_KNOTS('',3,(#1208,#1209,#1210,#1211,#1212,#1213,
#1214,#1215,#1216,#1217),.UNSPECIFIED.,.F.,.F.,(4,1,1,1,1,1,1,4),(0.,0.00242363438563588,
0.00484726877127177,0.00969453754254354,0.0121181719281794,0.0145418063138153,
0.0169654406994512,0.0193890750850871),.UNSPECIFIED.);
#96=B_SPLINE_CURVE_WITH_KNOTS('',3,(#1224,#1225,#1226,#1227,#1228,#1229,
#1230,#1231,#1232,#1233),.UNSPECIFIED.,.F.,.F.,(4,1,1,1,1,1,1,4),(0.,0.00242363438563588,
0.00484726877127176,0.00969453754254352,0.0121181719281794,0.0145418063138153,
0.0169654406994512,0.019389075085087),.UNSPECIFIED.);
#97=B_SPLINE_CURVE_WITH_KNOTS('',3,(#1245,#1246,#1247,#1248,#1249,#1250,
#1251,#1252,#1253,#1254),.UNSPECIFIED.,.F.,.F.,(4,1,1,1,1,1,1,4),(1.97317673231813E-7,
0.00254414848867315,0.00508809965967308,0.007632050830673,0.0101760020016729,
0.0127199531726728,0.0152639043436728,0.0203518066856726),.UNSPECIFIED.);
#98=B_SPLINE_CURVE_WITH_KNOTS('',3,(#1284,#1285,#1286,#1287,#1288,#1289,
#1290,#1291,#1292,#1293,#1294,#1295,#1296,#1297,#1298,#1299,#1300,#1301,
#1302),.UNSPECIFIED.,.T.,.F.,(1,1,1,1,1,1,1,1,1,1,1,1,1,1,1,1,1,1,1,1,1,
1,1),(-0.00762263668733474,-0.00508175779155649,-0.00254087889577824,3.90312782094782E-18,
0.00254087889577825,0.0050817577915565,0.00762263668733475,0.010163515583113,
0.0127043944788912,0.0152452733746695,0.0177861522704477,0.020327031166226,
0.0228679100620042,0.0254087889577825,0.0279496678535607,0.030490546749339,
0.0330314256451172,0.0355723045408955,0.0381131834366737,0.040654062332452,
0.0431949412282302,0.0457358201240085,0.0482766990197867),.UNSPECIFIED.);
#99=ORIENTED_EDGE('',*,*,#257,.T.);
#100=ORIENTED_EDGE('',*,*,#258,.F.);
#101=ORIENTED_EDGE('',*,*,#259,.T.);
#102=ORIENTED_EDGE('',*,*,#260,.T.);
#103=ORIENTED_EDGE('',*,*,#261,.F.);
#104=ORIENTED_EDGE('',*,*,#262,.T.);
#105=ORIENTED_EDGE('',*,*,#263,.F.);
#106=ORIENTED_EDGE('',*,*,#264,.T.);
#107=ORIENTED_EDGE('',*,*,#265,.T.);
#108=ORIENTED_EDGE('',*,*,#266,.F.);
#109=ORIENTED_EDGE('',*,*,#267,.T.);
#110=ORIENTED_EDGE('',*,*,#268,.F.);
#111=ORIENTED_EDGE('',*,*,#269,.T.);
#112=ORIENTED_EDGE('',*,*,#270,.T.);
#113=ORIENTED_EDGE('',*,*,#271,.F.);
#114=ORIENTED_EDGE('',*,*,#272,.T.);
#115=ORIENTED_EDGE('',*,*,#273,.F.);
#116=ORIENTED_EDGE('',*,*,#274,.T.);
#117=ORIENTED_EDGE('',*,*,#275,.T.);
#118=ORIENTED_EDGE('',*,*,#276,.F.);
#119=ORIENTED_EDGE('',*,*,#277,.T.);
#120=ORIENTED_EDGE('',*,*,#278,.F.);
#121=ORIENTED_EDGE('',*,*,#279,.T.);
#122=ORIENTED_EDGE('',*,*,#280,.T.);
#123=ORIENTED_EDGE('',*,*,#281,.F.);
#124=ORIENTED_EDGE('',*,*,#282,.T.);
#125=ORIENTED_EDGE('',*,*,#283,.F.);
#126=ORIENTED_EDGE('',*,*,#284,.T.);
#127=ORIENTED_EDGE('',*,*,#285,.T.);
#128=ORIENTED_EDGE('',*,*,#286,.F.);
#129=ORIENTED_EDGE('',*,*,#287,.T.);
#130=ORIENTED_EDGE('',*,*,#288,.F.);
#131=ORIENTED_EDGE('',*,*,#289,.T.);
#132=ORIENTED_EDGE('',*,*,#290,.T.);
#133=ORIENTED_EDGE('',*,*,#291,.F.);
#134=ORIENTED_EDGE('',*,*,#292,.T.);
#135=ORIENTED_EDGE('',*,*,#293,.T.);
#136=ORIENTED_EDGE('',*,*,#261,.T.);
#137=ORIENTED_EDGE('',*,*,#294,.T.);
#138=ORIENTED_EDGE('',*,*,#295,.T.);
#139=ORIENTED_EDGE('',*,*,#296,.T.);
#140=ORIENTED_EDGE('',*,*,#291,.T.);
#141=ORIENTED_EDGE('',*,*,#297,.T.);
#142=ORIENTED_EDGE('',*,*,#286,.T.);
#143=ORIENTED_EDGE('',*,*,#298,.T.);
#144=ORIENTED_EDGE('',*,*,#281,.T.);
#145=ORIENTED_EDGE('',*,*,#299,.T.);
#146=ORIENTED_EDGE('',*,*,#276,.T.);
#147=ORIENTED_EDGE('',*,*,#300,.T.);
#148=ORIENTED_EDGE('',*,*,#271,.T.);
#149=ORIENTED_EDGE('',*,*,#301,.T.);
#150=ORIENTED_EDGE('',*,*,#266,.T.);
#151=ORIENTED_EDGE('',*,*,#302,.T.);
#152=ORIENTED_EDGE('',*,*,#293,.F.);
#153=ORIENTED_EDGE('',*,*,#265,.F.);
#154=ORIENTED_EDGE('',*,*,#301,.F.);
#155=ORIENTED_EDGE('',*,*,#270,.F.);
#156=ORIENTED_EDGE('',*,*,#300,.F.);
#157=ORIENTED_EDGE('',*,*,#275,.F.);
#158=ORIENTED_EDGE('',*,*,#299,.F.);
#159=ORIENTED_EDGE('',*,*,#280,.F.);
#160=ORIENTED_EDGE('',*,*,#298,.F.);
#161=ORIENTED_EDGE('',*,*,#285,.F.);
#162=ORIENTED_EDGE('',*,*,#297,.F.);
#163=ORIENTED_EDGE('',*,*,#290,.F.);
#164=ORIENTED_EDGE('',*,*,#296,.F.);
#165=ORIENTED_EDGE('',*,*,#303,.F.);
#166=ORIENTED_EDGE('',*,*,#294,.F.);
#167=ORIENTED_EDGE('',*,*,#260,.F.);
#168=ORIENTED_EDGE('',*,*,#302,.F.);
#169=ORIENTED_EDGE('',*,*,#304,.T.);
#170=ORIENTED_EDGE('',*,*,#305,.F.);
#171=ORIENTED_EDGE('',*,*,#306,.F.);
#172=ORIENTED_EDGE('',*,*,#305,.T.);
#173=ORIENTED_EDGE('',*,*,#307,.F.);
#174=ORIENTED_EDGE('',*,*,#308,.F.);
#175=ORIENTED_EDGE('',*,*,#309,.F.);
#176=ORIENTED_EDGE('',*,*,#310,.F.);
#177=ORIENTED_EDGE('',*,*,#311,.F.);
#178=ORIENTED_EDGE('',*,*,#312,.F.);
#179=ORIENTED_EDGE('',*,*,#313,.F.);
#180=ORIENTED_EDGE('',*,*,#314,.F.);
#181=ORIENTED_EDGE('',*,*,#315,.T.);
#182=ORIENTED_EDGE('',*,*,#306,.T.);
#183=ORIENTED_EDGE('',*,*,#315,.F.);
#184=ORIENTED_EDGE('',*,*,#258,.T.);
#185=ORIENTED_EDGE('',*,*,#263,.T.);
#186=ORIENTED_EDGE('',*,*,#268,.T.);
#187=ORIENTED_EDGE('',*,*,#273,.T.);
#188=ORIENTED_EDGE('',*,*,#278,.T.);
#189=ORIENTED_EDGE('',*,*,#283,.T.);
#190=ORIENTED_EDGE('',*,*,#288,.T.);
#191=ORIENTED_EDGE('',*,*,#316,.T.);
#192=ORIENTED_EDGE('',*,*,#317,.T.);
#193=ORIENTED_EDGE('',*,*,#292,.F.);
#194=ORIENTED_EDGE('',*,*,#317,.F.);
#195=ORIENTED_EDGE('',*,*,#304,.F.);
#196=ORIENTED_EDGE('',*,*,#267,.F.);
#197=ORIENTED_EDGE('',*,*,#269,.F.);
#198=ORIENTED_EDGE('',*,*,#307,.T.);
#199=ORIENTED_EDGE('',*,*,#318,.F.);
#200=ORIENTED_EDGE('',*,*,#319,.F.);
#201=ORIENTED_EDGE('',*,*,#320,.T.);
#202=ORIENTED_EDGE('',*,*,#262,.F.);
#203=ORIENTED_EDGE('',*,*,#264,.F.);
#204=ORIENTED_EDGE('',*,*,#314,.T.);
#205=ORIENTED_EDGE('',*,*,#321,.F.);
#206=ORIENTED_EDGE('',*,*,#322,.F.);
#207=ORIENTED_EDGE('',*,*,#318,.T.);
#208=ORIENTED_EDGE('',*,*,#257,.F.);
#209=ORIENTED_EDGE('',*,*,#259,.F.);
#210=ORIENTED_EDGE('',*,*,#313,.T.);
#211=ORIENTED_EDGE('',*,*,#323,.F.);
#212=ORIENTED_EDGE('',*,*,#324,.F.);
#213=ORIENTED_EDGE('',*,*,#321,.T.);
#214=ORIENTED_EDGE('',*,*,#325,.F.);
#215=ORIENTED_EDGE('',*,*,#326,.F.);
#216=ORIENTED_EDGE('',*,*,#312,.T.);
#217=ORIENTED_EDGE('',*,*,#327,.F.);
#218=ORIENTED_EDGE('',*,*,#328,.F.);
#219=ORIENTED_EDGE('',*,*,#323,.T.);
#220=ORIENTED_EDGE('',*,*,#287,.F.);
#221=ORIENTED_EDGE('',*,*,#289,.F.);
#222=ORIENTED_EDGE('',*,*,#311,.T.);
#223=ORIENTED_EDGE('',*,*,#329,.F.);
#224=ORIENTED_EDGE('',*,*,#330,.F.);
#225=ORIENTED_EDGE('',*,*,#327,.T.);
#226=ORIENTED_EDGE('',*,*,#282,.F.);
#227=ORIENTED_EDGE('',*,*,#284,.F.);
#228=ORIENTED_EDGE('',*,*,#310,.T.);
#229=ORIENTED_EDGE('',*,*,#331,.F.);
#230=ORIENTED_EDGE('',*,*,#332,.F.);
#231=ORIENTED_EDGE('',*,*,#329,.T.);
#232=ORIENTED_EDGE('',*,*,#277,.F.);
#233=ORIENTED_EDGE('',*,*,#279,.F.);
#234=ORIENTED_EDGE('',*,*,#309,.T.);
#235=ORIENTED_EDGE('',*,*,#333,.F.);
#236=ORIENTED_EDGE('',*,*,#334,.F.);
#237=ORIENTED_EDGE('',*,*,#331,.T.);
#238=ORIENTED_EDGE('',*,*,#272,.F.);
#239=ORIENTED_EDGE('',*,*,#274,.F.);
#240=ORIENTED_EDGE('',*,*,#308,.T.);
#241=ORIENTED_EDGE('',*,*,#320,.F.);
#242=ORIENTED_EDGE('',*,*,#335,.F.);
#243=ORIENTED_EDGE('',*,*,#333,.T.);
#244=ORIENTED_EDGE('',*,*,#319,.T.);
#245=ORIENTED_EDGE('',*,*,#322,.T.);
#246=ORIENTED_EDGE('',*,*,#324,.T.);
#247=ORIENTED_EDGE('',*,*,#328,.T.);
#248=ORIENTED_EDGE('',*,*,#330,.T.);
#249=ORIENTED_EDGE('',*,*,#332,.T.);
#250=ORIENTED_EDGE('',*,*,#334,.T.);
#251=ORIENTED_EDGE('',*,*,#335,.T.);
#252=ORIENTED_EDGE('',*,*,#326,.T.);
#253=ORIENTED_EDGE('',*,*,#316,.F.);
#254=ORIENTED_EDGE('',*,*,#325,.T.);
#255=ORIENTED_EDGE('',*,*,#303,.T.);
#256=ORIENTED_EDGE('',*,*,#295,.F.);
#257=EDGE_CURVE('',#336,#336,#399,.T.);
#258=EDGE_CURVE('',#337,#337,#75,.T.);
#259=EDGE_CURVE('',#338,#338,#400,.T.);
#260=EDGE_CURVE('',#339,#340,#76,.T.);
#261=EDGE_CURVE('',#339,#340,#77,.T.);
#262=EDGE_CURVE('',#341,#341,#401,.T.);
#263=EDGE_CURVE('',#342,#342,#78,.T.);
#264=EDGE_CURVE('',#343,#343,#402,.T.);
#265=EDGE_CURVE('',#344,#345,#79,.T.);
#266=EDGE_CURVE('',#344,#345,#80,.T.);
#267=EDGE_CURVE('',#346,#346,#403,.T.);
#268=EDGE_CURVE('',#347,#347,#81,.T.);
#269=EDGE_CURVE('',#348,#348,#404,.T.);
#270=EDGE_CURVE('',#349,#350,#82,.T.);
#271=EDGE_CURVE('',#349,#350,#83,.T.);
#272=EDGE_CURVE('',#351,#351,#405,.T.);
#273=EDGE_CURVE('',#352,#352,#84,.T.);
#274=EDGE_CURVE('',#353,#353,#406,.T.);
#275=EDGE_CURVE('',#354,#355,#85,.T.);
#276=EDGE_CURVE('',#354,#355,#86,.T.);
#277=EDGE_CURVE('',#356,#356,#407,.T.);
#278=EDGE_CURVE('',#357,#357,#87,.T.);
#279=EDGE_CURVE('',#358,#358,#408,.T.);
#280=EDGE_CURVE('',#359,#360,#88,.T.);
#281=EDGE_CURVE('',#359,#360,#89,.T.);
#282=EDGE_CURVE('',#361,#361,#409,.T.);
#283=EDGE_CURVE('',#362,#362,#90,.T.);
#284=EDGE_CURVE('',#363,#363,#410,.T.);
#285=EDGE_CURVE('',#364,#365,#91,.T.);
#286=EDGE_CURVE('',#364,#365,#92,.T.);
#287=EDGE_CURVE('',#366,#366,#411,.T.);
#288=EDGE_CURVE('',#367,#367,#93,.T.);
#289=EDGE_CURVE('',#368,#368,#412,.T.);
#290=EDGE_CURVE('',#369,#370,#94,.T.);
#291=EDGE_CURVE('',#369,#370,#95,.T.);
#292=EDGE_CURVE('',#371,#371,#413,.F.);
#293=EDGE_CURVE('',#345,#339,#414,.T.);
#294=EDGE_CURVE('',#340,#372,#415,.T.);
#295=EDGE_CURVE('',#372,#373,#96,.T.);
#296=EDGE_CURVE('',#373,#369,#416,.T.);
#297=EDGE_CURVE('',#370,#364,#417,.T.);
#298=EDGE_CURVE('',#365,#359,#418,.T.);
#299=EDGE_CURVE('',#360,#354,#419,.T.);
#300=EDGE_CURVE('',#355,#349,#420,.T.);
#301=EDGE_CURVE('',#350,#344,#421,.T.);
#302=EDGE_CURVE('',#374,#374,#422,.F.);
#303=EDGE_CURVE('',#372,#373,#97,.T.);
#304=EDGE_CURVE('',#375,#375,#423,.F.);
#305=EDGE_CURVE('',#376,#376,#424,.T.);
#306=EDGE_CURVE('',#377,#377,#425,.T.);
#307=EDGE_CURVE('',#378,#379,#13,.T.);
#308=EDGE_CURVE('',#380,#378,#14,.T.);
#309=EDGE_CURVE('',#381,#380,#15,.T.);
#310=EDGE_CURVE('',#382,#381,#16,.T.);
#311=EDGE_CURVE('',#383,#382,#17,.T.);
#312=EDGE_CURVE('',#384,#383,#18,.T.);
#313=EDGE_CURVE('',#385,#384,#19,.T.);
#314=EDGE_CURVE('',#379,#385,#20,.T.);
#315=EDGE_CURVE('',#386,#386,#426,.T.);
#316=EDGE_CURVE('',#387,#387,#98,.T.);
#317=EDGE_CURVE('',#388,#388,#427,.T.);
#318=EDGE_CURVE('',#389,#379,#21,.T.);
#319=EDGE_CURVE('',#390,#389,#22,.T.);
#320=EDGE_CURVE('',#390,#378,#23,.T.);
#321=EDGE_CURVE('',#391,#385,#24,.T.);
#322=EDGE_CURVE('',#389,#391,#25,.T.);
#323=EDGE_CURVE('',#392,#384,#26,.T.);
#324=EDGE_CURVE('',#391,#392,#27,.T.);
#325=EDGE_CURVE('',#393,#393,#428,.T.);
#326=EDGE_CURVE('',#394,#394,#429,.T.);
#327=EDGE_CURVE('',#395,#383,#28,.T.);
#328=EDGE_CURVE('',#392,#395,#29,.T.);
#329=EDGE_CURVE('',#396,#382,#30,.T.);
#330=EDGE_CURVE('',#395,#396,#31,.T.);
#331=EDGE_CURVE('',#397,#381,#32,.T.);
#332=EDGE_CURVE('',#396,#397,#33,.T.);
#333=EDGE_CURVE('',#398,#380,#34,.T.);
#334=EDGE_CURVE('',#397,#398,#35,.T.);
#335=EDGE_CURVE('',#398,#390,#36,.T.);
#336=VERTEX_POINT('',#884);
#337=VERTEX_POINT('',#904);
#338=VERTEX_POINT('',#907);
#339=VERTEX_POINT('',#918);
#340=VERTEX_POINT('',#919);
#341=VERTEX_POINT('',#932);
#342=VERTEX_POINT('',#952);
#343=VERTEX_POINT('',#955);
#344=VERTEX_POINT('',#966);
#345=VERTEX_POINT('',#967);
#346=VERTEX_POINT('',#980);
#347=VERTEX_POINT('',#1000);
#348=VERTEX_POINT('',#1003);
#349=VERTEX_POINT('',#1014);
#350=VERTEX_POINT('',#1015);
#351=VERTEX_POINT('',#1028);
#352=VERTEX_POINT('',#1048);
#353=VERTEX_POINT('',#1051);
#354=VERTEX_POINT('',#1062);
#355=VERTEX_POINT('',#1063);
#356=VERTEX_POINT('',#1076);
#357=VERTEX_POINT('',#1096);
#358=VERTEX_POINT('',#1099);
#359=VERTEX_POINT('',#1110);
#360=VERTEX_POINT('',#1111);
#361=VERTEX_POINT('',#1124);
#362=VERTEX_POINT('',#1144);
#363=VERTEX_POINT('',#1147);
#364=VERTEX_POINT('',#1158);
#365=VERTEX_POINT('',#1159);
#366=VERTEX_POINT('',#1172);
#367=VERTEX_POINT('',#1192);
#368=VERTEX_POINT('',#1195);
#369=VERTEX_POINT('',#1206);
#370=VERTEX_POINT('',#1207);
#371=VERTEX_POINT('',#1220);
#372=VERTEX_POINT('',#1223);
#373=VERTEX_POINT('',#1234);
#374=VERTEX_POINT('',#1243);
#375=VERTEX_POINT('',#1257);
#376=VERTEX_POINT('',#1259);
#377=VERTEX_POINT('',#1262);
#378=VERTEX_POINT('',#1265);
#379=VERTEX_POINT('',#1266);
#380=VERTEX_POINT('',#1268);
#381=VERTEX_POINT('',#1270);
#382=VERTEX_POINT('',#1272);
#383=VERTEX_POINT('',#1274);
#384=VERTEX_POINT('',#1276);
#385=VERTEX_POINT('',#1278);
#386=VERTEX_POINT('',#1281);
#387=VERTEX_POINT('',#1303);
#388=VERTEX_POINT('',#1305);
#389=VERTEX_POINT('',#1309);
#390=VERTEX_POINT('',#1311);
#391=VERTEX_POINT('',#1315);
#392=VERTEX_POINT('',#1319);
#393=VERTEX_POINT('',#1323);
#394=VERTEX_POINT('',#1325);
#395=VERTEX_POINT('',#1327);
#396=VERTEX_POINT('',#1331);
#397=VERTEX_POINT('',#1335);
#398=VERTEX_POINT('',#1339);
#399=CIRCLE('',#661,0.00635);
#400=CIRCLE('',#663,0.00635);
#401=CIRCLE('',#665,0.00635);
#402=CIRCLE('',#667,0.00635);
#403=CIRCLE('',#669,0.00635);
#404=CIRCLE('',#671,0.00635);
#405=CIRCLE('',#673,0.00635);
#406=CIRCLE('',#675,0.00635);
#407=CIRCLE('',#677,0.00635);
#408=CIRCLE('',#679,0.00635);
#409=CIRCLE('',#681,0.00635);
#410=CIRCLE('',#683,0.00635);
#411=CIRCLE('',#685,0.00635);
#412=CIRCLE('',#687,0.00635);
#413=CIRCLE('',#689,0.0412115);
#414=CIRCLE('',#690,0.0412115);
#415=CIRCLE('',#691,0.0412115);
#416=CIRCLE('',#692,0.0412115);
#417=CIRCLE('',#693,0.0412115);
#418=CIRCLE('',#694,0.0412115);
#419=CIRCLE('',#695,0.0412115);
#420=CIRCLE('',#696,0.0412115);
#421=CIRCLE('',#697,0.0412115);
#422=CIRCLE('',#699,0.0094615);
#423=CIRCLE('',#702,0.0635);
#424=CIRCLE('',#703,0.0635);
#425=CIRCLE('',#705,0.0412115);
#426=CIRCLE('',#707,0.0412115);
#427=CIRCLE('',#710,0.05235575);
#428=CIRCLE('',#716,0.00635);
#429=CIRCLE('',#717,0.00635);
#430=EDGE_LOOP('',(#99));
#431=EDGE_LOOP('',(#100));
#432=EDGE_LOOP('',(#101));
#433=EDGE_LOOP('',(#102,#103));
#434=EDGE_LOOP('',(#104));
#435=EDGE_LOOP('',(#105));
#436=EDGE_LOOP('',(#106));
#437=EDGE_LOOP('',(#107,#108));
#438=EDGE_LOOP('',(#109));
#439=EDGE_LOOP('',(#110));
#440=EDGE_LOOP('',(#111));
#441=EDGE_LOOP('',(#112,#113));
#442=EDGE_LOOP('',(#114));
#443=EDGE_LOOP('',(#115));
#444=EDGE_LOOP('',(#116));
#445=EDGE_LOOP('',(#117,#118));
#446=EDGE_LOOP('',(#119));
#447=EDGE_LOOP('',(#120));
#448=EDGE_LOOP('',(#121));
#449=EDGE_LOOP('',(#122,#123));
#450=EDGE_LOOP('',(#124));
#451=EDGE_LOOP('',(#125));
#452=EDGE_LOOP('',(#126));
#453=EDGE_LOOP('',(#127,#128));
#454=EDGE_LOOP('',(#129));
#455=EDGE_LOOP('',(#130));
#456=EDGE_LOOP('',(#131));
#457=EDGE_LOOP('',(#132,#133));
#458=EDGE_LOOP('',(#134));
#459=EDGE_LOOP('',(#135,#136,#137,#138,#139,#140,#141,#142,#143,#144,#145,
#146,#147,#148,#149,#150));
#460=EDGE_LOOP('',(#151));
#461=EDGE_LOOP('',(#152,#153,#154,#155,#156,#157,#158,#159,#160,#161,#162,
#163,#164,#165,#166,#167));
#462=EDGE_LOOP('',(#168));
#463=EDGE_LOOP('',(#169));
#464=EDGE_LOOP('',(#170));
#465=EDGE_LOOP('',(#171));
#466=EDGE_LOOP('',(#172));
#467=EDGE_LOOP('',(#173,#174,#175,#176,#177,#178,#179,#180));
#468=EDGE_LOOP('',(#181));
#469=EDGE_LOOP('',(#182));
#470=EDGE_LOOP('',(#183));
#471=EDGE_LOOP('',(#184));
#472=EDGE_LOOP('',(#185));
#473=EDGE_LOOP('',(#186));
#474=EDGE_LOOP('',(#187));
#475=EDGE_LOOP('',(#188));
#476=EDGE_LOOP('',(#189));
#477=EDGE_LOOP('',(#190));
#478=EDGE_LOOP('',(#191));
#479=EDGE_LOOP('',(#192));
#480=EDGE_LOOP('',(#193));
#481=EDGE_LOOP('',(#194));
#482=EDGE_LOOP('',(#195));
#483=EDGE_LOOP('',(#196));
#484=EDGE_LOOP('',(#197));
#485=EDGE_LOOP('',(#198,#199,#200,#201));
#486=EDGE_LOOP('',(#202));
#487=EDGE_LOOP('',(#203));
#488=EDGE_LOOP('',(#204,#205,#206,#207));
#489=EDGE_LOOP('',(#208));
#490=EDGE_LOOP('',(#209));
#491=EDGE_LOOP('',(#210,#211,#212,#213));
#492=EDGE_LOOP('',(#214));
#493=EDGE_LOOP('',(#215));
#494=EDGE_LOOP('',(#216,#217,#218,#219));
#495=EDGE_LOOP('',(#220));
#496=EDGE_LOOP('',(#221));
#497=EDGE_LOOP('',(#222,#223,#224,#225));
#498=EDGE_LOOP('',(#226));
#499=EDGE_LOOP('',(#227));
#500=EDGE_LOOP('',(#228,#229,#230,#231));
#501=EDGE_LOOP('',(#232));
#502=EDGE_LOOP('',(#233));
#503=EDGE_LOOP('',(#234,#235,#236,#237));
#504=EDGE_LOOP('',(#238));
#505=EDGE_LOOP('',(#239));
#506=EDGE_LOOP('',(#240,#241,#242,#243));
#507=EDGE_LOOP('',(#244,#245,#246,#247,#248,#249,#250,#251));
#508=EDGE_LOOP('',(#252));
#509=EDGE_LOOP('',(#253));
#510=EDGE_LOOP('',(#254));
#511=EDGE_LOOP('',(#255,#256));
#512=FACE_BOUND('',#430,.T.);
#513=FACE_BOUND('',#431,.T.);
#514=FACE_BOUND('',#432,.T.);
#515=FACE_BOUND('',#433,.T.);
#516=FACE_BOUND('',#434,.T.);
#517=FACE_BOUND('',#435,.T.);
#518=FACE_BOUND('',#436,.T.);
#519=FACE_BOUND('',#437,.T.);
#520=FACE_BOUND('',#438,.T.);
#521=FACE_BOUND('',#439,.T.);
#522=FACE_BOUND('',#440,.T.);
#523=FACE_BOUND('',#441,.T.);
#524=FACE_BOUND('',#442,.T.);
#525=FACE_BOUND('',#443,.T.);
#526=FACE_BOUND('',#444,.T.);
#527=FACE_BOUND('',#445,.T.);
#528=FACE_BOUND('',#446,.T.);
#529=FACE_BOUND('',#447,.T.);
#530=FACE_BOUND('',#448,.T.);
#531=FACE_BOUND('',#449,.T.);
#532=FACE_BOUND('',#450,.T.);
#533=FACE_BOUND('',#451,.T.);
#534=FACE_BOUND('',#452,.T.);
#535=FACE_BOUND('',#453,.T.);
#536=FACE_BOUND('',#454,.T.);
#537=FACE_BOUND('',#455,.T.);
#538=FACE_BOUND('',#456,.T.);
#539=FACE_BOUND('',#457,.T.);
#540=FACE_BOUND('',#458,.T.);
#541=FACE_BOUND('',#459,.T.);
#542=FACE_BOUND('',#460,.T.);
#543=FACE_BOUND('',#461,.T.);
#544=FACE_BOUND('',#462,.T.);
#545=FACE_BOUND('',#463,.T.);
#546=FACE_BOUND('',#464,.T.);
#547=FACE_BOUND('',#465,.T.);
#548=FACE_BOUND('',#466,.T.);
#549=FACE_BOUND('',#467,.T.);
#550=FACE_BOUND('',#468,.T.);
#551=FACE_BOUND('',#469,.T.);
#552=FACE_BOUND('',#470,.T.);
#553=FACE_BOUND('',#471,.T.);
#554=FACE_BOUND('',#472,.T.);
#555=FACE_BOUND('',#473,.T.);
#556=FACE_BOUND('',#474,.T.);
#557=FACE_BOUND('',#475,.T.);
#558=FACE_BOUND('',#476,.T.);
#559=FACE_BOUND('',#477,.T.);
#560=FACE_BOUND('',#478,.T.);
#561=FACE_BOUND('',#479,.T.);
#562=FACE_BOUND('',#480,.T.);
#563=FACE_BOUND('',#481,.T.);
#564=FACE_BOUND('',#482,.T.);
#565=FACE_BOUND('',#483,.T.);
#566=FACE_BOUND('',#484,.T.);
#567=FACE_BOUND('',#485,.T.);
#568=FACE_BOUND('',#486,.T.);
#569=FACE_BOUND('',#487,.T.);
#570=FACE_BOUND('',#488,.T.);
#571=FACE_BOUND('',#489,.T.);
#572=FACE_BOUND('',#490,.T.);
#573=FACE_BOUND('',#491,.T.);
#574=FACE_BOUND('',#492,.T.);
#575=FACE_BOUND('',#493,.T.);
#576=FACE_BOUND('',#494,.T.);
#577=FACE_BOUND('',#495,.T.);
#578=FACE_BOUND('',#496,.T.);
#579=FACE_BOUND('',#497,.T.);
#580=FACE_BOUND('',#498,.T.);
#581=FACE_BOUND('',#499,.T.);
#582=FACE_BOUND('',#500,.T.);
#583=FACE_BOUND('',#501,.T.);
#584=FACE_BOUND('',#502,.T.);
#585=FACE_BOUND('',#503,.T.);
#586=FACE_BOUND('',#504,.T.);
#587=FACE_BOUND('',#505,.T.);
#588=FACE_BOUND('',#506,.T.);
#589=FACE_BOUND('',#507,.T.);
#590=FACE_BOUND('',#508,.T.);
#591=FACE_BOUND('',#509,.T.);
#592=FACE_BOUND('',#510,.T.);
#593=FACE_BOUND('',#511,.T.);
#594=CYLINDRICAL_SURFACE('',#660,0.00635);
#595=CYLINDRICAL_SURFACE('',#662,0.00635);
#596=CYLINDRICAL_SURFACE('',#664,0.00635);
#597=CYLINDRICAL_SURFACE('',#666,0.00635);
#598=CYLINDRICAL_SURFACE('',#668,0.00635);
#599=CYLINDRICAL_SURFACE('',#670,0.00635);
#600=CYLINDRICAL_SURFACE('',#672,0.00635);
#601=CYLINDRICAL_SURFACE('',#674,0.00635);
#602=CYLINDRICAL_SURFACE('',#676,0.00635);
#603=CYLINDRICAL_SURFACE('',#678,0.00635);
#604=CYLINDRICAL_SURFACE('',#680,0.00635);
#605=CYLINDRICAL_SURFACE('',#682,0.00635);
#606=CYLINDRICAL_SURFACE('',#684,0.00635);
#607=CYLINDRICAL_SURFACE('',#686,0.00635);
#608=CYLINDRICAL_SURFACE('',#688,0.0412115);
#609=CYLINDRICAL_SURFACE('',#701,0.0635);
#610=CYLINDRICAL_SURFACE('',#708,0.0412115);
#611=CYLINDRICAL_SURFACE('',#723,0.00635);
#612=CYLINDRICAL_SURFACE('',#724,0.00635);
#613=ADVANCED_FACE('',(#512,#513),#594,.F.);
#614=ADVANCED_FACE('',(#514,#515),#595,.F.);
#615=ADVANCED_FACE('',(#516,#517),#596,.F.);
#616=ADVANCED_FACE('',(#518,#519),#597,.F.);
#617=ADVANCED_FACE('',(#520,#521),#598,.F.);
#618=ADVANCED_FACE('',(#522,#523),#599,.F.);
#619=ADVANCED_FACE('',(#524,#525),#600,.F.);
#620=ADVANCED_FACE('',(#526,#527),#601,.F.);
#621=ADVANCED_FACE('',(#528,#529),#602,.F.);
#622=ADVANCED_FACE('',(#530,#531),#603,.F.);
#623=ADVANCED_FACE('',(#532,#533),#604,.F.);
#624=ADVANCED_FACE('',(#534,#535),#605,.F.);
#625=ADVANCED_FACE('',(#536,#537),#606,.F.);
#626=ADVANCED_FACE('',(#538,#539),#607,.F.);
#627=ADVANCED_FACE('',(#540,#541),#608,.T.);
#628=ADVANCED_FACE('',(#542),#63,.F.);
#629=ADVANCED_FACE('',(#543,#544),#61,.T.);
#630=ADVANCED_FACE('',(#545,#546),#609,.T.);
#631=ADVANCED_FACE('',(#547,#548),#64,.T.);
#632=ADVANCED_FACE('',(#549,#550),#65,.T.);
#633=ADVANCED_FACE('',(#551,#552),#610,.T.);
#634=ADVANCED_FACE('',(#553,#554,#555,#556,#557,#558,#559,#560,#561,#562),
#12,.F.);
#635=ADVANCED_FACE('',(#563,#564),#62,.T.);
#636=ADVANCED_FACE('',(#565,#566,#567),#66,.F.);
#637=ADVANCED_FACE('',(#568,#569,#570),#67,.F.);
#638=ADVANCED_FACE('',(#571,#572,#573),#68,.F.);
#639=ADVANCED_FACE('',(#574,#575,#576),#69,.F.);
#640=ADVANCED_FACE('',(#577,#578,#579),#70,.F.);
#641=ADVANCED_FACE('',(#580,#581,#582),#71,.F.);
#642=ADVANCED_FACE('',(#583,#584,#585),#72,.F.);
#643=ADVANCED_FACE('',(#586,#587,#588),#73,.F.);
#644=ADVANCED_FACE('',(#589),#74,.T.);
#645=ADVANCED_FACE('',(#590,#591),#611,.F.);
#646=ADVANCED_FACE('',(#592,#593),#612,.F.);
#647=CLOSED_SHELL('',(#613,#614,#615,#616,#617,#618,#619,#620,#621,#622,
#623,#624,#625,#626,#627,#628,#629,#630,#631,#632,#633,#634,#635,#636,#637,
#638,#639,#640,#641,#642,#643,#644,#645,#646));
#648=STYLED_ITEM('',(#649),#656);
#649=PRESENTATION_STYLE_ASSIGNMENT((#650));
#650=SURFACE_STYLE_USAGE(.BOTH.,#651);
#651=SURFACE_SIDE_STYLE('',(#652));
#652=SURFACE_STYLE_FILL_AREA(#653);
#653=FILL_AREA_STYLE('',(#654));
#654=FILL_AREA_STYLE_COLOUR('',#655);
#655=COLOUR_RGB('',0.615686274509804,0.811764705882353,0.929411764705882);
#656=MANIFOLD_SOLID_BREP('Top Sensor Housing',#647);
#657=SHAPE_DEFINITION_REPRESENTATION(#1352,#658);
#658=SHAPE_REPRESENTATION('Top Sensor Housing',(#659),#1347);
#659=AXIS2_PLACEMENT_3D('',#881,#725,#726);
#660=AXIS2_PLACEMENT_3D('',#882,#727,#728);
#661=AXIS2_PLACEMENT_3D('',#883,#729,#730);
#662=AXIS2_PLACEMENT_3D('',#905,#731,#732);
#663=AXIS2_PLACEMENT_3D('',#906,#733,#734);
#664=AXIS2_PLACEMENT_3D('',#930,#735,#736);
#665=AXIS2_PLACEMENT_3D('',#931,#737,#738);
#666=AXIS2_PLACEMENT_3D('',#953,#739,#740);
#667=AXIS2_PLACEMENT_3D('',#954,#741,#742);
#668=AXIS2_PLACEMENT_3D('',#978,#743,#744);
#669=AXIS2_PLACEMENT_3D('',#979,#745,#746);
#670=AXIS2_PLACEMENT_3D('',#1001,#747,#748);
#671=AXIS2_PLACEMENT_3D('',#1002,#749,#750);
#672=AXIS2_PLACEMENT_3D('',#1026,#751,#752);
#673=AXIS2_PLACEMENT_3D('',#1027,#753,#754);
#674=AXIS2_PLACEMENT_3D('',#1049,#755,#756);
#675=AXIS2_PLACEMENT_3D('',#1050,#757,#758);
#676=AXIS2_PLACEMENT_3D('',#1074,#759,#760);
#677=AXIS2_PLACEMENT_3D('',#1075,#761,#762);
#678=AXIS2_PLACEMENT_3D('',#1097,#763,#764);
#679=AXIS2_PLACEMENT_3D('',#1098,#765,#766);
#680=AXIS2_PLACEMENT_3D('',#1122,#767,#768);
#681=AXIS2_PLACEMENT_3D('',#1123,#769,#770);
#682=AXIS2_PLACEMENT_3D('',#1145,#771,#772);
#683=AXIS2_PLACEMENT_3D('',#1146,#773,#774);
#684=AXIS2_PLACEMENT_3D('',#1170,#775,#776);
#685=AXIS2_PLACEMENT_3D('',#1171,#777,#778);
#686=AXIS2_PLACEMENT_3D('',#1193,#779,#780);
#687=AXIS2_PLACEMENT_3D('',#1194,#781,#782);
#688=AXIS2_PLACEMENT_3D('',#1218,#783,#784);
#689=AXIS2_PLACEMENT_3D('',#1219,#785,#786);
#690=AXIS2_PLACEMENT_3D('',#1221,#787,#788);
#691=AXIS2_PLACEMENT_3D('',#1222,#789,#790);
#692=AXIS2_PLACEMENT_3D('',#1235,#791,#792);
#693=AXIS2_PLACEMENT_3D('',#1236,#793,#794);
#694=AXIS2_PLACEMENT_3D('',#1237,#795,#796);
#695=AXIS2_PLACEMENT_3D('',#1238,#797,#798);
#696=AXIS2_PLACEMENT_3D('',#1239,#799,#800);
#697=AXIS2_PLACEMENT_3D('',#1240,#801,#802);
#698=AXIS2_PLACEMENT_3D('',#1241,#803,#804);
#699=AXIS2_PLACEMENT_3D('',#1242,#805,#806);
#700=AXIS2_PLACEMENT_3D('',#1244,#807,#808);
#701=AXIS2_PLACEMENT_3D('',#1255,#809,#810);
#702=AXIS2_PLACEMENT_3D('',#1256,#811,#812);
#703=AXIS2_PLACEMENT_3D('',#1258,#813,#814);
#704=AXIS2_PLACEMENT_3D('',#1260,#815,#816);
#705=AXIS2_PLACEMENT_3D('',#1261,#817,#818);
#706=AXIS2_PLACEMENT_3D('',#1263,#819,#820);
#707=AXIS2_PLACEMENT_3D('',#1280,#829,#830);
#708=AXIS2_PLACEMENT_3D('',#1282,#831,#832);
#709=AXIS2_PLACEMENT_3D('',#1283,#833,#834);
#710=AXIS2_PLACEMENT_3D('',#1304,#835,#836);
#711=AXIS2_PLACEMENT_3D('',#1306,#837,#838);
#712=AXIS2_PLACEMENT_3D('',#1307,#839,#840);
#713=AXIS2_PLACEMENT_3D('',#1313,#844,#845);
#714=AXIS2_PLACEMENT_3D('',#1317,#848,#849);
#715=AXIS2_PLACEMENT_3D('',#1321,#852,#853);
#716=AXIS2_PLACEMENT_3D('',#1322,#854,#855);
#717=AXIS2_PLACEMENT_3D('',#1324,#856,#857);
#718=AXIS2_PLACEMENT_3D('',#1329,#860,#861);
#719=AXIS2_PLACEMENT_3D('',#1333,#864,#865);
#720=AXIS2_PLACEMENT_3D('',#1337,#868,#869);
#721=AXIS2_PLACEMENT_3D('',#1341,#872,#873);
#722=AXIS2_PLACEMENT_3D('',#1343,#875,#876);
#723=AXIS2_PLACEMENT_3D('',#1344,#877,#878);
#724=AXIS2_PLACEMENT_3D('',#1345,#879,#880);
#725=DIRECTION('',(0.,0.,1.));
#726=DIRECTION('',(1.,0.,0.));
#727=DIRECTION('',(-0.707106781186548,-0.707106781186547,0.));
#728=DIRECTION('',(0.,0.,-1.));
#729=DIRECTION('',(-0.707106781186548,-0.707106781186547,0.));
#730=DIRECTION('',(0.,0.,-1.));
#731=DIRECTION('',(-0.707106781186548,-0.707106781186547,0.));
#732=DIRECTION('',(0.,0.,-1.));
#733=DIRECTION('',(-0.707106781186548,-0.707106781186547,0.));
#734=DIRECTION('',(0.,0.,-1.));
#735=DIRECTION('',(-1.,1.83697019872103E-16,0.));
#736=DIRECTION('',(0.,0.,-1.));
#737=DIRECTION('',(-1.,1.83697019872103E-16,0.));
#738=DIRECTION('',(0.,0.,-1.));
#739=DIRECTION('',(-1.,1.83697019872103E-16,0.));
#740=DIRECTION('',(0.,0.,-1.));
#741=DIRECTION('',(-1.,1.83697019872103E-16,0.));
#742=DIRECTION('',(0.,0.,-1.));
#743=DIRECTION('',(-0.707106781186548,0.707106781186548,0.));
#744=DIRECTION('',(0.,0.,-1.));
#745=DIRECTION('',(-0.707106781186548,0.707106781186548,0.));
#746=DIRECTION('',(0.,0.,-1.));
#747=DIRECTION('',(-0.707106781186548,0.707106781186548,0.));
#748=DIRECTION('',(0.,0.,-1.));
#749=DIRECTION('',(-0.707106781186548,0.707106781186548,0.));
#750=DIRECTION('',(0.,0.,-1.));
#751=DIRECTION('',(1.22464679914735E-16,1.,0.));
#752=DIRECTION('',(0.,0.,-1.));
#753=DIRECTION('',(1.22464679914735E-16,1.,0.));
#754=DIRECTION('',(0.,0.,-1.));
#755=DIRECTION('',(1.22464679914735E-16,1.,0.));
#756=DIRECTION('',(0.,0.,-1.));
#757=DIRECTION('',(1.22464679914735E-16,1.,0.));
#758=DIRECTION('',(0.,0.,-1.));
#759=DIRECTION('',(0.707106781186548,0.707106781186548,0.));
#760=DIRECTION('',(0.,0.,-1.));
#761=DIRECTION('',(0.707106781186548,0.707106781186548,0.));
#762=DIRECTION('',(0.,0.,-1.));
#763=DIRECTION('',(0.707106781186548,0.707106781186548,0.));
#764=DIRECTION('',(0.,0.,-1.));
#765=DIRECTION('',(0.707106781186548,0.707106781186548,0.));
#766=DIRECTION('',(0.,0.,-1.));
#767=DIRECTION('',(1.,-6.12323399573677E-17,0.));
#768=DIRECTION('',(0.,0.,-1.));
#769=DIRECTION('',(1.,-6.12323399573677E-17,0.));
#770=DIRECTION('',(0.,0.,-1.));
#771=DIRECTION('',(1.,-6.12323399573677E-17,0.));
#772=DIRECTION('',(0.,0.,-1.));
#773=DIRECTION('',(1.,-6.12323399573677E-17,0.));
#774=DIRECTION('',(0.,0.,-1.));
#775=DIRECTION('',(0.707106781186548,-0.707106781186548,0.));
#776=DIRECTION('',(0.,0.,-1.));
#777=DIRECTION('',(0.707106781186548,-0.707106781186548,0.));
#778=DIRECTION('',(0.,0.,-1.));
#779=DIRECTION('',(0.707106781186548,-0.707106781186548,0.));
#780=DIRECTION('',(0.,0.,-1.));
#781=DIRECTION('',(0.707106781186548,-0.707106781186548,0.));
#782=DIRECTION('',(0.,0.,-1.));
#783=DIRECTION('',(0.,0.,-1.));
#784=DIRECTION('',(-1.,0.,0.));
#785=DIRECTION('',(0.,0.,1.));
#786=DIRECTION('',(1.,0.,0.));
#787=DIRECTION('',(0.,0.,1.));
#788=DIRECTION('',(1.,0.,0.));
#789=DIRECTION('',(0.,0.,1.));
#790=DIRECTION('',(1.,0.,0.));
#791=DIRECTION('',(0.,0.,1.));
#792=DIRECTION('',(1.,0.,0.));
#793=DIRECTION('',(0.,0.,1.));
#794=DIRECTION('',(1.,0.,0.));
#795=DIRECTION('',(0.,0.,1.));
#796=DIRECTION('',(1.,0.,0.));
#797=DIRECTION('',(0.,0.,1.));
#798=DIRECTION('',(1.,0.,0.));
#799=DIRECTION('',(0.,0.,1.));
#800=DIRECTION('',(1.,0.,0.));
#801=DIRECTION('',(0.,0.,1.));
#802=DIRECTION('',(1.,0.,0.));
#803=DIRECTION('',(0.,0.,1.));
#804=DIRECTION('',(1.,0.,0.));
#805=DIRECTION('',(0.,0.,1.));
#806=DIRECTION('',(1.,0.,0.));
#807=DIRECTION('',(0.,0.,1.));
#808=DIRECTION('',(1.,0.,0.));
#809=DIRECTION('',(0.,0.,-1.));
#810=DIRECTION('',(-1.,0.,0.));
#811=DIRECTION('',(0.,0.,-1.));
#812=DIRECTION('',(-1.,0.,0.));
#813=DIRECTION('',(0.,0.,1.));
#814=DIRECTION('',(1.,0.,0.));
#815=DIRECTION('',(0.,0.,1.));
#816=DIRECTION('',(1.,0.,0.));
#817=DIRECTION('',(0.,0.,1.));
#818=DIRECTION('',(1.,0.,0.));
#819=DIRECTION('',(0.,0.,1.));
#820=DIRECTION('',(1.,0.,0.));
#821=DIRECTION('',(0.707106781186548,0.707106781186548,0.));
#822=DIRECTION('',(1.,0.,0.));
#823=DIRECTION('',(0.707106781186547,-0.707106781186548,0.));
#824=DIRECTION('',(0.,-1.,0.));
#825=DIRECTION('',(-0.707106781186548,-0.707106781186548,0.));
#826=DIRECTION('',(-1.,0.,0.));
#827=DIRECTION('',(-0.707106781186548,0.707106781186548,0.));
#828=DIRECTION('',(0.,1.,0.));
#829=DIRECTION('',(0.,0.,1.));
#830=DIRECTION('',(1.,0.,0.));
#831=DIRECTION('',(0.,0.,-1.));
#832=DIRECTION('',(-1.,0.,0.));
#833=DIRECTION('',(0.,0.,1.));
#834=DIRECTION('',(1.,0.,0.));
#835=DIRECTION('',(0.,0.,-1.));
#836=DIRECTION('',(-1.,0.,0.));
#837=DIRECTION('',(0.,0.,-1.));
#838=DIRECTION('',(-1.,0.,0.));
#839=DIRECTION('',(0.707106781186548,-0.707106781186548,0.));
#840=DIRECTION('',(0.707106781186548,0.707106781186548,0.));
#841=DIRECTION('',(0.,0.,1.));
#842=DIRECTION('',(0.707106781186548,0.707106781186548,0.));
#843=DIRECTION('',(0.,0.,1.));
#844=DIRECTION('',(1.,0.,0.));
#845=DIRECTION('',(0.,0.,-1.));
#846=DIRECTION('',(0.,0.,1.));
#847=DIRECTION('',(0.,1.,0.));
#848=DIRECTION('',(0.707106781186548,0.707106781186548,0.));
#849=DIRECTION('',(-0.707106781186548,0.707106781186548,0.));
#850=DIRECTION('',(0.,0.,1.));
#851=DIRECTION('',(-0.707106781186548,0.707106781186548,0.));
#852=DIRECTION('',(0.,1.,0.));
#853=DIRECTION('',(0.,0.,1.));
#854=DIRECTION('',(0.,-1.,0.));
#855=DIRECTION('',(0.,0.,-1.));
#856=DIRECTION('',(0.,-1.,0.));
#857=DIRECTION('',(0.,0.,-1.));
#858=DIRECTION('',(0.,0.,1.));
#859=DIRECTION('',(-1.,0.,0.));
#860=DIRECTION('',(-0.707106781186548,0.707106781186548,0.));
#861=DIRECTION('',(-0.707106781186548,-0.707106781186548,0.));
#862=DIRECTION('',(0.,0.,1.));
#863=DIRECTION('',(-0.707106781186548,-0.707106781186548,0.));
#864=DIRECTION('',(-1.,0.,0.));
#865=DIRECTION('',(0.,0.,1.));
#866=DIRECTION('',(0.,0.,1.));
#867=DIRECTION('',(0.,-1.,0.));
#868=DIRECTION('',(-0.707106781186548,-0.707106781186547,0.));
#869=DIRECTION('',(0.707106781186547,-0.707106781186548,0.));
#870=DIRECTION('',(0.,0.,1.));
#871=DIRECTION('',(0.707106781186547,-0.707106781186548,0.));
#872=DIRECTION('',(0.,-1.,0.));
#873=DIRECTION('',(0.,0.,-1.));
#874=DIRECTION('',(1.,0.,0.));
#875=DIRECTION('',(0.,0.,1.));
#876=DIRECTION('',(1.,0.,0.));
#877=DIRECTION('',(0.,-1.,0.));
#878=DIRECTION('',(0.,0.,-1.));
#879=DIRECTION('',(0.,-1.,0.));
#880=DIRECTION('',(0.,0.,-1.));
#881=CARTESIAN_POINT('',(0.,0.,0.));
#882=CARTESIAN_POINT('',(0.0357414193618553,0.0357414193618553,0.0643592476844788));
#883=CARTESIAN_POINT('',(0.0224506403026729,0.0224506403026729,0.0643592476844788));
#884=CARTESIAN_POINT('',(0.0224506403026729,0.0224506403026729,0.0580092476844788));
#885=CARTESIAN_POINT('',(0.0257471891825925,0.0334132057064065,0.0607296270860937));
#886=CARTESIAN_POINT('',(0.0269869037402113,0.0320149981107252,0.0588880419623362));
#887=CARTESIAN_POINT('',(0.0287049791623466,0.0303048685648322,0.0579351841307293));
#888=CARTESIAN_POINT('',(0.0305444118294423,0.02846272957999,0.0580042286937344));
#889=CARTESIAN_POINT('',(0.0322191103132437,0.0267891937362912,0.0590857816792449));
#890=CARTESIAN_POINT('',(0.0335579424941674,0.0256464413109191,0.0610062219782253));
#891=CARTESIAN_POINT('',(0.0344677670843568,0.0253470624959975,0.0634349751638635));
#892=CARTESIAN_POINT('',(0.0348944879014398,0.0259676156580358,0.0659289206466101));
#893=CARTESIAN_POINT('',(0.034809189581236,0.027325885218746,0.0681351948579385));
#894=CARTESIAN_POINT('',(0.0341581776172656,0.0291737445932494,0.0698316414837078));
#895=CARTESIAN_POINT('',(0.0328601269094109,0.0312243443410589,0.0707789342742893));
#896=CARTESIAN_POINT('',(0.0309813999337339,0.0330515816166929,0.0707166261117798));
#897=CARTESIAN_POINT('',(0.0289192177035314,0.0342771390096284,0.0696526860943602));
#898=CARTESIAN_POINT('',(0.0271153458573292,0.0348508727397244,0.0678719976978997));
#899=CARTESIAN_POINT('',(0.0258400074168127,0.0348670477905387,0.0656142849046044));
#900=CARTESIAN_POINT('',(0.0253338064975515,0.0343771483741168,0.0631127069661749));
#901=CARTESIAN_POINT('',(0.0257471891825925,0.0334132057064065,0.0607296270860937));
#902=CARTESIAN_POINT('',(0.0269869037402113,0.0320149981107252,0.0588880419623362));
#903=CARTESIAN_POINT('',(0.0287049791623466,0.0303048685648322,0.0579351841307293));
#904=CARTESIAN_POINT('',(0.027066630550964,0.0319630111190233,0.0590361631776946));
#905=CARTESIAN_POINT('',(0.0357414193618553,0.0357414193618553,0.0314987935125828));
#906=CARTESIAN_POINT('',(0.0224506403026729,0.0224506403026729,0.0314987935125828));
#907=CARTESIAN_POINT('',(0.0224506403026729,0.0224506403026729,0.0251487935125828));
#908=CARTESIAN_POINT('',(0.0332800875681533,0.0243068612475171,0.03175));
#909=CARTESIAN_POINT('',(0.0333004002687244,0.0242790498223039,0.0308904906047904));
#910=CARTESIAN_POINT('',(0.0330821382649209,0.0244586358567066,0.0291836636527979));
#911=CARTESIAN_POINT('',(0.0320424471525873,0.0253904742648775,0.0269779518463306));
#912=CARTESIAN_POINT('',(0.0304749168687168,0.0268543692278736,0.0254989318126857));
#913=CARTESIAN_POINT('',(0.0286477753001884,0.0286387107061179,0.0249749390453266));
#914=CARTESIAN_POINT('',(0.0268610439226033,0.0304676777619166,0.02549408959888));
#915=CARTESIAN_POINT('',(0.0248996691093009,0.0325688714254283,0.027469417128915));
#916=CARTESIAN_POINT('',(0.0242512383777167,0.0333207129834458,0.0300309806108356));
#917=CARTESIAN_POINT('',(0.0243068612475169,0.0332800875681535,0.03175));
#918=CARTESIAN_POINT('',(0.0332800875681533,0.0243068612475171,0.03175));
#919=CARTESIAN_POINT('',(0.0243068612475171,0.0332800875681533,0.03175));
#920=CARTESIAN_POINT('',(0.0332800875681533,0.0243068612475171,0.03175));
#921=CARTESIAN_POINT('',(0.0332607331878022,0.0243333605748614,0.032568959138001));
#922=CARTESIAN_POINT('',(0.0330344919807735,0.0246449567202154,0.034167479116089));
#923=CARTESIAN_POINT('',(0.0318748273223152,0.0261699175120942,0.0368725213993891));
#924=CARTESIAN_POINT('',(0.0297528213156384,0.0286040841994482,0.0381695982957201));
#925=CARTESIAN_POINT('',(0.0273823343136015,0.030827481290653,0.0375314521931009));
#926=CARTESIAN_POINT('',(0.0257855159941053,0.0321646867864927,0.0361897000576009));
#927=CARTESIAN_POINT('',(0.0246418286409569,0.0330375373197203,0.0341582393189348));
#928=CARTESIAN_POINT('',(0.0243333614279303,0.0332607325647441,0.0325689855020135));
#929=CARTESIAN_POINT('',(0.0243068612475171,0.0332800875681533,0.03175));
#930=CARTESIAN_POINT('',(0.050546,-9.28514956645532E-18,0.0643592476844788));
#931=CARTESIAN_POINT('',(0.03175,-5.83238038093927E-18,0.0643592476844788));
#932=CARTESIAN_POINT('',(0.03175,-5.83238038093927E-18,0.0580092476844788));
#933=CARTESIAN_POINT('',(0.0418327164036852,0.00542069226867702,0.0607296270860937));
#934=CARTESIAN_POINT('',(0.0417206449017004,0.0035553996258363,0.0588880419623361));
#935=CARTESIAN_POINT('',(0.0417262634846737,0.00113129264564609,0.0579351841307293));
#936=CARTESIAN_POINT('',(0.0417243498290431,-0.00147197163486332,0.0580042286937344));
#937=CARTESIAN_POINT('',(0.0417251719397437,-0.0038395308328403,0.0590857816792449));
#938=CARTESIAN_POINT('',(0.0418638212645477,-0.00559427613604027,0.0610062219782252));
#939=CARTESIAN_POINT('',(0.0422954716117862,-0.00644931206362814,0.0634349751638635));
#940=CARTESIAN_POINT('',(0.0430360061441831,-0.00631225189809695,0.06592892064661));
#941=CARTESIAN_POINT('',(0.0439361327406006,-0.00529149526039966,0.0681351948579384));
#942=CARTESIAN_POINT('',(0.044782431660634,-0.00352452639165204,0.0698316414837077));
#943=CARTESIAN_POINT('',(0.0453145641899615,-0.00115667294662853,0.0707789342742892));
#944=CARTESIAN_POINT('',(0.0452781554738999,0.00146383950630841,0.0707166261117798));
#945=CARTESIAN_POINT('',(0.0446865723781593,0.00378862248860499,0.0696526860943601));
#946=CARTESIAN_POINT('',(0.0438167333744646,0.00546984351459247,0.0678719976978997));
#947=CARTESIAN_POINT('',(0.0429263704029843,0.00638308146230636,0.0656142849046045));
#948=CARTESIAN_POINT('',(0.0422220211008806,0.00639460836550756,0.063112706966175));
#949=CARTESIAN_POINT('',(0.0418327164036852,0.00542069226867702,0.0607296270860937));
#950=CARTESIAN_POINT('',(0.0417206449017004,0.0035553996258363,0.0588880419623361));
#951=CARTESIAN_POINT('',(0.0417262634846737,0.00113129264564609,0.0579351841307293));
#952=CARTESIAN_POINT('',(0.04174025991586,0.00346226390294472,0.0590361631776946));
#953=CARTESIAN_POINT('',(0.050546,-9.28514956645532E-18,0.0314987935125828));
#954=CARTESIAN_POINT('',(0.03175,-5.83238038093927E-18,0.0314987935125828));
#955=CARTESIAN_POINT('',(0.03175,-5.83238038093927E-18,0.0251487935125828));
#956=CARTESIAN_POINT('',(0.0407201220154032,-0.00634502918044351,0.03175));
#957=CARTESIAN_POINT('',(0.0407148196163585,-0.00637905807612427,0.0308904906047904));
#958=CARTESIAN_POINT('',(0.0406874715761262,-0.00609773703042692,0.0291836636527979));
#959=CARTESIAN_POINT('',(0.0406112081976435,-0.00470365513716871,0.0269779518463306));
#960=CARTESIAN_POINT('',(0.0405379269594828,-0.00256011378844922,0.0254989318126857));
#961=CARTESIAN_POINT('',(0.0405076627254075,-6.40963593595628E-6,0.0249749390453266));
#962=CARTESIAN_POINT('',(0.0405375278598803,0.00255027524503535,0.02549408959888));
#963=CARTESIAN_POINT('',(0.040636394717001,0.00542294496402529,0.027469417128915));
#964=CARTESIAN_POINT('',(0.0407095172136201,0.0064130869955102,0.0300309806108356));
#965=CARTESIAN_POINT('',(0.0407201220154032,0.00634502918044373,0.03175));
#966=CARTESIAN_POINT('',(0.0407201220154031,-0.00634502918044351,0.03175));
#967=CARTESIAN_POINT('',(0.0407201220154031,0.0063450291804435,0.03175));
#968=CARTESIAN_POINT('',(0.0407201220154031,-0.00634502918044351,0.03175));
#969=CARTESIAN_POINT('',(0.0407251742558733,-0.00631260571278956,0.032568959138001));
#970=CARTESIAN_POINT('',(0.0407855293115709,-0.00593229727374428,0.034167479116089));
#971=CARTESIAN_POINT('',(0.0410438326846537,-0.00403398041286492,0.0368725213993891));
#972=CARTESIAN_POINT('',(0.0412645636187804,-0.000812279804658801,0.0381695982957201));
#973=CARTESIAN_POINT('',(0.0411605553453869,0.00243608678965742,0.0375314521931009));
#974=CARTESIAN_POINT('',(0.0409769813572964,0.00451075492564429,0.0361897000576009));
#975=CARTESIAN_POINT('',(0.0407854708053354,0.00593666253962032,0.0341582393189348));
#976=CARTESIAN_POINT('',(0.0407251744185155,0.00631260466901012,0.0325689855020135));
#977=CARTESIAN_POINT('',(0.0407201220154031,0.0063450291804435,0.03175));
#978=CARTESIAN_POINT('',(0.0357414193618553,-0.0357414193618553,0.0643592476844788));
#979=CARTESIAN_POINT('',(0.0224506403026729,-0.0224506403026729,0.0643592476844788));
#980=CARTESIAN_POINT('',(0.0224506403026729,-0.0224506403026729,0.0580092476844788));
#981=CARTESIAN_POINT('',(0.0334132057064065,-0.0257471891825925,0.0607296270860937));
#982=CARTESIAN_POINT('',(0.0320149981107253,-0.0269869037402113,0.0588880419623361));
#983=CARTESIAN_POINT('',(0.0303048685648322,-0.0287049791623466,0.0579351841307293));
#984=CARTESIAN_POINT('',(0.02846272957999,-0.0305444118294422,0.0580042286937344));
#985=CARTESIAN_POINT('',(0.0267891937362912,-0.0322191103132437,0.0590857816792449));
#986=CARTESIAN_POINT('',(0.0256464413109191,-0.0335579424941674,0.0610062219782253));
#987=CARTESIAN_POINT('',(0.0253470624959975,-0.0344677670843568,0.0634349751638634));
#988=CARTESIAN_POINT('',(0.0259676156580358,-0.0348944879014398,0.06592892064661));
#989=CARTESIAN_POINT('',(0.0273258852187459,-0.034809189581236,0.0681351948579384));
#990=CARTESIAN_POINT('',(0.0291737445932494,-0.0341581776172656,0.0698316414837078));
#991=CARTESIAN_POINT('',(0.0312243443410589,-0.0328601269094109,0.0707789342742892));
#992=CARTESIAN_POINT('',(0.0330515816166929,-0.0309813999337339,0.0707166261117798));
#993=CARTESIAN_POINT('',(0.0342771390096284,-0.0289192177035315,0.0696526860943602));
#994=CARTESIAN_POINT('',(0.0348508727397244,-0.0271153458573292,0.0678719976978997));
#995=CARTESIAN_POINT('',(0.0348670477905387,-0.0258400074168127,0.0656142849046045));
#996=CARTESIAN_POINT('',(0.0343771483741168,-0.0253338064975515,0.063112706966175));
#997=CARTESIAN_POINT('',(0.0334132057064065,-0.0257471891825925,0.0607296270860937));
#998=CARTESIAN_POINT('',(0.0320149981107253,-0.0269869037402113,0.0588880419623361));
#999=CARTESIAN_POINT('',(0.0303048685648322,-0.0287049791623466,0.0579351841307293));
#1000=CARTESIAN_POINT('',(0.0319630111190233,-0.027066630550964,0.0590361631776946));
#1001=CARTESIAN_POINT('',(0.0357414193618553,-0.0357414193618553,0.0314987935125828));
#1002=CARTESIAN_POINT('',(0.0224506403026729,-0.0224506403026729,0.0314987935125828));
#1003=CARTESIAN_POINT('',(0.0224506403026729,-0.0224506403026729,0.0251487935125828));
#1004=CARTESIAN_POINT('',(0.0243068612475171,-0.0332800875681533,0.03175));
#1005=CARTESIAN_POINT('',(0.0242790498223039,-0.0333004002687244,0.0308904906047904));
#1006=CARTESIAN_POINT('',(0.0244586358567065,-0.0330821382649209,0.0291836636527979));
#1007=CARTESIAN_POINT('',(0.0253904742648775,-0.0320424471525873,0.0269779518463306));
#1008=CARTESIAN_POINT('',(0.0268543692278736,-0.0304749168687168,0.0254989318126857));
#1009=CARTESIAN_POINT('',(0.0286387107061179,-0.0286477753001884,0.0249749390453266));
#1010=CARTESIAN_POINT('',(0.0304676777619166,-0.0268610439226033,0.02549408959888));
#1011=CARTESIAN_POINT('',(0.0325688714254283,-0.0248996691093009,0.027469417128915));
#1012=CARTESIAN_POINT('',(0.0333207129834458,-0.0242512383777167,0.0300309806108356));
#1013=CARTESIAN_POINT('',(0.0332800875681535,-0.0243068612475169,0.03175));
#1014=CARTESIAN_POINT('',(0.0243068612475171,-0.0332800875681533,0.03175));
#1015=CARTESIAN_POINT('',(0.0332800875681533,-0.0243068612475171,0.03175));
#1016=CARTESIAN_POINT('',(0.0243068612475171,-0.0332800875681533,0.03175));
#1017=CARTESIAN_POINT('',(0.0243333605748614,-0.0332607331878022,0.032568959138001));
#1018=CARTESIAN_POINT('',(0.0246449567202154,-0.0330344919807735,0.034167479116089));
#1019=CARTESIAN_POINT('',(0.0261699175120942,-0.0318748273223152,0.0368725213993891));
#1020=CARTESIAN_POINT('',(0.0286040841994482,-0.0297528213156384,0.0381695982957201));
#1021=CARTESIAN_POINT('',(0.030827481290653,-0.0273823343136016,0.037531452193101));
#1022=CARTESIAN_POINT('',(0.0321646867864927,-0.0257855159941053,0.0361897000576009));
#1023=CARTESIAN_POINT('',(0.0330375373197204,-0.0246418286409569,0.0341582393189348));
#1024=CARTESIAN_POINT('',(0.0332607325647441,-0.0243333614279303,0.0325689855020135));
#1025=CARTESIAN_POINT('',(0.0332800875681533,-0.0243068612475171,0.03175));
#1026=CARTESIAN_POINT('',(-6.19009971097021E-18,-0.050546,0.0643592476844788));
#1027=CARTESIAN_POINT('',(-3.88825358729284E-18,-0.03175,0.0643592476844788));
#1028=CARTESIAN_POINT('',(-3.88825358729284E-18,-0.03175,0.0580092476844788));
#1029=CARTESIAN_POINT('',(0.00542069226867702,-0.0418327164036852,0.0607296270860937));
#1030=CARTESIAN_POINT('',(0.0035553996258363,-0.0417206449017004,0.0588880419623361));
#1031=CARTESIAN_POINT('',(0.00113129264564609,-0.0417262634846737,0.0579351841307293));
#1032=CARTESIAN_POINT('',(-0.00147197163486333,-0.0417243498290431,0.0580042286937343));
#1033=CARTESIAN_POINT('',(-0.0038395308328403,-0.0417251719397437,0.0590857816792449));
#1034=CARTESIAN_POINT('',(-0.00559427613604027,-0.0418638212645477,0.0610062219782252));
#1035=CARTESIAN_POINT('',(-0.00644931206362814,-0.0422954716117862,0.0634349751638635));
#1036=CARTESIAN_POINT('',(-0.00631225189809695,-0.043036006144183,0.06592892064661));
#1037=CARTESIAN_POINT('',(-0.00529149526039965,-0.0439361327406006,0.0681351948579384));
#1038=CARTESIAN_POINT('',(-0.00352452639165203,-0.044782431660634,0.0698316414837077));
#1039=CARTESIAN_POINT('',(-0.00115667294662852,-0.0453145641899615,0.0707789342742892));
#1040=CARTESIAN_POINT('',(0.00146383950630843,-0.0452781554738999,0.0707166261117798));
#1041=CARTESIAN_POINT('',(0.003788622488605,-0.0446865723781593,0.0696526860943601));
#1042=CARTESIAN_POINT('',(0.00546984351459247,-0.0438167333744646,0.0678719976978997));
#1043=CARTESIAN_POINT('',(0.00638308146230637,-0.0429263704029843,0.0656142849046045));
#1044=CARTESIAN_POINT('',(0.00639460836550756,-0.0422220211008806,0.063112706966175));
#1045=CARTESIAN_POINT('',(0.00542069226867702,-0.0418327164036852,0.0607296270860937));
#1046=CARTESIAN_POINT('',(0.0035553996258363,-0.0417206449017004,0.0588880419623361));
#1047=CARTESIAN_POINT('',(0.00113129264564609,-0.0417262634846737,0.0579351841307293));
#1048=CARTESIAN_POINT('',(0.00346226390294473,-0.04174025991586,0.0590361631776946));
#1049=CARTESIAN_POINT('',(-6.19009971097021E-18,-0.050546,0.0314987935125828));
#1050=CARTESIAN_POINT('',(-3.88825358729284E-18,-0.03175,0.0314987935125828));
#1051=CARTESIAN_POINT('',(-3.88825358729284E-18,-0.03175,0.0251487935125828));
#1052=CARTESIAN_POINT('',(-0.00634502918044351,-0.0407201220154032,0.03175));
#1053=CARTESIAN_POINT('',(-0.00637905807612426,-0.0407148196163585,0.0308904906047904));
#1054=CARTESIAN_POINT('',(-0.00609773703042692,-0.0406874715761262,0.0291836636527979));
#1055=CARTESIAN_POINT('',(-0.0047036551371687,-0.0406112081976435,0.0269779518463306));
#1056=CARTESIAN_POINT('',(-0.00256011378844921,-0.0405379269594828,0.0254989318126857));
#1057=CARTESIAN_POINT('',(-6.40963593594983E-6,-0.0405076627254075,0.0249749390453266));
#1058=CARTESIAN_POINT('',(0.00255027524503535,-0.0405375278598803,0.02549408959888));
#1059=CARTESIAN_POINT('',(0.00542294496402529,-0.040636394717001,0.027469417128915));
#1060=CARTESIAN_POINT('',(0.0064130869955102,-0.0407095172136201,0.0300309806108356));
#1061=CARTESIAN_POINT('',(0.00634502918044373,-0.0407201220154032,0.03175));
#1062=CARTESIAN_POINT('',(-0.00634502918044351,-0.0407201220154031,0.03175));
#1063=CARTESIAN_POINT('',(0.0063450291804435,-0.0407201220154031,0.03175));
#1064=CARTESIAN_POINT('',(-0.00634502918044351,-0.0407201220154031,0.03175));
#1065=CARTESIAN_POINT('',(-0.00631260571278956,-0.0407251742558733,0.032568959138001));
#1066=CARTESIAN_POINT('',(-0.00593229727374428,-0.0407855293115708,0.034167479116089));
#1067=CARTESIAN_POINT('',(-0.00403398041286493,-0.0410438326846537,0.0368725213993891));
#1068=CARTESIAN_POINT('',(-0.000812279804658791,-0.0412645636187804,0.0381695982957201));
#1069=CARTESIAN_POINT('',(0.00243608678965742,-0.0411605553453869,0.037531452193101));
#1070=CARTESIAN_POINT('',(0.00451075492564429,-0.0409769813572964,0.0361897000576009));
#1071=CARTESIAN_POINT('',(0.00593666253962031,-0.0407854708053354,0.0341582393189348));
#1072=CARTESIAN_POINT('',(0.00631260466901012,-0.0407251744185155,0.0325689855020135));
#1073=CARTESIAN_POINT('',(0.0063450291804435,-0.0407201220154031,0.03175));
#1074=CARTESIAN_POINT('',(-0.0357414193618553,-0.0357414193618553,0.0643592476844788));
#1075=CARTESIAN_POINT('',(-0.0224506403026729,-0.0224506403026729,0.0643592476844788));
#1076=CARTESIAN_POINT('',(-0.0224506403026729,-0.0224506403026729,0.0580092476844788));
#1077=CARTESIAN_POINT('',(-0.0257471891825925,-0.0334132057064065,0.0607296270860937));
#1078=CARTESIAN_POINT('',(-0.0269869037402113,-0.0320149981107253,0.0588880419623361));
#1079=CARTESIAN_POINT('',(-0.0287049791623465,-0.0303048685648322,0.0579351841307293));
#1080=CARTESIAN_POINT('',(-0.0305444118294423,-0.0284627295799901,0.0580042286937344));
#1081=CARTESIAN_POINT('',(-0.0322191103132436,-0.0267891937362912,0.0590857816792449));
#1082=CARTESIAN_POINT('',(-0.0335579424941674,-0.0256464413109191,0.0610062219782253));
#1083=CARTESIAN_POINT('',(-0.0344677670843568,-0.0253470624959975,0.0634349751638635));
#1084=CARTESIAN_POINT('',(-0.0348944879014398,-0.0259676156580358,0.06592892064661));
#1085=CARTESIAN_POINT('',(-0.034809189581236,-0.0273258852187459,0.0681351948579384));
#1086=CARTESIAN_POINT('',(-0.0341581776172656,-0.0291737445932494,0.0698316414837078));
#1087=CARTESIAN_POINT('',(-0.0328601269094109,-0.0312243443410588,0.0707789342742892));
#1088=CARTESIAN_POINT('',(-0.030981399933734,-0.0330515816166929,0.0707166261117799));
#1089=CARTESIAN_POINT('',(-0.0289192177035315,-0.0342771390096284,0.0696526860943602));
#1090=CARTESIAN_POINT('',(-0.0271153458573292,-0.0348508727397244,0.0678719976978997));
#1091=CARTESIAN_POINT('',(-0.0258400074168127,-0.0348670477905387,0.0656142849046045));
#1092=CARTESIAN_POINT('',(-0.0253338064975515,-0.0343771483741168,0.063112706966175));
#1093=CARTESIAN_POINT('',(-0.0257471891825925,-0.0334132057064065,0.0607296270860937));
#1094=CARTESIAN_POINT('',(-0.0269869037402113,-0.0320149981107253,0.0588880419623361));
#1095=CARTESIAN_POINT('',(-0.0287049791623465,-0.0303048685648322,0.0579351841307293));
#1096=CARTESIAN_POINT('',(-0.027066630550964,-0.0319630111190233,0.0590361631776946));
#1097=CARTESIAN_POINT('',(-0.0357414193618553,-0.0357414193618553,0.0314987935125828));
#1098=CARTESIAN_POINT('',(-0.0224506403026729,-0.0224506403026729,0.0314987935125828));
#1099=CARTESIAN_POINT('',(-0.0224506403026729,-0.0224506403026729,0.0251487935125828));
#1100=CARTESIAN_POINT('',(-0.0332800875681533,-0.0243068612475171,0.03175));
#1101=CARTESIAN_POINT('',(-0.0333004002687244,-0.0242790498223039,0.0308904906047904));
#1102=CARTESIAN_POINT('',(-0.0330821382649209,-0.0244586358567065,0.0291836636527979));
#1103=CARTESIAN_POINT('',(-0.0320424471525873,-0.0253904742648775,0.0269779518463306));
#1104=CARTESIAN_POINT('',(-0.0304749168687168,-0.0268543692278736,0.0254989318126857));
#1105=CARTESIAN_POINT('',(-0.0286477753001884,-0.0286387107061179,0.0249749390453266));
#1106=CARTESIAN_POINT('',(-0.0268610439226033,-0.0304676777619166,0.02549408959888));
#1107=CARTESIAN_POINT('',(-0.0248996691093009,-0.0325688714254284,0.027469417128915));
#1108=CARTESIAN_POINT('',(-0.0242512383777168,-0.0333207129834458,0.0300309806108356));
#1109=CARTESIAN_POINT('',(-0.0243068612475169,-0.0332800875681535,0.03175));
#1110=CARTESIAN_POINT('',(-0.0332800875681533,-0.0243068612475171,0.03175));
#1111=CARTESIAN_POINT('',(-0.0243068612475171,-0.0332800875681533,0.03175));
#1112=CARTESIAN_POINT('',(-0.0332800875681533,-0.0243068612475171,0.03175));
#1113=CARTESIAN_POINT('',(-0.0332607331878022,-0.0243333605748614,0.032568959138001));
#1114=CARTESIAN_POINT('',(-0.0330344919807735,-0.0246449567202154,0.034167479116089));
#1115=CARTESIAN_POINT('',(-0.0318748273223152,-0.0261699175120942,0.0368725213993891));
#1116=CARTESIAN_POINT('',(-0.0297528213156384,-0.0286040841994482,0.0381695982957201));
#1117=CARTESIAN_POINT('',(-0.0273823343136015,-0.030827481290653,0.037531452193101));
#1118=CARTESIAN_POINT('',(-0.0257855159941053,-0.0321646867864927,0.0361897000576009));
#1119=CARTESIAN_POINT('',(-0.0246418286409569,-0.0330375373197203,0.0341582393189348));
#1120=CARTESIAN_POINT('',(-0.0243333614279303,-0.0332607325647441,0.0325689855020135));
#1121=CARTESIAN_POINT('',(-0.0243068612475171,-0.0332800875681533,0.03175));
#1122=CARTESIAN_POINT('',(-0.050546,3.0950498554851E-18,0.0643592476844788));
#1123=CARTESIAN_POINT('',(-0.03175,1.94412679364642E-18,0.0643592476844788));
#1124=CARTESIAN_POINT('',(-0.03175,1.94412679364642E-18,0.0580092476844788));
#1125=CARTESIAN_POINT('',(-0.0418327164036852,-0.00542069226867701,0.0607296270860937));
#1126=CARTESIAN_POINT('',(-0.0417206449017004,-0.00355539962583631,0.0588880419623361));
#1127=CARTESIAN_POINT('',(-0.0417262634846737,-0.00113129264564609,0.0579351841307293));
#1128=CARTESIAN_POINT('',(-0.0417243498290431,0.00147197163486332,0.0580042286937343));
#1129=CARTESIAN_POINT('',(-0.0417251719397437,0.0038395308328403,0.0590857816792449));
#1130=CARTESIAN_POINT('',(-0.0418638212645477,0.00559427613604026,0.0610062219782253));
#1131=CARTESIAN_POINT('',(-0.0422954716117862,0.00644931206362814,0.0634349751638634));
#1132=CARTESIAN_POINT('',(-0.0430360061441831,0.00631225189809694,0.06592892064661));
#1133=CARTESIAN_POINT('',(-0.0439361327406006,0.00529149526039965,0.0681351948579384));
#1134=CARTESIAN_POINT('',(-0.044782431660634,0.00352452639165204,0.0698316414837077));
#1135=CARTESIAN_POINT('',(-0.0453145641899615,0.00115667294662853,0.0707789342742892));
#1136=CARTESIAN_POINT('',(-0.0452781554738999,-0.00146383950630843,0.0707166261117799));
#1137=CARTESIAN_POINT('',(-0.0446865723781593,-0.003788622488605,0.0696526860943601));
#1138=CARTESIAN_POINT('',(-0.0438167333744646,-0.00546984351459248,0.0678719976978997));
#1139=CARTESIAN_POINT('',(-0.0429263704029843,-0.00638308146230637,0.0656142849046044));
#1140=CARTESIAN_POINT('',(-0.0422220211008806,-0.00639460836550756,0.063112706966175));
#1141=CARTESIAN_POINT('',(-0.0418327164036852,-0.00542069226867701,0.0607296270860937));
#1142=CARTESIAN_POINT('',(-0.0417206449017004,-0.00355539962583631,0.0588880419623361));
#1143=CARTESIAN_POINT('',(-0.0417262634846737,-0.00113129264564609,0.0579351841307293));
#1144=CARTESIAN_POINT('',(-0.04174025991586,-0.00346226390294473,0.0590361631776946));
#1145=CARTESIAN_POINT('',(-0.050546,3.0950498554851E-18,0.0314987935125828));
#1146=CARTESIAN_POINT('',(-0.03175,1.94412679364642E-18,0.0314987935125828));
#1147=CARTESIAN_POINT('',(-0.03175,1.94412679364642E-18,0.0251487935125828));
#1148=CARTESIAN_POINT('',(-0.0407201220154032,0.0063450291804435,0.03175));
#1149=CARTESIAN_POINT('',(-0.0407148196163585,0.00637905807612426,0.0308904906047904));
#1150=CARTESIAN_POINT('',(-0.0406874715761262,0.00609773703042691,0.0291836636527979));
#1151=CARTESIAN_POINT('',(-0.0406112081976435,0.0047036551371687,0.0269779518463306));
#1152=CARTESIAN_POINT('',(-0.0405379269594828,0.00256011378844921,0.0254989318126857));
#1153=CARTESIAN_POINT('',(-0.0405076627254075,6.40963593595078E-6,0.0249749390453266));
#1154=CARTESIAN_POINT('',(-0.0405375278598803,-0.00255027524503535,0.02549408959888));
#1155=CARTESIAN_POINT('',(-0.040636394717001,-0.0054229449640253,0.027469417128915));
#1156=CARTESIAN_POINT('',(-0.0407095172136201,-0.0064130869955102,0.0300309806108356));
#1157=CARTESIAN_POINT('',(-0.0407201220154032,-0.00634502918044373,0.03175));
#1158=CARTESIAN_POINT('',(-0.0407201220154031,0.00634502918044351,0.03175));
#1159=CARTESIAN_POINT('',(-0.0407201220154031,-0.0063450291804435,0.03175));
#1160=CARTESIAN_POINT('',(-0.0407201220154031,0.0063450291804435,0.03175));
#1161=CARTESIAN_POINT('',(-0.0407251742558733,0.00631260571278955,0.032568959138001));
#1162=CARTESIAN_POINT('',(-0.0407855293115709,0.00593229727374428,0.034167479116089));
#1163=CARTESIAN_POINT('',(-0.0410438326846537,0.00403398041286492,0.0368725213993891));
#1164=CARTESIAN_POINT('',(-0.0412645636187804,0.000812279804658799,0.0381695982957201));
#1165=CARTESIAN_POINT('',(-0.0411605553453869,-0.00243608678965743,0.0375314521931009));
#1166=CARTESIAN_POINT('',(-0.0409769813572964,-0.00451075492564429,0.0361897000576009));
#1167=CARTESIAN_POINT('',(-0.0407854708053354,-0.00593666253962033,0.0341582393189348));
#1168=CARTESIAN_POINT('',(-0.0407251744185155,-0.00631260466901012,0.0325689855020135));
#1169=CARTESIAN_POINT('',(-0.0407201220154031,-0.0063450291804435,0.03175));
#1170=CARTESIAN_POINT('',(-0.0357414193618553,0.0357414193618553,0.0643592476844788));
#1171=CARTESIAN_POINT('',(-0.0224506403026729,0.0224506403026729,0.0643592476844788));
#1172=CARTESIAN_POINT('',(-0.0224506403026729,0.0224506403026729,0.0580092476844788));
#1173=CARTESIAN_POINT('',(-0.0334132057064065,0.0257471891825925,0.0607296270860937));
#1174=CARTESIAN_POINT('',(-0.0320149981107253,0.0269869037402113,0.0588880419623361));
#1175=CARTESIAN_POINT('',(-0.0303048685648322,0.0287049791623466,0.0579351841307293));
#1176=CARTESIAN_POINT('',(-0.0284627295799901,0.0305444118294423,0.0580042286937344));
#1177=CARTESIAN_POINT('',(-0.0267891937362912,0.0322191103132436,0.0590857816792449));
#1178=CARTESIAN_POINT('',(-0.0256464413109191,0.0335579424941674,0.0610062219782252));
#1179=CARTESIAN_POINT('',(-0.0253470624959975,0.0344677670843568,0.0634349751638635));
#1180=CARTESIAN_POINT('',(-0.0259676156580358,0.0348944879014398,0.06592892064661));
#1181=CARTESIAN_POINT('',(-0.0273258852187459,0.034809189581236,0.0681351948579384));
#1182=CARTESIAN_POINT('',(-0.0291737445932494,0.0341581776172656,0.0698316414837078));
#1183=CARTESIAN_POINT('',(-0.0312243443410589,0.032860126909411,0.0707789342742893));
#1184=CARTESIAN_POINT('',(-0.0330515816166929,0.030981399933734,0.0707166261117799));
#1185=CARTESIAN_POINT('',(-0.0342771390096284,0.0289192177035315,0.0696526860943602));
#1186=CARTESIAN_POINT('',(-0.0348508727397244,0.0271153458573292,0.0678719976978997));
#1187=CARTESIAN_POINT('',(-0.0348670477905387,0.0258400074168127,0.0656142849046044));
#1188=CARTESIAN_POINT('',(-0.0343771483741168,0.0253338064975515,0.063112706966175));
#1189=CARTESIAN_POINT('',(-0.0334132057064065,0.0257471891825925,0.0607296270860937));
#1190=CARTESIAN_POINT('',(-0.0320149981107253,0.0269869037402113,0.0588880419623361));
#1191=CARTESIAN_POINT('',(-0.0303048685648322,0.0287049791623466,0.0579351841307293));
#1192=CARTESIAN_POINT('',(-0.0319630111190233,0.027066630550964,0.0590361631776946));
#1193=CARTESIAN_POINT('',(-0.0357414193618553,0.0357414193618553,0.0314987935125828));
#1194=CARTESIAN_POINT('',(-0.0224506403026729,0.0224506403026729,0.0314987935125828));
#1195=CARTESIAN_POINT('',(-0.0224506403026729,0.0224506403026729,0.0251487935125828));
#1196=CARTESIAN_POINT('',(-0.0243068612475171,0.0332800875681533,0.03175));
#1197=CARTESIAN_POINT('',(-0.0242790498223039,0.0333004002687244,0.0308904906047904));
#1198=CARTESIAN_POINT('',(-0.0244586358567066,0.0330821382649209,0.0291836636527979));
#1199=CARTESIAN_POINT('',(-0.0253904742648775,0.0320424471525873,0.0269779518463306));
#1200=CARTESIAN_POINT('',(-0.0268543692278736,0.0304749168687168,0.0254989318126857));
#1201=CARTESIAN_POINT('',(-0.0286387107061179,0.0286477753001884,0.0249749390453266));
#1202=CARTESIAN_POINT('',(-0.0304676777619166,0.0268610439226033,0.02549408959888));
#1203=CARTESIAN_POINT('',(-0.0325688714254283,0.0248996691093009,0.027469417128915));
#1204=CARTESIAN_POINT('',(-0.0333207129834458,0.0242512383777168,0.0300309806108356));
#1205=CARTESIAN_POINT('',(-0.0332800875681535,0.0243068612475169,0.03175));
#1206=CARTESIAN_POINT('',(-0.0243068612475171,0.0332800875681533,0.03175));
#1207=CARTESIAN_POINT('',(-0.0332800875681533,0.0243068612475171,0.03175));
#1208=CARTESIAN_POINT('',(-0.0243068612475171,0.0332800875681533,0.03175));
#1209=CARTESIAN_POINT('',(-0.0243333605748614,0.0332607331878022,0.032568959138001));
#1210=CARTESIAN_POINT('',(-0.0246449567202154,0.0330344919807735,0.034167479116089));
#1211=CARTESIAN_POINT('',(-0.0261699175120942,0.0318748273223152,0.0368725213993891));
#1212=CARTESIAN_POINT('',(-0.0286040841994482,0.0297528213156384,0.0381695982957201));
#1213=CARTESIAN_POINT('',(-0.030827481290653,0.0273823343136015,0.037531452193101));
#1214=CARTESIAN_POINT('',(-0.0321646867864927,0.0257855159941053,0.0361897000576009));
#1215=CARTESIAN_POINT('',(-0.0330375373197203,0.0246418286409569,0.0341582393189348));
#1216=CARTESIAN_POINT('',(-0.0332607325647441,0.0243333614279303,0.0325689855020135));
#1217=CARTESIAN_POINT('',(-0.0332800875681533,0.0243068612475171,0.03175));
#1218=CARTESIAN_POINT('',(0.,2.52347657815306E-18,0.1524));
#1219=CARTESIAN_POINT('',(0.,2.52347657815306E-18,0.0508));
#1220=CARTESIAN_POINT('',(0.0412115,2.52347657815306E-18,0.0508));
#1221=CARTESIAN_POINT('',(0.,2.52347657815306E-18,0.03175));
#1222=CARTESIAN_POINT('',(0.,2.52347657815306E-18,0.03175));
#1223=CARTESIAN_POINT('',(0.0063450291804435,0.0407201220154031,0.03175));
#1224=CARTESIAN_POINT('',(0.0063450291804435,0.0407201220154031,0.03175));
#1225=CARTESIAN_POINT('',(0.00631260571278955,0.0407251742558733,0.032568959138001));
#1226=CARTESIAN_POINT('',(0.00593229727374428,0.0407855293115709,0.034167479116089));
#1227=CARTESIAN_POINT('',(0.00403398041286491,0.0410438326846537,0.0368725213993891));
#1228=CARTESIAN_POINT('',(0.000812279804658795,0.0412645636187804,0.0381695982957201));
#1229=CARTESIAN_POINT('',(-0.00243608678965743,0.0411605553453869,0.0375314521931009));
#1230=CARTESIAN_POINT('',(-0.00451075492564429,0.0409769813572964,0.0361897000576009));
#1231=CARTESIAN_POINT('',(-0.00593666253962033,0.0407854708053354,0.0341582393189348));
#1232=CARTESIAN_POINT('',(-0.00631260466901012,0.0407251744185155,0.0325689855020135));
#1233=CARTESIAN_POINT('',(-0.0063450291804435,0.0407201220154031,0.03175));
#1234=CARTESIAN_POINT('',(-0.0063450291804435,0.0407201220154031,0.03175));
#1235=CARTESIAN_POINT('',(0.,2.52347657815306E-18,0.03175));
#1236=CARTESIAN_POINT('',(0.,2.52347657815306E-18,0.03175));
#1237=CARTESIAN_POINT('',(0.,2.52347657815306E-18,0.03175));
#1238=CARTESIAN_POINT('',(0.,2.52347657815306E-18,0.03175));
#1239=CARTESIAN_POINT('',(0.,2.52347657815306E-18,0.03175));
#1240=CARTESIAN_POINT('',(0.,2.52347657815306E-18,0.03175));
#1241=CARTESIAN_POINT('',(0.,0.,0.));
#1242=CARTESIAN_POINT('',(0.,2.52347657815306E-18,0.));
#1243=CARTESIAN_POINT('',(0.0094615,2.52347657815306E-18,0.));
#1244=CARTESIAN_POINT('',(0.,2.52347657815306E-18,0.03175));
#1245=CARTESIAN_POINT('',(0.0063450291804435,0.0407201220154032,0.03175));
#1246=CARTESIAN_POINT('',(0.00637905807612426,0.0407148196163585,0.0308904906047904));
#1247=CARTESIAN_POINT('',(0.00609773703042691,0.0406874715761262,0.0291836636527979));
#1248=CARTESIAN_POINT('',(0.0047036551371687,0.0406112081976435,0.0269779518463306));
#1249=CARTESIAN_POINT('',(0.0025601137884492,0.0405379269594828,0.0254989318126857));
#1250=CARTESIAN_POINT('',(6.40963593594163E-6,0.0405076627254075,0.0249749390453266));
#1251=CARTESIAN_POINT('',(-0.00255027524503536,0.0405375278598803,0.02549408959888));
#1252=CARTESIAN_POINT('',(-0.0054229449640253,0.040636394717001,0.027469417128915));
#1253=CARTESIAN_POINT('',(-0.00641308699551021,0.0407095172136201,0.0300309806108356));
#1254=CARTESIAN_POINT('',(-0.00634502918044373,0.0407201220154032,0.03175));
#1255=CARTESIAN_POINT('',(0.,3.88825358729284E-18,0.127));
#1256=CARTESIAN_POINT('',(0.,3.88825358729284E-18,0.114299968249992));
#1257=CARTESIAN_POINT('',(-0.0635,3.88825358729284E-18,0.114299968249992));
#1258=CARTESIAN_POINT('',(0.,3.88825358729284E-18,0.127));
#1259=CARTESIAN_POINT('',(0.0635,3.88825358729284E-18,0.127));
#1260=CARTESIAN_POINT('',(0.,0.,0.127));
#1261=CARTESIAN_POINT('',(0.,2.52347657815306E-18,0.127));
#1262=CARTESIAN_POINT('',(0.0412115,2.52347657815306E-18,0.127));
#1263=CARTESIAN_POINT('',(0.,0.,0.1524));
#1264=CARTESIAN_POINT('',(0.0224506403026729,-0.0224506403026729,0.1524));
#1265=CARTESIAN_POINT('',(0.0131512806053458,-0.03175,0.1524));
#1266=CARTESIAN_POINT('',(0.03175,-0.0131512806053458,0.1524));
#1267=CARTESIAN_POINT('',(-5.20417042793042E-18,-0.03175,0.1524));
#1268=CARTESIAN_POINT('',(-0.0131512806053458,-0.03175,0.1524));
#1269=CARTESIAN_POINT('',(-0.0224506403026729,-0.0224506403026729,0.1524));
#1270=CARTESIAN_POINT('',(-0.03175,-0.0131512806053458,0.1524));
#1271=CARTESIAN_POINT('',(-0.03175,3.46944695195361E-18,0.1524));
#1272=CARTESIAN_POINT('',(-0.03175,0.0131512806053458,0.1524));
#1273=CARTESIAN_POINT('',(-0.0224506403026729,0.0224506403026729,0.1524));
#1274=CARTESIAN_POINT('',(-0.0131512806053458,0.03175,0.1524));
#1275=CARTESIAN_POINT('',(1.7347234759768E-18,0.03175,0.1524));
#1276=CARTESIAN_POINT('',(0.0131512806053458,0.03175,0.1524));
#1277=CARTESIAN_POINT('',(0.0224506403026729,0.0224506403026729,0.1524));
#1278=CARTESIAN_POINT('',(0.03175,0.0131512806053458,0.1524));
#1279=CARTESIAN_POINT('',(0.03175,0.,0.1524));
#1280=CARTESIAN_POINT('',(0.,2.52347657815306E-18,0.1524));
#1281=CARTESIAN_POINT('',(0.0412115,2.52347657815306E-18,0.1524));
#1282=CARTESIAN_POINT('',(0.,2.52347657815306E-18,0.1524));
#1283=CARTESIAN_POINT('',(0.,2.52347657815306E-18,0.0508));
#1284=CARTESIAN_POINT('',(-0.00542069226867702,0.0418327164036852,0.0607296270860937));
#1285=CARTESIAN_POINT('',(-0.00355539962583631,0.0417206449017004,0.0588880419623361));
#1286=CARTESIAN_POINT('',(-0.00113129264564609,0.0417262634846737,0.0579351841307293));
#1287=CARTESIAN_POINT('',(0.00147197163486332,0.0417243498290431,0.0580042286937344));
#1288=CARTESIAN_POINT('',(0.00383953083284029,0.0417251719397437,0.0590857816792449));
#1289=CARTESIAN_POINT('',(0.00559427613604026,0.0418638212645477,0.0610062219782253));
#1290=CARTESIAN_POINT('',(0.00644931206362814,0.0422954716117862,0.0634349751638635));
#1291=CARTESIAN_POINT('',(0.00631225189809695,0.0430360061441831,0.06592892064661));
#1292=CARTESIAN_POINT('',(0.00529149526039964,0.0439361327406006,0.0681351948579384));
#1293=CARTESIAN_POINT('',(0.00352452639165204,0.0447824316606341,0.0698316414837078));
#1294=CARTESIAN_POINT('',(0.00115667294662852,0.0453145641899615,0.0707789342742892));
#1295=CARTESIAN_POINT('',(-0.00146383950630843,0.0452781554738999,0.0707166261117799));
#1296=CARTESIAN_POINT('',(-0.00378862248860499,0.0446865723781593,0.0696526860943601));
#1297=CARTESIAN_POINT('',(-0.00546984351459248,0.0438167333744646,0.0678719976978997));
#1298=CARTESIAN_POINT('',(-0.00638308146230638,0.0429263704029843,0.0656142849046045));
#1299=CARTESIAN_POINT('',(-0.00639460836550756,0.0422220211008806,0.063112706966175));
#1300=CARTESIAN_POINT('',(-0.00542069226867702,0.0418327164036852,0.0607296270860937));
#1301=CARTESIAN_POINT('',(-0.00355539962583631,0.0417206449017004,0.0588880419623361));
#1302=CARTESIAN_POINT('',(-0.00113129264564609,0.0417262634846737,0.0579351841307293));
#1303=CARTESIAN_POINT('',(-0.00346226390294473,0.04174025991586,0.0590361631776946));
#1304=CARTESIAN_POINT('',(0.,2.52347657815306E-18,0.082549984124996));
#1305=CARTESIAN_POINT('',(-0.05235575,2.52347657815306E-18,0.082549984124996));
#1306=CARTESIAN_POINT('',(0.,3.20586508272295E-18,0.114299968249992));
#1307=CARTESIAN_POINT('',(0.0224506403026729,-0.0224506403026729,0.01905));
#1308=CARTESIAN_POINT('',(0.03175,-0.0131512806053458,0.01905));
#1309=CARTESIAN_POINT('',(0.03175,-0.0131512806053458,0.01905));
#1310=CARTESIAN_POINT('',(0.0224506403026729,-0.0224506403026729,0.01905));
#1311=CARTESIAN_POINT('',(0.0131512806053458,-0.03175,0.01905));
#1312=CARTESIAN_POINT('',(0.0131512806053458,-0.03175,0.01905));
#1313=CARTESIAN_POINT('',(0.03175,0.,0.01905));
#1314=CARTESIAN_POINT('',(0.03175,0.0131512806053458,0.01905));
#1315=CARTESIAN_POINT('',(0.03175,0.0131512806053458,0.01905));
#1316=CARTESIAN_POINT('',(0.03175,0.,0.01905));
#1317=CARTESIAN_POINT('',(0.0224506403026729,0.0224506403026729,0.01905));
#1318=CARTESIAN_POINT('',(0.0131512806053458,0.03175,0.01905));
#1319=CARTESIAN_POINT('',(0.0131512806053458,0.03175,0.01905));
#1320=CARTESIAN_POINT('',(0.0224506403026729,0.0224506403026729,0.01905));
#1321=CARTESIAN_POINT('',(1.7347234759768E-18,0.03175,0.01905));
#1322=CARTESIAN_POINT('',(0.,0.03175,0.0314987935125828));
#1323=CARTESIAN_POINT('',(0.,0.03175,0.0251487935125828));
#1324=CARTESIAN_POINT('',(0.,0.03175,0.0643592476844788));
#1325=CARTESIAN_POINT('',(0.,0.03175,0.0580092476844788));
#1326=CARTESIAN_POINT('',(-0.0131512806053458,0.03175,0.01905));
#1327=CARTESIAN_POINT('',(-0.0131512806053458,0.03175,0.01905));
#1328=CARTESIAN_POINT('',(1.7347234759768E-18,0.03175,0.01905));
#1329=CARTESIAN_POINT('',(-0.0224506403026729,0.0224506403026729,0.01905));
#1330=CARTESIAN_POINT('',(-0.03175,0.0131512806053458,0.01905));
#1331=CARTESIAN_POINT('',(-0.03175,0.0131512806053458,0.01905));
#1332=CARTESIAN_POINT('',(-0.0224506403026729,0.0224506403026729,0.01905));
#1333=CARTESIAN_POINT('',(-0.03175,3.46944695195361E-18,0.01905));
#1334=CARTESIAN_POINT('',(-0.03175,-0.0131512806053458,0.01905));
#1335=CARTESIAN_POINT('',(-0.03175,-0.0131512806053458,0.01905));
#1336=CARTESIAN_POINT('',(-0.03175,3.46944695195361E-18,0.01905));
#1337=CARTESIAN_POINT('',(-0.0224506403026729,-0.0224506403026729,0.01905));
#1338=CARTESIAN_POINT('',(-0.0131512806053458,-0.03175,0.01905));
#1339=CARTESIAN_POINT('',(-0.0131512806053458,-0.03175,0.01905));
#1340=CARTESIAN_POINT('',(-0.0224506403026729,-0.0224506403026729,0.01905));
#1341=CARTESIAN_POINT('',(-5.20417042793042E-18,-0.03175,0.01905));
#1342=CARTESIAN_POINT('',(-5.20417042793042E-18,-0.03175,0.01905));
#1343=CARTESIAN_POINT('',(0.,0.,0.01905));
#1344=CARTESIAN_POINT('',(0.,0.050546,0.0643592476844788));
#1345=CARTESIAN_POINT('',(0.,0.050546,0.0314987935125828));
#1346=MECHANICAL_DESIGN_GEOMETRIC_PRESENTATION_REPRESENTATION('',(#648),
#1347);
#1347=(
GEOMETRIC_REPRESENTATION_CONTEXT(3)
GLOBAL_UNCERTAINTY_ASSIGNED_CONTEXT((#1348))
GLOBAL_UNIT_ASSIGNED_CONTEXT((#1351,#1350,#1349))
REPRESENTATION_CONTEXT('Top Sensor Housing','TOP_LEVEL_ASSEMBLY_PART')
);
#1348=UNCERTAINTY_MEASURE_WITH_UNIT(LENGTH_MEASURE(2.E-5),#1351,
'DISTANCE_ACCURACY_VALUE','Maximum Tolerance applied to model');
#1349=(
NAMED_UNIT(*)
SI_UNIT($,.STERADIAN.)
SOLID_ANGLE_UNIT()
);
#1350=(
NAMED_UNIT(*)
PLANE_ANGLE_UNIT()
SI_UNIT($,.RADIAN.)
);
#1351=(
LENGTH_UNIT()
NAMED_UNIT(*)
SI_UNIT($,.METRE.)
);
#1352=PRODUCT_DEFINITION_SHAPE('','',#1353);
#1353=PRODUCT_DEFINITION('','',#1355,#1354);
#1354=PRODUCT_DEFINITION_CONTEXT('',#1361,'design');
#1355=PRODUCT_DEFINITION_FORMATION_WITH_SPECIFIED_SOURCE('','',#1357,
 .NOT_KNOWN.);
#1356=PRODUCT_RELATED_PRODUCT_CATEGORY('','',(#1357));
#1357=PRODUCT('Top Sensor Housing','Top Sensor Housing',
'Top Sensor Housing',(#1359));
#1358=PRODUCT_CATEGORY('','');
#1359=PRODUCT_CONTEXT('',#1361,'mechanical');
#1360=APPLICATION_PROTOCOL_DEFINITION('international standard',
'ap242_managed_model_based_3d_engineering',2020,#1361);
#1361=APPLICATION_CONTEXT('managed model based 3d engineering');
ENDSEC;
END-ISO-10303-21;
