ISO-10303-21;
HEADER;
/* Generated by software containing ST-Developer
 * from STEP Tools, Inc. (www.steptools.com) 
 */
/* OPTION: using custom renumber hook */

FILE_DESCRIPTION(
/* description */ ('STEP AP242 Edition 2',
'CAx-IF Rec.Pracs.---Representation and Presentation of Product Manufa
cturing Information (PMI)---4.0---2014-10-13',
'CAx-IF Rec.Pracs.---3D Tessellated Geometry---0.4---2014-09-14','2;1',
'CAx-IF Rec.Pracs.---User Defined Attributes---1.5---2016-08-15'),
/* implementation_level */ '2;1');

FILE_NAME(
/* name */ 'Top-Bottom No Port - Part 1',
/* time_stamp */ '2026-08-16T03:11:41Z',
/* author */ (''),
/* organization */ (''),
/* preprocessor_version */ 'ST-DEVELOPER v20',
/* originating_system */ 'ONSHAPE BY PTC INC, 1.219',
/* authorisation */ '  ');

FILE_SCHEMA (('AP242_MANAGED_MODEL_BASED_3D_ENGINEERING_MIM_LF { 1 0 10303 442 3 1 4 }'));
ENDSEC;

DATA;
#10=SHAPE_REPRESENTATION_RELATIONSHIP('','',#558,#11);
#11=ADVANCED_BREP_SHAPE_REPRESENTATION('',(#556),#1011);
#12=(
BOUNDED_SURFACE()
B_SPLINE_SURFACE(3,2,((#974,#975,#976),(#977,#978,#979),(#980,#981,#982),
(#983,#984,#985),(#986,#987,#988)),.UNSPECIFIED.,.F.,.F.,.F.)
B_SPLINE_SURFACE_WITH_KNOTS((4,1,4),(3,3),(8.67361737988404E-18,0.00156010910768157,
0.00312021821536312),(0.,1.),.UNSPECIFIED.)
GEOMETRIC_REPRESENTATION_ITEM()
RATIONAL_B_SPLINE_SURFACE(((1.,0.499999999999999,1.),(1.,0.500000000736107,
1.),(1.,0.549004700456913,1.),(1.,0.653423310549285,1.),(1.,0.707106781186548,
1.)))
REPRESENTATION_ITEM('')
SURFACE()
);
#13=(
BOUNDED_SURFACE()
B_SPLINE_SURFACE(3,2,((#995,#996,#997),(#998,#999,#1000),(#1001,#1002,#1003),
(#1004,#1005,#1006),(#1007,#1008,#1009)),.UNSPECIFIED.,.F.,.F.,.F.)
B_SPLINE_SURFACE_WITH_KNOTS((4,1,4),(3,3),(0.0131231159834942,0.0146959810570053,
0.0162688461305164),(0.,1.),.UNSPECIFIED.)
GEOMETRIC_REPRESENTATION_ITEM()
RATIONAL_B_SPLINE_SURFACE(((1.,0.707106781186548,1.),(1.,0.653249943313232,
1.),(1.,0.549806774744565,1.),(1.,0.499999999809377,1.),(1.,0.50000000000004,
1.)))
REPRESENTATION_ITEM('')
SURFACE()
);
#14=B_SPLINE_CURVE_WITH_KNOTS('',3,(#925,#926,#927,#928),.UNSPECIFIED.,
 .F.,.F.,(4,4),(0.,0.00262679989030637),.UNSPECIFIED.);
#15=B_SPLINE_CURVE_WITH_KNOTS('',3,(#933,#934,#935,#936),.UNSPECIFIED.,
 .F.,.F.,(4,4),(0.,0.00262762917394586),.UNSPECIFIED.);
#16=B_SPLINE_CURVE_WITH_KNOTS('',3,(#961,#962,#963,#964),.UNSPECIFIED.,
 .F.,.F.,(4,4),(0.,0.0033660337962624),.UNSPECIFIED.);
#17=B_SPLINE_CURVE_WITH_KNOTS('',3,(#970,#971,#972,#973),.UNSPECIFIED.,
 .F.,.F.,(4,4),(0.,0.00338198478975067),.UNSPECIFIED.);
#18=TOROIDAL_SURFACE('',#592,0.0508,0.00635);
#19=TOROIDAL_SURFACE('',#626,0.006985,0.00254);
#20=TOROIDAL_SURFACE('',#631,0.006985,0.00254);
#21=TOROIDAL_SURFACE('',#637,0.00762,0.00127);
#22=TOROIDAL_SURFACE('',#639,0.00762,0.00127);
#23=CYLINDRICAL_SURFACE('',#572,0.0022479);
#24=CYLINDRICAL_SURFACE('',#575,0.0022479);
#25=CYLINDRICAL_SURFACE('',#578,0.0022479);
#26=CYLINDRICAL_SURFACE('',#581,0.0022479);
#27=CYLINDRICAL_SURFACE('',#584,0.0022479);
#28=CYLINDRICAL_SURFACE('',#587,0.0022479);
#29=CYLINDRICAL_SURFACE('',#595,0.004953);
#30=CYLINDRICAL_SURFACE('',#598,0.004953);
#31=CYLINDRICAL_SURFACE('',#601,0.004953);
#32=CYLINDRICAL_SURFACE('',#604,0.004953);
#33=CYLINDRICAL_SURFACE('',#607,0.004953);
#34=CYLINDRICAL_SURFACE('',#610,0.004953);
#35=CYLINDRICAL_SURFACE('',#612,0.009525);
#36=CYLINDRICAL_SURFACE('',#616,0.00635);
#37=CYLINDRICAL_SURFACE('',#624,0.00254);
#38=CYLINDRICAL_SURFACE('',#628,0.00254);
#39=CYLINDRICAL_SURFACE('',#629,0.00254);
#40=CYLINDRICAL_SURFACE('',#634,0.00254);
#41=LINE('',#835,#55);
#42=LINE('',#840,#56);
#43=LINE('',#844,#57);
#44=LINE('',#848,#58);
#45=LINE('',#910,#59);
#46=LINE('',#913,#60);
#47=LINE('',#914,#61);
#48=LINE('',#916,#62);
#49=LINE('',#922,#63);
#50=LINE('',#923,#64);
#51=LINE('',#942,#65);
#52=LINE('',#946,#66);
#53=LINE('',#948,#67);
#54=LINE('',#952,#68);
#55=VECTOR('',#659,1.);
#56=VECTOR('',#662,1.);
#57=VECTOR('',#665,1.);
#58=VECTOR('',#668,1.);
#59=VECTOR('',#751,1.);
#60=VECTOR('',#752,1.);
#61=VECTOR('',#753,1.);
#62=VECTOR('',#756,1.);
#63=VECTOR('',#763,1.);
#64=VECTOR('',#764,1.);
#65=VECTOR('',#775,1.);
#66=VECTOR('',#778,1.);
#67=VECTOR('',#781,1.);
#68=VECTOR('',#784,1.);
#69=ORIENTED_EDGE('',*,*,#197,.F.);
#70=ORIENTED_EDGE('',*,*,#198,.F.);
#71=ORIENTED_EDGE('',*,*,#199,.F.);
#72=ORIENTED_EDGE('',*,*,#200,.F.);
#73=ORIENTED_EDGE('',*,*,#201,.F.);
#74=ORIENTED_EDGE('',*,*,#202,.F.);
#75=ORIENTED_EDGE('',*,*,#203,.T.);
#76=ORIENTED_EDGE('',*,*,#204,.F.);
#77=ORIENTED_EDGE('',*,*,#205,.T.);
#78=ORIENTED_EDGE('',*,*,#206,.T.);
#79=ORIENTED_EDGE('',*,*,#207,.T.);
#80=ORIENTED_EDGE('',*,*,#208,.T.);
#81=ORIENTED_EDGE('',*,*,#209,.T.);
#82=ORIENTED_EDGE('',*,*,#210,.F.);
#83=ORIENTED_EDGE('',*,*,#211,.T.);
#84=ORIENTED_EDGE('',*,*,#212,.F.);
#85=ORIENTED_EDGE('',*,*,#213,.F.);
#86=ORIENTED_EDGE('',*,*,#214,.F.);
#87=ORIENTED_EDGE('',*,*,#215,.F.);
#88=ORIENTED_EDGE('',*,*,#216,.F.);
#89=ORIENTED_EDGE('',*,*,#217,.F.);
#90=ORIENTED_EDGE('',*,*,#218,.F.);
#91=ORIENTED_EDGE('',*,*,#219,.F.);
#92=ORIENTED_EDGE('',*,*,#220,.F.);
#93=ORIENTED_EDGE('',*,*,#221,.F.);
#94=ORIENTED_EDGE('',*,*,#222,.F.);
#95=ORIENTED_EDGE('',*,*,#223,.F.);
#96=ORIENTED_EDGE('',*,*,#222,.T.);
#97=ORIENTED_EDGE('',*,*,#220,.T.);
#98=ORIENTED_EDGE('',*,*,#218,.T.);
#99=ORIENTED_EDGE('',*,*,#216,.T.);
#100=ORIENTED_EDGE('',*,*,#214,.T.);
#101=ORIENTED_EDGE('',*,*,#212,.T.);
#102=ORIENTED_EDGE('',*,*,#224,.F.);
#103=ORIENTED_EDGE('',*,*,#224,.T.);
#104=ORIENTED_EDGE('',*,*,#203,.F.);
#105=ORIENTED_EDGE('',*,*,#225,.T.);
#106=ORIENTED_EDGE('',*,*,#223,.T.);
#107=ORIENTED_EDGE('',*,*,#225,.F.);
#108=ORIENTED_EDGE('',*,*,#197,.T.);
#109=ORIENTED_EDGE('',*,*,#226,.T.);
#110=ORIENTED_EDGE('',*,*,#221,.T.);
#111=ORIENTED_EDGE('',*,*,#226,.F.);
#112=ORIENTED_EDGE('',*,*,#198,.T.);
#113=ORIENTED_EDGE('',*,*,#227,.T.);
#114=ORIENTED_EDGE('',*,*,#219,.T.);
#115=ORIENTED_EDGE('',*,*,#227,.F.);
#116=ORIENTED_EDGE('',*,*,#199,.T.);
#117=ORIENTED_EDGE('',*,*,#228,.T.);
#118=ORIENTED_EDGE('',*,*,#217,.T.);
#119=ORIENTED_EDGE('',*,*,#228,.F.);
#120=ORIENTED_EDGE('',*,*,#200,.T.);
#121=ORIENTED_EDGE('',*,*,#229,.T.);
#122=ORIENTED_EDGE('',*,*,#215,.T.);
#123=ORIENTED_EDGE('',*,*,#229,.F.);
#124=ORIENTED_EDGE('',*,*,#201,.T.);
#125=ORIENTED_EDGE('',*,*,#230,.T.);
#126=ORIENTED_EDGE('',*,*,#213,.T.);
#127=ORIENTED_EDGE('',*,*,#230,.F.);
#128=ORIENTED_EDGE('',*,*,#202,.T.);
#129=ORIENTED_EDGE('',*,*,#231,.F.);
#130=ORIENTED_EDGE('',*,*,#232,.T.);
#131=ORIENTED_EDGE('',*,*,#204,.T.);
#132=ORIENTED_EDGE('',*,*,#233,.T.);
#133=ORIENTED_EDGE('',*,*,#234,.F.);
#134=ORIENTED_EDGE('',*,*,#235,.T.);
#135=ORIENTED_EDGE('',*,*,#231,.T.);
#136=ORIENTED_EDGE('',*,*,#236,.T.);
#137=ORIENTED_EDGE('',*,*,#208,.F.);
#138=ORIENTED_EDGE('',*,*,#237,.T.);
#139=ORIENTED_EDGE('',*,*,#234,.T.);
#140=ORIENTED_EDGE('',*,*,#238,.T.);
#141=ORIENTED_EDGE('',*,*,#239,.T.);
#142=ORIENTED_EDGE('',*,*,#240,.T.);
#143=ORIENTED_EDGE('',*,*,#241,.T.);
#144=ORIENTED_EDGE('',*,*,#242,.T.);
#145=ORIENTED_EDGE('',*,*,#243,.T.);
#146=ORIENTED_EDGE('',*,*,#206,.F.);
#147=ORIENTED_EDGE('',*,*,#244,.T.);
#148=ORIENTED_EDGE('',*,*,#245,.T.);
#149=ORIENTED_EDGE('',*,*,#246,.T.);
#150=ORIENTED_EDGE('',*,*,#243,.F.);
#151=ORIENTED_EDGE('',*,*,#247,.T.);
#152=ORIENTED_EDGE('',*,*,#248,.T.);
#153=ORIENTED_EDGE('',*,*,#249,.T.);
#154=ORIENTED_EDGE('',*,*,#210,.T.);
#155=ORIENTED_EDGE('',*,*,#207,.F.);
#156=ORIENTED_EDGE('',*,*,#246,.F.);
#157=ORIENTED_EDGE('',*,*,#250,.F.);
#158=ORIENTED_EDGE('',*,*,#237,.F.);
#159=ORIENTED_EDGE('',*,*,#250,.T.);
#160=ORIENTED_EDGE('',*,*,#245,.F.);
#161=ORIENTED_EDGE('',*,*,#251,.F.);
#162=ORIENTED_EDGE('',*,*,#235,.F.);
#163=ORIENTED_EDGE('',*,*,#205,.F.);
#164=ORIENTED_EDGE('',*,*,#232,.F.);
#165=ORIENTED_EDGE('',*,*,#251,.T.);
#166=ORIENTED_EDGE('',*,*,#244,.F.);
#167=ORIENTED_EDGE('',*,*,#252,.F.);
#168=ORIENTED_EDGE('',*,*,#253,.T.);
#169=ORIENTED_EDGE('',*,*,#247,.F.);
#170=ORIENTED_EDGE('',*,*,#209,.F.);
#171=ORIENTED_EDGE('',*,*,#238,.F.);
#172=ORIENTED_EDGE('',*,*,#254,.F.);
#173=ORIENTED_EDGE('',*,*,#255,.T.);
#174=ORIENTED_EDGE('',*,*,#252,.T.);
#175=ORIENTED_EDGE('',*,*,#236,.F.);
#176=ORIENTED_EDGE('',*,*,#249,.F.);
#177=ORIENTED_EDGE('',*,*,#256,.T.);
#178=ORIENTED_EDGE('',*,*,#254,.T.);
#179=ORIENTED_EDGE('',*,*,#233,.F.);
#180=ORIENTED_EDGE('',*,*,#211,.F.);
#181=ORIENTED_EDGE('',*,*,#257,.F.);
#182=ORIENTED_EDGE('',*,*,#241,.F.);
#183=ORIENTED_EDGE('',*,*,#258,.F.);
#184=ORIENTED_EDGE('',*,*,#253,.F.);
#185=ORIENTED_EDGE('',*,*,#258,.T.);
#186=ORIENTED_EDGE('',*,*,#240,.F.);
#187=ORIENTED_EDGE('',*,*,#259,.F.);
#188=ORIENTED_EDGE('',*,*,#248,.F.);
#189=ORIENTED_EDGE('',*,*,#257,.T.);
#190=ORIENTED_EDGE('',*,*,#255,.F.);
#191=ORIENTED_EDGE('',*,*,#260,.F.);
#192=ORIENTED_EDGE('',*,*,#242,.F.);
#193=ORIENTED_EDGE('',*,*,#259,.T.);
#194=ORIENTED_EDGE('',*,*,#239,.F.);
#195=ORIENTED_EDGE('',*,*,#260,.T.);
#196=ORIENTED_EDGE('',*,*,#256,.F.);
#197=EDGE_CURVE('',#261,#261,#310,.T.);
#198=EDGE_CURVE('',#262,#262,#311,.T.);
#199=EDGE_CURVE('',#263,#263,#312,.T.);
#200=EDGE_CURVE('',#264,#264,#313,.T.);
#201=EDGE_CURVE('',#265,#265,#314,.T.);
#202=EDGE_CURVE('',#266,#266,#315,.T.);
#203=EDGE_CURVE('',#267,#267,#316,.T.);
#204=EDGE_CURVE('',#268,#269,#41,.T.);
#205=EDGE_CURVE('',#268,#270,#317,.F.);
#206=EDGE_CURVE('',#270,#271,#42,.T.);
#207=EDGE_CURVE('',#271,#272,#318,.F.);
#208=EDGE_CURVE('',#272,#273,#43,.T.);
#209=EDGE_CURVE('',#273,#274,#319,.F.);
#210=EDGE_CURVE('',#275,#274,#44,.T.);
#211=EDGE_CURVE('',#275,#269,#320,.F.);
#212=EDGE_CURVE('',#276,#276,#321,.T.);
#213=EDGE_CURVE('',#277,#277,#322,.F.);
#214=EDGE_CURVE('',#278,#278,#323,.T.);
#215=EDGE_CURVE('',#279,#279,#324,.F.);
#216=EDGE_CURVE('',#280,#280,#325,.T.);
#217=EDGE_CURVE('',#281,#281,#326,.F.);
#218=EDGE_CURVE('',#282,#282,#327,.T.);
#219=EDGE_CURVE('',#283,#283,#328,.F.);
#220=EDGE_CURVE('',#284,#284,#329,.T.);
#221=EDGE_CURVE('',#285,#285,#330,.F.);
#222=EDGE_CURVE('',#286,#286,#331,.T.);
#223=EDGE_CURVE('',#287,#287,#332,.F.);
#224=EDGE_CURVE('',#288,#288,#333,.T.);
#225=EDGE_CURVE('',#289,#289,#334,.T.);
#226=EDGE_CURVE('',#290,#290,#335,.T.);
#227=EDGE_CURVE('',#291,#291,#336,.T.);
#228=EDGE_CURVE('',#292,#292,#337,.T.);
#229=EDGE_CURVE('',#293,#293,#338,.T.);
#230=EDGE_CURVE('',#294,#294,#339,.T.);
#231=EDGE_CURVE('',#295,#296,#45,.T.);
#232=EDGE_CURVE('',#295,#268,#46,.F.);
#233=EDGE_CURVE('',#269,#296,#47,.T.);
#234=EDGE_CURVE('',#297,#298,#48,.T.);
#235=EDGE_CURVE('',#297,#295,#340,.F.);
#236=EDGE_CURVE('',#296,#298,#341,.T.);
#237=EDGE_CURVE('',#272,#297,#49,.T.);
#238=EDGE_CURVE('',#298,#273,#50,.F.);
#239=EDGE_CURVE('',#299,#300,#14,.T.);
#240=EDGE_CURVE('',#300,#301,#342,.F.);
#241=EDGE_CURVE('',#301,#302,#15,.T.);
#242=EDGE_CURVE('',#302,#299,#343,.T.);
#243=EDGE_CURVE('',#303,#303,#344,.T.);
#244=EDGE_CURVE('',#270,#304,#51,.T.);
#245=EDGE_CURVE('',#304,#305,#345,.T.);
#246=EDGE_CURVE('',#305,#271,#52,.F.);
#247=EDGE_CURVE('',#274,#306,#53,.T.);
#248=EDGE_CURVE('',#306,#307,#346,.T.);
#249=EDGE_CURVE('',#307,#275,#54,.F.);
#250=EDGE_CURVE('',#297,#305,#347,.T.);
#251=EDGE_CURVE('',#295,#304,#348,.T.);
#252=EDGE_CURVE('',#308,#298,#349,.T.);
#253=EDGE_CURVE('',#308,#306,#16,.T.);
#254=EDGE_CURVE('',#309,#296,#350,.T.);
#255=EDGE_CURVE('',#309,#308,#351,.T.);
#256=EDGE_CURVE('',#307,#309,#17,.T.);
#257=EDGE_CURVE('',#302,#308,#352,.T.);
#258=EDGE_CURVE('',#306,#301,#353,.T.);
#259=EDGE_CURVE('',#307,#300,#354,.T.);
#260=EDGE_CURVE('',#299,#309,#355,.T.);
#261=VERTEX_POINT('',#822);
#262=VERTEX_POINT('',#824);
#263=VERTEX_POINT('',#826);
#264=VERTEX_POINT('',#828);
#265=VERTEX_POINT('',#830);
#266=VERTEX_POINT('',#832);
#267=VERTEX_POINT('',#834);
#268=VERTEX_POINT('',#836);
#269=VERTEX_POINT('',#837);
#270=VERTEX_POINT('',#839);
#271=VERTEX_POINT('',#841);
#272=VERTEX_POINT('',#843);
#273=VERTEX_POINT('',#845);
#274=VERTEX_POINT('',#847);
#275=VERTEX_POINT('',#849);
#276=VERTEX_POINT('',#853);
#277=VERTEX_POINT('',#855);
#278=VERTEX_POINT('',#858);
#279=VERTEX_POINT('',#860);
#280=VERTEX_POINT('',#863);
#281=VERTEX_POINT('',#865);
#282=VERTEX_POINT('',#868);
#283=VERTEX_POINT('',#870);
#284=VERTEX_POINT('',#873);
#285=VERTEX_POINT('',#875);
#286=VERTEX_POINT('',#878);
#287=VERTEX_POINT('',#880);
#288=VERTEX_POINT('',#883);
#289=VERTEX_POINT('',#887);
#290=VERTEX_POINT('',#891);
#291=VERTEX_POINT('',#895);
#292=VERTEX_POINT('',#899);
#293=VERTEX_POINT('',#903);
#294=VERTEX_POINT('',#907);
#295=VERTEX_POINT('',#911);
#296=VERTEX_POINT('',#912);
#297=VERTEX_POINT('',#917);
#298=VERTEX_POINT('',#918);
#299=VERTEX_POINT('',#929);
#300=VERTEX_POINT('',#930);
#301=VERTEX_POINT('',#932);
#302=VERTEX_POINT('',#937);
#303=VERTEX_POINT('',#940);
#304=VERTEX_POINT('',#943);
#305=VERTEX_POINT('',#945);
#306=VERTEX_POINT('',#949);
#307=VERTEX_POINT('',#951);
#308=VERTEX_POINT('',#960);
#309=VERTEX_POINT('',#967);
#310=CIRCLE('',#561,0.004953);
#311=CIRCLE('',#562,0.004953);
#312=CIRCLE('',#563,0.004953);
#313=CIRCLE('',#564,0.004953);
#314=CIRCLE('',#565,0.004953);
#315=CIRCLE('',#566,0.004953);
#316=CIRCLE('',#567,0.0508);
#317=CIRCLE('',#568,0.00254);
#318=CIRCLE('',#569,0.00254);
#319=CIRCLE('',#570,0.00254);
#320=CIRCLE('',#571,0.00254);
#321=CIRCLE('',#573,0.0022479);
#322=CIRCLE('',#574,0.0022479);
#323=CIRCLE('',#576,0.0022479);
#324=CIRCLE('',#577,0.0022479);
#325=CIRCLE('',#579,0.0022479);
#326=CIRCLE('',#580,0.0022479);
#327=CIRCLE('',#582,0.0022479);
#328=CIRCLE('',#583,0.0022479);
#329=CIRCLE('',#585,0.0022479);
#330=CIRCLE('',#586,0.0022479);
#331=CIRCLE('',#588,0.0022479);
#332=CIRCLE('',#589,0.0022479);
#333=CIRCLE('',#591,0.05715);
#334=CIRCLE('',#594,0.004953);
#335=CIRCLE('',#597,0.004953);
#336=CIRCLE('',#600,0.004953);
#337=CIRCLE('',#603,0.004953);
#338=CIRCLE('',#606,0.004953);
#339=CIRCLE('',#609,0.004953);
#340=CIRCLE('',#613,0.009525);
#341=CIRCLE('',#614,0.009525);
#342=CIRCLE('',#617,0.00635);
#343=CIRCLE('',#618,0.00635);
#344=CIRCLE('',#619,0.00635);
#345=CIRCLE('',#621,0.006985);
#346=CIRCLE('',#623,0.00762);
#347=CIRCLE('',#625,0.00254);
#348=CIRCLE('',#627,0.00254);
#349=CIRCLE('',#630,0.00254);
#350=CIRCLE('',#632,0.00254);
#351=CIRCLE('',#633,0.008255);
#352=CIRCLE('',#635,0.00127);
#353=CIRCLE('',#636,0.00127);
#354=CIRCLE('',#638,0.00127);
#355=CIRCLE('',#640,0.00127);
#356=EDGE_LOOP('',(#69));
#357=EDGE_LOOP('',(#70));
#358=EDGE_LOOP('',(#71));
#359=EDGE_LOOP('',(#72));
#360=EDGE_LOOP('',(#73));
#361=EDGE_LOOP('',(#74));
#362=EDGE_LOOP('',(#75));
#363=EDGE_LOOP('',(#76,#77,#78,#79,#80,#81,#82,#83));
#364=EDGE_LOOP('',(#84));
#365=EDGE_LOOP('',(#85));
#366=EDGE_LOOP('',(#86));
#367=EDGE_LOOP('',(#87));
#368=EDGE_LOOP('',(#88));
#369=EDGE_LOOP('',(#89));
#370=EDGE_LOOP('',(#90));
#371=EDGE_LOOP('',(#91));
#372=EDGE_LOOP('',(#92));
#373=EDGE_LOOP('',(#93));
#374=EDGE_LOOP('',(#94));
#375=EDGE_LOOP('',(#95));
#376=EDGE_LOOP('',(#96));
#377=EDGE_LOOP('',(#97));
#378=EDGE_LOOP('',(#98));
#379=EDGE_LOOP('',(#99));
#380=EDGE_LOOP('',(#100));
#381=EDGE_LOOP('',(#101));
#382=EDGE_LOOP('',(#102));
#383=EDGE_LOOP('',(#103));
#384=EDGE_LOOP('',(#104));
#385=EDGE_LOOP('',(#105));
#386=EDGE_LOOP('',(#106));
#387=EDGE_LOOP('',(#107));
#388=EDGE_LOOP('',(#108));
#389=EDGE_LOOP('',(#109));
#390=EDGE_LOOP('',(#110));
#391=EDGE_LOOP('',(#111));
#392=EDGE_LOOP('',(#112));
#393=EDGE_LOOP('',(#113));
#394=EDGE_LOOP('',(#114));
#395=EDGE_LOOP('',(#115));
#396=EDGE_LOOP('',(#116));
#397=EDGE_LOOP('',(#117));
#398=EDGE_LOOP('',(#118));
#399=EDGE_LOOP('',(#119));
#400=EDGE_LOOP('',(#120));
#401=EDGE_LOOP('',(#121));
#402=EDGE_LOOP('',(#122));
#403=EDGE_LOOP('',(#123));
#404=EDGE_LOOP('',(#124));
#405=EDGE_LOOP('',(#125));
#406=EDGE_LOOP('',(#126));
#407=EDGE_LOOP('',(#127));
#408=EDGE_LOOP('',(#128));
#409=EDGE_LOOP('',(#129,#130,#131,#132));
#410=EDGE_LOOP('',(#133,#134,#135,#136));
#411=EDGE_LOOP('',(#137,#138,#139,#140));
#412=EDGE_LOOP('',(#141,#142,#143,#144));
#413=EDGE_LOOP('',(#145));
#414=EDGE_LOOP('',(#146,#147,#148,#149));
#415=EDGE_LOOP('',(#150));
#416=EDGE_LOOP('',(#151,#152,#153,#154));
#417=EDGE_LOOP('',(#155,#156,#157,#158));
#418=EDGE_LOOP('',(#159,#160,#161,#162));
#419=EDGE_LOOP('',(#163,#164,#165,#166));
#420=EDGE_LOOP('',(#167,#168,#169,#170,#171));
#421=EDGE_LOOP('',(#172,#173,#174,#175));
#422=EDGE_LOOP('',(#176,#177,#178,#179,#180));
#423=EDGE_LOOP('',(#181,#182,#183,#184));
#424=EDGE_LOOP('',(#185,#186,#187,#188));
#425=EDGE_LOOP('',(#189,#190,#191,#192));
#426=EDGE_LOOP('',(#193,#194,#195,#196));
#427=FACE_BOUND('',#356,.T.);
#428=FACE_BOUND('',#357,.T.);
#429=FACE_BOUND('',#358,.T.);
#430=FACE_BOUND('',#359,.T.);
#431=FACE_BOUND('',#360,.T.);
#432=FACE_BOUND('',#361,.T.);
#433=FACE_BOUND('',#362,.T.);
#434=FACE_BOUND('',#363,.T.);
#435=FACE_BOUND('',#364,.T.);
#436=FACE_BOUND('',#365,.T.);
#437=FACE_BOUND('',#366,.T.);
#438=FACE_BOUND('',#367,.T.);
#439=FACE_BOUND('',#368,.T.);
#440=FACE_BOUND('',#369,.T.);
#441=FACE_BOUND('',#370,.T.);
#442=FACE_BOUND('',#371,.T.);
#443=FACE_BOUND('',#372,.T.);
#444=FACE_BOUND('',#373,.T.);
#445=FACE_BOUND('',#374,.T.);
#446=FACE_BOUND('',#375,.T.);
#447=FACE_BOUND('',#376,.T.);
#448=FACE_BOUND('',#377,.T.);
#449=FACE_BOUND('',#378,.T.);
#450=FACE_BOUND('',#379,.T.);
#451=FACE_BOUND('',#380,.T.);
#452=FACE_BOUND('',#381,.T.);
#453=FACE_BOUND('',#382,.T.);
#454=FACE_BOUND('',#383,.T.);
#455=FACE_BOUND('',#384,.T.);
#456=FACE_BOUND('',#385,.T.);
#457=FACE_BOUND('',#386,.T.);
#458=FACE_BOUND('',#387,.T.);
#459=FACE_BOUND('',#388,.T.);
#460=FACE_BOUND('',#389,.T.);
#461=FACE_BOUND('',#390,.T.);
#462=FACE_BOUND('',#391,.T.);
#463=FACE_BOUND('',#392,.T.);
#464=FACE_BOUND('',#393,.T.);
#465=FACE_BOUND('',#394,.T.);
#466=FACE_BOUND('',#395,.T.);
#467=FACE_BOUND('',#396,.T.);
#468=FACE_BOUND('',#397,.T.);
#469=FACE_BOUND('',#398,.T.);
#470=FACE_BOUND('',#399,.T.);
#471=FACE_BOUND('',#400,.T.);
#472=FACE_BOUND('',#401,.T.);
#473=FACE_BOUND('',#402,.T.);
#474=FACE_BOUND('',#403,.T.);
#475=FACE_BOUND('',#404,.T.);
#476=FACE_BOUND('',#405,.T.);
#477=FACE_BOUND('',#406,.T.);
#478=FACE_BOUND('',#407,.T.);
#479=FACE_BOUND('',#408,.T.);
#480=FACE_BOUND('',#409,.T.);
#481=FACE_BOUND('',#410,.T.);
#482=FACE_BOUND('',#411,.T.);
#483=FACE_BOUND('',#412,.T.);
#484=FACE_BOUND('',#413,.T.);
#485=FACE_BOUND('',#414,.T.);
#486=FACE_BOUND('',#415,.T.);
#487=FACE_BOUND('',#416,.T.);
#488=FACE_BOUND('',#417,.T.);
#489=FACE_BOUND('',#418,.T.);
#490=FACE_BOUND('',#419,.T.);
#491=FACE_BOUND('',#420,.T.);
#492=FACE_BOUND('',#421,.T.);
#493=FACE_BOUND('',#422,.T.);
#494=FACE_BOUND('',#423,.T.);
#495=FACE_BOUND('',#424,.T.);
#496=FACE_BOUND('',#425,.T.);
#497=FACE_BOUND('',#426,.T.);
#498=PLANE('',#560);
#499=PLANE('',#590);
#500=PLANE('',#593);
#501=PLANE('',#596);
#502=PLANE('',#599);
#503=PLANE('',#602);
#504=PLANE('',#605);
#505=PLANE('',#608);
#506=PLANE('',#611);
#507=PLANE('',#615);
#508=PLANE('',#620);
#509=PLANE('',#622);
#510=ADVANCED_FACE('',(#427,#428,#429,#430,#431,#432,#433,#434),#498,.T.);
#511=ADVANCED_FACE('',(#435,#436),#23,.F.);
#512=ADVANCED_FACE('',(#437,#438),#24,.F.);
#513=ADVANCED_FACE('',(#439,#440),#25,.F.);
#514=ADVANCED_FACE('',(#441,#442),#26,.F.);
#515=ADVANCED_FACE('',(#443,#444),#27,.F.);
#516=ADVANCED_FACE('',(#445,#446),#28,.F.);
#517=ADVANCED_FACE('',(#447,#448,#449,#450,#451,#452,#453),#499,.F.);
#518=ADVANCED_FACE('',(#454,#455),#18,.T.);
#519=ADVANCED_FACE('',(#456,#457),#500,.T.);
#520=ADVANCED_FACE('',(#458,#459),#29,.F.);
#521=ADVANCED_FACE('',(#460,#461),#501,.T.);
#522=ADVANCED_FACE('',(#462,#463),#30,.F.);
#523=ADVANCED_FACE('',(#464,#465),#502,.T.);
#524=ADVANCED_FACE('',(#466,#467),#31,.F.);
#525=ADVANCED_FACE('',(#468,#469),#503,.T.);
#526=ADVANCED_FACE('',(#470,#471),#32,.F.);
#527=ADVANCED_FACE('',(#472,#473),#504,.T.);
#528=ADVANCED_FACE('',(#474,#475),#33,.F.);
#529=ADVANCED_FACE('',(#476,#477),#505,.T.);
#530=ADVANCED_FACE('',(#478,#479),#34,.F.);
#531=ADVANCED_FACE('',(#480),#506,.F.);
#532=ADVANCED_FACE('',(#481),#35,.T.);
#533=ADVANCED_FACE('',(#482),#507,.T.);
#534=ADVANCED_FACE('',(#483,#484),#36,.F.);
#535=ADVANCED_FACE('',(#485,#486),#508,.T.);
#536=ADVANCED_FACE('',(#487),#509,.F.);
#537=ADVANCED_FACE('',(#488),#37,.T.);
#538=ADVANCED_FACE('',(#489),#19,.T.);
#539=ADVANCED_FACE('',(#490),#38,.T.);
#540=ADVANCED_FACE('',(#491),#39,.T.);
#541=ADVANCED_FACE('',(#492),#20,.T.);
#542=ADVANCED_FACE('',(#493),#40,.T.);
#543=ADVANCED_FACE('',(#494),#12,.T.);
#544=ADVANCED_FACE('',(#495),#21,.T.);
#545=ADVANCED_FACE('',(#496),#22,.T.);
#546=ADVANCED_FACE('',(#497),#13,.T.);
#547=CLOSED_SHELL('',(#510,#511,#512,#513,#514,#515,#516,#517,#518,#519,
#520,#521,#522,#523,#524,#525,#526,#527,#528,#529,#530,#531,#532,#533,#534,
#535,#536,#537,#538,#539,#540,#541,#542,#543,#544,#545,#546));
#548=STYLED_ITEM('',(#549),#556);
#549=PRESENTATION_STYLE_ASSIGNMENT((#550));
#550=SURFACE_STYLE_USAGE(.BOTH.,#551);
#551=SURFACE_SIDE_STYLE('',(#552));
#552=SURFACE_STYLE_FILL_AREA(#553);
#553=FILL_AREA_STYLE('',(#554));
#554=FILL_AREA_STYLE_COLOUR('',#555);
#555=COLOUR_RGB('',0.972549019607843,0.529411764705882,0.00392156862745098);
#556=MANIFOLD_SOLID_BREP('Part 1',#547);
#557=SHAPE_DEFINITION_REPRESENTATION(#1016,#558);
#558=SHAPE_REPRESENTATION('Part 1',(#559),#1011);
#559=AXIS2_PLACEMENT_3D('',#819,#641,#642);
#560=AXIS2_PLACEMENT_3D('',#820,#643,#644);
#561=AXIS2_PLACEMENT_3D('',#821,#645,#646);
#562=AXIS2_PLACEMENT_3D('',#823,#647,#648);
#563=AXIS2_PLACEMENT_3D('',#825,#649,#650);
#564=AXIS2_PLACEMENT_3D('',#827,#651,#652);
#565=AXIS2_PLACEMENT_3D('',#829,#653,#654);
#566=AXIS2_PLACEMENT_3D('',#831,#655,#656);
#567=AXIS2_PLACEMENT_3D('',#833,#657,#658);
#568=AXIS2_PLACEMENT_3D('',#838,#660,#661);
#569=AXIS2_PLACEMENT_3D('',#842,#663,#664);
#570=AXIS2_PLACEMENT_3D('',#846,#666,#667);
#571=AXIS2_PLACEMENT_3D('',#850,#669,#670);
#572=AXIS2_PLACEMENT_3D('',#851,#671,#672);
#573=AXIS2_PLACEMENT_3D('',#852,#673,#674);
#574=AXIS2_PLACEMENT_3D('',#854,#675,#676);
#575=AXIS2_PLACEMENT_3D('',#856,#677,#678);
#576=AXIS2_PLACEMENT_3D('',#857,#679,#680);
#577=AXIS2_PLACEMENT_3D('',#859,#681,#682);
#578=AXIS2_PLACEMENT_3D('',#861,#683,#684);
#579=AXIS2_PLACEMENT_3D('',#862,#685,#686);
#580=AXIS2_PLACEMENT_3D('',#864,#687,#688);
#581=AXIS2_PLACEMENT_3D('',#866,#689,#690);
#582=AXIS2_PLACEMENT_3D('',#867,#691,#692);
#583=AXIS2_PLACEMENT_3D('',#869,#693,#694);
#584=AXIS2_PLACEMENT_3D('',#871,#695,#696);
#585=AXIS2_PLACEMENT_3D('',#872,#697,#698);
#586=AXIS2_PLACEMENT_3D('',#874,#699,#700);
#587=AXIS2_PLACEMENT_3D('',#876,#701,#702);
#588=AXIS2_PLACEMENT_3D('',#877,#703,#704);
#589=AXIS2_PLACEMENT_3D('',#879,#705,#706);
#590=AXIS2_PLACEMENT_3D('',#881,#707,#708);
#591=AXIS2_PLACEMENT_3D('',#882,#709,#710);
#592=AXIS2_PLACEMENT_3D('',#884,#711,#712);
#593=AXIS2_PLACEMENT_3D('',#885,#713,#714);
#594=AXIS2_PLACEMENT_3D('',#886,#715,#716);
#595=AXIS2_PLACEMENT_3D('',#888,#717,#718);
#596=AXIS2_PLACEMENT_3D('',#889,#719,#720);
#597=AXIS2_PLACEMENT_3D('',#890,#721,#722);
#598=AXIS2_PLACEMENT_3D('',#892,#723,#724);
#599=AXIS2_PLACEMENT_3D('',#893,#725,#726);
#600=AXIS2_PLACEMENT_3D('',#894,#727,#728);
#601=AXIS2_PLACEMENT_3D('',#896,#729,#730);
#602=AXIS2_PLACEMENT_3D('',#897,#731,#732);
#603=AXIS2_PLACEMENT_3D('',#898,#733,#734);
#604=AXIS2_PLACEMENT_3D('',#900,#735,#736);
#605=AXIS2_PLACEMENT_3D('',#901,#737,#738);
#606=AXIS2_PLACEMENT_3D('',#902,#739,#740);
#607=AXIS2_PLACEMENT_3D('',#904,#741,#742);
#608=AXIS2_PLACEMENT_3D('',#905,#743,#744);
#609=AXIS2_PLACEMENT_3D('',#906,#745,#746);
#610=AXIS2_PLACEMENT_3D('',#908,#747,#748);
#611=AXIS2_PLACEMENT_3D('',#909,#749,#750);
#612=AXIS2_PLACEMENT_3D('',#915,#754,#755);
#613=AXIS2_PLACEMENT_3D('',#919,#757,#758);
#614=AXIS2_PLACEMENT_3D('',#920,#759,#760);
#615=AXIS2_PLACEMENT_3D('',#921,#761,#762);
#616=AXIS2_PLACEMENT_3D('',#924,#765,#766);
#617=AXIS2_PLACEMENT_3D('',#931,#767,#768);
#618=AXIS2_PLACEMENT_3D('',#938,#769,#770);
#619=AXIS2_PLACEMENT_3D('',#939,#771,#772);
#620=AXIS2_PLACEMENT_3D('',#941,#773,#774);
#621=AXIS2_PLACEMENT_3D('',#944,#776,#777);
#622=AXIS2_PLACEMENT_3D('',#947,#779,#780);
#623=AXIS2_PLACEMENT_3D('',#950,#782,#783);
#624=AXIS2_PLACEMENT_3D('',#953,#785,#786);
#625=AXIS2_PLACEMENT_3D('',#954,#787,#788);
#626=AXIS2_PLACEMENT_3D('',#955,#789,#790);
#627=AXIS2_PLACEMENT_3D('',#956,#791,#792);
#628=AXIS2_PLACEMENT_3D('',#957,#793,#794);
#629=AXIS2_PLACEMENT_3D('',#958,#795,#796);
#630=AXIS2_PLACEMENT_3D('',#959,#797,#798);
#631=AXIS2_PLACEMENT_3D('',#965,#799,#800);
#632=AXIS2_PLACEMENT_3D('',#966,#801,#802);
#633=AXIS2_PLACEMENT_3D('',#968,#803,#804);
#634=AXIS2_PLACEMENT_3D('',#969,#805,#806);
#635=AXIS2_PLACEMENT_3D('',#989,#807,#808);
#636=AXIS2_PLACEMENT_3D('',#990,#809,#810);
#637=AXIS2_PLACEMENT_3D('',#991,#811,#812);
#638=AXIS2_PLACEMENT_3D('',#992,#813,#814);
#639=AXIS2_PLACEMENT_3D('',#993,#815,#816);
#640=AXIS2_PLACEMENT_3D('',#994,#817,#818);
#641=DIRECTION('',(0.,0.,1.));
#642=DIRECTION('',(1.,0.,0.));
#643=DIRECTION('',(0.,0.,1.));
#644=DIRECTION('',(1.,0.,0.));
#645=DIRECTION('',(0.,0.,1.));
#646=DIRECTION('',(1.,0.,0.));
#647=DIRECTION('',(0.,0.,1.));
#648=DIRECTION('',(1.,0.,0.));
#649=DIRECTION('',(0.,0.,1.));
#650=DIRECTION('',(1.,0.,0.));
#651=DIRECTION('',(0.,0.,1.));
#652=DIRECTION('',(1.,0.,0.));
#653=DIRECTION('',(0.,0.,1.));
#654=DIRECTION('',(1.,0.,0.));
#655=DIRECTION('',(0.,0.,1.));
#656=DIRECTION('',(1.,0.,0.));
#657=DIRECTION('',(0.,0.,1.));
#658=DIRECTION('',(1.,0.,0.));
#659=DIRECTION('',(-1.,0.,0.));
#660=DIRECTION('',(0.,0.,1.));
#661=DIRECTION('',(1.,0.,0.));
#662=DIRECTION('',(0.,-1.,-9.10615997888088E-17));
#663=DIRECTION('',(0.,0.,1.));
#664=DIRECTION('',(1.,0.,0.));
#665=DIRECTION('',(-1.,0.,0.));
#666=DIRECTION('',(0.,0.,1.));
#667=DIRECTION('',(1.,0.,0.));
#668=DIRECTION('',(0.,-1.,-9.10615997888088E-17));
#669=DIRECTION('',(0.,0.,1.));
#670=DIRECTION('',(1.,0.,0.));
#671=DIRECTION('',(0.,0.,1.));
#672=DIRECTION('',(1.,0.,0.));
#673=DIRECTION('',(0.,0.,1.));
#674=DIRECTION('',(1.,0.,0.));
#675=DIRECTION('',(0.,0.,1.));
#676=DIRECTION('',(1.,0.,0.));
#677=DIRECTION('',(0.,0.,1.));
#678=DIRECTION('',(1.,0.,0.));
#679=DIRECTION('',(0.,0.,1.));
#680=DIRECTION('',(1.,0.,0.));
#681=DIRECTION('',(0.,0.,1.));
#682=DIRECTION('',(1.,0.,0.));
#683=DIRECTION('',(0.,0.,1.));
#684=DIRECTION('',(1.,0.,0.));
#685=DIRECTION('',(0.,0.,1.));
#686=DIRECTION('',(1.,0.,0.));
#687=DIRECTION('',(0.,0.,1.));
#688=DIRECTION('',(1.,0.,0.));
#689=DIRECTION('',(0.,0.,1.));
#690=DIRECTION('',(1.,0.,0.));
#691=DIRECTION('',(0.,0.,1.));
#692=DIRECTION('',(1.,0.,0.));
#693=DIRECTION('',(0.,0.,1.));
#694=DIRECTION('',(1.,0.,0.));
#695=DIRECTION('',(0.,0.,1.));
#696=DIRECTION('',(1.,0.,0.));
#697=DIRECTION('',(0.,0.,1.));
#698=DIRECTION('',(1.,0.,0.));
#699=DIRECTION('',(0.,0.,1.));
#700=DIRECTION('',(1.,0.,0.));
#701=DIRECTION('',(0.,0.,1.));
#702=DIRECTION('',(1.,0.,0.));
#703=DIRECTION('',(0.,0.,1.));
#704=DIRECTION('',(1.,0.,0.));
#705=DIRECTION('',(0.,0.,1.));
#706=DIRECTION('',(1.,0.,0.));
#707=DIRECTION('',(0.,0.,1.));
#708=DIRECTION('',(1.,0.,0.));
#709=DIRECTION('',(0.,0.,1.));
#710=DIRECTION('',(1.,0.,0.));
#711=DIRECTION('',(0.,0.,1.));
#712=DIRECTION('',(1.,0.,0.));
#713=DIRECTION('',(0.,0.,1.));
#714=DIRECTION('',(1.,0.,0.));
#715=DIRECTION('',(0.,0.,1.));
#716=DIRECTION('',(1.,0.,0.));
#717=DIRECTION('',(0.,0.,1.));
#718=DIRECTION('',(1.,0.,0.));
#719=DIRECTION('',(0.,0.,1.));
#720=DIRECTION('',(1.,0.,0.));
#721=DIRECTION('',(0.,0.,1.));
#722=DIRECTION('',(1.,0.,0.));
#723=DIRECTION('',(0.,0.,1.));
#724=DIRECTION('',(1.,0.,0.));
#725=DIRECTION('',(0.,0.,1.));
#726=DIRECTION('',(1.,0.,0.));
#727=DIRECTION('',(0.,0.,1.));
#728=DIRECTION('',(1.,0.,0.));
#729=DIRECTION('',(0.,0.,1.));
#730=DIRECTION('',(1.,0.,0.));
#731=DIRECTION('',(0.,0.,1.));
#732=DIRECTION('',(1.,0.,0.));
#733=DIRECTION('',(0.,0.,1.));
#734=DIRECTION('',(1.,0.,0.));
#735=DIRECTION('',(0.,0.,1.));
#736=DIRECTION('',(1.,0.,0.));
#737=DIRECTION('',(0.,0.,1.));
#738=DIRECTION('',(1.,0.,0.));
#739=DIRECTION('',(0.,0.,1.));
#740=DIRECTION('',(1.,0.,0.));
#741=DIRECTION('',(0.,0.,1.));
#742=DIRECTION('',(1.,0.,0.));
#743=DIRECTION('',(0.,0.,1.));
#744=DIRECTION('',(1.,0.,0.));
#745=DIRECTION('',(0.,0.,1.));
#746=DIRECTION('',(1.,0.,0.));
#747=DIRECTION('',(0.,0.,1.));
#748=DIRECTION('',(1.,0.,0.));
#749=DIRECTION('',(0.,-1.,0.));
#750=DIRECTION('',(0.,0.,-1.));
#751=DIRECTION('',(-1.,0.,0.));
#752=DIRECTION('',(0.,0.,1.));
#753=DIRECTION('',(0.,0.,1.));
#754=DIRECTION('',(-1.,0.,0.));
#755=DIRECTION('',(0.,0.,1.));
#756=DIRECTION('',(-1.,0.,0.));
#757=DIRECTION('',(1.,0.,0.));
#758=DIRECTION('',(0.,0.,-1.));
#759=DIRECTION('',(1.,0.,0.));
#760=DIRECTION('',(0.,0.,-1.));
#761=DIRECTION('',(0.,-1.,0.));
#762=DIRECTION('',(0.,0.,-1.));
#763=DIRECTION('',(0.,0.,1.));
#764=DIRECTION('',(0.,0.,1.));
#765=DIRECTION('',(-1.,0.,0.));
#766=DIRECTION('',(0.,0.,1.));
#767=DIRECTION('',(1.,0.,0.));
#768=DIRECTION('',(0.,0.,-1.));
#769=DIRECTION('',(-1.,0.,0.));
#770=DIRECTION('',(0.,0.,1.));
#771=DIRECTION('',(1.,0.,0.));
#772=DIRECTION('',(0.,0.,-1.));
#773=DIRECTION('',(1.,0.,0.));
#774=DIRECTION('',(0.,1.,0.));
#775=DIRECTION('',(0.,0.,1.));
#776=DIRECTION('',(1.,0.,0.));
#777=DIRECTION('',(0.,0.,-1.));
#778=DIRECTION('',(0.,0.,1.));
#779=DIRECTION('',(1.,0.,0.));
#780=DIRECTION('',(0.,1.,0.));
#781=DIRECTION('',(0.,0.,1.));
#782=DIRECTION('',(1.,0.,0.));
#783=DIRECTION('',(0.,0.,-1.));
#784=DIRECTION('',(0.,0.,1.));
#785=DIRECTION('',(0.,0.,1.));
#786=DIRECTION('',(1.,0.,0.));
#787=DIRECTION('',(0.,0.,1.));
#788=DIRECTION('',(1.,0.,0.));
#789=DIRECTION('',(1.,0.,0.));
#790=DIRECTION('',(0.,0.,-1.));
#791=DIRECTION('',(0.,0.,-1.));
#792=DIRECTION('',(-1.,0.,0.));
#793=DIRECTION('',(0.,0.,-1.));
#794=DIRECTION('',(-1.,0.,0.));
#795=DIRECTION('',(0.,0.,-1.));
#796=DIRECTION('',(-1.,0.,0.));
#797=DIRECTION('',(0.,0.,1.));
#798=DIRECTION('',(1.,0.,0.));
#799=DIRECTION('',(1.,0.,0.));
#800=DIRECTION('',(0.,0.,-1.));
#801=DIRECTION('',(0.,0.,-1.));
#802=DIRECTION('',(-1.,0.,0.));
#803=DIRECTION('',(1.,0.,0.));
#804=DIRECTION('',(0.,0.,-1.));
#805=DIRECTION('',(0.,0.,1.));
#806=DIRECTION('',(1.,0.,0.));
#807=DIRECTION('',(0.,0.,1.));
#808=DIRECTION('',(1.,0.,0.));
#809=DIRECTION('',(0.,0.399652626942728,-0.916666666666666));
#810=DIRECTION('',(0.,0.916666666666667,0.399652626942728));
#811=DIRECTION('',(1.,0.,0.));
#812=DIRECTION('',(0.,0.,-1.));
#813=DIRECTION('',(0.,0.399652626942728,0.916666666666666));
#814=DIRECTION('',(0.,-0.916666666666666,0.399652626942728));
#815=DIRECTION('',(-1.,0.,0.));
#816=DIRECTION('',(0.,0.,1.));
#817=DIRECTION('',(0.,0.,-1.));
#818=DIRECTION('',(-1.,0.,0.));
#819=CARTESIAN_POINT('',(0.,0.,0.));
#820=CARTESIAN_POINT('',(0.,0.,0.00635));
#821=CARTESIAN_POINT('',(0.,0.0381,0.00635));
#822=CARTESIAN_POINT('',(0.004953,0.0381,0.00635));
#823=CARTESIAN_POINT('',(0.0329955678841871,0.01905,0.00635));
#824=CARTESIAN_POINT('',(0.0379485678841871,0.01905,0.00635));
#825=CARTESIAN_POINT('',(0.0329955678841871,-0.01905,0.00635));
#826=CARTESIAN_POINT('',(0.0379485678841871,-0.01905,0.00635));
#827=CARTESIAN_POINT('',(-5.20417042793042E-18,-0.0381,0.00635));
#828=CARTESIAN_POINT('',(0.00495299999999999,-0.0381,0.00635));
#829=CARTESIAN_POINT('',(-0.0329955678841872,-0.01905,0.00635));
#830=CARTESIAN_POINT('',(-0.0280425678841872,-0.01905,0.00635));
#831=CARTESIAN_POINT('',(-0.0329955678841871,0.01905,0.00635));
#832=CARTESIAN_POINT('',(-0.0280425678841871,0.01905,0.00635));
#833=CARTESIAN_POINT('',(0.,3.49942822856356E-18,0.00635));
#834=CARTESIAN_POINT('',(0.0508,3.49942822856356E-18,0.00635));
#835=CARTESIAN_POINT('',(0.003175,0.009525,0.00635));
#836=CARTESIAN_POINT('',(0.000635,0.009525,0.00635));
#837=CARTESIAN_POINT('',(-0.000635,0.009525,0.00635));
#838=CARTESIAN_POINT('',(0.000635,0.006985,0.00635));
#839=CARTESIAN_POINT('',(0.003175,0.006985,0.00635));
#840=CARTESIAN_POINT('',(0.003175,-1.7347234759768E-18,0.00635));
#841=CARTESIAN_POINT('',(0.003175,-0.006985,0.00635));
#842=CARTESIAN_POINT('',(0.000635,-0.006985,0.00635));
#843=CARTESIAN_POINT('',(0.000635,-0.009525,0.00635));
#844=CARTESIAN_POINT('',(0.003175,-0.009525,0.00635));
#845=CARTESIAN_POINT('',(-0.000635,-0.009525,0.00635));
#846=CARTESIAN_POINT('',(-0.000635,-0.006985,0.00635));
#847=CARTESIAN_POINT('',(-0.003175,-0.006985,0.00635));
#848=CARTESIAN_POINT('',(-0.003175,-1.7347234759768E-18,0.00635));
#849=CARTESIAN_POINT('',(-0.003175,0.006985,0.00635));
#850=CARTESIAN_POINT('',(-0.000635,0.006985,0.00635));
#851=CARTESIAN_POINT('',(-0.0329955678841871,0.01905,-0.01905));
#852=CARTESIAN_POINT('',(-0.0329955678841871,0.01905,0.));
#853=CARTESIAN_POINT('',(-0.0307476678841871,0.01905,0.));
#854=CARTESIAN_POINT('',(-0.0329955678841871,0.01905,0.005334));
#855=CARTESIAN_POINT('',(-0.0307476678841871,0.01905,0.005334));
#856=CARTESIAN_POINT('',(-0.0329955678841871,-0.01905,-0.01905));
#857=CARTESIAN_POINT('',(-0.0329955678841871,-0.01905,0.));
#858=CARTESIAN_POINT('',(-0.0307476678841871,-0.01905,0.));
#859=CARTESIAN_POINT('',(-0.0329955678841871,-0.01905,0.005334));
#860=CARTESIAN_POINT('',(-0.0307476678841871,-0.01905,0.005334));
#861=CARTESIAN_POINT('',(-4.77048955893622E-18,-0.0381,-0.01905));
#862=CARTESIAN_POINT('',(-4.77048955893622E-18,-0.0381,0.));
#863=CARTESIAN_POINT('',(0.0022479,-0.0381,0.));
#864=CARTESIAN_POINT('',(-4.77048955893622E-18,-0.0381,0.005334));
#865=CARTESIAN_POINT('',(0.0022479,-0.0381,0.005334));
#866=CARTESIAN_POINT('',(0.0329955678841871,-0.01905,-0.01905));
#867=CARTESIAN_POINT('',(0.0329955678841871,-0.01905,0.));
#868=CARTESIAN_POINT('',(0.0352434678841871,-0.01905,0.));
#869=CARTESIAN_POINT('',(0.0329955678841871,-0.01905,0.005334));
#870=CARTESIAN_POINT('',(0.0352434678841871,-0.01905,0.005334));
#871=CARTESIAN_POINT('',(0.0329955678841871,0.01905,-0.01905));
#872=CARTESIAN_POINT('',(0.0329955678841871,0.01905,0.));
#873=CARTESIAN_POINT('',(0.0352434678841871,0.01905,0.));
#874=CARTESIAN_POINT('',(0.0329955678841871,0.01905,0.005334));
#875=CARTESIAN_POINT('',(0.0352434678841871,0.01905,0.005334));
#876=CARTESIAN_POINT('',(4.33680868994202E-19,0.0381,-0.01905));
#877=CARTESIAN_POINT('',(4.33680868994202E-19,0.0381,0.));
#878=CARTESIAN_POINT('',(0.0022479,0.0381,0.));
#879=CARTESIAN_POINT('',(4.33680868994202E-19,0.0381,0.005334));
#880=CARTESIAN_POINT('',(0.0022479,0.0381,0.005334));
#881=CARTESIAN_POINT('',(0.,0.,0.));
#882=CARTESIAN_POINT('',(0.,3.49942822856356E-18,0.));
#883=CARTESIAN_POINT('',(0.05715,3.49942822856356E-18,0.));
#884=CARTESIAN_POINT('',(0.,3.49942822856356E-18,0.));
#885=CARTESIAN_POINT('',(0.,6.93889390390723E-18,0.005334));
#886=CARTESIAN_POINT('',(0.,0.0381,0.005334));
#887=CARTESIAN_POINT('',(0.004953,0.0381,0.005334));
#888=CARTESIAN_POINT('',(0.,0.0381,0.005334));
#889=CARTESIAN_POINT('',(0.,6.93889390390723E-18,0.005334));
#890=CARTESIAN_POINT('',(0.0329955678841871,0.01905,0.005334));
#891=CARTESIAN_POINT('',(0.0379485678841871,0.01905,0.005334));
#892=CARTESIAN_POINT('',(0.0329955678841871,0.01905,0.005334));
#893=CARTESIAN_POINT('',(0.,6.93889390390723E-18,0.005334));
#894=CARTESIAN_POINT('',(0.0329955678841871,-0.01905,0.005334));
#895=CARTESIAN_POINT('',(0.0379485678841871,-0.01905,0.005334));
#896=CARTESIAN_POINT('',(0.0329955678841871,-0.01905,0.005334));
#897=CARTESIAN_POINT('',(0.,6.93889390390723E-18,0.005334));
#898=CARTESIAN_POINT('',(-5.20417042793042E-18,-0.0381,0.005334));
#899=CARTESIAN_POINT('',(0.00495299999999999,-0.0381,0.005334));
#900=CARTESIAN_POINT('',(-5.20417042793042E-18,-0.0381,0.005334));
#901=CARTESIAN_POINT('',(0.,6.93889390390723E-18,0.005334));
#902=CARTESIAN_POINT('',(-0.0329955678841872,-0.01905,0.005334));
#903=CARTESIAN_POINT('',(-0.0280425678841872,-0.01905,0.005334));
#904=CARTESIAN_POINT('',(-0.0329955678841872,-0.01905,0.005334));
#905=CARTESIAN_POINT('',(0.,6.93889390390723E-18,0.005334));
#906=CARTESIAN_POINT('',(-0.0329955678841871,0.01905,0.005334));
#907=CARTESIAN_POINT('',(-0.0280425678841871,0.01905,0.005334));
#908=CARTESIAN_POINT('',(-0.0329955678841871,0.01905,0.005334));
#909=CARTESIAN_POINT('',(0.003175,0.009525,0.0127));
#910=CARTESIAN_POINT('',(0.003175,0.009525,0.01905));
#911=CARTESIAN_POINT('',(0.000635,0.009525,0.01905));
#912=CARTESIAN_POINT('',(-0.000635,0.009525,0.01905));
#913=CARTESIAN_POINT('',(0.000635,0.009525,0.00635));
#914=CARTESIAN_POINT('',(-0.000635,0.009525,0.0127));
#915=CARTESIAN_POINT('',(0.003175,0.,0.01905));
#916=CARTESIAN_POINT('',(0.003175,-0.009525,0.01905));
#917=CARTESIAN_POINT('',(0.000635,-0.009525,0.01905));
#918=CARTESIAN_POINT('',(-0.000635,-0.009525,0.01905));
#919=CARTESIAN_POINT('',(0.000635,0.,0.01905));
#920=CARTESIAN_POINT('',(-0.000635,0.,0.01905));
#921=CARTESIAN_POINT('',(0.003175,-0.009525,0.0127));
#922=CARTESIAN_POINT('',(0.000635,-0.009525,0.0127));
#923=CARTESIAN_POINT('',(-0.000635,-0.009525,0.00635));
#924=CARTESIAN_POINT('',(0.003175,0.,0.01905));
#925=CARTESIAN_POINT('',(-0.00173485226280624,0.00635,0.01905));
#926=CARTESIAN_POINT('',(-0.00173485226280624,0.00635,0.0181724706158788));
#927=CARTESIAN_POINT('',(-0.00190500000000012,0.00617251838788296,0.0173188512528162));
#928=CARTESIAN_POINT('',(-0.00190500000000012,0.00582083333333334,0.0165122058189137));
#929=CARTESIAN_POINT('',(-0.00173485226280624,0.00635,0.01905));
#930=CARTESIAN_POINT('',(-0.001905,0.00582083333333333,0.0165122058189137));
#931=CARTESIAN_POINT('',(-0.001905,0.,0.01905));
#932=CARTESIAN_POINT('',(-0.001905,-0.00582083333333333,0.0165122058189137));
#933=CARTESIAN_POINT('',(-0.001905,-0.00582083333333333,0.0165122058189137));
#934=CARTESIAN_POINT('',(-0.001905,-0.00617174952234003,0.0173170877377863));
#935=CARTESIAN_POINT('',(-0.00173485226280624,-0.00635,0.0181701307661098));
#936=CARTESIAN_POINT('',(-0.00173485226280624,-0.00635,0.01905));
#937=CARTESIAN_POINT('',(-0.00173485226280624,-0.00635,0.01905));
#938=CARTESIAN_POINT('',(-0.00173485226280624,0.,0.01905));
#939=CARTESIAN_POINT('',(0.003175,0.,0.01905));
#940=CARTESIAN_POINT('',(0.003175,0.,0.0127));
#941=CARTESIAN_POINT('',(0.003175,0.,0.0174625));
#942=CARTESIAN_POINT('',(0.003175,0.006985,0.01905));
#943=CARTESIAN_POINT('',(0.003175,0.006985,0.01905));
#944=CARTESIAN_POINT('',(0.003175,0.,0.01905));
#945=CARTESIAN_POINT('',(0.003175,-0.006985,0.01905));
#946=CARTESIAN_POINT('',(0.003175,-0.006985,0.0174625));
#947=CARTESIAN_POINT('',(-0.003175,0.,0.0174625));
#948=CARTESIAN_POINT('',(-0.003175,-0.006985,0.01905));
#949=CARTESIAN_POINT('',(-0.003175,-0.006985,0.0160046469826964));
#950=CARTESIAN_POINT('',(-0.003175,0.,0.01905));
#951=CARTESIAN_POINT('',(-0.003175,0.006985,0.0160046469826964));
#952=CARTESIAN_POINT('',(-0.003175,0.006985,0.0174625));
#953=CARTESIAN_POINT('',(0.000635,-0.006985,0.0127));
#954=CARTESIAN_POINT('',(0.000635,-0.006985,0.01905));
#955=CARTESIAN_POINT('',(0.000635,0.,0.01905));
#956=CARTESIAN_POINT('',(0.000635,0.006985,0.01905));
#957=CARTESIAN_POINT('',(0.000635,0.006985,0.0174625));
#958=CARTESIAN_POINT('',(-0.000635,-0.006985,0.0174625));
#959=CARTESIAN_POINT('',(-0.000635,-0.006985,0.01905));
#960=CARTESIAN_POINT('',(-0.00283470452561247,-0.008255,0.01905));
#961=CARTESIAN_POINT('',(-0.00283470452561247,-0.008255,0.01905));
#962=CARTESIAN_POINT('',(-0.00283470452561247,-0.008255,0.0179081524978021));
#963=CARTESIAN_POINT('',(-0.003175,-0.00773285742607512,0.016862311774176));
#964=CARTESIAN_POINT('',(-0.003175,-0.006985,0.0160046469826964));
#965=CARTESIAN_POINT('',(-0.000635,0.,0.01905));
#966=CARTESIAN_POINT('',(-0.000635,0.006985,0.01905));
#967=CARTESIAN_POINT('',(-0.00283470452561247,0.008255,0.01905));
#968=CARTESIAN_POINT('',(-0.00283470452561248,0.,0.01905));
#969=CARTESIAN_POINT('',(-0.000635,0.006985,0.0127));
#970=CARTESIAN_POINT('',(-0.003175,0.006985,0.0160046469826964));
#971=CARTESIAN_POINT('',(-0.003175,0.0077325876705518,0.0168620024106441));
#972=CARTESIAN_POINT('',(-0.00283470452561256,0.008255,0.0179102329465309));
#973=CARTESIAN_POINT('',(-0.00283470452561256,0.008255,0.01905));
#974=CARTESIAN_POINT('',(-0.00173485226280624,-0.00635,0.01905));
#975=CARTESIAN_POINT('',(-0.00393455678841872,-0.00635,0.01905));
#976=CARTESIAN_POINT('',(-0.00283470452561247,-0.008255,0.01905));
#977=CARTESIAN_POINT('',(-0.00173485226380736,-0.00635,0.0186107234199136));
#978=CARTESIAN_POINT('',(-0.00393455678492828,-0.00634999999916202,0.0186985788151193));
#979=CARTESIAN_POINT('',(-0.00283470452760014,-0.00825499999655726,0.0185228681038971));
#980=CARTESIAN_POINT('',(-0.00180551122030994,-0.00626070872269667,0.0177507625451742));
#981=CARTESIAN_POINT('',(-0.00372286446607017,-0.00632123842814071,0.0180663858678853));
#982=CARTESIAN_POINT('',(-0.00297602241992856,-0.00804070093693305,0.017490915054046));
#983=CARTESIAN_POINT('',(-0.0019049999793014,-0.00599613925931792,0.0169142977557252));
#984=CARTESIAN_POINT('',(-0.0033836793999812,-0.00604690270915188,0.0170307318200645));
#985=CARTESIAN_POINT('',(-0.003175,-0.00740573422088365,0.0164871573071956));
#986=CARTESIAN_POINT('',(-0.001905,-0.00582083333333333,0.0165122058189137));
#987=CARTESIAN_POINT('',(-0.003175,-0.00582083333333333,0.0165122058189137));
#988=CARTESIAN_POINT('',(-0.003175,-0.006985,0.0160046469826965));
#989=CARTESIAN_POINT('',(-0.00173485226280624,-0.00762,0.01905));
#990=CARTESIAN_POINT('',(-0.001905,-0.006985,0.0160046469826964));
#991=CARTESIAN_POINT('',(-0.001905,0.,0.01905));
#992=CARTESIAN_POINT('',(-0.001905,0.006985,0.0160046469826964));
#993=CARTESIAN_POINT('',(-0.00173485226280624,0.,0.01905));
#994=CARTESIAN_POINT('',(-0.00173485226280624,0.00762,0.01905));
#995=CARTESIAN_POINT('',(-0.001905,0.00582083333333333,0.0165122058189137));
#996=CARTESIAN_POINT('',(-0.003175,0.00582083333333333,0.0165122058189137));
#997=CARTESIAN_POINT('',(-0.003175,0.006985,0.0160046469826964));
#998=CARTESIAN_POINT('',(-0.00190499997816791,0.00599670539840531,0.0169155962854861));
#999=CARTESIAN_POINT('',(-0.0033844088752213,0.00604769297369784,0.0170325444207767));
#1000=CARTESIAN_POINT('',(-0.003175,0.00740709295261089,0.0164887155433577));
#1001=CARTESIAN_POINT('',(-0.00180630326712794,0.00625878810152823,0.0177392871268138));
#1002=CARTESIAN_POINT('',(-0.0037195655010394,0.00631912701755468,0.0180545937753799));
#1003=CARTESIAN_POINT('',(-0.0029776065124295,0.00803609144499753,0.017477144551791));
#1004=CARTESIAN_POINT('',(-0.00173485226255158,0.00635000000000002,0.0186166580007005));
#1005=CARTESIAN_POINT('',(-0.00393455678931783,0.00635000000024854,0.0187033264780523));
#1006=CARTESIAN_POINT('',(-0.00283470452509173,0.00825500000090237,0.0185299896008372));
#1007=CARTESIAN_POINT('',(-0.00173485226280647,0.00635,0.0190500000000003));
#1008=CARTESIAN_POINT('',(-0.00393455678841871,0.00635,0.0190500000000003));
#1009=CARTESIAN_POINT('',(-0.00283470452561277,0.0082549999999999,0.0190500000000004));
#1010=MECHANICAL_DESIGN_GEOMETRIC_PRESENTATION_REPRESENTATION('',(#548),
#1011);
#1011=(
GEOMETRIC_REPRESENTATION_CONTEXT(3)
GLOBAL_UNCERTAINTY_ASSIGNED_CONTEXT((#1012))
GLOBAL_UNIT_ASSIGNED_CONTEXT((#1015,#1014,#1013))
REPRESENTATION_CONTEXT('Part 1','TOP_LEVEL_ASSEMBLY_PART')
);
#1012=UNCERTAINTY_MEASURE_WITH_UNIT(LENGTH_MEASURE(2.E-5),#1015,
'DISTANCE_ACCURACY_VALUE','Maximum Tolerance applied to model');
#1013=(
NAMED_UNIT(*)
SI_UNIT($,.STERADIAN.)
SOLID_ANGLE_UNIT()
);
#1014=(
NAMED_UNIT(*)
PLANE_ANGLE_UNIT()
SI_UNIT($,.RADIAN.)
);
#1015=(
LENGTH_UNIT()
NAMED_UNIT(*)
SI_UNIT($,.METRE.)
);
#1016=PRODUCT_DEFINITION_SHAPE('','',#1017);
#1017=PRODUCT_DEFINITION('','',#1019,#1018);
#1018=PRODUCT_DEFINITION_CONTEXT('',#1025,'design');
#1019=PRODUCT_DEFINITION_FORMATION_WITH_SPECIFIED_SOURCE('','',#1021,
 .NOT_KNOWN.);
#1020=PRODUCT_RELATED_PRODUCT_CATEGORY('','',(#1021));
#1021=PRODUCT('Part 1','Part 1','Part 1',(#1023));
#1022=PRODUCT_CATEGORY('','');
#1023=PRODUCT_CONTEXT('',#1025,'mechanical');
#1024=APPLICATION_PROTOCOL_DEFINITION('international standard',
'ap242_managed_model_based_3d_engineering',2020,#1025);
#1025=APPLICATION_CONTEXT('managed model based 3d engineering');
ENDSEC;
END-ISO-10303-21;
