ISO-10303-21;
HEADER;
/* Generated by software containing ST-Developer
 * from STEP Tools, Inc. (www.steptools.com) 
 */
/* OPTION: using custom renumber hook */

FILE_DESCRIPTION(
/* description */ ('STEP AP242 Edition 2',
'CAx-IF Rec.Pracs.---Representation and Presentation of Product Manufa
cturing Information (PMI)---4.0---2014-10-13',
'CAx-IF Rec.Pracs.---3D Tessellated Geometry---0.4---2014-09-14','2;1',
'CAx-IF Rec.Pracs.---User Defined Attributes---1.5---2016-08-15'),
/* implementation_level */ '2;1');

FILE_NAME(
/* name */ 'Body Upper - Part 1',
/* time_stamp */ '2026-08-16T04:22:43Z',
/* author */ (''),
/* organization */ (''),
/* preprocessor_version */ 'ST-DEVELOPER v20',
/* originating_system */ 'ONSHAPE BY PTC INC, 1.219',
/* authorisation */ '  ');

FILE_SCHEMA (('AP242_MANAGED_MODEL_BASED_3D_ENGINEERING_MIM_LF { 1 0 10303 442 3 1 4 }'));
ENDSEC;

DATA;
#10=SHAPE_REPRESENTATION_RELATIONSHIP('','',#854,#11);
#11=ADVANCED_BREP_SHAPE_REPRESENTATION('',(#852),#1629);
#12=TOROIDAL_SURFACE('',#965,0.03937,0.00508);
#13=TOROIDAL_SURFACE('',#966,0.03937,0.00508);
#14=TOROIDAL_SURFACE('',#967,0.03937,0.00508);
#15=TOROIDAL_SURFACE('',#968,0.03937,0.00508);
#16=TOROIDAL_SURFACE('',#969,0.03937,0.00508);
#17=TOROIDAL_SURFACE('',#970,0.03937,0.00508);
#18=LINE('',#1386,#42);
#19=LINE('',#1387,#43);
#20=LINE('',#1391,#44);
#21=LINE('',#1392,#45);
#22=LINE('',#1396,#46);
#23=LINE('',#1397,#47);
#24=LINE('',#1401,#48);
#25=LINE('',#1402,#49);
#26=LINE('',#1406,#50);
#27=LINE('',#1407,#51);
#28=LINE('',#1411,#52);
#29=LINE('',#1412,#53);
#30=LINE('',#1440,#54);
#31=LINE('',#1441,#55);
#32=LINE('',#1453,#56);
#33=LINE('',#1454,#57);
#34=LINE('',#1466,#58);
#35=LINE('',#1467,#59);
#36=LINE('',#1479,#60);
#37=LINE('',#1480,#61);
#38=LINE('',#1492,#62);
#39=LINE('',#1493,#63);
#40=LINE('',#1505,#64);
#41=LINE('',#1506,#65);
#42=VECTOR('',#1073,1.);
#43=VECTOR('',#1074,1.);
#44=VECTOR('',#1077,1.);
#45=VECTOR('',#1078,1.);
#46=VECTOR('',#1081,1.);
#47=VECTOR('',#1082,1.);
#48=VECTOR('',#1085,1.);
#49=VECTOR('',#1086,1.);
#50=VECTOR('',#1089,1.);
#51=VECTOR('',#1090,1.);
#52=VECTOR('',#1093,1.);
#53=VECTOR('',#1094,1.);
#54=VECTOR('',#1127,1.);
#55=VECTOR('',#1128,1.);
#56=VECTOR('',#1143,1.);
#57=VECTOR('',#1144,1.);
#58=VECTOR('',#1159,1.);
#59=VECTOR('',#1160,1.);
#60=VECTOR('',#1175,1.);
#61=VECTOR('',#1176,1.);
#62=VECTOR('',#1191,1.);
#63=VECTOR('',#1192,1.);
#64=VECTOR('',#1207,1.);
#65=VECTOR('',#1208,1.);
#66=PLANE('',#871);
#67=PLANE('',#909);
#68=PLANE('',#911);
#69=PLANE('',#913);
#70=PLANE('',#921);
#71=PLANE('',#928);
#72=PLANE('',#935);
#73=PLANE('',#942);
#74=PLANE('',#949);
#75=PLANE('',#960);
#76=PLANE('',#964);
#77=B_SPLINE_CURVE_WITH_KNOTS('',3,(#1270,#1271,#1272,#1273,#1274,#1275,
#1276),.UNSPECIFIED.,.F.,.F.,(4,1,1,1,4),(0.,0.00157714420697106,0.00315428841394213,
0.00473143262091319,0.00630857682788426),.UNSPECIFIED.);
#78=B_SPLINE_CURVE_WITH_KNOTS('',3,(#1283,#1284,#1285,#1286,#1287,#1288,
#1289),.UNSPECIFIED.,.F.,.F.,(4,1,1,1,4),(0.,0.00157714420697107,0.00315428841394213,
0.0047314326209132,0.00630857682788427),.UNSPECIFIED.);
#79=B_SPLINE_CURVE_WITH_KNOTS('',3,(#1296,#1297,#1298,#1299,#1300,#1301,
#1302),.UNSPECIFIED.,.F.,.F.,(4,1,1,1,4),(0.,0.00157714420697105,0.0031542884139421,
0.00473143262091315,0.00630857682788421),.UNSPECIFIED.);
#80=B_SPLINE_CURVE_WITH_KNOTS('',3,(#1309,#1310,#1311,#1312,#1313,#1314,
#1315),.UNSPECIFIED.,.F.,.F.,(4,1,1,1,4),(0.,0.00157714420697106,0.00315428841394213,
0.00473143262091319,0.00630857682788425),.UNSPECIFIED.);
#81=B_SPLINE_CURVE_WITH_KNOTS('',3,(#1322,#1323,#1324,#1325,#1326,#1327,
#1328),.UNSPECIFIED.,.F.,.F.,(4,1,1,1,4),(0.,0.00157714420697104,0.00315428841394207,
0.00473143262091311,0.00630857682788414),.UNSPECIFIED.);
#82=B_SPLINE_CURVE_WITH_KNOTS('',3,(#1515,#1516,#1517,#1518,#1519,#1520,
#1521),.UNSPECIFIED.,.F.,.F.,(4,1,1,1,4),(0.,0.00157714420697105,0.0031542884139421,
0.00473143262091315,0.00630857682788421),.UNSPECIFIED.);
#83=B_SPLINE_CURVE_WITH_KNOTS('',3,(#1527,#1528,#1529,#1530,#1531,#1532,
#1533),.UNSPECIFIED.,.F.,.F.,(4,1,1,1,4),(0.,0.00248223490226363,0.00496446980452727,
0.0074467047067909,0.00992893960905454),.UNSPECIFIED.);
#84=B_SPLINE_CURVE_WITH_KNOTS('',3,(#1534,#1535,#1536,#1537,#1538,#1539,
#1540),.UNSPECIFIED.,.F.,.F.,(4,1,1,1,4),(0.,0.00248223490226364,0.00496446980452728,
0.00744670470679091,0.00992893960905455),.UNSPECIFIED.);
#85=B_SPLINE_CURVE_WITH_KNOTS('',3,(#1542,#1543,#1544,#1545,#1546,#1547,
#1548),.UNSPECIFIED.,.F.,.F.,(4,1,1,1,4),(0.,0.00248223490226364,0.00496446980452727,
0.00744670470679091,0.00992893960905455),.UNSPECIFIED.);
#86=B_SPLINE_CURVE_WITH_KNOTS('',3,(#1549,#1550,#1551,#1552,#1553,#1554,
#1555),.UNSPECIFIED.,.F.,.F.,(4,1,1,1,4),(0.,0.00248223490226364,0.00496446980452727,
0.00744670470679091,0.00992893960905454),.UNSPECIFIED.);
#87=B_SPLINE_CURVE_WITH_KNOTS('',3,(#1557,#1558,#1559,#1560,#1561,#1562,
#1563),.UNSPECIFIED.,.F.,.F.,(4,1,1,1,4),(0.,0.00248223490226365,0.0049644698045273,
0.00744670470679095,0.0099289396090546),.UNSPECIFIED.);
#88=B_SPLINE_CURVE_WITH_KNOTS('',3,(#1564,#1565,#1566,#1567,#1568,#1569,
#1570),.UNSPECIFIED.,.F.,.F.,(4,1,1,1,4),(0.,0.00248223490226363,0.00496446980452726,
0.00744670470679089,0.00992893960905452),.UNSPECIFIED.);
#89=B_SPLINE_CURVE_WITH_KNOTS('',3,(#1572,#1573,#1574,#1575,#1576,#1577,
#1578),.UNSPECIFIED.,.F.,.F.,(4,1,1,1,4),(0.,0.00248223490226363,0.00496446980452727,
0.0074467047067909,0.00992893960905453),.UNSPECIFIED.);
#90=B_SPLINE_CURVE_WITH_KNOTS('',3,(#1579,#1580,#1581,#1582,#1583,#1584,
#1585),.UNSPECIFIED.,.F.,.F.,(4,1,1,1,4),(0.,0.00248223490226364,0.00496446980452728,
0.00744670470679092,0.00992893960905457),.UNSPECIFIED.);
#91=B_SPLINE_CURVE_WITH_KNOTS('',3,(#1587,#1588,#1589,#1590,#1591,#1592,
#1593),.UNSPECIFIED.,.F.,.F.,(4,1,1,1,4),(0.,0.00248223490226364,0.00496446980452727,
0.00744670470679091,0.00992893960905455),.UNSPECIFIED.);
#92=B_SPLINE_CURVE_WITH_KNOTS('',3,(#1594,#1595,#1596,#1597,#1598,#1599,
#1600),.UNSPECIFIED.,.F.,.F.,(4,1,1,1,4),(0.,0.00248223490226364,0.00496446980452727,
0.00744670470679091,0.00992893960905454),.UNSPECIFIED.);
#93=B_SPLINE_CURVE_WITH_KNOTS('',3,(#1602,#1603,#1604,#1605,#1606,#1607,
#1608),.UNSPECIFIED.,.F.,.F.,(4,1,1,1,4),(0.,0.00248223490226364,0.00496446980452728,
0.00744670470679092,0.00992893960905455),.UNSPECIFIED.);
#94=B_SPLINE_CURVE_WITH_KNOTS('',3,(#1609,#1610,#1611,#1612,#1613,#1614,
#1615),.UNSPECIFIED.,.F.,.F.,(4,1,1,1,4),(6.7207942779821E-17,0.00248223490226369,
0.00496446980452731,0.00744670470679093,0.00992893960905456),
 .UNSPECIFIED.);
#95=ORIENTED_EDGE('',*,*,#341,.T.);
#96=ORIENTED_EDGE('',*,*,#342,.T.);
#97=ORIENTED_EDGE('',*,*,#343,.T.);
#98=ORIENTED_EDGE('',*,*,#344,.T.);
#99=ORIENTED_EDGE('',*,*,#345,.T.);
#100=ORIENTED_EDGE('',*,*,#346,.T.);
#101=ORIENTED_EDGE('',*,*,#347,.T.);
#102=ORIENTED_EDGE('',*,*,#348,.T.);
#103=ORIENTED_EDGE('',*,*,#349,.T.);
#104=ORIENTED_EDGE('',*,*,#350,.T.);
#105=ORIENTED_EDGE('',*,*,#351,.T.);
#106=ORIENTED_EDGE('',*,*,#352,.T.);
#107=ORIENTED_EDGE('',*,*,#353,.T.);
#108=ORIENTED_EDGE('',*,*,#354,.T.);
#109=ORIENTED_EDGE('',*,*,#355,.T.);
#110=ORIENTED_EDGE('',*,*,#341,.F.);
#111=ORIENTED_EDGE('',*,*,#344,.F.);
#112=ORIENTED_EDGE('',*,*,#347,.F.);
#113=ORIENTED_EDGE('',*,*,#350,.F.);
#114=ORIENTED_EDGE('',*,*,#353,.F.);
#115=ORIENTED_EDGE('',*,*,#356,.F.);
#116=ORIENTED_EDGE('',*,*,#357,.F.);
#117=ORIENTED_EDGE('',*,*,#358,.T.);
#118=ORIENTED_EDGE('',*,*,#359,.T.);
#119=ORIENTED_EDGE('',*,*,#360,.T.);
#120=ORIENTED_EDGE('',*,*,#361,.F.);
#121=ORIENTED_EDGE('',*,*,#362,.T.);
#122=ORIENTED_EDGE('',*,*,#363,.T.);
#123=ORIENTED_EDGE('',*,*,#364,.T.);
#124=ORIENTED_EDGE('',*,*,#365,.F.);
#125=ORIENTED_EDGE('',*,*,#366,.T.);
#126=ORIENTED_EDGE('',*,*,#367,.T.);
#127=ORIENTED_EDGE('',*,*,#368,.T.);
#128=ORIENTED_EDGE('',*,*,#369,.F.);
#129=ORIENTED_EDGE('',*,*,#370,.T.);
#130=ORIENTED_EDGE('',*,*,#371,.T.);
#131=ORIENTED_EDGE('',*,*,#372,.T.);
#132=ORIENTED_EDGE('',*,*,#373,.F.);
#133=ORIENTED_EDGE('',*,*,#374,.T.);
#134=ORIENTED_EDGE('',*,*,#375,.T.);
#135=ORIENTED_EDGE('',*,*,#376,.T.);
#136=ORIENTED_EDGE('',*,*,#377,.F.);
#137=ORIENTED_EDGE('',*,*,#378,.T.);
#138=ORIENTED_EDGE('',*,*,#379,.T.);
#139=ORIENTED_EDGE('',*,*,#380,.T.);
#140=ORIENTED_EDGE('',*,*,#381,.T.);
#141=ORIENTED_EDGE('',*,*,#382,.T.);
#142=ORIENTED_EDGE('',*,*,#383,.T.);
#143=ORIENTED_EDGE('',*,*,#365,.T.);
#144=ORIENTED_EDGE('',*,*,#384,.T.);
#145=ORIENTED_EDGE('',*,*,#385,.T.);
#146=ORIENTED_EDGE('',*,*,#386,.T.);
#147=ORIENTED_EDGE('',*,*,#361,.T.);
#148=ORIENTED_EDGE('',*,*,#387,.T.);
#149=ORIENTED_EDGE('',*,*,#388,.T.);
#150=ORIENTED_EDGE('',*,*,#389,.T.);
#151=ORIENTED_EDGE('',*,*,#357,.T.);
#152=ORIENTED_EDGE('',*,*,#390,.T.);
#153=ORIENTED_EDGE('',*,*,#391,.T.);
#154=ORIENTED_EDGE('',*,*,#392,.T.);
#155=ORIENTED_EDGE('',*,*,#377,.T.);
#156=ORIENTED_EDGE('',*,*,#393,.T.);
#157=ORIENTED_EDGE('',*,*,#394,.T.);
#158=ORIENTED_EDGE('',*,*,#395,.T.);
#159=ORIENTED_EDGE('',*,*,#373,.T.);
#160=ORIENTED_EDGE('',*,*,#396,.T.);
#161=ORIENTED_EDGE('',*,*,#397,.T.);
#162=ORIENTED_EDGE('',*,*,#398,.T.);
#163=ORIENTED_EDGE('',*,*,#369,.T.);
#164=ORIENTED_EDGE('',*,*,#399,.T.);
#165=ORIENTED_EDGE('',*,*,#400,.F.);
#166=ORIENTED_EDGE('',*,*,#401,.F.);
#167=ORIENTED_EDGE('',*,*,#402,.T.);
#168=ORIENTED_EDGE('',*,*,#403,.F.);
#169=ORIENTED_EDGE('',*,*,#401,.T.);
#170=ORIENTED_EDGE('',*,*,#404,.F.);
#171=ORIENTED_EDGE('',*,*,#402,.F.);
#172=ORIENTED_EDGE('',*,*,#405,.F.);
#173=ORIENTED_EDGE('',*,*,#406,.T.);
#174=ORIENTED_EDGE('',*,*,#407,.T.);
#175=ORIENTED_EDGE('',*,*,#408,.F.);
#176=ORIENTED_EDGE('',*,*,#409,.T.);
#177=ORIENTED_EDGE('',*,*,#410,.T.);
#178=ORIENTED_EDGE('',*,*,#363,.F.);
#179=ORIENTED_EDGE('',*,*,#411,.T.);
#180=ORIENTED_EDGE('',*,*,#405,.T.);
#181=ORIENTED_EDGE('',*,*,#412,.T.);
#182=ORIENTED_EDGE('',*,*,#413,.F.);
#183=ORIENTED_EDGE('',*,*,#414,.T.);
#184=ORIENTED_EDGE('',*,*,#415,.T.);
#185=ORIENTED_EDGE('',*,*,#354,.F.);
#186=ORIENTED_EDGE('',*,*,#416,.T.);
#187=ORIENTED_EDGE('',*,*,#417,.T.);
#188=ORIENTED_EDGE('',*,*,#367,.F.);
#189=ORIENTED_EDGE('',*,*,#418,.T.);
#190=ORIENTED_EDGE('',*,*,#413,.T.);
#191=ORIENTED_EDGE('',*,*,#419,.T.);
#192=ORIENTED_EDGE('',*,*,#420,.F.);
#193=ORIENTED_EDGE('',*,*,#421,.T.);
#194=ORIENTED_EDGE('',*,*,#422,.T.);
#195=ORIENTED_EDGE('',*,*,#351,.F.);
#196=ORIENTED_EDGE('',*,*,#423,.T.);
#197=ORIENTED_EDGE('',*,*,#424,.T.);
#198=ORIENTED_EDGE('',*,*,#371,.F.);
#199=ORIENTED_EDGE('',*,*,#425,.T.);
#200=ORIENTED_EDGE('',*,*,#420,.T.);
#201=ORIENTED_EDGE('',*,*,#426,.T.);
#202=ORIENTED_EDGE('',*,*,#427,.F.);
#203=ORIENTED_EDGE('',*,*,#428,.T.);
#204=ORIENTED_EDGE('',*,*,#429,.T.);
#205=ORIENTED_EDGE('',*,*,#348,.F.);
#206=ORIENTED_EDGE('',*,*,#430,.T.);
#207=ORIENTED_EDGE('',*,*,#431,.T.);
#208=ORIENTED_EDGE('',*,*,#375,.F.);
#209=ORIENTED_EDGE('',*,*,#432,.T.);
#210=ORIENTED_EDGE('',*,*,#427,.T.);
#211=ORIENTED_EDGE('',*,*,#433,.T.);
#212=ORIENTED_EDGE('',*,*,#434,.F.);
#213=ORIENTED_EDGE('',*,*,#435,.T.);
#214=ORIENTED_EDGE('',*,*,#436,.T.);
#215=ORIENTED_EDGE('',*,*,#345,.F.);
#216=ORIENTED_EDGE('',*,*,#437,.T.);
#217=ORIENTED_EDGE('',*,*,#438,.T.);
#218=ORIENTED_EDGE('',*,*,#379,.F.);
#219=ORIENTED_EDGE('',*,*,#439,.T.);
#220=ORIENTED_EDGE('',*,*,#434,.T.);
#221=ORIENTED_EDGE('',*,*,#440,.T.);
#222=ORIENTED_EDGE('',*,*,#441,.F.);
#223=ORIENTED_EDGE('',*,*,#442,.T.);
#224=ORIENTED_EDGE('',*,*,#443,.T.);
#225=ORIENTED_EDGE('',*,*,#342,.F.);
#226=ORIENTED_EDGE('',*,*,#444,.T.);
#227=ORIENTED_EDGE('',*,*,#445,.T.);
#228=ORIENTED_EDGE('',*,*,#359,.F.);
#229=ORIENTED_EDGE('',*,*,#446,.T.);
#230=ORIENTED_EDGE('',*,*,#441,.T.);
#231=ORIENTED_EDGE('',*,*,#447,.T.);
#232=ORIENTED_EDGE('',*,*,#448,.T.);
#233=ORIENTED_EDGE('',*,*,#381,.F.);
#234=ORIENTED_EDGE('',*,*,#449,.F.);
#235=ORIENTED_EDGE('',*,*,#403,.T.);
#236=ORIENTED_EDGE('',*,*,#448,.F.);
#237=ORIENTED_EDGE('',*,*,#449,.T.);
#238=ORIENTED_EDGE('',*,*,#356,.T.);
#239=ORIENTED_EDGE('',*,*,#408,.T.);
#240=ORIENTED_EDGE('',*,*,#450,.T.);
#241=ORIENTED_EDGE('',*,*,#451,.F.);
#242=ORIENTED_EDGE('',*,*,#404,.T.);
#243=ORIENTED_EDGE('',*,*,#400,.T.);
#244=ORIENTED_EDGE('',*,*,#451,.T.);
#245=ORIENTED_EDGE('',*,*,#346,.F.);
#246=ORIENTED_EDGE('',*,*,#436,.F.);
#247=ORIENTED_EDGE('',*,*,#452,.T.);
#248=ORIENTED_EDGE('',*,*,#391,.F.);
#249=ORIENTED_EDGE('',*,*,#453,.T.);
#250=ORIENTED_EDGE('',*,*,#437,.F.);
#251=ORIENTED_EDGE('',*,*,#349,.F.);
#252=ORIENTED_EDGE('',*,*,#429,.F.);
#253=ORIENTED_EDGE('',*,*,#454,.T.);
#254=ORIENTED_EDGE('',*,*,#394,.F.);
#255=ORIENTED_EDGE('',*,*,#455,.T.);
#256=ORIENTED_EDGE('',*,*,#430,.F.);
#257=ORIENTED_EDGE('',*,*,#352,.F.);
#258=ORIENTED_EDGE('',*,*,#422,.F.);
#259=ORIENTED_EDGE('',*,*,#456,.T.);
#260=ORIENTED_EDGE('',*,*,#397,.F.);
#261=ORIENTED_EDGE('',*,*,#457,.T.);
#262=ORIENTED_EDGE('',*,*,#423,.F.);
#263=ORIENTED_EDGE('',*,*,#355,.F.);
#264=ORIENTED_EDGE('',*,*,#415,.F.);
#265=ORIENTED_EDGE('',*,*,#458,.T.);
#266=ORIENTED_EDGE('',*,*,#382,.F.);
#267=ORIENTED_EDGE('',*,*,#459,.T.);
#268=ORIENTED_EDGE('',*,*,#416,.F.);
#269=ORIENTED_EDGE('',*,*,#450,.F.);
#270=ORIENTED_EDGE('',*,*,#407,.F.);
#271=ORIENTED_EDGE('',*,*,#460,.T.);
#272=ORIENTED_EDGE('',*,*,#385,.F.);
#273=ORIENTED_EDGE('',*,*,#461,.T.);
#274=ORIENTED_EDGE('',*,*,#409,.F.);
#275=ORIENTED_EDGE('',*,*,#343,.F.);
#276=ORIENTED_EDGE('',*,*,#443,.F.);
#277=ORIENTED_EDGE('',*,*,#462,.T.);
#278=ORIENTED_EDGE('',*,*,#388,.F.);
#279=ORIENTED_EDGE('',*,*,#463,.T.);
#280=ORIENTED_EDGE('',*,*,#444,.F.);
#281=ORIENTED_EDGE('',*,*,#366,.F.);
#282=ORIENTED_EDGE('',*,*,#383,.F.);
#283=ORIENTED_EDGE('',*,*,#458,.F.);
#284=ORIENTED_EDGE('',*,*,#414,.F.);
#285=ORIENTED_EDGE('',*,*,#418,.F.);
#286=ORIENTED_EDGE('',*,*,#368,.F.);
#287=ORIENTED_EDGE('',*,*,#419,.F.);
#288=ORIENTED_EDGE('',*,*,#417,.F.);
#289=ORIENTED_EDGE('',*,*,#459,.F.);
#290=ORIENTED_EDGE('',*,*,#399,.F.);
#291=ORIENTED_EDGE('',*,*,#370,.F.);
#292=ORIENTED_EDGE('',*,*,#398,.F.);
#293=ORIENTED_EDGE('',*,*,#456,.F.);
#294=ORIENTED_EDGE('',*,*,#421,.F.);
#295=ORIENTED_EDGE('',*,*,#425,.F.);
#296=ORIENTED_EDGE('',*,*,#372,.F.);
#297=ORIENTED_EDGE('',*,*,#426,.F.);
#298=ORIENTED_EDGE('',*,*,#424,.F.);
#299=ORIENTED_EDGE('',*,*,#457,.F.);
#300=ORIENTED_EDGE('',*,*,#396,.F.);
#301=ORIENTED_EDGE('',*,*,#374,.F.);
#302=ORIENTED_EDGE('',*,*,#395,.F.);
#303=ORIENTED_EDGE('',*,*,#454,.F.);
#304=ORIENTED_EDGE('',*,*,#428,.F.);
#305=ORIENTED_EDGE('',*,*,#432,.F.);
#306=ORIENTED_EDGE('',*,*,#376,.F.);
#307=ORIENTED_EDGE('',*,*,#433,.F.);
#308=ORIENTED_EDGE('',*,*,#431,.F.);
#309=ORIENTED_EDGE('',*,*,#455,.F.);
#310=ORIENTED_EDGE('',*,*,#393,.F.);
#311=ORIENTED_EDGE('',*,*,#378,.F.);
#312=ORIENTED_EDGE('',*,*,#392,.F.);
#313=ORIENTED_EDGE('',*,*,#452,.F.);
#314=ORIENTED_EDGE('',*,*,#435,.F.);
#315=ORIENTED_EDGE('',*,*,#439,.F.);
#316=ORIENTED_EDGE('',*,*,#380,.F.);
#317=ORIENTED_EDGE('',*,*,#440,.F.);
#318=ORIENTED_EDGE('',*,*,#438,.F.);
#319=ORIENTED_EDGE('',*,*,#453,.F.);
#320=ORIENTED_EDGE('',*,*,#390,.F.);
#321=ORIENTED_EDGE('',*,*,#358,.F.);
#322=ORIENTED_EDGE('',*,*,#389,.F.);
#323=ORIENTED_EDGE('',*,*,#462,.F.);
#324=ORIENTED_EDGE('',*,*,#442,.F.);
#325=ORIENTED_EDGE('',*,*,#446,.F.);
#326=ORIENTED_EDGE('',*,*,#360,.F.);
#327=ORIENTED_EDGE('',*,*,#447,.F.);
#328=ORIENTED_EDGE('',*,*,#445,.F.);
#329=ORIENTED_EDGE('',*,*,#463,.F.);
#330=ORIENTED_EDGE('',*,*,#387,.F.);
#331=ORIENTED_EDGE('',*,*,#362,.F.);
#332=ORIENTED_EDGE('',*,*,#386,.F.);
#333=ORIENTED_EDGE('',*,*,#460,.F.);
#334=ORIENTED_EDGE('',*,*,#406,.F.);
#335=ORIENTED_EDGE('',*,*,#411,.F.);
#336=ORIENTED_EDGE('',*,*,#364,.F.);
#337=ORIENTED_EDGE('',*,*,#412,.F.);
#338=ORIENTED_EDGE('',*,*,#410,.F.);
#339=ORIENTED_EDGE('',*,*,#461,.F.);
#340=ORIENTED_EDGE('',*,*,#384,.F.);
#341=EDGE_CURVE('',#464,#464,#551,.T.);
#342=EDGE_CURVE('',#465,#466,#552,.T.);
#343=EDGE_CURVE('',#466,#465,#77,.T.);
#344=EDGE_CURVE('',#467,#467,#553,.T.);
#345=EDGE_CURVE('',#468,#469,#554,.T.);
#346=EDGE_CURVE('',#469,#468,#78,.T.);
#347=EDGE_CURVE('',#470,#470,#555,.T.);
#348=EDGE_CURVE('',#471,#472,#556,.T.);
#349=EDGE_CURVE('',#472,#471,#79,.T.);
#350=EDGE_CURVE('',#473,#473,#557,.T.);
#351=EDGE_CURVE('',#474,#475,#558,.T.);
#352=EDGE_CURVE('',#475,#474,#80,.T.);
#353=EDGE_CURVE('',#476,#476,#559,.T.);
#354=EDGE_CURVE('',#477,#478,#560,.T.);
#355=EDGE_CURVE('',#478,#477,#81,.T.);
#356=EDGE_CURVE('',#479,#479,#561,.T.);
#357=EDGE_CURVE('',#480,#481,#562,.T.);
#358=EDGE_CURVE('',#480,#482,#563,.F.);
#359=EDGE_CURVE('',#482,#483,#564,.T.);
#360=EDGE_CURVE('',#483,#484,#565,.F.);
#361=EDGE_CURVE('',#485,#484,#566,.T.);
#362=EDGE_CURVE('',#485,#486,#567,.F.);
#363=EDGE_CURVE('',#486,#487,#568,.T.);
#364=EDGE_CURVE('',#487,#488,#569,.F.);
#365=EDGE_CURVE('',#489,#488,#570,.T.);
#366=EDGE_CURVE('',#489,#490,#571,.F.);
#367=EDGE_CURVE('',#490,#491,#572,.T.);
#368=EDGE_CURVE('',#491,#492,#573,.F.);
#369=EDGE_CURVE('',#493,#492,#574,.T.);
#370=EDGE_CURVE('',#493,#494,#575,.F.);
#371=EDGE_CURVE('',#494,#495,#576,.T.);
#372=EDGE_CURVE('',#495,#496,#577,.F.);
#373=EDGE_CURVE('',#497,#496,#578,.T.);
#374=EDGE_CURVE('',#497,#498,#579,.F.);
#375=EDGE_CURVE('',#498,#499,#580,.T.);
#376=EDGE_CURVE('',#499,#500,#581,.F.);
#377=EDGE_CURVE('',#501,#500,#582,.T.);
#378=EDGE_CURVE('',#501,#502,#583,.F.);
#379=EDGE_CURVE('',#502,#503,#584,.T.);
#380=EDGE_CURVE('',#503,#481,#585,.F.);
#381=EDGE_CURVE('',#504,#504,#586,.T.);
#382=EDGE_CURVE('',#505,#506,#587,.T.);
#383=EDGE_CURVE('',#506,#489,#18,.F.);
#384=EDGE_CURVE('',#488,#507,#19,.T.);
#385=EDGE_CURVE('',#507,#508,#588,.T.);
#386=EDGE_CURVE('',#508,#485,#20,.F.);
#387=EDGE_CURVE('',#484,#509,#21,.T.);
#388=EDGE_CURVE('',#509,#510,#589,.T.);
#389=EDGE_CURVE('',#510,#480,#22,.F.);
#390=EDGE_CURVE('',#481,#511,#23,.T.);
#391=EDGE_CURVE('',#511,#512,#590,.T.);
#392=EDGE_CURVE('',#512,#501,#24,.F.);
#393=EDGE_CURVE('',#500,#513,#25,.T.);
#394=EDGE_CURVE('',#513,#514,#591,.T.);
#395=EDGE_CURVE('',#514,#497,#26,.F.);
#396=EDGE_CURVE('',#496,#515,#27,.T.);
#397=EDGE_CURVE('',#515,#516,#592,.T.);
#398=EDGE_CURVE('',#516,#493,#28,.F.);
#399=EDGE_CURVE('',#492,#505,#29,.T.);
#400=EDGE_CURVE('',#517,#517,#593,.T.);
#401=EDGE_CURVE('',#518,#518,#594,.T.);
#402=EDGE_CURVE('',#519,#519,#595,.T.);
#403=EDGE_CURVE('',#520,#520,#596,.T.);
#404=EDGE_CURVE('',#521,#521,#597,.F.);
#405=EDGE_CURVE('',#522,#523,#598,.T.);
#406=EDGE_CURVE('',#522,#524,#599,.T.);
#407=EDGE_CURVE('',#524,#525,#600,.F.);
#408=EDGE_CURVE('',#526,#525,#601,.T.);
#409=EDGE_CURVE('',#526,#527,#602,.F.);
#410=EDGE_CURVE('',#527,#523,#603,.T.);
#411=EDGE_CURVE('',#486,#522,#30,.F.);
#412=EDGE_CURVE('',#523,#487,#31,.T.);
#413=EDGE_CURVE('',#528,#529,#604,.T.);
#414=EDGE_CURVE('',#528,#530,#605,.T.);
#415=EDGE_CURVE('',#530,#478,#606,.F.);
#416=EDGE_CURVE('',#477,#531,#607,.F.);
#417=EDGE_CURVE('',#531,#529,#608,.T.);
#418=EDGE_CURVE('',#490,#528,#32,.F.);
#419=EDGE_CURVE('',#529,#491,#33,.T.);
#420=EDGE_CURVE('',#532,#533,#609,.T.);
#421=EDGE_CURVE('',#532,#534,#610,.T.);
#422=EDGE_CURVE('',#534,#475,#611,.F.);
#423=EDGE_CURVE('',#474,#535,#612,.F.);
#424=EDGE_CURVE('',#535,#533,#613,.T.);
#425=EDGE_CURVE('',#494,#532,#34,.F.);
#426=EDGE_CURVE('',#533,#495,#35,.T.);
#427=EDGE_CURVE('',#536,#537,#614,.T.);
#428=EDGE_CURVE('',#536,#538,#615,.T.);
#429=EDGE_CURVE('',#538,#472,#616,.F.);
#430=EDGE_CURVE('',#471,#539,#617,.F.);
#431=EDGE_CURVE('',#539,#537,#618,.T.);
#432=EDGE_CURVE('',#498,#536,#36,.F.);
#433=EDGE_CURVE('',#537,#499,#37,.T.);
#434=EDGE_CURVE('',#540,#541,#619,.T.);
#435=EDGE_CURVE('',#540,#542,#620,.T.);
#436=EDGE_CURVE('',#542,#469,#621,.F.);
#437=EDGE_CURVE('',#468,#543,#622,.F.);
#438=EDGE_CURVE('',#543,#541,#623,.T.);
#439=EDGE_CURVE('',#502,#540,#38,.F.);
#440=EDGE_CURVE('',#541,#503,#39,.T.);
#441=EDGE_CURVE('',#544,#545,#624,.T.);
#442=EDGE_CURVE('',#544,#546,#625,.T.);
#443=EDGE_CURVE('',#546,#466,#626,.F.);
#444=EDGE_CURVE('',#465,#547,#627,.F.);
#445=EDGE_CURVE('',#547,#545,#628,.T.);
#446=EDGE_CURVE('',#482,#544,#40,.F.);
#447=EDGE_CURVE('',#545,#483,#41,.T.);
#448=EDGE_CURVE('',#548,#548,#629,.T.);
#449=EDGE_CURVE('',#549,#549,#630,.T.);
#450=EDGE_CURVE('',#525,#526,#82,.T.);
#451=EDGE_CURVE('',#550,#550,#631,.T.);
#452=EDGE_CURVE('',#542,#512,#83,.T.);
#453=EDGE_CURVE('',#511,#543,#84,.F.);
#454=EDGE_CURVE('',#538,#514,#85,.T.);
#455=EDGE_CURVE('',#513,#539,#86,.F.);
#456=EDGE_CURVE('',#534,#516,#87,.T.);
#457=EDGE_CURVE('',#515,#535,#88,.F.);
#458=EDGE_CURVE('',#530,#506,#89,.T.);
#459=EDGE_CURVE('',#505,#531,#90,.F.);
#460=EDGE_CURVE('',#524,#508,#91,.T.);
#461=EDGE_CURVE('',#507,#527,#92,.F.);
#462=EDGE_CURVE('',#546,#510,#93,.T.);
#463=EDGE_CURVE('',#509,#547,#94,.F.);
#464=VERTEX_POINT('',#1266);
#465=VERTEX_POINT('',#1268);
#466=VERTEX_POINT('',#1269);
#467=VERTEX_POINT('',#1279);
#468=VERTEX_POINT('',#1281);
#469=VERTEX_POINT('',#1282);
#470=VERTEX_POINT('',#1292);
#471=VERTEX_POINT('',#1294);
#472=VERTEX_POINT('',#1295);
#473=VERTEX_POINT('',#1305);
#474=VERTEX_POINT('',#1307);
#475=VERTEX_POINT('',#1308);
#476=VERTEX_POINT('',#1318);
#477=VERTEX_POINT('',#1320);
#478=VERTEX_POINT('',#1321);
#479=VERTEX_POINT('',#1331);
#480=VERTEX_POINT('',#1333);
#481=VERTEX_POINT('',#1334);
#482=VERTEX_POINT('',#1336);
#483=VERTEX_POINT('',#1338);
#484=VERTEX_POINT('',#1340);
#485=VERTEX_POINT('',#1342);
#486=VERTEX_POINT('',#1344);
#487=VERTEX_POINT('',#1346);
#488=VERTEX_POINT('',#1348);
#489=VERTEX_POINT('',#1350);
#490=VERTEX_POINT('',#1352);
#491=VERTEX_POINT('',#1354);
#492=VERTEX_POINT('',#1356);
#493=VERTEX_POINT('',#1358);
#494=VERTEX_POINT('',#1360);
#495=VERTEX_POINT('',#1362);
#496=VERTEX_POINT('',#1364);
#497=VERTEX_POINT('',#1366);
#498=VERTEX_POINT('',#1368);
#499=VERTEX_POINT('',#1370);
#500=VERTEX_POINT('',#1372);
#501=VERTEX_POINT('',#1374);
#502=VERTEX_POINT('',#1376);
#503=VERTEX_POINT('',#1378);
#504=VERTEX_POINT('',#1381);
#505=VERTEX_POINT('',#1384);
#506=VERTEX_POINT('',#1385);
#507=VERTEX_POINT('',#1388);
#508=VERTEX_POINT('',#1390);
#509=VERTEX_POINT('',#1393);
#510=VERTEX_POINT('',#1395);
#511=VERTEX_POINT('',#1398);
#512=VERTEX_POINT('',#1400);
#513=VERTEX_POINT('',#1403);
#514=VERTEX_POINT('',#1405);
#515=VERTEX_POINT('',#1408);
#516=VERTEX_POINT('',#1410);
#517=VERTEX_POINT('',#1414);
#518=VERTEX_POINT('',#1417);
#519=VERTEX_POINT('',#1419);
#520=VERTEX_POINT('',#1422);
#521=VERTEX_POINT('',#1425);
#522=VERTEX_POINT('',#1428);
#523=VERTEX_POINT('',#1429);
#524=VERTEX_POINT('',#1431);
#525=VERTEX_POINT('',#1433);
#526=VERTEX_POINT('',#1435);
#527=VERTEX_POINT('',#1437);
#528=VERTEX_POINT('',#1444);
#529=VERTEX_POINT('',#1445);
#530=VERTEX_POINT('',#1447);
#531=VERTEX_POINT('',#1450);
#532=VERTEX_POINT('',#1457);
#533=VERTEX_POINT('',#1458);
#534=VERTEX_POINT('',#1460);
#535=VERTEX_POINT('',#1463);
#536=VERTEX_POINT('',#1470);
#537=VERTEX_POINT('',#1471);
#538=VERTEX_POINT('',#1473);
#539=VERTEX_POINT('',#1476);
#540=VERTEX_POINT('',#1483);
#541=VERTEX_POINT('',#1484);
#542=VERTEX_POINT('',#1486);
#543=VERTEX_POINT('',#1489);
#544=VERTEX_POINT('',#1496);
#545=VERTEX_POINT('',#1497);
#546=VERTEX_POINT('',#1499);
#547=VERTEX_POINT('',#1502);
#548=VERTEX_POINT('',#1509);
#549=VERTEX_POINT('',#1512);
#550=VERTEX_POINT('',#1524);
#551=CIRCLE('',#857,0.002794);
#552=CIRCLE('',#858,0.002794);
#553=CIRCLE('',#860,0.002794);
#554=CIRCLE('',#861,0.002794);
#555=CIRCLE('',#863,0.002794);
#556=CIRCLE('',#864,0.002794);
#557=CIRCLE('',#866,0.002794);
#558=CIRCLE('',#867,0.002794);
#559=CIRCLE('',#869,0.002794);
#560=CIRCLE('',#870,0.002794);
#561=CIRCLE('',#872,0.002794);
#562=CIRCLE('',#873,0.04445);
#563=CIRCLE('',#874,0.00508);
#564=CIRCLE('',#875,0.00635);
#565=CIRCLE('',#876,0.00508);
#566=CIRCLE('',#877,0.04445);
#567=CIRCLE('',#878,0.00508);
#568=CIRCLE('',#879,0.00635);
#569=CIRCLE('',#880,0.00508);
#570=CIRCLE('',#881,0.04445);
#571=CIRCLE('',#882,0.00508);
#572=CIRCLE('',#883,0.00635);
#573=CIRCLE('',#884,0.00508);
#574=CIRCLE('',#885,0.04445);
#575=CIRCLE('',#886,0.00508);
#576=CIRCLE('',#887,0.00635);
#577=CIRCLE('',#888,0.00508);
#578=CIRCLE('',#889,0.04445);
#579=CIRCLE('',#890,0.00508);
#580=CIRCLE('',#891,0.00635);
#581=CIRCLE('',#892,0.00508);
#582=CIRCLE('',#893,0.04445);
#583=CIRCLE('',#894,0.00508);
#584=CIRCLE('',#895,0.00635);
#585=CIRCLE('',#896,0.00508);
#586=CIRCLE('',#897,0.049784);
#587=CIRCLE('',#899,0.04445);
#588=CIRCLE('',#900,0.04445);
#589=CIRCLE('',#901,0.04445);
#590=CIRCLE('',#902,0.04445);
#591=CIRCLE('',#903,0.04445);
#592=CIRCLE('',#904,0.04445);
#593=CIRCLE('',#905,0.04445);
#594=CIRCLE('',#907,0.05715);
#595=CIRCLE('',#908,0.05715);
#596=CIRCLE('',#910,0.054864);
#597=CIRCLE('',#912,0.050546);
#598=CIRCLE('',#914,0.00635);
#599=CIRCLE('',#915,0.00508);
#600=CIRCLE('',#916,0.03937);
#601=CIRCLE('',#917,0.002794);
#602=CIRCLE('',#918,0.03937);
#603=CIRCLE('',#919,0.00508);
#604=CIRCLE('',#922,0.00635);
#605=CIRCLE('',#923,0.00508);
#606=CIRCLE('',#924,0.03937);
#607=CIRCLE('',#925,0.03937);
#608=CIRCLE('',#926,0.00508);
#609=CIRCLE('',#929,0.00635);
#610=CIRCLE('',#930,0.00508);
#611=CIRCLE('',#931,0.03937);
#612=CIRCLE('',#932,0.03937);
#613=CIRCLE('',#933,0.00508);
#614=CIRCLE('',#936,0.00635);
#615=CIRCLE('',#937,0.00508);
#616=CIRCLE('',#938,0.03937);
#617=CIRCLE('',#939,0.03937);
#618=CIRCLE('',#940,0.00508);
#619=CIRCLE('',#943,0.00635);
#620=CIRCLE('',#944,0.00508);
#621=CIRCLE('',#945,0.03937);
#622=CIRCLE('',#946,0.03937);
#623=CIRCLE('',#947,0.00508);
#624=CIRCLE('',#950,0.00635);
#625=CIRCLE('',#951,0.00508);
#626=CIRCLE('',#952,0.03937);
#627=CIRCLE('',#953,0.03937);
#628=CIRCLE('',#954,0.00508);
#629=CIRCLE('',#957,0.049784);
#630=CIRCLE('',#959,0.054864);
#631=CIRCLE('',#963,0.050546);
#632=EDGE_LOOP('',(#95));
#633=EDGE_LOOP('',(#96,#97));
#634=EDGE_LOOP('',(#98));
#635=EDGE_LOOP('',(#99,#100));
#636=EDGE_LOOP('',(#101));
#637=EDGE_LOOP('',(#102,#103));
#638=EDGE_LOOP('',(#104));
#639=EDGE_LOOP('',(#105,#106));
#640=EDGE_LOOP('',(#107));
#641=EDGE_LOOP('',(#108,#109));
#642=EDGE_LOOP('',(#110));
#643=EDGE_LOOP('',(#111));
#644=EDGE_LOOP('',(#112));
#645=EDGE_LOOP('',(#113));
#646=EDGE_LOOP('',(#114));
#647=EDGE_LOOP('',(#115));
#648=EDGE_LOOP('',(#116,#117,#118,#119,#120,#121,#122,#123,#124,#125,#126,
#127,#128,#129,#130,#131,#132,#133,#134,#135,#136,#137,#138,#139));
#649=EDGE_LOOP('',(#140));
#650=EDGE_LOOP('',(#141,#142,#143,#144,#145,#146,#147,#148,#149,#150,#151,
#152,#153,#154,#155,#156,#157,#158,#159,#160,#161,#162,#163,#164));
#651=EDGE_LOOP('',(#165));
#652=EDGE_LOOP('',(#166));
#653=EDGE_LOOP('',(#167));
#654=EDGE_LOOP('',(#168));
#655=EDGE_LOOP('',(#169));
#656=EDGE_LOOP('',(#170));
#657=EDGE_LOOP('',(#171));
#658=EDGE_LOOP('',(#172,#173,#174,#175,#176,#177));
#659=EDGE_LOOP('',(#178,#179,#180,#181));
#660=EDGE_LOOP('',(#182,#183,#184,#185,#186,#187));
#661=EDGE_LOOP('',(#188,#189,#190,#191));
#662=EDGE_LOOP('',(#192,#193,#194,#195,#196,#197));
#663=EDGE_LOOP('',(#198,#199,#200,#201));
#664=EDGE_LOOP('',(#202,#203,#204,#205,#206,#207));
#665=EDGE_LOOP('',(#208,#209,#210,#211));
#666=EDGE_LOOP('',(#212,#213,#214,#215,#216,#217));
#667=EDGE_LOOP('',(#218,#219,#220,#221));
#668=EDGE_LOOP('',(#222,#223,#224,#225,#226,#227));
#669=EDGE_LOOP('',(#228,#229,#230,#231));
#670=EDGE_LOOP('',(#232));
#671=EDGE_LOOP('',(#233));
#672=EDGE_LOOP('',(#234));
#673=EDGE_LOOP('',(#235));
#674=EDGE_LOOP('',(#236));
#675=EDGE_LOOP('',(#237));
#676=EDGE_LOOP('',(#238));
#677=EDGE_LOOP('',(#239,#240));
#678=EDGE_LOOP('',(#241));
#679=EDGE_LOOP('',(#242));
#680=EDGE_LOOP('',(#243));
#681=EDGE_LOOP('',(#244));
#682=EDGE_LOOP('',(#245,#246,#247,#248,#249,#250));
#683=EDGE_LOOP('',(#251,#252,#253,#254,#255,#256));
#684=EDGE_LOOP('',(#257,#258,#259,#260,#261,#262));
#685=EDGE_LOOP('',(#263,#264,#265,#266,#267,#268));
#686=EDGE_LOOP('',(#269,#270,#271,#272,#273,#274));
#687=EDGE_LOOP('',(#275,#276,#277,#278,#279,#280));
#688=EDGE_LOOP('',(#281,#282,#283,#284,#285));
#689=EDGE_LOOP('',(#286,#287,#288,#289,#290));
#690=EDGE_LOOP('',(#291,#292,#293,#294,#295));
#691=EDGE_LOOP('',(#296,#297,#298,#299,#300));
#692=EDGE_LOOP('',(#301,#302,#303,#304,#305));
#693=EDGE_LOOP('',(#306,#307,#308,#309,#310));
#694=EDGE_LOOP('',(#311,#312,#313,#314,#315));
#695=EDGE_LOOP('',(#316,#317,#318,#319,#320));
#696=EDGE_LOOP('',(#321,#322,#323,#324,#325));
#697=EDGE_LOOP('',(#326,#327,#328,#329,#330));
#698=EDGE_LOOP('',(#331,#332,#333,#334,#335));
#699=EDGE_LOOP('',(#336,#337,#338,#339,#340));
#700=FACE_BOUND('',#632,.T.);
#701=FACE_BOUND('',#633,.T.);
#702=FACE_BOUND('',#634,.T.);
#703=FACE_BOUND('',#635,.T.);
#704=FACE_BOUND('',#636,.T.);
#705=FACE_BOUND('',#637,.T.);
#706=FACE_BOUND('',#638,.T.);
#707=FACE_BOUND('',#639,.T.);
#708=FACE_BOUND('',#640,.T.);
#709=FACE_BOUND('',#641,.T.);
#710=FACE_BOUND('',#642,.T.);
#711=FACE_BOUND('',#643,.T.);
#712=FACE_BOUND('',#644,.T.);
#713=FACE_BOUND('',#645,.T.);
#714=FACE_BOUND('',#646,.T.);
#715=FACE_BOUND('',#647,.T.);
#716=FACE_BOUND('',#648,.T.);
#717=FACE_BOUND('',#649,.T.);
#718=FACE_BOUND('',#650,.T.);
#719=FACE_BOUND('',#651,.T.);
#720=FACE_BOUND('',#652,.T.);
#721=FACE_BOUND('',#653,.T.);
#722=FACE_BOUND('',#654,.T.);
#723=FACE_BOUND('',#655,.T.);
#724=FACE_BOUND('',#656,.T.);
#725=FACE_BOUND('',#657,.T.);
#726=FACE_BOUND('',#658,.T.);
#727=FACE_BOUND('',#659,.T.);
#728=FACE_BOUND('',#660,.T.);
#729=FACE_BOUND('',#661,.T.);
#730=FACE_BOUND('',#662,.T.);
#731=FACE_BOUND('',#663,.T.);
#732=FACE_BOUND('',#664,.T.);
#733=FACE_BOUND('',#665,.T.);
#734=FACE_BOUND('',#666,.T.);
#735=FACE_BOUND('',#667,.T.);
#736=FACE_BOUND('',#668,.T.);
#737=FACE_BOUND('',#669,.T.);
#738=FACE_BOUND('',#670,.T.);
#739=FACE_BOUND('',#671,.T.);
#740=FACE_BOUND('',#672,.T.);
#741=FACE_BOUND('',#673,.T.);
#742=FACE_BOUND('',#674,.T.);
#743=FACE_BOUND('',#675,.T.);
#744=FACE_BOUND('',#676,.T.);
#745=FACE_BOUND('',#677,.T.);
#746=FACE_BOUND('',#678,.T.);
#747=FACE_BOUND('',#679,.T.);
#748=FACE_BOUND('',#680,.T.);
#749=FACE_BOUND('',#681,.T.);
#750=FACE_BOUND('',#682,.T.);
#751=FACE_BOUND('',#683,.T.);
#752=FACE_BOUND('',#684,.T.);
#753=FACE_BOUND('',#685,.T.);
#754=FACE_BOUND('',#686,.T.);
#755=FACE_BOUND('',#687,.T.);
#756=FACE_BOUND('',#688,.T.);
#757=FACE_BOUND('',#689,.T.);
#758=FACE_BOUND('',#690,.T.);
#759=FACE_BOUND('',#691,.T.);
#760=FACE_BOUND('',#692,.T.);
#761=FACE_BOUND('',#693,.T.);
#762=FACE_BOUND('',#694,.T.);
#763=FACE_BOUND('',#695,.T.);
#764=FACE_BOUND('',#696,.T.);
#765=FACE_BOUND('',#697,.T.);
#766=FACE_BOUND('',#698,.T.);
#767=FACE_BOUND('',#699,.T.);
#768=CYLINDRICAL_SURFACE('',#856,0.002794);
#769=CYLINDRICAL_SURFACE('',#859,0.002794);
#770=CYLINDRICAL_SURFACE('',#862,0.002794);
#771=CYLINDRICAL_SURFACE('',#865,0.002794);
#772=CYLINDRICAL_SURFACE('',#868,0.002794);
#773=CYLINDRICAL_SURFACE('',#898,0.04445);
#774=CYLINDRICAL_SURFACE('',#906,0.05715);
#775=CYLINDRICAL_SURFACE('',#920,0.00635);
#776=CYLINDRICAL_SURFACE('',#927,0.00635);
#777=CYLINDRICAL_SURFACE('',#934,0.00635);
#778=CYLINDRICAL_SURFACE('',#941,0.00635);
#779=CYLINDRICAL_SURFACE('',#948,0.00635);
#780=CYLINDRICAL_SURFACE('',#955,0.00635);
#781=CYLINDRICAL_SURFACE('',#956,0.049784);
#782=CYLINDRICAL_SURFACE('',#958,0.054864);
#783=CYLINDRICAL_SURFACE('',#961,0.002794);
#784=CYLINDRICAL_SURFACE('',#962,0.050546);
#785=CYLINDRICAL_SURFACE('',#971,0.00508);
#786=CYLINDRICAL_SURFACE('',#972,0.00508);
#787=CYLINDRICAL_SURFACE('',#973,0.00508);
#788=CYLINDRICAL_SURFACE('',#974,0.00508);
#789=CYLINDRICAL_SURFACE('',#975,0.00508);
#790=CYLINDRICAL_SURFACE('',#976,0.00508);
#791=CYLINDRICAL_SURFACE('',#977,0.00508);
#792=CYLINDRICAL_SURFACE('',#978,0.00508);
#793=CYLINDRICAL_SURFACE('',#979,0.00508);
#794=CYLINDRICAL_SURFACE('',#980,0.00508);
#795=CYLINDRICAL_SURFACE('',#981,0.00508);
#796=CYLINDRICAL_SURFACE('',#982,0.00508);
#797=ADVANCED_FACE('',(#700,#701),#768,.F.);
#798=ADVANCED_FACE('',(#702,#703),#769,.F.);
#799=ADVANCED_FACE('',(#704,#705),#770,.F.);
#800=ADVANCED_FACE('',(#706,#707),#771,.F.);
#801=ADVANCED_FACE('',(#708,#709),#772,.F.);
#802=ADVANCED_FACE('',(#710,#711,#712,#713,#714,#715,#716,#717),#66,.T.);
#803=ADVANCED_FACE('',(#718,#719),#773,.F.);
#804=ADVANCED_FACE('',(#720,#721),#774,.T.);
#805=ADVANCED_FACE('',(#722,#723),#67,.T.);
#806=ADVANCED_FACE('',(#724,#725),#68,.F.);
#807=ADVANCED_FACE('',(#726),#69,.F.);
#808=ADVANCED_FACE('',(#727),#775,.T.);
#809=ADVANCED_FACE('',(#728),#70,.F.);
#810=ADVANCED_FACE('',(#729),#776,.T.);
#811=ADVANCED_FACE('',(#730),#71,.F.);
#812=ADVANCED_FACE('',(#731),#777,.T.);
#813=ADVANCED_FACE('',(#732),#72,.F.);
#814=ADVANCED_FACE('',(#733),#778,.T.);
#815=ADVANCED_FACE('',(#734),#73,.F.);
#816=ADVANCED_FACE('',(#735),#779,.T.);
#817=ADVANCED_FACE('',(#736),#74,.F.);
#818=ADVANCED_FACE('',(#737),#780,.T.);
#819=ADVANCED_FACE('',(#738,#739),#781,.T.);
#820=ADVANCED_FACE('',(#740,#741),#782,.F.);
#821=ADVANCED_FACE('',(#742,#743),#75,.T.);
#822=ADVANCED_FACE('',(#744,#745),#783,.F.);
#823=ADVANCED_FACE('',(#746,#747),#784,.T.);
#824=ADVANCED_FACE('',(#748,#749),#76,.T.);
#825=ADVANCED_FACE('',(#750),#12,.F.);
#826=ADVANCED_FACE('',(#751),#13,.F.);
#827=ADVANCED_FACE('',(#752),#14,.F.);
#828=ADVANCED_FACE('',(#753),#15,.F.);
#829=ADVANCED_FACE('',(#754),#16,.F.);
#830=ADVANCED_FACE('',(#755),#17,.F.);
#831=ADVANCED_FACE('',(#756),#785,.F.);
#832=ADVANCED_FACE('',(#757),#786,.F.);
#833=ADVANCED_FACE('',(#758),#787,.F.);
#834=ADVANCED_FACE('',(#759),#788,.F.);
#835=ADVANCED_FACE('',(#760),#789,.F.);
#836=ADVANCED_FACE('',(#761),#790,.F.);
#837=ADVANCED_FACE('',(#762),#791,.F.);
#838=ADVANCED_FACE('',(#763),#792,.F.);
#839=ADVANCED_FACE('',(#764),#793,.F.);
#840=ADVANCED_FACE('',(#765),#794,.F.);
#841=ADVANCED_FACE('',(#766),#795,.F.);
#842=ADVANCED_FACE('',(#767),#796,.F.);
#843=CLOSED_SHELL('',(#797,#798,#799,#800,#801,#802,#803,#804,#805,#806,
#807,#808,#809,#810,#811,#812,#813,#814,#815,#816,#817,#818,#819,#820,#821,
#822,#823,#824,#825,#826,#827,#828,#829,#830,#831,#832,#833,#834,#835,#836,
#837,#838,#839,#840,#841,#842));
#844=STYLED_ITEM('',(#845),#852);
#845=PRESENTATION_STYLE_ASSIGNMENT((#846));
#846=SURFACE_STYLE_USAGE(.BOTH.,#847);
#847=SURFACE_SIDE_STYLE('',(#848));
#848=SURFACE_STYLE_FILL_AREA(#849);
#849=FILL_AREA_STYLE('',(#850));
#850=FILL_AREA_STYLE_COLOUR('',#851);
#851=COLOUR_RGB('',0.615686274509804,0.811764705882353,0.929411764705882);
#852=MANIFOLD_SOLID_BREP('Part 1',#843);
#853=SHAPE_DEFINITION_REPRESENTATION(#1634,#854);
#854=SHAPE_REPRESENTATION('Part 1',(#855),#1629);
#855=AXIS2_PLACEMENT_3D('',#1263,#983,#984);
#856=AXIS2_PLACEMENT_3D('',#1264,#985,#986);
#857=AXIS2_PLACEMENT_3D('',#1265,#987,#988);
#858=AXIS2_PLACEMENT_3D('',#1267,#989,#990);
#859=AXIS2_PLACEMENT_3D('',#1277,#991,#992);
#860=AXIS2_PLACEMENT_3D('',#1278,#993,#994);
#861=AXIS2_PLACEMENT_3D('',#1280,#995,#996);
#862=AXIS2_PLACEMENT_3D('',#1290,#997,#998);
#863=AXIS2_PLACEMENT_3D('',#1291,#999,#1000);
#864=AXIS2_PLACEMENT_3D('',#1293,#1001,#1002);
#865=AXIS2_PLACEMENT_3D('',#1303,#1003,#1004);
#866=AXIS2_PLACEMENT_3D('',#1304,#1005,#1006);
#867=AXIS2_PLACEMENT_3D('',#1306,#1007,#1008);
#868=AXIS2_PLACEMENT_3D('',#1316,#1009,#1010);
#869=AXIS2_PLACEMENT_3D('',#1317,#1011,#1012);
#870=AXIS2_PLACEMENT_3D('',#1319,#1013,#1014);
#871=AXIS2_PLACEMENT_3D('',#1329,#1015,#1016);
#872=AXIS2_PLACEMENT_3D('',#1330,#1017,#1018);
#873=AXIS2_PLACEMENT_3D('',#1332,#1019,#1020);
#874=AXIS2_PLACEMENT_3D('',#1335,#1021,#1022);
#875=AXIS2_PLACEMENT_3D('',#1337,#1023,#1024);
#876=AXIS2_PLACEMENT_3D('',#1339,#1025,#1026);
#877=AXIS2_PLACEMENT_3D('',#1341,#1027,#1028);
#878=AXIS2_PLACEMENT_3D('',#1343,#1029,#1030);
#879=AXIS2_PLACEMENT_3D('',#1345,#1031,#1032);
#880=AXIS2_PLACEMENT_3D('',#1347,#1033,#1034);
#881=AXIS2_PLACEMENT_3D('',#1349,#1035,#1036);
#882=AXIS2_PLACEMENT_3D('',#1351,#1037,#1038);
#883=AXIS2_PLACEMENT_3D('',#1353,#1039,#1040);
#884=AXIS2_PLACEMENT_3D('',#1355,#1041,#1042);
#885=AXIS2_PLACEMENT_3D('',#1357,#1043,#1044);
#886=AXIS2_PLACEMENT_3D('',#1359,#1045,#1046);
#887=AXIS2_PLACEMENT_3D('',#1361,#1047,#1048);
#888=AXIS2_PLACEMENT_3D('',#1363,#1049,#1050);
#889=AXIS2_PLACEMENT_3D('',#1365,#1051,#1052);
#890=AXIS2_PLACEMENT_3D('',#1367,#1053,#1054);
#891=AXIS2_PLACEMENT_3D('',#1369,#1055,#1056);
#892=AXIS2_PLACEMENT_3D('',#1371,#1057,#1058);
#893=AXIS2_PLACEMENT_3D('',#1373,#1059,#1060);
#894=AXIS2_PLACEMENT_3D('',#1375,#1061,#1062);
#895=AXIS2_PLACEMENT_3D('',#1377,#1063,#1064);
#896=AXIS2_PLACEMENT_3D('',#1379,#1065,#1066);
#897=AXIS2_PLACEMENT_3D('',#1380,#1067,#1068);
#898=AXIS2_PLACEMENT_3D('',#1382,#1069,#1070);
#899=AXIS2_PLACEMENT_3D('',#1383,#1071,#1072);
#900=AXIS2_PLACEMENT_3D('',#1389,#1075,#1076);
#901=AXIS2_PLACEMENT_3D('',#1394,#1079,#1080);
#902=AXIS2_PLACEMENT_3D('',#1399,#1083,#1084);
#903=AXIS2_PLACEMENT_3D('',#1404,#1087,#1088);
#904=AXIS2_PLACEMENT_3D('',#1409,#1091,#1092);
#905=AXIS2_PLACEMENT_3D('',#1413,#1095,#1096);
#906=AXIS2_PLACEMENT_3D('',#1415,#1097,#1098);
#907=AXIS2_PLACEMENT_3D('',#1416,#1099,#1100);
#908=AXIS2_PLACEMENT_3D('',#1418,#1101,#1102);
#909=AXIS2_PLACEMENT_3D('',#1420,#1103,#1104);
#910=AXIS2_PLACEMENT_3D('',#1421,#1105,#1106);
#911=AXIS2_PLACEMENT_3D('',#1423,#1107,#1108);
#912=AXIS2_PLACEMENT_3D('',#1424,#1109,#1110);
#913=AXIS2_PLACEMENT_3D('',#1426,#1111,#1112);
#914=AXIS2_PLACEMENT_3D('',#1427,#1113,#1114);
#915=AXIS2_PLACEMENT_3D('',#1430,#1115,#1116);
#916=AXIS2_PLACEMENT_3D('',#1432,#1117,#1118);
#917=AXIS2_PLACEMENT_3D('',#1434,#1119,#1120);
#918=AXIS2_PLACEMENT_3D('',#1436,#1121,#1122);
#919=AXIS2_PLACEMENT_3D('',#1438,#1123,#1124);
#920=AXIS2_PLACEMENT_3D('',#1439,#1125,#1126);
#921=AXIS2_PLACEMENT_3D('',#1442,#1129,#1130);
#922=AXIS2_PLACEMENT_3D('',#1443,#1131,#1132);
#923=AXIS2_PLACEMENT_3D('',#1446,#1133,#1134);
#924=AXIS2_PLACEMENT_3D('',#1448,#1135,#1136);
#925=AXIS2_PLACEMENT_3D('',#1449,#1137,#1138);
#926=AXIS2_PLACEMENT_3D('',#1451,#1139,#1140);
#927=AXIS2_PLACEMENT_3D('',#1452,#1141,#1142);
#928=AXIS2_PLACEMENT_3D('',#1455,#1145,#1146);
#929=AXIS2_PLACEMENT_3D('',#1456,#1147,#1148);
#930=AXIS2_PLACEMENT_3D('',#1459,#1149,#1150);
#931=AXIS2_PLACEMENT_3D('',#1461,#1151,#1152);
#932=AXIS2_PLACEMENT_3D('',#1462,#1153,#1154);
#933=AXIS2_PLACEMENT_3D('',#1464,#1155,#1156);
#934=AXIS2_PLACEMENT_3D('',#1465,#1157,#1158);
#935=AXIS2_PLACEMENT_3D('',#1468,#1161,#1162);
#936=AXIS2_PLACEMENT_3D('',#1469,#1163,#1164);
#937=AXIS2_PLACEMENT_3D('',#1472,#1165,#1166);
#938=AXIS2_PLACEMENT_3D('',#1474,#1167,#1168);
#939=AXIS2_PLACEMENT_3D('',#1475,#1169,#1170);
#940=AXIS2_PLACEMENT_3D('',#1477,#1171,#1172);
#941=AXIS2_PLACEMENT_3D('',#1478,#1173,#1174);
#942=AXIS2_PLACEMENT_3D('',#1481,#1177,#1178);
#943=AXIS2_PLACEMENT_3D('',#1482,#1179,#1180);
#944=AXIS2_PLACEMENT_3D('',#1485,#1181,#1182);
#945=AXIS2_PLACEMENT_3D('',#1487,#1183,#1184);
#946=AXIS2_PLACEMENT_3D('',#1488,#1185,#1186);
#947=AXIS2_PLACEMENT_3D('',#1490,#1187,#1188);
#948=AXIS2_PLACEMENT_3D('',#1491,#1189,#1190);
#949=AXIS2_PLACEMENT_3D('',#1494,#1193,#1194);
#950=AXIS2_PLACEMENT_3D('',#1495,#1195,#1196);
#951=AXIS2_PLACEMENT_3D('',#1498,#1197,#1198);
#952=AXIS2_PLACEMENT_3D('',#1500,#1199,#1200);
#953=AXIS2_PLACEMENT_3D('',#1501,#1201,#1202);
#954=AXIS2_PLACEMENT_3D('',#1503,#1203,#1204);
#955=AXIS2_PLACEMENT_3D('',#1504,#1205,#1206);
#956=AXIS2_PLACEMENT_3D('',#1507,#1209,#1210);
#957=AXIS2_PLACEMENT_3D('',#1508,#1211,#1212);
#958=AXIS2_PLACEMENT_3D('',#1510,#1213,#1214);
#959=AXIS2_PLACEMENT_3D('',#1511,#1215,#1216);
#960=AXIS2_PLACEMENT_3D('',#1513,#1217,#1218);
#961=AXIS2_PLACEMENT_3D('',#1514,#1219,#1220);
#962=AXIS2_PLACEMENT_3D('',#1522,#1221,#1222);
#963=AXIS2_PLACEMENT_3D('',#1523,#1223,#1224);
#964=AXIS2_PLACEMENT_3D('',#1525,#1225,#1226);
#965=AXIS2_PLACEMENT_3D('',#1526,#1227,#1228);
#966=AXIS2_PLACEMENT_3D('',#1541,#1229,#1230);
#967=AXIS2_PLACEMENT_3D('',#1556,#1231,#1232);
#968=AXIS2_PLACEMENT_3D('',#1571,#1233,#1234);
#969=AXIS2_PLACEMENT_3D('',#1586,#1235,#1236);
#970=AXIS2_PLACEMENT_3D('',#1601,#1237,#1238);
#971=AXIS2_PLACEMENT_3D('',#1616,#1239,#1240);
#972=AXIS2_PLACEMENT_3D('',#1617,#1241,#1242);
#973=AXIS2_PLACEMENT_3D('',#1618,#1243,#1244);
#974=AXIS2_PLACEMENT_3D('',#1619,#1245,#1246);
#975=AXIS2_PLACEMENT_3D('',#1620,#1247,#1248);
#976=AXIS2_PLACEMENT_3D('',#1621,#1249,#1250);
#977=AXIS2_PLACEMENT_3D('',#1622,#1251,#1252);
#978=AXIS2_PLACEMENT_3D('',#1623,#1253,#1254);
#979=AXIS2_PLACEMENT_3D('',#1624,#1255,#1256);
#980=AXIS2_PLACEMENT_3D('',#1625,#1257,#1258);
#981=AXIS2_PLACEMENT_3D('',#1626,#1259,#1260);
#982=AXIS2_PLACEMENT_3D('',#1627,#1261,#1262);
#983=DIRECTION('',(0.,0.,1.));
#984=DIRECTION('',(1.,0.,0.));
#985=DIRECTION('',(0.,0.,-1.));
#986=DIRECTION('',(-0.5,-0.866025403784439,0.));
#987=DIRECTION('',(0.,0.,1.));
#988=DIRECTION('',(0.5,0.866025403784439,0.));
#989=DIRECTION('',(0.,0.,-1.));
#990=DIRECTION('',(-0.5,-0.866025403784439,0.));
#991=DIRECTION('',(0.,0.,-1.));
#992=DIRECTION('',(0.5,-0.866025403784438,0.));
#993=DIRECTION('',(0.,0.,1.));
#994=DIRECTION('',(-0.5,0.866025403784438,0.));
#995=DIRECTION('',(0.,0.,-1.));
#996=DIRECTION('',(0.5,-0.866025403784438,0.));
#997=DIRECTION('',(0.,0.,-1.));
#998=DIRECTION('',(1.,1.22464679914735E-16,0.));
#999=DIRECTION('',(0.,0.,1.));
#1000=DIRECTION('',(-1.,-1.22464679914735E-16,0.));
#1001=DIRECTION('',(0.,0.,-1.));
#1002=DIRECTION('',(1.,1.22464679914735E-16,0.));
#1003=DIRECTION('',(0.,0.,-1.));
#1004=DIRECTION('',(0.5,0.866025403784439,0.));
#1005=DIRECTION('',(0.,0.,1.));
#1006=DIRECTION('',(-0.5,-0.866025403784439,0.));
#1007=DIRECTION('',(0.,0.,-1.));
#1008=DIRECTION('',(0.5,0.866025403784439,0.));
#1009=DIRECTION('',(0.,0.,-1.));
#1010=DIRECTION('',(-0.5,0.866025403784439,0.));
#1011=DIRECTION('',(0.,0.,1.));
#1012=DIRECTION('',(0.5,-0.866025403784439,0.));
#1013=DIRECTION('',(0.,0.,-1.));
#1014=DIRECTION('',(-0.5,0.866025403784439,0.));
#1015=DIRECTION('',(0.,0.,1.));
#1016=DIRECTION('',(1.,0.,0.));
#1017=DIRECTION('',(0.,0.,1.));
#1018=DIRECTION('',(1.,0.,0.));
#1019=DIRECTION('',(0.,0.,1.));
#1020=DIRECTION('',(1.,0.,0.));
#1021=DIRECTION('',(0.,0.,1.));
#1022=DIRECTION('',(1.,0.,0.));
#1023=DIRECTION('',(0.,0.,1.));
#1024=DIRECTION('',(0.5,0.866025403784439,0.));
#1025=DIRECTION('',(0.,0.,1.));
#1026=DIRECTION('',(1.,0.,0.));
#1027=DIRECTION('',(0.,0.,1.));
#1028=DIRECTION('',(1.,0.,0.));
#1029=DIRECTION('',(0.,0.,1.));
#1030=DIRECTION('',(1.,0.,0.));
#1031=DIRECTION('',(0.,0.,1.));
#1032=DIRECTION('',(1.,0.,0.));
#1033=DIRECTION('',(0.,0.,1.));
#1034=DIRECTION('',(1.,0.,0.));
#1035=DIRECTION('',(0.,0.,1.));
#1036=DIRECTION('',(1.,0.,0.));
#1037=DIRECTION('',(0.,0.,1.));
#1038=DIRECTION('',(1.,0.,0.));
#1039=DIRECTION('',(0.,0.,1.));
#1040=DIRECTION('',(0.5,-0.866025403784439,0.));
#1041=DIRECTION('',(0.,0.,1.));
#1042=DIRECTION('',(1.,0.,0.));
#1043=DIRECTION('',(0.,0.,1.));
#1044=DIRECTION('',(1.,0.,0.));
#1045=DIRECTION('',(0.,0.,1.));
#1046=DIRECTION('',(1.,0.,0.));
#1047=DIRECTION('',(0.,0.,1.));
#1048=DIRECTION('',(-0.5,-0.866025403784438,0.));
#1049=DIRECTION('',(0.,0.,1.));
#1050=DIRECTION('',(1.,0.,0.));
#1051=DIRECTION('',(0.,0.,1.));
#1052=DIRECTION('',(1.,0.,0.));
#1053=DIRECTION('',(0.,0.,1.));
#1054=DIRECTION('',(1.,0.,0.));
#1055=DIRECTION('',(0.,0.,1.));
#1056=DIRECTION('',(-1.,1.22464679914735E-16,0.));
#1057=DIRECTION('',(0.,0.,1.));
#1058=DIRECTION('',(1.,0.,0.));
#1059=DIRECTION('',(0.,0.,1.));
#1060=DIRECTION('',(1.,0.,0.));
#1061=DIRECTION('',(0.,0.,1.));
#1062=DIRECTION('',(1.,0.,0.));
#1063=DIRECTION('',(0.,0.,1.));
#1064=DIRECTION('',(-0.5,0.866025403784439,0.));
#1065=DIRECTION('',(0.,0.,1.));
#1066=DIRECTION('',(1.,0.,0.));
#1067=DIRECTION('',(0.,0.,1.));
#1068=DIRECTION('',(1.,0.,0.));
#1069=DIRECTION('',(0.,0.,-1.));
#1070=DIRECTION('',(-1.,0.,0.));
#1071=DIRECTION('',(0.,0.,1.));
#1072=DIRECTION('',(1.,0.,0.));
#1073=DIRECTION('',(0.,0.,-1.));
#1074=DIRECTION('',(0.,0.,-1.));
#1075=DIRECTION('',(0.,0.,1.));
#1076=DIRECTION('',(1.,0.,0.));
#1077=DIRECTION('',(0.,0.,-1.));
#1078=DIRECTION('',(0.,0.,-1.));
#1079=DIRECTION('',(0.,0.,1.));
#1080=DIRECTION('',(1.,0.,0.));
#1081=DIRECTION('',(0.,0.,-1.));
#1082=DIRECTION('',(0.,0.,-1.));
#1083=DIRECTION('',(0.,0.,1.));
#1084=DIRECTION('',(1.,0.,0.));
#1085=DIRECTION('',(0.,0.,-1.));
#1086=DIRECTION('',(0.,0.,-1.));
#1087=DIRECTION('',(0.,0.,1.));
#1088=DIRECTION('',(1.,0.,0.));
#1089=DIRECTION('',(0.,0.,-1.));
#1090=DIRECTION('',(0.,0.,-1.));
#1091=DIRECTION('',(0.,0.,1.));
#1092=DIRECTION('',(1.,0.,0.));
#1093=DIRECTION('',(0.,0.,-1.));
#1094=DIRECTION('',(0.,0.,-1.));
#1095=DIRECTION('',(0.,0.,1.));
#1096=DIRECTION('',(1.,0.,0.));
#1097=DIRECTION('',(0.,0.,-1.));
#1098=DIRECTION('',(-1.,0.,0.));
#1099=DIRECTION('',(0.,0.,1.));
#1100=DIRECTION('',(1.,0.,0.));
#1101=DIRECTION('',(0.,0.,1.));
#1102=DIRECTION('',(1.,0.,0.));
#1103=DIRECTION('',(0.,0.,1.));
#1104=DIRECTION('',(1.,0.,0.));
#1105=DIRECTION('',(0.,0.,1.));
#1106=DIRECTION('',(1.,0.,0.));
#1107=DIRECTION('',(0.,0.,1.));
#1108=DIRECTION('',(1.,0.,0.));
#1109=DIRECTION('',(0.,0.,1.));
#1110=DIRECTION('',(1.,0.,0.));
#1111=DIRECTION('',(0.,0.,1.));
#1112=DIRECTION('',(1.,0.,0.));
#1113=DIRECTION('',(0.,0.,1.));
#1114=DIRECTION('',(1.,0.,0.));
#1115=DIRECTION('',(0.,0.,1.));
#1116=DIRECTION('',(1.,0.,0.));
#1117=DIRECTION('',(0.,0.,1.));
#1118=DIRECTION('',(1.,0.,0.));
#1119=DIRECTION('',(0.,0.,-1.));
#1120=DIRECTION('',(-1.,0.,0.));
#1121=DIRECTION('',(0.,0.,1.));
#1122=DIRECTION('',(1.,0.,0.));
#1123=DIRECTION('',(0.,0.,1.));
#1124=DIRECTION('',(1.,0.,0.));
#1125=DIRECTION('',(0.,0.,1.));
#1126=DIRECTION('',(1.,0.,0.));
#1127=DIRECTION('',(0.,0.,1.));
#1128=DIRECTION('',(0.,0.,1.));
#1129=DIRECTION('',(0.,0.,1.));
#1130=DIRECTION('',(0.5,-0.866025403784439,0.));
#1131=DIRECTION('',(0.,0.,1.));
#1132=DIRECTION('',(0.5,-0.866025403784439,0.));
#1133=DIRECTION('',(0.,0.,1.));
#1134=DIRECTION('',(1.,0.,0.));
#1135=DIRECTION('',(0.,0.,1.));
#1136=DIRECTION('',(1.,0.,0.));
#1137=DIRECTION('',(0.,0.,1.));
#1138=DIRECTION('',(1.,0.,0.));
#1139=DIRECTION('',(0.,0.,1.));
#1140=DIRECTION('',(1.,0.,0.));
#1141=DIRECTION('',(0.,0.,1.));
#1142=DIRECTION('',(0.5,-0.866025403784439,0.));
#1143=DIRECTION('',(0.,0.,1.));
#1144=DIRECTION('',(0.,0.,1.));
#1145=DIRECTION('',(0.,0.,1.));
#1146=DIRECTION('',(-0.5,-0.866025403784438,0.));
#1147=DIRECTION('',(0.,0.,1.));
#1148=DIRECTION('',(-0.5,-0.866025403784438,0.));
#1149=DIRECTION('',(0.,0.,1.));
#1150=DIRECTION('',(1.,0.,0.));
#1151=DIRECTION('',(0.,0.,1.));
#1152=DIRECTION('',(1.,0.,0.));
#1153=DIRECTION('',(0.,0.,1.));
#1154=DIRECTION('',(1.,0.,0.));
#1155=DIRECTION('',(0.,0.,1.));
#1156=DIRECTION('',(1.,0.,0.));
#1157=DIRECTION('',(0.,0.,1.));
#1158=DIRECTION('',(-0.5,-0.866025403784438,0.));
#1159=DIRECTION('',(0.,0.,1.));
#1160=DIRECTION('',(0.,0.,1.));
#1161=DIRECTION('',(0.,0.,1.));
#1162=DIRECTION('',(-1.,1.22464679914735E-16,0.));
#1163=DIRECTION('',(0.,0.,1.));
#1164=DIRECTION('',(-1.,1.22464679914735E-16,0.));
#1165=DIRECTION('',(0.,0.,1.));
#1166=DIRECTION('',(1.,0.,0.));
#1167=DIRECTION('',(0.,0.,1.));
#1168=DIRECTION('',(1.,0.,0.));
#1169=DIRECTION('',(0.,0.,1.));
#1170=DIRECTION('',(1.,0.,0.));
#1171=DIRECTION('',(0.,0.,1.));
#1172=DIRECTION('',(1.,0.,0.));
#1173=DIRECTION('',(0.,0.,1.));
#1174=DIRECTION('',(-1.,1.22464679914735E-16,0.));
#1175=DIRECTION('',(0.,0.,1.));
#1176=DIRECTION('',(0.,0.,1.));
#1177=DIRECTION('',(0.,0.,1.));
#1178=DIRECTION('',(-0.5,0.866025403784439,0.));
#1179=DIRECTION('',(0.,0.,1.));
#1180=DIRECTION('',(-0.5,0.866025403784439,0.));
#1181=DIRECTION('',(0.,0.,1.));
#1182=DIRECTION('',(1.,0.,0.));
#1183=DIRECTION('',(0.,0.,1.));
#1184=DIRECTION('',(1.,0.,0.));
#1185=DIRECTION('',(0.,0.,1.));
#1186=DIRECTION('',(1.,0.,0.));
#1187=DIRECTION('',(0.,0.,1.));
#1188=DIRECTION('',(1.,0.,0.));
#1189=DIRECTION('',(0.,0.,1.));
#1190=DIRECTION('',(-0.5,0.866025403784439,0.));
#1191=DIRECTION('',(0.,0.,1.));
#1192=DIRECTION('',(0.,0.,1.));
#1193=DIRECTION('',(0.,0.,1.));
#1194=DIRECTION('',(0.5,0.866025403784439,0.));
#1195=DIRECTION('',(0.,0.,1.));
#1196=DIRECTION('',(0.5,0.866025403784439,0.));
#1197=DIRECTION('',(0.,0.,1.));
#1198=DIRECTION('',(1.,0.,0.));
#1199=DIRECTION('',(0.,0.,1.));
#1200=DIRECTION('',(1.,0.,0.));
#1201=DIRECTION('',(0.,0.,1.));
#1202=DIRECTION('',(1.,0.,0.));
#1203=DIRECTION('',(0.,0.,1.));
#1204=DIRECTION('',(1.,0.,0.));
#1205=DIRECTION('',(0.,0.,1.));
#1206=DIRECTION('',(0.5,0.866025403784439,0.));
#1207=DIRECTION('',(0.,0.,1.));
#1208=DIRECTION('',(0.,0.,1.));
#1209=DIRECTION('',(0.,0.,1.));
#1210=DIRECTION('',(1.,0.,0.));
#1211=DIRECTION('',(0.,0.,1.));
#1212=DIRECTION('',(1.,0.,0.));
#1213=DIRECTION('',(0.,0.,1.));
#1214=DIRECTION('',(1.,0.,0.));
#1215=DIRECTION('',(0.,0.,1.));
#1216=DIRECTION('',(1.,0.,0.));
#1217=DIRECTION('',(0.,0.,1.));
#1218=DIRECTION('',(1.,0.,0.));
#1219=DIRECTION('',(0.,0.,-1.));
#1220=DIRECTION('',(-1.,0.,0.));
#1221=DIRECTION('',(0.,0.,1.));
#1222=DIRECTION('',(1.,0.,0.));
#1223=DIRECTION('',(0.,0.,-1.));
#1224=DIRECTION('',(-1.,0.,0.));
#1225=DIRECTION('',(0.,0.,-1.));
#1226=DIRECTION('',(1.,0.,0.));
#1227=DIRECTION('',(0.,0.,1.));
#1228=DIRECTION('',(1.,0.,0.));
#1229=DIRECTION('',(0.,0.,1.));
#1230=DIRECTION('',(1.,0.,0.));
#1231=DIRECTION('',(0.,0.,1.));
#1232=DIRECTION('',(1.,0.,0.));
#1233=DIRECTION('',(0.,0.,1.));
#1234=DIRECTION('',(1.,0.,0.));
#1235=DIRECTION('',(0.,0.,1.));
#1236=DIRECTION('',(1.,0.,0.));
#1237=DIRECTION('',(0.,0.,1.));
#1238=DIRECTION('',(1.,0.,0.));
#1239=DIRECTION('',(0.,0.,-1.));
#1240=DIRECTION('',(-1.,0.,0.));
#1241=DIRECTION('',(0.,0.,-1.));
#1242=DIRECTION('',(-1.,0.,0.));
#1243=DIRECTION('',(0.,0.,-1.));
#1244=DIRECTION('',(-1.,0.,0.));
#1245=DIRECTION('',(0.,0.,-1.));
#1246=DIRECTION('',(-1.,0.,0.));
#1247=DIRECTION('',(0.,0.,-1.));
#1248=DIRECTION('',(-1.,0.,0.));
#1249=DIRECTION('',(0.,0.,-1.));
#1250=DIRECTION('',(-1.,0.,0.));
#1251=DIRECTION('',(0.,0.,-1.));
#1252=DIRECTION('',(-1.,0.,0.));
#1253=DIRECTION('',(0.,0.,-1.));
#1254=DIRECTION('',(-1.,0.,0.));
#1255=DIRECTION('',(0.,0.,-1.));
#1256=DIRECTION('',(-1.,0.,0.));
#1257=DIRECTION('',(0.,0.,-1.));
#1258=DIRECTION('',(-1.,0.,0.));
#1259=DIRECTION('',(0.,0.,-1.));
#1260=DIRECTION('',(-1.,0.,0.));
#1261=DIRECTION('',(0.,0.,-1.));
#1262=DIRECTION('',(-1.,0.,0.));
#1263=CARTESIAN_POINT('',(0.,0.,0.));
#1264=CARTESIAN_POINT('',(-0.0329955678841872,0.01905,0.020574));
#1265=CARTESIAN_POINT('',(-0.0329955678841872,0.01905,0.0127));
#1266=CARTESIAN_POINT('',(-0.0315985678841871,0.0214696749781737,0.0127));
#1267=CARTESIAN_POINT('',(-0.0329955678841872,0.01905,0.00635));
#1268=CARTESIAN_POINT('',(-0.0327607728282548,0.0218341169662407,0.00635));
#1269=CARTESIAN_POINT('',(-0.0352892863760928,0.0174546030337592,0.00635));
#1270=CARTESIAN_POINT('',(-0.0352892863760928,0.0174546030337592,0.00635));
#1271=CARTESIAN_POINT('',(-0.0355940976746608,0.0178928333468797,0.00635));
#1272=CARTESIAN_POINT('',(-0.0359374549636766,0.0189205748593999,0.00621891947153701));
#1273=CARTESIAN_POINT('',(-0.035549912323162,0.0205237039340407,0.00606466163286312));
#1274=CARTESIAN_POINT('',(-0.0343574690298122,0.0216612098217814,0.00621850119584315));
#1275=CARTESIAN_POINT('',(-0.0332926043849091,0.021878968321843,0.00635));
#1276=CARTESIAN_POINT('',(-0.0327607728282548,0.0218341169662407,0.00635));
#1277=CARTESIAN_POINT('',(-0.0329955678841871,-0.01905,0.020574));
#1278=CARTESIAN_POINT('',(-0.0329955678841871,-0.01905,0.0127));
#1279=CARTESIAN_POINT('',(-0.0343925678841871,-0.0166303250218263,0.0127));
#1280=CARTESIAN_POINT('',(-0.0329955678841871,-0.01905,0.00635));
#1281=CARTESIAN_POINT('',(-0.0352892863760927,-0.0174546030337593,0.00635));
#1282=CARTESIAN_POINT('',(-0.0327607728282548,-0.0218341169662408,0.00635));
#1283=CARTESIAN_POINT('',(-0.0327607728282548,-0.0218341169662408,0.00635));
#1284=CARTESIAN_POINT('',(-0.0332926970614095,-0.021878976137601,0.00635));
#1285=CARTESIAN_POINT('',(-0.0343544259642838,-0.0216624615162031,0.00621891947153702));
#1286=CARTESIAN_POINT('',(-0.0355490051482108,-0.0205252752071474,0.00606466163286314));
#1287=CARTESIAN_POINT('',(-0.0359378924972737,-0.0189238360786637,0.00621850119584315));
#1288=CARTESIAN_POINT('',(-0.0355940445677656,-0.0178927569945549,0.00635));
#1289=CARTESIAN_POINT('',(-0.0352892863760927,-0.0174546030337593,0.00635));
#1290=CARTESIAN_POINT('',(4.66590430475142E-18,-0.0381,0.020574));
#1291=CARTESIAN_POINT('',(4.66590430475142E-18,-0.0381,0.0127));
#1292=CARTESIAN_POINT('',(-0.002794,-0.0381,0.0127));
#1293=CARTESIAN_POINT('',(4.66590430475142E-18,-0.0381,0.00635));
#1294=CARTESIAN_POINT('',(-0.00252851354783794,-0.03928872,0.00635));
#1295=CARTESIAN_POINT('',(0.00252851354783795,-0.03928872,0.00635));
#1296=CARTESIAN_POINT('',(0.00252851354783795,-0.03928872,0.00635));
#1297=CARTESIAN_POINT('',(0.00230140061325117,-0.0397718094844807,0.00635));
#1298=CARTESIAN_POINT('',(0.00158302899939276,-0.040583036375603,0.00621891947153701));
#1299=CARTESIAN_POINT('',(9.07174951139491E-7,-0.0410489791411881,0.00606466163286313));
#1300=CARTESIAN_POINT('',(-0.00158042346746157,-0.0405850459004451,0.00621850119584315));
#1301=CARTESIAN_POINT('',(-0.00230144018285654,-0.039771725316398,0.00635));
#1302=CARTESIAN_POINT('',(-0.00252851354783794,-0.03928872,0.00635));
#1303=CARTESIAN_POINT('',(0.0329955678841871,-0.01905,0.020574));
#1304=CARTESIAN_POINT('',(0.0329955678841871,-0.01905,0.0127));
#1305=CARTESIAN_POINT('',(0.0315985678841871,-0.0214696749781737,0.0127));
#1306=CARTESIAN_POINT('',(0.0329955678841871,-0.01905,0.00635));
#1307=CARTESIAN_POINT('',(0.0327607728282548,-0.0218341169662407,0.00635));
#1308=CARTESIAN_POINT('',(0.0352892863760928,-0.0174546030337592,0.00635));
#1309=CARTESIAN_POINT('',(0.0352892863760928,-0.0174546030337592,0.00635));
#1310=CARTESIAN_POINT('',(0.0355940976746608,-0.0178928333468797,0.00635));
#1311=CARTESIAN_POINT('',(0.0359374549636765,-0.0189205748593999,0.00621891947153702));
#1312=CARTESIAN_POINT('',(0.035549912323162,-0.0205237039340407,0.00606466163286314));
#1313=CARTESIAN_POINT('',(0.0343574690298122,-0.0216612098217814,0.00621850119584314));
#1314=CARTESIAN_POINT('',(0.0332926043849091,-0.021878968321843,0.00635));
#1315=CARTESIAN_POINT('',(0.0327607728282548,-0.0218341169662407,0.00635));
#1316=CARTESIAN_POINT('',(0.0329955678841871,0.01905,0.020574));
#1317=CARTESIAN_POINT('',(0.0329955678841871,0.01905,0.0127));
#1318=CARTESIAN_POINT('',(0.0343925678841871,0.0166303250218263,0.0127));
#1319=CARTESIAN_POINT('',(0.0329955678841871,0.01905,0.00635));
#1320=CARTESIAN_POINT('',(0.0352892863760928,0.0174546030337593,0.00635));
#1321=CARTESIAN_POINT('',(0.0327607728282548,0.0218341169662408,0.00635));
#1322=CARTESIAN_POINT('',(0.0327607728282548,0.0218341169662408,0.00635));
#1323=CARTESIAN_POINT('',(0.0332926970614096,0.021878976137601,0.00635));
#1324=CARTESIAN_POINT('',(0.0343544259642838,0.0216624615162031,0.00621891947153702));
#1325=CARTESIAN_POINT('',(0.0355490051482108,0.0205252752071474,0.00606466163286313));
#1326=CARTESIAN_POINT('',(0.0359378924972737,0.0189238360786638,0.00621850119584314));
#1327=CARTESIAN_POINT('',(0.0355940445677656,0.017892756994555,0.00635));
#1328=CARTESIAN_POINT('',(0.0352892863760928,0.0174546030337593,0.00635));
#1329=CARTESIAN_POINT('',(0.,0.,0.0127));
#1330=CARTESIAN_POINT('',(0.,0.0381,0.0127));
#1331=CARTESIAN_POINT('',(0.002794,0.0381,0.0127));
#1332=CARTESIAN_POINT('',(0.,2.72177751110499E-18,0.0127));
#1333=CARTESIAN_POINT('',(-0.0432871299282483,0.0101008357364601,0.0127));
#1334=CARTESIAN_POINT('',(-0.0432871299282483,-0.0101008357364601,0.0127));
#1335=CARTESIAN_POINT('',(-0.0383400293650199,0.0089464545094361,0.0127));
#1336=CARTESIAN_POINT('',(-0.0359647131513164,0.0134369191719089,0.0127));
#1337=CARTESIAN_POINT('',(-0.0329955678841871,0.01905,0.0127));
#1338=CARTESIAN_POINT('',(-0.0296190699271295,0.0244278956429059,0.0127));
#1339=CARTESIAN_POINT('',(-0.0269178715614834,0.0287302121572306,0.0127));
#1340=CARTESIAN_POINT('',(-0.0303911453113523,0.0324373363065507,0.0127));
#1341=CARTESIAN_POINT('',(0.,2.72177751110499E-18,0.0127));
#1342=CARTESIAN_POINT('',(-0.012895984616896,0.0425381720430107,0.0127));
#1343=CARTESIAN_POINT('',(-0.0114221578035365,0.0376766666666666,0.0127));
#1344=CARTESIAN_POINT('',(-0.00634564322418692,0.0378648148148148,0.0127));
#1345=CARTESIAN_POINT('',(0.,0.0381,0.0127));
#1346=CARTESIAN_POINT('',(0.00634564322418692,0.0378648148148148,0.0127));
#1347=CARTESIAN_POINT('',(0.0114221578035365,0.0376766666666666,0.0127));
#1348=CARTESIAN_POINT('',(0.012895984616896,0.0425381720430107,0.0127));
#1349=CARTESIAN_POINT('',(0.,2.72177751110499E-18,0.0127));
#1350=CARTESIAN_POINT('',(0.0303911453113523,0.0324373363065506,0.0127));
#1351=CARTESIAN_POINT('',(0.0269178715614835,0.0287302121572305,0.0127));
#1352=CARTESIAN_POINT('',(0.0296190699271295,0.0244278956429058,0.0127));
#1353=CARTESIAN_POINT('',(0.0329955678841872,0.01905,0.0127));
#1354=CARTESIAN_POINT('',(0.0359647131513164,0.0134369191719089,0.0127));
#1355=CARTESIAN_POINT('',(0.0383400293650199,0.00894645450943605,0.0127));
#1356=CARTESIAN_POINT('',(0.0432871299282483,0.0101008357364601,0.0127));
#1357=CARTESIAN_POINT('',(0.,2.72177751110499E-18,0.0127));
#1358=CARTESIAN_POINT('',(0.0432871299282483,-0.0101008357364601,0.0127));
#1359=CARTESIAN_POINT('',(0.0383400293650199,-0.00894645450943611,0.0127));
#1360=CARTESIAN_POINT('',(0.0359647131513164,-0.013436919171909,0.0127));
#1361=CARTESIAN_POINT('',(0.0329955678841871,-0.01905,0.0127));
#1362=CARTESIAN_POINT('',(0.0296190699271295,-0.0244278956429059,0.0127));
#1363=CARTESIAN_POINT('',(0.0269178715614834,-0.0287302121572306,0.0127));
#1364=CARTESIAN_POINT('',(0.0303911453113523,-0.0324373363065507,0.0127));
#1365=CARTESIAN_POINT('',(0.,2.72177751110499E-18,0.0127));
#1366=CARTESIAN_POINT('',(0.012895984616896,-0.0425381720430107,0.0127));
#1367=CARTESIAN_POINT('',(0.0114221578035365,-0.0376766666666666,0.0127));
#1368=CARTESIAN_POINT('',(0.00634564322418692,-0.0378648148148148,0.0127));
#1369=CARTESIAN_POINT('',(-4.66590430475142E-18,-0.0381,0.0127));
#1370=CARTESIAN_POINT('',(-0.00634564322418693,-0.0378648148148148,0.0127));
#1371=CARTESIAN_POINT('',(-0.0114221578035365,-0.0376766666666666,0.0127));
#1372=CARTESIAN_POINT('',(-0.012895984616896,-0.0425381720430107,0.0127));
#1373=CARTESIAN_POINT('',(0.,2.72177751110499E-18,0.0127));
#1374=CARTESIAN_POINT('',(-0.0303911453113523,-0.0324373363065507,0.0127));
#1375=CARTESIAN_POINT('',(-0.0269178715614835,-0.0287302121572305,0.0127));
#1376=CARTESIAN_POINT('',(-0.0296190699271295,-0.0244278956429058,0.0127));
#1377=CARTESIAN_POINT('',(-0.0329955678841871,-0.01905,0.0127));
#1378=CARTESIAN_POINT('',(-0.0359647131513164,-0.0134369191719089,0.0127));
#1379=CARTESIAN_POINT('',(-0.0383400293650199,-0.00894645450943607,0.0127));
#1380=CARTESIAN_POINT('',(0.,6.15899368227187E-18,0.0127));
#1381=CARTESIAN_POINT('',(0.049784,6.15899368227187E-18,0.0127));
#1382=CARTESIAN_POINT('',(0.,2.72177751110499E-18,0.0127));
#1383=CARTESIAN_POINT('',(0.,2.72177751110499E-18,0.00127));
#1384=CARTESIAN_POINT('',(0.0432871299282483,0.0101008357364601,0.00127));
#1385=CARTESIAN_POINT('',(0.0303911453113523,0.0324373363065507,0.00127));
#1386=CARTESIAN_POINT('',(0.0303911453113523,0.0324373363065506,0.0127));
#1387=CARTESIAN_POINT('',(0.012895984616896,0.0425381720430107,0.0127));
#1388=CARTESIAN_POINT('',(0.012895984616896,0.0425381720430107,0.00127));
#1389=CARTESIAN_POINT('',(0.,2.72177751110499E-18,0.00127));
#1390=CARTESIAN_POINT('',(-0.012895984616896,0.0425381720430107,0.00127));
#1391=CARTESIAN_POINT('',(-0.012895984616896,0.0425381720430107,0.0127));
#1392=CARTESIAN_POINT('',(-0.0303911453113523,0.0324373363065507,0.0127));
#1393=CARTESIAN_POINT('',(-0.0303911453113523,0.0324373363065507,0.00127));
#1394=CARTESIAN_POINT('',(0.,2.72177751110499E-18,0.00127));
#1395=CARTESIAN_POINT('',(-0.0432871299282483,0.0101008357364601,0.00127));
#1396=CARTESIAN_POINT('',(-0.0432871299282483,0.0101008357364601,0.0127));
#1397=CARTESIAN_POINT('',(-0.0432871299282483,-0.0101008357364601,0.0127));
#1398=CARTESIAN_POINT('',(-0.0432871299282483,-0.0101008357364601,0.00127));
#1399=CARTESIAN_POINT('',(0.,2.72177751110499E-18,0.00127));
#1400=CARTESIAN_POINT('',(-0.0303911453113523,-0.0324373363065507,0.00127));
#1401=CARTESIAN_POINT('',(-0.0303911453113523,-0.0324373363065507,0.0127));
#1402=CARTESIAN_POINT('',(-0.012895984616896,-0.0425381720430107,0.0127));
#1403=CARTESIAN_POINT('',(-0.012895984616896,-0.0425381720430107,0.00127));
#1404=CARTESIAN_POINT('',(0.,2.72177751110499E-18,0.00127));
#1405=CARTESIAN_POINT('',(0.012895984616896,-0.0425381720430107,0.00127));
#1406=CARTESIAN_POINT('',(0.012895984616896,-0.0425381720430107,0.0127));
#1407=CARTESIAN_POINT('',(0.0303911453113522,-0.0324373363065507,0.0127));
#1408=CARTESIAN_POINT('',(0.0303911453113523,-0.0324373363065507,0.00127));
#1409=CARTESIAN_POINT('',(0.,2.72177751110499E-18,0.00127));
#1410=CARTESIAN_POINT('',(0.0432871299282483,-0.0101008357364601,0.00127));
#1411=CARTESIAN_POINT('',(0.0432871299282483,-0.0101008357364601,0.0127));
#1412=CARTESIAN_POINT('',(0.0432871299282483,0.0101008357364601,0.0127));
#1413=CARTESIAN_POINT('',(0.,2.72177751110499E-18,-0.00635));
#1414=CARTESIAN_POINT('',(0.04445,2.72177751110499E-18,-0.00635));
#1415=CARTESIAN_POINT('',(2.23345647532014E-17,-1.71303943252709E-17,0.0127));
#1416=CARTESIAN_POINT('',(2.23345647532014E-17,-1.71303943252709E-17,0.0127));
#1417=CARTESIAN_POINT('',(0.05715,-1.71303943252709E-17,0.0127));
#1418=CARTESIAN_POINT('',(2.23345647532014E-17,-1.71303943252709E-17,0.));
#1419=CARTESIAN_POINT('',(0.05715,-1.71303943252709E-17,0.));
#1420=CARTESIAN_POINT('',(0.,0.,0.0127));
#1421=CARTESIAN_POINT('',(0.,6.4700539692553E-18,0.0127));
#1422=CARTESIAN_POINT('',(0.054864,6.4700539692553E-18,0.0127));
#1423=CARTESIAN_POINT('',(0.,0.,0.));
#1424=CARTESIAN_POINT('',(0.,-3.0950498554851E-18,0.));
#1425=CARTESIAN_POINT('',(0.050546,-3.0950498554851E-18,0.));
#1426=CARTESIAN_POINT('',(6.93889390390723E-18,0.,0.00635));
#1427=CARTESIAN_POINT('',(0.,0.0381,0.00635));
#1428=CARTESIAN_POINT('',(-0.00634564322418692,0.0378648148148148,0.00635));
#1429=CARTESIAN_POINT('',(0.00634564322418692,0.0378648148148148,0.00635));
#1430=CARTESIAN_POINT('',(-0.0114221578035365,0.0376766666666666,0.00635));
#1431=CARTESIAN_POINT('',(-0.0064756949735324,0.038833777496012,0.00635));
#1432=CARTESIAN_POINT('',(0.,2.72177751110499E-18,0.00635));
#1433=CARTESIAN_POINT('',(-0.00252851354783794,0.03928872,0.00635));
#1434=CARTESIAN_POINT('',(0.,0.0381,0.00635));
#1435=CARTESIAN_POINT('',(0.00252851354783794,0.03928872,0.00635));
#1436=CARTESIAN_POINT('',(0.,2.72177751110499E-18,0.00635));
#1437=CARTESIAN_POINT('',(0.00647569497353242,0.038833777496012,0.00635));
#1438=CARTESIAN_POINT('',(0.0114221578035365,0.0376766666666666,0.00635));
#1439=CARTESIAN_POINT('',(0.,0.0381,0.00635));
#1440=CARTESIAN_POINT('',(-0.00634564322418693,0.0378648148148148,0.00635));
#1441=CARTESIAN_POINT('',(0.00634564322418692,0.0378648148148148,0.00635));
#1442=CARTESIAN_POINT('',(3.46944695195361E-18,-6.00925839494864E-18,0.00635));
#1443=CARTESIAN_POINT('',(0.0329955678841872,0.01905,0.00635));
#1444=CARTESIAN_POINT('',(0.0296190699271295,0.0244278956429058,0.00635));
#1445=CARTESIAN_POINT('',(0.0359647131513164,0.0134369191719089,0.00635));
#1446=CARTESIAN_POINT('',(0.0269178715614835,0.0287302121572305,0.00635));
#1447=CARTESIAN_POINT('',(0.0303931903496927,0.0250250051022443,0.00635));
#1448=CARTESIAN_POINT('',(0.,2.72177751110499E-18,0.00635));
#1449=CARTESIAN_POINT('',(0.,2.72177751110499E-18,0.00635));
#1450=CARTESIAN_POINT('',(0.036868885323225,0.0138087723937677,0.00635));
#1451=CARTESIAN_POINT('',(0.0383400293650199,0.00894645450943605,0.00635));
#1452=CARTESIAN_POINT('',(0.0329955678841872,0.01905,0.00635));
#1453=CARTESIAN_POINT('',(0.0296190699271295,0.0244278956429058,0.00635));
#1454=CARTESIAN_POINT('',(0.0359647131513164,0.0134369191719089,0.00635));
#1455=CARTESIAN_POINT('',(-3.46944695195361E-18,-6.00925839494864E-18,0.00635));
#1456=CARTESIAN_POINT('',(0.0329955678841871,-0.01905,0.00635));
#1457=CARTESIAN_POINT('',(0.0359647131513164,-0.013436919171909,0.00635));
#1458=CARTESIAN_POINT('',(0.0296190699271295,-0.0244278956429059,0.00635));
#1459=CARTESIAN_POINT('',(0.0383400293650199,-0.00894645450943611,0.00635));
#1460=CARTESIAN_POINT('',(0.036868885323225,-0.0138087723937678,0.00635));
#1461=CARTESIAN_POINT('',(0.,2.72177751110499E-18,0.00635));
#1462=CARTESIAN_POINT('',(0.,2.72177751110499E-18,0.00635));
#1463=CARTESIAN_POINT('',(0.0303931903496926,-0.0250250051022443,0.00635));
#1464=CARTESIAN_POINT('',(0.0269178715614834,-0.0287302121572306,0.00635));
#1465=CARTESIAN_POINT('',(0.0329955678841871,-0.01905,0.00635));
#1466=CARTESIAN_POINT('',(0.0359647131513164,-0.013436919171909,0.00635));
#1467=CARTESIAN_POINT('',(0.0296190699271295,-0.0244278956429059,0.00635));
#1468=CARTESIAN_POINT('',(-6.93889390390723E-18,8.49769420904307E-34,0.00635));
#1469=CARTESIAN_POINT('',(-4.66590430475142E-18,-0.0381,0.00635));
#1470=CARTESIAN_POINT('',(0.00634564322418692,-0.0378648148148148,0.00635));
#1471=CARTESIAN_POINT('',(-0.00634564322418693,-0.0378648148148148,0.00635));
#1472=CARTESIAN_POINT('',(0.0114221578035365,-0.0376766666666666,0.00635));
#1473=CARTESIAN_POINT('',(0.0064756949735324,-0.038833777496012,0.00635));
#1474=CARTESIAN_POINT('',(0.,2.72177751110499E-18,0.00635));
#1475=CARTESIAN_POINT('',(0.,2.72177751110499E-18,0.00635));
#1476=CARTESIAN_POINT('',(-0.00647569497353242,-0.038833777496012,0.00635));
#1477=CARTESIAN_POINT('',(-0.0114221578035365,-0.0376766666666666,0.00635));
#1478=CARTESIAN_POINT('',(-4.66590430475142E-18,-0.0381,0.00635));
#1479=CARTESIAN_POINT('',(0.00634564322418692,-0.0378648148148148,0.00635));
#1480=CARTESIAN_POINT('',(-0.00634564322418693,-0.0378648148148148,0.00635));
#1481=CARTESIAN_POINT('',(-3.46944695195361E-18,6.00925839494864E-18,0.00635));
#1482=CARTESIAN_POINT('',(-0.0329955678841871,-0.01905,0.00635));
#1483=CARTESIAN_POINT('',(-0.0296190699271295,-0.0244278956429058,0.00635));
#1484=CARTESIAN_POINT('',(-0.0359647131513164,-0.0134369191719089,0.00635));
#1485=CARTESIAN_POINT('',(-0.0269178715614835,-0.0287302121572305,0.00635));
#1486=CARTESIAN_POINT('',(-0.0303931903496927,-0.0250250051022443,0.00635));
#1487=CARTESIAN_POINT('',(0.,2.72177751110499E-18,0.00635));
#1488=CARTESIAN_POINT('',(0.,2.72177751110499E-18,0.00635));
#1489=CARTESIAN_POINT('',(-0.036868885323225,-0.0138087723937677,0.00635));
#1490=CARTESIAN_POINT('',(-0.0383400293650199,-0.00894645450943607,0.00635));
#1491=CARTESIAN_POINT('',(-0.0329955678841871,-0.01905,0.00635));
#1492=CARTESIAN_POINT('',(-0.0296190699271295,-0.0244278956429058,0.00635));
#1493=CARTESIAN_POINT('',(-0.0359647131513164,-0.0134369191719089,0.00635));
#1494=CARTESIAN_POINT('',(3.46944695195361E-18,6.00925839494864E-18,0.00635));
#1495=CARTESIAN_POINT('',(-0.0329955678841871,0.01905,0.00635));
#1496=CARTESIAN_POINT('',(-0.0359647131513164,0.0134369191719089,0.00635));
#1497=CARTESIAN_POINT('',(-0.0296190699271295,0.0244278956429059,0.00635));
#1498=CARTESIAN_POINT('',(-0.0383400293650199,0.0089464545094361,0.00635));
#1499=CARTESIAN_POINT('',(-0.036868885323225,0.0138087723937677,0.00635));
#1500=CARTESIAN_POINT('',(0.,2.72177751110499E-18,0.00635));
#1501=CARTESIAN_POINT('',(0.,2.72177751110499E-18,0.00635));
#1502=CARTESIAN_POINT('',(-0.0303931903496927,0.0250250051022443,0.00635));
#1503=CARTESIAN_POINT('',(-0.0269178715614834,0.0287302121572306,0.00635));
#1504=CARTESIAN_POINT('',(-0.0329955678841871,0.01905,0.00635));
#1505=CARTESIAN_POINT('',(-0.0359647131513164,0.0134369191719089,0.00635));
#1506=CARTESIAN_POINT('',(-0.0296190699271295,0.0244278956429059,0.00635));
#1507=CARTESIAN_POINT('',(0.,6.15899368227187E-18,0.010033));
#1508=CARTESIAN_POINT('',(0.,6.15899368227187E-18,0.010033));
#1509=CARTESIAN_POINT('',(0.049784,6.15899368227187E-18,0.010033));
#1510=CARTESIAN_POINT('',(0.,6.4700539692553E-18,0.010033));
#1511=CARTESIAN_POINT('',(0.,6.4700539692553E-18,0.010033));
#1512=CARTESIAN_POINT('',(0.054864,6.4700539692553E-18,0.010033));
#1513=CARTESIAN_POINT('',(2.08166817117217E-17,-1.38777878078145E-17,0.010033));
#1514=CARTESIAN_POINT('',(0.,0.0381,0.020574));
#1515=CARTESIAN_POINT('',(-0.00252851354783794,0.03928872,0.00635));
#1516=CARTESIAN_POINT('',(-0.00230140061325117,0.0397718094844807,0.00635));
#1517=CARTESIAN_POINT('',(-0.00158302899939276,0.040583036375603,0.00621891947153701));
#1518=CARTESIAN_POINT('',(-9.07174951134762E-7,0.0410489791411881,0.00606466163286313));
#1519=CARTESIAN_POINT('',(0.00158042346746158,0.0405850459004451,0.00621850119584315));
#1520=CARTESIAN_POINT('',(0.00230144018285654,0.039771725316398,0.00635));
#1521=CARTESIAN_POINT('',(0.00252851354783794,0.03928872,0.00635));
#1522=CARTESIAN_POINT('',(0.,-3.0950498554851E-18,-0.00635));
#1523=CARTESIAN_POINT('',(0.,-3.0950498554851E-18,-0.00635));
#1524=CARTESIAN_POINT('',(-0.050546,-3.0950498554851E-18,-0.00635));
#1525=CARTESIAN_POINT('',(6.93889390390723E-18,0.,-0.00635));
#1526=CARTESIAN_POINT('',(0.,2.72177751110499E-18,0.00127));
#1527=CARTESIAN_POINT('',(-0.0303931903496927,-0.0250250051022443,0.00635));
#1528=CARTESIAN_POINT('',(-0.0310073844532248,-0.0256010917489378,0.00635));
#1529=CARTESIAN_POINT('',(-0.0318883653868401,-0.0270248730448084,0.00591987652672701));
#1530=CARTESIAN_POINT('',(-0.032108495365028,-0.029189694939063,0.00457389490093503));
#1531=CARTESIAN_POINT('',(-0.0315667381136749,-0.0310416436290198,0.00297552228056103));
#1532=CARTESIAN_POINT('',(-0.0308308460605763,-0.0320253724745982,0.0018370621592134));
#1533=CARTESIAN_POINT('',(-0.0303911453113523,-0.0324373363065507,0.00127));
#1534=CARTESIAN_POINT('',(-0.036868885323225,-0.0138087723937677,0.00635));
#1535=CARTESIAN_POINT('',(-0.0376748880458087,-0.0140526367669344,0.00635));
#1536=CARTESIAN_POINT('',(-0.0393484092842728,-0.0141036979877621,0.00591987652672433));
#1537=CARTESIAN_POINT('',(-0.0413332650284626,-0.013211925193869,0.00457389490094448));
#1538=CARTESIAN_POINT('',(-0.0426662210147846,-0.0118167753065751,0.00297552228052602));
#1539=CARTESIAN_POINT('',(-0.0431502091589652,-0.0106876096712582,0.00183706215928883));
#1540=CARTESIAN_POINT('',(-0.0432871299282483,-0.0101008357364601,0.00127));
#1541=CARTESIAN_POINT('',(0.,2.72177751110499E-18,0.00127));
#1542=CARTESIAN_POINT('',(0.0064756949735324,-0.038833777496012,0.00635));
#1543=CARTESIAN_POINT('',(0.00666750359258397,-0.0396537285158722,0.00635));
#1544=CARTESIAN_POINT('',(0.00746004389742816,-0.0411285710325696,0.00591987652672122));
#1545=CARTESIAN_POINT('',(0.0092247696634509,-0.0424016201329351,0.0045738949009554));
#1546=CARTESIAN_POINT('',(0.0110994829010491,-0.0428584189355835,0.00297552228048559));
#1547=CARTESIAN_POINT('',(0.0123193630985193,-0.0427129821458811,0.00183706215937603));
#1548=CARTESIAN_POINT('',(0.012895984616896,-0.0425381720430107,0.00127));
#1549=CARTESIAN_POINT('',(-0.00647569497353242,-0.038833777496012,0.00635));
#1550=CARTESIAN_POINT('',(-0.00666750359258399,-0.0396537285158722,0.00635));
#1551=CARTESIAN_POINT('',(-0.00746004389743473,-0.0411285710325676,0.0059198765267285));
#1552=CARTESIAN_POINT('',(-0.00922476966342798,-0.042401620132942,0.00457389490092993));
#1553=CARTESIAN_POINT('',(-0.0110994829011343,-0.0428584189355576,0.00297552228058019));
#1554=CARTESIAN_POINT('',(-0.0123193630983358,-0.0427129821459368,0.00183706215917227));
#1555=CARTESIAN_POINT('',(-0.012895984616896,-0.0425381720430107,0.00127));
#1556=CARTESIAN_POINT('',(0.,2.72177751110499E-18,0.00127));
#1557=CARTESIAN_POINT('',(0.036868885323225,-0.0138087723937678,0.00635));
#1558=CARTESIAN_POINT('',(0.0376748880458087,-0.0140526367669344,0.00635));
#1559=CARTESIAN_POINT('',(0.0393484092842727,-0.0141036979877627,0.00591987652672374));
#1560=CARTESIAN_POINT('',(0.0413332650284631,-0.0132119251938672,0.00457389490094659));
#1561=CARTESIAN_POINT('',(0.0426662210147828,-0.0118167753065823,0.00297552228051823));
#1562=CARTESIAN_POINT('',(0.0431502091589688,-0.0106876096712429,0.00183706215930552));
#1563=CARTESIAN_POINT('',(0.0432871299282483,-0.0101008357364601,0.00127));
#1564=CARTESIAN_POINT('',(0.0303931903496926,-0.0250250051022443,0.00635));
#1565=CARTESIAN_POINT('',(0.0310073844532247,-0.0256010917489379,0.00635));
#1566=CARTESIAN_POINT('',(0.0318883653868403,-0.0270248730448082,0.00591987652672664));
#1567=CARTESIAN_POINT('',(0.0321084953650271,-0.0291896949390639,0.00457389490093639));
#1568=CARTESIAN_POINT('',(0.0315667381136783,-0.0310416436290167,0.00297552228055611));
#1569=CARTESIAN_POINT('',(0.030830846060569,-0.0320253724746051,0.00183706215922404));
#1570=CARTESIAN_POINT('',(0.0303911453113523,-0.0324373363065507,0.00127));
#1571=CARTESIAN_POINT('',(0.,2.72177751110499E-18,0.00127));
#1572=CARTESIAN_POINT('',(0.0303931903496927,0.0250250051022443,0.00635));
#1573=CARTESIAN_POINT('',(0.0310073844532248,0.0256010917489378,0.00635));
#1574=CARTESIAN_POINT('',(0.0318883653868407,0.0270248730448078,0.00591987652672609));
#1575=CARTESIAN_POINT('',(0.0321084953650258,0.0291896949390651,0.00457389490093832));
#1576=CARTESIAN_POINT('',(0.0315667381136833,0.031041643629012,0.00297552228054894));
#1577=CARTESIAN_POINT('',(0.0308308460605584,0.032025372474615,0.00183706215923949));
#1578=CARTESIAN_POINT('',(0.0303911453113523,0.0324373363065507,0.00127));
#1579=CARTESIAN_POINT('',(0.036868885323225,0.0138087723937677,0.00635));
#1580=CARTESIAN_POINT('',(0.0376748880458087,0.0140526367669343,0.00635));
#1581=CARTESIAN_POINT('',(0.039348409284273,0.0141036979877616,0.0059198765267248));
#1582=CARTESIAN_POINT('',(0.0413332650284623,0.0132119251938705,0.00457389490094283));
#1583=CARTESIAN_POINT('',(0.0426662210147858,0.0118167753065695,0.00297552228053216));
#1584=CARTESIAN_POINT('',(0.0431502091589625,0.0106876096712702,0.00183706215927566));
#1585=CARTESIAN_POINT('',(0.0432871299282483,0.0101008357364601,0.00127));
#1586=CARTESIAN_POINT('',(0.,2.72177751110499E-18,0.00127));
#1587=CARTESIAN_POINT('',(-0.0064756949735324,0.038833777496012,0.00635));
#1588=CARTESIAN_POINT('',(-0.00666750359258397,0.0396537285158722,0.00635));
#1589=CARTESIAN_POINT('',(-0.00746004389743038,0.041128571032569,0.00591987652672369));
#1590=CARTESIAN_POINT('',(-0.00922476966344312,0.0424016201329374,0.00457389490094675));
#1591=CARTESIAN_POINT('',(-0.011099482901078,0.0428584189355747,0.0029755222805177));
#1592=CARTESIAN_POINT('',(-0.012319363098457,0.0427129821459,0.00183706215930688));
#1593=CARTESIAN_POINT('',(-0.012895984616896,0.0425381720430107,0.00127));
#1594=CARTESIAN_POINT('',(0.00647569497353242,0.038833777496012,0.00635));
#1595=CARTESIAN_POINT('',(0.00666750359258399,0.0396537285158722,0.00635));
#1596=CARTESIAN_POINT('',(0.00746004389743299,0.0411285710325682,0.00591987652672657));
#1597=CARTESIAN_POINT('',(0.00922476966343407,0.0424016201329402,0.00457389490093668));
#1598=CARTESIAN_POINT('',(0.0110994829011117,0.0428584189355645,0.00297552228055511));
#1599=CARTESIAN_POINT('',(0.0123193630983845,0.042712982145922,0.00183706215922629));
#1600=CARTESIAN_POINT('',(0.012895984616896,0.0425381720430107,0.00127));
#1601=CARTESIAN_POINT('',(0.,2.72177751110499E-18,0.00127));
#1602=CARTESIAN_POINT('',(-0.036868885323225,0.0138087723937677,0.00635));
#1603=CARTESIAN_POINT('',(-0.0376748880458087,0.0140526367669344,0.00635));
#1604=CARTESIAN_POINT('',(-0.0393484092842736,0.0141036979877586,0.00591987652672814));
#1605=CARTESIAN_POINT('',(-0.0413332650284598,0.0132119251938813,0.00457389490093113));
#1606=CARTESIAN_POINT('',(-0.0426662210147951,0.0118167753065297,0.00297552228057557));
#1607=CARTESIAN_POINT('',(-0.0431502091589424,0.0106876096713561,0.00183706215918203));
#1608=CARTESIAN_POINT('',(-0.0432871299282483,0.0101008357364601,0.00127));
#1609=CARTESIAN_POINT('',(-0.0303931903496926,0.0250250051022443,0.00635));
#1610=CARTESIAN_POINT('',(-0.0310073844532247,0.0256010917489378,0.00635));
#1611=CARTESIAN_POINT('',(-0.0318883653868378,0.0270248730448105,0.00591987652673021));
#1612=CARTESIAN_POINT('',(-0.0321084953650357,0.0291896949390558,0.00457389490092387));
#1613=CARTESIAN_POINT('',(-0.0315667381136464,0.0310416436290466,0.0029755222806026));
#1614=CARTESIAN_POINT('',(-0.0308308460606377,0.0320253724745407,0.00183706215912395));
#1615=CARTESIAN_POINT('',(-0.0303911453113523,0.0324373363065507,0.00127));
#1616=CARTESIAN_POINT('',(0.0269178715614835,0.0287302121572305,0.0127));
#1617=CARTESIAN_POINT('',(0.0383400293650199,0.00894645450943605,0.00635));
#1618=CARTESIAN_POINT('',(0.0383400293650199,-0.00894645450943611,0.0127));
#1619=CARTESIAN_POINT('',(0.0269178715614834,-0.0287302121572306,0.00635));
#1620=CARTESIAN_POINT('',(0.0114221578035365,-0.0376766666666666,0.0127));
#1621=CARTESIAN_POINT('',(-0.0114221578035365,-0.0376766666666666,0.00635));
#1622=CARTESIAN_POINT('',(-0.0269178715614835,-0.0287302121572305,0.0127));
#1623=CARTESIAN_POINT('',(-0.0383400293650199,-0.00894645450943607,0.00635));
#1624=CARTESIAN_POINT('',(-0.0383400293650199,0.0089464545094361,0.0127));
#1625=CARTESIAN_POINT('',(-0.0269178715614834,0.0287302121572306,0.00635));
#1626=CARTESIAN_POINT('',(-0.0114221578035365,0.0376766666666666,0.0127));
#1627=CARTESIAN_POINT('',(0.0114221578035365,0.0376766666666666,0.00635));
#1628=MECHANICAL_DESIGN_GEOMETRIC_PRESENTATION_REPRESENTATION('',(#844),
#1629);
#1629=(
GEOMETRIC_REPRESENTATION_CONTEXT(3)
GLOBAL_UNCERTAINTY_ASSIGNED_CONTEXT((#1630))
GLOBAL_UNIT_ASSIGNED_CONTEXT((#1633,#1632,#1631))
REPRESENTATION_CONTEXT('Part 1','TOP_LEVEL_ASSEMBLY_PART')
);
#1630=UNCERTAINTY_MEASURE_WITH_UNIT(LENGTH_MEASURE(2.E-5),#1633,
'DISTANCE_ACCURACY_VALUE','Maximum Tolerance applied to model');
#1631=(
NAMED_UNIT(*)
SI_UNIT($,.STERADIAN.)
SOLID_ANGLE_UNIT()
);
#1632=(
NAMED_UNIT(*)
PLANE_ANGLE_UNIT()
SI_UNIT($,.RADIAN.)
);
#1633=(
LENGTH_UNIT()
NAMED_UNIT(*)
SI_UNIT($,.METRE.)
);
#1634=PRODUCT_DEFINITION_SHAPE('','',#1635);
#1635=PRODUCT_DEFINITION('','',#1637,#1636);
#1636=PRODUCT_DEFINITION_CONTEXT('',#1643,'design');
#1637=PRODUCT_DEFINITION_FORMATION_WITH_SPECIFIED_SOURCE('','',#1639,
 .NOT_KNOWN.);
#1638=PRODUCT_RELATED_PRODUCT_CATEGORY('','',(#1639));
#1639=PRODUCT('Part 1','Part 1','Part 1',(#1641));
#1640=PRODUCT_CATEGORY('','');
#1641=PRODUCT_CONTEXT('',#1643,'mechanical');
#1642=APPLICATION_PROTOCOL_DEFINITION('international standard',
'ap242_managed_model_based_3d_engineering',2020,#1643);
#1643=APPLICATION_CONTEXT('managed model based 3d engineering');
ENDSEC;
END-ISO-10303-21;
