ISO-10303-21;
HEADER;
/* Generated by software containing ST-Developer
 * from STEP Tools, Inc. (www.steptools.com) 
 */
/* OPTION: using custom renumber hook */

FILE_DESCRIPTION(
/* description */ ('STEP AP242 Edition 2',
'CAx-IF Rec.Pracs.---Representation and Presentation of Product Manufa
cturing Information (PMI)---4.0---2014-10-13',
'CAx-IF Rec.Pracs.---3D Tessellated Geometry---0.4---2014-09-14','2;1',
'CAx-IF Rec.Pracs.---User Defined Attributes---1.5---2016-08-15'),
/* implementation_level */ '2;1');

FILE_NAME(
/* name */ 'Full Print Body Upper - Part 1',
/* time_stamp */ '2026-08-16T03:11:18Z',
/* author */ (''),
/* organization */ (''),
/* preprocessor_version */ 'ST-DEVELOPER v20',
/* originating_system */ 'ONSHAPE BY PTC INC, 1.219',
/* authorisation */ '  ');

FILE_SCHEMA (('AP242_MANAGED_MODEL_BASED_3D_ENGINEERING_MIM_LF { 1 0 10303 442 3 1 4 }'));
ENDSEC;

DATA;
#10=SHAPE_REPRESENTATION_RELATIONSHIP('','',#845,#11);
#11=ADVANCED_BREP_SHAPE_REPRESENTATION('',(#843),#1615);
#12=CONICAL_SURFACE('',#972,0.050546,0.785398163397448);
#13=TOROIDAL_SURFACE('',#953,0.03937,0.00508);
#14=TOROIDAL_SURFACE('',#954,0.03937,0.00508);
#15=TOROIDAL_SURFACE('',#955,0.03937,0.00508);
#16=TOROIDAL_SURFACE('',#956,0.03937,0.00508);
#17=TOROIDAL_SURFACE('',#957,0.03937,0.00508);
#18=TOROIDAL_SURFACE('',#958,0.03937,0.00508);
#19=PLANE('',#876);
#20=PLANE('',#900);
#21=PLANE('',#902);
#22=PLANE('',#910);
#23=PLANE('',#917);
#24=PLANE('',#924);
#25=PLANE('',#931);
#26=PLANE('',#938);
#27=PLANE('',#949);
#28=PLANE('',#951);
#29=PLANE('',#971);
#30=B_SPLINE_CURVE_WITH_KNOTS('',3,(#1309,#1310,#1311,#1312,#1313,#1314,
#1315),.UNSPECIFIED.,.F.,.F.,(4,1,1,1,4),(0.,0.00157714420697107,0.00315428841394213,
0.0047314326209132,0.00630857682788427),.UNSPECIFIED.);
#31=B_SPLINE_CURVE_WITH_KNOTS('',3,(#1322,#1323,#1324,#1325,#1326,#1327,
#1328),.UNSPECIFIED.,.F.,.F.,(4,1,1,1,4),(0.,0.00157714420697107,0.00315428841394214,
0.0047314326209132,0.00630857682788427),.UNSPECIFIED.);
#32=B_SPLINE_CURVE_WITH_KNOTS('',3,(#1335,#1336,#1337,#1338,#1339,#1340,
#1341),.UNSPECIFIED.,.F.,.F.,(4,1,1,1,4),(0.,0.00157714420697105,0.0031542884139421,
0.00473143262091316,0.00630857682788421),.UNSPECIFIED.);
#33=B_SPLINE_CURVE_WITH_KNOTS('',3,(#1348,#1349,#1350,#1351,#1352,#1353,
#1354),.UNSPECIFIED.,.F.,.F.,(4,1,1,1,4),(0.,0.00157714420697107,0.00315428841394213,
0.0047314326209132,0.00630857682788426),.UNSPECIFIED.);
#34=B_SPLINE_CURVE_WITH_KNOTS('',3,(#1361,#1362,#1363,#1364,#1365,#1366,
#1367),.UNSPECIFIED.,.F.,.F.,(4,1,1,1,4),(0.,0.00157714420697104,0.00315428841394207,
0.00473143262091311,0.00630857682788414),.UNSPECIFIED.);
#35=B_SPLINE_CURVE_WITH_KNOTS('',3,(#1500,#1501,#1502,#1503,#1504,#1505,
#1506),.UNSPECIFIED.,.F.,.F.,(4,1,1,1,4),(0.,0.00157714420697105,0.0031542884139421,
0.00473143262091315,0.00630857682788421),.UNSPECIFIED.);
#36=B_SPLINE_CURVE_WITH_KNOTS('',3,(#1511,#1512,#1513,#1514,#1515,#1516,
#1517),.UNSPECIFIED.,.F.,.F.,(4,1,1,1,4),(0.,0.00248223490226364,0.00496446980452728,
0.00744670470679091,0.00992893960905455),.UNSPECIFIED.);
#37=B_SPLINE_CURVE_WITH_KNOTS('',3,(#1518,#1519,#1520,#1521,#1522,#1523,
#1524),.UNSPECIFIED.,.F.,.F.,(4,1,1,1,4),(0.,0.00248223490226363,0.00496446980452727,
0.0074467047067909,0.00992893960905454),.UNSPECIFIED.);
#38=B_SPLINE_CURVE_WITH_KNOTS('',3,(#1526,#1527,#1528,#1529,#1530,#1531,
#1532),.UNSPECIFIED.,.F.,.F.,(4,1,1,1,4),(0.,0.00248223490226363,0.00496446980452727,
0.0074467047067909,0.00992893960905454),.UNSPECIFIED.);
#39=B_SPLINE_CURVE_WITH_KNOTS('',3,(#1533,#1534,#1535,#1536,#1537,#1538,
#1539),.UNSPECIFIED.,.F.,.F.,(4,1,1,1,4),(0.,0.00248223490226363,0.00496446980452727,
0.0074467047067909,0.00992893960905453),.UNSPECIFIED.);
#40=B_SPLINE_CURVE_WITH_KNOTS('',3,(#1541,#1542,#1543,#1544,#1545,#1546,
#1547),.UNSPECIFIED.,.F.,.F.,(4,1,1,1,4),(0.,0.00248223490226365,0.0049644698045273,
0.00744670470679094,0.00992893960905459),.UNSPECIFIED.);
#41=B_SPLINE_CURVE_WITH_KNOTS('',3,(#1548,#1549,#1550,#1551,#1552,#1553,
#1554),.UNSPECIFIED.,.F.,.F.,(4,1,1,1,4),(0.,0.00248223490226363,0.00496446980452725,
0.00744670470679088,0.00992893960905451),.UNSPECIFIED.);
#42=B_SPLINE_CURVE_WITH_KNOTS('',3,(#1556,#1557,#1558,#1559,#1560,#1561,
#1562),.UNSPECIFIED.,.F.,.F.,(4,1,1,1,4),(0.,0.00248223490226363,0.00496446980452726,
0.00744670470679088,0.00992893960905451),.UNSPECIFIED.);
#43=B_SPLINE_CURVE_WITH_KNOTS('',3,(#1563,#1564,#1565,#1566,#1567,#1568,
#1569),.UNSPECIFIED.,.F.,.F.,(4,1,1,1,4),(0.,0.00248223490226364,0.00496446980452728,
0.00744670470679092,0.00992893960905455),.UNSPECIFIED.);
#44=B_SPLINE_CURVE_WITH_KNOTS('',3,(#1571,#1572,#1573,#1574,#1575,#1576,
#1577),.UNSPECIFIED.,.F.,.F.,(4,1,1,1,4),(0.,0.00248223490226364,0.00496446980452727,
0.00744670470679091,0.00992893960905454),.UNSPECIFIED.);
#45=B_SPLINE_CURVE_WITH_KNOTS('',3,(#1578,#1579,#1580,#1581,#1582,#1583,
#1584),.UNSPECIFIED.,.F.,.F.,(4,1,1,1,4),(0.,0.00248223490226364,0.00496446980452727,
0.00744670470679091,0.00992893960905454),.UNSPECIFIED.);
#46=B_SPLINE_CURVE_WITH_KNOTS('',3,(#1586,#1587,#1588,#1589,#1590,#1591,
#1592),.UNSPECIFIED.,.F.,.F.,(4,1,1,1,4),(0.,0.00248223490226364,0.00496446980452727,
0.00744670470679091,0.00992893960905454),.UNSPECIFIED.);
#47=B_SPLINE_CURVE_WITH_KNOTS('',3,(#1593,#1594,#1595,#1596,#1597,#1598,
#1599),.UNSPECIFIED.,.F.,.F.,(4,1,1,1,4),(6.80754649538421E-17,0.00248223490226369,
0.00496446980452731,0.00744670470679093,0.00992893960905455),
 .UNSPECIFIED.);
#48=LINE('',#1256,#72);
#49=LINE('',#1260,#73);
#50=LINE('',#1264,#74);
#51=LINE('',#1268,#75);
#52=LINE('',#1272,#76);
#53=LINE('',#1276,#77);
#54=LINE('',#1280,#78);
#55=LINE('',#1284,#79);
#56=LINE('',#1288,#80);
#57=LINE('',#1292,#81);
#58=LINE('',#1296,#82);
#59=LINE('',#1300,#83);
#60=LINE('',#1425,#84);
#61=LINE('',#1426,#85);
#62=LINE('',#1438,#86);
#63=LINE('',#1439,#87);
#64=LINE('',#1451,#88);
#65=LINE('',#1452,#89);
#66=LINE('',#1464,#90);
#67=LINE('',#1465,#91);
#68=LINE('',#1477,#92);
#69=LINE('',#1478,#93);
#70=LINE('',#1490,#94);
#71=LINE('',#1491,#95);
#72=VECTOR('',#979,1.);
#73=VECTOR('',#982,1.);
#74=VECTOR('',#985,1.);
#75=VECTOR('',#988,1.);
#76=VECTOR('',#991,1.);
#77=VECTOR('',#994,1.);
#78=VECTOR('',#997,1.);
#79=VECTOR('',#1000,1.);
#80=VECTOR('',#1003,1.);
#81=VECTOR('',#1006,1.);
#82=VECTOR('',#1009,1.);
#83=VECTOR('',#1012,1.);
#84=VECTOR('',#1113,1.);
#85=VECTOR('',#1114,1.);
#86=VECTOR('',#1129,1.);
#87=VECTOR('',#1130,1.);
#88=VECTOR('',#1145,1.);
#89=VECTOR('',#1146,1.);
#90=VECTOR('',#1161,1.);
#91=VECTOR('',#1162,1.);
#92=VECTOR('',#1177,1.);
#93=VECTOR('',#1178,1.);
#94=VECTOR('',#1193,1.);
#95=VECTOR('',#1194,1.);
#96=ORIENTED_EDGE('',*,*,#340,.T.);
#97=ORIENTED_EDGE('',*,*,#341,.T.);
#98=ORIENTED_EDGE('',*,*,#342,.T.);
#99=ORIENTED_EDGE('',*,*,#343,.T.);
#100=ORIENTED_EDGE('',*,*,#344,.T.);
#101=ORIENTED_EDGE('',*,*,#345,.T.);
#102=ORIENTED_EDGE('',*,*,#346,.T.);
#103=ORIENTED_EDGE('',*,*,#347,.T.);
#104=ORIENTED_EDGE('',*,*,#348,.T.);
#105=ORIENTED_EDGE('',*,*,#349,.T.);
#106=ORIENTED_EDGE('',*,*,#350,.T.);
#107=ORIENTED_EDGE('',*,*,#351,.T.);
#108=ORIENTED_EDGE('',*,*,#352,.T.);
#109=ORIENTED_EDGE('',*,*,#353,.T.);
#110=ORIENTED_EDGE('',*,*,#354,.T.);
#111=ORIENTED_EDGE('',*,*,#355,.T.);
#112=ORIENTED_EDGE('',*,*,#356,.T.);
#113=ORIENTED_EDGE('',*,*,#357,.T.);
#114=ORIENTED_EDGE('',*,*,#358,.T.);
#115=ORIENTED_EDGE('',*,*,#359,.T.);
#116=ORIENTED_EDGE('',*,*,#360,.T.);
#117=ORIENTED_EDGE('',*,*,#361,.T.);
#118=ORIENTED_EDGE('',*,*,#362,.T.);
#119=ORIENTED_EDGE('',*,*,#363,.T.);
#120=ORIENTED_EDGE('',*,*,#364,.F.);
#121=ORIENTED_EDGE('',*,*,#365,.T.);
#122=ORIENTED_EDGE('',*,*,#366,.T.);
#123=ORIENTED_EDGE('',*,*,#367,.T.);
#124=ORIENTED_EDGE('',*,*,#368,.T.);
#125=ORIENTED_EDGE('',*,*,#369,.T.);
#126=ORIENTED_EDGE('',*,*,#370,.T.);
#127=ORIENTED_EDGE('',*,*,#371,.T.);
#128=ORIENTED_EDGE('',*,*,#372,.T.);
#129=ORIENTED_EDGE('',*,*,#373,.T.);
#130=ORIENTED_EDGE('',*,*,#374,.T.);
#131=ORIENTED_EDGE('',*,*,#375,.T.);
#132=ORIENTED_EDGE('',*,*,#376,.T.);
#133=ORIENTED_EDGE('',*,*,#377,.T.);
#134=ORIENTED_EDGE('',*,*,#378,.T.);
#135=ORIENTED_EDGE('',*,*,#379,.T.);
#136=ORIENTED_EDGE('',*,*,#365,.F.);
#137=ORIENTED_EDGE('',*,*,#368,.F.);
#138=ORIENTED_EDGE('',*,*,#371,.F.);
#139=ORIENTED_EDGE('',*,*,#374,.F.);
#140=ORIENTED_EDGE('',*,*,#377,.F.);
#141=ORIENTED_EDGE('',*,*,#380,.F.);
#142=ORIENTED_EDGE('',*,*,#350,.F.);
#143=ORIENTED_EDGE('',*,*,#381,.T.);
#144=ORIENTED_EDGE('',*,*,#382,.T.);
#145=ORIENTED_EDGE('',*,*,#383,.T.);
#146=ORIENTED_EDGE('',*,*,#346,.F.);
#147=ORIENTED_EDGE('',*,*,#384,.T.);
#148=ORIENTED_EDGE('',*,*,#385,.T.);
#149=ORIENTED_EDGE('',*,*,#386,.T.);
#150=ORIENTED_EDGE('',*,*,#342,.F.);
#151=ORIENTED_EDGE('',*,*,#387,.T.);
#152=ORIENTED_EDGE('',*,*,#388,.T.);
#153=ORIENTED_EDGE('',*,*,#389,.T.);
#154=ORIENTED_EDGE('',*,*,#362,.F.);
#155=ORIENTED_EDGE('',*,*,#390,.T.);
#156=ORIENTED_EDGE('',*,*,#391,.T.);
#157=ORIENTED_EDGE('',*,*,#392,.T.);
#158=ORIENTED_EDGE('',*,*,#358,.F.);
#159=ORIENTED_EDGE('',*,*,#393,.T.);
#160=ORIENTED_EDGE('',*,*,#394,.T.);
#161=ORIENTED_EDGE('',*,*,#395,.T.);
#162=ORIENTED_EDGE('',*,*,#354,.F.);
#163=ORIENTED_EDGE('',*,*,#396,.T.);
#164=ORIENTED_EDGE('',*,*,#397,.T.);
#165=ORIENTED_EDGE('',*,*,#398,.T.);
#166=ORIENTED_EDGE('',*,*,#399,.T.);
#167=ORIENTED_EDGE('',*,*,#400,.T.);
#168=ORIENTED_EDGE('',*,*,#401,.F.);
#169=ORIENTED_EDGE('',*,*,#402,.F.);
#170=ORIENTED_EDGE('',*,*,#401,.T.);
#171=ORIENTED_EDGE('',*,*,#403,.F.);
#172=ORIENTED_EDGE('',*,*,#404,.T.);
#173=ORIENTED_EDGE('',*,*,#405,.T.);
#174=ORIENTED_EDGE('',*,*,#406,.F.);
#175=ORIENTED_EDGE('',*,*,#407,.T.);
#176=ORIENTED_EDGE('',*,*,#408,.T.);
#177=ORIENTED_EDGE('',*,*,#385,.F.);
#178=ORIENTED_EDGE('',*,*,#409,.T.);
#179=ORIENTED_EDGE('',*,*,#403,.T.);
#180=ORIENTED_EDGE('',*,*,#410,.T.);
#181=ORIENTED_EDGE('',*,*,#411,.F.);
#182=ORIENTED_EDGE('',*,*,#412,.T.);
#183=ORIENTED_EDGE('',*,*,#413,.T.);
#184=ORIENTED_EDGE('',*,*,#378,.F.);
#185=ORIENTED_EDGE('',*,*,#414,.T.);
#186=ORIENTED_EDGE('',*,*,#415,.T.);
#187=ORIENTED_EDGE('',*,*,#388,.F.);
#188=ORIENTED_EDGE('',*,*,#416,.T.);
#189=ORIENTED_EDGE('',*,*,#411,.T.);
#190=ORIENTED_EDGE('',*,*,#417,.T.);
#191=ORIENTED_EDGE('',*,*,#418,.F.);
#192=ORIENTED_EDGE('',*,*,#419,.T.);
#193=ORIENTED_EDGE('',*,*,#420,.T.);
#194=ORIENTED_EDGE('',*,*,#375,.F.);
#195=ORIENTED_EDGE('',*,*,#421,.T.);
#196=ORIENTED_EDGE('',*,*,#422,.T.);
#197=ORIENTED_EDGE('',*,*,#391,.F.);
#198=ORIENTED_EDGE('',*,*,#423,.T.);
#199=ORIENTED_EDGE('',*,*,#418,.T.);
#200=ORIENTED_EDGE('',*,*,#424,.T.);
#201=ORIENTED_EDGE('',*,*,#425,.F.);
#202=ORIENTED_EDGE('',*,*,#426,.T.);
#203=ORIENTED_EDGE('',*,*,#427,.T.);
#204=ORIENTED_EDGE('',*,*,#372,.F.);
#205=ORIENTED_EDGE('',*,*,#428,.T.);
#206=ORIENTED_EDGE('',*,*,#429,.T.);
#207=ORIENTED_EDGE('',*,*,#394,.F.);
#208=ORIENTED_EDGE('',*,*,#430,.T.);
#209=ORIENTED_EDGE('',*,*,#425,.T.);
#210=ORIENTED_EDGE('',*,*,#431,.T.);
#211=ORIENTED_EDGE('',*,*,#432,.F.);
#212=ORIENTED_EDGE('',*,*,#433,.T.);
#213=ORIENTED_EDGE('',*,*,#434,.T.);
#214=ORIENTED_EDGE('',*,*,#369,.F.);
#215=ORIENTED_EDGE('',*,*,#435,.T.);
#216=ORIENTED_EDGE('',*,*,#436,.T.);
#217=ORIENTED_EDGE('',*,*,#397,.F.);
#218=ORIENTED_EDGE('',*,*,#437,.T.);
#219=ORIENTED_EDGE('',*,*,#432,.T.);
#220=ORIENTED_EDGE('',*,*,#438,.T.);
#221=ORIENTED_EDGE('',*,*,#439,.F.);
#222=ORIENTED_EDGE('',*,*,#440,.T.);
#223=ORIENTED_EDGE('',*,*,#441,.T.);
#224=ORIENTED_EDGE('',*,*,#366,.F.);
#225=ORIENTED_EDGE('',*,*,#442,.T.);
#226=ORIENTED_EDGE('',*,*,#443,.T.);
#227=ORIENTED_EDGE('',*,*,#382,.F.);
#228=ORIENTED_EDGE('',*,*,#444,.T.);
#229=ORIENTED_EDGE('',*,*,#439,.T.);
#230=ORIENTED_EDGE('',*,*,#445,.T.);
#231=ORIENTED_EDGE('',*,*,#446,.T.);
#232=ORIENTED_EDGE('',*,*,#399,.F.);
#233=ORIENTED_EDGE('',*,*,#447,.F.);
#234=ORIENTED_EDGE('',*,*,#402,.T.);
#235=ORIENTED_EDGE('',*,*,#446,.F.);
#236=ORIENTED_EDGE('',*,*,#447,.T.);
#237=ORIENTED_EDGE('',*,*,#380,.T.);
#238=ORIENTED_EDGE('',*,*,#406,.T.);
#239=ORIENTED_EDGE('',*,*,#448,.T.);
#240=ORIENTED_EDGE('',*,*,#449,.T.);
#241=ORIENTED_EDGE('',*,*,#370,.F.);
#242=ORIENTED_EDGE('',*,*,#434,.F.);
#243=ORIENTED_EDGE('',*,*,#450,.T.);
#244=ORIENTED_EDGE('',*,*,#352,.F.);
#245=ORIENTED_EDGE('',*,*,#451,.T.);
#246=ORIENTED_EDGE('',*,*,#435,.F.);
#247=ORIENTED_EDGE('',*,*,#373,.F.);
#248=ORIENTED_EDGE('',*,*,#427,.F.);
#249=ORIENTED_EDGE('',*,*,#452,.T.);
#250=ORIENTED_EDGE('',*,*,#356,.F.);
#251=ORIENTED_EDGE('',*,*,#453,.T.);
#252=ORIENTED_EDGE('',*,*,#428,.F.);
#253=ORIENTED_EDGE('',*,*,#376,.F.);
#254=ORIENTED_EDGE('',*,*,#420,.F.);
#255=ORIENTED_EDGE('',*,*,#454,.T.);
#256=ORIENTED_EDGE('',*,*,#360,.F.);
#257=ORIENTED_EDGE('',*,*,#455,.T.);
#258=ORIENTED_EDGE('',*,*,#421,.F.);
#259=ORIENTED_EDGE('',*,*,#379,.F.);
#260=ORIENTED_EDGE('',*,*,#413,.F.);
#261=ORIENTED_EDGE('',*,*,#456,.T.);
#262=ORIENTED_EDGE('',*,*,#340,.F.);
#263=ORIENTED_EDGE('',*,*,#457,.T.);
#264=ORIENTED_EDGE('',*,*,#414,.F.);
#265=ORIENTED_EDGE('',*,*,#448,.F.);
#266=ORIENTED_EDGE('',*,*,#405,.F.);
#267=ORIENTED_EDGE('',*,*,#458,.T.);
#268=ORIENTED_EDGE('',*,*,#344,.F.);
#269=ORIENTED_EDGE('',*,*,#459,.T.);
#270=ORIENTED_EDGE('',*,*,#407,.F.);
#271=ORIENTED_EDGE('',*,*,#367,.F.);
#272=ORIENTED_EDGE('',*,*,#441,.F.);
#273=ORIENTED_EDGE('',*,*,#460,.T.);
#274=ORIENTED_EDGE('',*,*,#348,.F.);
#275=ORIENTED_EDGE('',*,*,#461,.T.);
#276=ORIENTED_EDGE('',*,*,#442,.F.);
#277=ORIENTED_EDGE('',*,*,#387,.F.);
#278=ORIENTED_EDGE('',*,*,#341,.F.);
#279=ORIENTED_EDGE('',*,*,#456,.F.);
#280=ORIENTED_EDGE('',*,*,#412,.F.);
#281=ORIENTED_EDGE('',*,*,#416,.F.);
#282=ORIENTED_EDGE('',*,*,#389,.F.);
#283=ORIENTED_EDGE('',*,*,#417,.F.);
#284=ORIENTED_EDGE('',*,*,#415,.F.);
#285=ORIENTED_EDGE('',*,*,#457,.F.);
#286=ORIENTED_EDGE('',*,*,#363,.F.);
#287=ORIENTED_EDGE('',*,*,#390,.F.);
#288=ORIENTED_EDGE('',*,*,#361,.F.);
#289=ORIENTED_EDGE('',*,*,#454,.F.);
#290=ORIENTED_EDGE('',*,*,#419,.F.);
#291=ORIENTED_EDGE('',*,*,#423,.F.);
#292=ORIENTED_EDGE('',*,*,#392,.F.);
#293=ORIENTED_EDGE('',*,*,#424,.F.);
#294=ORIENTED_EDGE('',*,*,#422,.F.);
#295=ORIENTED_EDGE('',*,*,#455,.F.);
#296=ORIENTED_EDGE('',*,*,#359,.F.);
#297=ORIENTED_EDGE('',*,*,#393,.F.);
#298=ORIENTED_EDGE('',*,*,#357,.F.);
#299=ORIENTED_EDGE('',*,*,#452,.F.);
#300=ORIENTED_EDGE('',*,*,#426,.F.);
#301=ORIENTED_EDGE('',*,*,#430,.F.);
#302=ORIENTED_EDGE('',*,*,#395,.F.);
#303=ORIENTED_EDGE('',*,*,#431,.F.);
#304=ORIENTED_EDGE('',*,*,#429,.F.);
#305=ORIENTED_EDGE('',*,*,#453,.F.);
#306=ORIENTED_EDGE('',*,*,#355,.F.);
#307=ORIENTED_EDGE('',*,*,#396,.F.);
#308=ORIENTED_EDGE('',*,*,#353,.F.);
#309=ORIENTED_EDGE('',*,*,#450,.F.);
#310=ORIENTED_EDGE('',*,*,#433,.F.);
#311=ORIENTED_EDGE('',*,*,#437,.F.);
#312=ORIENTED_EDGE('',*,*,#398,.F.);
#313=ORIENTED_EDGE('',*,*,#438,.F.);
#314=ORIENTED_EDGE('',*,*,#436,.F.);
#315=ORIENTED_EDGE('',*,*,#451,.F.);
#316=ORIENTED_EDGE('',*,*,#351,.F.);
#317=ORIENTED_EDGE('',*,*,#381,.F.);
#318=ORIENTED_EDGE('',*,*,#349,.F.);
#319=ORIENTED_EDGE('',*,*,#460,.F.);
#320=ORIENTED_EDGE('',*,*,#440,.F.);
#321=ORIENTED_EDGE('',*,*,#444,.F.);
#322=ORIENTED_EDGE('',*,*,#383,.F.);
#323=ORIENTED_EDGE('',*,*,#445,.F.);
#324=ORIENTED_EDGE('',*,*,#443,.F.);
#325=ORIENTED_EDGE('',*,*,#461,.F.);
#326=ORIENTED_EDGE('',*,*,#347,.F.);
#327=ORIENTED_EDGE('',*,*,#384,.F.);
#328=ORIENTED_EDGE('',*,*,#345,.F.);
#329=ORIENTED_EDGE('',*,*,#458,.F.);
#330=ORIENTED_EDGE('',*,*,#404,.F.);
#331=ORIENTED_EDGE('',*,*,#409,.F.);
#332=ORIENTED_EDGE('',*,*,#386,.F.);
#333=ORIENTED_EDGE('',*,*,#410,.F.);
#334=ORIENTED_EDGE('',*,*,#408,.F.);
#335=ORIENTED_EDGE('',*,*,#459,.F.);
#336=ORIENTED_EDGE('',*,*,#343,.F.);
#337=ORIENTED_EDGE('',*,*,#364,.T.);
#338=ORIENTED_EDGE('',*,*,#400,.F.);
#339=ORIENTED_EDGE('',*,*,#449,.F.);
#340=EDGE_CURVE('',#462,#463,#548,.T.);
#341=EDGE_CURVE('',#463,#464,#48,.F.);
#342=EDGE_CURVE('',#464,#465,#549,.T.);
#343=EDGE_CURVE('',#465,#466,#49,.T.);
#344=EDGE_CURVE('',#466,#467,#550,.T.);
#345=EDGE_CURVE('',#467,#468,#50,.F.);
#346=EDGE_CURVE('',#468,#469,#551,.T.);
#347=EDGE_CURVE('',#469,#470,#51,.T.);
#348=EDGE_CURVE('',#470,#471,#552,.T.);
#349=EDGE_CURVE('',#471,#472,#52,.F.);
#350=EDGE_CURVE('',#472,#473,#553,.T.);
#351=EDGE_CURVE('',#473,#474,#53,.T.);
#352=EDGE_CURVE('',#474,#475,#554,.T.);
#353=EDGE_CURVE('',#475,#476,#54,.F.);
#354=EDGE_CURVE('',#476,#477,#555,.T.);
#355=EDGE_CURVE('',#477,#478,#55,.T.);
#356=EDGE_CURVE('',#478,#479,#556,.T.);
#357=EDGE_CURVE('',#479,#480,#56,.F.);
#358=EDGE_CURVE('',#480,#481,#557,.T.);
#359=EDGE_CURVE('',#481,#482,#57,.T.);
#360=EDGE_CURVE('',#482,#483,#558,.T.);
#361=EDGE_CURVE('',#483,#484,#58,.F.);
#362=EDGE_CURVE('',#484,#485,#559,.T.);
#363=EDGE_CURVE('',#485,#462,#59,.T.);
#364=EDGE_CURVE('',#486,#486,#560,.T.);
#365=EDGE_CURVE('',#487,#487,#561,.T.);
#366=EDGE_CURVE('',#488,#489,#562,.T.);
#367=EDGE_CURVE('',#489,#488,#30,.T.);
#368=EDGE_CURVE('',#490,#490,#563,.T.);
#369=EDGE_CURVE('',#491,#492,#564,.T.);
#370=EDGE_CURVE('',#492,#491,#31,.T.);
#371=EDGE_CURVE('',#493,#493,#565,.T.);
#372=EDGE_CURVE('',#494,#495,#566,.T.);
#373=EDGE_CURVE('',#495,#494,#32,.T.);
#374=EDGE_CURVE('',#496,#496,#567,.T.);
#375=EDGE_CURVE('',#497,#498,#568,.T.);
#376=EDGE_CURVE('',#498,#497,#33,.T.);
#377=EDGE_CURVE('',#499,#499,#569,.T.);
#378=EDGE_CURVE('',#500,#501,#570,.T.);
#379=EDGE_CURVE('',#501,#500,#34,.T.);
#380=EDGE_CURVE('',#502,#502,#571,.T.);
#381=EDGE_CURVE('',#472,#503,#572,.F.);
#382=EDGE_CURVE('',#503,#504,#573,.T.);
#383=EDGE_CURVE('',#504,#469,#574,.F.);
#384=EDGE_CURVE('',#468,#505,#575,.F.);
#385=EDGE_CURVE('',#505,#506,#576,.T.);
#386=EDGE_CURVE('',#506,#465,#577,.F.);
#387=EDGE_CURVE('',#464,#507,#578,.F.);
#388=EDGE_CURVE('',#507,#508,#579,.T.);
#389=EDGE_CURVE('',#508,#485,#580,.F.);
#390=EDGE_CURVE('',#484,#509,#581,.F.);
#391=EDGE_CURVE('',#509,#510,#582,.T.);
#392=EDGE_CURVE('',#510,#481,#583,.F.);
#393=EDGE_CURVE('',#480,#511,#584,.F.);
#394=EDGE_CURVE('',#511,#512,#585,.T.);
#395=EDGE_CURVE('',#512,#477,#586,.F.);
#396=EDGE_CURVE('',#476,#513,#587,.F.);
#397=EDGE_CURVE('',#513,#514,#588,.T.);
#398=EDGE_CURVE('',#514,#473,#589,.F.);
#399=EDGE_CURVE('',#515,#515,#590,.T.);
#400=EDGE_CURVE('',#516,#516,#591,.T.);
#401=EDGE_CURVE('',#517,#517,#592,.T.);
#402=EDGE_CURVE('',#518,#518,#593,.T.);
#403=EDGE_CURVE('',#519,#520,#594,.T.);
#404=EDGE_CURVE('',#519,#521,#595,.T.);
#405=EDGE_CURVE('',#521,#522,#596,.F.);
#406=EDGE_CURVE('',#523,#522,#597,.T.);
#407=EDGE_CURVE('',#523,#524,#598,.F.);
#408=EDGE_CURVE('',#524,#520,#599,.T.);
#409=EDGE_CURVE('',#505,#519,#60,.F.);
#410=EDGE_CURVE('',#520,#506,#61,.T.);
#411=EDGE_CURVE('',#525,#526,#600,.T.);
#412=EDGE_CURVE('',#525,#527,#601,.T.);
#413=EDGE_CURVE('',#527,#501,#602,.F.);
#414=EDGE_CURVE('',#500,#528,#603,.F.);
#415=EDGE_CURVE('',#528,#526,#604,.T.);
#416=EDGE_CURVE('',#507,#525,#62,.F.);
#417=EDGE_CURVE('',#526,#508,#63,.T.);
#418=EDGE_CURVE('',#529,#530,#605,.T.);
#419=EDGE_CURVE('',#529,#531,#606,.T.);
#420=EDGE_CURVE('',#531,#498,#607,.F.);
#421=EDGE_CURVE('',#497,#532,#608,.F.);
#422=EDGE_CURVE('',#532,#530,#609,.T.);
#423=EDGE_CURVE('',#509,#529,#64,.F.);
#424=EDGE_CURVE('',#530,#510,#65,.T.);
#425=EDGE_CURVE('',#533,#534,#610,.T.);
#426=EDGE_CURVE('',#533,#535,#611,.T.);
#427=EDGE_CURVE('',#535,#495,#612,.F.);
#428=EDGE_CURVE('',#494,#536,#613,.F.);
#429=EDGE_CURVE('',#536,#534,#614,.T.);
#430=EDGE_CURVE('',#511,#533,#66,.F.);
#431=EDGE_CURVE('',#534,#512,#67,.T.);
#432=EDGE_CURVE('',#537,#538,#615,.T.);
#433=EDGE_CURVE('',#537,#539,#616,.T.);
#434=EDGE_CURVE('',#539,#492,#617,.F.);
#435=EDGE_CURVE('',#491,#540,#618,.F.);
#436=EDGE_CURVE('',#540,#538,#619,.T.);
#437=EDGE_CURVE('',#513,#537,#68,.F.);
#438=EDGE_CURVE('',#538,#514,#69,.T.);
#439=EDGE_CURVE('',#541,#542,#620,.T.);
#440=EDGE_CURVE('',#541,#543,#621,.T.);
#441=EDGE_CURVE('',#543,#489,#622,.F.);
#442=EDGE_CURVE('',#488,#544,#623,.F.);
#443=EDGE_CURVE('',#544,#542,#624,.T.);
#444=EDGE_CURVE('',#503,#541,#70,.F.);
#445=EDGE_CURVE('',#542,#504,#71,.T.);
#446=EDGE_CURVE('',#545,#545,#625,.T.);
#447=EDGE_CURVE('',#546,#546,#626,.T.);
#448=EDGE_CURVE('',#522,#523,#35,.T.);
#449=EDGE_CURVE('',#547,#547,#627,.T.);
#450=EDGE_CURVE('',#539,#475,#36,.T.);
#451=EDGE_CURVE('',#474,#540,#37,.F.);
#452=EDGE_CURVE('',#535,#479,#38,.T.);
#453=EDGE_CURVE('',#478,#536,#39,.F.);
#454=EDGE_CURVE('',#531,#483,#40,.T.);
#455=EDGE_CURVE('',#482,#532,#41,.F.);
#456=EDGE_CURVE('',#527,#463,#42,.T.);
#457=EDGE_CURVE('',#462,#528,#43,.F.);
#458=EDGE_CURVE('',#521,#467,#44,.T.);
#459=EDGE_CURVE('',#466,#524,#45,.F.);
#460=EDGE_CURVE('',#543,#471,#46,.T.);
#461=EDGE_CURVE('',#470,#544,#47,.F.);
#462=VERTEX_POINT('',#1254);
#463=VERTEX_POINT('',#1255);
#464=VERTEX_POINT('',#1257);
#465=VERTEX_POINT('',#1259);
#466=VERTEX_POINT('',#1261);
#467=VERTEX_POINT('',#1263);
#468=VERTEX_POINT('',#1265);
#469=VERTEX_POINT('',#1267);
#470=VERTEX_POINT('',#1269);
#471=VERTEX_POINT('',#1271);
#472=VERTEX_POINT('',#1273);
#473=VERTEX_POINT('',#1275);
#474=VERTEX_POINT('',#1277);
#475=VERTEX_POINT('',#1279);
#476=VERTEX_POINT('',#1281);
#477=VERTEX_POINT('',#1283);
#478=VERTEX_POINT('',#1285);
#479=VERTEX_POINT('',#1287);
#480=VERTEX_POINT('',#1289);
#481=VERTEX_POINT('',#1291);
#482=VERTEX_POINT('',#1293);
#483=VERTEX_POINT('',#1295);
#484=VERTEX_POINT('',#1297);
#485=VERTEX_POINT('',#1299);
#486=VERTEX_POINT('',#1302);
#487=VERTEX_POINT('',#1305);
#488=VERTEX_POINT('',#1307);
#489=VERTEX_POINT('',#1308);
#490=VERTEX_POINT('',#1318);
#491=VERTEX_POINT('',#1320);
#492=VERTEX_POINT('',#1321);
#493=VERTEX_POINT('',#1331);
#494=VERTEX_POINT('',#1333);
#495=VERTEX_POINT('',#1334);
#496=VERTEX_POINT('',#1344);
#497=VERTEX_POINT('',#1346);
#498=VERTEX_POINT('',#1347);
#499=VERTEX_POINT('',#1357);
#500=VERTEX_POINT('',#1359);
#501=VERTEX_POINT('',#1360);
#502=VERTEX_POINT('',#1370);
#503=VERTEX_POINT('',#1372);
#504=VERTEX_POINT('',#1374);
#505=VERTEX_POINT('',#1377);
#506=VERTEX_POINT('',#1379);
#507=VERTEX_POINT('',#1382);
#508=VERTEX_POINT('',#1384);
#509=VERTEX_POINT('',#1387);
#510=VERTEX_POINT('',#1389);
#511=VERTEX_POINT('',#1392);
#512=VERTEX_POINT('',#1394);
#513=VERTEX_POINT('',#1397);
#514=VERTEX_POINT('',#1399);
#515=VERTEX_POINT('',#1402);
#516=VERTEX_POINT('',#1405);
#517=VERTEX_POINT('',#1407);
#518=VERTEX_POINT('',#1410);
#519=VERTEX_POINT('',#1413);
#520=VERTEX_POINT('',#1414);
#521=VERTEX_POINT('',#1416);
#522=VERTEX_POINT('',#1418);
#523=VERTEX_POINT('',#1420);
#524=VERTEX_POINT('',#1422);
#525=VERTEX_POINT('',#1429);
#526=VERTEX_POINT('',#1430);
#527=VERTEX_POINT('',#1432);
#528=VERTEX_POINT('',#1435);
#529=VERTEX_POINT('',#1442);
#530=VERTEX_POINT('',#1443);
#531=VERTEX_POINT('',#1445);
#532=VERTEX_POINT('',#1448);
#533=VERTEX_POINT('',#1455);
#534=VERTEX_POINT('',#1456);
#535=VERTEX_POINT('',#1458);
#536=VERTEX_POINT('',#1461);
#537=VERTEX_POINT('',#1468);
#538=VERTEX_POINT('',#1469);
#539=VERTEX_POINT('',#1471);
#540=VERTEX_POINT('',#1474);
#541=VERTEX_POINT('',#1481);
#542=VERTEX_POINT('',#1482);
#543=VERTEX_POINT('',#1484);
#544=VERTEX_POINT('',#1487);
#545=VERTEX_POINT('',#1494);
#546=VERTEX_POINT('',#1497);
#547=VERTEX_POINT('',#1509);
#548=CIRCLE('',#848,0.04445);
#549=CIRCLE('',#849,0.04445);
#550=CIRCLE('',#850,0.04445);
#551=CIRCLE('',#851,0.04445);
#552=CIRCLE('',#852,0.04445);
#553=CIRCLE('',#853,0.04445);
#554=CIRCLE('',#854,0.04445);
#555=CIRCLE('',#855,0.04445);
#556=CIRCLE('',#856,0.04445);
#557=CIRCLE('',#857,0.04445);
#558=CIRCLE('',#858,0.04445);
#559=CIRCLE('',#859,0.04445);
#560=CIRCLE('',#860,0.04445);
#561=CIRCLE('',#862,0.002794);
#562=CIRCLE('',#863,0.002794);
#563=CIRCLE('',#865,0.002794);
#564=CIRCLE('',#866,0.002794);
#565=CIRCLE('',#868,0.002794);
#566=CIRCLE('',#869,0.002794);
#567=CIRCLE('',#871,0.002794);
#568=CIRCLE('',#872,0.002794);
#569=CIRCLE('',#874,0.002794);
#570=CIRCLE('',#875,0.002794);
#571=CIRCLE('',#877,0.002794);
#572=CIRCLE('',#878,0.00508);
#573=CIRCLE('',#879,0.00635);
#574=CIRCLE('',#880,0.00508);
#575=CIRCLE('',#881,0.00508);
#576=CIRCLE('',#882,0.00635);
#577=CIRCLE('',#883,0.00508);
#578=CIRCLE('',#884,0.00508);
#579=CIRCLE('',#885,0.00635);
#580=CIRCLE('',#886,0.00508);
#581=CIRCLE('',#887,0.00508);
#582=CIRCLE('',#888,0.00635);
#583=CIRCLE('',#889,0.00508);
#584=CIRCLE('',#890,0.00508);
#585=CIRCLE('',#891,0.00635);
#586=CIRCLE('',#892,0.00508);
#587=CIRCLE('',#893,0.00508);
#588=CIRCLE('',#894,0.00635);
#589=CIRCLE('',#895,0.00508);
#590=CIRCLE('',#896,0.049784);
#591=CIRCLE('',#898,0.05715);
#592=CIRCLE('',#899,0.05715);
#593=CIRCLE('',#901,0.054864);
#594=CIRCLE('',#903,0.00635);
#595=CIRCLE('',#904,0.00508);
#596=CIRCLE('',#905,0.03937);
#597=CIRCLE('',#906,0.002794);
#598=CIRCLE('',#907,0.03937);
#599=CIRCLE('',#908,0.00508);
#600=CIRCLE('',#911,0.00635);
#601=CIRCLE('',#912,0.00508);
#602=CIRCLE('',#913,0.03937);
#603=CIRCLE('',#914,0.03937);
#604=CIRCLE('',#915,0.00508);
#605=CIRCLE('',#918,0.00635);
#606=CIRCLE('',#919,0.00508);
#607=CIRCLE('',#920,0.03937);
#608=CIRCLE('',#921,0.03937);
#609=CIRCLE('',#922,0.00508);
#610=CIRCLE('',#925,0.00635);
#611=CIRCLE('',#926,0.00508);
#612=CIRCLE('',#927,0.03937);
#613=CIRCLE('',#928,0.03937);
#614=CIRCLE('',#929,0.00508);
#615=CIRCLE('',#932,0.00635);
#616=CIRCLE('',#933,0.00508);
#617=CIRCLE('',#934,0.03937);
#618=CIRCLE('',#935,0.03937);
#619=CIRCLE('',#936,0.00508);
#620=CIRCLE('',#939,0.00635);
#621=CIRCLE('',#940,0.00508);
#622=CIRCLE('',#941,0.03937);
#623=CIRCLE('',#942,0.03937);
#624=CIRCLE('',#943,0.00508);
#625=CIRCLE('',#946,0.049784);
#626=CIRCLE('',#948,0.054864);
#627=CIRCLE('',#952,0.051816);
#628=EDGE_LOOP('',(#96,#97,#98,#99,#100,#101,#102,#103,#104,#105,#106,#107,
#108,#109,#110,#111,#112,#113,#114,#115,#116,#117,#118,#119));
#629=EDGE_LOOP('',(#120));
#630=EDGE_LOOP('',(#121));
#631=EDGE_LOOP('',(#122,#123));
#632=EDGE_LOOP('',(#124));
#633=EDGE_LOOP('',(#125,#126));
#634=EDGE_LOOP('',(#127));
#635=EDGE_LOOP('',(#128,#129));
#636=EDGE_LOOP('',(#130));
#637=EDGE_LOOP('',(#131,#132));
#638=EDGE_LOOP('',(#133));
#639=EDGE_LOOP('',(#134,#135));
#640=EDGE_LOOP('',(#136));
#641=EDGE_LOOP('',(#137));
#642=EDGE_LOOP('',(#138));
#643=EDGE_LOOP('',(#139));
#644=EDGE_LOOP('',(#140));
#645=EDGE_LOOP('',(#141));
#646=EDGE_LOOP('',(#142,#143,#144,#145,#146,#147,#148,#149,#150,#151,#152,
#153,#154,#155,#156,#157,#158,#159,#160,#161,#162,#163,#164,#165));
#647=EDGE_LOOP('',(#166));
#648=EDGE_LOOP('',(#167));
#649=EDGE_LOOP('',(#168));
#650=EDGE_LOOP('',(#169));
#651=EDGE_LOOP('',(#170));
#652=EDGE_LOOP('',(#171,#172,#173,#174,#175,#176));
#653=EDGE_LOOP('',(#177,#178,#179,#180));
#654=EDGE_LOOP('',(#181,#182,#183,#184,#185,#186));
#655=EDGE_LOOP('',(#187,#188,#189,#190));
#656=EDGE_LOOP('',(#191,#192,#193,#194,#195,#196));
#657=EDGE_LOOP('',(#197,#198,#199,#200));
#658=EDGE_LOOP('',(#201,#202,#203,#204,#205,#206));
#659=EDGE_LOOP('',(#207,#208,#209,#210));
#660=EDGE_LOOP('',(#211,#212,#213,#214,#215,#216));
#661=EDGE_LOOP('',(#217,#218,#219,#220));
#662=EDGE_LOOP('',(#221,#222,#223,#224,#225,#226));
#663=EDGE_LOOP('',(#227,#228,#229,#230));
#664=EDGE_LOOP('',(#231));
#665=EDGE_LOOP('',(#232));
#666=EDGE_LOOP('',(#233));
#667=EDGE_LOOP('',(#234));
#668=EDGE_LOOP('',(#235));
#669=EDGE_LOOP('',(#236));
#670=EDGE_LOOP('',(#237));
#671=EDGE_LOOP('',(#238,#239));
#672=EDGE_LOOP('',(#240));
#673=EDGE_LOOP('',(#241,#242,#243,#244,#245,#246));
#674=EDGE_LOOP('',(#247,#248,#249,#250,#251,#252));
#675=EDGE_LOOP('',(#253,#254,#255,#256,#257,#258));
#676=EDGE_LOOP('',(#259,#260,#261,#262,#263,#264));
#677=EDGE_LOOP('',(#265,#266,#267,#268,#269,#270));
#678=EDGE_LOOP('',(#271,#272,#273,#274,#275,#276));
#679=EDGE_LOOP('',(#277,#278,#279,#280,#281));
#680=EDGE_LOOP('',(#282,#283,#284,#285,#286));
#681=EDGE_LOOP('',(#287,#288,#289,#290,#291));
#682=EDGE_LOOP('',(#292,#293,#294,#295,#296));
#683=EDGE_LOOP('',(#297,#298,#299,#300,#301));
#684=EDGE_LOOP('',(#302,#303,#304,#305,#306));
#685=EDGE_LOOP('',(#307,#308,#309,#310,#311));
#686=EDGE_LOOP('',(#312,#313,#314,#315,#316));
#687=EDGE_LOOP('',(#317,#318,#319,#320,#321));
#688=EDGE_LOOP('',(#322,#323,#324,#325,#326));
#689=EDGE_LOOP('',(#327,#328,#329,#330,#331));
#690=EDGE_LOOP('',(#332,#333,#334,#335,#336));
#691=EDGE_LOOP('',(#337));
#692=EDGE_LOOP('',(#338));
#693=EDGE_LOOP('',(#339));
#694=FACE_BOUND('',#628,.T.);
#695=FACE_BOUND('',#629,.T.);
#696=FACE_BOUND('',#630,.T.);
#697=FACE_BOUND('',#631,.T.);
#698=FACE_BOUND('',#632,.T.);
#699=FACE_BOUND('',#633,.T.);
#700=FACE_BOUND('',#634,.T.);
#701=FACE_BOUND('',#635,.T.);
#702=FACE_BOUND('',#636,.T.);
#703=FACE_BOUND('',#637,.T.);
#704=FACE_BOUND('',#638,.T.);
#705=FACE_BOUND('',#639,.T.);
#706=FACE_BOUND('',#640,.T.);
#707=FACE_BOUND('',#641,.T.);
#708=FACE_BOUND('',#642,.T.);
#709=FACE_BOUND('',#643,.T.);
#710=FACE_BOUND('',#644,.T.);
#711=FACE_BOUND('',#645,.T.);
#712=FACE_BOUND('',#646,.T.);
#713=FACE_BOUND('',#647,.T.);
#714=FACE_BOUND('',#648,.T.);
#715=FACE_BOUND('',#649,.T.);
#716=FACE_BOUND('',#650,.T.);
#717=FACE_BOUND('',#651,.T.);
#718=FACE_BOUND('',#652,.T.);
#719=FACE_BOUND('',#653,.T.);
#720=FACE_BOUND('',#654,.T.);
#721=FACE_BOUND('',#655,.T.);
#722=FACE_BOUND('',#656,.T.);
#723=FACE_BOUND('',#657,.T.);
#724=FACE_BOUND('',#658,.T.);
#725=FACE_BOUND('',#659,.T.);
#726=FACE_BOUND('',#660,.T.);
#727=FACE_BOUND('',#661,.T.);
#728=FACE_BOUND('',#662,.T.);
#729=FACE_BOUND('',#663,.T.);
#730=FACE_BOUND('',#664,.T.);
#731=FACE_BOUND('',#665,.T.);
#732=FACE_BOUND('',#666,.T.);
#733=FACE_BOUND('',#667,.T.);
#734=FACE_BOUND('',#668,.T.);
#735=FACE_BOUND('',#669,.T.);
#736=FACE_BOUND('',#670,.T.);
#737=FACE_BOUND('',#671,.T.);
#738=FACE_BOUND('',#672,.T.);
#739=FACE_BOUND('',#673,.T.);
#740=FACE_BOUND('',#674,.T.);
#741=FACE_BOUND('',#675,.T.);
#742=FACE_BOUND('',#676,.T.);
#743=FACE_BOUND('',#677,.T.);
#744=FACE_BOUND('',#678,.T.);
#745=FACE_BOUND('',#679,.T.);
#746=FACE_BOUND('',#680,.T.);
#747=FACE_BOUND('',#681,.T.);
#748=FACE_BOUND('',#682,.T.);
#749=FACE_BOUND('',#683,.T.);
#750=FACE_BOUND('',#684,.T.);
#751=FACE_BOUND('',#685,.T.);
#752=FACE_BOUND('',#686,.T.);
#753=FACE_BOUND('',#687,.T.);
#754=FACE_BOUND('',#688,.T.);
#755=FACE_BOUND('',#689,.T.);
#756=FACE_BOUND('',#690,.T.);
#757=FACE_BOUND('',#691,.T.);
#758=FACE_BOUND('',#692,.T.);
#759=FACE_BOUND('',#693,.T.);
#760=CYLINDRICAL_SURFACE('',#847,0.04445);
#761=CYLINDRICAL_SURFACE('',#861,0.002794);
#762=CYLINDRICAL_SURFACE('',#864,0.002794);
#763=CYLINDRICAL_SURFACE('',#867,0.002794);
#764=CYLINDRICAL_SURFACE('',#870,0.002794);
#765=CYLINDRICAL_SURFACE('',#873,0.002794);
#766=CYLINDRICAL_SURFACE('',#897,0.05715);
#767=CYLINDRICAL_SURFACE('',#909,0.00635);
#768=CYLINDRICAL_SURFACE('',#916,0.00635);
#769=CYLINDRICAL_SURFACE('',#923,0.00635);
#770=CYLINDRICAL_SURFACE('',#930,0.00635);
#771=CYLINDRICAL_SURFACE('',#937,0.00635);
#772=CYLINDRICAL_SURFACE('',#944,0.00635);
#773=CYLINDRICAL_SURFACE('',#945,0.049784);
#774=CYLINDRICAL_SURFACE('',#947,0.054864);
#775=CYLINDRICAL_SURFACE('',#950,0.002794);
#776=CYLINDRICAL_SURFACE('',#959,0.00508);
#777=CYLINDRICAL_SURFACE('',#960,0.00508);
#778=CYLINDRICAL_SURFACE('',#961,0.00508);
#779=CYLINDRICAL_SURFACE('',#962,0.00508);
#780=CYLINDRICAL_SURFACE('',#963,0.00508);
#781=CYLINDRICAL_SURFACE('',#964,0.00508);
#782=CYLINDRICAL_SURFACE('',#965,0.00508);
#783=CYLINDRICAL_SURFACE('',#966,0.00508);
#784=CYLINDRICAL_SURFACE('',#967,0.00508);
#785=CYLINDRICAL_SURFACE('',#968,0.00508);
#786=CYLINDRICAL_SURFACE('',#969,0.00508);
#787=CYLINDRICAL_SURFACE('',#970,0.00508);
#788=ADVANCED_FACE('',(#694,#695),#760,.F.);
#789=ADVANCED_FACE('',(#696,#697),#761,.F.);
#790=ADVANCED_FACE('',(#698,#699),#762,.F.);
#791=ADVANCED_FACE('',(#700,#701),#763,.F.);
#792=ADVANCED_FACE('',(#702,#703),#764,.F.);
#793=ADVANCED_FACE('',(#704,#705),#765,.F.);
#794=ADVANCED_FACE('',(#706,#707,#708,#709,#710,#711,#712,#713),#19,.T.);
#795=ADVANCED_FACE('',(#714,#715),#766,.T.);
#796=ADVANCED_FACE('',(#716,#717),#20,.T.);
#797=ADVANCED_FACE('',(#718),#21,.F.);
#798=ADVANCED_FACE('',(#719),#767,.T.);
#799=ADVANCED_FACE('',(#720),#22,.F.);
#800=ADVANCED_FACE('',(#721),#768,.T.);
#801=ADVANCED_FACE('',(#722),#23,.F.);
#802=ADVANCED_FACE('',(#723),#769,.T.);
#803=ADVANCED_FACE('',(#724),#24,.F.);
#804=ADVANCED_FACE('',(#725),#770,.T.);
#805=ADVANCED_FACE('',(#726),#25,.F.);
#806=ADVANCED_FACE('',(#727),#771,.T.);
#807=ADVANCED_FACE('',(#728),#26,.F.);
#808=ADVANCED_FACE('',(#729),#772,.T.);
#809=ADVANCED_FACE('',(#730,#731),#773,.T.);
#810=ADVANCED_FACE('',(#732,#733),#774,.F.);
#811=ADVANCED_FACE('',(#734,#735),#27,.T.);
#812=ADVANCED_FACE('',(#736,#737),#775,.F.);
#813=ADVANCED_FACE('',(#738),#28,.T.);
#814=ADVANCED_FACE('',(#739),#13,.F.);
#815=ADVANCED_FACE('',(#740),#14,.F.);
#816=ADVANCED_FACE('',(#741),#15,.F.);
#817=ADVANCED_FACE('',(#742),#16,.F.);
#818=ADVANCED_FACE('',(#743),#17,.F.);
#819=ADVANCED_FACE('',(#744),#18,.F.);
#820=ADVANCED_FACE('',(#745),#776,.F.);
#821=ADVANCED_FACE('',(#746),#777,.F.);
#822=ADVANCED_FACE('',(#747),#778,.F.);
#823=ADVANCED_FACE('',(#748),#779,.F.);
#824=ADVANCED_FACE('',(#749),#780,.F.);
#825=ADVANCED_FACE('',(#750),#781,.F.);
#826=ADVANCED_FACE('',(#751),#782,.F.);
#827=ADVANCED_FACE('',(#752),#783,.F.);
#828=ADVANCED_FACE('',(#753),#784,.F.);
#829=ADVANCED_FACE('',(#754),#785,.F.);
#830=ADVANCED_FACE('',(#755),#786,.F.);
#831=ADVANCED_FACE('',(#756),#787,.F.);
#832=ADVANCED_FACE('',(#757),#29,.F.);
#833=ADVANCED_FACE('',(#758,#759),#12,.T.);
#834=CLOSED_SHELL('',(#788,#789,#790,#791,#792,#793,#794,#795,#796,#797,
#798,#799,#800,#801,#802,#803,#804,#805,#806,#807,#808,#809,#810,#811,#812,
#813,#814,#815,#816,#817,#818,#819,#820,#821,#822,#823,#824,#825,#826,#827,
#828,#829,#830,#831,#832,#833));
#835=STYLED_ITEM('',(#836),#843);
#836=PRESENTATION_STYLE_ASSIGNMENT((#837));
#837=SURFACE_STYLE_USAGE(.BOTH.,#838);
#838=SURFACE_SIDE_STYLE('',(#839));
#839=SURFACE_STYLE_FILL_AREA(#840);
#840=FILL_AREA_STYLE('',(#841));
#841=FILL_AREA_STYLE_COLOUR('',#842);
#842=COLOUR_RGB('',0.615686274509804,0.811764705882353,0.929411764705882);
#843=MANIFOLD_SOLID_BREP('Part 1',#834);
#844=SHAPE_DEFINITION_REPRESENTATION(#1620,#845);
#845=SHAPE_REPRESENTATION('Part 1',(#846),#1615);
#846=AXIS2_PLACEMENT_3D('',#1251,#973,#974);
#847=AXIS2_PLACEMENT_3D('',#1252,#975,#976);
#848=AXIS2_PLACEMENT_3D('',#1253,#977,#978);
#849=AXIS2_PLACEMENT_3D('',#1258,#980,#981);
#850=AXIS2_PLACEMENT_3D('',#1262,#983,#984);
#851=AXIS2_PLACEMENT_3D('',#1266,#986,#987);
#852=AXIS2_PLACEMENT_3D('',#1270,#989,#990);
#853=AXIS2_PLACEMENT_3D('',#1274,#992,#993);
#854=AXIS2_PLACEMENT_3D('',#1278,#995,#996);
#855=AXIS2_PLACEMENT_3D('',#1282,#998,#999);
#856=AXIS2_PLACEMENT_3D('',#1286,#1001,#1002);
#857=AXIS2_PLACEMENT_3D('',#1290,#1004,#1005);
#858=AXIS2_PLACEMENT_3D('',#1294,#1007,#1008);
#859=AXIS2_PLACEMENT_3D('',#1298,#1010,#1011);
#860=AXIS2_PLACEMENT_3D('',#1301,#1013,#1014);
#861=AXIS2_PLACEMENT_3D('',#1303,#1015,#1016);
#862=AXIS2_PLACEMENT_3D('',#1304,#1017,#1018);
#863=AXIS2_PLACEMENT_3D('',#1306,#1019,#1020);
#864=AXIS2_PLACEMENT_3D('',#1316,#1021,#1022);
#865=AXIS2_PLACEMENT_3D('',#1317,#1023,#1024);
#866=AXIS2_PLACEMENT_3D('',#1319,#1025,#1026);
#867=AXIS2_PLACEMENT_3D('',#1329,#1027,#1028);
#868=AXIS2_PLACEMENT_3D('',#1330,#1029,#1030);
#869=AXIS2_PLACEMENT_3D('',#1332,#1031,#1032);
#870=AXIS2_PLACEMENT_3D('',#1342,#1033,#1034);
#871=AXIS2_PLACEMENT_3D('',#1343,#1035,#1036);
#872=AXIS2_PLACEMENT_3D('',#1345,#1037,#1038);
#873=AXIS2_PLACEMENT_3D('',#1355,#1039,#1040);
#874=AXIS2_PLACEMENT_3D('',#1356,#1041,#1042);
#875=AXIS2_PLACEMENT_3D('',#1358,#1043,#1044);
#876=AXIS2_PLACEMENT_3D('',#1368,#1045,#1046);
#877=AXIS2_PLACEMENT_3D('',#1369,#1047,#1048);
#878=AXIS2_PLACEMENT_3D('',#1371,#1049,#1050);
#879=AXIS2_PLACEMENT_3D('',#1373,#1051,#1052);
#880=AXIS2_PLACEMENT_3D('',#1375,#1053,#1054);
#881=AXIS2_PLACEMENT_3D('',#1376,#1055,#1056);
#882=AXIS2_PLACEMENT_3D('',#1378,#1057,#1058);
#883=AXIS2_PLACEMENT_3D('',#1380,#1059,#1060);
#884=AXIS2_PLACEMENT_3D('',#1381,#1061,#1062);
#885=AXIS2_PLACEMENT_3D('',#1383,#1063,#1064);
#886=AXIS2_PLACEMENT_3D('',#1385,#1065,#1066);
#887=AXIS2_PLACEMENT_3D('',#1386,#1067,#1068);
#888=AXIS2_PLACEMENT_3D('',#1388,#1069,#1070);
#889=AXIS2_PLACEMENT_3D('',#1390,#1071,#1072);
#890=AXIS2_PLACEMENT_3D('',#1391,#1073,#1074);
#891=AXIS2_PLACEMENT_3D('',#1393,#1075,#1076);
#892=AXIS2_PLACEMENT_3D('',#1395,#1077,#1078);
#893=AXIS2_PLACEMENT_3D('',#1396,#1079,#1080);
#894=AXIS2_PLACEMENT_3D('',#1398,#1081,#1082);
#895=AXIS2_PLACEMENT_3D('',#1400,#1083,#1084);
#896=AXIS2_PLACEMENT_3D('',#1401,#1085,#1086);
#897=AXIS2_PLACEMENT_3D('',#1403,#1087,#1088);
#898=AXIS2_PLACEMENT_3D('',#1404,#1089,#1090);
#899=AXIS2_PLACEMENT_3D('',#1406,#1091,#1092);
#900=AXIS2_PLACEMENT_3D('',#1408,#1093,#1094);
#901=AXIS2_PLACEMENT_3D('',#1409,#1095,#1096);
#902=AXIS2_PLACEMENT_3D('',#1411,#1097,#1098);
#903=AXIS2_PLACEMENT_3D('',#1412,#1099,#1100);
#904=AXIS2_PLACEMENT_3D('',#1415,#1101,#1102);
#905=AXIS2_PLACEMENT_3D('',#1417,#1103,#1104);
#906=AXIS2_PLACEMENT_3D('',#1419,#1105,#1106);
#907=AXIS2_PLACEMENT_3D('',#1421,#1107,#1108);
#908=AXIS2_PLACEMENT_3D('',#1423,#1109,#1110);
#909=AXIS2_PLACEMENT_3D('',#1424,#1111,#1112);
#910=AXIS2_PLACEMENT_3D('',#1427,#1115,#1116);
#911=AXIS2_PLACEMENT_3D('',#1428,#1117,#1118);
#912=AXIS2_PLACEMENT_3D('',#1431,#1119,#1120);
#913=AXIS2_PLACEMENT_3D('',#1433,#1121,#1122);
#914=AXIS2_PLACEMENT_3D('',#1434,#1123,#1124);
#915=AXIS2_PLACEMENT_3D('',#1436,#1125,#1126);
#916=AXIS2_PLACEMENT_3D('',#1437,#1127,#1128);
#917=AXIS2_PLACEMENT_3D('',#1440,#1131,#1132);
#918=AXIS2_PLACEMENT_3D('',#1441,#1133,#1134);
#919=AXIS2_PLACEMENT_3D('',#1444,#1135,#1136);
#920=AXIS2_PLACEMENT_3D('',#1446,#1137,#1138);
#921=AXIS2_PLACEMENT_3D('',#1447,#1139,#1140);
#922=AXIS2_PLACEMENT_3D('',#1449,#1141,#1142);
#923=AXIS2_PLACEMENT_3D('',#1450,#1143,#1144);
#924=AXIS2_PLACEMENT_3D('',#1453,#1147,#1148);
#925=AXIS2_PLACEMENT_3D('',#1454,#1149,#1150);
#926=AXIS2_PLACEMENT_3D('',#1457,#1151,#1152);
#927=AXIS2_PLACEMENT_3D('',#1459,#1153,#1154);
#928=AXIS2_PLACEMENT_3D('',#1460,#1155,#1156);
#929=AXIS2_PLACEMENT_3D('',#1462,#1157,#1158);
#930=AXIS2_PLACEMENT_3D('',#1463,#1159,#1160);
#931=AXIS2_PLACEMENT_3D('',#1466,#1163,#1164);
#932=AXIS2_PLACEMENT_3D('',#1467,#1165,#1166);
#933=AXIS2_PLACEMENT_3D('',#1470,#1167,#1168);
#934=AXIS2_PLACEMENT_3D('',#1472,#1169,#1170);
#935=AXIS2_PLACEMENT_3D('',#1473,#1171,#1172);
#936=AXIS2_PLACEMENT_3D('',#1475,#1173,#1174);
#937=AXIS2_PLACEMENT_3D('',#1476,#1175,#1176);
#938=AXIS2_PLACEMENT_3D('',#1479,#1179,#1180);
#939=AXIS2_PLACEMENT_3D('',#1480,#1181,#1182);
#940=AXIS2_PLACEMENT_3D('',#1483,#1183,#1184);
#941=AXIS2_PLACEMENT_3D('',#1485,#1185,#1186);
#942=AXIS2_PLACEMENT_3D('',#1486,#1187,#1188);
#943=AXIS2_PLACEMENT_3D('',#1488,#1189,#1190);
#944=AXIS2_PLACEMENT_3D('',#1489,#1191,#1192);
#945=AXIS2_PLACEMENT_3D('',#1492,#1195,#1196);
#946=AXIS2_PLACEMENT_3D('',#1493,#1197,#1198);
#947=AXIS2_PLACEMENT_3D('',#1495,#1199,#1200);
#948=AXIS2_PLACEMENT_3D('',#1496,#1201,#1202);
#949=AXIS2_PLACEMENT_3D('',#1498,#1203,#1204);
#950=AXIS2_PLACEMENT_3D('',#1499,#1205,#1206);
#951=AXIS2_PLACEMENT_3D('',#1507,#1207,#1208);
#952=AXIS2_PLACEMENT_3D('',#1508,#1209,#1210);
#953=AXIS2_PLACEMENT_3D('',#1510,#1211,#1212);
#954=AXIS2_PLACEMENT_3D('',#1525,#1213,#1214);
#955=AXIS2_PLACEMENT_3D('',#1540,#1215,#1216);
#956=AXIS2_PLACEMENT_3D('',#1555,#1217,#1218);
#957=AXIS2_PLACEMENT_3D('',#1570,#1219,#1220);
#958=AXIS2_PLACEMENT_3D('',#1585,#1221,#1222);
#959=AXIS2_PLACEMENT_3D('',#1600,#1223,#1224);
#960=AXIS2_PLACEMENT_3D('',#1601,#1225,#1226);
#961=AXIS2_PLACEMENT_3D('',#1602,#1227,#1228);
#962=AXIS2_PLACEMENT_3D('',#1603,#1229,#1230);
#963=AXIS2_PLACEMENT_3D('',#1604,#1231,#1232);
#964=AXIS2_PLACEMENT_3D('',#1605,#1233,#1234);
#965=AXIS2_PLACEMENT_3D('',#1606,#1235,#1236);
#966=AXIS2_PLACEMENT_3D('',#1607,#1237,#1238);
#967=AXIS2_PLACEMENT_3D('',#1608,#1239,#1240);
#968=AXIS2_PLACEMENT_3D('',#1609,#1241,#1242);
#969=AXIS2_PLACEMENT_3D('',#1610,#1243,#1244);
#970=AXIS2_PLACEMENT_3D('',#1611,#1245,#1246);
#971=AXIS2_PLACEMENT_3D('',#1612,#1247,#1248);
#972=AXIS2_PLACEMENT_3D('',#1613,#1249,#1250);
#973=DIRECTION('',(0.,0.,1.));
#974=DIRECTION('',(1.,0.,0.));
#975=DIRECTION('',(0.,0.,-1.));
#976=DIRECTION('',(-1.,0.,0.));
#977=DIRECTION('',(0.,0.,1.));
#978=DIRECTION('',(1.,0.,0.));
#979=DIRECTION('',(0.,0.,-1.));
#980=DIRECTION('',(0.,0.,1.));
#981=DIRECTION('',(1.,0.,0.));
#982=DIRECTION('',(0.,0.,-1.));
#983=DIRECTION('',(0.,0.,1.));
#984=DIRECTION('',(1.,0.,0.));
#985=DIRECTION('',(0.,0.,-1.));
#986=DIRECTION('',(0.,0.,1.));
#987=DIRECTION('',(1.,0.,0.));
#988=DIRECTION('',(0.,0.,-1.));
#989=DIRECTION('',(0.,0.,1.));
#990=DIRECTION('',(1.,0.,0.));
#991=DIRECTION('',(0.,0.,-1.));
#992=DIRECTION('',(0.,0.,1.));
#993=DIRECTION('',(1.,0.,0.));
#994=DIRECTION('',(0.,0.,-1.));
#995=DIRECTION('',(0.,0.,1.));
#996=DIRECTION('',(1.,0.,0.));
#997=DIRECTION('',(0.,0.,-1.));
#998=DIRECTION('',(0.,0.,1.));
#999=DIRECTION('',(1.,0.,0.));
#1000=DIRECTION('',(0.,0.,-1.));
#1001=DIRECTION('',(0.,0.,1.));
#1002=DIRECTION('',(1.,0.,0.));
#1003=DIRECTION('',(0.,0.,-1.));
#1004=DIRECTION('',(0.,0.,1.));
#1005=DIRECTION('',(1.,0.,0.));
#1006=DIRECTION('',(0.,0.,-1.));
#1007=DIRECTION('',(0.,0.,1.));
#1008=DIRECTION('',(1.,0.,0.));
#1009=DIRECTION('',(0.,0.,-1.));
#1010=DIRECTION('',(0.,0.,1.));
#1011=DIRECTION('',(1.,0.,0.));
#1012=DIRECTION('',(0.,0.,-1.));
#1013=DIRECTION('',(0.,0.,1.));
#1014=DIRECTION('',(1.,0.,0.));
#1015=DIRECTION('',(0.,0.,-1.));
#1016=DIRECTION('',(-0.5,-0.866025403784439,0.));
#1017=DIRECTION('',(0.,0.,1.));
#1018=DIRECTION('',(0.5,0.866025403784439,0.));
#1019=DIRECTION('',(0.,0.,-1.));
#1020=DIRECTION('',(-0.5,-0.866025403784439,0.));
#1021=DIRECTION('',(0.,0.,-1.));
#1022=DIRECTION('',(0.5,-0.866025403784438,0.));
#1023=DIRECTION('',(0.,0.,1.));
#1024=DIRECTION('',(-0.5,0.866025403784438,0.));
#1025=DIRECTION('',(0.,0.,-1.));
#1026=DIRECTION('',(0.5,-0.866025403784438,0.));
#1027=DIRECTION('',(0.,0.,-1.));
#1028=DIRECTION('',(1.,1.22464679914735E-16,0.));
#1029=DIRECTION('',(0.,0.,1.));
#1030=DIRECTION('',(-1.,-1.22464679914735E-16,0.));
#1031=DIRECTION('',(0.,0.,-1.));
#1032=DIRECTION('',(1.,1.22464679914735E-16,0.));
#1033=DIRECTION('',(0.,0.,-1.));
#1034=DIRECTION('',(0.5,0.866025403784439,0.));
#1035=DIRECTION('',(0.,0.,1.));
#1036=DIRECTION('',(-0.5,-0.866025403784439,0.));
#1037=DIRECTION('',(0.,0.,-1.));
#1038=DIRECTION('',(0.5,0.866025403784439,0.));
#1039=DIRECTION('',(0.,0.,-1.));
#1040=DIRECTION('',(-0.5,0.866025403784439,0.));
#1041=DIRECTION('',(0.,0.,1.));
#1042=DIRECTION('',(0.5,-0.866025403784439,0.));
#1043=DIRECTION('',(0.,0.,-1.));
#1044=DIRECTION('',(-0.5,0.866025403784439,0.));
#1045=DIRECTION('',(0.,0.,1.));
#1046=DIRECTION('',(1.,0.,0.));
#1047=DIRECTION('',(0.,0.,1.));
#1048=DIRECTION('',(1.,0.,0.));
#1049=DIRECTION('',(0.,0.,1.));
#1050=DIRECTION('',(1.,0.,0.));
#1051=DIRECTION('',(0.,0.,1.));
#1052=DIRECTION('',(0.5,0.866025403784439,0.));
#1053=DIRECTION('',(0.,0.,1.));
#1054=DIRECTION('',(1.,0.,0.));
#1055=DIRECTION('',(0.,0.,1.));
#1056=DIRECTION('',(1.,0.,0.));
#1057=DIRECTION('',(0.,0.,1.));
#1058=DIRECTION('',(1.,0.,0.));
#1059=DIRECTION('',(0.,0.,1.));
#1060=DIRECTION('',(1.,0.,0.));
#1061=DIRECTION('',(0.,0.,1.));
#1062=DIRECTION('',(1.,0.,0.));
#1063=DIRECTION('',(0.,0.,1.));
#1064=DIRECTION('',(0.5,-0.866025403784439,0.));
#1065=DIRECTION('',(0.,0.,1.));
#1066=DIRECTION('',(1.,0.,0.));
#1067=DIRECTION('',(0.,0.,1.));
#1068=DIRECTION('',(1.,0.,0.));
#1069=DIRECTION('',(0.,0.,1.));
#1070=DIRECTION('',(-0.5,-0.866025403784438,0.));
#1071=DIRECTION('',(0.,0.,1.));
#1072=DIRECTION('',(1.,0.,0.));
#1073=DIRECTION('',(0.,0.,1.));
#1074=DIRECTION('',(1.,0.,0.));
#1075=DIRECTION('',(0.,0.,1.));
#1076=DIRECTION('',(-1.,1.22464679914735E-16,0.));
#1077=DIRECTION('',(0.,0.,1.));
#1078=DIRECTION('',(1.,0.,0.));
#1079=DIRECTION('',(0.,0.,1.));
#1080=DIRECTION('',(1.,0.,0.));
#1081=DIRECTION('',(0.,0.,1.));
#1082=DIRECTION('',(-0.5,0.866025403784439,0.));
#1083=DIRECTION('',(0.,0.,1.));
#1084=DIRECTION('',(1.,0.,0.));
#1085=DIRECTION('',(0.,0.,1.));
#1086=DIRECTION('',(1.,0.,0.));
#1087=DIRECTION('',(0.,0.,-1.));
#1088=DIRECTION('',(-1.,0.,0.));
#1089=DIRECTION('',(0.,0.,1.));
#1090=DIRECTION('',(1.,0.,0.));
#1091=DIRECTION('',(0.,0.,1.));
#1092=DIRECTION('',(1.,0.,0.));
#1093=DIRECTION('',(0.,0.,1.));
#1094=DIRECTION('',(1.,0.,0.));
#1095=DIRECTION('',(0.,0.,1.));
#1096=DIRECTION('',(1.,0.,0.));
#1097=DIRECTION('',(0.,0.,1.));
#1098=DIRECTION('',(1.,0.,0.));
#1099=DIRECTION('',(0.,0.,1.));
#1100=DIRECTION('',(1.,0.,0.));
#1101=DIRECTION('',(0.,0.,1.));
#1102=DIRECTION('',(1.,0.,0.));
#1103=DIRECTION('',(0.,0.,1.));
#1104=DIRECTION('',(1.,0.,0.));
#1105=DIRECTION('',(0.,0.,-1.));
#1106=DIRECTION('',(-1.,0.,0.));
#1107=DIRECTION('',(0.,0.,1.));
#1108=DIRECTION('',(1.,0.,0.));
#1109=DIRECTION('',(0.,0.,1.));
#1110=DIRECTION('',(1.,0.,0.));
#1111=DIRECTION('',(0.,0.,1.));
#1112=DIRECTION('',(1.,0.,0.));
#1113=DIRECTION('',(0.,0.,1.));
#1114=DIRECTION('',(0.,0.,1.));
#1115=DIRECTION('',(0.,0.,1.));
#1116=DIRECTION('',(0.5,-0.866025403784439,0.));
#1117=DIRECTION('',(0.,0.,1.));
#1118=DIRECTION('',(0.5,-0.866025403784439,0.));
#1119=DIRECTION('',(0.,0.,1.));
#1120=DIRECTION('',(1.,0.,0.));
#1121=DIRECTION('',(0.,0.,1.));
#1122=DIRECTION('',(1.,0.,0.));
#1123=DIRECTION('',(0.,0.,1.));
#1124=DIRECTION('',(1.,0.,0.));
#1125=DIRECTION('',(0.,0.,1.));
#1126=DIRECTION('',(1.,0.,0.));
#1127=DIRECTION('',(0.,0.,1.));
#1128=DIRECTION('',(0.5,-0.866025403784439,0.));
#1129=DIRECTION('',(0.,0.,1.));
#1130=DIRECTION('',(0.,0.,1.));
#1131=DIRECTION('',(0.,0.,1.));
#1132=DIRECTION('',(-0.5,-0.866025403784438,0.));
#1133=DIRECTION('',(0.,0.,1.));
#1134=DIRECTION('',(-0.5,-0.866025403784438,0.));
#1135=DIRECTION('',(0.,0.,1.));
#1136=DIRECTION('',(1.,0.,0.));
#1137=DIRECTION('',(0.,0.,1.));
#1138=DIRECTION('',(1.,0.,0.));
#1139=DIRECTION('',(0.,0.,1.));
#1140=DIRECTION('',(1.,0.,0.));
#1141=DIRECTION('',(0.,0.,1.));
#1142=DIRECTION('',(1.,0.,0.));
#1143=DIRECTION('',(0.,0.,1.));
#1144=DIRECTION('',(-0.5,-0.866025403784438,0.));
#1145=DIRECTION('',(0.,0.,1.));
#1146=DIRECTION('',(0.,0.,1.));
#1147=DIRECTION('',(0.,0.,1.));
#1148=DIRECTION('',(-1.,1.22464679914735E-16,0.));
#1149=DIRECTION('',(0.,0.,1.));
#1150=DIRECTION('',(-1.,1.22464679914735E-16,0.));
#1151=DIRECTION('',(0.,0.,1.));
#1152=DIRECTION('',(1.,0.,0.));
#1153=DIRECTION('',(0.,0.,1.));
#1154=DIRECTION('',(1.,0.,0.));
#1155=DIRECTION('',(0.,0.,1.));
#1156=DIRECTION('',(1.,0.,0.));
#1157=DIRECTION('',(0.,0.,1.));
#1158=DIRECTION('',(1.,0.,0.));
#1159=DIRECTION('',(0.,0.,1.));
#1160=DIRECTION('',(-1.,1.22464679914735E-16,0.));
#1161=DIRECTION('',(0.,0.,1.));
#1162=DIRECTION('',(0.,0.,1.));
#1163=DIRECTION('',(0.,0.,1.));
#1164=DIRECTION('',(-0.5,0.866025403784439,0.));
#1165=DIRECTION('',(0.,0.,1.));
#1166=DIRECTION('',(-0.5,0.866025403784439,0.));
#1167=DIRECTION('',(0.,0.,1.));
#1168=DIRECTION('',(1.,0.,0.));
#1169=DIRECTION('',(0.,0.,1.));
#1170=DIRECTION('',(1.,0.,0.));
#1171=DIRECTION('',(0.,0.,1.));
#1172=DIRECTION('',(1.,0.,0.));
#1173=DIRECTION('',(0.,0.,1.));
#1174=DIRECTION('',(1.,0.,0.));
#1175=DIRECTION('',(0.,0.,1.));
#1176=DIRECTION('',(-0.5,0.866025403784439,0.));
#1177=DIRECTION('',(0.,0.,1.));
#1178=DIRECTION('',(0.,0.,1.));
#1179=DIRECTION('',(0.,0.,1.));
#1180=DIRECTION('',(0.5,0.866025403784439,0.));
#1181=DIRECTION('',(0.,0.,1.));
#1182=DIRECTION('',(0.5,0.866025403784439,0.));
#1183=DIRECTION('',(0.,0.,1.));
#1184=DIRECTION('',(1.,0.,0.));
#1185=DIRECTION('',(0.,0.,1.));
#1186=DIRECTION('',(1.,0.,0.));
#1187=DIRECTION('',(0.,0.,1.));
#1188=DIRECTION('',(1.,0.,0.));
#1189=DIRECTION('',(0.,0.,1.));
#1190=DIRECTION('',(1.,0.,0.));
#1191=DIRECTION('',(0.,0.,1.));
#1192=DIRECTION('',(0.5,0.866025403784439,0.));
#1193=DIRECTION('',(0.,0.,1.));
#1194=DIRECTION('',(0.,0.,1.));
#1195=DIRECTION('',(0.,0.,1.));
#1196=DIRECTION('',(1.,0.,0.));
#1197=DIRECTION('',(0.,0.,1.));
#1198=DIRECTION('',(1.,0.,0.));
#1199=DIRECTION('',(0.,0.,1.));
#1200=DIRECTION('',(1.,0.,0.));
#1201=DIRECTION('',(0.,0.,1.));
#1202=DIRECTION('',(1.,0.,0.));
#1203=DIRECTION('',(0.,0.,1.));
#1204=DIRECTION('',(1.,0.,0.));
#1205=DIRECTION('',(0.,0.,-1.));
#1206=DIRECTION('',(-1.,0.,0.));
#1207=DIRECTION('',(0.,0.,-1.));
#1208=DIRECTION('',(1.,0.,0.));
#1209=DIRECTION('',(0.,0.,-1.));
#1210=DIRECTION('',(-1.,0.,0.));
#1211=DIRECTION('',(0.,0.,1.));
#1212=DIRECTION('',(1.,0.,0.));
#1213=DIRECTION('',(0.,0.,1.));
#1214=DIRECTION('',(1.,0.,0.));
#1215=DIRECTION('',(0.,0.,1.));
#1216=DIRECTION('',(1.,0.,0.));
#1217=DIRECTION('',(0.,0.,1.));
#1218=DIRECTION('',(1.,0.,0.));
#1219=DIRECTION('',(0.,0.,1.));
#1220=DIRECTION('',(1.,0.,0.));
#1221=DIRECTION('',(0.,0.,1.));
#1222=DIRECTION('',(1.,0.,0.));
#1223=DIRECTION('',(0.,0.,-1.));
#1224=DIRECTION('',(-1.,0.,0.));
#1225=DIRECTION('',(0.,0.,-1.));
#1226=DIRECTION('',(-1.,0.,0.));
#1227=DIRECTION('',(0.,0.,-1.));
#1228=DIRECTION('',(-1.,0.,0.));
#1229=DIRECTION('',(0.,0.,-1.));
#1230=DIRECTION('',(-1.,0.,0.));
#1231=DIRECTION('',(0.,0.,-1.));
#1232=DIRECTION('',(-1.,0.,0.));
#1233=DIRECTION('',(0.,0.,-1.));
#1234=DIRECTION('',(-1.,0.,0.));
#1235=DIRECTION('',(0.,0.,-1.));
#1236=DIRECTION('',(-1.,0.,0.));
#1237=DIRECTION('',(0.,0.,-1.));
#1238=DIRECTION('',(-1.,0.,0.));
#1239=DIRECTION('',(0.,0.,-1.));
#1240=DIRECTION('',(-1.,0.,0.));
#1241=DIRECTION('',(0.,0.,-1.));
#1242=DIRECTION('',(-1.,0.,0.));
#1243=DIRECTION('',(0.,0.,-1.));
#1244=DIRECTION('',(-1.,0.,0.));
#1245=DIRECTION('',(0.,0.,-1.));
#1246=DIRECTION('',(-1.,0.,0.));
#1247=DIRECTION('',(0.,0.,-1.));
#1248=DIRECTION('',(1.,0.,0.));
#1249=DIRECTION('',(0.,0.,1.));
#1250=DIRECTION('',(1.,0.,0.));
#1251=CARTESIAN_POINT('',(0.,0.,0.));
#1252=CARTESIAN_POINT('',(0.,2.72177751110499E-18,0.1016));
#1253=CARTESIAN_POINT('',(0.,2.72177751110499E-18,0.09017));
#1254=CARTESIAN_POINT('',(0.0432871299282483,0.0101008357364601,0.09017));
#1255=CARTESIAN_POINT('',(0.0303911453113523,0.0324373363065507,0.09017));
#1256=CARTESIAN_POINT('',(0.0303911453113523,0.0324373363065506,0.1016));
#1257=CARTESIAN_POINT('',(0.0303911453113523,0.0324373363065506,0.1016));
#1258=CARTESIAN_POINT('',(0.,2.72177751110499E-18,0.1016));
#1259=CARTESIAN_POINT('',(0.012895984616896,0.0425381720430107,0.1016));
#1260=CARTESIAN_POINT('',(0.012895984616896,0.0425381720430107,0.1016));
#1261=CARTESIAN_POINT('',(0.012895984616896,0.0425381720430107,0.09017));
#1262=CARTESIAN_POINT('',(0.,2.72177751110499E-18,0.09017));
#1263=CARTESIAN_POINT('',(-0.012895984616896,0.0425381720430107,0.09017));
#1264=CARTESIAN_POINT('',(-0.012895984616896,0.0425381720430107,0.1016));
#1265=CARTESIAN_POINT('',(-0.012895984616896,0.0425381720430107,0.1016));
#1266=CARTESIAN_POINT('',(0.,2.72177751110499E-18,0.1016));
#1267=CARTESIAN_POINT('',(-0.0303911453113523,0.0324373363065507,0.1016));
#1268=CARTESIAN_POINT('',(-0.0303911453113523,0.0324373363065507,0.1016));
#1269=CARTESIAN_POINT('',(-0.0303911453113523,0.0324373363065507,0.09017));
#1270=CARTESIAN_POINT('',(0.,2.72177751110499E-18,0.09017));
#1271=CARTESIAN_POINT('',(-0.0432871299282483,0.0101008357364601,0.09017));
#1272=CARTESIAN_POINT('',(-0.0432871299282483,0.0101008357364601,0.1016));
#1273=CARTESIAN_POINT('',(-0.0432871299282483,0.0101008357364601,0.1016));
#1274=CARTESIAN_POINT('',(0.,2.72177751110499E-18,0.1016));
#1275=CARTESIAN_POINT('',(-0.0432871299282483,-0.0101008357364601,0.1016));
#1276=CARTESIAN_POINT('',(-0.0432871299282483,-0.0101008357364601,0.1016));
#1277=CARTESIAN_POINT('',(-0.0432871299282483,-0.0101008357364601,0.09017));
#1278=CARTESIAN_POINT('',(0.,2.72177751110499E-18,0.09017));
#1279=CARTESIAN_POINT('',(-0.0303911453113523,-0.0324373363065507,0.09017));
#1280=CARTESIAN_POINT('',(-0.0303911453113523,-0.0324373363065507,0.1016));
#1281=CARTESIAN_POINT('',(-0.0303911453113523,-0.0324373363065507,0.1016));
#1282=CARTESIAN_POINT('',(0.,2.72177751110499E-18,0.1016));
#1283=CARTESIAN_POINT('',(-0.012895984616896,-0.0425381720430107,0.1016));
#1284=CARTESIAN_POINT('',(-0.012895984616896,-0.0425381720430107,0.1016));
#1285=CARTESIAN_POINT('',(-0.012895984616896,-0.0425381720430107,0.09017));
#1286=CARTESIAN_POINT('',(0.,2.72177751110499E-18,0.09017));
#1287=CARTESIAN_POINT('',(0.012895984616896,-0.0425381720430107,0.09017));
#1288=CARTESIAN_POINT('',(0.012895984616896,-0.0425381720430107,0.1016));
#1289=CARTESIAN_POINT('',(0.012895984616896,-0.0425381720430107,0.1016));
#1290=CARTESIAN_POINT('',(0.,2.72177751110499E-18,0.1016));
#1291=CARTESIAN_POINT('',(0.0303911453113523,-0.0324373363065507,0.1016));
#1292=CARTESIAN_POINT('',(0.0303911453113522,-0.0324373363065507,0.1016));
#1293=CARTESIAN_POINT('',(0.0303911453113523,-0.0324373363065507,0.09017));
#1294=CARTESIAN_POINT('',(0.,2.72177751110499E-18,0.09017));
#1295=CARTESIAN_POINT('',(0.0432871299282483,-0.0101008357364601,0.09017));
#1296=CARTESIAN_POINT('',(0.0432871299282483,-0.0101008357364601,0.1016));
#1297=CARTESIAN_POINT('',(0.0432871299282483,-0.0101008357364601,0.1016));
#1298=CARTESIAN_POINT('',(0.,2.72177751110499E-18,0.1016));
#1299=CARTESIAN_POINT('',(0.0432871299282483,0.0101008357364601,0.1016));
#1300=CARTESIAN_POINT('',(0.0432871299282483,0.0101008357364601,0.1016));
#1301=CARTESIAN_POINT('',(0.,2.72177751110499E-18,0.00635));
#1302=CARTESIAN_POINT('',(0.04445,2.72177751110499E-18,0.00635));
#1303=CARTESIAN_POINT('',(-0.0329955678841872,0.01905,0.109474));
#1304=CARTESIAN_POINT('',(-0.0329955678841872,0.01905,0.1016));
#1305=CARTESIAN_POINT('',(-0.0315985678841871,0.0214696749781737,0.1016));
#1306=CARTESIAN_POINT('',(-0.0329955678841872,0.01905,0.09525));
#1307=CARTESIAN_POINT('',(-0.0327607728282548,0.0218341169662407,0.09525));
#1308=CARTESIAN_POINT('',(-0.0352892863760928,0.0174546030337592,0.09525));
#1309=CARTESIAN_POINT('',(-0.0352892863760928,0.0174546030337592,0.09525));
#1310=CARTESIAN_POINT('',(-0.0355940976746608,0.0178928333468797,0.09525));
#1311=CARTESIAN_POINT('',(-0.0359374549636766,0.0189205748593999,0.095118919471537));
#1312=CARTESIAN_POINT('',(-0.035549912323162,0.0205237039340407,0.0949646616328631));
#1313=CARTESIAN_POINT('',(-0.0343574690298122,0.0216612098217814,0.0951185011958431));
#1314=CARTESIAN_POINT('',(-0.0332926043849091,0.021878968321843,0.09525));
#1315=CARTESIAN_POINT('',(-0.0327607728282548,0.0218341169662407,0.09525));
#1316=CARTESIAN_POINT('',(-0.0329955678841871,-0.01905,0.109474));
#1317=CARTESIAN_POINT('',(-0.0329955678841871,-0.01905,0.1016));
#1318=CARTESIAN_POINT('',(-0.0343925678841871,-0.0166303250218263,0.1016));
#1319=CARTESIAN_POINT('',(-0.0329955678841871,-0.01905,0.09525));
#1320=CARTESIAN_POINT('',(-0.0352892863760927,-0.0174546030337593,0.09525));
#1321=CARTESIAN_POINT('',(-0.0327607728282548,-0.0218341169662408,0.09525));
#1322=CARTESIAN_POINT('',(-0.0327607728282548,-0.0218341169662408,0.09525));
#1323=CARTESIAN_POINT('',(-0.0332926970614095,-0.021878976137601,0.09525));
#1324=CARTESIAN_POINT('',(-0.0343544259642838,-0.0216624615162031,0.095118919471537));
#1325=CARTESIAN_POINT('',(-0.0355490051482108,-0.0205252752071474,0.0949646616328631));
#1326=CARTESIAN_POINT('',(-0.0359378924972737,-0.0189238360786638,0.0951185011958432));
#1327=CARTESIAN_POINT('',(-0.0355940445677656,-0.0178927569945549,0.09525));
#1328=CARTESIAN_POINT('',(-0.0352892863760927,-0.0174546030337593,0.09525));
#1329=CARTESIAN_POINT('',(4.66590430475142E-18,-0.0381,0.109474));
#1330=CARTESIAN_POINT('',(4.66590430475142E-18,-0.0381,0.1016));
#1331=CARTESIAN_POINT('',(-0.002794,-0.0381,0.1016));
#1332=CARTESIAN_POINT('',(4.66590430475142E-18,-0.0381,0.09525));
#1333=CARTESIAN_POINT('',(-0.00252851354783794,-0.03928872,0.09525));
#1334=CARTESIAN_POINT('',(0.00252851354783795,-0.03928872,0.09525));
#1335=CARTESIAN_POINT('',(0.00252851354783795,-0.03928872,0.09525));
#1336=CARTESIAN_POINT('',(0.00230140061325117,-0.0397718094844807,0.09525));
#1337=CARTESIAN_POINT('',(0.00158302899939277,-0.040583036375603,0.095118919471537));
#1338=CARTESIAN_POINT('',(9.07174951135901E-7,-0.0410489791411881,0.0949646616328631));
#1339=CARTESIAN_POINT('',(-0.00158042346746158,-0.0405850459004451,0.0951185011958432));
#1340=CARTESIAN_POINT('',(-0.00230144018285654,-0.039771725316398,0.09525));
#1341=CARTESIAN_POINT('',(-0.00252851354783794,-0.03928872,0.09525));
#1342=CARTESIAN_POINT('',(0.0329955678841871,-0.01905,0.109474));
#1343=CARTESIAN_POINT('',(0.0329955678841871,-0.01905,0.1016));
#1344=CARTESIAN_POINT('',(0.0315985678841871,-0.0214696749781737,0.1016));
#1345=CARTESIAN_POINT('',(0.0329955678841871,-0.01905,0.09525));
#1346=CARTESIAN_POINT('',(0.0327607728282548,-0.0218341169662407,0.09525));
#1347=CARTESIAN_POINT('',(0.0352892863760928,-0.0174546030337592,0.09525));
#1348=CARTESIAN_POINT('',(0.0352892863760928,-0.0174546030337592,0.09525));
#1349=CARTESIAN_POINT('',(0.0355940976746608,-0.0178928333468797,0.09525));
#1350=CARTESIAN_POINT('',(0.0359374549636765,-0.0189205748593999,0.095118919471537));
#1351=CARTESIAN_POINT('',(0.035549912323162,-0.0205237039340407,0.0949646616328632));
#1352=CARTESIAN_POINT('',(0.0343574690298122,-0.0216612098217814,0.0951185011958431));
#1353=CARTESIAN_POINT('',(0.0332926043849091,-0.021878968321843,0.09525));
#1354=CARTESIAN_POINT('',(0.0327607728282548,-0.0218341169662407,0.09525));
#1355=CARTESIAN_POINT('',(0.0329955678841871,0.01905,0.109474));
#1356=CARTESIAN_POINT('',(0.0329955678841871,0.01905,0.1016));
#1357=CARTESIAN_POINT('',(0.0343925678841871,0.0166303250218263,0.1016));
#1358=CARTESIAN_POINT('',(0.0329955678841871,0.01905,0.09525));
#1359=CARTESIAN_POINT('',(0.0352892863760928,0.0174546030337593,0.09525));
#1360=CARTESIAN_POINT('',(0.0327607728282548,0.0218341169662408,0.09525));
#1361=CARTESIAN_POINT('',(0.0327607728282548,0.0218341169662408,0.09525));
#1362=CARTESIAN_POINT('',(0.0332926970614096,0.021878976137601,0.09525));
#1363=CARTESIAN_POINT('',(0.0343544259642838,0.0216624615162031,0.095118919471537));
#1364=CARTESIAN_POINT('',(0.0355490051482108,0.0205252752071474,0.0949646616328631));
#1365=CARTESIAN_POINT('',(0.0359378924972737,0.0189238360786638,0.0951185011958432));
#1366=CARTESIAN_POINT('',(0.0355940445677656,0.017892756994555,0.09525));
#1367=CARTESIAN_POINT('',(0.0352892863760928,0.0174546030337593,0.09525));
#1368=CARTESIAN_POINT('',(0.,0.,0.1016));
#1369=CARTESIAN_POINT('',(0.,0.0381,0.1016));
#1370=CARTESIAN_POINT('',(0.002794,0.0381,0.1016));
#1371=CARTESIAN_POINT('',(-0.0383400293650199,0.0089464545094361,0.1016));
#1372=CARTESIAN_POINT('',(-0.0359647131513164,0.0134369191719089,0.1016));
#1373=CARTESIAN_POINT('',(-0.0329955678841871,0.01905,0.1016));
#1374=CARTESIAN_POINT('',(-0.0296190699271295,0.0244278956429059,0.1016));
#1375=CARTESIAN_POINT('',(-0.0269178715614834,0.0287302121572306,0.1016));
#1376=CARTESIAN_POINT('',(-0.0114221578035365,0.0376766666666666,0.1016));
#1377=CARTESIAN_POINT('',(-0.00634564322418692,0.0378648148148148,0.1016));
#1378=CARTESIAN_POINT('',(0.,0.0381,0.1016));
#1379=CARTESIAN_POINT('',(0.00634564322418692,0.0378648148148148,0.1016));
#1380=CARTESIAN_POINT('',(0.0114221578035365,0.0376766666666666,0.1016));
#1381=CARTESIAN_POINT('',(0.0269178715614835,0.0287302121572305,0.1016));
#1382=CARTESIAN_POINT('',(0.0296190699271295,0.0244278956429058,0.1016));
#1383=CARTESIAN_POINT('',(0.0329955678841872,0.01905,0.1016));
#1384=CARTESIAN_POINT('',(0.0359647131513164,0.0134369191719089,0.1016));
#1385=CARTESIAN_POINT('',(0.0383400293650199,0.00894645450943605,0.1016));
#1386=CARTESIAN_POINT('',(0.0383400293650199,-0.00894645450943611,0.1016));
#1387=CARTESIAN_POINT('',(0.0359647131513164,-0.013436919171909,0.1016));
#1388=CARTESIAN_POINT('',(0.0329955678841871,-0.01905,0.1016));
#1389=CARTESIAN_POINT('',(0.0296190699271295,-0.0244278956429059,0.1016));
#1390=CARTESIAN_POINT('',(0.0269178715614834,-0.0287302121572306,0.1016));
#1391=CARTESIAN_POINT('',(0.0114221578035365,-0.0376766666666666,0.1016));
#1392=CARTESIAN_POINT('',(0.00634564322418692,-0.0378648148148148,0.1016));
#1393=CARTESIAN_POINT('',(-4.66590430475142E-18,-0.0381,0.1016));
#1394=CARTESIAN_POINT('',(-0.00634564322418693,-0.0378648148148148,0.1016));
#1395=CARTESIAN_POINT('',(-0.0114221578035365,-0.0376766666666666,0.1016));
#1396=CARTESIAN_POINT('',(-0.0269178715614835,-0.0287302121572305,0.1016));
#1397=CARTESIAN_POINT('',(-0.0296190699271295,-0.0244278956429058,0.1016));
#1398=CARTESIAN_POINT('',(-0.0329955678841871,-0.01905,0.1016));
#1399=CARTESIAN_POINT('',(-0.0359647131513164,-0.0134369191719089,0.1016));
#1400=CARTESIAN_POINT('',(-0.0383400293650199,-0.00894645450943607,0.1016));
#1401=CARTESIAN_POINT('',(0.,6.15899368227187E-18,0.1016));
#1402=CARTESIAN_POINT('',(0.049784,6.15899368227187E-18,0.1016));
#1403=CARTESIAN_POINT('',(2.23345647532014E-17,-1.71303943252709E-17,0.1016));
#1404=CARTESIAN_POINT('',(0.,-3.0950498554851E-18,-0.001016));
#1405=CARTESIAN_POINT('',(0.05715,-3.0950498554851E-18,-0.001016));
#1406=CARTESIAN_POINT('',(2.23345647532014E-17,-1.71303943252709E-17,0.1016));
#1407=CARTESIAN_POINT('',(0.05715,-1.71303943252709E-17,0.1016));
#1408=CARTESIAN_POINT('',(0.,0.,0.1016));
#1409=CARTESIAN_POINT('',(0.,6.4700539692553E-18,0.1016));
#1410=CARTESIAN_POINT('',(0.054864,6.4700539692553E-18,0.1016));
#1411=CARTESIAN_POINT('',(0.,0.,0.09525));
#1412=CARTESIAN_POINT('',(0.,0.0381,0.09525));
#1413=CARTESIAN_POINT('',(-0.00634564322418692,0.0378648148148148,0.09525));
#1414=CARTESIAN_POINT('',(0.00634564322418692,0.0378648148148148,0.09525));
#1415=CARTESIAN_POINT('',(-0.0114221578035365,0.0376766666666666,0.09525));
#1416=CARTESIAN_POINT('',(-0.0064756949735324,0.038833777496012,0.09525));
#1417=CARTESIAN_POINT('',(0.,2.72177751110499E-18,0.09525));
#1418=CARTESIAN_POINT('',(-0.00252851354783794,0.03928872,0.09525));
#1419=CARTESIAN_POINT('',(0.,0.0381,0.09525));
#1420=CARTESIAN_POINT('',(0.00252851354783794,0.03928872,0.09525));
#1421=CARTESIAN_POINT('',(0.,2.72177751110499E-18,0.09525));
#1422=CARTESIAN_POINT('',(0.00647569497353242,0.038833777496012,0.09525));
#1423=CARTESIAN_POINT('',(0.0114221578035365,0.0376766666666666,0.09525));
#1424=CARTESIAN_POINT('',(0.,0.0381,0.09525));
#1425=CARTESIAN_POINT('',(-0.00634564322418693,0.0378648148148148,0.09525));
#1426=CARTESIAN_POINT('',(0.00634564322418692,0.0378648148148148,0.09525));
#1427=CARTESIAN_POINT('',(0.,0.,0.09525));
#1428=CARTESIAN_POINT('',(0.0329955678841872,0.01905,0.09525));
#1429=CARTESIAN_POINT('',(0.0296190699271295,0.0244278956429058,0.09525));
#1430=CARTESIAN_POINT('',(0.0359647131513164,0.0134369191719089,0.09525));
#1431=CARTESIAN_POINT('',(0.0269178715614835,0.0287302121572305,0.09525));
#1432=CARTESIAN_POINT('',(0.0303931903496927,0.0250250051022443,0.09525));
#1433=CARTESIAN_POINT('',(0.,2.72177751110499E-18,0.09525));
#1434=CARTESIAN_POINT('',(0.,2.72177751110499E-18,0.09525));
#1435=CARTESIAN_POINT('',(0.036868885323225,0.0138087723937677,0.09525));
#1436=CARTESIAN_POINT('',(0.0383400293650199,0.00894645450943605,0.09525));
#1437=CARTESIAN_POINT('',(0.0329955678841872,0.01905,0.09525));
#1438=CARTESIAN_POINT('',(0.0296190699271295,0.0244278956429058,0.09525));
#1439=CARTESIAN_POINT('',(0.0359647131513164,0.0134369191719089,0.09525));
#1440=CARTESIAN_POINT('',(0.,0.,0.09525));
#1441=CARTESIAN_POINT('',(0.0329955678841871,-0.01905,0.09525));
#1442=CARTESIAN_POINT('',(0.0359647131513164,-0.013436919171909,0.09525));
#1443=CARTESIAN_POINT('',(0.0296190699271295,-0.0244278956429059,0.09525));
#1444=CARTESIAN_POINT('',(0.0383400293650199,-0.00894645450943611,0.09525));
#1445=CARTESIAN_POINT('',(0.036868885323225,-0.0138087723937678,0.09525));
#1446=CARTESIAN_POINT('',(0.,2.72177751110499E-18,0.09525));
#1447=CARTESIAN_POINT('',(0.,2.72177751110499E-18,0.09525));
#1448=CARTESIAN_POINT('',(0.0303931903496926,-0.0250250051022443,0.09525));
#1449=CARTESIAN_POINT('',(0.0269178715614834,-0.0287302121572306,0.09525));
#1450=CARTESIAN_POINT('',(0.0329955678841871,-0.01905,0.09525));
#1451=CARTESIAN_POINT('',(0.0359647131513164,-0.013436919171909,0.09525));
#1452=CARTESIAN_POINT('',(0.0296190699271295,-0.0244278956429059,0.09525));
#1453=CARTESIAN_POINT('',(0.,0.,0.09525));
#1454=CARTESIAN_POINT('',(-4.66590430475142E-18,-0.0381,0.09525));
#1455=CARTESIAN_POINT('',(0.00634564322418692,-0.0378648148148148,0.09525));
#1456=CARTESIAN_POINT('',(-0.00634564322418693,-0.0378648148148148,0.09525));
#1457=CARTESIAN_POINT('',(0.0114221578035365,-0.0376766666666666,0.09525));
#1458=CARTESIAN_POINT('',(0.0064756949735324,-0.038833777496012,0.09525));
#1459=CARTESIAN_POINT('',(0.,2.72177751110499E-18,0.09525));
#1460=CARTESIAN_POINT('',(0.,2.72177751110499E-18,0.09525));
#1461=CARTESIAN_POINT('',(-0.00647569497353242,-0.038833777496012,0.09525));
#1462=CARTESIAN_POINT('',(-0.0114221578035365,-0.0376766666666666,0.09525));
#1463=CARTESIAN_POINT('',(-4.66590430475142E-18,-0.0381,0.09525));
#1464=CARTESIAN_POINT('',(0.00634564322418692,-0.0378648148148148,0.09525));
#1465=CARTESIAN_POINT('',(-0.00634564322418693,-0.0378648148148148,0.09525));
#1466=CARTESIAN_POINT('',(0.,0.,0.09525));
#1467=CARTESIAN_POINT('',(-0.0329955678841871,-0.01905,0.09525));
#1468=CARTESIAN_POINT('',(-0.0296190699271295,-0.0244278956429058,0.09525));
#1469=CARTESIAN_POINT('',(-0.0359647131513164,-0.0134369191719089,0.09525));
#1470=CARTESIAN_POINT('',(-0.0269178715614835,-0.0287302121572305,0.09525));
#1471=CARTESIAN_POINT('',(-0.0303931903496927,-0.0250250051022443,0.09525));
#1472=CARTESIAN_POINT('',(0.,2.72177751110499E-18,0.09525));
#1473=CARTESIAN_POINT('',(0.,2.72177751110499E-18,0.09525));
#1474=CARTESIAN_POINT('',(-0.036868885323225,-0.0138087723937677,0.09525));
#1475=CARTESIAN_POINT('',(-0.0383400293650199,-0.00894645450943607,0.09525));
#1476=CARTESIAN_POINT('',(-0.0329955678841871,-0.01905,0.09525));
#1477=CARTESIAN_POINT('',(-0.0296190699271295,-0.0244278956429058,0.09525));
#1478=CARTESIAN_POINT('',(-0.0359647131513164,-0.0134369191719089,0.09525));
#1479=CARTESIAN_POINT('',(0.,0.,0.09525));
#1480=CARTESIAN_POINT('',(-0.0329955678841871,0.01905,0.09525));
#1481=CARTESIAN_POINT('',(-0.0359647131513164,0.0134369191719089,0.09525));
#1482=CARTESIAN_POINT('',(-0.0296190699271295,0.0244278956429059,0.09525));
#1483=CARTESIAN_POINT('',(-0.0383400293650199,0.0089464545094361,0.09525));
#1484=CARTESIAN_POINT('',(-0.036868885323225,0.0138087723937677,0.09525));
#1485=CARTESIAN_POINT('',(0.,2.72177751110499E-18,0.09525));
#1486=CARTESIAN_POINT('',(0.,2.72177751110499E-18,0.09525));
#1487=CARTESIAN_POINT('',(-0.0303931903496927,0.0250250051022443,0.09525));
#1488=CARTESIAN_POINT('',(-0.0269178715614834,0.0287302121572306,0.09525));
#1489=CARTESIAN_POINT('',(-0.0329955678841871,0.01905,0.09525));
#1490=CARTESIAN_POINT('',(-0.0359647131513164,0.0134369191719089,0.09525));
#1491=CARTESIAN_POINT('',(-0.0296190699271295,0.0244278956429059,0.09525));
#1492=CARTESIAN_POINT('',(0.,6.15899368227187E-18,0.098933));
#1493=CARTESIAN_POINT('',(0.,6.15899368227187E-18,0.098933));
#1494=CARTESIAN_POINT('',(0.049784,6.15899368227187E-18,0.098933));
#1495=CARTESIAN_POINT('',(0.,6.4700539692553E-18,0.098933));
#1496=CARTESIAN_POINT('',(0.,6.4700539692553E-18,0.098933));
#1497=CARTESIAN_POINT('',(0.054864,6.4700539692553E-18,0.098933));
#1498=CARTESIAN_POINT('',(2.08166817117217E-17,-1.38777878078145E-17,0.098933));
#1499=CARTESIAN_POINT('',(0.,0.0381,0.109474));
#1500=CARTESIAN_POINT('',(-0.00252851354783794,0.03928872,0.09525));
#1501=CARTESIAN_POINT('',(-0.00230140061325117,0.0397718094844807,0.09525));
#1502=CARTESIAN_POINT('',(-0.00158302899939276,0.040583036375603,0.095118919471537));
#1503=CARTESIAN_POINT('',(-9.07174951130559E-7,0.0410489791411881,0.0949646616328631));
#1504=CARTESIAN_POINT('',(0.00158042346746159,0.0405850459004451,0.0951185011958432));
#1505=CARTESIAN_POINT('',(0.00230144018285654,0.039771725316398,0.09525));
#1506=CARTESIAN_POINT('',(0.00252851354783794,0.03928872,0.09525));
#1507=CARTESIAN_POINT('',(0.,0.,-0.00635));
#1508=CARTESIAN_POINT('',(0.,-3.0950498554851E-18,-0.00635));
#1509=CARTESIAN_POINT('',(-0.051816,-3.0950498554851E-18,-0.00635));
#1510=CARTESIAN_POINT('',(0.,2.72177751110499E-18,0.09017));
#1511=CARTESIAN_POINT('',(-0.0303931903496927,-0.0250250051022443,0.09525));
#1512=CARTESIAN_POINT('',(-0.0310073844532248,-0.0256010917489378,0.09525));
#1513=CARTESIAN_POINT('',(-0.0318883653868424,-0.0270248730448062,0.0948198765267237));
#1514=CARTESIAN_POINT('',(-0.03210849536502,-0.0291896949390705,0.0934738949009467));
#1515=CARTESIAN_POINT('',(-0.0315667381137047,-0.0310416436289919,0.0918755222805177));
#1516=CARTESIAN_POINT('',(-0.0308308460605122,-0.0320253724746583,0.0907370621593067));
#1517=CARTESIAN_POINT('',(-0.0303911453113523,-0.0324373363065507,0.09017));
#1518=CARTESIAN_POINT('',(-0.036868885323225,-0.0138087723937677,0.09525));
#1519=CARTESIAN_POINT('',(-0.0376748880458087,-0.0140526367669344,0.09525));
#1520=CARTESIAN_POINT('',(-0.0393484092842733,-0.01410369798776,0.0948198765267266));
#1521=CARTESIAN_POINT('',(-0.0413332650284609,-0.0132119251938763,0.0934738949009366));
#1522=CARTESIAN_POINT('',(-0.0426662210147909,-0.0118167753065479,0.0918755222805556));
#1523=CARTESIAN_POINT('',(-0.0431502091589516,-0.0106876096713167,0.0907370621592249));
#1524=CARTESIAN_POINT('',(-0.0432871299282483,-0.0101008357364601,0.09017));
#1525=CARTESIAN_POINT('',(0.,2.72177751110499E-18,0.09017));
#1526=CARTESIAN_POINT('',(0.0064756949735324,-0.038833777496012,0.09525));
#1527=CARTESIAN_POINT('',(0.00666750359258397,-0.0396537285158722,0.09525));
#1528=CARTESIAN_POINT('',(0.00746004389743021,-0.041128571032569,0.0948198765267235));
#1529=CARTESIAN_POINT('',(0.00922476966344369,-0.0424016201329373,0.0934738949009474));
#1530=CARTESIAN_POINT('',(0.0110994829010759,-0.0428584189355753,0.0918755222805153));
#1531=CARTESIAN_POINT('',(0.0123193630984616,-0.0427129821458986,0.090737062159312));
#1532=CARTESIAN_POINT('',(0.012895984616896,-0.0425381720430107,0.09017));
#1533=CARTESIAN_POINT('',(-0.00647569497353242,-0.038833777496012,0.09525));
#1534=CARTESIAN_POINT('',(-0.00666750359258399,-0.0396537285158722,0.09525));
#1535=CARTESIAN_POINT('',(-0.00746004389743317,-0.0411285710325681,0.0948198765267268));
#1536=CARTESIAN_POINT('',(-0.00922476966343343,-0.0424016201329404,0.093473894900936));
#1537=CARTESIAN_POINT('',(-0.0110994829011141,-0.0428584189355638,0.0918755222805577));
#1538=CARTESIAN_POINT('',(-0.0123193630983795,-0.0427129821459235,0.0907370621592207));
#1539=CARTESIAN_POINT('',(-0.012895984616896,-0.0425381720430107,0.09017));
#1540=CARTESIAN_POINT('',(0.,2.72177751110499E-18,0.09017));
#1541=CARTESIAN_POINT('',(0.036868885323225,-0.0138087723937678,0.09525));
#1542=CARTESIAN_POINT('',(0.0376748880458087,-0.0140526367669344,0.09525));
#1543=CARTESIAN_POINT('',(0.0393484092842735,-0.0141036979877592,0.0948198765267275));
#1544=CARTESIAN_POINT('',(0.0413332650284602,-0.0132119251938793,0.0934738949009333));
#1545=CARTESIAN_POINT('',(0.0426662210147934,-0.0118167753065371,0.0918755222805676));
#1546=CARTESIAN_POINT('',(0.0431502091589461,-0.0106876096713404,0.0907370621591992));
#1547=CARTESIAN_POINT('',(0.0432871299282483,-0.0101008357364601,0.09017));
#1548=CARTESIAN_POINT('',(0.0303931903496926,-0.0250250051022443,0.09525));
#1549=CARTESIAN_POINT('',(0.0310073844532247,-0.0256010917489379,0.09525));
#1550=CARTESIAN_POINT('',(0.0318883653868403,-0.0270248730448082,0.0948198765267266));
#1551=CARTESIAN_POINT('',(0.032108495365027,-0.0291896949390639,0.0934738949009365));
#1552=CARTESIAN_POINT('',(0.0315667381136785,-0.0310416436290164,0.0918755222805558));
#1553=CARTESIAN_POINT('',(0.0308308460605684,-0.0320253724746056,0.0907370621592248));
#1554=CARTESIAN_POINT('',(0.0303911453113523,-0.0324373363065507,0.09017));
#1555=CARTESIAN_POINT('',(0.,2.72177751110499E-18,0.09017));
#1556=CARTESIAN_POINT('',(0.0303931903496927,0.0250250051022443,0.09525));
#1557=CARTESIAN_POINT('',(0.0310073844532248,0.0256010917489378,0.09525));
#1558=CARTESIAN_POINT('',(0.0318883653868382,0.0270248730448101,0.0948198765267297));
#1559=CARTESIAN_POINT('',(0.0321084953650344,0.029189694939057,0.0934738949009258));
#1560=CARTESIAN_POINT('',(0.0315667381136512,0.031041643629042,0.0918755222805956));
#1561=CARTESIAN_POINT('',(0.0308308460606274,0.0320253724745504,0.0907370621591391));
#1562=CARTESIAN_POINT('',(0.0303911453113524,0.0324373363065507,0.09017));
#1563=CARTESIAN_POINT('',(0.036868885323225,0.0138087723937677,0.09525));
#1564=CARTESIAN_POINT('',(0.0376748880458087,0.0140526367669343,0.09525));
#1565=CARTESIAN_POINT('',(0.0393484092842725,0.0141036979877636,0.0948198765267227));
#1566=CARTESIAN_POINT('',(0.0413332650284639,0.0132119251938637,0.0934738949009502));
#1567=CARTESIAN_POINT('',(0.04266622101478,0.0118167753065946,0.0918755222805047));
#1568=CARTESIAN_POINT('',(0.0431502091589751,0.0106876096712161,0.0907370621593347));
#1569=CARTESIAN_POINT('',(0.0432871299282483,0.0101008357364601,0.09017));
#1570=CARTESIAN_POINT('',(0.,2.72177751110499E-18,0.09017));
#1571=CARTESIAN_POINT('',(-0.0064756949735324,0.038833777496012,0.09525));
#1572=CARTESIAN_POINT('',(-0.00666750359258397,0.0396537285158722,0.09525));
#1573=CARTESIAN_POINT('',(-0.00746004389742801,0.0411285710325697,0.094819876526721));
#1574=CARTESIAN_POINT('',(-0.00922476966345142,0.042401620132935,0.093473894900956));
#1575=CARTESIAN_POINT('',(-0.0110994829010472,0.042858418935584,0.0918755222804835));
#1576=CARTESIAN_POINT('',(-0.0123193630985234,0.0427129821458799,0.0907370621593806));
#1577=CARTESIAN_POINT('',(-0.012895984616896,0.0425381720430107,0.09017));
#1578=CARTESIAN_POINT('',(0.00647569497353242,0.038833777496012,0.09525));
#1579=CARTESIAN_POINT('',(0.00666750359258399,0.0396537285158722,0.09525));
#1580=CARTESIAN_POINT('',(0.0074600438974313,0.0411285710325687,0.0948198765267247));
#1581=CARTESIAN_POINT('',(0.00922476966343998,0.0424016201329384,0.0934738949009433));
#1582=CARTESIAN_POINT('',(0.0110994829010898,0.0428584189355711,0.0918755222805307));
#1583=CARTESIAN_POINT('',(0.0123193630984318,0.0427129821459077,0.0907370621592789));
#1584=CARTESIAN_POINT('',(0.012895984616896,0.0425381720430107,0.09017));
#1585=CARTESIAN_POINT('',(0.,2.72177751110499E-18,0.09017));
#1586=CARTESIAN_POINT('',(-0.036868885323225,0.0138087723937677,0.09525));
#1587=CARTESIAN_POINT('',(-0.0376748880458087,0.0140526367669344,0.09525));
#1588=CARTESIAN_POINT('',(-0.0393484092842739,0.0141036979877577,0.0948198765267292));
#1589=CARTESIAN_POINT('',(-0.041333265028459,0.0132119251938845,0.0934738949009276));
#1590=CARTESIAN_POINT('',(-0.042666221014798,0.0118167753065177,0.0918755222805887));
#1591=CARTESIAN_POINT('',(-0.0431502091589363,0.010687609671382,0.0907370621591537));
#1592=CARTESIAN_POINT('',(-0.0432871299282483,0.0101008357364601,0.09017));
#1593=CARTESIAN_POINT('',(-0.0303931903496926,0.0250250051022443,0.09525));
#1594=CARTESIAN_POINT('',(-0.0310073844532247,0.0256010917489378,0.09525));
#1595=CARTESIAN_POINT('',(-0.0318883653868389,0.0270248730448096,0.0948198765267288));
#1596=CARTESIAN_POINT('',(-0.0321084953650321,0.0291896949390592,0.0934738949009291));
#1597=CARTESIAN_POINT('',(-0.0315667381136598,0.031041643629034,0.0918755222805831));
#1598=CARTESIAN_POINT('',(-0.0308308460606088,0.0320253724745677,0.090737062159166));
#1599=CARTESIAN_POINT('',(-0.0303911453113523,0.0324373363065507,0.09017));
#1600=CARTESIAN_POINT('',(0.0269178715614835,0.0287302121572305,0.1016));
#1601=CARTESIAN_POINT('',(0.0383400293650199,0.00894645450943605,0.09525));
#1602=CARTESIAN_POINT('',(0.0383400293650199,-0.00894645450943611,0.1016));
#1603=CARTESIAN_POINT('',(0.0269178715614834,-0.0287302121572306,0.09525));
#1604=CARTESIAN_POINT('',(0.0114221578035365,-0.0376766666666666,0.1016));
#1605=CARTESIAN_POINT('',(-0.0114221578035365,-0.0376766666666666,0.09525));
#1606=CARTESIAN_POINT('',(-0.0269178715614835,-0.0287302121572305,0.1016));
#1607=CARTESIAN_POINT('',(-0.0383400293650199,-0.00894645450943607,0.09525));
#1608=CARTESIAN_POINT('',(-0.0383400293650199,0.0089464545094361,0.1016));
#1609=CARTESIAN_POINT('',(-0.0269178715614834,0.0287302121572306,0.09525));
#1610=CARTESIAN_POINT('',(-0.0114221578035365,0.0376766666666666,0.1016));
#1611=CARTESIAN_POINT('',(0.0114221578035365,0.0376766666666666,0.09525));
#1612=CARTESIAN_POINT('',(0.,0.,0.00635));
#1613=CARTESIAN_POINT('',(0.,-3.0950498554851E-18,-0.00762));
#1614=MECHANICAL_DESIGN_GEOMETRIC_PRESENTATION_REPRESENTATION('',(#835),
#1615);
#1615=(
GEOMETRIC_REPRESENTATION_CONTEXT(3)
GLOBAL_UNCERTAINTY_ASSIGNED_CONTEXT((#1616))
GLOBAL_UNIT_ASSIGNED_CONTEXT((#1619,#1618,#1617))
REPRESENTATION_CONTEXT('Part 1','TOP_LEVEL_ASSEMBLY_PART')
);
#1616=UNCERTAINTY_MEASURE_WITH_UNIT(LENGTH_MEASURE(2.E-5),#1619,
'DISTANCE_ACCURACY_VALUE','Maximum Tolerance applied to model');
#1617=(
NAMED_UNIT(*)
SI_UNIT($,.STERADIAN.)
SOLID_ANGLE_UNIT()
);
#1618=(
NAMED_UNIT(*)
PLANE_ANGLE_UNIT()
SI_UNIT($,.RADIAN.)
);
#1619=(
LENGTH_UNIT()
NAMED_UNIT(*)
SI_UNIT($,.METRE.)
);
#1620=PRODUCT_DEFINITION_SHAPE('','',#1621);
#1621=PRODUCT_DEFINITION('','',#1623,#1622);
#1622=PRODUCT_DEFINITION_CONTEXT('',#1629,'design');
#1623=PRODUCT_DEFINITION_FORMATION_WITH_SPECIFIED_SOURCE('','',#1625,
 .NOT_KNOWN.);
#1624=PRODUCT_RELATED_PRODUCT_CATEGORY('','',(#1625));
#1625=PRODUCT('Part 1','Part 1','Part 1',(#1627));
#1626=PRODUCT_CATEGORY('','');
#1627=PRODUCT_CONTEXT('',#1629,'mechanical');
#1628=APPLICATION_PROTOCOL_DEFINITION('international standard',
'ap242_managed_model_based_3d_engineering',2020,#1629);
#1629=APPLICATION_CONTEXT('managed model based 3d engineering');
ENDSEC;
END-ISO-10303-21;
