ISO-10303-21;
HEADER;
/* Generated by software containing ST-Developer
 * from STEP Tools, Inc. (www.steptools.com) 
 */
/* OPTION: using custom renumber hook */

FILE_DESCRIPTION(
/* description */ ('STEP AP242 Edition 2',
'CAx-IF Rec.Pracs.---Representation and Presentation of Product Manufa
cturing Information (PMI)---4.0---2014-10-13',
'CAx-IF Rec.Pracs.---3D Tessellated Geometry---0.4---2014-09-14','2;1',
'CAx-IF Rec.Pracs.---User Defined Attributes---1.5---2016-08-15'),
/* implementation_level */ '2;1');

FILE_NAME(
/* name */ 'Solar Mount - Part 1',
/* time_stamp */ '2026-08-16T04:20:34Z',
/* author */ (''),
/* organization */ (''),
/* preprocessor_version */ 'ST-DEVELOPER v20',
/* originating_system */ 'ONSHAPE BY PTC INC, 1.219',
/* authorisation */ '  ');

FILE_SCHEMA (('AP242_MANAGED_MODEL_BASED_3D_ENGINEERING_MIM_LF { 1 0 10303 442 3 1 4 }'));
ENDSEC;

DATA;
#10=SHAPE_REPRESENTATION_RELATIONSHIP('','',#627,#11);
#11=ADVANCED_BREP_SHAPE_REPRESENTATION('',(#625),#991);
#12=CIRCLE('',#638,0.0762);
#13=CIRCLE('',#639,0.0762);
#14=CYLINDRICAL_SURFACE('',#637,0.0762);
#15=ORIENTED_EDGE('',*,*,#179,.F.);
#16=ORIENTED_EDGE('',*,*,#180,.F.);
#17=ORIENTED_EDGE('',*,*,#181,.F.);
#18=ORIENTED_EDGE('',*,*,#182,.T.);
#19=ORIENTED_EDGE('',*,*,#183,.F.);
#20=ORIENTED_EDGE('',*,*,#184,.F.);
#21=ORIENTED_EDGE('',*,*,#185,.F.);
#22=ORIENTED_EDGE('',*,*,#186,.T.);
#23=ORIENTED_EDGE('',*,*,#187,.F.);
#24=ORIENTED_EDGE('',*,*,#188,.F.);
#25=ORIENTED_EDGE('',*,*,#189,.F.);
#26=ORIENTED_EDGE('',*,*,#190,.T.);
#27=ORIENTED_EDGE('',*,*,#191,.F.);
#28=ORIENTED_EDGE('',*,*,#192,.F.);
#29=ORIENTED_EDGE('',*,*,#193,.F.);
#30=ORIENTED_EDGE('',*,*,#194,.T.);
#31=ORIENTED_EDGE('',*,*,#195,.T.);
#32=ORIENTED_EDGE('',*,*,#196,.T.);
#33=ORIENTED_EDGE('',*,*,#182,.F.);
#34=ORIENTED_EDGE('',*,*,#197,.F.);
#35=ORIENTED_EDGE('',*,*,#192,.T.);
#36=ORIENTED_EDGE('',*,*,#198,.F.);
#37=ORIENTED_EDGE('',*,*,#199,.T.);
#38=ORIENTED_EDGE('',*,*,#200,.T.);
#39=ORIENTED_EDGE('',*,*,#186,.F.);
#40=ORIENTED_EDGE('',*,*,#201,.F.);
#41=ORIENTED_EDGE('',*,*,#180,.T.);
#42=ORIENTED_EDGE('',*,*,#202,.F.);
#43=ORIENTED_EDGE('',*,*,#203,.T.);
#44=ORIENTED_EDGE('',*,*,#204,.T.);
#45=ORIENTED_EDGE('',*,*,#190,.F.);
#46=ORIENTED_EDGE('',*,*,#205,.F.);
#47=ORIENTED_EDGE('',*,*,#184,.T.);
#48=ORIENTED_EDGE('',*,*,#206,.F.);
#49=ORIENTED_EDGE('',*,*,#207,.T.);
#50=ORIENTED_EDGE('',*,*,#208,.T.);
#51=ORIENTED_EDGE('',*,*,#194,.F.);
#52=ORIENTED_EDGE('',*,*,#209,.F.);
#53=ORIENTED_EDGE('',*,*,#188,.T.);
#54=ORIENTED_EDGE('',*,*,#210,.F.);
#55=ORIENTED_EDGE('',*,*,#211,.T.);
#56=ORIENTED_EDGE('',*,*,#212,.F.);
#57=ORIENTED_EDGE('',*,*,#211,.F.);
#58=ORIENTED_EDGE('',*,*,#197,.T.);
#59=ORIENTED_EDGE('',*,*,#181,.T.);
#60=ORIENTED_EDGE('',*,*,#201,.T.);
#61=ORIENTED_EDGE('',*,*,#185,.T.);
#62=ORIENTED_EDGE('',*,*,#205,.T.);
#63=ORIENTED_EDGE('',*,*,#189,.T.);
#64=ORIENTED_EDGE('',*,*,#209,.T.);
#65=ORIENTED_EDGE('',*,*,#193,.T.);
#66=ORIENTED_EDGE('',*,*,#212,.T.);
#67=ORIENTED_EDGE('',*,*,#195,.F.);
#68=ORIENTED_EDGE('',*,*,#213,.F.);
#69=ORIENTED_EDGE('',*,*,#207,.F.);
#70=ORIENTED_EDGE('',*,*,#214,.F.);
#71=ORIENTED_EDGE('',*,*,#203,.F.);
#72=ORIENTED_EDGE('',*,*,#215,.F.);
#73=ORIENTED_EDGE('',*,*,#199,.F.);
#74=ORIENTED_EDGE('',*,*,#216,.F.);
#75=ORIENTED_EDGE('',*,*,#217,.T.);
#76=ORIENTED_EDGE('',*,*,#218,.F.);
#77=ORIENTED_EDGE('',*,*,#219,.F.);
#78=ORIENTED_EDGE('',*,*,#220,.T.);
#79=ORIENTED_EDGE('',*,*,#221,.T.);
#80=ORIENTED_EDGE('',*,*,#213,.T.);
#81=ORIENTED_EDGE('',*,*,#222,.F.);
#82=ORIENTED_EDGE('',*,*,#218,.T.);
#83=ORIENTED_EDGE('',*,*,#223,.T.);
#84=ORIENTED_EDGE('',*,*,#224,.F.);
#85=ORIENTED_EDGE('',*,*,#225,.F.);
#86=ORIENTED_EDGE('',*,*,#191,.T.);
#87=ORIENTED_EDGE('',*,*,#226,.T.);
#88=ORIENTED_EDGE('',*,*,#220,.F.);
#89=ORIENTED_EDGE('',*,*,#227,.F.);
#90=ORIENTED_EDGE('',*,*,#224,.T.);
#91=ORIENTED_EDGE('',*,*,#219,.T.);
#92=ORIENTED_EDGE('',*,*,#222,.T.);
#93=ORIENTED_EDGE('',*,*,#198,.T.);
#94=ORIENTED_EDGE('',*,*,#225,.T.);
#95=ORIENTED_EDGE('',*,*,#227,.T.);
#96=ORIENTED_EDGE('',*,*,#217,.F.);
#97=ORIENTED_EDGE('',*,*,#226,.F.);
#98=ORIENTED_EDGE('',*,*,#223,.F.);
#99=ORIENTED_EDGE('',*,*,#208,.F.);
#100=ORIENTED_EDGE('',*,*,#221,.F.);
#101=ORIENTED_EDGE('',*,*,#228,.T.);
#102=ORIENTED_EDGE('',*,*,#229,.F.);
#103=ORIENTED_EDGE('',*,*,#230,.F.);
#104=ORIENTED_EDGE('',*,*,#231,.T.);
#105=ORIENTED_EDGE('',*,*,#232,.T.);
#106=ORIENTED_EDGE('',*,*,#214,.T.);
#107=ORIENTED_EDGE('',*,*,#233,.F.);
#108=ORIENTED_EDGE('',*,*,#229,.T.);
#109=ORIENTED_EDGE('',*,*,#234,.T.);
#110=ORIENTED_EDGE('',*,*,#235,.F.);
#111=ORIENTED_EDGE('',*,*,#236,.F.);
#112=ORIENTED_EDGE('',*,*,#187,.T.);
#113=ORIENTED_EDGE('',*,*,#237,.T.);
#114=ORIENTED_EDGE('',*,*,#231,.F.);
#115=ORIENTED_EDGE('',*,*,#238,.F.);
#116=ORIENTED_EDGE('',*,*,#235,.T.);
#117=ORIENTED_EDGE('',*,*,#230,.T.);
#118=ORIENTED_EDGE('',*,*,#233,.T.);
#119=ORIENTED_EDGE('',*,*,#210,.T.);
#120=ORIENTED_EDGE('',*,*,#236,.T.);
#121=ORIENTED_EDGE('',*,*,#238,.T.);
#122=ORIENTED_EDGE('',*,*,#228,.F.);
#123=ORIENTED_EDGE('',*,*,#237,.F.);
#124=ORIENTED_EDGE('',*,*,#234,.F.);
#125=ORIENTED_EDGE('',*,*,#204,.F.);
#126=ORIENTED_EDGE('',*,*,#232,.F.);
#127=ORIENTED_EDGE('',*,*,#239,.T.);
#128=ORIENTED_EDGE('',*,*,#240,.F.);
#129=ORIENTED_EDGE('',*,*,#241,.F.);
#130=ORIENTED_EDGE('',*,*,#242,.T.);
#131=ORIENTED_EDGE('',*,*,#243,.T.);
#132=ORIENTED_EDGE('',*,*,#215,.T.);
#133=ORIENTED_EDGE('',*,*,#244,.F.);
#134=ORIENTED_EDGE('',*,*,#240,.T.);
#135=ORIENTED_EDGE('',*,*,#245,.T.);
#136=ORIENTED_EDGE('',*,*,#246,.F.);
#137=ORIENTED_EDGE('',*,*,#247,.F.);
#138=ORIENTED_EDGE('',*,*,#183,.T.);
#139=ORIENTED_EDGE('',*,*,#248,.T.);
#140=ORIENTED_EDGE('',*,*,#242,.F.);
#141=ORIENTED_EDGE('',*,*,#249,.F.);
#142=ORIENTED_EDGE('',*,*,#246,.T.);
#143=ORIENTED_EDGE('',*,*,#241,.T.);
#144=ORIENTED_EDGE('',*,*,#244,.T.);
#145=ORIENTED_EDGE('',*,*,#206,.T.);
#146=ORIENTED_EDGE('',*,*,#247,.T.);
#147=ORIENTED_EDGE('',*,*,#249,.T.);
#148=ORIENTED_EDGE('',*,*,#239,.F.);
#149=ORIENTED_EDGE('',*,*,#248,.F.);
#150=ORIENTED_EDGE('',*,*,#245,.F.);
#151=ORIENTED_EDGE('',*,*,#200,.F.);
#152=ORIENTED_EDGE('',*,*,#243,.F.);
#153=ORIENTED_EDGE('',*,*,#250,.T.);
#154=ORIENTED_EDGE('',*,*,#251,.F.);
#155=ORIENTED_EDGE('',*,*,#252,.F.);
#156=ORIENTED_EDGE('',*,*,#253,.T.);
#157=ORIENTED_EDGE('',*,*,#254,.T.);
#158=ORIENTED_EDGE('',*,*,#216,.T.);
#159=ORIENTED_EDGE('',*,*,#255,.F.);
#160=ORIENTED_EDGE('',*,*,#251,.T.);
#161=ORIENTED_EDGE('',*,*,#256,.T.);
#162=ORIENTED_EDGE('',*,*,#257,.F.);
#163=ORIENTED_EDGE('',*,*,#258,.F.);
#164=ORIENTED_EDGE('',*,*,#179,.T.);
#165=ORIENTED_EDGE('',*,*,#259,.T.);
#166=ORIENTED_EDGE('',*,*,#253,.F.);
#167=ORIENTED_EDGE('',*,*,#260,.F.);
#168=ORIENTED_EDGE('',*,*,#257,.T.);
#169=ORIENTED_EDGE('',*,*,#252,.T.);
#170=ORIENTED_EDGE('',*,*,#255,.T.);
#171=ORIENTED_EDGE('',*,*,#202,.T.);
#172=ORIENTED_EDGE('',*,*,#258,.T.);
#173=ORIENTED_EDGE('',*,*,#260,.T.);
#174=ORIENTED_EDGE('',*,*,#250,.F.);
#175=ORIENTED_EDGE('',*,*,#259,.F.);
#176=ORIENTED_EDGE('',*,*,#256,.F.);
#177=ORIENTED_EDGE('',*,*,#196,.F.);
#178=ORIENTED_EDGE('',*,*,#254,.F.);
#179=EDGE_CURVE('',#261,#262,#311,.T.);
#180=EDGE_CURVE('',#263,#261,#312,.T.);
#181=EDGE_CURVE('',#264,#263,#313,.T.);
#182=EDGE_CURVE('',#264,#262,#314,.T.);
#183=EDGE_CURVE('',#265,#266,#315,.T.);
#184=EDGE_CURVE('',#267,#265,#316,.T.);
#185=EDGE_CURVE('',#268,#267,#317,.T.);
#186=EDGE_CURVE('',#268,#266,#318,.T.);
#187=EDGE_CURVE('',#269,#270,#319,.T.);
#188=EDGE_CURVE('',#271,#269,#320,.T.);
#189=EDGE_CURVE('',#272,#271,#321,.T.);
#190=EDGE_CURVE('',#272,#270,#322,.T.);
#191=EDGE_CURVE('',#273,#274,#323,.T.);
#192=EDGE_CURVE('',#275,#273,#324,.T.);
#193=EDGE_CURVE('',#276,#275,#325,.T.);
#194=EDGE_CURVE('',#276,#274,#326,.T.);
#195=EDGE_CURVE('',#277,#278,#327,.T.);
#196=EDGE_CURVE('',#278,#262,#328,.T.);
#197=EDGE_CURVE('',#275,#264,#329,.T.);
#198=EDGE_CURVE('',#277,#273,#330,.T.);
#199=EDGE_CURVE('',#279,#280,#331,.T.);
#200=EDGE_CURVE('',#280,#266,#332,.T.);
#201=EDGE_CURVE('',#263,#268,#333,.T.);
#202=EDGE_CURVE('',#279,#261,#334,.T.);
#203=EDGE_CURVE('',#281,#282,#335,.T.);
#204=EDGE_CURVE('',#282,#270,#336,.T.);
#205=EDGE_CURVE('',#267,#272,#337,.T.);
#206=EDGE_CURVE('',#281,#265,#338,.T.);
#207=EDGE_CURVE('',#283,#284,#339,.T.);
#208=EDGE_CURVE('',#284,#274,#340,.T.);
#209=EDGE_CURVE('',#271,#276,#341,.T.);
#210=EDGE_CURVE('',#283,#269,#342,.T.);
#211=EDGE_CURVE('',#285,#285,#12,.T.);
#212=EDGE_CURVE('',#286,#286,#13,.T.);
#213=EDGE_CURVE('',#284,#277,#343,.T.);
#214=EDGE_CURVE('',#282,#283,#344,.T.);
#215=EDGE_CURVE('',#280,#281,#345,.T.);
#216=EDGE_CURVE('',#278,#279,#346,.T.);
#217=EDGE_CURVE('',#287,#288,#347,.T.);
#218=EDGE_CURVE('',#289,#288,#348,.T.);
#219=EDGE_CURVE('',#290,#289,#349,.T.);
#220=EDGE_CURVE('',#290,#287,#350,.T.);
#221=EDGE_CURVE('',#288,#284,#351,.T.);
#222=EDGE_CURVE('',#289,#277,#352,.T.);
#223=EDGE_CURVE('',#274,#291,#353,.T.);
#224=EDGE_CURVE('',#292,#291,#354,.T.);
#225=EDGE_CURVE('',#273,#292,#355,.T.);
#226=EDGE_CURVE('',#291,#287,#356,.T.);
#227=EDGE_CURVE('',#292,#290,#357,.T.);
#228=EDGE_CURVE('',#293,#294,#358,.T.);
#229=EDGE_CURVE('',#295,#294,#359,.T.);
#230=EDGE_CURVE('',#296,#295,#360,.T.);
#231=EDGE_CURVE('',#296,#293,#361,.T.);
#232=EDGE_CURVE('',#294,#282,#362,.T.);
#233=EDGE_CURVE('',#295,#283,#363,.T.);
#234=EDGE_CURVE('',#270,#297,#364,.T.);
#235=EDGE_CURVE('',#298,#297,#365,.T.);
#236=EDGE_CURVE('',#269,#298,#366,.T.);
#237=EDGE_CURVE('',#297,#293,#367,.T.);
#238=EDGE_CURVE('',#298,#296,#368,.T.);
#239=EDGE_CURVE('',#299,#300,#369,.T.);
#240=EDGE_CURVE('',#301,#300,#370,.T.);
#241=EDGE_CURVE('',#302,#301,#371,.T.);
#242=EDGE_CURVE('',#302,#299,#372,.T.);
#243=EDGE_CURVE('',#300,#280,#373,.T.);
#244=EDGE_CURVE('',#301,#281,#374,.T.);
#245=EDGE_CURVE('',#266,#303,#375,.T.);
#246=EDGE_CURVE('',#304,#303,#376,.T.);
#247=EDGE_CURVE('',#265,#304,#377,.T.);
#248=EDGE_CURVE('',#303,#299,#378,.T.);
#249=EDGE_CURVE('',#304,#302,#379,.T.);
#250=EDGE_CURVE('',#305,#306,#380,.T.);
#251=EDGE_CURVE('',#307,#306,#381,.T.);
#252=EDGE_CURVE('',#308,#307,#382,.T.);
#253=EDGE_CURVE('',#308,#305,#383,.T.);
#254=EDGE_CURVE('',#306,#278,#384,.T.);
#255=EDGE_CURVE('',#307,#279,#385,.T.);
#256=EDGE_CURVE('',#262,#309,#386,.T.);
#257=EDGE_CURVE('',#310,#309,#387,.T.);
#258=EDGE_CURVE('',#261,#310,#388,.T.);
#259=EDGE_CURVE('',#309,#305,#389,.T.);
#260=EDGE_CURVE('',#310,#308,#390,.T.);
#261=VERTEX_POINT('',#825);
#262=VERTEX_POINT('',#826);
#263=VERTEX_POINT('',#828);
#264=VERTEX_POINT('',#830);
#265=VERTEX_POINT('',#834);
#266=VERTEX_POINT('',#835);
#267=VERTEX_POINT('',#837);
#268=VERTEX_POINT('',#839);
#269=VERTEX_POINT('',#843);
#270=VERTEX_POINT('',#844);
#271=VERTEX_POINT('',#846);
#272=VERTEX_POINT('',#848);
#273=VERTEX_POINT('',#852);
#274=VERTEX_POINT('',#853);
#275=VERTEX_POINT('',#855);
#276=VERTEX_POINT('',#857);
#277=VERTEX_POINT('',#861);
#278=VERTEX_POINT('',#862);
#279=VERTEX_POINT('',#868);
#280=VERTEX_POINT('',#869);
#281=VERTEX_POINT('',#875);
#282=VERTEX_POINT('',#876);
#283=VERTEX_POINT('',#882);
#284=VERTEX_POINT('',#883);
#285=VERTEX_POINT('',#889);
#286=VERTEX_POINT('',#891);
#287=VERTEX_POINT('',#900);
#288=VERTEX_POINT('',#901);
#289=VERTEX_POINT('',#903);
#290=VERTEX_POINT('',#905);
#291=VERTEX_POINT('',#912);
#292=VERTEX_POINT('',#914);
#293=VERTEX_POINT('',#923);
#294=VERTEX_POINT('',#924);
#295=VERTEX_POINT('',#926);
#296=VERTEX_POINT('',#928);
#297=VERTEX_POINT('',#935);
#298=VERTEX_POINT('',#937);
#299=VERTEX_POINT('',#946);
#300=VERTEX_POINT('',#947);
#301=VERTEX_POINT('',#949);
#302=VERTEX_POINT('',#951);
#303=VERTEX_POINT('',#958);
#304=VERTEX_POINT('',#960);
#305=VERTEX_POINT('',#969);
#306=VERTEX_POINT('',#970);
#307=VERTEX_POINT('',#972);
#308=VERTEX_POINT('',#974);
#309=VERTEX_POINT('',#981);
#310=VERTEX_POINT('',#983);
#311=LINE('',#824,#391);
#312=LINE('',#827,#392);
#313=LINE('',#829,#393);
#314=LINE('',#831,#394);
#315=LINE('',#833,#395);
#316=LINE('',#836,#396);
#317=LINE('',#838,#397);
#318=LINE('',#840,#398);
#319=LINE('',#842,#399);
#320=LINE('',#845,#400);
#321=LINE('',#847,#401);
#322=LINE('',#849,#402);
#323=LINE('',#851,#403);
#324=LINE('',#854,#404);
#325=LINE('',#856,#405);
#326=LINE('',#858,#406);
#327=LINE('',#860,#407);
#328=LINE('',#863,#408);
#329=LINE('',#864,#409);
#330=LINE('',#865,#410);
#331=LINE('',#867,#411);
#332=LINE('',#870,#412);
#333=LINE('',#871,#413);
#334=LINE('',#872,#414);
#335=LINE('',#874,#415);
#336=LINE('',#877,#416);
#337=LINE('',#878,#417);
#338=LINE('',#879,#418);
#339=LINE('',#881,#419);
#340=LINE('',#884,#420);
#341=LINE('',#885,#421);
#342=LINE('',#886,#422);
#343=LINE('',#894,#423);
#344=LINE('',#895,#424);
#345=LINE('',#896,#425);
#346=LINE('',#897,#426);
#347=LINE('',#899,#427);
#348=LINE('',#902,#428);
#349=LINE('',#904,#429);
#350=LINE('',#906,#430);
#351=LINE('',#908,#431);
#352=LINE('',#909,#432);
#353=LINE('',#911,#433);
#354=LINE('',#913,#434);
#355=LINE('',#915,#435);
#356=LINE('',#917,#436);
#357=LINE('',#918,#437);
#358=LINE('',#922,#438);
#359=LINE('',#925,#439);
#360=LINE('',#927,#440);
#361=LINE('',#929,#441);
#362=LINE('',#931,#442);
#363=LINE('',#932,#443);
#364=LINE('',#934,#444);
#365=LINE('',#936,#445);
#366=LINE('',#938,#446);
#367=LINE('',#940,#447);
#368=LINE('',#941,#448);
#369=LINE('',#945,#449);
#370=LINE('',#948,#450);
#371=LINE('',#950,#451);
#372=LINE('',#952,#452);
#373=LINE('',#954,#453);
#374=LINE('',#955,#454);
#375=LINE('',#957,#455);
#376=LINE('',#959,#456);
#377=LINE('',#961,#457);
#378=LINE('',#963,#458);
#379=LINE('',#964,#459);
#380=LINE('',#968,#460);
#381=LINE('',#971,#461);
#382=LINE('',#973,#462);
#383=LINE('',#975,#463);
#384=LINE('',#977,#464);
#385=LINE('',#978,#465);
#386=LINE('',#980,#466);
#387=LINE('',#982,#467);
#388=LINE('',#984,#468);
#389=LINE('',#986,#469);
#390=LINE('',#987,#470);
#391=VECTOR('',#670,1.);
#392=VECTOR('',#671,1.);
#393=VECTOR('',#672,1.);
#394=VECTOR('',#673,1.);
#395=VECTOR('',#676,1.);
#396=VECTOR('',#677,1.);
#397=VECTOR('',#678,1.);
#398=VECTOR('',#679,1.);
#399=VECTOR('',#682,1.);
#400=VECTOR('',#683,1.);
#401=VECTOR('',#684,1.);
#402=VECTOR('',#685,1.);
#403=VECTOR('',#688,1.);
#404=VECTOR('',#689,1.);
#405=VECTOR('',#690,1.);
#406=VECTOR('',#691,1.);
#407=VECTOR('',#694,1.);
#408=VECTOR('',#695,1.);
#409=VECTOR('',#696,1.);
#410=VECTOR('',#697,1.);
#411=VECTOR('',#700,1.);
#412=VECTOR('',#701,1.);
#413=VECTOR('',#702,1.);
#414=VECTOR('',#703,1.);
#415=VECTOR('',#706,1.);
#416=VECTOR('',#707,1.);
#417=VECTOR('',#708,1.);
#418=VECTOR('',#709,1.);
#419=VECTOR('',#712,1.);
#420=VECTOR('',#713,1.);
#421=VECTOR('',#714,1.);
#422=VECTOR('',#715,1.);
#423=VECTOR('',#726,1.);
#424=VECTOR('',#727,1.);
#425=VECTOR('',#728,1.);
#426=VECTOR('',#729,1.);
#427=VECTOR('',#732,1.);
#428=VECTOR('',#733,1.);
#429=VECTOR('',#734,1.);
#430=VECTOR('',#735,1.);
#431=VECTOR('',#738,1.);
#432=VECTOR('',#739,1.);
#433=VECTOR('',#742,1.);
#434=VECTOR('',#743,1.);
#435=VECTOR('',#744,1.);
#436=VECTOR('',#747,1.);
#437=VECTOR('',#748,1.);
#438=VECTOR('',#755,1.);
#439=VECTOR('',#756,1.);
#440=VECTOR('',#757,1.);
#441=VECTOR('',#758,1.);
#442=VECTOR('',#761,1.);
#443=VECTOR('',#762,1.);
#444=VECTOR('',#765,1.);
#445=VECTOR('',#766,1.);
#446=VECTOR('',#767,1.);
#447=VECTOR('',#770,1.);
#448=VECTOR('',#771,1.);
#449=VECTOR('',#778,1.);
#450=VECTOR('',#779,1.);
#451=VECTOR('',#780,1.);
#452=VECTOR('',#781,1.);
#453=VECTOR('',#784,1.);
#454=VECTOR('',#785,1.);
#455=VECTOR('',#788,1.);
#456=VECTOR('',#789,1.);
#457=VECTOR('',#790,1.);
#458=VECTOR('',#793,1.);
#459=VECTOR('',#794,1.);
#460=VECTOR('',#801,1.);
#461=VECTOR('',#802,1.);
#462=VECTOR('',#803,1.);
#463=VECTOR('',#804,1.);
#464=VECTOR('',#807,1.);
#465=VECTOR('',#808,1.);
#466=VECTOR('',#811,1.);
#467=VECTOR('',#812,1.);
#468=VECTOR('',#813,1.);
#469=VECTOR('',#816,1.);
#470=VECTOR('',#817,1.);
#471=EDGE_LOOP('',(#15,#16,#17,#18));
#472=EDGE_LOOP('',(#19,#20,#21,#22));
#473=EDGE_LOOP('',(#23,#24,#25,#26));
#474=EDGE_LOOP('',(#27,#28,#29,#30));
#475=EDGE_LOOP('',(#31,#32,#33,#34,#35,#36));
#476=EDGE_LOOP('',(#37,#38,#39,#40,#41,#42));
#477=EDGE_LOOP('',(#43,#44,#45,#46,#47,#48));
#478=EDGE_LOOP('',(#49,#50,#51,#52,#53,#54));
#479=EDGE_LOOP('',(#55));
#480=EDGE_LOOP('',(#56));
#481=EDGE_LOOP('',(#57));
#482=EDGE_LOOP('',(#58,#59,#60,#61,#62,#63,#64,#65));
#483=EDGE_LOOP('',(#66));
#484=EDGE_LOOP('',(#67,#68,#69,#70,#71,#72,#73,#74));
#485=EDGE_LOOP('',(#75,#76,#77,#78));
#486=EDGE_LOOP('',(#79,#80,#81,#82));
#487=EDGE_LOOP('',(#83,#84,#85,#86));
#488=EDGE_LOOP('',(#87,#88,#89,#90));
#489=EDGE_LOOP('',(#91,#92,#93,#94,#95));
#490=EDGE_LOOP('',(#96,#97,#98,#99,#100));
#491=EDGE_LOOP('',(#101,#102,#103,#104));
#492=EDGE_LOOP('',(#105,#106,#107,#108));
#493=EDGE_LOOP('',(#109,#110,#111,#112));
#494=EDGE_LOOP('',(#113,#114,#115,#116));
#495=EDGE_LOOP('',(#117,#118,#119,#120,#121));
#496=EDGE_LOOP('',(#122,#123,#124,#125,#126));
#497=EDGE_LOOP('',(#127,#128,#129,#130));
#498=EDGE_LOOP('',(#131,#132,#133,#134));
#499=EDGE_LOOP('',(#135,#136,#137,#138));
#500=EDGE_LOOP('',(#139,#140,#141,#142));
#501=EDGE_LOOP('',(#143,#144,#145,#146,#147));
#502=EDGE_LOOP('',(#148,#149,#150,#151,#152));
#503=EDGE_LOOP('',(#153,#154,#155,#156));
#504=EDGE_LOOP('',(#157,#158,#159,#160));
#505=EDGE_LOOP('',(#161,#162,#163,#164));
#506=EDGE_LOOP('',(#165,#166,#167,#168));
#507=EDGE_LOOP('',(#169,#170,#171,#172,#173));
#508=EDGE_LOOP('',(#174,#175,#176,#177,#178));
#509=FACE_BOUND('',#471,.T.);
#510=FACE_BOUND('',#472,.T.);
#511=FACE_BOUND('',#473,.T.);
#512=FACE_BOUND('',#474,.T.);
#513=FACE_BOUND('',#475,.T.);
#514=FACE_BOUND('',#476,.T.);
#515=FACE_BOUND('',#477,.T.);
#516=FACE_BOUND('',#478,.T.);
#517=FACE_BOUND('',#479,.T.);
#518=FACE_BOUND('',#480,.T.);
#519=FACE_BOUND('',#481,.T.);
#520=FACE_BOUND('',#482,.T.);
#521=FACE_BOUND('',#483,.T.);
#522=FACE_BOUND('',#484,.T.);
#523=FACE_BOUND('',#485,.T.);
#524=FACE_BOUND('',#486,.T.);
#525=FACE_BOUND('',#487,.T.);
#526=FACE_BOUND('',#488,.T.);
#527=FACE_BOUND('',#489,.T.);
#528=FACE_BOUND('',#490,.T.);
#529=FACE_BOUND('',#491,.T.);
#530=FACE_BOUND('',#492,.T.);
#531=FACE_BOUND('',#493,.T.);
#532=FACE_BOUND('',#494,.T.);
#533=FACE_BOUND('',#495,.T.);
#534=FACE_BOUND('',#496,.T.);
#535=FACE_BOUND('',#497,.T.);
#536=FACE_BOUND('',#498,.T.);
#537=FACE_BOUND('',#499,.T.);
#538=FACE_BOUND('',#500,.T.);
#539=FACE_BOUND('',#501,.T.);
#540=FACE_BOUND('',#502,.T.);
#541=FACE_BOUND('',#503,.T.);
#542=FACE_BOUND('',#504,.T.);
#543=FACE_BOUND('',#505,.T.);
#544=FACE_BOUND('',#506,.T.);
#545=FACE_BOUND('',#507,.T.);
#546=FACE_BOUND('',#508,.T.);
#547=PLANE('',#629);
#548=PLANE('',#630);
#549=PLANE('',#631);
#550=PLANE('',#632);
#551=PLANE('',#633);
#552=PLANE('',#634);
#553=PLANE('',#635);
#554=PLANE('',#636);
#555=PLANE('',#640);
#556=PLANE('',#641);
#557=PLANE('',#642);
#558=PLANE('',#643);
#559=PLANE('',#644);
#560=PLANE('',#645);
#561=PLANE('',#646);
#562=PLANE('',#647);
#563=PLANE('',#648);
#564=PLANE('',#649);
#565=PLANE('',#650);
#566=PLANE('',#651);
#567=PLANE('',#652);
#568=PLANE('',#653);
#569=PLANE('',#654);
#570=PLANE('',#655);
#571=PLANE('',#656);
#572=PLANE('',#657);
#573=PLANE('',#658);
#574=PLANE('',#659);
#575=PLANE('',#660);
#576=PLANE('',#661);
#577=PLANE('',#662);
#578=PLANE('',#663);
#579=PLANE('',#664);
#580=PLANE('',#665);
#581=ADVANCED_FACE('',(#509),#547,.F.);
#582=ADVANCED_FACE('',(#510),#548,.F.);
#583=ADVANCED_FACE('',(#511),#549,.F.);
#584=ADVANCED_FACE('',(#512),#550,.F.);
#585=ADVANCED_FACE('',(#513),#551,.F.);
#586=ADVANCED_FACE('',(#514),#552,.F.);
#587=ADVANCED_FACE('',(#515),#553,.F.);
#588=ADVANCED_FACE('',(#516),#554,.F.);
#589=ADVANCED_FACE('',(#517,#518),#14,.F.);
#590=ADVANCED_FACE('',(#519,#520),#555,.T.);
#591=ADVANCED_FACE('',(#521,#522),#556,.F.);
#592=ADVANCED_FACE('',(#523),#557,.F.);
#593=ADVANCED_FACE('',(#524),#558,.F.);
#594=ADVANCED_FACE('',(#525),#559,.F.);
#595=ADVANCED_FACE('',(#526),#560,.F.);
#596=ADVANCED_FACE('',(#527),#561,.T.);
#597=ADVANCED_FACE('',(#528),#562,.F.);
#598=ADVANCED_FACE('',(#529),#563,.F.);
#599=ADVANCED_FACE('',(#530),#564,.F.);
#600=ADVANCED_FACE('',(#531),#565,.F.);
#601=ADVANCED_FACE('',(#532),#566,.F.);
#602=ADVANCED_FACE('',(#533),#567,.T.);
#603=ADVANCED_FACE('',(#534),#568,.F.);
#604=ADVANCED_FACE('',(#535),#569,.F.);
#605=ADVANCED_FACE('',(#536),#570,.F.);
#606=ADVANCED_FACE('',(#537),#571,.F.);
#607=ADVANCED_FACE('',(#538),#572,.F.);
#608=ADVANCED_FACE('',(#539),#573,.T.);
#609=ADVANCED_FACE('',(#540),#574,.F.);
#610=ADVANCED_FACE('',(#541),#575,.F.);
#611=ADVANCED_FACE('',(#542),#576,.F.);
#612=ADVANCED_FACE('',(#543),#577,.F.);
#613=ADVANCED_FACE('',(#544),#578,.F.);
#614=ADVANCED_FACE('',(#545),#579,.T.);
#615=ADVANCED_FACE('',(#546),#580,.F.);
#616=CLOSED_SHELL('',(#581,#582,#583,#584,#585,#586,#587,#588,#589,#590,
#591,#592,#593,#594,#595,#596,#597,#598,#599,#600,#601,#602,#603,#604,#605,
#606,#607,#608,#609,#610,#611,#612,#613,#614,#615));
#617=STYLED_ITEM('',(#618),#625);
#618=PRESENTATION_STYLE_ASSIGNMENT((#619));
#619=SURFACE_STYLE_USAGE(.BOTH.,#620);
#620=SURFACE_SIDE_STYLE('',(#621));
#621=SURFACE_STYLE_FILL_AREA(#622);
#622=FILL_AREA_STYLE('',(#623));
#623=FILL_AREA_STYLE_COLOUR('',#624);
#624=COLOUR_RGB('',0.615686274509804,0.811764705882353,0.929411764705882);
#625=MANIFOLD_SOLID_BREP('Part 1',#616);
#626=SHAPE_DEFINITION_REPRESENTATION(#996,#627);
#627=SHAPE_REPRESENTATION('Part 1',(#628),#991);
#628=AXIS2_PLACEMENT_3D('',#822,#666,#667);
#629=AXIS2_PLACEMENT_3D('',#823,#668,#669);
#630=AXIS2_PLACEMENT_3D('',#832,#674,#675);
#631=AXIS2_PLACEMENT_3D('',#841,#680,#681);
#632=AXIS2_PLACEMENT_3D('',#850,#686,#687);
#633=AXIS2_PLACEMENT_3D('',#859,#692,#693);
#634=AXIS2_PLACEMENT_3D('',#866,#698,#699);
#635=AXIS2_PLACEMENT_3D('',#873,#704,#705);
#636=AXIS2_PLACEMENT_3D('',#880,#710,#711);
#637=AXIS2_PLACEMENT_3D('',#887,#716,#717);
#638=AXIS2_PLACEMENT_3D('',#888,#718,#719);
#639=AXIS2_PLACEMENT_3D('',#890,#720,#721);
#640=AXIS2_PLACEMENT_3D('',#892,#722,#723);
#641=AXIS2_PLACEMENT_3D('',#893,#724,#725);
#642=AXIS2_PLACEMENT_3D('',#898,#730,#731);
#643=AXIS2_PLACEMENT_3D('',#907,#736,#737);
#644=AXIS2_PLACEMENT_3D('',#910,#740,#741);
#645=AXIS2_PLACEMENT_3D('',#916,#745,#746);
#646=AXIS2_PLACEMENT_3D('',#919,#749,#750);
#647=AXIS2_PLACEMENT_3D('',#920,#751,#752);
#648=AXIS2_PLACEMENT_3D('',#921,#753,#754);
#649=AXIS2_PLACEMENT_3D('',#930,#759,#760);
#650=AXIS2_PLACEMENT_3D('',#933,#763,#764);
#651=AXIS2_PLACEMENT_3D('',#939,#768,#769);
#652=AXIS2_PLACEMENT_3D('',#942,#772,#773);
#653=AXIS2_PLACEMENT_3D('',#943,#774,#775);
#654=AXIS2_PLACEMENT_3D('',#944,#776,#777);
#655=AXIS2_PLACEMENT_3D('',#953,#782,#783);
#656=AXIS2_PLACEMENT_3D('',#956,#786,#787);
#657=AXIS2_PLACEMENT_3D('',#962,#791,#792);
#658=AXIS2_PLACEMENT_3D('',#965,#795,#796);
#659=AXIS2_PLACEMENT_3D('',#966,#797,#798);
#660=AXIS2_PLACEMENT_3D('',#967,#799,#800);
#661=AXIS2_PLACEMENT_3D('',#976,#805,#806);
#662=AXIS2_PLACEMENT_3D('',#979,#809,#810);
#663=AXIS2_PLACEMENT_3D('',#985,#814,#815);
#664=AXIS2_PLACEMENT_3D('',#988,#818,#819);
#665=AXIS2_PLACEMENT_3D('',#989,#820,#821);
#666=DIRECTION('',(0.,0.,1.));
#667=DIRECTION('',(1.,0.,0.));
#668=DIRECTION('',(1.,0.,0.));
#669=DIRECTION('',(0.,0.,-1.));
#670=DIRECTION('',(0.,1.,0.));
#671=DIRECTION('',(0.,0.,-1.));
#672=DIRECTION('',(0.,-1.,0.));
#673=DIRECTION('',(0.,0.,-1.));
#674=DIRECTION('',(0.,1.,0.));
#675=DIRECTION('',(0.,0.,1.));
#676=DIRECTION('',(-1.,-1.83697019872103E-16,0.));
#677=DIRECTION('',(0.,0.,-1.));
#678=DIRECTION('',(1.,0.,0.));
#679=DIRECTION('',(0.,0.,-1.));
#680=DIRECTION('',(-1.,0.,0.));
#681=DIRECTION('',(0.,0.,1.));
#682=DIRECTION('',(1.22464679914735E-16,-1.,0.));
#683=DIRECTION('',(0.,0.,-1.));
#684=DIRECTION('',(0.,1.,0.));
#685=DIRECTION('',(0.,0.,-1.));
#686=DIRECTION('',(0.,-1.,0.));
#687=DIRECTION('',(0.,0.,-1.));
#688=DIRECTION('',(1.,6.12323399573677E-17,0.));
#689=DIRECTION('',(0.,0.,-1.));
#690=DIRECTION('',(-1.,0.,0.));
#691=DIRECTION('',(0.,0.,-1.));
#692=DIRECTION('',(0.707106781186548,-0.707106781186548,0.));
#693=DIRECTION('',(0.707106781186548,0.707106781186548,0.));
#694=DIRECTION('',(-0.707106781186548,-0.707106781186548,0.));
#695=DIRECTION('',(0.,0.,1.));
#696=DIRECTION('',(-0.707106781186548,-0.707106781186548,0.));
#697=DIRECTION('',(0.,0.,1.));
#698=DIRECTION('',(0.707106781186548,0.707106781186548,0.));
#699=DIRECTION('',(-0.707106781186548,0.707106781186548,0.));
#700=DIRECTION('',(0.707106781186548,-0.707106781186548,0.));
#701=DIRECTION('',(0.,0.,1.));
#702=DIRECTION('',(0.707106781186548,-0.707106781186548,0.));
#703=DIRECTION('',(0.,0.,1.));
#704=DIRECTION('',(-0.707106781186548,0.707106781186548,0.));
#705=DIRECTION('',(-0.707106781186548,-0.707106781186548,0.));
#706=DIRECTION('',(0.707106781186548,0.707106781186548,0.));
#707=DIRECTION('',(0.,0.,1.));
#708=DIRECTION('',(0.707106781186548,0.707106781186548,0.));
#709=DIRECTION('',(0.,0.,1.));
#710=DIRECTION('',(-0.707106781186548,-0.707106781186548,0.));
#711=DIRECTION('',(0.707106781186548,-0.707106781186548,0.));
#712=DIRECTION('',(-0.707106781186547,0.707106781186548,0.));
#713=DIRECTION('',(0.,0.,1.));
#714=DIRECTION('',(-0.707106781186547,0.707106781186548,0.));
#715=DIRECTION('',(0.,0.,1.));
#716=DIRECTION('',(0.,0.,-1.));
#717=DIRECTION('',(-1.,0.,0.));
#718=DIRECTION('',(0.,0.,1.));
#719=DIRECTION('',(1.,0.,0.));
#720=DIRECTION('',(0.,0.,1.));
#721=DIRECTION('',(1.,0.,0.));
#722=DIRECTION('',(0.,0.,1.));
#723=DIRECTION('',(1.,0.,0.));
#724=DIRECTION('',(0.,0.,1.));
#725=DIRECTION('',(1.,0.,0.));
#726=DIRECTION('',(-1.,0.,0.));
#727=DIRECTION('',(0.,1.,0.));
#728=DIRECTION('',(1.,0.,0.));
#729=DIRECTION('',(0.,-1.,0.));
#730=DIRECTION('',(-8.52189463090782E-18,0.139173100960066,0.99026806874157));
#731=DIRECTION('',(6.06364310341098E-17,-0.99026806874157,0.139173100960066));
#732=DIRECTION('',(6.06364310341098E-17,-0.99026806874157,0.139173100960066));
#733=DIRECTION('',(1.,6.12323399573677E-17,0.));
#734=DIRECTION('',(6.06364310341098E-17,-0.99026806874157,0.139173100960066));
#735=DIRECTION('',(1.,6.12323399573677E-17,0.));
#736=DIRECTION('',(2.2045605441319E-17,-0.360032059148288,0.93293993182061));
#737=DIRECTION('',(5.7126095065043E-17,-0.93293993182061,-0.360032059148288));
#738=DIRECTION('',(5.7126095065043E-17,-0.93293993182061,-0.360032059148288));
#739=DIRECTION('',(5.7126095065043E-17,-0.93293993182061,-0.360032059148288));
#740=DIRECTION('',(8.5218946309078E-18,-0.139173100960066,-0.99026806874157));
#741=DIRECTION('',(-6.06364310341098E-17,0.99026806874157,-0.139173100960066));
#742=DIRECTION('',(-6.06364310341098E-17,0.99026806874157,-0.139173100960066));
#743=DIRECTION('',(1.,6.12323399573677E-17,0.));
#744=DIRECTION('',(-6.06364310341098E-17,0.99026806874157,-0.139173100960066));
#745=DIRECTION('',(6.06364310341098E-17,-0.99026806874157,0.139173100960065));
#746=DIRECTION('',(8.52189463090777E-18,-0.139173100960065,-0.99026806874157));
#747=DIRECTION('',(8.52189463090777E-18,-0.139173100960065,-0.99026806874157));
#748=DIRECTION('',(8.52189463090777E-18,-0.139173100960065,-0.99026806874157));
#749=DIRECTION('',(-1.,-6.12323399573677E-17,0.));
#750=DIRECTION('',(6.12323399573677E-17,-1.,0.));
#751=DIRECTION('',(-1.,-6.12323399573677E-17,0.));
#752=DIRECTION('',(6.12323399573677E-17,-1.,0.));
#753=DIRECTION('',(0.139173100960066,1.70437892618156E-17,0.99026806874157));
#754=DIRECTION('',(-0.99026806874157,-1.21272862068219E-16,0.139173100960066));
#755=DIRECTION('',(-0.99026806874157,-1.21272862068219E-16,0.139173100960066));
#756=DIRECTION('',(1.22464679914735E-16,-1.,0.));
#757=DIRECTION('',(-0.99026806874157,-1.21272862068219E-16,0.139173100960066));
#758=DIRECTION('',(1.22464679914735E-16,-1.,0.));
#759=DIRECTION('',(-0.360032059148288,-4.40912108826381E-17,0.93293993182061));
#760=DIRECTION('',(-0.93293993182061,-1.14252190130086E-16,-0.360032059148288));
#761=DIRECTION('',(-0.93293993182061,-1.14252190130086E-16,-0.360032059148288));
#762=DIRECTION('',(-0.93293993182061,-1.14252190130086E-16,-0.360032059148288));
#763=DIRECTION('',(-0.139173100960066,-1.70437892618156E-17,-0.99026806874157));
#764=DIRECTION('',(0.99026806874157,1.21272862068219E-16,-0.139173100960066));
#765=DIRECTION('',(0.99026806874157,1.21272862068219E-16,-0.139173100960066));
#766=DIRECTION('',(1.22464679914735E-16,-1.,0.));
#767=DIRECTION('',(0.99026806874157,1.21272862068219E-16,-0.139173100960066));
#768=DIRECTION('',(-0.99026806874157,-1.21272862068219E-16,0.139173100960065));
#769=DIRECTION('',(-0.139173100960065,-1.70437892618156E-17,-0.99026806874157));
#770=DIRECTION('',(-0.139173100960065,-1.70437892618156E-17,-0.99026806874157));
#771=DIRECTION('',(-0.139173100960065,-1.70437892618156E-17,-0.99026806874157));
#772=DIRECTION('',(-1.22464679914735E-16,1.,0.));
#773=DIRECTION('',(-1.,-1.22464679914735E-16,0.));
#774=DIRECTION('',(-1.22464679914735E-16,1.,0.));
#775=DIRECTION('',(-1.,-1.22464679914735E-16,0.));
#776=DIRECTION('',(2.55656838927234E-17,-0.139173100960066,0.99026806874157));
#777=DIRECTION('',(-1.81909293102329E-16,0.99026806874157,0.139173100960066));
#778=DIRECTION('',(-1.81909293102329E-16,0.99026806874157,0.139173100960066));
#779=DIRECTION('',(-1.,-1.83697019872103E-16,0.));
#780=DIRECTION('',(-1.81909293102329E-16,0.99026806874157,0.139173100960066));
#781=DIRECTION('',(-1.,-1.83697019872103E-16,0.));
#782=DIRECTION('',(-6.61368163239572E-17,0.360032059148288,0.93293993182061));
#783=DIRECTION('',(-1.71378285195129E-16,0.93293993182061,-0.360032059148288));
#784=DIRECTION('',(-1.71378285195129E-16,0.93293993182061,-0.360032059148288));
#785=DIRECTION('',(-1.71378285195129E-16,0.93293993182061,-0.360032059148288));
#786=DIRECTION('',(-2.55656838927234E-17,0.139173100960066,-0.99026806874157));
#787=DIRECTION('',(1.81909293102329E-16,-0.99026806874157,-0.139173100960066));
#788=DIRECTION('',(1.81909293102329E-16,-0.99026806874157,-0.139173100960066));
#789=DIRECTION('',(-1.,-1.83697019872103E-16,0.));
#790=DIRECTION('',(1.81909293102329E-16,-0.99026806874157,-0.139173100960066));
#791=DIRECTION('',(-1.81909293102329E-16,0.99026806874157,0.139173100960065));
#792=DIRECTION('',(-2.55656838927233E-17,0.139173100960065,-0.99026806874157));
#793=DIRECTION('',(-2.55656838927233E-17,0.139173100960065,-0.99026806874157));
#794=DIRECTION('',(-2.55656838927233E-17,0.139173100960065,-0.99026806874157));
#795=DIRECTION('',(1.,1.83697019872103E-16,0.));
#796=DIRECTION('',(-1.83697019872103E-16,1.,0.));
#797=DIRECTION('',(1.,1.83697019872103E-16,0.));
#798=DIRECTION('',(-1.83697019872103E-16,1.,0.));
#799=DIRECTION('',(-0.139173100960066,0.,0.99026806874157));
#800=DIRECTION('',(0.99026806874157,0.,0.139173100960066));
#801=DIRECTION('',(0.99026806874157,0.,0.139173100960066));
#802=DIRECTION('',(0.,1.,0.));
#803=DIRECTION('',(0.99026806874157,0.,0.139173100960066));
#804=DIRECTION('',(0.,1.,0.));
#805=DIRECTION('',(0.360032059148288,0.,0.93293993182061));
#806=DIRECTION('',(0.93293993182061,0.,-0.360032059148288));
#807=DIRECTION('',(0.93293993182061,0.,-0.360032059148288));
#808=DIRECTION('',(0.93293993182061,0.,-0.360032059148288));
#809=DIRECTION('',(0.139173100960066,0.,-0.99026806874157));
#810=DIRECTION('',(-0.99026806874157,0.,-0.139173100960066));
#811=DIRECTION('',(-0.99026806874157,0.,-0.139173100960066));
#812=DIRECTION('',(0.,1.,0.));
#813=DIRECTION('',(-0.99026806874157,0.,-0.139173100960066));
#814=DIRECTION('',(0.99026806874157,0.,0.139173100960065));
#815=DIRECTION('',(0.139173100960065,0.,-0.99026806874157));
#816=DIRECTION('',(0.139173100960065,0.,-0.99026806874157));
#817=DIRECTION('',(0.139173100960065,0.,-0.99026806874157));
#818=DIRECTION('',(0.,-1.,0.));
#819=DIRECTION('',(1.,0.,0.));
#820=DIRECTION('',(0.,-1.,0.));
#821=DIRECTION('',(1.,0.,0.));
#822=CARTESIAN_POINT('',(0.,0.,0.));
#823=CARTESIAN_POINT('',(-0.08255,0.,0.01905));
#824=CARTESIAN_POINT('',(-0.08255,-0.0341884,0.0190062802293624));
#825=CARTESIAN_POINT('',(-0.08255,-0.0341908647869495,0.0190062802293624));
#826=CARTESIAN_POINT('',(-0.08255,0.0341908647869495,0.0190062802293624));
#827=CARTESIAN_POINT('',(-0.08255,-0.034193329573899,0.01905));
#828=CARTESIAN_POINT('',(-0.08255,-0.034193329573899,0.01905));
#829=CARTESIAN_POINT('',(-0.08255,0.,0.01905));
#830=CARTESIAN_POINT('',(-0.08255,0.034193329573899,0.01905));
#831=CARTESIAN_POINT('',(-0.08255,0.034193329573899,0.01905));
#832=CARTESIAN_POINT('',(-6.93889390390723E-18,-0.08255,0.01905));
#833=CARTESIAN_POINT('',(0.0341884,-0.08255,0.0190062802293624));
#834=CARTESIAN_POINT('',(0.0341908647869495,-0.08255,0.0190062802293624));
#835=CARTESIAN_POINT('',(-0.0341908647869495,-0.08255,0.0190062802293624));
#836=CARTESIAN_POINT('',(0.034193329573899,-0.08255,0.01905));
#837=CARTESIAN_POINT('',(0.034193329573899,-0.08255,0.01905));
#838=CARTESIAN_POINT('',(-6.93889390390723E-18,-0.08255,0.01905));
#839=CARTESIAN_POINT('',(-0.034193329573899,-0.08255,0.01905));
#840=CARTESIAN_POINT('',(-0.034193329573899,-0.08255,0.01905));
#841=CARTESIAN_POINT('',(0.08255,-6.93889390390723E-18,0.01905));
#842=CARTESIAN_POINT('',(0.08255,0.0341884,0.0190062802293624));
#843=CARTESIAN_POINT('',(0.08255,0.0341908647869495,0.0190062802293624));
#844=CARTESIAN_POINT('',(0.08255,-0.0341908647869495,0.0190062802293624));
#845=CARTESIAN_POINT('',(0.08255,0.034193329573899,0.01905));
#846=CARTESIAN_POINT('',(0.08255,0.034193329573899,0.01905));
#847=CARTESIAN_POINT('',(0.08255,-6.93889390390723E-18,0.01905));
#848=CARTESIAN_POINT('',(0.08255,-0.034193329573899,0.01905));
#849=CARTESIAN_POINT('',(0.08255,-0.034193329573899,0.01905));
#850=CARTESIAN_POINT('',(1.38777878078145E-17,0.08255,0.01905));
#851=CARTESIAN_POINT('',(-0.0341884,0.08255,0.0190062802293624));
#852=CARTESIAN_POINT('',(-0.0341908647869495,0.08255,0.0190062802293624));
#853=CARTESIAN_POINT('',(0.0341908647869495,0.08255,0.0190062802293624));
#854=CARTESIAN_POINT('',(-0.034193329573899,0.08255,0.01905));
#855=CARTESIAN_POINT('',(-0.034193329573899,0.08255,0.01905));
#856=CARTESIAN_POINT('',(1.38777878078145E-17,0.08255,0.01905));
#857=CARTESIAN_POINT('',(0.034193329573899,0.08255,0.01905));
#858=CARTESIAN_POINT('',(0.034193329573899,0.08255,0.01905));
#859=CARTESIAN_POINT('',(-0.0583716647869495,0.0583716647869495,0.01905));
#860=CARTESIAN_POINT('',(-0.0583716647869495,0.0583716647869495,0.));
#861=CARTESIAN_POINT('',(-0.0341908647869495,0.08255,0.));
#862=CARTESIAN_POINT('',(-0.08255,0.0341908647869495,0.));
#863=CARTESIAN_POINT('',(-0.08255,0.0341884,0.0145175966695171));
#864=CARTESIAN_POINT('',(-0.0583716647869495,0.0583716647869495,0.01905));
#865=CARTESIAN_POINT('',(-0.0341884,0.08255,0.0145175966695171));
#866=CARTESIAN_POINT('',(-0.0583716647869495,-0.0583716647869495,0.01905));
#867=CARTESIAN_POINT('',(-0.0583716647869495,-0.0583716647869495,0.));
#868=CARTESIAN_POINT('',(-0.08255,-0.0341908647869495,0.));
#869=CARTESIAN_POINT('',(-0.0341908647869495,-0.08255,0.));
#870=CARTESIAN_POINT('',(-0.0341884,-0.08255,0.0145175966695171));
#871=CARTESIAN_POINT('',(-0.0583716647869495,-0.0583716647869495,0.01905));
#872=CARTESIAN_POINT('',(-0.08255,-0.0341884,0.0145175966695171));
#873=CARTESIAN_POINT('',(0.0583716647869495,-0.0583716647869495,0.01905));
#874=CARTESIAN_POINT('',(0.0583716647869495,-0.0583716647869495,0.));
#875=CARTESIAN_POINT('',(0.0341908647869495,-0.08255,0.));
#876=CARTESIAN_POINT('',(0.08255,-0.0341908647869495,0.));
#877=CARTESIAN_POINT('',(0.08255,-0.0341884,0.0145175966695171));
#878=CARTESIAN_POINT('',(0.0583716647869495,-0.0583716647869495,0.01905));
#879=CARTESIAN_POINT('',(0.0341884,-0.08255,0.0145175966695171));
#880=CARTESIAN_POINT('',(0.0583716647869495,0.0583716647869495,0.01905));
#881=CARTESIAN_POINT('',(0.0583716647869495,0.0583716647869495,0.));
#882=CARTESIAN_POINT('',(0.08255,0.0341908647869495,0.));
#883=CARTESIAN_POINT('',(0.0341908647869495,0.08255,0.));
#884=CARTESIAN_POINT('',(0.0341884,0.08255,0.0145175966695171));
#885=CARTESIAN_POINT('',(0.0583716647869495,0.0583716647869495,0.01905));
#886=CARTESIAN_POINT('',(0.08255,0.0341884,0.0145175966695171));
#887=CARTESIAN_POINT('',(0.,4.66590430475142E-18,0.01905));
#888=CARTESIAN_POINT('',(0.,4.66590430475142E-18,0.01905));
#889=CARTESIAN_POINT('',(0.0762,4.66590430475142E-18,0.01905));
#890=CARTESIAN_POINT('',(0.,4.66590430475142E-18,0.));
#891=CARTESIAN_POINT('',(0.0762,4.66590430475142E-18,0.));
#892=CARTESIAN_POINT('',(0.,0.,0.01905));
#893=CARTESIAN_POINT('',(0.,0.,0.));
#894=CARTESIAN_POINT('',(1.38777878078145E-17,0.08255,0.));
#895=CARTESIAN_POINT('',(0.08255,-6.93889390390723E-18,0.));
#896=CARTESIAN_POINT('',(-6.93889390390723E-18,-0.08255,0.));
#897=CARTESIAN_POINT('',(-0.08255,0.,0.));
#898=CARTESIAN_POINT('',(-0.0341884,0.16691480240434,-0.00182778663973646));
#899=CARTESIAN_POINT('',(0.0341884,0.16691480240434,-0.00182778663973646));
#900=CARTESIAN_POINT('',(0.0341884,0.232229604808681,-0.0110071834880642));
#901=CARTESIAN_POINT('',(0.0341884,0.1016,0.00735161020859132));
#902=CARTESIAN_POINT('',(-0.0341884,0.1016,0.00735161020859132));
#903=CARTESIAN_POINT('',(-0.0341884,0.1016,0.00735161020859132));
#904=CARTESIAN_POINT('',(-0.0341884,0.16691480240434,-0.00182778663973646));
#905=CARTESIAN_POINT('',(-0.0341884,0.232229604808681,-0.0110071834880642));
#906=CARTESIAN_POINT('',(-0.0341884,0.232229604808681,-0.0110071834880642));
#907=CARTESIAN_POINT('',(-0.0341884,0.092075,0.00367580510429566));
#908=CARTESIAN_POINT('',(0.0341884,0.092075,0.00367580510429566));
#909=CARTESIAN_POINT('',(-0.0341884,0.092075,0.00367580510429566));
#910=CARTESIAN_POINT('',(-0.0341884,0.158008426838107,0.00840128993620537));
#911=CARTESIAN_POINT('',(0.0341884,0.158008426838107,0.00840128993620537));
#912=CARTESIAN_POINT('',(0.0341884,0.233466853676216,-0.00220370035695165));
#913=CARTESIAN_POINT('',(-0.0341884,0.233466853676216,-0.00220370035695165));
#914=CARTESIAN_POINT('',(-0.0341884,0.233466853676216,-0.00220370035695165));
#915=CARTESIAN_POINT('',(-0.0341884,0.158008426838107,0.00840128993620537));
#916=CARTESIAN_POINT('',(-0.0341884,0.232848229242448,-0.00660544192250794));
#917=CARTESIAN_POINT('',(0.0341884,0.232848229242448,-0.00660544192250794));
#918=CARTESIAN_POINT('',(-0.0341884,0.232848229242448,-0.00660544192250794));
#919=CARTESIAN_POINT('',(-0.0341884,0.158008426838107,0.00399954837064907));
#920=CARTESIAN_POINT('',(0.0341884,0.158008426838107,0.00399954837064907));
#921=CARTESIAN_POINT('',(0.16691480240434,0.0341884,-0.00182778663973646));
#922=CARTESIAN_POINT('',(0.16691480240434,-0.0341884,-0.00182778663973646));
#923=CARTESIAN_POINT('',(0.232229604808681,-0.0341884,-0.0110071834880642));
#924=CARTESIAN_POINT('',(0.1016,-0.0341884,0.00735161020859132));
#925=CARTESIAN_POINT('',(0.1016,0.0341884,0.00735161020859132));
#926=CARTESIAN_POINT('',(0.1016,0.0341884,0.00735161020859132));
#927=CARTESIAN_POINT('',(0.16691480240434,0.0341884,-0.00182778663973646));
#928=CARTESIAN_POINT('',(0.232229604808681,0.0341884,-0.0110071834880642));
#929=CARTESIAN_POINT('',(0.232229604808681,0.0341884,-0.0110071834880642));
#930=CARTESIAN_POINT('',(0.092075,0.0341884,0.00367580510429566));
#931=CARTESIAN_POINT('',(0.092075,-0.0341884,0.00367580510429566));
#932=CARTESIAN_POINT('',(0.092075,0.0341884,0.00367580510429566));
#933=CARTESIAN_POINT('',(0.158008426838107,0.0341884,0.00840128993620537));
#934=CARTESIAN_POINT('',(0.158008426838107,-0.0341884,0.00840128993620537));
#935=CARTESIAN_POINT('',(0.233466853676216,-0.0341884,-0.00220370035695165));
#936=CARTESIAN_POINT('',(0.233466853676216,0.0341884,-0.00220370035695165));
#937=CARTESIAN_POINT('',(0.233466853676216,0.0341884,-0.00220370035695165));
#938=CARTESIAN_POINT('',(0.158008426838107,0.0341884,0.00840128993620537));
#939=CARTESIAN_POINT('',(0.232848229242448,0.0341884,-0.00660544192250794));
#940=CARTESIAN_POINT('',(0.232848229242448,-0.0341884,-0.00660544192250794));
#941=CARTESIAN_POINT('',(0.232848229242448,0.0341884,-0.00660544192250794));
#942=CARTESIAN_POINT('',(0.158008426838107,0.0341884,0.00399954837064907));
#943=CARTESIAN_POINT('',(0.158008426838107,-0.0341884,0.00399954837064907));
#944=CARTESIAN_POINT('',(0.0341884,-0.16691480240434,-0.00182778663973646));
#945=CARTESIAN_POINT('',(-0.0341884,-0.16691480240434,-0.00182778663973646));
#946=CARTESIAN_POINT('',(-0.0341884,-0.232229604808681,-0.0110071834880642));
#947=CARTESIAN_POINT('',(-0.0341884,-0.1016,0.00735161020859132));
#948=CARTESIAN_POINT('',(0.0341884,-0.1016,0.00735161020859132));
#949=CARTESIAN_POINT('',(0.0341884,-0.1016,0.00735161020859132));
#950=CARTESIAN_POINT('',(0.0341884,-0.16691480240434,-0.00182778663973646));
#951=CARTESIAN_POINT('',(0.0341884,-0.232229604808681,-0.0110071834880642));
#952=CARTESIAN_POINT('',(0.0341884,-0.232229604808681,-0.0110071834880642));
#953=CARTESIAN_POINT('',(0.0341884,-0.092075,0.00367580510429566));
#954=CARTESIAN_POINT('',(-0.0341884,-0.092075,0.00367580510429566));
#955=CARTESIAN_POINT('',(0.0341884,-0.092075,0.00367580510429566));
#956=CARTESIAN_POINT('',(0.0341884,-0.158008426838107,0.00840128993620537));
#957=CARTESIAN_POINT('',(-0.0341884,-0.158008426838107,0.00840128993620537));
#958=CARTESIAN_POINT('',(-0.0341884,-0.233466853676216,-0.00220370035695165));
#959=CARTESIAN_POINT('',(0.0341884,-0.233466853676216,-0.00220370035695165));
#960=CARTESIAN_POINT('',(0.0341884,-0.233466853676216,-0.00220370035695165));
#961=CARTESIAN_POINT('',(0.0341884,-0.158008426838107,0.00840128993620537));
#962=CARTESIAN_POINT('',(0.0341884,-0.232848229242448,-0.00660544192250794));
#963=CARTESIAN_POINT('',(-0.0341884,-0.232848229242448,-0.00660544192250794));
#964=CARTESIAN_POINT('',(0.0341884,-0.232848229242448,-0.00660544192250794));
#965=CARTESIAN_POINT('',(0.0341884,-0.158008426838107,0.00399954837064907));
#966=CARTESIAN_POINT('',(-0.0341884,-0.158008426838107,0.00399954837064907));
#967=CARTESIAN_POINT('',(-0.16691480240434,-0.0341884,-0.00182778663973646));
#968=CARTESIAN_POINT('',(-0.16691480240434,0.0341884,-0.00182778663973646));
#969=CARTESIAN_POINT('',(-0.232229604808681,0.0341884,-0.0110071834880642));
#970=CARTESIAN_POINT('',(-0.1016,0.0341884,0.00735161020859132));
#971=CARTESIAN_POINT('',(-0.1016,-0.0341884,0.00735161020859132));
#972=CARTESIAN_POINT('',(-0.1016,-0.0341884,0.00735161020859132));
#973=CARTESIAN_POINT('',(-0.16691480240434,-0.0341884,-0.00182778663973646));
#974=CARTESIAN_POINT('',(-0.232229604808681,-0.0341884,-0.0110071834880642));
#975=CARTESIAN_POINT('',(-0.232229604808681,-0.0341884,-0.0110071834880642));
#976=CARTESIAN_POINT('',(-0.092075,-0.0341884,0.00367580510429566));
#977=CARTESIAN_POINT('',(-0.092075,0.0341884,0.00367580510429566));
#978=CARTESIAN_POINT('',(-0.092075,-0.0341884,0.00367580510429566));
#979=CARTESIAN_POINT('',(-0.158008426838107,-0.0341884,0.00840128993620537));
#980=CARTESIAN_POINT('',(-0.158008426838107,0.0341884,0.00840128993620537));
#981=CARTESIAN_POINT('',(-0.233466853676216,0.0341884,-0.00220370035695165));
#982=CARTESIAN_POINT('',(-0.233466853676216,-0.0341884,-0.00220370035695165));
#983=CARTESIAN_POINT('',(-0.233466853676216,-0.0341884,-0.00220370035695165));
#984=CARTESIAN_POINT('',(-0.158008426838107,-0.0341884,0.00840128993620537));
#985=CARTESIAN_POINT('',(-0.232848229242448,-0.0341884,-0.00660544192250794));
#986=CARTESIAN_POINT('',(-0.232848229242448,0.0341884,-0.00660544192250794));
#987=CARTESIAN_POINT('',(-0.232848229242448,-0.0341884,-0.00660544192250794));
#988=CARTESIAN_POINT('',(-0.158008426838107,-0.0341884,0.00399954837064907));
#989=CARTESIAN_POINT('',(-0.158008426838107,0.0341884,0.00399954837064907));
#990=MECHANICAL_DESIGN_GEOMETRIC_PRESENTATION_REPRESENTATION('',(#617),
#991);
#991=(
GEOMETRIC_REPRESENTATION_CONTEXT(3)
GLOBAL_UNCERTAINTY_ASSIGNED_CONTEXT((#992))
GLOBAL_UNIT_ASSIGNED_CONTEXT((#995,#994,#993))
REPRESENTATION_CONTEXT('Part 1','TOP_LEVEL_ASSEMBLY_PART')
);
#992=UNCERTAINTY_MEASURE_WITH_UNIT(LENGTH_MEASURE(2.49295738990185E-5),
#995,'DISTANCE_ACCURACY_VALUE','Maximum Tolerance applied to model');
#993=(
NAMED_UNIT(*)
SI_UNIT($,.STERADIAN.)
SOLID_ANGLE_UNIT()
);
#994=(
NAMED_UNIT(*)
PLANE_ANGLE_UNIT()
SI_UNIT($,.RADIAN.)
);
#995=(
LENGTH_UNIT()
NAMED_UNIT(*)
SI_UNIT($,.METRE.)
);
#996=PRODUCT_DEFINITION_SHAPE('','',#997);
#997=PRODUCT_DEFINITION('','',#999,#998);
#998=PRODUCT_DEFINITION_CONTEXT('',#1005,'design');
#999=PRODUCT_DEFINITION_FORMATION_WITH_SPECIFIED_SOURCE('','',#1001,
 .NOT_KNOWN.);
#1000=PRODUCT_RELATED_PRODUCT_CATEGORY('','',(#1001));
#1001=PRODUCT('Part 1','Part 1','Part 1',(#1003));
#1002=PRODUCT_CATEGORY('','');
#1003=PRODUCT_CONTEXT('',#1005,'mechanical');
#1004=APPLICATION_PROTOCOL_DEFINITION('international standard',
'ap242_managed_model_based_3d_engineering',2020,#1005);
#1005=APPLICATION_CONTEXT('managed model based 3d engineering');
ENDSEC;
END-ISO-10303-21;
