ISO-10303-21;
HEADER;
/* Generated by software containing ST-Developer
 * from STEP Tools, Inc. (www.steptools.com) 
 */
/* OPTION: using custom renumber hook */

FILE_DESCRIPTION(
/* description */ ('STEP AP242 Edition 2',
'CAx-IF Rec.Pracs.---Representation and Presentation of Product Manufa
cturing Information (PMI)---4.0---2014-10-13',
'CAx-IF Rec.Pracs.---3D Tessellated Geometry---0.4---2014-09-14','2;1',
'CAx-IF Rec.Pracs.---User Defined Attributes---1.5---2016-08-15'),
/* implementation_level */ '2;1');

FILE_NAME(
/* name */ 'Top Cap - Part 1',
/* time_stamp */ '2026-08-16T03:18:04Z',
/* author */ (''),
/* organization */ (''),
/* preprocessor_version */ 'ST-DEVELOPER v20',
/* originating_system */ 'ONSHAPE BY PTC INC, 1.219',
/* authorisation */ '  ');

FILE_SCHEMA (('AP242_MANAGED_MODEL_BASED_3D_ENGINEERING_MIM_LF { 1 0 10303 442 3 1 4 }'));
ENDSEC;

DATA;
#10=SHAPE_REPRESENTATION_RELATIONSHIP('','',#204,#11);
#11=ADVANCED_BREP_SHAPE_REPRESENTATION('',(#202),#351);
#12=TOROIDAL_SURFACE('',#235,0.0254,0.00508);
#13=PLANE('',#209);
#14=PLANE('',#216);
#15=PLANE('',#226);
#16=PLANE('',#230);
#17=PLANE('',#232);
#18=ORIENTED_EDGE('',*,*,#52,.F.);
#19=ORIENTED_EDGE('',*,*,#53,.F.);
#20=ORIENTED_EDGE('',*,*,#54,.T.);
#21=ORIENTED_EDGE('',*,*,#53,.T.);
#22=ORIENTED_EDGE('',*,*,#54,.F.);
#23=ORIENTED_EDGE('',*,*,#55,.T.);
#24=ORIENTED_EDGE('',*,*,#56,.F.);
#25=ORIENTED_EDGE('',*,*,#57,.F.);
#26=ORIENTED_EDGE('',*,*,#58,.T.);
#27=ORIENTED_EDGE('',*,*,#57,.T.);
#28=ORIENTED_EDGE('',*,*,#58,.F.);
#29=ORIENTED_EDGE('',*,*,#59,.T.);
#30=ORIENTED_EDGE('',*,*,#60,.F.);
#31=ORIENTED_EDGE('',*,*,#61,.F.);
#32=ORIENTED_EDGE('',*,*,#62,.T.);
#33=ORIENTED_EDGE('',*,*,#63,.T.);
#34=ORIENTED_EDGE('',*,*,#64,.F.);
#35=ORIENTED_EDGE('',*,*,#65,.T.);
#36=ORIENTED_EDGE('',*,*,#55,.F.);
#37=ORIENTED_EDGE('',*,*,#59,.F.);
#38=ORIENTED_EDGE('',*,*,#66,.F.);
#39=ORIENTED_EDGE('',*,*,#67,.T.);
#40=ORIENTED_EDGE('',*,*,#52,.T.);
#41=ORIENTED_EDGE('',*,*,#56,.T.);
#42=ORIENTED_EDGE('',*,*,#60,.T.);
#43=ORIENTED_EDGE('',*,*,#63,.F.);
#44=ORIENTED_EDGE('',*,*,#68,.T.);
#45=ORIENTED_EDGE('',*,*,#61,.T.);
#46=ORIENTED_EDGE('',*,*,#68,.F.);
#47=ORIENTED_EDGE('',*,*,#66,.T.);
#48=ORIENTED_EDGE('',*,*,#62,.F.);
#49=ORIENTED_EDGE('',*,*,#65,.F.);
#50=ORIENTED_EDGE('',*,*,#64,.T.);
#51=ORIENTED_EDGE('',*,*,#67,.F.);
#52=EDGE_CURVE('',#69,#69,#86,.T.);
#53=EDGE_CURVE('',#70,#70,#87,.F.);
#54=EDGE_CURVE('',#71,#71,#88,.T.);
#55=EDGE_CURVE('',#72,#72,#89,.T.);
#56=EDGE_CURVE('',#73,#73,#90,.T.);
#57=EDGE_CURVE('',#74,#74,#91,.F.);
#58=EDGE_CURVE('',#75,#75,#92,.T.);
#59=EDGE_CURVE('',#76,#76,#93,.T.);
#60=EDGE_CURVE('',#77,#77,#94,.T.);
#61=EDGE_CURVE('',#78,#78,#95,.F.);
#62=EDGE_CURVE('',#79,#79,#96,.F.);
#63=EDGE_CURVE('',#80,#80,#97,.T.);
#64=EDGE_CURVE('',#81,#81,#98,.T.);
#65=EDGE_CURVE('',#82,#82,#99,.T.);
#66=EDGE_CURVE('',#83,#83,#100,.T.);
#67=EDGE_CURVE('',#84,#84,#101,.T.);
#68=EDGE_CURVE('',#85,#85,#102,.T.);
#69=VERTEX_POINT('',#304);
#70=VERTEX_POINT('',#306);
#71=VERTEX_POINT('',#309);
#72=VERTEX_POINT('',#312);
#73=VERTEX_POINT('',#315);
#74=VERTEX_POINT('',#317);
#75=VERTEX_POINT('',#320);
#76=VERTEX_POINT('',#323);
#77=VERTEX_POINT('',#326);
#78=VERTEX_POINT('',#328);
#79=VERTEX_POINT('',#331);
#80=VERTEX_POINT('',#333);
#81=VERTEX_POINT('',#336);
#82=VERTEX_POINT('',#338);
#83=VERTEX_POINT('',#340);
#84=VERTEX_POINT('',#343);
#85=VERTEX_POINT('',#346);
#86=CIRCLE('',#207,0.0022479);
#87=CIRCLE('',#208,0.0022479);
#88=CIRCLE('',#210,0.004953);
#89=CIRCLE('',#212,0.004953);
#90=CIRCLE('',#214,0.0022479);
#91=CIRCLE('',#215,0.0022479);
#92=CIRCLE('',#217,0.004953);
#93=CIRCLE('',#219,0.004953);
#94=CIRCLE('',#221,0.0022479);
#95=CIRCLE('',#222,0.0022479);
#96=CIRCLE('',#224,0.03048);
#97=CIRCLE('',#225,0.03048);
#98=CIRCLE('',#227,0.00635);
#99=CIRCLE('',#228,0.0254);
#100=CIRCLE('',#229,0.004953);
#101=CIRCLE('',#231,0.00635);
#102=CIRCLE('',#233,0.004953);
#103=EDGE_LOOP('',(#18));
#104=EDGE_LOOP('',(#19));
#105=EDGE_LOOP('',(#20));
#106=EDGE_LOOP('',(#21));
#107=EDGE_LOOP('',(#22));
#108=EDGE_LOOP('',(#23));
#109=EDGE_LOOP('',(#24));
#110=EDGE_LOOP('',(#25));
#111=EDGE_LOOP('',(#26));
#112=EDGE_LOOP('',(#27));
#113=EDGE_LOOP('',(#28));
#114=EDGE_LOOP('',(#29));
#115=EDGE_LOOP('',(#30));
#116=EDGE_LOOP('',(#31));
#117=EDGE_LOOP('',(#32));
#118=EDGE_LOOP('',(#33));
#119=EDGE_LOOP('',(#34));
#120=EDGE_LOOP('',(#35));
#121=EDGE_LOOP('',(#36));
#122=EDGE_LOOP('',(#37));
#123=EDGE_LOOP('',(#38));
#124=EDGE_LOOP('',(#39));
#125=EDGE_LOOP('',(#40));
#126=EDGE_LOOP('',(#41));
#127=EDGE_LOOP('',(#42));
#128=EDGE_LOOP('',(#43));
#129=EDGE_LOOP('',(#44));
#130=EDGE_LOOP('',(#45));
#131=EDGE_LOOP('',(#46));
#132=EDGE_LOOP('',(#47));
#133=EDGE_LOOP('',(#48));
#134=EDGE_LOOP('',(#49));
#135=EDGE_LOOP('',(#50));
#136=EDGE_LOOP('',(#51));
#137=FACE_BOUND('',#103,.T.);
#138=FACE_BOUND('',#104,.T.);
#139=FACE_BOUND('',#105,.T.);
#140=FACE_BOUND('',#106,.T.);
#141=FACE_BOUND('',#107,.T.);
#142=FACE_BOUND('',#108,.T.);
#143=FACE_BOUND('',#109,.T.);
#144=FACE_BOUND('',#110,.T.);
#145=FACE_BOUND('',#111,.T.);
#146=FACE_BOUND('',#112,.T.);
#147=FACE_BOUND('',#113,.T.);
#148=FACE_BOUND('',#114,.T.);
#149=FACE_BOUND('',#115,.T.);
#150=FACE_BOUND('',#116,.T.);
#151=FACE_BOUND('',#117,.T.);
#152=FACE_BOUND('',#118,.T.);
#153=FACE_BOUND('',#119,.T.);
#154=FACE_BOUND('',#120,.T.);
#155=FACE_BOUND('',#121,.T.);
#156=FACE_BOUND('',#122,.T.);
#157=FACE_BOUND('',#123,.T.);
#158=FACE_BOUND('',#124,.T.);
#159=FACE_BOUND('',#125,.T.);
#160=FACE_BOUND('',#126,.T.);
#161=FACE_BOUND('',#127,.T.);
#162=FACE_BOUND('',#128,.T.);
#163=FACE_BOUND('',#129,.T.);
#164=FACE_BOUND('',#130,.T.);
#165=FACE_BOUND('',#131,.T.);
#166=FACE_BOUND('',#132,.T.);
#167=FACE_BOUND('',#133,.T.);
#168=FACE_BOUND('',#134,.T.);
#169=FACE_BOUND('',#135,.T.);
#170=FACE_BOUND('',#136,.T.);
#171=CYLINDRICAL_SURFACE('',#206,0.0022479);
#172=CYLINDRICAL_SURFACE('',#211,0.004953);
#173=CYLINDRICAL_SURFACE('',#213,0.0022479);
#174=CYLINDRICAL_SURFACE('',#218,0.004953);
#175=CYLINDRICAL_SURFACE('',#220,0.0022479);
#176=CYLINDRICAL_SURFACE('',#223,0.03048);
#177=CYLINDRICAL_SURFACE('',#234,0.004953);
#178=CYLINDRICAL_SURFACE('',#236,0.00635);
#179=ADVANCED_FACE('',(#137,#138),#171,.F.);
#180=ADVANCED_FACE('',(#139,#140),#13,.T.);
#181=ADVANCED_FACE('',(#141,#142),#172,.F.);
#182=ADVANCED_FACE('',(#143,#144),#173,.F.);
#183=ADVANCED_FACE('',(#145,#146),#14,.T.);
#184=ADVANCED_FACE('',(#147,#148),#174,.F.);
#185=ADVANCED_FACE('',(#149,#150),#175,.F.);
#186=ADVANCED_FACE('',(#151,#152),#176,.T.);
#187=ADVANCED_FACE('',(#153,#154,#155,#156,#157),#15,.T.);
#188=ADVANCED_FACE('',(#158,#159,#160,#161,#162),#16,.F.);
#189=ADVANCED_FACE('',(#163,#164),#17,.T.);
#190=ADVANCED_FACE('',(#165,#166),#177,.F.);
#191=ADVANCED_FACE('',(#167,#168),#12,.T.);
#192=ADVANCED_FACE('',(#169,#170),#178,.F.);
#193=CLOSED_SHELL('',(#179,#180,#181,#182,#183,#184,#185,#186,#187,#188,
#189,#190,#191,#192));
#194=STYLED_ITEM('',(#195),#202);
#195=PRESENTATION_STYLE_ASSIGNMENT((#196));
#196=SURFACE_STYLE_USAGE(.BOTH.,#197);
#197=SURFACE_SIDE_STYLE('',(#198));
#198=SURFACE_STYLE_FILL_AREA(#199);
#199=FILL_AREA_STYLE('',(#200));
#200=FILL_AREA_STYLE_COLOUR('',#201);
#201=COLOUR_RGB('',0.615686274509804,0.811764705882353,0.929411764705882);
#202=MANIFOLD_SOLID_BREP('Part 1',#193);
#203=SHAPE_DEFINITION_REPRESENTATION(#356,#204);
#204=SHAPE_REPRESENTATION('Part 1',(#205),#351);
#205=AXIS2_PLACEMENT_3D('',#301,#237,#238);
#206=AXIS2_PLACEMENT_3D('',#302,#239,#240);
#207=AXIS2_PLACEMENT_3D('',#303,#241,#242);
#208=AXIS2_PLACEMENT_3D('',#305,#243,#244);
#209=AXIS2_PLACEMENT_3D('',#307,#245,#246);
#210=AXIS2_PLACEMENT_3D('',#308,#247,#248);
#211=AXIS2_PLACEMENT_3D('',#310,#249,#250);
#212=AXIS2_PLACEMENT_3D('',#311,#251,#252);
#213=AXIS2_PLACEMENT_3D('',#313,#253,#254);
#214=AXIS2_PLACEMENT_3D('',#314,#255,#256);
#215=AXIS2_PLACEMENT_3D('',#316,#257,#258);
#216=AXIS2_PLACEMENT_3D('',#318,#259,#260);
#217=AXIS2_PLACEMENT_3D('',#319,#261,#262);
#218=AXIS2_PLACEMENT_3D('',#321,#263,#264);
#219=AXIS2_PLACEMENT_3D('',#322,#265,#266);
#220=AXIS2_PLACEMENT_3D('',#324,#267,#268);
#221=AXIS2_PLACEMENT_3D('',#325,#269,#270);
#222=AXIS2_PLACEMENT_3D('',#327,#271,#272);
#223=AXIS2_PLACEMENT_3D('',#329,#273,#274);
#224=AXIS2_PLACEMENT_3D('',#330,#275,#276);
#225=AXIS2_PLACEMENT_3D('',#332,#277,#278);
#226=AXIS2_PLACEMENT_3D('',#334,#279,#280);
#227=AXIS2_PLACEMENT_3D('',#335,#281,#282);
#228=AXIS2_PLACEMENT_3D('',#337,#283,#284);
#229=AXIS2_PLACEMENT_3D('',#339,#285,#286);
#230=AXIS2_PLACEMENT_3D('',#341,#287,#288);
#231=AXIS2_PLACEMENT_3D('',#342,#289,#290);
#232=AXIS2_PLACEMENT_3D('',#344,#291,#292);
#233=AXIS2_PLACEMENT_3D('',#345,#293,#294);
#234=AXIS2_PLACEMENT_3D('',#347,#295,#296);
#235=AXIS2_PLACEMENT_3D('',#348,#297,#298);
#236=AXIS2_PLACEMENT_3D('',#349,#299,#300);
#237=DIRECTION('',(0.,0.,1.));
#238=DIRECTION('',(1.,0.,0.));
#239=DIRECTION('',(0.,0.,1.));
#240=DIRECTION('',(-0.5,-0.866025403784438,0.));
#241=DIRECTION('',(0.,0.,1.));
#242=DIRECTION('',(-0.5,-0.866025403784438,0.));
#243=DIRECTION('',(0.,0.,1.));
#244=DIRECTION('',(-0.5,-0.866025403784438,0.));
#245=DIRECTION('',(0.,0.,1.));
#246=DIRECTION('',(-0.5,-0.866025403784438,0.));
#247=DIRECTION('',(0.,0.,1.));
#248=DIRECTION('',(-0.5,-0.866025403784438,0.));
#249=DIRECTION('',(0.,0.,1.));
#250=DIRECTION('',(-0.5,-0.866025403784438,0.));
#251=DIRECTION('',(0.,0.,1.));
#252=DIRECTION('',(-0.5,-0.866025403784438,0.));
#253=DIRECTION('',(0.,0.,1.));
#254=DIRECTION('',(-0.5,0.866025403784439,0.));
#255=DIRECTION('',(0.,0.,1.));
#256=DIRECTION('',(-0.5,0.866025403784439,0.));
#257=DIRECTION('',(0.,0.,1.));
#258=DIRECTION('',(-0.5,0.866025403784439,0.));
#259=DIRECTION('',(0.,0.,1.));
#260=DIRECTION('',(-0.5,0.866025403784439,0.));
#261=DIRECTION('',(0.,0.,1.));
#262=DIRECTION('',(-0.5,0.866025403784439,0.));
#263=DIRECTION('',(0.,0.,1.));
#264=DIRECTION('',(-0.5,0.866025403784439,0.));
#265=DIRECTION('',(0.,0.,1.));
#266=DIRECTION('',(-0.5,0.866025403784439,0.));
#267=DIRECTION('',(0.,0.,1.));
#268=DIRECTION('',(1.,0.,0.));
#269=DIRECTION('',(0.,0.,1.));
#270=DIRECTION('',(1.,0.,0.));
#271=DIRECTION('',(0.,0.,1.));
#272=DIRECTION('',(1.,0.,0.));
#273=DIRECTION('',(0.,0.,-1.));
#274=DIRECTION('',(-1.,0.,0.));
#275=DIRECTION('',(0.,0.,1.));
#276=DIRECTION('',(1.,0.,0.));
#277=DIRECTION('',(0.,0.,1.));
#278=DIRECTION('',(1.,0.,0.));
#279=DIRECTION('',(0.,0.,1.));
#280=DIRECTION('',(1.,0.,0.));
#281=DIRECTION('',(0.,0.,1.));
#282=DIRECTION('',(1.,0.,0.));
#283=DIRECTION('',(0.,0.,1.));
#284=DIRECTION('',(1.,0.,0.));
#285=DIRECTION('',(0.,0.,1.));
#286=DIRECTION('',(1.,0.,0.));
#287=DIRECTION('',(0.,0.,1.));
#288=DIRECTION('',(1.,0.,0.));
#289=DIRECTION('',(0.,0.,1.));
#290=DIRECTION('',(1.,0.,0.));
#291=DIRECTION('',(0.,0.,1.));
#292=DIRECTION('',(1.,0.,0.));
#293=DIRECTION('',(0.,0.,1.));
#294=DIRECTION('',(1.,0.,0.));
#295=DIRECTION('',(0.,0.,1.));
#296=DIRECTION('',(1.,0.,0.));
#297=DIRECTION('',(0.,0.,1.));
#298=DIRECTION('',(1.,0.,0.));
#299=DIRECTION('',(0.,0.,1.));
#300=DIRECTION('',(1.,0.,0.));
#301=CARTESIAN_POINT('',(0.,0.,0.));
#302=CARTESIAN_POINT('',(0.0175976362048998,-0.01016,-0.01905));
#303=CARTESIAN_POINT('',(0.0175976362048998,-0.01016,0.));
#304=CARTESIAN_POINT('',(0.0164736862048998,-0.012106738505167,0.));
#305=CARTESIAN_POINT('',(0.0175976362048998,-0.01016,0.00508));
#306=CARTESIAN_POINT('',(0.0164736862048998,-0.012106738505167,0.00508));
#307=CARTESIAN_POINT('',(6.00925839494864E-18,-3.46944695195361E-18,0.00508));
#308=CARTESIAN_POINT('',(0.0175976362048998,-0.01016,0.00508));
#309=CARTESIAN_POINT('',(0.0151211362048998,-0.0144494238249443,0.00508));
#310=CARTESIAN_POINT('',(0.0175976362048998,-0.01016,0.00508));
#311=CARTESIAN_POINT('',(0.0175976362048998,-0.01016,0.00635));
#312=CARTESIAN_POINT('',(0.0151211362048998,-0.0144494238249443,0.00635));
#313=CARTESIAN_POINT('',(-0.0175976362048998,-0.01016,-0.01905));
#314=CARTESIAN_POINT('',(-0.0175976362048998,-0.01016,0.));
#315=CARTESIAN_POINT('',(-0.0187215862048998,-0.00821326149483296,0.));
#316=CARTESIAN_POINT('',(-0.0175976362048998,-0.01016,0.00508));
#317=CARTESIAN_POINT('',(-0.0187215862048998,-0.00821326149483296,0.00508));
#318=CARTESIAN_POINT('',(-6.00925839494864E-18,-3.46944695195361E-18,0.00508));
#319=CARTESIAN_POINT('',(-0.0175976362048998,-0.01016,0.00508));
#320=CARTESIAN_POINT('',(-0.0200741362048998,-0.00587057617505567,0.00508));
#321=CARTESIAN_POINT('',(-0.0175976362048998,-0.01016,0.00508));
#322=CARTESIAN_POINT('',(-0.0175976362048998,-0.01016,0.00635));
#323=CARTESIAN_POINT('',(-0.0200741362048998,-0.00587057617505567,0.00635));
#324=CARTESIAN_POINT('',(-4.33680868994202E-19,0.02032,-0.01905));
#325=CARTESIAN_POINT('',(-4.33680868994202E-19,0.02032,0.));
#326=CARTESIAN_POINT('',(0.0022479,0.02032,0.));
#327=CARTESIAN_POINT('',(-4.33680868994202E-19,0.02032,0.00508));
#328=CARTESIAN_POINT('',(0.0022479,0.02032,0.00508));
#329=CARTESIAN_POINT('',(5.42101086242752E-19,2.16840434497101E-18,0.00635));
#330=CARTESIAN_POINT('',(5.42101086242752E-19,2.16840434497101E-18,0.00127));
#331=CARTESIAN_POINT('',(0.03048,2.16840434497101E-18,0.00127));
#332=CARTESIAN_POINT('',(5.42101086242752E-19,2.16840434497101E-18,0.));
#333=CARTESIAN_POINT('',(0.03048,2.16840434497101E-18,0.));
#334=CARTESIAN_POINT('',(0.,0.,0.00635));
#335=CARTESIAN_POINT('',(8.67361737988404E-19,2.5572297037003E-18,0.00635));
#336=CARTESIAN_POINT('',(0.00635,2.5572297037003E-18,0.00635));
#337=CARTESIAN_POINT('',(5.42101086242752E-19,2.16840434497101E-18,0.00635));
#338=CARTESIAN_POINT('',(0.0254,2.16840434497101E-18,0.00635));
#339=CARTESIAN_POINT('',(0.,0.02032,0.00635));
#340=CARTESIAN_POINT('',(0.004953,0.02032,0.00635));
#341=CARTESIAN_POINT('',(0.,0.,0.));
#342=CARTESIAN_POINT('',(8.67361737988404E-19,2.5572297037003E-18,0.));
#343=CARTESIAN_POINT('',(0.00635,2.5572297037003E-18,0.));
#344=CARTESIAN_POINT('',(0.,6.93889390390723E-18,0.00508));
#345=CARTESIAN_POINT('',(0.,0.02032,0.00508));
#346=CARTESIAN_POINT('',(0.004953,0.02032,0.00508));
#347=CARTESIAN_POINT('',(0.,0.02032,0.00508));
#348=CARTESIAN_POINT('',(5.42101086242752E-19,2.16840434497101E-18,0.00127));
#349=CARTESIAN_POINT('',(8.67361737988404E-19,2.5572297037003E-18,-0.01905));
#350=MECHANICAL_DESIGN_GEOMETRIC_PRESENTATION_REPRESENTATION('',(#194),
#351);
#351=(
GEOMETRIC_REPRESENTATION_CONTEXT(3)
GLOBAL_UNCERTAINTY_ASSIGNED_CONTEXT((#352))
GLOBAL_UNIT_ASSIGNED_CONTEXT((#355,#354,#353))
REPRESENTATION_CONTEXT('Part 1','TOP_LEVEL_ASSEMBLY_PART')
);
#352=UNCERTAINTY_MEASURE_WITH_UNIT(LENGTH_MEASURE(1.E-8),#355,
'DISTANCE_ACCURACY_VALUE','Maximum Tolerance applied to model');
#353=(
NAMED_UNIT(*)
SI_UNIT($,.STERADIAN.)
SOLID_ANGLE_UNIT()
);
#354=(
NAMED_UNIT(*)
PLANE_ANGLE_UNIT()
SI_UNIT($,.RADIAN.)
);
#355=(
LENGTH_UNIT()
NAMED_UNIT(*)
SI_UNIT($,.METRE.)
);
#356=PRODUCT_DEFINITION_SHAPE('','',#357);
#357=PRODUCT_DEFINITION('','',#359,#358);
#358=PRODUCT_DEFINITION_CONTEXT('',#365,'design');
#359=PRODUCT_DEFINITION_FORMATION_WITH_SPECIFIED_SOURCE('','',#361,
 .NOT_KNOWN.);
#360=PRODUCT_RELATED_PRODUCT_CATEGORY('','',(#361));
#361=PRODUCT('Part 1','Part 1','Part 1',(#363));
#362=PRODUCT_CATEGORY('','');
#363=PRODUCT_CONTEXT('',#365,'mechanical');
#364=APPLICATION_PROTOCOL_DEFINITION('international standard',
'ap242_managed_model_based_3d_engineering',2020,#365);
#365=APPLICATION_CONTEXT('managed model based 3d engineering');
ENDSEC;
END-ISO-10303-21;
