ISO-10303-21;
HEADER;
/* Generated by software containing ST-Developer
 * from STEP Tools, Inc. (www.steptools.com) 
 */
/* OPTION: using custom renumber hook */

FILE_DESCRIPTION(
/* description */ ('STEP AP242 Edition 2',
'CAx-IF Rec.Pracs.---Representation and Presentation of Product Manufa
cturing Information (PMI)---4.0---2014-10-13',
'CAx-IF Rec.Pracs.---3D Tessellated Geometry---0.4---2014-09-14','2;1',
'CAx-IF Rec.Pracs.---User Defined Attributes---1.5---2016-08-15'),
/* implementation_level */ '2;1');

FILE_NAME(
/* name */ 'Body - AS568-137O ring - Part 1',
/* time_stamp */ '2026-08-16T03:17:49Z',
/* author */ (''),
/* organization */ (''),
/* preprocessor_version */ 'ST-DEVELOPER v20',
/* originating_system */ 'ONSHAPE BY PTC INC, 1.219',
/* authorisation */ '  ');

FILE_SCHEMA (('AP242_MANAGED_MODEL_BASED_3D_ENGINEERING_MIM_LF { 1 0 10303 442 3 1 4 }'));
ENDSEC;

DATA;
#10=SHAPE_REPRESENTATION_RELATIONSHIP('','',#579,#11);
#11=ADVANCED_BREP_SHAPE_REPRESENTATION('',(#577),#1261);
#12=(
BOUNDED_SURFACE()
B_SPLINE_SURFACE(3,2,((#1158,#1159,#1160),(#1161,#1162,#1163),(#1164,#1165,
#1166),(#1167,#1168,#1169),(#1170,#1171,#1172),(#1173,#1174,#1175),(#1176,
#1177,#1178),(#1179,#1180,#1181),(#1182,#1183,#1184),(#1185,#1186,#1187),
(#1188,#1189,#1190),(#1191,#1192,#1193),(#1194,#1195,#1196),(#1197,#1198,
#1199),(#1200,#1201,#1202),(#1203,#1204,#1205),(#1206,#1207,#1208),(#1209,
#1210,#1211),(#1212,#1213,#1214),(#1215,#1216,#1217),(#1218,#1219,#1220),
(#1221,#1222,#1223),(#1224,#1225,#1226),(#1227,#1228,#1229),(#1230,#1231,
#1232),(#1233,#1234,#1235),(#1236,#1237,#1238),(#1239,#1240,#1241),(#1242,
#1243,#1244),(#1245,#1246,#1247),(#1248,#1249,#1250),(#1251,#1252,#1253),
(#1254,#1255,#1256),(#1257,#1258,#1259)),.UNSPECIFIED.,.T.,.F.,.F.)
B_SPLINE_SURFACE_WITH_KNOTS((1,3,1,1,1,1,1,1,1,1,1,1,1,1,1,1,1,1,1,1,1,
1,1,1,1,1,1,1,1,1,1,1,3,1),(3,3),(-0.00183684370067975,0.,0.00367368740135952,
0.00734737480271904,0.0146947496054381,0.0183684370067976,0.0220421244081571,
0.0257158118095166,0.0275526555101964,0.0293894992108762,0.0330631866122357,
0.0367368740135952,0.0440842488163143,0.0477579362176738,0.0514316236190333,
0.0551053110203928,0.0569421547210726,0.0587789984217523,0.0624526858231119,
0.0661263732244714,0.0734737480271904,0.0771474354285499,0.0808211228299095,
0.084494810231269,0.0881684976326285,0.091842185033988,0.0955158724353475,
0.102863247238067,0.106536934639426,0.110210622040786,0.113884309442145,
0.115721153142825,0.117557996843505,0.121231684244864),(0.,1.),
 .UNSPECIFIED.)
GEOMETRIC_REPRESENTATION_ITEM()
RATIONAL_B_SPLINE_SURFACE(((1.,0.709455679096813,1.),(1.,0.706590694435594,
1.),(1.,0.706085263377143,1.),(1.,0.726196191783115,1.),(1.,0.76984839220277,
1.),(1.,0.815527273842388,1.),(1.,0.84587100150115,1.),(1.,0.86562750910899,
1.),(1.,0.876072022975125,1.),(1.,0.8828360301105,1.),(1.,0.8833589796609,
1.),(1.,0.867298841631794,1.),(1.,0.829953507490073,1.),(1.,0.784461218841994,
1.),(1.,0.751206677818611,1.),(1.,0.727910800410761,1.),(1.,0.715121757313591,
1.),(1.,0.706702548745045,1.),(1.,0.706089501748222,1.),(1.,0.726230832513137,
1.),(1.,0.769917892613011,1.),(1.,0.815611731162733,1.),(1.,0.845966374189242,
1.),(1.,0.869620342185848,1.),(1.,0.882724383879559,1.),(1.,0.883342208281133,
1.),(1.,0.86716552061242,1.),(1.,0.82974995257735,1.),(1.,0.784190421410963,
1.),(1.,0.750965790038557,1.),(1.,0.727709376472428,1.),(1.,0.715059290654638,
1.),(1.,0.710888171427422,1.),(1.,0.709455679096813,1.)))
REPRESENTATION_ITEM('')
SURFACE()
);
#13=TOROIDAL_SURFACE('',#637,0.02032,0.00508);
#14=TOROIDAL_SURFACE('',#638,0.02032,0.00508);
#15=TOROIDAL_SURFACE('',#639,0.02032,0.00508);
#16=TOROIDAL_SURFACE('',#663,0.0254,0.00508);
#17=PLANE('',#592);
#18=PLANE('',#610);
#19=PLANE('',#612);
#20=PLANE('',#614);
#21=PLANE('',#621);
#22=PLANE('',#628);
#23=PLANE('',#650);
#24=PLANE('',#651);
#25=PLANE('',#659);
#26=PLANE('',#662);
#27=CIRCLE('',#582,0.0254);
#28=CIRCLE('',#583,0.0254);
#29=CIRCLE('',#584,0.0254);
#30=CIRCLE('',#585,0.0254);
#31=CIRCLE('',#586,0.0254);
#32=CIRCLE('',#587,0.0254);
#33=CIRCLE('',#588,0.0254);
#34=CIRCLE('',#590,0.03048);
#35=CIRCLE('',#591,0.03048);
#36=CIRCLE('',#593,0.0028956);
#37=CIRCLE('',#594,0.0028956);
#38=CIRCLE('',#595,0.0028956);
#39=CIRCLE('',#596,0.00508);
#40=CIRCLE('',#597,0.00508);
#41=CIRCLE('',#598,0.00508);
#42=CIRCLE('',#599,0.00508);
#43=CIRCLE('',#600,0.00508);
#44=CIRCLE('',#601,0.00508);
#45=CIRCLE('',#602,0.00508);
#46=CIRCLE('',#603,0.00508);
#47=CIRCLE('',#604,0.00508);
#48=CIRCLE('',#605,0.0268224);
#49=CIRCLE('',#607,0.0028956);
#50=CIRCLE('',#609,0.0028956);
#51=CIRCLE('',#611,0.0294386);
#52=CIRCLE('',#613,0.0254);
#53=CIRCLE('',#615,0.00508);
#54=CIRCLE('',#616,0.00508);
#55=CIRCLE('',#617,0.02032);
#56=CIRCLE('',#618,0.02032);
#57=CIRCLE('',#619,0.00508);
#58=CIRCLE('',#622,0.00508);
#59=CIRCLE('',#623,0.00508);
#60=CIRCLE('',#624,0.02032);
#61=CIRCLE('',#625,0.02032);
#62=CIRCLE('',#626,0.00508);
#63=CIRCLE('',#629,0.00508);
#64=CIRCLE('',#630,0.00508);
#65=CIRCLE('',#631,0.02032);
#66=CIRCLE('',#632,0.0028956);
#67=CIRCLE('',#633,0.02032);
#68=CIRCLE('',#634,0.00508);
#69=CIRCLE('',#647,0.0268224);
#70=CIRCLE('',#649,0.0294386);
#71=CIRCLE('',#652,0.011049);
#72=CIRCLE('',#653,0.015875);
#73=CIRCLE('',#656,0.015875);
#74=CIRCLE('',#658,0.015875);
#75=CIRCLE('',#660,0.011049);
#76=LINE('',#863,#90);
#77=LINE('',#879,#91);
#78=LINE('',#883,#92);
#79=LINE('',#887,#93);
#80=LINE('',#891,#94);
#81=LINE('',#895,#95);
#82=LINE('',#899,#96);
#83=LINE('',#903,#97);
#84=LINE('',#1009,#98);
#85=LINE('',#1010,#99);
#86=LINE('',#1022,#100);
#87=LINE('',#1023,#101);
#88=LINE('',#1038,#102);
#89=LINE('',#1039,#103);
#90=VECTOR('',#668,1.);
#91=VECTOR('',#669,1.);
#92=VECTOR('',#672,1.);
#93=VECTOR('',#675,1.);
#94=VECTOR('',#678,1.);
#95=VECTOR('',#681,1.);
#96=VECTOR('',#684,1.);
#97=VECTOR('',#687,1.);
#98=VECTOR('',#754,1.);
#99=VECTOR('',#755,1.);
#100=VECTOR('',#770,1.);
#101=VECTOR('',#771,1.);
#102=VECTOR('',#788,1.);
#103=VECTOR('',#789,1.);
#104=ORIENTED_EDGE('',*,*,#256,.T.);
#105=ORIENTED_EDGE('',*,*,#257,.T.);
#106=ORIENTED_EDGE('',*,*,#258,.T.);
#107=ORIENTED_EDGE('',*,*,#259,.T.);
#108=ORIENTED_EDGE('',*,*,#260,.T.);
#109=ORIENTED_EDGE('',*,*,#261,.T.);
#110=ORIENTED_EDGE('',*,*,#262,.T.);
#111=ORIENTED_EDGE('',*,*,#263,.T.);
#112=ORIENTED_EDGE('',*,*,#264,.T.);
#113=ORIENTED_EDGE('',*,*,#265,.T.);
#114=ORIENTED_EDGE('',*,*,#266,.T.);
#115=ORIENTED_EDGE('',*,*,#267,.T.);
#116=ORIENTED_EDGE('',*,*,#268,.T.);
#117=ORIENTED_EDGE('',*,*,#269,.T.);
#118=ORIENTED_EDGE('',*,*,#270,.T.);
#119=ORIENTED_EDGE('',*,*,#271,.T.);
#120=ORIENTED_EDGE('',*,*,#272,.T.);
#121=ORIENTED_EDGE('',*,*,#273,.T.);
#122=ORIENTED_EDGE('',*,*,#274,.T.);
#123=ORIENTED_EDGE('',*,*,#275,.F.);
#124=ORIENTED_EDGE('',*,*,#276,.F.);
#125=ORIENTED_EDGE('',*,*,#277,.F.);
#126=ORIENTED_EDGE('',*,*,#278,.F.);
#127=ORIENTED_EDGE('',*,*,#266,.F.);
#128=ORIENTED_EDGE('',*,*,#279,.T.);
#129=ORIENTED_EDGE('',*,*,#280,.T.);
#130=ORIENTED_EDGE('',*,*,#281,.T.);
#131=ORIENTED_EDGE('',*,*,#262,.F.);
#132=ORIENTED_EDGE('',*,*,#282,.T.);
#133=ORIENTED_EDGE('',*,*,#283,.T.);
#134=ORIENTED_EDGE('',*,*,#284,.T.);
#135=ORIENTED_EDGE('',*,*,#270,.F.);
#136=ORIENTED_EDGE('',*,*,#285,.T.);
#137=ORIENTED_EDGE('',*,*,#286,.T.);
#138=ORIENTED_EDGE('',*,*,#287,.T.);
#139=ORIENTED_EDGE('',*,*,#288,.T.);
#140=ORIENTED_EDGE('',*,*,#276,.T.);
#141=ORIENTED_EDGE('',*,*,#289,.T.);
#142=ORIENTED_EDGE('',*,*,#290,.T.);
#143=ORIENTED_EDGE('',*,*,#277,.T.);
#144=ORIENTED_EDGE('',*,*,#291,.T.);
#145=ORIENTED_EDGE('',*,*,#292,.T.);
#146=ORIENTED_EDGE('',*,*,#293,.F.);
#147=ORIENTED_EDGE('',*,*,#275,.T.);
#148=ORIENTED_EDGE('',*,*,#294,.T.);
#149=ORIENTED_EDGE('',*,*,#295,.F.);
#150=ORIENTED_EDGE('',*,*,#296,.T.);
#151=ORIENTED_EDGE('',*,*,#297,.T.);
#152=ORIENTED_EDGE('',*,*,#291,.F.);
#153=ORIENTED_EDGE('',*,*,#298,.T.);
#154=ORIENTED_EDGE('',*,*,#299,.T.);
#155=ORIENTED_EDGE('',*,*,#283,.F.);
#156=ORIENTED_EDGE('',*,*,#300,.T.);
#157=ORIENTED_EDGE('',*,*,#295,.T.);
#158=ORIENTED_EDGE('',*,*,#301,.T.);
#159=ORIENTED_EDGE('',*,*,#302,.F.);
#160=ORIENTED_EDGE('',*,*,#303,.T.);
#161=ORIENTED_EDGE('',*,*,#304,.T.);
#162=ORIENTED_EDGE('',*,*,#289,.F.);
#163=ORIENTED_EDGE('',*,*,#305,.T.);
#164=ORIENTED_EDGE('',*,*,#306,.T.);
#165=ORIENTED_EDGE('',*,*,#286,.F.);
#166=ORIENTED_EDGE('',*,*,#307,.T.);
#167=ORIENTED_EDGE('',*,*,#302,.T.);
#168=ORIENTED_EDGE('',*,*,#308,.T.);
#169=ORIENTED_EDGE('',*,*,#309,.F.);
#170=ORIENTED_EDGE('',*,*,#310,.T.);
#171=ORIENTED_EDGE('',*,*,#311,.T.);
#172=ORIENTED_EDGE('',*,*,#312,.F.);
#173=ORIENTED_EDGE('',*,*,#313,.T.);
#174=ORIENTED_EDGE('',*,*,#314,.T.);
#175=ORIENTED_EDGE('',*,*,#280,.F.);
#176=ORIENTED_EDGE('',*,*,#315,.T.);
#177=ORIENTED_EDGE('',*,*,#309,.T.);
#178=ORIENTED_EDGE('',*,*,#316,.T.);
#179=ORIENTED_EDGE('',*,*,#278,.T.);
#180=ORIENTED_EDGE('',*,*,#312,.T.);
#181=ORIENTED_EDGE('',*,*,#317,.T.);
#182=ORIENTED_EDGE('',*,*,#292,.F.);
#183=ORIENTED_EDGE('',*,*,#297,.F.);
#184=ORIENTED_EDGE('',*,*,#318,.T.);
#185=ORIENTED_EDGE('',*,*,#260,.F.);
#186=ORIENTED_EDGE('',*,*,#319,.T.);
#187=ORIENTED_EDGE('',*,*,#298,.F.);
#188=ORIENTED_EDGE('',*,*,#317,.F.);
#189=ORIENTED_EDGE('',*,*,#311,.F.);
#190=ORIENTED_EDGE('',*,*,#320,.T.);
#191=ORIENTED_EDGE('',*,*,#264,.F.);
#192=ORIENTED_EDGE('',*,*,#321,.T.);
#193=ORIENTED_EDGE('',*,*,#313,.F.);
#194=ORIENTED_EDGE('',*,*,#290,.F.);
#195=ORIENTED_EDGE('',*,*,#304,.F.);
#196=ORIENTED_EDGE('',*,*,#322,.T.);
#197=ORIENTED_EDGE('',*,*,#268,.F.);
#198=ORIENTED_EDGE('',*,*,#323,.T.);
#199=ORIENTED_EDGE('',*,*,#305,.F.);
#200=ORIENTED_EDGE('',*,*,#282,.F.);
#201=ORIENTED_EDGE('',*,*,#261,.F.);
#202=ORIENTED_EDGE('',*,*,#318,.F.);
#203=ORIENTED_EDGE('',*,*,#296,.F.);
#204=ORIENTED_EDGE('',*,*,#300,.F.);
#205=ORIENTED_EDGE('',*,*,#284,.F.);
#206=ORIENTED_EDGE('',*,*,#301,.F.);
#207=ORIENTED_EDGE('',*,*,#299,.F.);
#208=ORIENTED_EDGE('',*,*,#319,.F.);
#209=ORIENTED_EDGE('',*,*,#271,.F.);
#210=ORIENTED_EDGE('',*,*,#285,.F.);
#211=ORIENTED_EDGE('',*,*,#269,.F.);
#212=ORIENTED_EDGE('',*,*,#322,.F.);
#213=ORIENTED_EDGE('',*,*,#303,.F.);
#214=ORIENTED_EDGE('',*,*,#307,.F.);
#215=ORIENTED_EDGE('',*,*,#287,.F.);
#216=ORIENTED_EDGE('',*,*,#308,.F.);
#217=ORIENTED_EDGE('',*,*,#306,.F.);
#218=ORIENTED_EDGE('',*,*,#323,.F.);
#219=ORIENTED_EDGE('',*,*,#267,.F.);
#220=ORIENTED_EDGE('',*,*,#279,.F.);
#221=ORIENTED_EDGE('',*,*,#265,.F.);
#222=ORIENTED_EDGE('',*,*,#320,.F.);
#223=ORIENTED_EDGE('',*,*,#310,.F.);
#224=ORIENTED_EDGE('',*,*,#315,.F.);
#225=ORIENTED_EDGE('',*,*,#281,.F.);
#226=ORIENTED_EDGE('',*,*,#316,.F.);
#227=ORIENTED_EDGE('',*,*,#314,.F.);
#228=ORIENTED_EDGE('',*,*,#321,.F.);
#229=ORIENTED_EDGE('',*,*,#263,.F.);
#230=ORIENTED_EDGE('',*,*,#324,.T.);
#231=ORIENTED_EDGE('',*,*,#288,.F.);
#232=ORIENTED_EDGE('',*,*,#325,.F.);
#233=ORIENTED_EDGE('',*,*,#293,.T.);
#234=ORIENTED_EDGE('',*,*,#324,.F.);
#235=ORIENTED_EDGE('',*,*,#325,.T.);
#236=ORIENTED_EDGE('',*,*,#326,.F.);
#237=ORIENTED_EDGE('',*,*,#327,.T.);
#238=ORIENTED_EDGE('',*,*,#328,.T.);
#239=ORIENTED_EDGE('',*,*,#327,.F.);
#240=ORIENTED_EDGE('',*,*,#256,.F.);
#241=ORIENTED_EDGE('',*,*,#329,.T.);
#242=ORIENTED_EDGE('',*,*,#258,.F.);
#243=ORIENTED_EDGE('',*,*,#330,.T.);
#244=ORIENTED_EDGE('',*,*,#331,.T.);
#245=ORIENTED_EDGE('',*,*,#257,.F.);
#246=ORIENTED_EDGE('',*,*,#329,.F.);
#247=ORIENTED_EDGE('',*,*,#259,.F.);
#248=ORIENTED_EDGE('',*,*,#330,.F.);
#249=ORIENTED_EDGE('',*,*,#326,.T.);
#250=ORIENTED_EDGE('',*,*,#331,.F.);
#251=ORIENTED_EDGE('',*,*,#272,.F.);
#252=ORIENTED_EDGE('',*,*,#294,.F.);
#253=ORIENTED_EDGE('',*,*,#274,.F.);
#254=ORIENTED_EDGE('',*,*,#273,.F.);
#255=ORIENTED_EDGE('',*,*,#328,.F.);
#256=EDGE_CURVE('',#332,#333,#388,.T.);
#257=EDGE_CURVE('',#333,#334,#76,.T.);
#258=EDGE_CURVE('',#334,#335,#389,.T.);
#259=EDGE_CURVE('',#335,#332,#77,.F.);
#260=EDGE_CURVE('',#336,#337,#27,.T.);
#261=EDGE_CURVE('',#337,#338,#78,.F.);
#262=EDGE_CURVE('',#338,#339,#28,.T.);
#263=EDGE_CURVE('',#339,#340,#79,.T.);
#264=EDGE_CURVE('',#340,#341,#29,.T.);
#265=EDGE_CURVE('',#341,#342,#80,.F.);
#266=EDGE_CURVE('',#342,#343,#30,.T.);
#267=EDGE_CURVE('',#343,#344,#81,.T.);
#268=EDGE_CURVE('',#344,#345,#31,.T.);
#269=EDGE_CURVE('',#345,#346,#82,.F.);
#270=EDGE_CURVE('',#346,#347,#32,.T.);
#271=EDGE_CURVE('',#347,#336,#83,.T.);
#272=EDGE_CURVE('',#348,#348,#33,.T.);
#273=EDGE_CURVE('',#349,#349,#390,.T.);
#274=EDGE_CURVE('',#350,#350,#34,.T.);
#275=EDGE_CURVE('',#351,#351,#35,.T.);
#276=EDGE_CURVE('',#352,#352,#36,.T.);
#277=EDGE_CURVE('',#353,#353,#37,.T.);
#278=EDGE_CURVE('',#354,#354,#38,.T.);
#279=EDGE_CURVE('',#342,#355,#39,.F.);
#280=EDGE_CURVE('',#355,#356,#40,.T.);
#281=EDGE_CURVE('',#356,#339,#41,.F.);
#282=EDGE_CURVE('',#338,#357,#42,.F.);
#283=EDGE_CURVE('',#357,#358,#43,.T.);
#284=EDGE_CURVE('',#358,#347,#44,.F.);
#285=EDGE_CURVE('',#346,#359,#45,.F.);
#286=EDGE_CURVE('',#359,#360,#46,.T.);
#287=EDGE_CURVE('',#360,#343,#47,.F.);
#288=EDGE_CURVE('',#361,#361,#48,.T.);
#289=EDGE_CURVE('',#362,#363,#49,.T.);
#290=EDGE_CURVE('',#363,#362,#391,.T.);
#291=EDGE_CURVE('',#364,#365,#50,.T.);
#292=EDGE_CURVE('',#365,#364,#392,.T.);
#293=EDGE_CURVE('',#366,#366,#51,.T.);
#294=EDGE_CURVE('',#367,#367,#52,.F.);
#295=EDGE_CURVE('',#368,#369,#53,.T.);
#296=EDGE_CURVE('',#368,#370,#54,.T.);
#297=EDGE_CURVE('',#370,#365,#55,.F.);
#298=EDGE_CURVE('',#364,#371,#56,.F.);
#299=EDGE_CURVE('',#371,#369,#57,.T.);
#300=EDGE_CURVE('',#357,#368,#84,.F.);
#301=EDGE_CURVE('',#369,#358,#85,.T.);
#302=EDGE_CURVE('',#372,#373,#58,.T.);
#303=EDGE_CURVE('',#372,#374,#59,.T.);
#304=EDGE_CURVE('',#374,#363,#60,.F.);
#305=EDGE_CURVE('',#362,#375,#61,.F.);
#306=EDGE_CURVE('',#375,#373,#62,.T.);
#307=EDGE_CURVE('',#359,#372,#86,.F.);
#308=EDGE_CURVE('',#373,#360,#87,.T.);
#309=EDGE_CURVE('',#376,#377,#63,.T.);
#310=EDGE_CURVE('',#376,#378,#64,.T.);
#311=EDGE_CURVE('',#378,#379,#65,.F.);
#312=EDGE_CURVE('',#380,#379,#66,.T.);
#313=EDGE_CURVE('',#380,#381,#67,.F.);
#314=EDGE_CURVE('',#381,#377,#68,.T.);
#315=EDGE_CURVE('',#355,#376,#88,.F.);
#316=EDGE_CURVE('',#377,#356,#89,.T.);
#317=EDGE_CURVE('',#379,#380,#393,.T.);
#318=EDGE_CURVE('',#370,#337,#394,.T.);
#319=EDGE_CURVE('',#336,#371,#395,.F.);
#320=EDGE_CURVE('',#378,#341,#396,.T.);
#321=EDGE_CURVE('',#340,#381,#397,.F.);
#322=EDGE_CURVE('',#374,#345,#398,.T.);
#323=EDGE_CURVE('',#344,#375,#399,.F.);
#324=EDGE_CURVE('',#382,#382,#69,.T.);
#325=EDGE_CURVE('',#383,#383,#70,.T.);
#326=EDGE_CURVE('',#384,#384,#71,.T.);
#327=EDGE_CURVE('',#385,#385,#72,.T.);
#328=EDGE_CURVE('',#386,#386,#400,.T.);
#329=EDGE_CURVE('',#332,#333,#73,.T.);
#330=EDGE_CURVE('',#334,#335,#74,.T.);
#331=EDGE_CURVE('',#387,#387,#75,.T.);
#332=VERTEX_POINT('',#861);
#333=VERTEX_POINT('',#862);
#334=VERTEX_POINT('',#864);
#335=VERTEX_POINT('',#878);
#336=VERTEX_POINT('',#881);
#337=VERTEX_POINT('',#882);
#338=VERTEX_POINT('',#884);
#339=VERTEX_POINT('',#886);
#340=VERTEX_POINT('',#888);
#341=VERTEX_POINT('',#890);
#342=VERTEX_POINT('',#892);
#343=VERTEX_POINT('',#894);
#344=VERTEX_POINT('',#896);
#345=VERTEX_POINT('',#898);
#346=VERTEX_POINT('',#900);
#347=VERTEX_POINT('',#902);
#348=VERTEX_POINT('',#905);
#349=VERTEX_POINT('',#937);
#350=VERTEX_POINT('',#939);
#351=VERTEX_POINT('',#941);
#352=VERTEX_POINT('',#944);
#353=VERTEX_POINT('',#946);
#354=VERTEX_POINT('',#948);
#355=VERTEX_POINT('',#950);
#356=VERTEX_POINT('',#952);
#357=VERTEX_POINT('',#955);
#358=VERTEX_POINT('',#957);
#359=VERTEX_POINT('',#960);
#360=VERTEX_POINT('',#962);
#361=VERTEX_POINT('',#965);
#362=VERTEX_POINT('',#968);
#363=VERTEX_POINT('',#969);
#364=VERTEX_POINT('',#981);
#365=VERTEX_POINT('',#982);
#366=VERTEX_POINT('',#994);
#367=VERTEX_POINT('',#997);
#368=VERTEX_POINT('',#1000);
#369=VERTEX_POINT('',#1001);
#370=VERTEX_POINT('',#1003);
#371=VERTEX_POINT('',#1006);
#372=VERTEX_POINT('',#1013);
#373=VERTEX_POINT('',#1014);
#374=VERTEX_POINT('',#1016);
#375=VERTEX_POINT('',#1019);
#376=VERTEX_POINT('',#1026);
#377=VERTEX_POINT('',#1027);
#378=VERTEX_POINT('',#1029);
#379=VERTEX_POINT('',#1031);
#380=VERTEX_POINT('',#1033);
#381=VERTEX_POINT('',#1035);
#382=VERTEX_POINT('',#1103);
#383=VERTEX_POINT('',#1106);
#384=VERTEX_POINT('',#1110);
#385=VERTEX_POINT('',#1112);
#386=VERTEX_POINT('',#1147);
#387=VERTEX_POINT('',#1154);
#388=B_SPLINE_CURVE_WITH_KNOTS('',3,(#848,#849,#850,#851,#852,#853,#854,
#855,#856,#857,#858,#859,#860),.UNSPECIFIED.,.F.,.F.,(4,1,1,1,1,1,1,1,1,
1,4),(9.34177181294034E-18,0.0049980788427692,0.0074971182641538,0.0099961576855384,
0.012495197106923,0.0149942365283076,0.0199923153710768,0.024990394213846,
0.0299884730566152,0.0349865518993844,0.0399846307421536),.UNSPECIFIED.);
#389=B_SPLINE_CURVE_WITH_KNOTS('',3,(#865,#866,#867,#868,#869,#870,#871,
#872,#873,#874,#875,#876,#877),.UNSPECIFIED.,.F.,.F.,(4,1,1,1,1,1,1,1,1,
1,4),(9.34177181294034E-18,0.0049980788427692,0.0074971182641538,0.0099961576855384,
0.012495197106923,0.0149942365283076,0.0199923153710768,0.024990394213846,
0.0299884730566152,0.0349865518993844,0.0399846307421536),.UNSPECIFIED.);
#390=B_SPLINE_CURVE_WITH_KNOTS('',3,(#907,#908,#909,#910,#911,#912,#913,
#914,#915,#916,#917,#918,#919,#920,#921,#922,#923,#924,#925,#926,#927,#928,
#929,#930,#931,#932,#933,#934,#935,#936),.UNSPECIFIED.,.T.,.F.,(1,1,1,1,
1,1,1,1,1,1,1,1,1,1,1,1,1,1,1,1,1,1,1,1,1,1,1,1,1,1,1,1,1,1),(-0.0106746339994851,
-0.00711642266632338,-0.00355821133316168,5.92747601821217E-19,0.00355821133316169,
0.00711642266632339,0.0142328453326468,0.0177910566658085,0.0213492679989702,
0.0249074793321319,0.0284656906652936,0.0355821133316169,0.0426985359979403,
0.046256747331102,0.0498149586642637,0.0533731699974254,0.0569313813305871,
0.0604895926637488,0.0640478039969105,0.0676060153300722,0.0711642266632339,
0.0747224379963956,0.0782806493295573,0.081838860662719,0.0853970719958807,
0.092513494662204,0.0996299173285274,0.103188128661689,0.106746339994851,
0.110304551328013,0.113862762661174,0.117420973994336,0.120979185327498,
0.128095607993821),.UNSPECIFIED.);
#391=B_SPLINE_CURVE_WITH_KNOTS('',3,(#970,#971,#972,#973,#974,#975,#976,
#977,#978),.UNSPECIFIED.,.F.,.F.,(4,1,1,1,1,1,4),(0.,0.0024164836273822,
0.00362472544107331,0.00483296725476441,0.00604120906845551,0.00724945088214661,
0.00966593450952882),.UNSPECIFIED.);
#392=B_SPLINE_CURVE_WITH_KNOTS('',3,(#983,#984,#985,#986,#987,#988,#989,
#990,#991),.UNSPECIFIED.,.F.,.F.,(4,1,1,1,1,1,4),(0.,0.00241648362738217,
0.00362472544107325,0.00483296725476434,0.00604120906845542,0.00724945088214651,
0.00966593450952868),.UNSPECIFIED.);
#393=B_SPLINE_CURVE_WITH_KNOTS('',3,(#1041,#1042,#1043,#1044,#1045,#1046,
#1047,#1048,#1049),.UNSPECIFIED.,.F.,.F.,(4,1,1,1,1,1,4),(0.,0.00241648362738217,
0.00362472544107326,0.00483296725476434,0.00604120906845543,0.00724945088214651,
0.00966593450952869),.UNSPECIFIED.);
#394=B_SPLINE_CURVE_WITH_KNOTS('',3,(#1051,#1052,#1053,#1054,#1055,#1056,
#1057),.UNSPECIFIED.,.F.,.F.,(4,1,1,1,4),(0.,0.00254368008173988,0.00508736016347976,
0.00763104024521964,0.0101747203269595),.UNSPECIFIED.);
#395=B_SPLINE_CURVE_WITH_KNOTS('',3,(#1058,#1059,#1060,#1061,#1062,#1063,
#1064),.UNSPECIFIED.,.F.,.F.,(4,1,1,1,4),(0.,0.00254368008173987,0.00508736016347975,
0.00763104024521962,0.0101747203269595),.UNSPECIFIED.);
#396=B_SPLINE_CURVE_WITH_KNOTS('',3,(#1066,#1067,#1068,#1069,#1070,#1071,
#1072),.UNSPECIFIED.,.F.,.F.,(4,1,1,1,4),(0.,0.00254368008173987,0.00508736016347975,
0.00763104024521962,0.0101747203269595),.UNSPECIFIED.);
#397=B_SPLINE_CURVE_WITH_KNOTS('',3,(#1073,#1074,#1075,#1076,#1077,#1078,
#1079),.UNSPECIFIED.,.F.,.F.,(4,1,1,1,4),(0.,0.00254368008173987,0.00508736016347975,
0.00763104024521962,0.0101747203269595),.UNSPECIFIED.);
#398=B_SPLINE_CURVE_WITH_KNOTS('',3,(#1081,#1082,#1083,#1084,#1085,#1086,
#1087),.UNSPECIFIED.,.F.,.F.,(4,1,1,1,4),(0.,0.00254368008173988,0.00508736016347976,
0.00763104024521964,0.0101747203269595),.UNSPECIFIED.);
#399=B_SPLINE_CURVE_WITH_KNOTS('',3,(#1088,#1089,#1090,#1091,#1092,#1093,
#1094),.UNSPECIFIED.,.F.,.F.,(4,1,1,1,4),(0.,0.00254368008173988,0.00508736016347977,
0.00763104024521965,0.0101747203269595),.UNSPECIFIED.);
#400=B_SPLINE_CURVE_WITH_KNOTS('',3,(#1114,#1115,#1116,#1117,#1118,#1119,
#1120,#1121,#1122,#1123,#1124,#1125,#1126,#1127,#1128,#1129,#1130,#1131,
#1132,#1133,#1134,#1135,#1136,#1137,#1138,#1139,#1140,#1141,#1142,#1143,
#1144,#1145,#1146),.UNSPECIFIED.,.T.,.F.,(1,1,1,1,1,1,1,1,1,1,1,1,1,1,1,
1,1,1,1,1,1,1,1,1,1,1,1,1,1,1,1,1,1,1,1,1,1),(-0.00972328226466566,-0.00648218817644378,
-0.00324109408822189,7.95773262859968E-19,0.00324109408822189,0.00648218817644378,
0.00972328226466567,0.0129643763528876,0.0194465645293313,0.0226876586175532,
0.0259287527057751,0.029169846793997,0.0324109408822189,0.0356520349704408,
0.0388931290586627,0.0421342231468846,0.0453753172351065,0.0486164113233283,
0.0518575054115502,0.0550985994997721,0.058339693587994,0.0615807876762159,
0.0648218817644378,0.0713040699408816,0.0745451640291035,0.0777862581173254,
0.0810273522055472,0.0842684462937691,0.087509540381991,0.0907506344702129,
0.0939917285584348,0.0972328226466567,0.100473916734879,0.1037150108231,
0.106956104911322,0.110197198999544,0.113438293087766),.UNSPECIFIED.);
#401=EDGE_LOOP('',(#104,#105,#106,#107));
#402=EDGE_LOOP('',(#108,#109,#110,#111,#112,#113,#114,#115,#116,#117,#118,
#119));
#403=EDGE_LOOP('',(#120));
#404=EDGE_LOOP('',(#121));
#405=EDGE_LOOP('',(#122));
#406=EDGE_LOOP('',(#123));
#407=EDGE_LOOP('',(#124));
#408=EDGE_LOOP('',(#125));
#409=EDGE_LOOP('',(#126));
#410=EDGE_LOOP('',(#127,#128,#129,#130,#131,#132,#133,#134,#135,#136,#137,
#138));
#411=EDGE_LOOP('',(#139));
#412=EDGE_LOOP('',(#140));
#413=EDGE_LOOP('',(#141,#142));
#414=EDGE_LOOP('',(#143));
#415=EDGE_LOOP('',(#144,#145));
#416=EDGE_LOOP('',(#146));
#417=EDGE_LOOP('',(#147));
#418=EDGE_LOOP('',(#148));
#419=EDGE_LOOP('',(#149,#150,#151,#152,#153,#154));
#420=EDGE_LOOP('',(#155,#156,#157,#158));
#421=EDGE_LOOP('',(#159,#160,#161,#162,#163,#164));
#422=EDGE_LOOP('',(#165,#166,#167,#168));
#423=EDGE_LOOP('',(#169,#170,#171,#172,#173,#174));
#424=EDGE_LOOP('',(#175,#176,#177,#178));
#425=EDGE_LOOP('',(#179));
#426=EDGE_LOOP('',(#180,#181));
#427=EDGE_LOOP('',(#182,#183,#184,#185,#186,#187));
#428=EDGE_LOOP('',(#188,#189,#190,#191,#192,#193));
#429=EDGE_LOOP('',(#194,#195,#196,#197,#198,#199));
#430=EDGE_LOOP('',(#200,#201,#202,#203,#204));
#431=EDGE_LOOP('',(#205,#206,#207,#208,#209));
#432=EDGE_LOOP('',(#210,#211,#212,#213,#214));
#433=EDGE_LOOP('',(#215,#216,#217,#218,#219));
#434=EDGE_LOOP('',(#220,#221,#222,#223,#224));
#435=EDGE_LOOP('',(#225,#226,#227,#228,#229));
#436=EDGE_LOOP('',(#230));
#437=EDGE_LOOP('',(#231));
#438=EDGE_LOOP('',(#232));
#439=EDGE_LOOP('',(#233));
#440=EDGE_LOOP('',(#234));
#441=EDGE_LOOP('',(#235));
#442=EDGE_LOOP('',(#236));
#443=EDGE_LOOP('',(#237));
#444=EDGE_LOOP('',(#238));
#445=EDGE_LOOP('',(#239));
#446=EDGE_LOOP('',(#240,#241));
#447=EDGE_LOOP('',(#242,#243));
#448=EDGE_LOOP('',(#244));
#449=EDGE_LOOP('',(#245,#246,#247,#248));
#450=EDGE_LOOP('',(#249));
#451=EDGE_LOOP('',(#250));
#452=EDGE_LOOP('',(#251));
#453=EDGE_LOOP('',(#252));
#454=EDGE_LOOP('',(#253));
#455=EDGE_LOOP('',(#254));
#456=EDGE_LOOP('',(#255));
#457=FACE_BOUND('',#401,.T.);
#458=FACE_BOUND('',#402,.T.);
#459=FACE_BOUND('',#403,.T.);
#460=FACE_BOUND('',#404,.T.);
#461=FACE_BOUND('',#405,.T.);
#462=FACE_BOUND('',#406,.T.);
#463=FACE_BOUND('',#407,.T.);
#464=FACE_BOUND('',#408,.T.);
#465=FACE_BOUND('',#409,.T.);
#466=FACE_BOUND('',#410,.T.);
#467=FACE_BOUND('',#411,.T.);
#468=FACE_BOUND('',#412,.T.);
#469=FACE_BOUND('',#413,.T.);
#470=FACE_BOUND('',#414,.T.);
#471=FACE_BOUND('',#415,.T.);
#472=FACE_BOUND('',#416,.T.);
#473=FACE_BOUND('',#417,.T.);
#474=FACE_BOUND('',#418,.T.);
#475=FACE_BOUND('',#419,.T.);
#476=FACE_BOUND('',#420,.T.);
#477=FACE_BOUND('',#421,.T.);
#478=FACE_BOUND('',#422,.T.);
#479=FACE_BOUND('',#423,.T.);
#480=FACE_BOUND('',#424,.T.);
#481=FACE_BOUND('',#425,.T.);
#482=FACE_BOUND('',#426,.T.);
#483=FACE_BOUND('',#427,.T.);
#484=FACE_BOUND('',#428,.T.);
#485=FACE_BOUND('',#429,.T.);
#486=FACE_BOUND('',#430,.T.);
#487=FACE_BOUND('',#431,.T.);
#488=FACE_BOUND('',#432,.T.);
#489=FACE_BOUND('',#433,.T.);
#490=FACE_BOUND('',#434,.T.);
#491=FACE_BOUND('',#435,.T.);
#492=FACE_BOUND('',#436,.T.);
#493=FACE_BOUND('',#437,.T.);
#494=FACE_BOUND('',#438,.T.);
#495=FACE_BOUND('',#439,.T.);
#496=FACE_BOUND('',#440,.T.);
#497=FACE_BOUND('',#441,.T.);
#498=FACE_BOUND('',#442,.T.);
#499=FACE_BOUND('',#443,.T.);
#500=FACE_BOUND('',#444,.T.);
#501=FACE_BOUND('',#445,.T.);
#502=FACE_BOUND('',#446,.T.);
#503=FACE_BOUND('',#447,.T.);
#504=FACE_BOUND('',#448,.T.);
#505=FACE_BOUND('',#449,.T.);
#506=FACE_BOUND('',#450,.T.);
#507=FACE_BOUND('',#451,.T.);
#508=FACE_BOUND('',#452,.T.);
#509=FACE_BOUND('',#453,.T.);
#510=FACE_BOUND('',#454,.T.);
#511=FACE_BOUND('',#455,.T.);
#512=FACE_BOUND('',#456,.T.);
#513=CYLINDRICAL_SURFACE('',#581,0.0254);
#514=CYLINDRICAL_SURFACE('',#589,0.03048);
#515=CYLINDRICAL_SURFACE('',#606,0.0028956);
#516=CYLINDRICAL_SURFACE('',#608,0.0028956);
#517=CYLINDRICAL_SURFACE('',#620,0.00508);
#518=CYLINDRICAL_SURFACE('',#627,0.00508);
#519=CYLINDRICAL_SURFACE('',#635,0.00508);
#520=CYLINDRICAL_SURFACE('',#636,0.0028956);
#521=CYLINDRICAL_SURFACE('',#640,0.00508);
#522=CYLINDRICAL_SURFACE('',#641,0.00508);
#523=CYLINDRICAL_SURFACE('',#642,0.00508);
#524=CYLINDRICAL_SURFACE('',#643,0.00508);
#525=CYLINDRICAL_SURFACE('',#644,0.00508);
#526=CYLINDRICAL_SURFACE('',#645,0.00508);
#527=CYLINDRICAL_SURFACE('',#646,0.0268224);
#528=CYLINDRICAL_SURFACE('',#648,0.0294386);
#529=CYLINDRICAL_SURFACE('',#654,0.015875);
#530=CYLINDRICAL_SURFACE('',#655,0.015875);
#531=CYLINDRICAL_SURFACE('',#657,0.015875);
#532=CYLINDRICAL_SURFACE('',#661,0.011049);
#533=ADVANCED_FACE('',(#457,#458,#459),#513,.F.);
#534=ADVANCED_FACE('',(#460,#461,#462),#514,.T.);
#535=ADVANCED_FACE('',(#463,#464,#465,#466,#467),#17,.T.);
#536=ADVANCED_FACE('',(#468,#469),#515,.F.);
#537=ADVANCED_FACE('',(#470,#471),#516,.F.);
#538=ADVANCED_FACE('',(#472,#473),#18,.T.);
#539=ADVANCED_FACE('',(#474),#19,.F.);
#540=ADVANCED_FACE('',(#475),#20,.F.);
#541=ADVANCED_FACE('',(#476),#517,.T.);
#542=ADVANCED_FACE('',(#477),#21,.F.);
#543=ADVANCED_FACE('',(#478),#518,.T.);
#544=ADVANCED_FACE('',(#479),#22,.F.);
#545=ADVANCED_FACE('',(#480),#519,.T.);
#546=ADVANCED_FACE('',(#481,#482),#520,.F.);
#547=ADVANCED_FACE('',(#483),#13,.F.);
#548=ADVANCED_FACE('',(#484),#14,.F.);
#549=ADVANCED_FACE('',(#485),#15,.F.);
#550=ADVANCED_FACE('',(#486),#521,.F.);
#551=ADVANCED_FACE('',(#487),#522,.F.);
#552=ADVANCED_FACE('',(#488),#523,.F.);
#553=ADVANCED_FACE('',(#489),#524,.F.);
#554=ADVANCED_FACE('',(#490),#525,.F.);
#555=ADVANCED_FACE('',(#491),#526,.F.);
#556=ADVANCED_FACE('',(#492,#493),#527,.T.);
#557=ADVANCED_FACE('',(#494,#495),#528,.F.);
#558=ADVANCED_FACE('',(#496,#497),#23,.T.);
#559=ADVANCED_FACE('',(#498,#499),#24,.T.);
#560=ADVANCED_FACE('',(#500,#501),#529,.T.);
#561=ADVANCED_FACE('',(#502),#530,.T.);
#562=ADVANCED_FACE('',(#503),#531,.T.);
#563=ADVANCED_FACE('',(#504,#505),#25,.F.);
#564=ADVANCED_FACE('',(#506,#507),#532,.F.);
#565=ADVANCED_FACE('',(#508),#26,.F.);
#566=ADVANCED_FACE('',(#509,#510),#16,.T.);
#567=ADVANCED_FACE('',(#511,#512),#12,.F.);
#568=CLOSED_SHELL('',(#533,#534,#535,#536,#537,#538,#539,#540,#541,#542,
#543,#544,#545,#546,#547,#548,#549,#550,#551,#552,#553,#554,#555,#556,#557,
#558,#559,#560,#561,#562,#563,#564,#565,#566,#567));
#569=STYLED_ITEM('',(#570),#577);
#570=PRESENTATION_STYLE_ASSIGNMENT((#571));
#571=SURFACE_STYLE_USAGE(.BOTH.,#572);
#572=SURFACE_SIDE_STYLE('',(#573));
#573=SURFACE_STYLE_FILL_AREA(#574);
#574=FILL_AREA_STYLE('',(#575));
#575=FILL_AREA_STYLE_COLOUR('',#576);
#576=COLOUR_RGB('',0.615686274509804,0.811764705882353,0.929411764705882);
#577=MANIFOLD_SOLID_BREP('Part 1',#568);
#578=SHAPE_DEFINITION_REPRESENTATION(#1266,#579);
#579=SHAPE_REPRESENTATION('Part 1',(#580),#1261);
#580=AXIS2_PLACEMENT_3D('',#846,#664,#665);
#581=AXIS2_PLACEMENT_3D('',#847,#666,#667);
#582=AXIS2_PLACEMENT_3D('',#880,#670,#671);
#583=AXIS2_PLACEMENT_3D('',#885,#673,#674);
#584=AXIS2_PLACEMENT_3D('',#889,#676,#677);
#585=AXIS2_PLACEMENT_3D('',#893,#679,#680);
#586=AXIS2_PLACEMENT_3D('',#897,#682,#683);
#587=AXIS2_PLACEMENT_3D('',#901,#685,#686);
#588=AXIS2_PLACEMENT_3D('',#904,#688,#689);
#589=AXIS2_PLACEMENT_3D('',#906,#690,#691);
#590=AXIS2_PLACEMENT_3D('',#938,#692,#693);
#591=AXIS2_PLACEMENT_3D('',#940,#694,#695);
#592=AXIS2_PLACEMENT_3D('',#942,#696,#697);
#593=AXIS2_PLACEMENT_3D('',#943,#698,#699);
#594=AXIS2_PLACEMENT_3D('',#945,#700,#701);
#595=AXIS2_PLACEMENT_3D('',#947,#702,#703);
#596=AXIS2_PLACEMENT_3D('',#949,#704,#705);
#597=AXIS2_PLACEMENT_3D('',#951,#706,#707);
#598=AXIS2_PLACEMENT_3D('',#953,#708,#709);
#599=AXIS2_PLACEMENT_3D('',#954,#710,#711);
#600=AXIS2_PLACEMENT_3D('',#956,#712,#713);
#601=AXIS2_PLACEMENT_3D('',#958,#714,#715);
#602=AXIS2_PLACEMENT_3D('',#959,#716,#717);
#603=AXIS2_PLACEMENT_3D('',#961,#718,#719);
#604=AXIS2_PLACEMENT_3D('',#963,#720,#721);
#605=AXIS2_PLACEMENT_3D('',#964,#722,#723);
#606=AXIS2_PLACEMENT_3D('',#966,#724,#725);
#607=AXIS2_PLACEMENT_3D('',#967,#726,#727);
#608=AXIS2_PLACEMENT_3D('',#979,#728,#729);
#609=AXIS2_PLACEMENT_3D('',#980,#730,#731);
#610=AXIS2_PLACEMENT_3D('',#992,#732,#733);
#611=AXIS2_PLACEMENT_3D('',#993,#734,#735);
#612=AXIS2_PLACEMENT_3D('',#995,#736,#737);
#613=AXIS2_PLACEMENT_3D('',#996,#738,#739);
#614=AXIS2_PLACEMENT_3D('',#998,#740,#741);
#615=AXIS2_PLACEMENT_3D('',#999,#742,#743);
#616=AXIS2_PLACEMENT_3D('',#1002,#744,#745);
#617=AXIS2_PLACEMENT_3D('',#1004,#746,#747);
#618=AXIS2_PLACEMENT_3D('',#1005,#748,#749);
#619=AXIS2_PLACEMENT_3D('',#1007,#750,#751);
#620=AXIS2_PLACEMENT_3D('',#1008,#752,#753);
#621=AXIS2_PLACEMENT_3D('',#1011,#756,#757);
#622=AXIS2_PLACEMENT_3D('',#1012,#758,#759);
#623=AXIS2_PLACEMENT_3D('',#1015,#760,#761);
#624=AXIS2_PLACEMENT_3D('',#1017,#762,#763);
#625=AXIS2_PLACEMENT_3D('',#1018,#764,#765);
#626=AXIS2_PLACEMENT_3D('',#1020,#766,#767);
#627=AXIS2_PLACEMENT_3D('',#1021,#768,#769);
#628=AXIS2_PLACEMENT_3D('',#1024,#772,#773);
#629=AXIS2_PLACEMENT_3D('',#1025,#774,#775);
#630=AXIS2_PLACEMENT_3D('',#1028,#776,#777);
#631=AXIS2_PLACEMENT_3D('',#1030,#778,#779);
#632=AXIS2_PLACEMENT_3D('',#1032,#780,#781);
#633=AXIS2_PLACEMENT_3D('',#1034,#782,#783);
#634=AXIS2_PLACEMENT_3D('',#1036,#784,#785);
#635=AXIS2_PLACEMENT_3D('',#1037,#786,#787);
#636=AXIS2_PLACEMENT_3D('',#1040,#790,#791);
#637=AXIS2_PLACEMENT_3D('',#1050,#792,#793);
#638=AXIS2_PLACEMENT_3D('',#1065,#794,#795);
#639=AXIS2_PLACEMENT_3D('',#1080,#796,#797);
#640=AXIS2_PLACEMENT_3D('',#1095,#798,#799);
#641=AXIS2_PLACEMENT_3D('',#1096,#800,#801);
#642=AXIS2_PLACEMENT_3D('',#1097,#802,#803);
#643=AXIS2_PLACEMENT_3D('',#1098,#804,#805);
#644=AXIS2_PLACEMENT_3D('',#1099,#806,#807);
#645=AXIS2_PLACEMENT_3D('',#1100,#808,#809);
#646=AXIS2_PLACEMENT_3D('',#1101,#810,#811);
#647=AXIS2_PLACEMENT_3D('',#1102,#812,#813);
#648=AXIS2_PLACEMENT_3D('',#1104,#814,#815);
#649=AXIS2_PLACEMENT_3D('',#1105,#816,#817);
#650=AXIS2_PLACEMENT_3D('',#1107,#818,#819);
#651=AXIS2_PLACEMENT_3D('',#1108,#820,#821);
#652=AXIS2_PLACEMENT_3D('',#1109,#822,#823);
#653=AXIS2_PLACEMENT_3D('',#1111,#824,#825);
#654=AXIS2_PLACEMENT_3D('',#1113,#826,#827);
#655=AXIS2_PLACEMENT_3D('',#1148,#828,#829);
#656=AXIS2_PLACEMENT_3D('',#1149,#830,#831);
#657=AXIS2_PLACEMENT_3D('',#1150,#832,#833);
#658=AXIS2_PLACEMENT_3D('',#1151,#834,#835);
#659=AXIS2_PLACEMENT_3D('',#1152,#836,#837);
#660=AXIS2_PLACEMENT_3D('',#1153,#838,#839);
#661=AXIS2_PLACEMENT_3D('',#1155,#840,#841);
#662=AXIS2_PLACEMENT_3D('',#1156,#842,#843);
#663=AXIS2_PLACEMENT_3D('',#1157,#844,#845);
#664=DIRECTION('',(0.,0.,1.));
#665=DIRECTION('',(1.,0.,0.));
#666=DIRECTION('',(0.,0.,-1.));
#667=DIRECTION('',(-1.,0.,0.));
#668=DIRECTION('',(0.,0.,-1.));
#669=DIRECTION('',(0.,0.,-1.));
#670=DIRECTION('',(0.,0.,1.));
#671=DIRECTION('',(1.,0.,0.));
#672=DIRECTION('',(0.,0.,-1.));
#673=DIRECTION('',(0.,0.,1.));
#674=DIRECTION('',(1.,0.,0.));
#675=DIRECTION('',(0.,0.,-1.));
#676=DIRECTION('',(0.,0.,1.));
#677=DIRECTION('',(1.,0.,0.));
#678=DIRECTION('',(0.,0.,-1.));
#679=DIRECTION('',(0.,0.,1.));
#680=DIRECTION('',(1.,0.,0.));
#681=DIRECTION('',(0.,0.,-1.));
#682=DIRECTION('',(0.,0.,1.));
#683=DIRECTION('',(1.,0.,0.));
#684=DIRECTION('',(0.,0.,-1.));
#685=DIRECTION('',(0.,0.,1.));
#686=DIRECTION('',(1.,0.,0.));
#687=DIRECTION('',(0.,0.,-1.));
#688=DIRECTION('',(0.,0.,-1.));
#689=DIRECTION('',(-1.,0.,0.));
#690=DIRECTION('',(0.,0.,-1.));
#691=DIRECTION('',(-1.,0.,0.));
#692=DIRECTION('',(0.,0.,1.));
#693=DIRECTION('',(1.,0.,0.));
#694=DIRECTION('',(0.,0.,1.));
#695=DIRECTION('',(1.,0.,0.));
#696=DIRECTION('',(0.,0.,1.));
#697=DIRECTION('',(1.,0.,0.));
#698=DIRECTION('',(0.,0.,1.));
#699=DIRECTION('',(-0.5,0.866025403784438,0.));
#700=DIRECTION('',(0.,0.,1.));
#701=DIRECTION('',(-0.5,-0.866025403784439,0.));
#702=DIRECTION('',(0.,0.,1.));
#703=DIRECTION('',(1.,0.,0.));
#704=DIRECTION('',(0.,0.,1.));
#705=DIRECTION('',(1.,0.,0.));
#706=DIRECTION('',(0.,0.,1.));
#707=DIRECTION('',(1.,0.,0.));
#708=DIRECTION('',(0.,0.,1.));
#709=DIRECTION('',(1.,0.,0.));
#710=DIRECTION('',(0.,0.,1.));
#711=DIRECTION('',(1.,0.,0.));
#712=DIRECTION('',(0.,0.,1.));
#713=DIRECTION('',(-0.5,-0.866025403784438,0.));
#714=DIRECTION('',(0.,0.,1.));
#715=DIRECTION('',(1.,0.,0.));
#716=DIRECTION('',(0.,0.,1.));
#717=DIRECTION('',(1.,0.,0.));
#718=DIRECTION('',(0.,0.,1.));
#719=DIRECTION('',(-0.5,0.866025403784439,0.));
#720=DIRECTION('',(0.,0.,1.));
#721=DIRECTION('',(1.,0.,0.));
#722=DIRECTION('',(0.,0.,1.));
#723=DIRECTION('',(1.,0.,0.));
#724=DIRECTION('',(0.,0.,-1.));
#725=DIRECTION('',(0.5,-0.866025403784438,0.));
#726=DIRECTION('',(0.,0.,-1.));
#727=DIRECTION('',(0.5,-0.866025403784438,0.));
#728=DIRECTION('',(0.,0.,-1.));
#729=DIRECTION('',(0.5,0.866025403784439,0.));
#730=DIRECTION('',(0.,0.,-1.));
#731=DIRECTION('',(0.5,0.866025403784439,0.));
#732=DIRECTION('',(0.,0.,1.));
#733=DIRECTION('',(1.,0.,0.));
#734=DIRECTION('',(0.,0.,1.));
#735=DIRECTION('',(1.,0.,0.));
#736=DIRECTION('',(0.,0.,1.));
#737=DIRECTION('',(1.,0.,0.));
#738=DIRECTION('',(0.,0.,1.));
#739=DIRECTION('',(1.,0.,0.));
#740=DIRECTION('',(0.,0.,1.));
#741=DIRECTION('',(-0.5,-0.866025403784438,0.));
#742=DIRECTION('',(0.,0.,1.));
#743=DIRECTION('',(-0.5,-0.866025403784438,0.));
#744=DIRECTION('',(0.,0.,1.));
#745=DIRECTION('',(1.,0.,0.));
#746=DIRECTION('',(0.,0.,1.));
#747=DIRECTION('',(1.,0.,0.));
#748=DIRECTION('',(0.,0.,1.));
#749=DIRECTION('',(1.,0.,0.));
#750=DIRECTION('',(0.,0.,1.));
#751=DIRECTION('',(1.,0.,0.));
#752=DIRECTION('',(0.,0.,1.));
#753=DIRECTION('',(-0.5,-0.866025403784438,0.));
#754=DIRECTION('',(0.,0.,1.));
#755=DIRECTION('',(0.,0.,1.));
#756=DIRECTION('',(0.,0.,1.));
#757=DIRECTION('',(-0.5,0.866025403784439,0.));
#758=DIRECTION('',(0.,0.,1.));
#759=DIRECTION('',(-0.5,0.866025403784439,0.));
#760=DIRECTION('',(0.,0.,1.));
#761=DIRECTION('',(1.,0.,0.));
#762=DIRECTION('',(0.,0.,1.));
#763=DIRECTION('',(1.,0.,0.));
#764=DIRECTION('',(0.,0.,1.));
#765=DIRECTION('',(1.,0.,0.));
#766=DIRECTION('',(0.,0.,1.));
#767=DIRECTION('',(1.,0.,0.));
#768=DIRECTION('',(0.,0.,1.));
#769=DIRECTION('',(-0.5,0.866025403784439,0.));
#770=DIRECTION('',(0.,0.,1.));
#771=DIRECTION('',(0.,0.,1.));
#772=DIRECTION('',(0.,0.,1.));
#773=DIRECTION('',(1.,0.,0.));
#774=DIRECTION('',(0.,0.,1.));
#775=DIRECTION('',(1.,0.,0.));
#776=DIRECTION('',(0.,0.,1.));
#777=DIRECTION('',(1.,0.,0.));
#778=DIRECTION('',(0.,0.,1.));
#779=DIRECTION('',(1.,0.,0.));
#780=DIRECTION('',(0.,0.,-1.));
#781=DIRECTION('',(-1.,0.,0.));
#782=DIRECTION('',(0.,0.,1.));
#783=DIRECTION('',(1.,0.,0.));
#784=DIRECTION('',(0.,0.,1.));
#785=DIRECTION('',(1.,0.,0.));
#786=DIRECTION('',(0.,0.,1.));
#787=DIRECTION('',(1.,0.,0.));
#788=DIRECTION('',(0.,0.,1.));
#789=DIRECTION('',(0.,0.,1.));
#790=DIRECTION('',(0.,0.,-1.));
#791=DIRECTION('',(-1.,0.,0.));
#792=DIRECTION('',(0.,0.,1.));
#793=DIRECTION('',(1.,0.,0.));
#794=DIRECTION('',(0.,0.,1.));
#795=DIRECTION('',(1.,0.,0.));
#796=DIRECTION('',(0.,0.,1.));
#797=DIRECTION('',(1.,0.,0.));
#798=DIRECTION('',(0.,0.,-1.));
#799=DIRECTION('',(-1.,0.,0.));
#800=DIRECTION('',(0.,0.,-1.));
#801=DIRECTION('',(-1.,0.,0.));
#802=DIRECTION('',(0.,0.,-1.));
#803=DIRECTION('',(-1.,0.,0.));
#804=DIRECTION('',(0.,0.,-1.));
#805=DIRECTION('',(-1.,0.,0.));
#806=DIRECTION('',(0.,0.,-1.));
#807=DIRECTION('',(-1.,0.,0.));
#808=DIRECTION('',(0.,0.,-1.));
#809=DIRECTION('',(-1.,0.,0.));
#810=DIRECTION('',(0.,0.,1.));
#811=DIRECTION('',(1.,0.,0.));
#812=DIRECTION('',(0.,0.,1.));
#813=DIRECTION('',(1.,0.,0.));
#814=DIRECTION('',(0.,0.,1.));
#815=DIRECTION('',(1.,0.,0.));
#816=DIRECTION('',(0.,0.,1.));
#817=DIRECTION('',(1.,0.,0.));
#818=DIRECTION('',(0.,0.,1.));
#819=DIRECTION('',(1.,0.,0.));
#820=DIRECTION('',(0.,-1.,0.));
#821=DIRECTION('',(1.,0.,0.));
#822=DIRECTION('',(0.,-1.,0.));
#823=DIRECTION('',(0.,0.,-1.));
#824=DIRECTION('',(0.,-1.,0.));
#825=DIRECTION('',(0.,0.,-1.));
#826=DIRECTION('',(0.,1.,0.));
#827=DIRECTION('',(0.,0.,1.));
#828=DIRECTION('',(0.,1.,0.));
#829=DIRECTION('',(0.,0.,1.));
#830=DIRECTION('',(0.,-1.,0.));
#831=DIRECTION('',(0.,0.,-1.));
#832=DIRECTION('',(0.,1.,0.));
#833=DIRECTION('',(0.,0.,1.));
#834=DIRECTION('',(0.,-1.,0.));
#835=DIRECTION('',(0.,0.,-1.));
#836=DIRECTION('',(0.,-1.,0.));
#837=DIRECTION('',(1.,0.,0.));
#838=DIRECTION('',(0.,-1.,0.));
#839=DIRECTION('',(0.,0.,-1.));
#840=DIRECTION('',(0.,-1.,0.));
#841=DIRECTION('',(0.,0.,-1.));
#842=DIRECTION('',(0.,0.,-1.));
#843=DIRECTION('',(1.,0.,0.));
#844=DIRECTION('',(0.,0.,1.));
#845=DIRECTION('',(1.,0.,0.));
#846=CARTESIAN_POINT('',(0.,0.,0.));
#847=CARTESIAN_POINT('',(0.,1.55530143491714E-18,0.0762));
#848=CARTESIAN_POINT('',(0.0149303395152287,-0.0205486,0.0423200539883814));
#849=CARTESIAN_POINT('',(0.0143718796924718,-0.0209543694811021,0.0438657025120943));
#850=CARTESIAN_POINT('',(0.0132278804084239,-0.0217360932661569,0.0459503024407373));
#851=CARTESIAN_POINT('',(0.0111134031214837,-0.0228656139044964,0.0483441941810885));
#852=CARTESIAN_POINT('',(0.00930523946531948,-0.0236652674454059,0.0498618175612579));
#853=CARTESIAN_POINT('',(0.00721875255169462,-0.0243874156015398,0.0511338040448966));
#854=CARTESIAN_POINT('',(0.00423345227586669,-0.0251319879626361,0.0523776728718823));
#855=CARTESIAN_POINT('',(3.96377397487896E-5,-0.0255730947043068,0.0530734627283307));
#856=CARTESIAN_POINT('',(-0.00498832197484807,-0.0250636617232889,0.0522706736383069));
#857=CARTESIAN_POINT('',(-0.00938285633798234,-0.0237298550234868,0.050029840508172));
#858=CARTESIAN_POINT('',(-0.0128116356673164,-0.0220176155611955,0.0466939550240582));
#859=CARTESIAN_POINT('',(-0.014371867709599,-0.0209543781876982,0.0438657356770757));
#860=CARTESIAN_POINT('',(-0.0149303395152287,-0.0205486,0.0423200539883814));
#861=CARTESIAN_POINT('',(0.0149303395152287,-0.0205486,0.0423200539883814));
#862=CARTESIAN_POINT('',(-0.0149303395152287,-0.0205486,0.0423200539883814));
#863=CARTESIAN_POINT('',(-0.0149303395152287,-0.0205486,0.0762));
#864=CARTESIAN_POINT('',(-0.0149303395152287,-0.0205486,0.0315310620132246));
#865=CARTESIAN_POINT('',(-0.0149303395152287,-0.0205486,0.0315310620132246));
#866=CARTESIAN_POINT('',(-0.0143718796924718,-0.0209543694811021,0.0299854134895117));
#867=CARTESIAN_POINT('',(-0.013227880408424,-0.0217360932661569,0.0279008135608687));
#868=CARTESIAN_POINT('',(-0.0111134031214837,-0.0228656139044964,0.0255069218205175));
#869=CARTESIAN_POINT('',(-0.0093052394653195,-0.0236652674454059,0.0239892984403481));
#870=CARTESIAN_POINT('',(-0.00721875255169463,-0.0243874156015398,0.0227173119567094));
#871=CARTESIAN_POINT('',(-0.00423345227586671,-0.0251319879626361,0.0214734431297237));
#872=CARTESIAN_POINT('',(-3.96377397487958E-5,-0.0255730947043068,0.0207776532732752));
#873=CARTESIAN_POINT('',(0.00498832197484806,-0.0250636617232889,0.0215804423632991));
#874=CARTESIAN_POINT('',(0.00938285633798234,-0.0237298550234868,0.023821275493434));
#875=CARTESIAN_POINT('',(0.0128116356673164,-0.0220176155611955,0.0271571609775478));
#876=CARTESIAN_POINT('',(0.014371867709599,-0.0209543781876982,0.0299853803245303));
#877=CARTESIAN_POINT('',(0.0149303395152287,-0.0205486,0.0315310620132246));
#878=CARTESIAN_POINT('',(0.0149303395152287,-0.0205486,0.0315310620132246));
#879=CARTESIAN_POINT('',(0.0149303395152287,-0.0205486,0.0762));
#880=CARTESIAN_POINT('',(0.,1.55530143491714E-18,0.06477));
#881=CARTESIAN_POINT('',(0.0130990535370049,-0.0217617737428428,0.06477));
#882=CARTESIAN_POINT('',(0.0253957756612135,-0.000463226257157264,0.06477));
#883=CARTESIAN_POINT('',(0.0253957756612135,-0.000463226257157264,0.0762));
#884=CARTESIAN_POINT('',(0.0253957756612135,-0.000463226257157264,0.0762));
#885=CARTESIAN_POINT('',(0.,1.55530143491714E-18,0.0762));
#886=CARTESIAN_POINT('',(0.0122967221242085,0.022225,0.0762));
#887=CARTESIAN_POINT('',(0.0122967221242085,0.022225,0.0762));
#888=CARTESIAN_POINT('',(0.0122967221242085,0.022225,0.06477));
#889=CARTESIAN_POINT('',(0.,1.55530143491714E-18,0.06477));
#890=CARTESIAN_POINT('',(-0.0122967221242085,0.022225,0.06477));
#891=CARTESIAN_POINT('',(-0.0122967221242085,0.022225,0.0762));
#892=CARTESIAN_POINT('',(-0.0122967221242085,0.022225,0.0762));
#893=CARTESIAN_POINT('',(0.,1.55530143491714E-18,0.0762));
#894=CARTESIAN_POINT('',(-0.0253957756612135,-0.000463226257157244,0.0762));
#895=CARTESIAN_POINT('',(-0.0253957756612135,-0.000463226257157244,0.0762));
#896=CARTESIAN_POINT('',(-0.0253957756612135,-0.000463226257157244,0.06477));
#897=CARTESIAN_POINT('',(0.,1.55530143491714E-18,0.06477));
#898=CARTESIAN_POINT('',(-0.0130990535370049,-0.0217617737428428,0.06477));
#899=CARTESIAN_POINT('',(-0.0130990535370049,-0.0217617737428428,0.0762));
#900=CARTESIAN_POINT('',(-0.0130990535370049,-0.0217617737428428,0.0762));
#901=CARTESIAN_POINT('',(0.,1.55530143491714E-18,0.0762));
#902=CARTESIAN_POINT('',(0.0130990535370049,-0.0217617737428428,0.0762));
#903=CARTESIAN_POINT('',(0.0130990535370049,-0.0217617737428428,0.0762));
#904=CARTESIAN_POINT('',(0.,1.55530143491714E-18,0.00635));
#905=CARTESIAN_POINT('',(-0.0254,1.55530143491714E-18,0.00635));
#906=CARTESIAN_POINT('',(5.42101086242752E-19,2.16840434497101E-18,0.0762));
#907=CARTESIAN_POINT('',(-0.0035943585489667,-0.0303348228084967,0.0550605253307311));
#908=CARTESIAN_POINT('',(5.8571921043402E-6,-0.030552123757179,0.055479627595926));
#909=CARTESIAN_POINT('',(0.00357092978054936,-0.0303366821627872,0.055064312290383));
#910=CARTESIAN_POINT('',(0.00799270030085658,-0.0295556523164734,0.053509892940906));
#911=CARTESIAN_POINT('',(0.0116840756946453,-0.0282325429935274,0.0506581216219854));
#912=CARTESIAN_POINT('',(0.0143571759150556,-0.0269110707526803,0.046989407222185));
#913=CARTESIAN_POINT('',(0.0158577885818,-0.0260427835636542,0.0438611324069033));
#914=CARTESIAN_POINT('',(0.0167837497757514,-0.0254464379979614,0.0404885437114959));
#915=CARTESIAN_POINT('',(0.0172122738700403,-0.0251516837057722,0.0357385371720517));
#916=CARTESIAN_POINT('',(0.0161477020864822,-0.025900499091323,0.0298598303884233));
#917=CARTESIAN_POINT('',(0.0131680226018375,-0.0275792965013503,0.0248712859562194));
#918=CARTESIAN_POINT('',(0.00985311525926443,-0.0288917427835257,0.0217748459723531));
#919=CARTESIAN_POINT('',(0.00688432318968109,-0.0297506320454454,0.0199524616087078));
#920=CARTESIAN_POINT('',(0.00358979086692452,-0.0303351253175532,0.018790076123619));
#921=CARTESIAN_POINT('',(-1.12612742653106E-6,-0.0305509777685159,0.018373647507992));
#922=CARTESIAN_POINT('',(-0.00352987271383576,-0.030340955213064,0.0187786981573806));
#923=CARTESIAN_POINT('',(-0.00685687432590745,-0.0297580921978486,0.0199372680321991));
#924=CARTESIAN_POINT('',(-0.00982540540656831,-0.0289013506655933,0.0217534231447849));
#925=CARTESIAN_POINT('',(-0.0123279711404178,-0.0279120878599827,0.0240843919593508));
#926=CARTESIAN_POINT('',(-0.0143453135862177,-0.0269179108077149,0.0268405561490878));
#927=CARTESIAN_POINT('',(-0.0158473524665659,-0.0260490823140113,0.0299628104721611));
#928=CARTESIAN_POINT('',(-0.0167795744735008,-0.025449299394057,0.0333377281731924));
#929=CARTESIAN_POINT('',(-0.0172138644002168,-0.0251506001795778,0.0380908055015632));
#930=CARTESIAN_POINT('',(-0.0161539987421468,-0.025896121951032,0.043973738188635));
#931=CARTESIAN_POINT('',(-0.0131808364885917,-0.0275733850697962,0.0489646754961463));
#932=CARTESIAN_POINT('',(-0.00986231873007356,-0.0288885182971075,0.0520691915271208));
#933=CARTESIAN_POINT('',(-0.00689855517272598,-0.0297474461514728,0.0538921423808474));
#934=CARTESIAN_POINT('',(-0.0035943585489667,-0.0303348228084967,0.0550605253307311));
#935=CARTESIAN_POINT('',(5.8571921043402E-6,-0.030552123757179,0.055479627595926));
#936=CARTESIAN_POINT('',(0.00357092978054936,-0.0303366821627872,0.055064312290383));
#937=CARTESIAN_POINT('',(-6.08536374945368E-19,-0.03048,0.055340558000803));
#938=CARTESIAN_POINT('',(5.42101086242752E-19,2.16840434497101E-18,0.00508));
#939=CARTESIAN_POINT('',(0.03048,2.16840434497101E-18,0.00508));
#940=CARTESIAN_POINT('',(5.42101086242752E-19,2.16840434497101E-18,0.0762));
#941=CARTESIAN_POINT('',(0.03048,2.16840434497101E-18,0.0762));
#942=CARTESIAN_POINT('',(0.,0.,0.0762));
#943=CARTESIAN_POINT('',(-0.0175976362048998,-0.01016,0.0762));
#944=CARTESIAN_POINT('',(-0.0190454362048998,-0.00765233684080178,0.0762));
#945=CARTESIAN_POINT('',(0.0175976362048998,-0.01016,0.0762));
#946=CARTESIAN_POINT('',(0.0161498362048998,-0.0126676631591982,0.0762));
#947=CARTESIAN_POINT('',(0.,0.02032,0.0762));
#948=CARTESIAN_POINT('',(0.0028956,0.02032,0.0762));
#949=CARTESIAN_POINT('',(-0.00983737769936684,0.01778,0.0762));
#950=CARTESIAN_POINT('',(-0.00491868884968342,0.01905,0.0762));
#951=CARTESIAN_POINT('',(0.,0.02032,0.0762));
#952=CARTESIAN_POINT('',(0.00491868884968342,0.01905,0.0762));
#953=CARTESIAN_POINT('',(0.00983737769936684,0.01778,0.0762));
#954=CARTESIAN_POINT('',(0.0203166205289707,-0.000370581005725811,0.0762));
#955=CARTESIAN_POINT('',(0.0189571283669352,-0.00526529050286291,0.0762));
#956=CARTESIAN_POINT('',(0.0175976362048998,-0.01016,0.0762));
#957=CARTESIAN_POINT('',(0.0140384395172518,-0.0137847094971371,0.0762));
#958=CARTESIAN_POINT('',(0.0104792428296039,-0.0174094189942742,0.0762));
#959=CARTESIAN_POINT('',(-0.0104792428296039,-0.0174094189942742,0.0762));
#960=CARTESIAN_POINT('',(-0.0140384395172518,-0.0137847094971371,0.0762));
#961=CARTESIAN_POINT('',(-0.0175976362048998,-0.01016,0.0762));
#962=CARTESIAN_POINT('',(-0.0189571283669352,-0.00526529050286289,0.0762));
#963=CARTESIAN_POINT('',(-0.0203166205289707,-0.000370581005725795,0.0762));
#964=CARTESIAN_POINT('',(0.,3.19769975018963E-18,0.0762));
#965=CARTESIAN_POINT('',(0.0268224,3.19769975018963E-18,0.0762));
#966=CARTESIAN_POINT('',(-0.0175976362048998,-0.01016,0.078359));
#967=CARTESIAN_POINT('',(-0.0175976362048998,-0.01016,0.06985));
#968=CARTESIAN_POINT('',(-0.0188630856053421,-0.00755555434402633,0.06985));
#969=CARTESIAN_POINT('',(-0.0159748448042717,-0.0125581341559737,0.06985));
#970=CARTESIAN_POINT('',(-0.0159748448042717,-0.0125581341559737,0.06985));
#971=CARTESIAN_POINT('',(-0.0166525096488114,-0.0130167026140758,0.06985));
#972=CARTESIAN_POINT('',(-0.0179099440965804,-0.0132217873635655,0.0695290968767201));
#973=CARTESIAN_POINT('',(-0.0193461599438454,-0.0125689701555257,0.0690553550941816));
#974=CARTESIAN_POINT('',(-0.02017930726386,-0.0116554453471213,0.0688885298658144));
#975=CARTESIAN_POINT('',(-0.0205587289524116,-0.0104727901229557,0.0690542621914938));
#976=CARTESIAN_POINT('',(-0.0204049076288485,-0.00889798431129108,0.0695296544836922));
#977=CARTESIAN_POINT('',(-0.0196000692126813,-0.00791364031979015,0.06985));
#978=CARTESIAN_POINT('',(-0.0188630856053421,-0.00755555434402633,0.06985));
#979=CARTESIAN_POINT('',(0.0175976362048998,-0.01016,0.078359));
#980=CARTESIAN_POINT('',(0.0175976362048998,-0.01016,0.06985));
#981=CARTESIAN_POINT('',(0.0159748448042717,-0.0125581341559737,0.06985));
#982=CARTESIAN_POINT('',(0.0188630856053421,-0.00755555434402632,0.06985));
#983=CARTESIAN_POINT('',(0.0188630856053421,-0.00755555434402632,0.06985));
#984=CARTESIAN_POINT('',(0.0195990499617026,-0.00791314508559822,0.06985));
#985=CARTESIAN_POINT('',(0.020405375788574,-0.00889957288621495,0.0695290968767202));
#986=CARTESIAN_POINT('',(0.0205581274260164,-0.0104697808992842,0.0690553550941816));
#987=CARTESIAN_POINT('',(0.0201835653949581,-0.0116480700477139,0.0688885298658144));
#988=CARTESIAN_POINT('',(0.0193490667711882,-0.0125679864808292,0.0690542621914937));
#989=CARTESIAN_POINT('',(0.0179083342704777,-0.0132221762128121,0.0695296544836922));
#990=CARTESIAN_POINT('',(0.0166534481596917,-0.0130173376942202,0.06985));
#991=CARTESIAN_POINT('',(0.0159748448042717,-0.0125581341559737,0.06985));
#992=CARTESIAN_POINT('',(0.,0.,0.0762));
#993=CARTESIAN_POINT('',(0.,3.3578957979861E-18,0.0762));
#994=CARTESIAN_POINT('',(0.0294386,3.3578957979861E-18,0.0762));
#995=CARTESIAN_POINT('',(0.,0.,0.));
#996=CARTESIAN_POINT('',(5.42101086242752E-19,2.16840434497101E-18,0.));
#997=CARTESIAN_POINT('',(0.0254,2.16840434497101E-18,0.));
#998=CARTESIAN_POINT('',(6.00925839494864E-18,-3.46944695195361E-18,0.06985));
#999=CARTESIAN_POINT('',(0.0175976362048998,-0.01016,0.06985));
#1000=CARTESIAN_POINT('',(0.0189571283669352,-0.00526529050286291,0.06985));
#1001=CARTESIAN_POINT('',(0.0140384395172518,-0.0137847094971371,0.06985));
#1002=CARTESIAN_POINT('',(0.0203166205289707,-0.000370581005725811,0.06985));
#1003=CARTESIAN_POINT('',(0.0195898075266509,-0.0053983183556337,0.06985));
#1004=CARTESIAN_POINT('',(0.,1.55530143491714E-18,0.06985));
#1005=CARTESIAN_POINT('',(0.,1.55530143491714E-18,0.06985));
#1006=CARTESIAN_POINT('',(0.0144699845970201,-0.0142661117955104,0.06985));
#1007=CARTESIAN_POINT('',(0.0104792428296039,-0.0174094189942742,0.06985));
#1008=CARTESIAN_POINT('',(0.0175976362048998,-0.01016,0.06985));
#1009=CARTESIAN_POINT('',(0.0189571283669352,-0.00526529050286291,0.06985));
#1010=CARTESIAN_POINT('',(0.0140384395172518,-0.0137847094971371,0.06985));
#1011=CARTESIAN_POINT('',(-6.00925839494864E-18,-3.46944695195361E-18,0.06985));
#1012=CARTESIAN_POINT('',(-0.0175976362048998,-0.01016,0.06985));
#1013=CARTESIAN_POINT('',(-0.0140384395172518,-0.0137847094971371,0.06985));
#1014=CARTESIAN_POINT('',(-0.0189571283669352,-0.00526529050286289,0.06985));
#1015=CARTESIAN_POINT('',(-0.0104792428296039,-0.0174094189942742,0.06985));
#1016=CARTESIAN_POINT('',(-0.0144699845970201,-0.0142661117955104,0.06985));
#1017=CARTESIAN_POINT('',(0.,1.55530143491714E-18,0.06985));
#1018=CARTESIAN_POINT('',(0.,1.55530143491714E-18,0.06985));
#1019=CARTESIAN_POINT('',(-0.0195898075266509,-0.00539831835563369,0.06985));
#1020=CARTESIAN_POINT('',(-0.0203166205289707,-0.000370581005725795,0.06985));
#1021=CARTESIAN_POINT('',(-0.0175976362048998,-0.01016,0.06985));
#1022=CARTESIAN_POINT('',(-0.0140384395172518,-0.0137847094971371,0.06985));
#1023=CARTESIAN_POINT('',(-0.0189571283669352,-0.00526529050286289,0.06985));
#1024=CARTESIAN_POINT('',(0.,6.93889390390723E-18,0.06985));
#1025=CARTESIAN_POINT('',(0.,0.02032,0.06985));
#1026=CARTESIAN_POINT('',(-0.00491868884968342,0.01905,0.06985));
#1027=CARTESIAN_POINT('',(0.00491868884968342,0.01905,0.06985));
#1028=CARTESIAN_POINT('',(-0.00983737769936684,0.01778,0.06985));
#1029=CARTESIAN_POINT('',(-0.00511982292963084,0.0196644301511441,0.06985));
#1030=CARTESIAN_POINT('',(0.,1.55530143491714E-18,0.06985));
#1031=CARTESIAN_POINT('',(-0.0028882408010704,0.0201136885,0.06985));
#1032=CARTESIAN_POINT('',(0.,0.02032,0.06985));
#1033=CARTESIAN_POINT('',(0.0028882408010704,0.0201136885,0.06985));
#1034=CARTESIAN_POINT('',(0.,1.55530143491714E-18,0.06985));
#1035=CARTESIAN_POINT('',(0.00511982292963084,0.0196644301511441,0.06985));
#1036=CARTESIAN_POINT('',(0.00983737769936684,0.01778,0.06985));
#1037=CARTESIAN_POINT('',(0.,0.02032,0.06985));
#1038=CARTESIAN_POINT('',(-0.00491868884968342,0.01905,0.06985));
#1039=CARTESIAN_POINT('',(0.00491868884968342,0.01905,0.06985));
#1040=CARTESIAN_POINT('',(0.,0.02032,0.078359));
#1041=CARTESIAN_POINT('',(-0.0028882408010704,0.0201136885,0.06985));
#1042=CARTESIAN_POINT('',(-0.00294654031289128,0.020929847699674,0.06985));
#1043=CARTESIAN_POINT('',(-0.00249543169199362,0.0221213602497805,0.0695290968767202));
#1044=CARTESIAN_POINT('',(-0.00121196748217099,0.0230387510548099,0.0690553550941816));
#1045=CARTESIAN_POINT('',(-4.25813109816287E-6,0.0233035153948352,0.0688885298658144));
#1046=CARTESIAN_POINT('',(0.00120966218122334,0.0230407766037849,0.0690542621914938));
#1047=CARTESIAN_POINT('',(0.00249657335837076,0.0221201605241032,0.0695296544836921));
#1048=CARTESIAN_POINT('',(0.00294662105298957,0.0209309780140103,0.06985));
#1049=CARTESIAN_POINT('',(0.0028882408010704,0.0201136885,0.06985));
#1050=CARTESIAN_POINT('',(0.,1.55530143491714E-18,0.06477));
#1051=CARTESIAN_POINT('',(0.0195898075266509,-0.0053983183556337,0.06985));
#1052=CARTESIAN_POINT('',(0.0204439007966521,-0.00552178663781079,0.06985));
#1053=CARTESIAN_POINT('',(0.0221472362943201,-0.00530709232744739,0.0694092413557096));
#1054=CARTESIAN_POINT('',(0.0240190702746641,-0.00405273210274455,0.0680663776716479));
#1055=CARTESIAN_POINT('',(0.0251232642169685,-0.00236312178128541,0.0664736030652584));
#1056=CARTESIAN_POINT('',(0.0253842500344805,-0.00109510371734427,0.0653352625338209));
#1057=CARTESIAN_POINT('',(0.0253957756612135,-0.000463226257157264,0.06477));
#1058=CARTESIAN_POINT('',(0.0144699845970201,-0.0142661117955104,0.06985));
#1059=CARTESIAN_POINT('',(0.0150039579009476,-0.0149440441234442,0.06985));
#1060=CARTESIAN_POINT('',(0.0156696949229583,-0.0165265230907746,0.0694092413557105));
#1061=CARTESIAN_POINT('',(0.015519304093044,-0.0187747589817691,0.0680663776716448));
#1062=CARTESIAN_POINT('',(0.0146081556033048,-0.0205758241472459,0.0664736030652701));
#1063=CARTESIAN_POINT('',(0.0136405126562584,-0.0214358535271924,0.0653352625337958));
#1064=CARTESIAN_POINT('',(0.0130990535370049,-0.0217617737428428,0.06477));
#1065=CARTESIAN_POINT('',(0.,1.55530143491714E-18,0.06477));
#1066=CARTESIAN_POINT('',(-0.00511982292963084,0.0196644301511441,0.06985));
#1067=CARTESIAN_POINT('',(-0.00543994289570445,0.020465830761255,0.06985));
#1068=CARTESIAN_POINT('',(-0.00647754137136128,0.0218336154182215,0.0694092413557098));
#1069=CARTESIAN_POINT('',(-0.00849976618162211,0.0228274910845153,0.0680663776716473));
#1070=CARTESIAN_POINT('',(-0.0105151086136565,0.022938945928525,0.0664736030652607));
#1071=CARTESIAN_POINT('',(-0.0117437373782376,0.0225309572445503,0.0653352625338162));
#1072=CARTESIAN_POINT('',(-0.0122967221242085,0.022225,0.06477));
#1073=CARTESIAN_POINT('',(0.00511982292963084,0.0196644301511441,0.06985));
#1074=CARTESIAN_POINT('',(0.00543994289570445,0.020465830761255,0.06985));
#1075=CARTESIAN_POINT('',(0.00647754137136157,0.0218336154182214,0.0694092413557102));
#1076=CARTESIAN_POINT('',(0.00849976618162109,0.0228274910845159,0.068066377671646));
#1077=CARTESIAN_POINT('',(0.0105151086136603,0.0229389459285229,0.0664736030652655));
#1078=CARTESIAN_POINT('',(0.0117437373782294,0.0225309572445548,0.0653352625338057));
#1079=CARTESIAN_POINT('',(0.0122967221242085,0.022225,0.06477));
#1080=CARTESIAN_POINT('',(0.,1.55530143491714E-18,0.06477));
#1081=CARTESIAN_POINT('',(-0.0144699845970201,-0.0142661117955104,0.06985));
#1082=CARTESIAN_POINT('',(-0.0150039579009476,-0.0149440441234442,0.06985));
#1083=CARTESIAN_POINT('',(-0.0156696949229606,-0.0165265230907732,0.0694092413557075));
#1084=CARTESIAN_POINT('',(-0.0155193040930358,-0.018774758981774,0.0680663776716555));
#1085=CARTESIAN_POINT('',(-0.0146081556033352,-0.0205758241472276,0.0664736030652305));
#1086=CARTESIAN_POINT('',(-0.0136405126561929,-0.0214358535272318,0.0653352625338813));
#1087=CARTESIAN_POINT('',(-0.0130990535370049,-0.0217617737428428,0.06477));
#1088=CARTESIAN_POINT('',(-0.0195898075266509,-0.00539831835563369,0.06985));
#1089=CARTESIAN_POINT('',(-0.0204439007966521,-0.00552178663781078,0.06985));
#1090=CARTESIAN_POINT('',(-0.0221472362943201,-0.00530709232744894,0.0694092413557079));
#1091=CARTESIAN_POINT('',(-0.0240190702746642,-0.00405273210273904,0.068066377671654));
#1092=CARTESIAN_POINT('',(-0.0251232642169681,-0.00236312178130578,0.0664736030652356));
#1093=CARTESIAN_POINT('',(-0.0253842500344813,-0.00109510371730034,0.06533526253387));
#1094=CARTESIAN_POINT('',(-0.0253957756612135,-0.000463226257157244,0.06477));
#1095=CARTESIAN_POINT('',(0.0203166205289707,-0.000370581005725811,0.0762));
#1096=CARTESIAN_POINT('',(0.0104792428296039,-0.0174094189942742,0.06985));
#1097=CARTESIAN_POINT('',(-0.0104792428296039,-0.0174094189942742,0.0762));
#1098=CARTESIAN_POINT('',(-0.0203166205289707,-0.000370581005725795,0.06985));
#1099=CARTESIAN_POINT('',(-0.00983737769936684,0.01778,0.0762));
#1100=CARTESIAN_POINT('',(0.00983737769936684,0.01778,0.06985));
#1101=CARTESIAN_POINT('',(0.,3.19769975018963E-18,0.074295));
#1102=CARTESIAN_POINT('',(0.,3.19769975018963E-18,0.074295));
#1103=CARTESIAN_POINT('',(0.0268224,3.19769975018963E-18,0.074295));
#1104=CARTESIAN_POINT('',(0.,3.3578957979861E-18,0.074295));
#1105=CARTESIAN_POINT('',(0.,3.3578957979861E-18,0.074295));
#1106=CARTESIAN_POINT('',(0.0294386,3.3578957979861E-18,0.074295));
#1107=CARTESIAN_POINT('',(0.,6.93889390390723E-18,0.074295));
#1108=CARTESIAN_POINT('',(0.,-0.0332486,0.036925558000803));
#1109=CARTESIAN_POINT('',(0.,-0.0332486,0.036925558000803));
#1110=CARTESIAN_POINT('',(0.,-0.0332486,0.025876558000803));
#1111=CARTESIAN_POINT('',(0.,-0.0332486,0.036925558000803));
#1112=CARTESIAN_POINT('',(0.,-0.0332486,0.021050558000803));
#1113=CARTESIAN_POINT('',(0.,-0.0332486,0.036925558000803));
#1114=CARTESIAN_POINT('',(0.00322945169831131,-0.0328748421228016,0.0525776556933202));
#1115=CARTESIAN_POINT('',(3.48297033881279E-6,-0.033093018391736,0.0529127075091738));
#1116=CARTESIAN_POINT('',(-0.00324338357966656,-0.0328730843102545,0.0525748622748026));
#1117=CARTESIAN_POINT('',(-0.00624070455757525,-0.0322773795191382,0.051633792161574));
#1118=CARTESIAN_POINT('',(-0.00898726950170674,-0.0313825776298374,0.0501314473624957));
#1119=CARTESIAN_POINT('',(-0.012091499129469,-0.0299917133999971,0.0475505247677214));
#1120=CARTESIAN_POINT('',(-0.0144115685182411,-0.02850868868148,0.044133118779333));
#1121=CARTESIAN_POINT('',(-0.0156598099386344,-0.0275782344828076,0.0401134248168872));
#1122=CARTESIAN_POINT('',(-0.0159849264672036,-0.0273212956023131,0.0369121939537889));
#1123=CARTESIAN_POINT('',(-0.0156504281676069,-0.0275856897070663,0.0336878383760729));
#1124=CARTESIAN_POINT('',(-0.0147083674989613,-0.0282862036616408,0.0306907319058324));
#1125=CARTESIAN_POINT('',(-0.0132375823774377,-0.0292608605907903,0.0279878362604381));
#1126=CARTESIAN_POINT('',(-0.0113042904677837,-0.0303448028765208,0.0256439348296089));
#1127=CARTESIAN_POINT('',(-0.00896284285684617,-0.0313918098843262,0.0237035818005025));
#1128=CARTESIAN_POINT('',(-0.00622689121711609,-0.032281958946571,0.0222099446396491));
#1129=CARTESIAN_POINT('',(-0.00319383622885279,-0.0328789204904009,0.0212671570548024));
#1130=CARTESIAN_POINT('',(-2.85129095193597E-6,-0.0330919541215425,0.0209400594608192));
#1131=CARTESIAN_POINT('',(0.00324593522040485,-0.0328732573998248,0.0212759617995874));
#1132=CARTESIAN_POINT('',(0.00624780712668197,-0.0322753945137494,0.0222205367398378));
#1133=CARTESIAN_POINT('',(0.00898740897570473,-0.0313822912443245,0.023720307326367));
#1134=CARTESIAN_POINT('',(0.0120890428211594,-0.0299929964026043,0.0262979874404872));
#1135=CARTESIAN_POINT('',(0.014408982553568,-0.0285104459252292,0.0297143644299573));
#1136=CARTESIAN_POINT('',(0.0156574558629766,-0.027580048127383,0.0337268852600385));
#1137=CARTESIAN_POINT('',(0.0159849168789665,-0.0273213190018212,0.0369287532458038));
#1138=CARTESIAN_POINT('',(0.0156528691775549,-0.0275837446011238,0.0401491061845866));
#1139=CARTESIAN_POINT('',(0.014716025473191,-0.0282807868123941,0.0431424303706614));
#1140=CARTESIAN_POINT('',(0.0132464435357631,-0.0292553456053589,0.0458499975961724));
#1141=CARTESIAN_POINT('',(0.0113202214484719,-0.0303365575989,0.0481906478847587));
#1142=CARTESIAN_POINT('',(0.00898200874858321,-0.0313845442520003,0.0501348938237771));
#1143=CARTESIAN_POINT('',(0.00624811524520689,-0.0322757721257225,0.0516311238873436));
#1144=CARTESIAN_POINT('',(0.00322945169831131,-0.0328748421228016,0.0525776556933202));
#1145=CARTESIAN_POINT('',(3.48297033881279E-6,-0.033093018391736,0.0529127075091738));
#1146=CARTESIAN_POINT('',(-0.00324338357966656,-0.0328730843102545,0.0525748622748026));
#1147=CARTESIAN_POINT('',(7.53981706451225E-19,-0.03302,0.052800558000803));
#1148=CARTESIAN_POINT('',(0.,-0.0332486,0.036925558000803));
#1149=CARTESIAN_POINT('',(0.,-0.0205486,0.036925558000803));
#1150=CARTESIAN_POINT('',(0.,-0.0332486,0.036925558000803));
#1151=CARTESIAN_POINT('',(0.,-0.0205486,0.036925558000803));
#1152=CARTESIAN_POINT('',(0.,-0.0205486,0.036925558000803));
#1153=CARTESIAN_POINT('',(0.,-0.0205486,0.036925558000803));
#1154=CARTESIAN_POINT('',(0.,-0.0205486,0.025876558000803));
#1155=CARTESIAN_POINT('',(0.,-0.0078486,0.036925558000803));
#1156=CARTESIAN_POINT('',(0.,0.,0.00635));
#1157=CARTESIAN_POINT('',(5.42101086242752E-19,2.16840434497101E-18,0.00508));
#1158=CARTESIAN_POINT('',(-0.00185685171313616,-0.0304233874135577,0.055230358826358));
#1159=CARTESIAN_POINT('',(-0.00158224825763369,-0.0304401474767898,0.0527222494809349));
#1160=CARTESIAN_POINT('',(-0.00173412875508406,-0.0329586696980209,0.0527055587124883));
#1161=CARTESIAN_POINT('',(-0.00072563841316921,-0.0304927001092741,0.05536574566679));
#1162=CARTESIAN_POINT('',(-0.000610686495955149,-0.0304894953147862,0.0528194908597454));
#1163=CARTESIAN_POINT('',(-0.000677679552528716,-0.0330337584517136,0.0528222715059642));
#1164=CARTESIAN_POINT('',(0.00154758964276214,-0.0305044269263272,0.055388505529171));
#1165=CARTESIAN_POINT('',(0.00130048560147706,-0.0304968891857536,0.0528344747361886));
#1166=CARTESIAN_POINT('',(0.00144530641924625,-0.0330464625035211,0.0528418920769823));
#1167=CARTESIAN_POINT('',(0.00604174138536344,-0.0300206069291647,0.0544437897749412));
#1168=CARTESIAN_POINT('',(0.00511278405773923,-0.0301654273669483,0.0521785416471205));
#1169=CARTESIAN_POINT('',(0.00564243089150322,-0.0325223241732618,0.0520274819440256));
#1170=CARTESIAN_POINT('',(0.00999519048263366,-0.0288930696114557,0.0521507177881975));
#1171=CARTESIAN_POINT('',(0.00875033264631724,-0.0293143444843275,0.0504746186409019));
#1172=CARTESIAN_POINT('',(0.00933458881280443,-0.0313008254124104,0.0500506957485569));
#1173=CARTESIAN_POINT('',(0.0131206828540779,-0.027543924477414,0.0488088268550737));
#1174=CARTESIAN_POINT('',(0.0118851787810898,-0.0281298851183158,0.0476172210581951));
#1175=CARTESIAN_POINT('',(0.0122535112861359,-0.0298392515171986,0.0471697552889674));
#1176=CARTESIAN_POINT('',(0.0149625352650358,-0.0265756259032283,0.0459049740949347));
#1177=CARTESIAN_POINT('',(0.0137550043076052,-0.0272544526753215,0.0450774616217908));
#1178=CARTESIAN_POINT('',(0.0139736320722317,-0.028790261395164,0.04466643394402));
#1179=CARTESIAN_POINT('',(0.0160767486472979,-0.0259003115552492,0.0431171124214953));
#1180=CARTESIAN_POINT('',(0.0149150007622219,-0.0266213685170594,0.0425626087872241));
#1181=CARTESIAN_POINT('',(0.0150142049148615,-0.02805867085152,0.0422631049151929));
#1182=CARTESIAN_POINT('',(0.0166499259765375,-0.025531731616491,0.0407837562837129));
#1183=CARTESIAN_POINT('',(0.0155116997543588,-0.0262739536366067,0.0404418639534185));
#1184=CARTESIAN_POINT('',(0.0155494998344101,-0.0276593759178652,0.0402515910033115));
#1185=CARTESIAN_POINT('',(0.0170157738378699,-0.0252889765458221,0.0383362100908999));
#1186=CARTESIAN_POINT('',(0.0158923105642528,-0.0260449166049076,0.0382184583703952));
#1187=CARTESIAN_POINT('',(0.0158911680957118,-0.027396391257974,0.0381416373888176));
#1188=CARTESIAN_POINT('',(0.0170439200956766,-0.0252695006298855,0.0352656713172583));
#1189=CARTESIAN_POINT('',(0.0159221189833883,-0.0260258921176623,0.0354039890524022));
#1190=CARTESIAN_POINT('',(0.0159174541123416,-0.0273752923490427,0.0354946212046438));
#1191=CARTESIAN_POINT('',(0.0161755090687755,-0.0258494828052385,0.0303982225831693));
#1192=CARTESIAN_POINT('',(0.0150063747856732,-0.0265824257056702,0.030936088168131));
#1193=CARTESIAN_POINT('',(0.0151064380671036,-0.0280036063723417,0.0312985447097395));
#1194=CARTESIAN_POINT('',(0.0140807050223315,-0.0271131476890911,0.0261426130593665));
#1195=CARTESIAN_POINT('',(0.0127941913724669,-0.0277722378913123,0.0271234402734627));
#1196=CARTESIAN_POINT('',(0.0131500837133843,-0.0293725766631821,0.0276299158099095));
#1197=CARTESIAN_POINT('',(0.0110106580089341,-0.028463885745854,0.0227477599445125));
#1198=CARTESIAN_POINT('',(0.00980066499568764,-0.0289261892834598,0.0242990526653394));
#1199=CARTESIAN_POINT('',(0.0102829421060447,-0.0308358762246752,0.0247033182971043));
#1200=CARTESIAN_POINT('',(0.00831429852681067,-0.0293761641544767,0.0207298627637925));
#1201=CARTESIAN_POINT('',(0.00724058532801179,-0.0296697931534907,0.0226806737995521));
#1202=CARTESIAN_POINT('',(0.00776479029084329,-0.0318241778340164,0.0229637517620008));
#1203=CARTESIAN_POINT('',(0.00573208536363077,-0.02997071448568,0.0195148676778888));
#1204=CARTESIAN_POINT('',(0.00492634498035906,-0.030115423699405,0.0217737556988147));
#1205=CARTESIAN_POINT('',(0.00535324064132184,-0.0324682740261533,0.0219163422051873));
#1206=CARTESIAN_POINT('',(0.00356596240565005,-0.0302861797979809,0.0188888002423494));
#1207=CARTESIAN_POINT('',(0.00304353896307682,-0.0303433753427233,0.021319456204481));
#1208=CARTESIAN_POINT('',(0.00333028098228812,-0.0328100281144793,0.0213766288986878));
#1209=CARTESIAN_POINT('',(0.0012940208506959,-0.0304901212859955,0.0184903675847394));
#1210=CARTESIAN_POINT('',(0.00108797545261634,-0.0304879046370638,0.0210348611892036));
#1211=CARTESIAN_POINT('',(0.00120849648412692,-0.0330309647264952,0.0210331524697137));
#1212=CARTESIAN_POINT('',(-0.0015496641153879,-0.0305043250580332,0.0184628173031481));
#1213=CARTESIAN_POINT('',(-0.00130214335443727,-0.0304968176005584,0.0210167927844407));
#1214=CARTESIAN_POINT('',(-0.0014472437859226,-0.0330463521462027,0.0210094022269625));
#1215=CARTESIAN_POINT('',(-0.00604700572917598,-0.0300197643647277,0.0194089307760002));
#1216=CARTESIAN_POINT('',(-0.00511732210632644,-0.0301648481148144,0.0216736610950938));
#1217=CARTESIAN_POINT('',(-0.00564734730454653,-0.0325214113951217,0.0218250172897661));
#1218=CARTESIAN_POINT('',(-0.0100006010920397,-0.0288911827049413,0.0217047368888041));
#1219=CARTESIAN_POINT('',(-0.00875545510845761,-0.029312840731042,0.023379982677545));
#1220=CARTESIAN_POINT('',(-0.00933964182446236,-0.0312987812636865,0.0238041604904591));
#1221=CARTESIAN_POINT('',(-0.0131261345122401,-0.0275413433763505,0.0250485671323111));
#1222=CARTESIAN_POINT('',(-0.0118905974286199,-0.0281276187354617,0.0262391249657264));
#1223=CARTESIAN_POINT('',(-0.0122586026335576,-0.0298364553243797,0.0266867727693445));
#1224=CARTESIAN_POINT('',(-0.0149681044135949,-0.0265724877004628,0.0279586922117823));
#1225=CARTESIAN_POINT('',(-0.0137606860810322,-0.0272515921016708,0.0287850052503291));
#1226=CARTESIAN_POINT('',(-0.0139788331448803,-0.0287868616755014,0.02919550128613));
#1227=CARTESIAN_POINT('',(-0.0163017170303138,-0.0257636816868146,0.0312936726517956));
#1228=CARTESIAN_POINT('',(-0.0151430858065551,-0.0264966005438172,0.0317792613046861));
#1229=CARTESIAN_POINT('',(-0.0152243046978505,-0.0279106551607159,0.0320704844240725));
#1230=CARTESIAN_POINT('',(-0.0170095454013549,-0.0252929710463176,0.0349015814010265));
#1231=CARTESIAN_POINT('',(-0.015886002672225,-0.0260486384630977,0.0350701322214423));
#1232=CARTESIAN_POINT('',(-0.0158853513087366,-0.0274007186335107,0.0351807505872026));
#1233=CARTESIAN_POINT('',(-0.0170430963165655,-0.0252701591664371,0.0386090729467756));
#1234=CARTESIAN_POINT('',(-0.0159211667822054,-0.0260265732186,0.038468730764446));
#1235=CARTESIAN_POINT('',(-0.0159166847784016,-0.0273760057636401,0.0383768639887104));
#1236=CARTESIAN_POINT('',(-0.0161681507737149,-0.0258541847155398,0.0434711083119249));
#1237=CARTESIAN_POINT('',(-0.0149986694933242,-0.0265868939400782,0.0429316652613691));
#1238=CARTESIAN_POINT('',(-0.0150995660961418,-0.0280087001085014,0.0425682737862529));
#1239=CARTESIAN_POINT('',(-0.0140689123838569,-0.0271197023922124,0.0477280626250077));
#1240=CARTESIAN_POINT('',(-0.0127818224232481,-0.0277782735088854,0.0467449409465679));
#1241=CARTESIAN_POINT('',(-0.0131390704734295,-0.0293796775915635,0.0462380619871864));
#1242=CARTESIAN_POINT('',(-0.0109908211860323,-0.0284716168322076,0.0511213383673746));
#1243=CARTESIAN_POINT('',(-0.00978140502735743,-0.0289327172094348,0.0495669080756099));
#1244=CARTESIAN_POINT('',(-0.0102644163375301,-0.0308442515682249,0.0491632996961234));
#1245=CARTESIAN_POINT('',(-0.00829264215385265,-0.0293825188328629,0.0531346688882642));
#1246=CARTESIAN_POINT('',(-0.0072203933348202,-0.029674781782298,0.0511808609935901));
#1247=CARTESIAN_POINT('',(-0.00774456522989112,-0.0318310620689348,0.0508989294555109));
#1248=CARTESIAN_POINT('',(-0.00570461744633761,-0.0299757434719901,0.054346329037201));
#1249=CARTESIAN_POINT('',(-0.00490217499212673,-0.0301191097085957,0.0520847583503233));
#1250=CARTESIAN_POINT('',(-0.00532758813235553,-0.0324737220946559,0.0519434640666633));
#1251=CARTESIAN_POINT('',(-0.00355097129908722,-0.0302876937263883,0.0549652751110891));
#1252=CARTESIAN_POINT('',(-0.0030307339485525,-0.0303444372234132,0.0525337517966984));
#1253=CARTESIAN_POINT('',(-0.00331628066725099,-0.0328116682035873,0.052477038268291));
#1254=CARTESIAN_POINT('',(-0.00242245836311963,-0.0303887310656996,0.055162665406142));
#1255=CARTESIAN_POINT('',(-0.00206509248508304,-0.0304156227171157,0.0526739227144031));
#1256=CARTESIAN_POINT('',(-0.00226235335636172,-0.0329211253211745,0.0526472023157504));
#1257=CARTESIAN_POINT('',(-0.00185685171313616,-0.0304233874135577,0.055230358826358));
#1258=CARTESIAN_POINT('',(-0.00158224825763369,-0.0304401474767898,0.0527222494809349));
#1259=CARTESIAN_POINT('',(-0.00173412875508406,-0.0329586696980209,0.0527055587124883));
#1260=MECHANICAL_DESIGN_GEOMETRIC_PRESENTATION_REPRESENTATION('',(#569),
#1261);
#1261=(
GEOMETRIC_REPRESENTATION_CONTEXT(3)
GLOBAL_UNCERTAINTY_ASSIGNED_CONTEXT((#1262))
GLOBAL_UNIT_ASSIGNED_CONTEXT((#1265,#1264,#1263))
REPRESENTATION_CONTEXT('Part 1','TOP_LEVEL_ASSEMBLY_PART')
);
#1262=UNCERTAINTY_MEASURE_WITH_UNIT(LENGTH_MEASURE(2.E-5),#1265,
'DISTANCE_ACCURACY_VALUE','Maximum Tolerance applied to model');
#1263=(
NAMED_UNIT(*)
SI_UNIT($,.STERADIAN.)
SOLID_ANGLE_UNIT()
);
#1264=(
NAMED_UNIT(*)
PLANE_ANGLE_UNIT()
SI_UNIT($,.RADIAN.)
);
#1265=(
LENGTH_UNIT()
NAMED_UNIT(*)
SI_UNIT($,.METRE.)
);
#1266=PRODUCT_DEFINITION_SHAPE('','',#1267);
#1267=PRODUCT_DEFINITION('','',#1269,#1268);
#1268=PRODUCT_DEFINITION_CONTEXT('',#1275,'design');
#1269=PRODUCT_DEFINITION_FORMATION_WITH_SPECIFIED_SOURCE('','',#1271,
 .NOT_KNOWN.);
#1270=PRODUCT_RELATED_PRODUCT_CATEGORY('','',(#1271));
#1271=PRODUCT('Part 1','Part 1','Part 1',(#1273));
#1272=PRODUCT_CATEGORY('','');
#1273=PRODUCT_CONTEXT('',#1275,'mechanical');
#1274=APPLICATION_PROTOCOL_DEFINITION('international standard',
'ap242_managed_model_based_3d_engineering',2020,#1275);
#1275=APPLICATION_CONTEXT('managed model based 3d engineering');
ENDSEC;
END-ISO-10303-21;
