ISO-10303-21;
HEADER;
/* Generated by software containing ST-Developer
 * from STEP Tools, Inc. (www.steptools.com) 
 */

FILE_DESCRIPTION(
/* description */ (''),
/* implementation_level */ '2;1');

FILE_NAME(
/* name */ 'Turbidity Sensor.step',
/* time_stamp */ '2026-10-06T10:03:23-07:00',
/* author */ (''),
/* organization */ (''),
/* preprocessor_version */ 'ST-DEVELOPER v20.2',
/* originating_system */ 'Autodesk Translation Framework v15.15.0.0',
/* authorisation */ '');

FILE_SCHEMA (('AUTOMOTIVE_DESIGN { 1 0 10303 214 3 1 1 }'));
ENDSEC;

DATA;
#10=MECHANICAL_DESIGN_GEOMETRIC_PRESENTATION_REPRESENTATION('',(#31,#32),
#1576);
#11=ITEM_DEFINED_TRANSFORMATION($,$,#885,#987);
#12=ITEM_DEFINED_TRANSFORMATION($,$,#932,#988);
#13=(
REPRESENTATION_RELATIONSHIP($,$,#1593,#1592)
REPRESENTATION_RELATIONSHIP_WITH_TRANSFORMATION(#11)
SHAPE_REPRESENTATION_RELATIONSHIP()
);
#14=(
REPRESENTATION_RELATIONSHIP($,$,#1594,#1592)
REPRESENTATION_RELATIONSHIP_WITH_TRANSFORMATION(#12)
SHAPE_REPRESENTATION_RELATIONSHIP()
);
#15=CONTEXT_DEPENDENT_SHAPE_REPRESENTATION(#13,#1590);
#16=CONTEXT_DEPENDENT_SHAPE_REPRESENTATION(#14,#1591);
#17=NEXT_ASSEMBLY_USAGE_OCCURRENCE('Body :1','Body :1','Body :1',#1596,
#1597,'Body :1');
#18=NEXT_ASSEMBLY_USAGE_OCCURRENCE('Lid:1','Lid:1','Lid:1',#1596,#1598,
'Lid:1');
#19=(
BOUNDED_CURVE()
B_SPLINE_CURVE(2,(#1419,#1420,#1421),.UNSPECIFIED.,.F.,.F.)
B_SPLINE_CURVE_WITH_KNOTS((3,3),(-0.281518133632393,-0.0256693884436639),
 .UNSPECIFIED.)
CURVE()
GEOMETRIC_REPRESENTATION_ITEM()
RATIONAL_B_SPLINE_CURVE((1.,1.,1.))
REPRESENTATION_ITEM('')
);
#20=(
BOUNDED_CURVE()
B_SPLINE_CURVE(2,(#1432,#1433,#1434),.UNSPECIFIED.,.F.,.F.)
B_SPLINE_CURVE_WITH_KNOTS((3,3),(-0.281518133631652,-0.0256693884429146),
 .UNSPECIFIED.)
CURVE()
GEOMETRIC_REPRESENTATION_ITEM()
RATIONAL_B_SPLINE_CURVE((1.,1.,1.))
REPRESENTATION_ITEM('')
);
#21=(
BOUNDED_CURVE()
B_SPLINE_CURVE(2,(#1440,#1441,#1442),.UNSPECIFIED.,.F.,.F.)
B_SPLINE_CURVE_WITH_KNOTS((3,3),(-0.281518133630978,-0.0256693884422319),
 .UNSPECIFIED.)
CURVE()
GEOMETRIC_REPRESENTATION_ITEM()
RATIONAL_B_SPLINE_CURVE((1.,1.,1.))
REPRESENTATION_ITEM('')
);
#22=(
BOUNDED_CURVE()
B_SPLINE_CURVE(2,(#1460,#1461,#1462),.UNSPECIFIED.,.F.,.F.)
B_SPLINE_CURVE_WITH_KNOTS((3,3),(-0.281518133632093,-0.0256693884433608),
 .UNSPECIFIED.)
CURVE()
GEOMETRIC_REPRESENTATION_ITEM()
RATIONAL_B_SPLINE_CURVE((1.,1.,1.))
REPRESENTATION_ITEM('')
);
#23=(
BOUNDED_CURVE()
B_SPLINE_CURVE(2,(#1468,#1469,#1470),.UNSPECIFIED.,.F.,.F.)
B_SPLINE_CURVE_WITH_KNOTS((3,3),(-0.281518133631356,-0.025669388442615),
 .UNSPECIFIED.)
CURVE()
GEOMETRIC_REPRESENTATION_ITEM()
RATIONAL_B_SPLINE_CURVE((1.,1.,1.))
REPRESENTATION_ITEM('')
);
#24=(
BOUNDED_CURVE()
B_SPLINE_CURVE(2,(#1488,#1489,#1490),.UNSPECIFIED.,.F.,.F.)
B_SPLINE_CURVE_WITH_KNOTS((3,3),(-0.281518133631437,-0.0256693884426967),
 .UNSPECIFIED.)
CURVE()
GEOMETRIC_REPRESENTATION_ITEM()
RATIONAL_B_SPLINE_CURVE((1.,1.,1.))
REPRESENTATION_ITEM('')
);
#25=(
BOUNDED_CURVE()
B_SPLINE_CURVE(2,(#1496,#1497,#1498),.UNSPECIFIED.,.F.,.F.)
B_SPLINE_CURVE_WITH_KNOTS((3,3),(-0.281518133631663,-0.0256693884429257),
 .UNSPECIFIED.)
CURVE()
GEOMETRIC_REPRESENTATION_ITEM()
RATIONAL_B_SPLINE_CURVE((1.,1.,1.))
REPRESENTATION_ITEM('')
);
#26=(
BOUNDED_CURVE()
B_SPLINE_CURVE(2,(#1516,#1517,#1518),.UNSPECIFIED.,.F.,.F.)
B_SPLINE_CURVE_WITH_KNOTS((3,3),(-0.281518133632093,-0.0256693884433608),
 .UNSPECIFIED.)
CURVE()
GEOMETRIC_REPRESENTATION_ITEM()
RATIONAL_B_SPLINE_CURVE((1.,1.,1.))
REPRESENTATION_ITEM('')
);
#27=SHAPE_REPRESENTATION_RELATIONSHIP('SRR','None',#1593,#29);
#28=SHAPE_REPRESENTATION_RELATIONSHIP('SRR','None',#1594,#30);
#29=ADVANCED_BREP_SHAPE_REPRESENTATION('',(#33),#1574);
#30=ADVANCED_BREP_SHAPE_REPRESENTATION('',(#34),#1575);
#31=STYLED_ITEM('',(#1611),#33);
#32=STYLED_ITEM('',(#1611),#34);
#33=MANIFOLD_SOLID_BREP('Body1',#859);
#34=MANIFOLD_SOLID_BREP('Body1',#860);
#35=B_SPLINE_CURVE_WITH_KNOTS('',3,(#1295,#1296,#1297,#1298,#1299,#1300,
#1301,#1302,#1303,#1304,#1305,#1306,#1307,#1308),.UNSPECIFIED.,.F.,.F.,
(4,2,2,2,2,2,4),(0.410280731293692,0.414510696374841,0.474870325970349,
0.535229955565857,0.595589585161365,0.655949214756873,0.660179179838022),
 .UNSPECIFIED.);
#36=B_SPLINE_CURVE_WITH_KNOTS('',3,(#1310,#1311,#1312,#1313,#1314,#1315,
#1316,#1317),.UNSPECIFIED.,.F.,.F.,(4,2,2,4),(0.535229955565857,0.595589585161365,
0.655949214756873,0.660179179838021),.UNSPECIFIED.);
#37=B_SPLINE_CURVE_WITH_KNOTS('',3,(#1321,#1322,#1323,#1324,#1325,#1326,
#1327,#1328),.UNSPECIFIED.,.F.,.F.,(4,2,2,4),(0.410280731293692,0.414510696374841,
0.474870325970349,0.535229955565857),.UNSPECIFIED.);
#38=B_SPLINE_CURVE_WITH_KNOTS('',3,(#1329,#1330,#1331,#1332,#1333,#1334,
#1335,#1336,#1337,#1338,#1339,#1340,#1341,#1342),.UNSPECIFIED.,.F.,.F.,
(4,2,2,2,2,2,4),(0.410280731293691,0.414510696374841,0.474870325970348,
0.535229955565856,0.595589585161364,0.655949214756872,0.660179179838021),
 .UNSPECIFIED.);
#39=B_SPLINE_CURVE_WITH_KNOTS('',3,(#1343,#1344,#1345,#1346,#1347,#1348,
#1349,#1350,#1351,#1352,#1353,#1354,#1355,#1356),.UNSPECIFIED.,.F.,.F.,
(4,2,2,2,2,2,4),(0.410280731293692,0.414510696374841,0.474870325970349,
0.535229955565857,0.595589585161364,0.655949214756872,0.660179179838022),
 .UNSPECIFIED.);
#40=FACE_BOUND('',#149,.T.);
#41=FACE_BOUND('',#159,.T.);
#42=FACE_BOUND('',#161,.T.);
#43=FACE_BOUND('',#162,.T.);
#44=FACE_BOUND('',#163,.T.);
#45=FACE_BOUND('',#164,.T.);
#46=FACE_BOUND('',#165,.T.);
#47=FACE_BOUND('',#169,.T.);
#48=FACE_BOUND('',#190,.T.);
#49=FACE_BOUND('',#192,.T.);
#50=FACE_BOUND('',#193,.T.);
#51=FACE_BOUND('',#194,.T.);
#52=FACE_BOUND('',#195,.T.);
#53=FACE_BOUND('',#196,.T.);
#54=FACE_BOUND('',#206,.T.);
#55=FACE_BOUND('',#207,.T.);
#56=FACE_BOUND('',#208,.T.);
#57=FACE_BOUND('',#209,.T.);
#58=FACE_BOUND('',#210,.T.);
#59=PLANE('',#892);
#60=PLANE('',#895);
#61=PLANE('',#925);
#62=PLANE('',#926);
#63=PLANE('',#927);
#64=PLANE('',#931);
#65=PLANE('',#938);
#66=PLANE('',#939);
#67=PLANE('',#940);
#68=PLANE('',#941);
#69=PLANE('',#945);
#70=PLANE('',#946);
#71=PLANE('',#947);
#72=PLANE('',#951);
#73=PLANE('',#952);
#74=PLANE('',#953);
#75=PLANE('',#957);
#76=PLANE('',#958);
#77=PLANE('',#959);
#78=PLANE('',#963);
#79=PLANE('',#964);
#80=PLANE('',#973);
#81=PLANE('',#986);
#82=CYLINDRICAL_SURFACE('',#889,1.1);
#83=CYLINDRICAL_SURFACE('',#909,0.11);
#84=CYLINDRICAL_SURFACE('',#911,0.11);
#85=CYLINDRICAL_SURFACE('',#913,1.75);
#86=CYLINDRICAL_SURFACE('',#915,0.11);
#87=CYLINDRICAL_SURFACE('',#917,0.11);
#88=CYLINDRICAL_SURFACE('',#919,1.125);
#89=CYLINDRICAL_SURFACE('',#922,1.387);
#90=CYLINDRICAL_SURFACE('',#929,1.025);
#91=CYLINDRICAL_SURFACE('',#976,1.75);
#92=CYLINDRICAL_SURFACE('',#978,0.0885);
#93=CYLINDRICAL_SURFACE('',#980,0.0885);
#94=CYLINDRICAL_SURFACE('',#982,0.0885);
#95=CYLINDRICAL_SURFACE('',#984,0.0884999999999998);
#96=FACE_OUTER_BOUND('',#144,.T.);
#97=FACE_OUTER_BOUND('',#145,.T.);
#98=FACE_OUTER_BOUND('',#146,.T.);
#99=FACE_OUTER_BOUND('',#147,.T.);
#100=FACE_OUTER_BOUND('',#148,.T.);
#101=FACE_OUTER_BOUND('',#150,.T.);
#102=FACE_OUTER_BOUND('',#151,.T.);
#103=FACE_OUTER_BOUND('',#152,.T.);
#104=FACE_OUTER_BOUND('',#153,.T.);
#105=FACE_OUTER_BOUND('',#154,.T.);
#106=FACE_OUTER_BOUND('',#155,.T.);
#107=FACE_OUTER_BOUND('',#156,.T.);
#108=FACE_OUTER_BOUND('',#157,.T.);
#109=FACE_OUTER_BOUND('',#158,.T.);
#110=FACE_OUTER_BOUND('',#160,.T.);
#111=FACE_OUTER_BOUND('',#166,.T.);
#112=FACE_OUTER_BOUND('',#167,.T.);
#113=FACE_OUTER_BOUND('',#168,.T.);
#114=FACE_OUTER_BOUND('',#170,.T.);
#115=FACE_OUTER_BOUND('',#171,.T.);
#116=FACE_OUTER_BOUND('',#172,.T.);
#117=FACE_OUTER_BOUND('',#173,.T.);
#118=FACE_OUTER_BOUND('',#174,.T.);
#119=FACE_OUTER_BOUND('',#175,.T.);
#120=FACE_OUTER_BOUND('',#176,.T.);
#121=FACE_OUTER_BOUND('',#177,.T.);
#122=FACE_OUTER_BOUND('',#178,.T.);
#123=FACE_OUTER_BOUND('',#179,.T.);
#124=FACE_OUTER_BOUND('',#180,.T.);
#125=FACE_OUTER_BOUND('',#181,.T.);
#126=FACE_OUTER_BOUND('',#182,.T.);
#127=FACE_OUTER_BOUND('',#183,.T.);
#128=FACE_OUTER_BOUND('',#184,.T.);
#129=FACE_OUTER_BOUND('',#185,.T.);
#130=FACE_OUTER_BOUND('',#186,.T.);
#131=FACE_OUTER_BOUND('',#187,.T.);
#132=FACE_OUTER_BOUND('',#188,.T.);
#133=FACE_OUTER_BOUND('',#189,.T.);
#134=FACE_OUTER_BOUND('',#191,.T.);
#135=FACE_OUTER_BOUND('',#197,.T.);
#136=FACE_OUTER_BOUND('',#198,.T.);
#137=FACE_OUTER_BOUND('',#199,.T.);
#138=FACE_OUTER_BOUND('',#200,.T.);
#139=FACE_OUTER_BOUND('',#201,.T.);
#140=FACE_OUTER_BOUND('',#202,.T.);
#141=FACE_OUTER_BOUND('',#203,.T.);
#142=FACE_OUTER_BOUND('',#204,.T.);
#143=FACE_OUTER_BOUND('',#205,.T.);
#144=EDGE_LOOP('',(#564,#565,#566,#567));
#145=EDGE_LOOP('',(#568,#569,#570,#571,#572));
#146=EDGE_LOOP('',(#573));
#147=EDGE_LOOP('',(#574,#575,#576,#577,#578));
#148=EDGE_LOOP('',(#579,#580,#581,#582,#583,#584,#585,#586,#587,#588,#589));
#149=EDGE_LOOP('',(#590));
#150=EDGE_LOOP('',(#591,#592,#593,#594,#595,#596,#597,#598,#599,#600,#601,
#602));
#151=EDGE_LOOP('',(#603,#604,#605,#606,#607,#608));
#152=EDGE_LOOP('',(#609,#610,#611,#612,#613,#614));
#153=EDGE_LOOP('',(#615,#616,#617,#618));
#154=EDGE_LOOP('',(#619,#620,#621,#622,#623,#624));
#155=EDGE_LOOP('',(#625,#626,#627,#628,#629,#630));
#156=EDGE_LOOP('',(#631,#632,#633,#634));
#157=EDGE_LOOP('',(#635,#636,#637,#638));
#158=EDGE_LOOP('',(#639));
#159=EDGE_LOOP('',(#640));
#160=EDGE_LOOP('',(#641));
#161=EDGE_LOOP('',(#642));
#162=EDGE_LOOP('',(#643));
#163=EDGE_LOOP('',(#644));
#164=EDGE_LOOP('',(#645));
#165=EDGE_LOOP('',(#646));
#166=EDGE_LOOP('',(#647));
#167=EDGE_LOOP('',(#648,#649,#650,#651));
#168=EDGE_LOOP('',(#652));
#169=EDGE_LOOP('',(#653));
#170=EDGE_LOOP('',(#654,#655,#656,#657));
#171=EDGE_LOOP('',(#658,#659,#660,#661));
#172=EDGE_LOOP('',(#662));
#173=EDGE_LOOP('',(#663,#664,#665,#666));
#174=EDGE_LOOP('',(#667,#668,#669,#670));
#175=EDGE_LOOP('',(#671,#672,#673,#674));
#176=EDGE_LOOP('',(#675,#676,#677,#678));
#177=EDGE_LOOP('',(#679,#680,#681,#682));
#178=EDGE_LOOP('',(#683,#684,#685,#686));
#179=EDGE_LOOP('',(#687,#688,#689,#690));
#180=EDGE_LOOP('',(#691,#692,#693,#694));
#181=EDGE_LOOP('',(#695,#696,#697,#698));
#182=EDGE_LOOP('',(#699,#700,#701,#702));
#183=EDGE_LOOP('',(#703,#704,#705,#706));
#184=EDGE_LOOP('',(#707,#708,#709,#710));
#185=EDGE_LOOP('',(#711,#712,#713,#714));
#186=EDGE_LOOP('',(#715,#716,#717,#718));
#187=EDGE_LOOP('',(#719,#720,#721,#722));
#188=EDGE_LOOP('',(#723,#724,#725,#726));
#189=EDGE_LOOP('',(#727,#728,#729,#730,#731,#732,#733,#734,#735,#736,#737,
#738,#739,#740,#741,#742));
#190=EDGE_LOOP('',(#743));
#191=EDGE_LOOP('',(#744));
#192=EDGE_LOOP('',(#745));
#193=EDGE_LOOP('',(#746));
#194=EDGE_LOOP('',(#747));
#195=EDGE_LOOP('',(#748));
#196=EDGE_LOOP('',(#749,#750,#751,#752,#753,#754,#755,#756,#757,#758,#759,
#760,#761,#762,#763,#764));
#197=EDGE_LOOP('',(#765,#766,#767,#768));
#198=EDGE_LOOP('',(#769));
#199=EDGE_LOOP('',(#770,#771,#772,#773));
#200=EDGE_LOOP('',(#774,#775,#776,#777));
#201=EDGE_LOOP('',(#778,#779,#780,#781));
#202=EDGE_LOOP('',(#782,#783,#784,#785));
#203=EDGE_LOOP('',(#786,#787,#788,#789));
#204=EDGE_LOOP('',(#790,#791,#792,#793));
#205=EDGE_LOOP('',(#794));
#206=EDGE_LOOP('',(#795));
#207=EDGE_LOOP('',(#796));
#208=EDGE_LOOP('',(#797));
#209=EDGE_LOOP('',(#798));
#210=EDGE_LOOP('',(#799));
#211=LINE('',#1258,#264);
#212=LINE('',#1265,#265);
#213=LINE('',#1269,#266);
#214=LINE('',#1319,#267);
#215=LINE('',#1360,#268);
#216=LINE('',#1364,#269);
#217=LINE('',#1367,#270);
#218=LINE('',#1372,#271);
#219=LINE('',#1376,#272);
#220=LINE('',#1381,#273);
#221=LINE('',#1387,#274);
#222=LINE('',#1397,#275);
#223=LINE('',#1404,#276);
#224=LINE('',#1408,#277);
#225=LINE('',#1414,#278);
#226=LINE('',#1416,#279);
#227=LINE('',#1418,#280);
#228=LINE('',#1424,#281);
#229=LINE('',#1426,#282);
#230=LINE('',#1427,#283);
#231=LINE('',#1430,#284);
#232=LINE('',#1435,#285);
#233=LINE('',#1446,#286);
#234=LINE('',#1448,#287);
#235=LINE('',#1449,#288);
#236=LINE('',#1452,#289);
#237=LINE('',#1454,#290);
#238=LINE('',#1455,#291);
#239=LINE('',#1458,#292);
#240=LINE('',#1463,#293);
#241=LINE('',#1474,#294);
#242=LINE('',#1476,#295);
#243=LINE('',#1477,#296);
#244=LINE('',#1480,#297);
#245=LINE('',#1482,#298);
#246=LINE('',#1483,#299);
#247=LINE('',#1486,#300);
#248=LINE('',#1491,#301);
#249=LINE('',#1502,#302);
#250=LINE('',#1504,#303);
#251=LINE('',#1505,#304);
#252=LINE('',#1508,#305);
#253=LINE('',#1510,#306);
#254=LINE('',#1511,#307);
#255=LINE('',#1514,#308);
#256=LINE('',#1519,#309);
#257=LINE('',#1539,#310);
#258=LINE('',#1544,#311);
#259=LINE('',#1548,#312);
#260=LINE('',#1552,#313);
#261=LINE('',#1556,#314);
#262=LINE('',#1560,#315);
#263=LINE('',#1564,#316);
#264=VECTOR('',#997,1.05000001755286);
#265=VECTOR('',#1006,1.1);
#266=VECTOR('',#1011,1.15);
#267=VECTOR('',#1040,1.7);
#268=VECTOR('',#1047,0.11);
#269=VECTOR('',#1052,0.11);
#270=VECTOR('',#1055,1.75);
#271=VECTOR('',#1062,0.11);
#272=VECTOR('',#1067,0.11);
#273=VECTOR('',#1072,1.125);
#274=VECTOR('',#1079,1.387);
#275=VECTOR('',#1094,1.025);
#276=VECTOR('',#1103,1.25435782862597);
#277=VECTOR('',#1108,1.30000004148859);
#278=VECTOR('',#1115,0.393700787401575);
#279=VECTOR('',#1116,0.393700787401575);
#280=VECTOR('',#1117,0.393700787401575);
#281=VECTOR('',#1120,0.393700787401575);
#282=VECTOR('',#1121,0.393700787401575);
#283=VECTOR('',#1122,0.393700787401575);
#284=VECTOR('',#1125,0.393700787401575);
#285=VECTOR('',#1126,0.393700787401575);
#286=VECTOR('',#1135,0.393700787401575);
#287=VECTOR('',#1136,0.393700787401575);
#288=VECTOR('',#1137,0.393700787401575);
#289=VECTOR('',#1140,0.393700787401575);
#290=VECTOR('',#1141,0.393700787401575);
#291=VECTOR('',#1142,0.393700787401575);
#292=VECTOR('',#1145,0.393700787401575);
#293=VECTOR('',#1146,0.393700787401575);
#294=VECTOR('',#1155,0.393700787401575);
#295=VECTOR('',#1156,0.393700787401575);
#296=VECTOR('',#1157,0.393700787401575);
#297=VECTOR('',#1160,0.393700787401575);
#298=VECTOR('',#1161,0.393700787401575);
#299=VECTOR('',#1162,0.393700787401575);
#300=VECTOR('',#1165,0.393700787401575);
#301=VECTOR('',#1166,0.393700787401575);
#302=VECTOR('',#1175,0.393700787401575);
#303=VECTOR('',#1176,0.393700787401575);
#304=VECTOR('',#1177,0.393700787401575);
#305=VECTOR('',#1180,0.393700787401575);
#306=VECTOR('',#1181,0.393700787401575);
#307=VECTOR('',#1182,0.393700787401575);
#308=VECTOR('',#1185,0.393700787401575);
#309=VECTOR('',#1186,0.393700787401575);
#310=VECTOR('',#1211,0.677500022340008);
#311=VECTOR('',#1218,1.7);
#312=VECTOR('',#1223,1.75);
#313=VECTOR('',#1228,0.0885);
#314=VECTOR('',#1233,0.0885);
#315=VECTOR('',#1238,0.0885);
#316=VECTOR('',#1243,0.0884999999999998);
#317=CIRCLE('',#887,1.00000003510573);
#318=CIRCLE('',#888,1.1);
#319=CIRCLE('',#890,1.1);
#320=CIRCLE('',#891,1.1);
#321=CIRCLE('',#894,1.2);
#322=CIRCLE('',#896,1.65);
#323=CIRCLE('',#897,0.11);
#324=CIRCLE('',#898,0.11);
#325=CIRCLE('',#899,1.65);
#326=CIRCLE('',#900,0.11);
#327=CIRCLE('',#901,0.11);
#328=CIRCLE('',#902,1.65);
#329=CIRCLE('',#903,0.11);
#330=CIRCLE('',#904,1.65);
#331=CIRCLE('',#905,0.11);
#332=CIRCLE('',#906,0.11);
#333=CIRCLE('',#908,1.75);
#334=CIRCLE('',#910,0.11);
#335=CIRCLE('',#912,0.11);
#336=CIRCLE('',#914,1.75);
#337=CIRCLE('',#916,0.11);
#338=CIRCLE('',#918,0.11);
#339=CIRCLE('',#920,1.125);
#340=CIRCLE('',#921,1.125);
#341=CIRCLE('',#923,1.387);
#342=CIRCLE('',#924,1.387);
#343=CIRCLE('',#928,1.025);
#344=CIRCLE('',#930,1.025);
#345=CIRCLE('',#934,1.20000004148859);
#346=CIRCLE('',#935,1.30871561576335);
#347=CIRCLE('',#937,1.30874890784118);
#348=CIRCLE('',#943,1.39125117832742);
#349=CIRCLE('',#944,1.40000004468002);
#350=CIRCLE('',#949,1.39125117832742);
#351=CIRCLE('',#950,1.40000004468002);
#352=CIRCLE('',#955,1.39125117832742);
#353=CIRCLE('',#956,1.40000004468002);
#354=CIRCLE('',#961,1.39125117832742);
#355=CIRCLE('',#962,1.40000004468002);
#356=CIRCLE('',#965,1.65);
#357=CIRCLE('',#966,0.0884999999999998);
#358=CIRCLE('',#967,0.0885);
#359=CIRCLE('',#968,0.0885);
#360=CIRCLE('',#969,0.0885);
#361=CIRCLE('',#971,0.700000022340009);
#362=CIRCLE('',#972,0.655000022340009);
#363=CIRCLE('',#975,1.75);
#364=CIRCLE('',#977,1.75);
#365=CIRCLE('',#979,0.0885);
#366=CIRCLE('',#981,0.0885);
#367=CIRCLE('',#983,0.0885);
#368=CIRCLE('',#985,0.0884999999999998);
#369=VERTEX_POINT('',#1255);
#370=VERTEX_POINT('',#1257);
#371=VERTEX_POINT('',#1261);
#372=VERTEX_POINT('',#1262);
#373=VERTEX_POINT('',#1268);
#374=VERTEX_POINT('',#1272);
#375=VERTEX_POINT('',#1273);
#376=VERTEX_POINT('',#1275);
#377=VERTEX_POINT('',#1277);
#378=VERTEX_POINT('',#1279);
#379=VERTEX_POINT('',#1281);
#380=VERTEX_POINT('',#1283);
#381=VERTEX_POINT('',#1285);
#382=VERTEX_POINT('',#1287);
#383=VERTEX_POINT('',#1289);
#384=VERTEX_POINT('',#1291);
#385=VERTEX_POINT('',#1309);
#386=VERTEX_POINT('',#1318);
#387=VERTEX_POINT('',#1358);
#388=VERTEX_POINT('',#1362);
#389=VERTEX_POINT('',#1366);
#390=VERTEX_POINT('',#1370);
#391=VERTEX_POINT('',#1374);
#392=VERTEX_POINT('',#1378);
#393=VERTEX_POINT('',#1380);
#394=VERTEX_POINT('',#1384);
#395=VERTEX_POINT('',#1386);
#396=VERTEX_POINT('',#1392);
#397=VERTEX_POINT('',#1395);
#398=VERTEX_POINT('',#1401);
#399=VERTEX_POINT('',#1403);
#400=VERTEX_POINT('',#1407);
#401=VERTEX_POINT('',#1412);
#402=VERTEX_POINT('',#1413);
#403=VERTEX_POINT('',#1415);
#404=VERTEX_POINT('',#1417);
#405=VERTEX_POINT('',#1423);
#406=VERTEX_POINT('',#1425);
#407=VERTEX_POINT('',#1429);
#408=VERTEX_POINT('',#1431);
#409=VERTEX_POINT('',#1437);
#410=VERTEX_POINT('',#1439);
#411=VERTEX_POINT('',#1445);
#412=VERTEX_POINT('',#1447);
#413=VERTEX_POINT('',#1451);
#414=VERTEX_POINT('',#1453);
#415=VERTEX_POINT('',#1457);
#416=VERTEX_POINT('',#1459);
#417=VERTEX_POINT('',#1465);
#418=VERTEX_POINT('',#1467);
#419=VERTEX_POINT('',#1473);
#420=VERTEX_POINT('',#1475);
#421=VERTEX_POINT('',#1479);
#422=VERTEX_POINT('',#1481);
#423=VERTEX_POINT('',#1485);
#424=VERTEX_POINT('',#1487);
#425=VERTEX_POINT('',#1493);
#426=VERTEX_POINT('',#1495);
#427=VERTEX_POINT('',#1501);
#428=VERTEX_POINT('',#1503);
#429=VERTEX_POINT('',#1507);
#430=VERTEX_POINT('',#1509);
#431=VERTEX_POINT('',#1513);
#432=VERTEX_POINT('',#1515);
#433=VERTEX_POINT('',#1525);
#434=VERTEX_POINT('',#1527);
#435=VERTEX_POINT('',#1529);
#436=VERTEX_POINT('',#1531);
#437=VERTEX_POINT('',#1533);
#438=VERTEX_POINT('',#1536);
#439=VERTEX_POINT('',#1538);
#440=VERTEX_POINT('',#1543);
#441=VERTEX_POINT('',#1547);
#442=VERTEX_POINT('',#1551);
#443=VERTEX_POINT('',#1555);
#444=VERTEX_POINT('',#1559);
#445=VERTEX_POINT('',#1563);
#446=EDGE_CURVE('',#369,#369,#317,.T.);
#447=EDGE_CURVE('',#369,#370,#211,.T.);
#448=EDGE_CURVE('',#370,#370,#318,.T.);
#449=EDGE_CURVE('',#371,#372,#319,.T.);
#450=EDGE_CURVE('',#372,#371,#320,.T.);
#451=EDGE_CURVE('',#372,#370,#212,.T.);
#452=EDGE_CURVE('',#371,#373,#213,.T.);
#453=EDGE_CURVE('',#373,#373,#321,.T.);
#454=EDGE_CURVE('',#374,#375,#322,.T.);
#455=EDGE_CURVE('',#374,#376,#323,.T.);
#456=EDGE_CURVE('',#376,#377,#324,.T.);
#457=EDGE_CURVE('',#378,#377,#325,.T.);
#458=EDGE_CURVE('',#378,#379,#326,.T.);
#459=EDGE_CURVE('',#379,#380,#327,.T.);
#460=EDGE_CURVE('',#381,#380,#328,.T.);
#461=EDGE_CURVE('',#381,#382,#329,.T.);
#462=EDGE_CURVE('',#383,#382,#330,.T.);
#463=EDGE_CURVE('',#383,#384,#331,.T.);
#464=EDGE_CURVE('',#384,#375,#332,.T.);
#465=EDGE_CURVE('',#383,#375,#35,.T.);
#466=EDGE_CURVE('',#385,#382,#36,.T.);
#467=EDGE_CURVE('',#385,#386,#214,.T.);
#468=EDGE_CURVE('',#386,#386,#333,.T.);
#469=EDGE_CURVE('',#381,#385,#37,.T.);
#470=EDGE_CURVE('',#378,#380,#38,.T.);
#471=EDGE_CURVE('',#374,#377,#39,.T.);
#472=EDGE_CURVE('',#387,#387,#334,.T.);
#473=EDGE_CURVE('',#387,#376,#215,.T.);
#474=EDGE_CURVE('',#388,#388,#335,.T.);
#475=EDGE_CURVE('',#388,#379,#216,.T.);
#476=EDGE_CURVE('',#386,#389,#217,.T.);
#477=EDGE_CURVE('',#389,#389,#336,.T.);
#478=EDGE_CURVE('',#390,#390,#337,.T.);
#479=EDGE_CURVE('',#390,#384,#218,.T.);
#480=EDGE_CURVE('',#391,#391,#338,.T.);
#481=EDGE_CURVE('',#391,#385,#219,.T.);
#482=EDGE_CURVE('',#392,#392,#339,.T.);
#483=EDGE_CURVE('',#392,#393,#220,.T.);
#484=EDGE_CURVE('',#393,#393,#340,.T.);
#485=EDGE_CURVE('',#394,#394,#341,.T.);
#486=EDGE_CURVE('',#394,#395,#221,.T.);
#487=EDGE_CURVE('',#395,#395,#342,.T.);
#488=EDGE_CURVE('',#396,#396,#343,.T.);
#489=EDGE_CURVE('',#397,#397,#344,.T.);
#490=EDGE_CURVE('',#397,#396,#222,.T.);
#491=EDGE_CURVE('',#398,#398,#345,.T.);
#492=EDGE_CURVE('',#398,#399,#223,.T.);
#493=EDGE_CURVE('',#399,#399,#346,.T.);
#494=EDGE_CURVE('',#399,#400,#224,.T.);
#495=EDGE_CURVE('',#400,#400,#347,.T.);
#496=EDGE_CURVE('',#401,#402,#225,.T.);
#497=EDGE_CURVE('',#403,#402,#226,.T.);
#498=EDGE_CURVE('',#404,#403,#227,.T.);
#499=EDGE_CURVE('',#404,#401,#19,.T.);
#500=EDGE_CURVE('',#402,#405,#228,.T.);
#501=EDGE_CURVE('',#406,#405,#229,.T.);
#502=EDGE_CURVE('',#403,#406,#230,.T.);
#503=EDGE_CURVE('',#405,#407,#231,.T.);
#504=EDGE_CURVE('',#408,#407,#20,.T.);
#505=EDGE_CURVE('',#406,#408,#232,.T.);
#506=EDGE_CURVE('',#407,#409,#348,.T.);
#507=EDGE_CURVE('',#410,#409,#21,.T.);
#508=EDGE_CURVE('',#408,#410,#349,.T.);
#509=EDGE_CURVE('',#409,#411,#233,.T.);
#510=EDGE_CURVE('',#412,#411,#234,.T.);
#511=EDGE_CURVE('',#410,#412,#235,.T.);
#512=EDGE_CURVE('',#411,#413,#236,.T.);
#513=EDGE_CURVE('',#414,#413,#237,.T.);
#514=EDGE_CURVE('',#412,#414,#238,.T.);
#515=EDGE_CURVE('',#413,#415,#239,.T.);
#516=EDGE_CURVE('',#416,#415,#22,.T.);
#517=EDGE_CURVE('',#414,#416,#240,.T.);
#518=EDGE_CURVE('',#415,#417,#350,.T.);
#519=EDGE_CURVE('',#418,#417,#23,.T.);
#520=EDGE_CURVE('',#416,#418,#351,.T.);
#521=EDGE_CURVE('',#417,#419,#241,.T.);
#522=EDGE_CURVE('',#420,#419,#242,.T.);
#523=EDGE_CURVE('',#418,#420,#243,.T.);
#524=EDGE_CURVE('',#419,#421,#244,.T.);
#525=EDGE_CURVE('',#422,#421,#245,.T.);
#526=EDGE_CURVE('',#420,#422,#246,.T.);
#527=EDGE_CURVE('',#421,#423,#247,.T.);
#528=EDGE_CURVE('',#424,#423,#24,.T.);
#529=EDGE_CURVE('',#422,#424,#248,.T.);
#530=EDGE_CURVE('',#423,#425,#352,.T.);
#531=EDGE_CURVE('',#426,#425,#25,.T.);
#532=EDGE_CURVE('',#424,#426,#353,.T.);
#533=EDGE_CURVE('',#425,#427,#249,.T.);
#534=EDGE_CURVE('',#428,#427,#250,.T.);
#535=EDGE_CURVE('',#426,#428,#251,.T.);
#536=EDGE_CURVE('',#427,#429,#252,.T.);
#537=EDGE_CURVE('',#430,#429,#253,.T.);
#538=EDGE_CURVE('',#428,#430,#254,.T.);
#539=EDGE_CURVE('',#429,#431,#255,.T.);
#540=EDGE_CURVE('',#432,#431,#26,.T.);
#541=EDGE_CURVE('',#430,#432,#256,.T.);
#542=EDGE_CURVE('',#431,#401,#354,.T.);
#543=EDGE_CURVE('',#432,#404,#355,.T.);
#544=EDGE_CURVE('',#433,#433,#356,.T.);
#545=EDGE_CURVE('',#434,#434,#357,.T.);
#546=EDGE_CURVE('',#435,#435,#358,.T.);
#547=EDGE_CURVE('',#436,#436,#359,.T.);
#548=EDGE_CURVE('',#437,#437,#360,.T.);
#549=EDGE_CURVE('',#438,#438,#361,.T.);
#550=EDGE_CURVE('',#438,#439,#257,.T.);
#551=EDGE_CURVE('',#439,#439,#362,.T.);
#552=EDGE_CURVE('',#433,#440,#258,.T.);
#553=EDGE_CURVE('',#440,#440,#363,.T.);
#554=EDGE_CURVE('',#440,#441,#259,.T.);
#555=EDGE_CURVE('',#441,#441,#364,.T.);
#556=EDGE_CURVE('',#437,#442,#260,.T.);
#557=EDGE_CURVE('',#442,#442,#365,.T.);
#558=EDGE_CURVE('',#436,#443,#261,.T.);
#559=EDGE_CURVE('',#443,#443,#366,.T.);
#560=EDGE_CURVE('',#435,#444,#262,.T.);
#561=EDGE_CURVE('',#444,#444,#367,.T.);
#562=EDGE_CURVE('',#434,#445,#263,.T.);
#563=EDGE_CURVE('',#445,#445,#368,.T.);
#564=ORIENTED_EDGE('',*,*,#446,.T.);
#565=ORIENTED_EDGE('',*,*,#447,.T.);
#566=ORIENTED_EDGE('',*,*,#448,.T.);
#567=ORIENTED_EDGE('',*,*,#447,.F.);
#568=ORIENTED_EDGE('',*,*,#449,.F.);
#569=ORIENTED_EDGE('',*,*,#450,.F.);
#570=ORIENTED_EDGE('',*,*,#451,.T.);
#571=ORIENTED_EDGE('',*,*,#448,.F.);
#572=ORIENTED_EDGE('',*,*,#451,.F.);
#573=ORIENTED_EDGE('',*,*,#446,.F.);
#574=ORIENTED_EDGE('',*,*,#449,.T.);
#575=ORIENTED_EDGE('',*,*,#450,.T.);
#576=ORIENTED_EDGE('',*,*,#452,.T.);
#577=ORIENTED_EDGE('',*,*,#453,.T.);
#578=ORIENTED_EDGE('',*,*,#452,.F.);
#579=ORIENTED_EDGE('',*,*,#454,.F.);
#580=ORIENTED_EDGE('',*,*,#455,.T.);
#581=ORIENTED_EDGE('',*,*,#456,.T.);
#582=ORIENTED_EDGE('',*,*,#457,.F.);
#583=ORIENTED_EDGE('',*,*,#458,.T.);
#584=ORIENTED_EDGE('',*,*,#459,.T.);
#585=ORIENTED_EDGE('',*,*,#460,.F.);
#586=ORIENTED_EDGE('',*,*,#461,.T.);
#587=ORIENTED_EDGE('',*,*,#462,.F.);
#588=ORIENTED_EDGE('',*,*,#463,.T.);
#589=ORIENTED_EDGE('',*,*,#464,.T.);
#590=ORIENTED_EDGE('',*,*,#453,.F.);
#591=ORIENTED_EDGE('',*,*,#465,.F.);
#592=ORIENTED_EDGE('',*,*,#462,.T.);
#593=ORIENTED_EDGE('',*,*,#466,.F.);
#594=ORIENTED_EDGE('',*,*,#467,.T.);
#595=ORIENTED_EDGE('',*,*,#468,.T.);
#596=ORIENTED_EDGE('',*,*,#467,.F.);
#597=ORIENTED_EDGE('',*,*,#469,.F.);
#598=ORIENTED_EDGE('',*,*,#460,.T.);
#599=ORIENTED_EDGE('',*,*,#470,.F.);
#600=ORIENTED_EDGE('',*,*,#457,.T.);
#601=ORIENTED_EDGE('',*,*,#471,.F.);
#602=ORIENTED_EDGE('',*,*,#454,.T.);
#603=ORIENTED_EDGE('',*,*,#472,.F.);
#604=ORIENTED_EDGE('',*,*,#473,.T.);
#605=ORIENTED_EDGE('',*,*,#455,.F.);
#606=ORIENTED_EDGE('',*,*,#471,.T.);
#607=ORIENTED_EDGE('',*,*,#456,.F.);
#608=ORIENTED_EDGE('',*,*,#473,.F.);
#609=ORIENTED_EDGE('',*,*,#474,.F.);
#610=ORIENTED_EDGE('',*,*,#475,.T.);
#611=ORIENTED_EDGE('',*,*,#458,.F.);
#612=ORIENTED_EDGE('',*,*,#470,.T.);
#613=ORIENTED_EDGE('',*,*,#459,.F.);
#614=ORIENTED_EDGE('',*,*,#475,.F.);
#615=ORIENTED_EDGE('',*,*,#468,.F.);
#616=ORIENTED_EDGE('',*,*,#476,.T.);
#617=ORIENTED_EDGE('',*,*,#477,.F.);
#618=ORIENTED_EDGE('',*,*,#476,.F.);
#619=ORIENTED_EDGE('',*,*,#478,.F.);
#620=ORIENTED_EDGE('',*,*,#479,.T.);
#621=ORIENTED_EDGE('',*,*,#463,.F.);
#622=ORIENTED_EDGE('',*,*,#465,.T.);
#623=ORIENTED_EDGE('',*,*,#464,.F.);
#624=ORIENTED_EDGE('',*,*,#479,.F.);
#625=ORIENTED_EDGE('',*,*,#480,.F.);
#626=ORIENTED_EDGE('',*,*,#481,.T.);
#627=ORIENTED_EDGE('',*,*,#466,.T.);
#628=ORIENTED_EDGE('',*,*,#461,.F.);
#629=ORIENTED_EDGE('',*,*,#469,.T.);
#630=ORIENTED_EDGE('',*,*,#481,.F.);
#631=ORIENTED_EDGE('',*,*,#482,.F.);
#632=ORIENTED_EDGE('',*,*,#483,.T.);
#633=ORIENTED_EDGE('',*,*,#484,.T.);
#634=ORIENTED_EDGE('',*,*,#483,.F.);
#635=ORIENTED_EDGE('',*,*,#485,.F.);
#636=ORIENTED_EDGE('',*,*,#486,.T.);
#637=ORIENTED_EDGE('',*,*,#487,.T.);
#638=ORIENTED_EDGE('',*,*,#486,.F.);
#639=ORIENTED_EDGE('',*,*,#487,.F.);
#640=ORIENTED_EDGE('',*,*,#484,.F.);
#641=ORIENTED_EDGE('',*,*,#477,.T.);
#642=ORIENTED_EDGE('',*,*,#485,.T.);
#643=ORIENTED_EDGE('',*,*,#480,.T.);
#644=ORIENTED_EDGE('',*,*,#474,.T.);
#645=ORIENTED_EDGE('',*,*,#478,.T.);
#646=ORIENTED_EDGE('',*,*,#472,.T.);
#647=ORIENTED_EDGE('',*,*,#488,.F.);
#648=ORIENTED_EDGE('',*,*,#489,.F.);
#649=ORIENTED_EDGE('',*,*,#490,.T.);
#650=ORIENTED_EDGE('',*,*,#488,.T.);
#651=ORIENTED_EDGE('',*,*,#490,.F.);
#652=ORIENTED_EDGE('',*,*,#482,.T.);
#653=ORIENTED_EDGE('',*,*,#489,.T.);
#654=ORIENTED_EDGE('',*,*,#491,.T.);
#655=ORIENTED_EDGE('',*,*,#492,.T.);
#656=ORIENTED_EDGE('',*,*,#493,.T.);
#657=ORIENTED_EDGE('',*,*,#492,.F.);
#658=ORIENTED_EDGE('',*,*,#493,.F.);
#659=ORIENTED_EDGE('',*,*,#494,.T.);
#660=ORIENTED_EDGE('',*,*,#495,.F.);
#661=ORIENTED_EDGE('',*,*,#494,.F.);
#662=ORIENTED_EDGE('',*,*,#491,.F.);
#663=ORIENTED_EDGE('',*,*,#496,.T.);
#664=ORIENTED_EDGE('',*,*,#497,.F.);
#665=ORIENTED_EDGE('',*,*,#498,.F.);
#666=ORIENTED_EDGE('',*,*,#499,.T.);
#667=ORIENTED_EDGE('',*,*,#500,.T.);
#668=ORIENTED_EDGE('',*,*,#501,.F.);
#669=ORIENTED_EDGE('',*,*,#502,.F.);
#670=ORIENTED_EDGE('',*,*,#497,.T.);
#671=ORIENTED_EDGE('',*,*,#503,.T.);
#672=ORIENTED_EDGE('',*,*,#504,.F.);
#673=ORIENTED_EDGE('',*,*,#505,.F.);
#674=ORIENTED_EDGE('',*,*,#501,.T.);
#675=ORIENTED_EDGE('',*,*,#506,.T.);
#676=ORIENTED_EDGE('',*,*,#507,.F.);
#677=ORIENTED_EDGE('',*,*,#508,.F.);
#678=ORIENTED_EDGE('',*,*,#504,.T.);
#679=ORIENTED_EDGE('',*,*,#509,.T.);
#680=ORIENTED_EDGE('',*,*,#510,.F.);
#681=ORIENTED_EDGE('',*,*,#511,.F.);
#682=ORIENTED_EDGE('',*,*,#507,.T.);
#683=ORIENTED_EDGE('',*,*,#512,.T.);
#684=ORIENTED_EDGE('',*,*,#513,.F.);
#685=ORIENTED_EDGE('',*,*,#514,.F.);
#686=ORIENTED_EDGE('',*,*,#510,.T.);
#687=ORIENTED_EDGE('',*,*,#515,.T.);
#688=ORIENTED_EDGE('',*,*,#516,.F.);
#689=ORIENTED_EDGE('',*,*,#517,.F.);
#690=ORIENTED_EDGE('',*,*,#513,.T.);
#691=ORIENTED_EDGE('',*,*,#518,.T.);
#692=ORIENTED_EDGE('',*,*,#519,.F.);
#693=ORIENTED_EDGE('',*,*,#520,.F.);
#694=ORIENTED_EDGE('',*,*,#516,.T.);
#695=ORIENTED_EDGE('',*,*,#521,.T.);
#696=ORIENTED_EDGE('',*,*,#522,.F.);
#697=ORIENTED_EDGE('',*,*,#523,.F.);
#698=ORIENTED_EDGE('',*,*,#519,.T.);
#699=ORIENTED_EDGE('',*,*,#524,.T.);
#700=ORIENTED_EDGE('',*,*,#525,.F.);
#701=ORIENTED_EDGE('',*,*,#526,.F.);
#702=ORIENTED_EDGE('',*,*,#522,.T.);
#703=ORIENTED_EDGE('',*,*,#527,.T.);
#704=ORIENTED_EDGE('',*,*,#528,.F.);
#705=ORIENTED_EDGE('',*,*,#529,.F.);
#706=ORIENTED_EDGE('',*,*,#525,.T.);
#707=ORIENTED_EDGE('',*,*,#530,.T.);
#708=ORIENTED_EDGE('',*,*,#531,.F.);
#709=ORIENTED_EDGE('',*,*,#532,.F.);
#710=ORIENTED_EDGE('',*,*,#528,.T.);
#711=ORIENTED_EDGE('',*,*,#533,.T.);
#712=ORIENTED_EDGE('',*,*,#534,.F.);
#713=ORIENTED_EDGE('',*,*,#535,.F.);
#714=ORIENTED_EDGE('',*,*,#531,.T.);
#715=ORIENTED_EDGE('',*,*,#536,.T.);
#716=ORIENTED_EDGE('',*,*,#537,.F.);
#717=ORIENTED_EDGE('',*,*,#538,.F.);
#718=ORIENTED_EDGE('',*,*,#534,.T.);
#719=ORIENTED_EDGE('',*,*,#539,.T.);
#720=ORIENTED_EDGE('',*,*,#540,.F.);
#721=ORIENTED_EDGE('',*,*,#541,.F.);
#722=ORIENTED_EDGE('',*,*,#537,.T.);
#723=ORIENTED_EDGE('',*,*,#542,.T.);
#724=ORIENTED_EDGE('',*,*,#499,.F.);
#725=ORIENTED_EDGE('',*,*,#543,.F.);
#726=ORIENTED_EDGE('',*,*,#540,.T.);
#727=ORIENTED_EDGE('',*,*,#496,.F.);
#728=ORIENTED_EDGE('',*,*,#542,.F.);
#729=ORIENTED_EDGE('',*,*,#539,.F.);
#730=ORIENTED_EDGE('',*,*,#536,.F.);
#731=ORIENTED_EDGE('',*,*,#533,.F.);
#732=ORIENTED_EDGE('',*,*,#530,.F.);
#733=ORIENTED_EDGE('',*,*,#527,.F.);
#734=ORIENTED_EDGE('',*,*,#524,.F.);
#735=ORIENTED_EDGE('',*,*,#521,.F.);
#736=ORIENTED_EDGE('',*,*,#518,.F.);
#737=ORIENTED_EDGE('',*,*,#515,.F.);
#738=ORIENTED_EDGE('',*,*,#512,.F.);
#739=ORIENTED_EDGE('',*,*,#509,.F.);
#740=ORIENTED_EDGE('',*,*,#506,.F.);
#741=ORIENTED_EDGE('',*,*,#503,.F.);
#742=ORIENTED_EDGE('',*,*,#500,.F.);
#743=ORIENTED_EDGE('',*,*,#495,.T.);
#744=ORIENTED_EDGE('',*,*,#544,.F.);
#745=ORIENTED_EDGE('',*,*,#545,.T.);
#746=ORIENTED_EDGE('',*,*,#546,.T.);
#747=ORIENTED_EDGE('',*,*,#547,.T.);
#748=ORIENTED_EDGE('',*,*,#548,.T.);
#749=ORIENTED_EDGE('',*,*,#498,.T.);
#750=ORIENTED_EDGE('',*,*,#502,.T.);
#751=ORIENTED_EDGE('',*,*,#505,.T.);
#752=ORIENTED_EDGE('',*,*,#508,.T.);
#753=ORIENTED_EDGE('',*,*,#511,.T.);
#754=ORIENTED_EDGE('',*,*,#514,.T.);
#755=ORIENTED_EDGE('',*,*,#517,.T.);
#756=ORIENTED_EDGE('',*,*,#520,.T.);
#757=ORIENTED_EDGE('',*,*,#523,.T.);
#758=ORIENTED_EDGE('',*,*,#526,.T.);
#759=ORIENTED_EDGE('',*,*,#529,.T.);
#760=ORIENTED_EDGE('',*,*,#532,.T.);
#761=ORIENTED_EDGE('',*,*,#535,.T.);
#762=ORIENTED_EDGE('',*,*,#538,.T.);
#763=ORIENTED_EDGE('',*,*,#541,.T.);
#764=ORIENTED_EDGE('',*,*,#543,.T.);
#765=ORIENTED_EDGE('',*,*,#549,.F.);
#766=ORIENTED_EDGE('',*,*,#550,.T.);
#767=ORIENTED_EDGE('',*,*,#551,.T.);
#768=ORIENTED_EDGE('',*,*,#550,.F.);
#769=ORIENTED_EDGE('',*,*,#551,.F.);
#770=ORIENTED_EDGE('',*,*,#544,.T.);
#771=ORIENTED_EDGE('',*,*,#552,.T.);
#772=ORIENTED_EDGE('',*,*,#553,.T.);
#773=ORIENTED_EDGE('',*,*,#552,.F.);
#774=ORIENTED_EDGE('',*,*,#553,.F.);
#775=ORIENTED_EDGE('',*,*,#554,.T.);
#776=ORIENTED_EDGE('',*,*,#555,.T.);
#777=ORIENTED_EDGE('',*,*,#554,.F.);
#778=ORIENTED_EDGE('',*,*,#548,.F.);
#779=ORIENTED_EDGE('',*,*,#556,.T.);
#780=ORIENTED_EDGE('',*,*,#557,.T.);
#781=ORIENTED_EDGE('',*,*,#556,.F.);
#782=ORIENTED_EDGE('',*,*,#547,.F.);
#783=ORIENTED_EDGE('',*,*,#558,.T.);
#784=ORIENTED_EDGE('',*,*,#559,.T.);
#785=ORIENTED_EDGE('',*,*,#558,.F.);
#786=ORIENTED_EDGE('',*,*,#546,.F.);
#787=ORIENTED_EDGE('',*,*,#560,.T.);
#788=ORIENTED_EDGE('',*,*,#561,.T.);
#789=ORIENTED_EDGE('',*,*,#560,.F.);
#790=ORIENTED_EDGE('',*,*,#545,.F.);
#791=ORIENTED_EDGE('',*,*,#562,.T.);
#792=ORIENTED_EDGE('',*,*,#563,.T.);
#793=ORIENTED_EDGE('',*,*,#562,.F.);
#794=ORIENTED_EDGE('',*,*,#555,.F.);
#795=ORIENTED_EDGE('',*,*,#549,.T.);
#796=ORIENTED_EDGE('',*,*,#563,.F.);
#797=ORIENTED_EDGE('',*,*,#561,.F.);
#798=ORIENTED_EDGE('',*,*,#559,.F.);
#799=ORIENTED_EDGE('',*,*,#557,.F.);
#800=CONICAL_SURFACE('',#886,1.05000001755286,0.78539798786881);
#801=CONICAL_SURFACE('',#893,1.15,0.785398163397448);
#802=CONICAL_SURFACE('',#907,1.7,0.785398163397447);
#803=CONICAL_SURFACE('',#933,1.25435782862597,0.829031394697306);
#804=CONICAL_SURFACE('',#936,1.30000004148859,0.0872664625997165);
#805=CONICAL_SURFACE('',#942,1.40000004468002,0.0872664625997165);
#806=CONICAL_SURFACE('',#948,1.40000004468002,0.0872664625997165);
#807=CONICAL_SURFACE('',#954,1.40000004468002,0.0872664625997165);
#808=CONICAL_SURFACE('',#960,1.40000004468002,0.0872664625997165);
#809=CONICAL_SURFACE('',#970,0.677500022340009,0.785398163397448);
#810=CONICAL_SURFACE('',#974,1.7,0.785398163397449);
#811=ADVANCED_FACE('',(#96),#800,.T.);
#812=ADVANCED_FACE('',(#97),#82,.T.);
#813=ADVANCED_FACE('',(#98),#59,.T.);
#814=ADVANCED_FACE('',(#99),#801,.T.);
#815=ADVANCED_FACE('',(#100,#40),#60,.F.);
#816=ADVANCED_FACE('',(#101),#802,.T.);
#817=ADVANCED_FACE('',(#102),#83,.F.);
#818=ADVANCED_FACE('',(#103),#84,.F.);
#819=ADVANCED_FACE('',(#104),#85,.T.);
#820=ADVANCED_FACE('',(#105),#86,.F.);
#821=ADVANCED_FACE('',(#106),#87,.F.);
#822=ADVANCED_FACE('',(#107),#88,.T.);
#823=ADVANCED_FACE('',(#108),#89,.F.);
#824=ADVANCED_FACE('',(#109,#41),#61,.T.);
#825=ADVANCED_FACE('',(#110,#42,#43,#44,#45,#46),#62,.T.);
#826=ADVANCED_FACE('',(#111),#63,.F.);
#827=ADVANCED_FACE('',(#112),#90,.F.);
#828=ADVANCED_FACE('',(#113,#47),#64,.T.);
#829=ADVANCED_FACE('',(#114),#803,.F.);
#830=ADVANCED_FACE('',(#115),#804,.F.);
#831=ADVANCED_FACE('',(#116),#65,.T.);
#832=ADVANCED_FACE('',(#117),#66,.T.);
#833=ADVANCED_FACE('',(#118),#67,.T.);
#834=ADVANCED_FACE('',(#119),#68,.T.);
#835=ADVANCED_FACE('',(#120),#805,.T.);
#836=ADVANCED_FACE('',(#121),#69,.T.);
#837=ADVANCED_FACE('',(#122),#70,.T.);
#838=ADVANCED_FACE('',(#123),#71,.T.);
#839=ADVANCED_FACE('',(#124),#806,.T.);
#840=ADVANCED_FACE('',(#125),#72,.T.);
#841=ADVANCED_FACE('',(#126),#73,.T.);
#842=ADVANCED_FACE('',(#127),#74,.T.);
#843=ADVANCED_FACE('',(#128),#807,.T.);
#844=ADVANCED_FACE('',(#129),#75,.T.);
#845=ADVANCED_FACE('',(#130),#76,.T.);
#846=ADVANCED_FACE('',(#131),#77,.T.);
#847=ADVANCED_FACE('',(#132),#808,.T.);
#848=ADVANCED_FACE('',(#133,#48),#78,.T.);
#849=ADVANCED_FACE('',(#134,#49,#50,#51,#52,#53),#79,.T.);
#850=ADVANCED_FACE('',(#135),#809,.F.);
#851=ADVANCED_FACE('',(#136),#80,.T.);
#852=ADVANCED_FACE('',(#137),#810,.T.);
#853=ADVANCED_FACE('',(#138),#91,.T.);
#854=ADVANCED_FACE('',(#139),#92,.F.);
#855=ADVANCED_FACE('',(#140),#93,.F.);
#856=ADVANCED_FACE('',(#141),#94,.F.);
#857=ADVANCED_FACE('',(#142),#95,.F.);
#858=ADVANCED_FACE('',(#143,#54,#55,#56,#57,#58),#81,.F.);
#859=CLOSED_SHELL('',(#811,#812,#813,#814,#815,#816,#817,#818,#819,#820,
#821,#822,#823,#824,#825,#826,#827,#828));
#860=CLOSED_SHELL('',(#829,#830,#831,#832,#833,#834,#835,#836,#837,#838,
#839,#840,#841,#842,#843,#844,#845,#846,#847,#848,#849,#850,#851,#852,#853,
#854,#855,#856,#857,#858));
#861=DERIVED_UNIT_ELEMENT(#865,1.);
#862=DERIVED_UNIT_ELEMENT(#1580,-3.);
#863=DERIVED_UNIT_ELEMENT(#865,1.);
#864=DERIVED_UNIT_ELEMENT(#1580,-3.);
#865=(
MASS_UNIT()
NAMED_UNIT(*)
SI_UNIT(.KILO.,.GRAM.)
);
#866=DERIVED_UNIT((#861,#862));
#867=DERIVED_UNIT((#863,#864));
#868=MEASURE_REPRESENTATION_ITEM('density measure',
POSITIVE_RATIO_MEASURE(7850.),#866);
#869=MEASURE_REPRESENTATION_ITEM('density measure',
POSITIVE_RATIO_MEASURE(7850.),#867);
#870=PROPERTY_DEFINITION_REPRESENTATION(#880,#874);
#871=PROPERTY_DEFINITION_REPRESENTATION(#881,#875);
#872=PROPERTY_DEFINITION_REPRESENTATION(#882,#876);
#873=PROPERTY_DEFINITION_REPRESENTATION(#883,#877);
#874=REPRESENTATION('material name',(#878),#1574);
#875=REPRESENTATION('density',(#868),#1574);
#876=REPRESENTATION('material name',(#879),#1575);
#877=REPRESENTATION('density',(#869),#1575);
#878=DESCRIPTIVE_REPRESENTATION_ITEM('Steel','Steel');
#879=DESCRIPTIVE_REPRESENTATION_ITEM('Steel','Steel');
#880=PROPERTY_DEFINITION('material property','material name',#1597);
#881=PROPERTY_DEFINITION('material property','density of part',#1597);
#882=PROPERTY_DEFINITION('material property','material name',#1598);
#883=PROPERTY_DEFINITION('material property','density of part',#1598);
#884=AXIS2_PLACEMENT_3D('',#1252,#989,#990);
#885=AXIS2_PLACEMENT_3D('',#1253,#991,#992);
#886=AXIS2_PLACEMENT_3D('',#1254,#993,#994);
#887=AXIS2_PLACEMENT_3D('',#1256,#995,#996);
#888=AXIS2_PLACEMENT_3D('',#1259,#998,#999);
#889=AXIS2_PLACEMENT_3D('',#1260,#1000,#1001);
#890=AXIS2_PLACEMENT_3D('',#1263,#1002,#1003);
#891=AXIS2_PLACEMENT_3D('',#1264,#1004,#1005);
#892=AXIS2_PLACEMENT_3D('',#1266,#1007,#1008);
#893=AXIS2_PLACEMENT_3D('',#1267,#1009,#1010);
#894=AXIS2_PLACEMENT_3D('',#1270,#1012,#1013);
#895=AXIS2_PLACEMENT_3D('',#1271,#1014,#1015);
#896=AXIS2_PLACEMENT_3D('',#1274,#1016,#1017);
#897=AXIS2_PLACEMENT_3D('',#1276,#1018,#1019);
#898=AXIS2_PLACEMENT_3D('',#1278,#1020,#1021);
#899=AXIS2_PLACEMENT_3D('',#1280,#1022,#1023);
#900=AXIS2_PLACEMENT_3D('',#1282,#1024,#1025);
#901=AXIS2_PLACEMENT_3D('',#1284,#1026,#1027);
#902=AXIS2_PLACEMENT_3D('',#1286,#1028,#1029);
#903=AXIS2_PLACEMENT_3D('',#1288,#1030,#1031);
#904=AXIS2_PLACEMENT_3D('',#1290,#1032,#1033);
#905=AXIS2_PLACEMENT_3D('',#1292,#1034,#1035);
#906=AXIS2_PLACEMENT_3D('',#1293,#1036,#1037);
#907=AXIS2_PLACEMENT_3D('',#1294,#1038,#1039);
#908=AXIS2_PLACEMENT_3D('',#1320,#1041,#1042);
#909=AXIS2_PLACEMENT_3D('',#1357,#1043,#1044);
#910=AXIS2_PLACEMENT_3D('',#1359,#1045,#1046);
#911=AXIS2_PLACEMENT_3D('',#1361,#1048,#1049);
#912=AXIS2_PLACEMENT_3D('',#1363,#1050,#1051);
#913=AXIS2_PLACEMENT_3D('',#1365,#1053,#1054);
#914=AXIS2_PLACEMENT_3D('',#1368,#1056,#1057);
#915=AXIS2_PLACEMENT_3D('',#1369,#1058,#1059);
#916=AXIS2_PLACEMENT_3D('',#1371,#1060,#1061);
#917=AXIS2_PLACEMENT_3D('',#1373,#1063,#1064);
#918=AXIS2_PLACEMENT_3D('',#1375,#1065,#1066);
#919=AXIS2_PLACEMENT_3D('',#1377,#1068,#1069);
#920=AXIS2_PLACEMENT_3D('',#1379,#1070,#1071);
#921=AXIS2_PLACEMENT_3D('',#1382,#1073,#1074);
#922=AXIS2_PLACEMENT_3D('',#1383,#1075,#1076);
#923=AXIS2_PLACEMENT_3D('',#1385,#1077,#1078);
#924=AXIS2_PLACEMENT_3D('',#1388,#1080,#1081);
#925=AXIS2_PLACEMENT_3D('',#1389,#1082,#1083);
#926=AXIS2_PLACEMENT_3D('',#1390,#1084,#1085);
#927=AXIS2_PLACEMENT_3D('',#1391,#1086,#1087);
#928=AXIS2_PLACEMENT_3D('',#1393,#1088,#1089);
#929=AXIS2_PLACEMENT_3D('',#1394,#1090,#1091);
#930=AXIS2_PLACEMENT_3D('',#1396,#1092,#1093);
#931=AXIS2_PLACEMENT_3D('',#1398,#1095,#1096);
#932=AXIS2_PLACEMENT_3D('',#1399,#1097,#1098);
#933=AXIS2_PLACEMENT_3D('',#1400,#1099,#1100);
#934=AXIS2_PLACEMENT_3D('',#1402,#1101,#1102);
#935=AXIS2_PLACEMENT_3D('',#1405,#1104,#1105);
#936=AXIS2_PLACEMENT_3D('',#1406,#1106,#1107);
#937=AXIS2_PLACEMENT_3D('',#1409,#1109,#1110);
#938=AXIS2_PLACEMENT_3D('',#1410,#1111,#1112);
#939=AXIS2_PLACEMENT_3D('',#1411,#1113,#1114);
#940=AXIS2_PLACEMENT_3D('',#1422,#1118,#1119);
#941=AXIS2_PLACEMENT_3D('',#1428,#1123,#1124);
#942=AXIS2_PLACEMENT_3D('',#1436,#1127,#1128);
#943=AXIS2_PLACEMENT_3D('',#1438,#1129,#1130);
#944=AXIS2_PLACEMENT_3D('',#1443,#1131,#1132);
#945=AXIS2_PLACEMENT_3D('',#1444,#1133,#1134);
#946=AXIS2_PLACEMENT_3D('',#1450,#1138,#1139);
#947=AXIS2_PLACEMENT_3D('',#1456,#1143,#1144);
#948=AXIS2_PLACEMENT_3D('',#1464,#1147,#1148);
#949=AXIS2_PLACEMENT_3D('',#1466,#1149,#1150);
#950=AXIS2_PLACEMENT_3D('',#1471,#1151,#1152);
#951=AXIS2_PLACEMENT_3D('',#1472,#1153,#1154);
#952=AXIS2_PLACEMENT_3D('',#1478,#1158,#1159);
#953=AXIS2_PLACEMENT_3D('',#1484,#1163,#1164);
#954=AXIS2_PLACEMENT_3D('',#1492,#1167,#1168);
#955=AXIS2_PLACEMENT_3D('',#1494,#1169,#1170);
#956=AXIS2_PLACEMENT_3D('',#1499,#1171,#1172);
#957=AXIS2_PLACEMENT_3D('',#1500,#1173,#1174);
#958=AXIS2_PLACEMENT_3D('',#1506,#1178,#1179);
#959=AXIS2_PLACEMENT_3D('',#1512,#1183,#1184);
#960=AXIS2_PLACEMENT_3D('',#1520,#1187,#1188);
#961=AXIS2_PLACEMENT_3D('',#1521,#1189,#1190);
#962=AXIS2_PLACEMENT_3D('',#1522,#1191,#1192);
#963=AXIS2_PLACEMENT_3D('',#1523,#1193,#1194);
#964=AXIS2_PLACEMENT_3D('',#1524,#1195,#1196);
#965=AXIS2_PLACEMENT_3D('',#1526,#1197,#1198);
#966=AXIS2_PLACEMENT_3D('',#1528,#1199,#1200);
#967=AXIS2_PLACEMENT_3D('',#1530,#1201,#1202);
#968=AXIS2_PLACEMENT_3D('',#1532,#1203,#1204);
#969=AXIS2_PLACEMENT_3D('',#1534,#1205,#1206);
#970=AXIS2_PLACEMENT_3D('',#1535,#1207,#1208);
#971=AXIS2_PLACEMENT_3D('',#1537,#1209,#1210);
#972=AXIS2_PLACEMENT_3D('',#1540,#1212,#1213);
#973=AXIS2_PLACEMENT_3D('',#1541,#1214,#1215);
#974=AXIS2_PLACEMENT_3D('',#1542,#1216,#1217);
#975=AXIS2_PLACEMENT_3D('',#1545,#1219,#1220);
#976=AXIS2_PLACEMENT_3D('',#1546,#1221,#1222);
#977=AXIS2_PLACEMENT_3D('',#1549,#1224,#1225);
#978=AXIS2_PLACEMENT_3D('',#1550,#1226,#1227);
#979=AXIS2_PLACEMENT_3D('',#1553,#1229,#1230);
#980=AXIS2_PLACEMENT_3D('',#1554,#1231,#1232);
#981=AXIS2_PLACEMENT_3D('',#1557,#1234,#1235);
#982=AXIS2_PLACEMENT_3D('',#1558,#1236,#1237);
#983=AXIS2_PLACEMENT_3D('',#1561,#1239,#1240);
#984=AXIS2_PLACEMENT_3D('',#1562,#1241,#1242);
#985=AXIS2_PLACEMENT_3D('',#1565,#1244,#1245);
#986=AXIS2_PLACEMENT_3D('',#1566,#1246,#1247);
#987=AXIS2_PLACEMENT_3D('',#1567,#1248,#1249);
#988=AXIS2_PLACEMENT_3D('',#1568,#1250,#1251);
#989=DIRECTION('axis',(0.,0.,1.));
#990=DIRECTION('refdir',(1.,0.,0.));
#991=DIRECTION('axis',(0.,0.,1.));
#992=DIRECTION('refdir',(1.,0.,0.));
#993=DIRECTION('center_axis',(0.,0.,1.));
#994=DIRECTION('ref_axis',(1.,0.,0.));
#995=DIRECTION('center_axis',(0.,0.,1.));
#996=DIRECTION('ref_axis',(1.,0.,0.));
#997=DIRECTION('',(-0.707106657069047,8.65955904235393E-17,0.707106905304027));
#998=DIRECTION('center_axis',(0.,0.,-1.));
#999=DIRECTION('ref_axis',(1.,0.,0.));
#1000=DIRECTION('center_axis',(0.,0.,1.));
#1001=DIRECTION('ref_axis',(1.,0.,0.));
#1002=DIRECTION('center_axis',(0.,0.,1.));
#1003=DIRECTION('ref_axis',(-1.,0.,0.));
#1004=DIRECTION('center_axis',(0.,0.,1.));
#1005=DIRECTION('ref_axis',(-1.,0.,0.));
#1006=DIRECTION('',(0.,0.,-1.));
#1007=DIRECTION('center_axis',(0.,0.,-1.));
#1008=DIRECTION('ref_axis',(1.,0.,0.));
#1009=DIRECTION('center_axis',(0.,0.,1.));
#1010=DIRECTION('ref_axis',(-1.,0.,0.));
#1011=DIRECTION('',(0.707106781186547,-8.65956056235493E-17,0.707106781186547));
#1012=DIRECTION('center_axis',(0.,0.,-1.));
#1013=DIRECTION('ref_axis',(-1.,0.,0.));
#1014=DIRECTION('center_axis',(0.,0.,1.));
#1015=DIRECTION('ref_axis',(-1.,0.,0.));
#1016=DIRECTION('center_axis',(0.,0.,1.));
#1017=DIRECTION('ref_axis',(-1.,0.,0.));
#1018=DIRECTION('center_axis',(0.,0.,1.));
#1019=DIRECTION('ref_axis',(0.,-1.,0.));
#1020=DIRECTION('center_axis',(0.,0.,1.));
#1021=DIRECTION('ref_axis',(0.,-1.,0.));
#1022=DIRECTION('center_axis',(0.,0.,1.));
#1023=DIRECTION('ref_axis',(-1.,0.,0.));
#1024=DIRECTION('center_axis',(0.,0.,1.));
#1025=DIRECTION('ref_axis',(-1.,0.,0.));
#1026=DIRECTION('center_axis',(0.,0.,1.));
#1027=DIRECTION('ref_axis',(-1.,0.,0.));
#1028=DIRECTION('center_axis',(0.,0.,1.));
#1029=DIRECTION('ref_axis',(-1.,0.,0.));
#1030=DIRECTION('center_axis',(0.,0.,1.));
#1031=DIRECTION('ref_axis',(-1.,0.,0.));
#1032=DIRECTION('center_axis',(0.,0.,1.));
#1033=DIRECTION('ref_axis',(-1.,0.,0.));
#1034=DIRECTION('center_axis',(0.,0.,1.));
#1035=DIRECTION('ref_axis',(1.,0.,0.));
#1036=DIRECTION('center_axis',(0.,0.,1.));
#1037=DIRECTION('ref_axis',(1.,0.,0.));
#1038=DIRECTION('center_axis',(0.,0.,1.));
#1039=DIRECTION('ref_axis',(-1.,0.,0.));
#1040=DIRECTION('',(0.707106781186547,-8.65956056235493E-17,0.707106781186548));
#1041=DIRECTION('center_axis',(0.,0.,-1.));
#1042=DIRECTION('ref_axis',(-1.,0.,0.));
#1043=DIRECTION('center_axis',(0.,0.,-1.));
#1044=DIRECTION('ref_axis',(0.,-1.,0.));
#1045=DIRECTION('center_axis',(0.,0.,-1.));
#1046=DIRECTION('ref_axis',(0.,-1.,0.));
#1047=DIRECTION('',(0.,0.,-1.));
#1048=DIRECTION('center_axis',(0.,0.,-1.));
#1049=DIRECTION('ref_axis',(-1.,0.,0.));
#1050=DIRECTION('center_axis',(0.,0.,-1.));
#1051=DIRECTION('ref_axis',(-1.,0.,0.));
#1052=DIRECTION('',(0.,0.,-1.));
#1053=DIRECTION('center_axis',(0.,0.,-1.));
#1054=DIRECTION('ref_axis',(-1.,0.,0.));
#1055=DIRECTION('',(0.,0.,1.));
#1056=DIRECTION('center_axis',(0.,0.,1.));
#1057=DIRECTION('ref_axis',(-1.,0.,0.));
#1058=DIRECTION('center_axis',(0.,0.,-1.));
#1059=DIRECTION('ref_axis',(1.,0.,0.));
#1060=DIRECTION('center_axis',(0.,0.,-1.));
#1061=DIRECTION('ref_axis',(1.,0.,0.));
#1062=DIRECTION('',(0.,0.,-1.));
#1063=DIRECTION('center_axis',(0.,0.,-1.));
#1064=DIRECTION('ref_axis',(-1.,0.,0.));
#1065=DIRECTION('center_axis',(0.,0.,-1.));
#1066=DIRECTION('ref_axis',(-1.,0.,0.));
#1067=DIRECTION('',(0.,0.,-1.));
#1068=DIRECTION('center_axis',(0.,0.,-1.));
#1069=DIRECTION('ref_axis',(-1.,0.,0.));
#1070=DIRECTION('center_axis',(0.,0.,1.));
#1071=DIRECTION('ref_axis',(-1.,0.,0.));
#1072=DIRECTION('',(0.,0.,-1.));
#1073=DIRECTION('center_axis',(0.,0.,1.));
#1074=DIRECTION('ref_axis',(-1.,0.,0.));
#1075=DIRECTION('center_axis',(0.,0.,-1.));
#1076=DIRECTION('ref_axis',(-1.,0.,0.));
#1077=DIRECTION('center_axis',(0.,0.,-1.));
#1078=DIRECTION('ref_axis',(-1.,0.,0.));
#1079=DIRECTION('',(0.,0.,-1.));
#1080=DIRECTION('center_axis',(0.,0.,-1.));
#1081=DIRECTION('ref_axis',(-1.,0.,0.));
#1082=DIRECTION('center_axis',(0.,0.,1.));
#1083=DIRECTION('ref_axis',(-1.,0.,0.));
#1084=DIRECTION('center_axis',(0.,0.,1.));
#1085=DIRECTION('ref_axis',(1.,0.,0.));
#1086=DIRECTION('center_axis',(0.,0.,-1.));
#1087=DIRECTION('ref_axis',(1.,0.,0.));
#1088=DIRECTION('center_axis',(0.,0.,-1.));
#1089=DIRECTION('ref_axis',(1.,0.,0.));
#1090=DIRECTION('center_axis',(0.,0.,1.));
#1091=DIRECTION('ref_axis',(1.,0.,0.));
#1092=DIRECTION('center_axis',(0.,0.,-1.));
#1093=DIRECTION('ref_axis',(1.,0.,0.));
#1094=DIRECTION('',(0.,0.,-1.));
#1095=DIRECTION('center_axis',(0.,0.,1.));
#1096=DIRECTION('ref_axis',(1.,0.,0.));
#1097=DIRECTION('axis',(0.,0.,1.));
#1098=DIRECTION('refdir',(1.,0.,0.));
#1099=DIRECTION('center_axis',(0.,8.04418249218158E-16,1.));
#1100=DIRECTION('ref_axis',(-1.,-3.1942926357672E-17,0.));
#1101=DIRECTION('center_axis',(0.,0.,-1.));
#1102=DIRECTION('ref_axis',(-1.,0.,0.));
#1103=DIRECTION('',(0.737277336810124,4.76717454613188E-16,0.67559020761566));
#1104=DIRECTION('center_axis',(0.,0.,1.));
#1105=DIRECTION('ref_axis',(-1.,-6.12323399573677E-17,0.));
#1106=DIRECTION('center_axis',(0.,0.,1.));
#1107=DIRECTION('ref_axis',(-1.,0.,0.));
#1108=DIRECTION('',(0.0871557427476582,1.0673500138323E-17,0.996194698091746));
#1109=DIRECTION('center_axis',(4.25321689957683E-32,1.22279985862834E-31,
-1.));
#1110=DIRECTION('ref_axis',(-1.,0.,0.));
#1111=DIRECTION('center_axis',(0.,0.,1.));
#1112=DIRECTION('ref_axis',(-1.,0.,0.));
#1113=DIRECTION('center_axis',(0.704416026402759,0.704416026402759,0.0871557427476588));
#1114=DIRECTION('ref_axis',(-0.707106781186547,0.707106781186548,0.));
#1115=DIRECTION('',(0.707106781186547,-0.707106781186548,0.));
#1116=DIRECTION('',(-0.12279134661748,-6.9390941034493E-18,0.992432509138967));
#1117=DIRECTION('',(0.707106781186547,-0.707106781186548,0.));
#1118=DIRECTION('center_axis',(0.704416026402759,-0.704416026402759,0.0871557427476588));
#1119=DIRECTION('ref_axis',(0.707106781186548,0.707106781186548,0.));
#1120=DIRECTION('',(-0.707106781186547,-0.707106781186547,0.));
#1121=DIRECTION('',(-8.53508574724264E-16,0.122791346617479,0.992432509138967));
#1122=DIRECTION('',(-0.707106781186548,-0.707106781186548,0.));
#1123=DIRECTION('center_axis',(-0.704416026402758,-0.70441602640276,0.0871557427476577));
#1124=DIRECTION('ref_axis',(0.707106781186548,-0.707106781186547,0.));
#1125=DIRECTION('',(-0.707106781186548,0.707106781186547,0.));
#1126=DIRECTION('',(-0.707106781186548,0.707106781186547,0.));
#1127=DIRECTION('center_axis',(0.,0.,-1.));
#1128=DIRECTION('ref_axis',(-1.,0.,0.));
#1129=DIRECTION('center_axis',(0.,0.,-1.));
#1130=DIRECTION('ref_axis',(-1.,0.,0.));
#1131=DIRECTION('center_axis',(0.,0.,-1.));
#1132=DIRECTION('ref_axis',(-1.,0.,0.));
#1133=DIRECTION('center_axis',(0.704416026402758,-0.704416026402759,0.0871557427476612));
#1134=DIRECTION('ref_axis',(0.707106781186548,0.707106781186547,0.));
#1135=DIRECTION('',(-0.707106781186548,-0.707106781186547,0.));
#1136=DIRECTION('',(-1.73477352586233E-15,0.122791346617482,0.992432509138967));
#1137=DIRECTION('',(-0.707106781186548,-0.707106781186547,0.));
#1138=DIRECTION('center_axis',(-0.70441602640276,-0.704416026402757,0.0871557427476586));
#1139=DIRECTION('ref_axis',(0.707106781186546,-0.707106781186549,0.));
#1140=DIRECTION('',(-0.707106781186546,0.707106781186549,0.));
#1141=DIRECTION('',(0.122791346617479,6.52274845724234E-16,0.992432509138967));
#1142=DIRECTION('',(-0.707106781186546,0.707106781186549,0.));
#1143=DIRECTION('center_axis',(-0.70441602640276,0.704416026402758,0.0871557427476577));
#1144=DIRECTION('ref_axis',(-0.707106781186547,-0.707106781186548,0.));
#1145=DIRECTION('',(0.707106781186547,0.707106781186548,0.));
#1146=DIRECTION('',(0.707106781186547,0.707106781186548,0.));
#1147=DIRECTION('center_axis',(0.,0.,-1.));
#1148=DIRECTION('ref_axis',(-1.,0.,0.));
#1149=DIRECTION('center_axis',(0.,0.,-1.));
#1150=DIRECTION('ref_axis',(-1.,0.,0.));
#1151=DIRECTION('center_axis',(0.,0.,-1.));
#1152=DIRECTION('ref_axis',(-1.,0.,0.));
#1153=DIRECTION('center_axis',(-0.704416026402758,-0.704416026402759,0.0871557427476612));
#1154=DIRECTION('ref_axis',(0.707106781186548,-0.707106781186547,0.));
#1155=DIRECTION('',(-0.707106781186548,0.707106781186547,0.));
#1156=DIRECTION('',(0.122791346617482,1.74171261996577E-15,0.992432509138967));
#1157=DIRECTION('',(-0.707106781186548,0.707106781186547,0.));
#1158=DIRECTION('center_axis',(-0.704416026402759,0.704416026402759,0.0871557427476588));
#1159=DIRECTION('ref_axis',(-0.707106781186548,-0.707106781186548,0.));
#1160=DIRECTION('',(0.707106781186547,0.707106781186547,0.));
#1161=DIRECTION('',(-1.38781882068986E-17,-0.12279134661748,0.992432509138967));
#1162=DIRECTION('',(0.707106781186548,0.707106781186548,0.));
#1163=DIRECTION('center_axis',(0.704416026402758,0.70441602640276,0.0871557427476589));
#1164=DIRECTION('ref_axis',(-0.707106781186549,0.707106781186547,0.));
#1165=DIRECTION('',(0.707106781186549,-0.707106781186547,0.));
#1166=DIRECTION('',(0.707106781186549,-0.707106781186547,0.));
#1167=DIRECTION('center_axis',(0.,0.,-1.));
#1168=DIRECTION('ref_axis',(-1.,0.,0.));
#1169=DIRECTION('center_axis',(0.,0.,-1.));
#1170=DIRECTION('ref_axis',(-1.,0.,0.));
#1171=DIRECTION('center_axis',(0.,0.,-1.));
#1172=DIRECTION('ref_axis',(-1.,0.,0.));
#1173=DIRECTION('center_axis',(-0.704416026402759,0.704416026402759,0.0871557427476588));
#1174=DIRECTION('ref_axis',(-0.707106781186548,-0.707106781186547,0.));
#1175=DIRECTION('',(0.707106781186548,0.707106781186547,0.));
#1176=DIRECTION('',(6.9390941034493E-18,-0.12279134661748,0.992432509138967));
#1177=DIRECTION('',(0.707106781186548,0.707106781186547,0.));
#1178=DIRECTION('center_axis',(0.70441602640276,0.704416026402757,0.0871557427476586));
#1179=DIRECTION('ref_axis',(-0.707106781186546,0.707106781186549,0.));
#1180=DIRECTION('',(0.707106781186546,-0.707106781186549,0.));
#1181=DIRECTION('',(-0.122791346617479,-6.52274845724234E-16,0.992432509138967));
#1182=DIRECTION('',(0.707106781186546,-0.707106781186549,0.));
#1183=DIRECTION('center_axis',(0.70441602640276,-0.704416026402758,0.0871557427476577));
#1184=DIRECTION('ref_axis',(0.707106781186547,0.707106781186548,0.));
#1185=DIRECTION('',(-0.707106781186547,-0.707106781186548,0.));
#1186=DIRECTION('',(-0.707106781186547,-0.707106781186548,0.));
#1187=DIRECTION('center_axis',(0.,0.,-1.));
#1188=DIRECTION('ref_axis',(1.,-5.66553889764798E-16,0.));
#1189=DIRECTION('center_axis',(0.,0.,-1.));
#1190=DIRECTION('ref_axis',(-1.,0.,0.));
#1191=DIRECTION('center_axis',(0.,0.,-1.));
#1192=DIRECTION('ref_axis',(-1.,0.,0.));
#1193=DIRECTION('center_axis',(-4.25321689957683E-32,-1.22279985862834E-31,
1.));
#1194=DIRECTION('ref_axis',(1.,0.,4.25321689957683E-32));
#1195=DIRECTION('center_axis',(0.,0.,1.));
#1196=DIRECTION('ref_axis',(-1.,0.,0.));
#1197=DIRECTION('center_axis',(0.,0.,-1.));
#1198=DIRECTION('ref_axis',(-1.,0.,0.));
#1199=DIRECTION('center_axis',(0.,0.,-1.));
#1200=DIRECTION('ref_axis',(-1.,0.,0.));
#1201=DIRECTION('center_axis',(0.,0.,-1.));
#1202=DIRECTION('ref_axis',(-1.,0.,0.));
#1203=DIRECTION('center_axis',(0.,0.,-1.));
#1204=DIRECTION('ref_axis',(-1.,0.,0.));
#1205=DIRECTION('center_axis',(0.,0.,-1.));
#1206=DIRECTION('ref_axis',(-1.,0.,0.));
#1207=DIRECTION('center_axis',(0.,0.,-1.));
#1208=DIRECTION('ref_axis',(1.,0.,0.));
#1209=DIRECTION('center_axis',(0.,0.,1.));
#1210=DIRECTION('ref_axis',(1.,0.,0.));
#1211=DIRECTION('',(0.707106781186548,-8.65956056235493E-17,0.707106781186548));
#1212=DIRECTION('center_axis',(0.,0.,1.));
#1213=DIRECTION('ref_axis',(1.,0.,0.));
#1214=DIRECTION('center_axis',(0.,0.,-1.));
#1215=DIRECTION('ref_axis',(1.,0.,0.));
#1216=DIRECTION('center_axis',(0.,0.,-1.));
#1217=DIRECTION('ref_axis',(-1.,0.,0.));
#1218=DIRECTION('',(0.707106781186548,8.65956056235494E-17,-0.707106781186547));
#1219=DIRECTION('center_axis',(0.,0.,1.));
#1220=DIRECTION('ref_axis',(-1.,0.,0.));
#1221=DIRECTION('center_axis',(0.,0.,1.));
#1222=DIRECTION('ref_axis',(-1.,0.,0.));
#1223=DIRECTION('',(0.,0.,-1.));
#1224=DIRECTION('center_axis',(0.,0.,1.));
#1225=DIRECTION('ref_axis',(-1.,0.,0.));
#1226=DIRECTION('center_axis',(0.,0.,1.));
#1227=DIRECTION('ref_axis',(-1.,0.,0.));
#1228=DIRECTION('',(0.,0.,-1.));
#1229=DIRECTION('center_axis',(0.,0.,-1.));
#1230=DIRECTION('ref_axis',(-1.,0.,0.));
#1231=DIRECTION('center_axis',(0.,0.,1.));
#1232=DIRECTION('ref_axis',(-1.,0.,0.));
#1233=DIRECTION('',(0.,0.,-1.));
#1234=DIRECTION('center_axis',(0.,0.,-1.));
#1235=DIRECTION('ref_axis',(-1.,0.,0.));
#1236=DIRECTION('center_axis',(0.,0.,1.));
#1237=DIRECTION('ref_axis',(-1.,0.,0.));
#1238=DIRECTION('',(0.,0.,-1.));
#1239=DIRECTION('center_axis',(0.,0.,-1.));
#1240=DIRECTION('ref_axis',(-1.,0.,0.));
#1241=DIRECTION('center_axis',(0.,0.,1.));
#1242=DIRECTION('ref_axis',(-1.,0.,0.));
#1243=DIRECTION('',(0.,0.,-1.));
#1244=DIRECTION('center_axis',(0.,0.,-1.));
#1245=DIRECTION('ref_axis',(-1.,0.,0.));
#1246=DIRECTION('center_axis',(0.,0.,1.));
#1247=DIRECTION('ref_axis',(-1.,0.,0.));
#1248=DIRECTION('',(0.,0.,1.));
#1249=DIRECTION('',(1.,0.,0.));
#1250=DIRECTION('',(0.,0.,1.));
#1251=DIRECTION('',(1.,0.,0.));
#1252=CARTESIAN_POINT('',(0.,0.,0.));
#1253=CARTESIAN_POINT('',(0.,0.,0.));
#1254=CARTESIAN_POINT('Origin',(0.,0.,-0.0500000000000031));
#1255=CARTESIAN_POINT('',(-1.00000003510573,-1.22464684213947E-16,-0.1));
#1256=CARTESIAN_POINT('Origin',(0.,0.,-0.1));
#1257=CARTESIAN_POINT('',(-1.1,1.34711147906209E-16,-6.16304907370658E-15));
#1258=CARTESIAN_POINT('',(-1.05000001755286,1.28587916060078E-16,-0.0500000000000031));
#1259=CARTESIAN_POINT('Origin',(0.,0.,-6.16304907370658E-15));
#1260=CARTESIAN_POINT('Origin',(0.,0.,0.));
#1261=CARTESIAN_POINT('',(1.1,1.34711147906209E-16,0.4));
#1262=CARTESIAN_POINT('',(-1.1,-1.34711147906209E-16,0.4));
#1263=CARTESIAN_POINT('Origin',(0.,0.,0.4));
#1264=CARTESIAN_POINT('Origin',(0.,0.,0.4));
#1265=CARTESIAN_POINT('',(-1.1,-1.34711147906209E-16,0.));
#1266=CARTESIAN_POINT('Origin',(0.,0.,-0.1));
#1267=CARTESIAN_POINT('Origin',(0.,0.,0.45));
#1268=CARTESIAN_POINT('',(1.2,-1.46957615897682E-16,0.5));
#1269=CARTESIAN_POINT('',(1.15,-1.40834381901946E-16,0.45));
#1270=CARTESIAN_POINT('Origin',(0.,0.,0.5));
#1271=CARTESIAN_POINT('Origin',(0.,0.,0.5));
#1272=CARTESIAN_POINT('',(-1.64932258064516,-0.0472760507443814,0.5));
#1273=CARTESIAN_POINT('',(-0.047276050744382,-1.64932258064516,0.5));
#1274=CARTESIAN_POINT('Origin',(0.,0.,0.5));
#1275=CARTESIAN_POINT('',(-1.55,0.11,0.5));
#1276=CARTESIAN_POINT('Origin',(-1.55,3.44169137633799E-16,0.5));
#1277=CARTESIAN_POINT('',(-1.64932258064516,0.0472760507443821,0.5));
#1278=CARTESIAN_POINT('Origin',(-1.55,3.44169137633799E-16,0.5));
#1279=CARTESIAN_POINT('',(-0.0472760507443818,1.64932258064516,0.5));
#1280=CARTESIAN_POINT('Origin',(0.,0.,0.5));
#1281=CARTESIAN_POINT('',(0.11,1.55,0.5));
#1282=CARTESIAN_POINT('Origin',(0.,1.55,0.5));
#1283=CARTESIAN_POINT('',(0.0472760507443818,1.64932258064516,0.5));
#1284=CARTESIAN_POINT('Origin',(0.,1.55,0.5));
#1285=CARTESIAN_POINT('',(1.64932258064516,0.0472760507443813,0.5));
#1286=CARTESIAN_POINT('Origin',(0.,0.,0.5));
#1287=CARTESIAN_POINT('',(1.64932258064516,-0.047276050744382,0.5));
#1288=CARTESIAN_POINT('Origin',(1.55,-3.44169137633799E-16,0.5));
#1289=CARTESIAN_POINT('',(0.0472760507443816,-1.64932258064516,0.5));
#1290=CARTESIAN_POINT('Origin',(0.,0.,0.5));
#1291=CARTESIAN_POINT('',(-0.11,-1.55,0.5));
#1292=CARTESIAN_POINT('Origin',(-1.8982025386784E-16,-1.55,0.5));
#1293=CARTESIAN_POINT('Origin',(-1.8982025386784E-16,-1.55,0.5));
#1294=CARTESIAN_POINT('Origin',(0.,0.,0.55));
#1295=CARTESIAN_POINT('Ctrl Pts',(0.0472760507443816,-1.64932258064516,
0.5));
#1296=CARTESIAN_POINT('Ctrl Pts',(0.0467923747121282,-1.64955280314337,
0.500216269619529));
#1297=CARTESIAN_POINT('Ctrl Pts',(0.0463062253345903,-1.64977986903349,
0.500429531429764));
#1298=CARTESIAN_POINT('Ctrl Pts',(0.0388462236406311,-1.65319774286935,
0.503639016900051));
#1299=CARTESIAN_POINT('Ctrl Pts',(0.0313658699999255,-1.65573006087441,
0.506008972865938));
#1300=CARTESIAN_POINT('Ctrl Pts',(0.0159035684991893,-1.65913175561232,
0.50918985408513));
#1301=CARTESIAN_POINT('Ctrl Pts',(0.0079212112330061,-1.66,0.51));
#1302=CARTESIAN_POINT('Ctrl Pts',(-0.00792121123300647,-1.66,0.51));
#1303=CARTESIAN_POINT('Ctrl Pts',(-0.0159035684991895,-1.65913175561232,
0.50918985408513));
#1304=CARTESIAN_POINT('Ctrl Pts',(-0.0313658699999257,-1.65573006087441,
0.506008972865938));
#1305=CARTESIAN_POINT('Ctrl Pts',(-0.0388462236406314,-1.65319774286935,
0.503639016900051));
#1306=CARTESIAN_POINT('Ctrl Pts',(-0.0463062253345906,-1.64977986903349,
0.500429531429764));
#1307=CARTESIAN_POINT('Ctrl Pts',(-0.0467923747121286,-1.64955280314337,
0.500216269619529));
#1308=CARTESIAN_POINT('Ctrl Pts',(-0.047276050744382,-1.64932258064516,
0.5));
#1309=CARTESIAN_POINT('',(1.66,-2.62141753957006E-16,0.51));
#1310=CARTESIAN_POINT('Ctrl Pts',(1.66,-3.19626215258719E-16,0.51));
#1311=CARTESIAN_POINT('Ctrl Pts',(1.66,-0.0079212112330066,0.51));
#1312=CARTESIAN_POINT('Ctrl Pts',(1.65913175561233,-0.0159035684991899,
0.509189854085131));
#1313=CARTESIAN_POINT('Ctrl Pts',(1.65573006087441,-0.0313658699999262,
0.506008972865938));
#1314=CARTESIAN_POINT('Ctrl Pts',(1.65319774286935,-0.0388462236406317,
0.50363901690005));
#1315=CARTESIAN_POINT('Ctrl Pts',(1.64977986903349,-0.0463062253345908,
0.500429531429764));
#1316=CARTESIAN_POINT('Ctrl Pts',(1.64955280314337,-0.0467923747121287,
0.500216269619529));
#1317=CARTESIAN_POINT('Ctrl Pts',(1.64932258064516,-0.0472760507443821,
0.5));
#1318=CARTESIAN_POINT('',(1.75,-2.14313189850787E-16,0.6));
#1319=CARTESIAN_POINT('',(1.7,-2.0818995585505E-16,0.55));
#1320=CARTESIAN_POINT('Origin',(0.,0.,0.6));
#1321=CARTESIAN_POINT('Ctrl Pts',(1.64932258064516,0.0472760507443813,0.5));
#1322=CARTESIAN_POINT('Ctrl Pts',(1.64955280314337,0.046792374712128,0.500216269619529));
#1323=CARTESIAN_POINT('Ctrl Pts',(1.64977986903349,0.0463062253345901,0.500429531429764));
#1324=CARTESIAN_POINT('Ctrl Pts',(1.65319774286935,0.038846223640631,0.503639016900051));
#1325=CARTESIAN_POINT('Ctrl Pts',(1.65573006087441,0.0313658699999253,0.506008972865938));
#1326=CARTESIAN_POINT('Ctrl Pts',(1.65913175561232,0.0159035684991891,0.50918985408513));
#1327=CARTESIAN_POINT('Ctrl Pts',(1.66,0.00792121123300595,0.51));
#1328=CARTESIAN_POINT('Ctrl Pts',(1.66,-3.34651379223872E-16,0.51));
#1329=CARTESIAN_POINT('Ctrl Pts',(-0.0472760507443818,1.64932258064516,
0.5));
#1330=CARTESIAN_POINT('Ctrl Pts',(-0.0467923747121284,1.64955280314337,
0.500216269619529));
#1331=CARTESIAN_POINT('Ctrl Pts',(-0.0463062253345905,1.64977986903349,
0.500429531429764));
#1332=CARTESIAN_POINT('Ctrl Pts',(-0.0388462236406313,1.65319774286935,
0.503639016900051));
#1333=CARTESIAN_POINT('Ctrl Pts',(-0.0313658699999254,1.65573006087441,
0.506008972865938));
#1334=CARTESIAN_POINT('Ctrl Pts',(-0.0159035684991892,1.65913175561232,
0.50918985408513));
#1335=CARTESIAN_POINT('Ctrl Pts',(-0.00792121123300628,1.66,0.51));
#1336=CARTESIAN_POINT('Ctrl Pts',(0.00792121123300628,1.66,0.51));
#1337=CARTESIAN_POINT('Ctrl Pts',(0.0159035684991893,1.65913175561232,0.50918985408513));
#1338=CARTESIAN_POINT('Ctrl Pts',(0.0313658699999255,1.65573006087441,0.506008972865938));
#1339=CARTESIAN_POINT('Ctrl Pts',(0.0388462236406312,1.65319774286935,0.503639016900051));
#1340=CARTESIAN_POINT('Ctrl Pts',(0.0463062253345904,1.64977986903349,0.500429531429764));
#1341=CARTESIAN_POINT('Ctrl Pts',(0.0467923747121284,1.64955280314337,0.500216269619529));
#1342=CARTESIAN_POINT('Ctrl Pts',(0.0472760507443818,1.64932258064516,0.5));
#1343=CARTESIAN_POINT('Ctrl Pts',(-1.64932258064516,-0.0472760507443814,
0.5));
#1344=CARTESIAN_POINT('Ctrl Pts',(-1.64955280314337,-0.046792374712128,
0.500216269619529));
#1345=CARTESIAN_POINT('Ctrl Pts',(-1.64977986903349,-0.0463062253345901,
0.500429531429764));
#1346=CARTESIAN_POINT('Ctrl Pts',(-1.65319774286935,-0.0388462236406309,
0.503639016900051));
#1347=CARTESIAN_POINT('Ctrl Pts',(-1.65573006087441,-0.0313658699999252,
0.506008972865938));
#1348=CARTESIAN_POINT('Ctrl Pts',(-1.65913175561232,-0.0159035684991889,
0.50918985408513));
#1349=CARTESIAN_POINT('Ctrl Pts',(-1.66,-0.00792121123300594,0.51));
#1350=CARTESIAN_POINT('Ctrl Pts',(-1.66,0.00792121123300661,0.51));
#1351=CARTESIAN_POINT('Ctrl Pts',(-1.65913175561232,0.0159035684991896,
0.50918985408513));
#1352=CARTESIAN_POINT('Ctrl Pts',(-1.65573006087441,0.0313658699999258,
0.506008972865938));
#1353=CARTESIAN_POINT('Ctrl Pts',(-1.65319774286935,0.0388462236406316,
0.503639016900051));
#1354=CARTESIAN_POINT('Ctrl Pts',(-1.64977986903349,0.0463062253345908,
0.500429531429764));
#1355=CARTESIAN_POINT('Ctrl Pts',(-1.64955280314337,0.0467923747121287,
0.500216269619529));
#1356=CARTESIAN_POINT('Ctrl Pts',(-1.64932258064516,0.0472760507443821,
0.5));
#1357=CARTESIAN_POINT('Origin',(-1.55,3.44169137633799E-16,0.75));
#1358=CARTESIAN_POINT('',(-1.55,0.11,0.75));
#1359=CARTESIAN_POINT('Origin',(-1.55,3.44169137633799E-16,0.75));
#1360=CARTESIAN_POINT('',(-1.55,0.11,0.75));
#1361=CARTESIAN_POINT('Origin',(0.,1.55,0.75));
#1362=CARTESIAN_POINT('',(0.11,1.55,0.75));
#1363=CARTESIAN_POINT('Origin',(0.,1.55,0.75));
#1364=CARTESIAN_POINT('',(0.11,1.55,0.75));
#1365=CARTESIAN_POINT('Origin',(0.,0.,0.75));
#1366=CARTESIAN_POINT('',(1.75,2.14313189850787E-16,0.75));
#1367=CARTESIAN_POINT('',(1.75,-2.14313189850787E-16,0.75));
#1368=CARTESIAN_POINT('Origin',(0.,0.,0.75));
#1369=CARTESIAN_POINT('Origin',(-1.8982025386784E-16,-1.55,0.75));
#1370=CARTESIAN_POINT('',(-0.11,-1.55,0.75));
#1371=CARTESIAN_POINT('Origin',(-1.8982025386784E-16,-1.55,0.75));
#1372=CARTESIAN_POINT('',(-0.11,-1.55,0.75));
#1373=CARTESIAN_POINT('Origin',(1.55,-3.44169137633799E-16,0.75));
#1374=CARTESIAN_POINT('',(1.66,-3.30698022843178E-16,0.75));
#1375=CARTESIAN_POINT('Origin',(1.55,-3.44169137633799E-16,0.75));
#1376=CARTESIAN_POINT('',(1.66,-3.57640252424419E-16,0.75));
#1377=CARTESIAN_POINT('Origin',(0.,0.,0.75));
#1378=CARTESIAN_POINT('',(1.125,1.37772764904077E-16,0.75));
#1379=CARTESIAN_POINT('Origin',(0.,0.,0.75));
#1380=CARTESIAN_POINT('',(1.125,1.37772764904077E-16,0.609));
#1381=CARTESIAN_POINT('',(1.125,-1.37772764904077E-16,0.75));
#1382=CARTESIAN_POINT('Origin',(0.,0.,0.609));
#1383=CARTESIAN_POINT('Origin',(0.,0.,0.75));
#1384=CARTESIAN_POINT('',(1.387,1.69858511041738E-16,0.75));
#1385=CARTESIAN_POINT('Origin',(0.,0.,0.75));
#1386=CARTESIAN_POINT('',(1.387,1.69858511041738E-16,0.609));
#1387=CARTESIAN_POINT('',(1.387,-1.69858511041738E-16,0.75));
#1388=CARTESIAN_POINT('Origin',(0.,0.,0.609));
#1389=CARTESIAN_POINT('Origin',(0.,0.,0.609));
#1390=CARTESIAN_POINT('Origin',(0.,0.,0.75));
#1391=CARTESIAN_POINT('Origin',(0.,0.,0.));
#1392=CARTESIAN_POINT('',(-1.025,-1.25526296912604E-16,0.));
#1393=CARTESIAN_POINT('Origin',(0.,0.,0.));
#1394=CARTESIAN_POINT('Origin',(0.,0.,0.));
#1395=CARTESIAN_POINT('',(-1.025,-1.25526296912604E-16,0.75));
#1396=CARTESIAN_POINT('Origin',(0.,0.,0.75));
#1397=CARTESIAN_POINT('',(-1.025,-1.25526296912604E-16,0.));
#1398=CARTESIAN_POINT('Origin',(0.,0.,0.75));
#1399=CARTESIAN_POINT('',(0.,0.,0.));
#1400=CARTESIAN_POINT('Origin',(0.,4.00678597459687E-17,0.999809734904587));
#1401=CARTESIAN_POINT('',(1.20000004148859,-1.46957620978569E-16,0.95));
#1402=CARTESIAN_POINT('Origin',(0.,0.,0.95));
#1403=CARTESIAN_POINT('',(1.30871561576335,3.2054287796775E-16,1.04961946980917));
#1404=CARTESIAN_POINT('',(1.25435782862597,-7.34788104892845E-17,0.999809734904587));
#1405=CARTESIAN_POINT('Origin',(0.,8.01357194919374E-17,1.04961946980917));
#1406=CARTESIAN_POINT('Origin',(0.,0.,0.95));
#1407=CARTESIAN_POINT('',(1.30874890784118,-1.6027551608753E-16,1.05));
#1408=CARTESIAN_POINT('',(1.30000004148859,1.59204088970042E-16,0.95));
#1409=CARTESIAN_POINT('Origin',(0.,0.,1.05));
#1410=CARTESIAN_POINT('Origin',(0.,0.,0.95));
#1411=CARTESIAN_POINT('Origin',(1.03868602981319,-0.938686026621764,0.95));
#1412=CARTESIAN_POINT('',(1.02660061888599,-0.938973381145787,1.05));
#1413=CARTESIAN_POINT('',(1.18762727284593,-1.10000003510573,1.05));
#1414=CARTESIAN_POINT('',(0.493813633231536,-0.406186395491332,1.05));
#1415=CARTESIAN_POINT('',(1.20000003829716,-1.10000003510573,0.95));
#1416=CARTESIAN_POINT('',(1.19878391499024,-1.10000003510573,0.959829033870483));
#1417=CARTESIAN_POINT('',(1.03868602981319,-0.938686026621764,0.95));
#1418=CARTESIAN_POINT('',(0.544343015704454,-0.444343012513025,0.95));
#1419=CARTESIAN_POINT('Ctrl Pts',(1.03868602981319,-0.938686026621764,0.949999999999999));
#1420=CARTESIAN_POINT('Ctrl Pts',(1.03263406892204,-0.938838959309989,1.00014960967167));
#1421=CARTESIAN_POINT('Ctrl Pts',(1.02660061888599,-0.938973381145787,1.05000000000001));
#1422=CARTESIAN_POINT('Origin',(1.20000003829716,-1.10000003510573,0.95));
#1423=CARTESIAN_POINT('',(1.10000003510573,-1.18762727284593,1.05));
#1424=CARTESIAN_POINT('',(1.19381365557154,-1.09381365238011,1.05));
#1425=CARTESIAN_POINT('',(1.10000003510573,-1.20000003829716,0.95));
#1426=CARTESIAN_POINT('',(1.10000003510573,-1.19924615253289,0.956093106405664));
#1427=CARTESIAN_POINT('',(1.1750000374993,-1.12500003590359,0.95));
#1428=CARTESIAN_POINT('Origin',(1.10000003510573,-1.20000003829716,0.95));
#1429=CARTESIAN_POINT('',(0.938973381145786,-1.02660061888599,1.05));
#1430=CARTESIAN_POINT('',(0.406186395491331,-0.493813633231537,1.05));
#1431=CARTESIAN_POINT('',(0.938686026621764,-1.03868602981319,0.95));
#1432=CARTESIAN_POINT('Ctrl Pts',(0.938686026621763,-1.03868602981319,0.949999999999999));
#1433=CARTESIAN_POINT('Ctrl Pts',(0.938838959309985,-1.0326340689222,1.00014960967035));
#1434=CARTESIAN_POINT('Ctrl Pts',(0.938973381145786,-1.02660061888599,1.05000000000001));
#1435=CARTESIAN_POINT('',(0.525000016755005,-0.625000019946437,0.95));
#1436=CARTESIAN_POINT('Origin',(0.,0.,0.95));
#1437=CARTESIAN_POINT('',(-0.938973381145787,-1.02660061888599,1.05));
#1438=CARTESIAN_POINT('Origin',(0.,0.,1.05));
#1439=CARTESIAN_POINT('',(-0.938686026621764,-1.03868602981319,0.95));
#1440=CARTESIAN_POINT('Ctrl Pts',(-0.938686026621763,-1.03868602981319,
0.949999999999999));
#1441=CARTESIAN_POINT('Ctrl Pts',(-0.938838959309982,-1.03263406892234,
1.00014960966914));
#1442=CARTESIAN_POINT('Ctrl Pts',(-0.938973381145787,-1.02660061888599,
1.05000000000001));
#1443=CARTESIAN_POINT('Origin',(0.,0.,0.95));
#1444=CARTESIAN_POINT('Origin',(-0.938686026621764,-1.03868602981319,0.95));
#1445=CARTESIAN_POINT('',(-1.10000003510573,-1.18762727284593,1.05));
#1446=CARTESIAN_POINT('',(-0.406186395491332,-0.493813633231536,1.05));
#1447=CARTESIAN_POINT('',(-1.10000003510573,-1.20000003829716,0.95));
#1448=CARTESIAN_POINT('',(-1.10000003510573,-1.19878391499024,0.959829033870483));
#1449=CARTESIAN_POINT('',(-0.444343012513025,-0.544343015704454,0.95));
#1450=CARTESIAN_POINT('Origin',(-1.10000003510573,-1.20000003829716,0.95));
#1451=CARTESIAN_POINT('',(-1.18762727284593,-1.10000003510573,1.05));
#1452=CARTESIAN_POINT('',(-1.09381365238012,-1.19381365557154,1.05));
#1453=CARTESIAN_POINT('',(-1.20000003829716,-1.10000003510573,0.95));
#1454=CARTESIAN_POINT('',(-1.19924615253289,-1.10000003510573,0.956093106405664));
#1455=CARTESIAN_POINT('',(-1.12500003590359,-1.1750000374993,0.95));
#1456=CARTESIAN_POINT('Origin',(-1.20000003829716,-1.10000003510573,0.95));
#1457=CARTESIAN_POINT('',(-1.02660061888599,-0.938973381145786,1.05));
#1458=CARTESIAN_POINT('',(-0.493813633231537,-0.406186395491331,1.05));
#1459=CARTESIAN_POINT('',(-1.03868602981319,-0.938686026621764,0.95));
#1460=CARTESIAN_POINT('Ctrl Pts',(-1.03868602981319,-0.938686026621763,
0.949999999999999));
#1461=CARTESIAN_POINT('Ctrl Pts',(-1.0326340689221,-0.938838959309987,1.00014960967114));
#1462=CARTESIAN_POINT('Ctrl Pts',(-1.02660061888599,-0.938973381145786,
1.05000000000001));
#1463=CARTESIAN_POINT('',(-0.625000019946437,-0.525000016755005,0.95));
#1464=CARTESIAN_POINT('Origin',(0.,0.,0.95));
#1465=CARTESIAN_POINT('',(-1.02660061888599,0.938973381145787,1.05));
#1466=CARTESIAN_POINT('Origin',(0.,0.,1.05));
#1467=CARTESIAN_POINT('',(-1.03868602981319,0.938686026621764,0.95));
#1468=CARTESIAN_POINT('Ctrl Pts',(-1.03868602981319,0.938686026621764,0.949999999999999));
#1469=CARTESIAN_POINT('Ctrl Pts',(-1.03263406892226,0.938838959309984,1.00014960966982));
#1470=CARTESIAN_POINT('Ctrl Pts',(-1.02660061888599,0.938973381145787,1.05000000000001));
#1471=CARTESIAN_POINT('Origin',(0.,0.,0.95));
#1472=CARTESIAN_POINT('Origin',(-1.03868602981319,0.938686026621764,0.95));
#1473=CARTESIAN_POINT('',(-1.18762727284593,1.10000003510573,1.05));
#1474=CARTESIAN_POINT('',(-0.493813633231536,0.406186395491332,1.05));
#1475=CARTESIAN_POINT('',(-1.20000003829716,1.10000003510573,0.95));
#1476=CARTESIAN_POINT('',(-1.19878391499024,1.10000003510573,0.959829033870483));
#1477=CARTESIAN_POINT('',(-0.544343015704454,0.444343012513024,0.95));
#1478=CARTESIAN_POINT('Origin',(-1.20000003829716,1.10000003510573,0.95));
#1479=CARTESIAN_POINT('',(-1.10000003510573,1.18762727284593,1.05));
#1480=CARTESIAN_POINT('',(-1.19381365557154,1.09381365238011,1.05));
#1481=CARTESIAN_POINT('',(-1.10000003510573,1.20000003829716,0.95));
#1482=CARTESIAN_POINT('',(-1.10000003510573,1.19924615253289,0.956093106405664));
#1483=CARTESIAN_POINT('',(-1.1750000374993,1.12500003590359,0.95));
#1484=CARTESIAN_POINT('Origin',(-1.10000003510573,1.20000003829716,0.95));
#1485=CARTESIAN_POINT('',(-0.938973381145786,1.02660061888599,1.05));
#1486=CARTESIAN_POINT('',(-0.406186395491331,0.493813633231537,1.05));
#1487=CARTESIAN_POINT('',(-0.938686026621764,1.03868602981319,0.95));
#1488=CARTESIAN_POINT('Ctrl Pts',(-0.938686026621763,1.03868602981319,0.949999999999999));
#1489=CARTESIAN_POINT('Ctrl Pts',(-0.938838959309984,1.03263406892224,1.00014960966997));
#1490=CARTESIAN_POINT('Ctrl Pts',(-0.938973381145786,1.02660061888599,1.05000000000001));
#1491=CARTESIAN_POINT('',(-0.525000016755006,0.625000019946437,0.95));
#1492=CARTESIAN_POINT('Origin',(0.,0.,0.95));
#1493=CARTESIAN_POINT('',(0.938973381145787,1.02660061888599,1.05));
#1494=CARTESIAN_POINT('Origin',(0.,0.,1.05));
#1495=CARTESIAN_POINT('',(0.938686026621764,1.03868602981319,0.95));
#1496=CARTESIAN_POINT('Ctrl Pts',(0.938686026621764,1.03868602981319,0.949999999999999));
#1497=CARTESIAN_POINT('Ctrl Pts',(0.938838959309986,1.03263406892219,1.00014960967037));
#1498=CARTESIAN_POINT('Ctrl Pts',(0.938973381145787,1.02660061888599,1.05000000000001));
#1499=CARTESIAN_POINT('Origin',(0.,0.,0.95));
#1500=CARTESIAN_POINT('Origin',(0.938686026621764,1.03868602981319,0.95));
#1501=CARTESIAN_POINT('',(1.10000003510573,1.18762727284593,1.05));
#1502=CARTESIAN_POINT('',(0.406186395491332,0.493813633231536,1.05));
#1503=CARTESIAN_POINT('',(1.10000003510573,1.20000003829716,0.95));
#1504=CARTESIAN_POINT('',(1.10000003510573,1.19878391499024,0.959829033870483));
#1505=CARTESIAN_POINT('',(0.444343012513025,0.544343015704454,0.95));
#1506=CARTESIAN_POINT('Origin',(1.10000003510573,1.20000003829716,0.95));
#1507=CARTESIAN_POINT('',(1.18762727284593,1.10000003510573,1.05));
#1508=CARTESIAN_POINT('',(1.09381365238012,1.19381365557154,1.05));
#1509=CARTESIAN_POINT('',(1.20000003829716,1.10000003510573,0.95));
#1510=CARTESIAN_POINT('',(1.19924615253289,1.10000003510573,0.956093106405664));
#1511=CARTESIAN_POINT('',(1.12500003590359,1.1750000374993,0.95));
#1512=CARTESIAN_POINT('Origin',(1.20000003829716,1.10000003510573,0.95));
#1513=CARTESIAN_POINT('',(1.02660061888599,0.938973381145786,1.05));
#1514=CARTESIAN_POINT('',(0.493813633231537,0.406186395491331,1.05));
#1515=CARTESIAN_POINT('',(1.03868602981319,0.938686026621764,0.95));
#1516=CARTESIAN_POINT('Ctrl Pts',(1.03868602981319,0.938686026621763,0.949999999999999));
#1517=CARTESIAN_POINT('Ctrl Pts',(1.0326340689221,0.938838959309987,1.00014960967114));
#1518=CARTESIAN_POINT('Ctrl Pts',(1.02660061888599,0.938973381145786,1.05000000000001));
#1519=CARTESIAN_POINT('',(0.625000019946437,0.525000016755005,0.95));
#1520=CARTESIAN_POINT('Origin',(0.,0.,0.95));
#1521=CARTESIAN_POINT('Origin',(0.,0.,1.05));
#1522=CARTESIAN_POINT('Origin',(0.,0.,0.95));
#1523=CARTESIAN_POINT('Origin',(0.,2.73184799366426E-18,1.05));
#1524=CARTESIAN_POINT('Origin',(0.,0.,0.95));
#1525=CARTESIAN_POINT('',(1.65,-2.02066721859313E-16,0.95));
#1526=CARTESIAN_POINT('Origin',(0.,0.,0.95));
#1527=CARTESIAN_POINT('',(-1.4615,3.6051466736148E-16,0.95));
#1528=CARTESIAN_POINT('Origin',(-1.55,3.49676543189026E-16,0.95));
#1529=CARTESIAN_POINT('',(1.6385,-3.33331013461344E-16,0.95));
#1530=CARTESIAN_POINT('Origin',(1.55,-3.44169137633799E-16,0.95));
#1531=CARTESIAN_POINT('',(0.0884999999999998,-1.55,0.95));
#1532=CARTESIAN_POINT('Origin',(-1.74838271594513E-16,-1.55,0.95));
#1533=CARTESIAN_POINT('',(0.0885,1.55,0.95));
#1534=CARTESIAN_POINT('Origin',(0.,1.55,0.95));
#1535=CARTESIAN_POINT('Origin',(0.,0.,0.7725));
#1536=CARTESIAN_POINT('',(-0.700000022340009,8.57252786761767E-17,0.75));
#1537=CARTESIAN_POINT('Origin',(0.,0.,0.75));
#1538=CARTESIAN_POINT('',(-0.655000022340009,-8.02143680800136E-17,0.795));
#1539=CARTESIAN_POINT('',(-0.677500022340009,8.29698233780952E-17,0.7725));
#1540=CARTESIAN_POINT('Origin',(0.,0.,0.795));
#1541=CARTESIAN_POINT('Origin',(0.,0.,0.795));
#1542=CARTESIAN_POINT('Origin',(0.,0.,0.9));
#1543=CARTESIAN_POINT('',(1.75,2.14313189850787E-16,0.85));
#1544=CARTESIAN_POINT('',(1.7,2.0818995585505E-16,0.9));
#1545=CARTESIAN_POINT('Origin',(0.,0.,0.85));
#1546=CARTESIAN_POINT('Origin',(0.,0.,0.75));
#1547=CARTESIAN_POINT('',(1.75,2.14313189850787E-16,0.75));
#1548=CARTESIAN_POINT('',(1.75,2.14313189850787E-16,0.75));
#1549=CARTESIAN_POINT('Origin',(0.,0.,0.75));
#1550=CARTESIAN_POINT('Origin',(0.,1.55,0.75));
#1551=CARTESIAN_POINT('',(0.0885,1.55,0.75));
#1552=CARTESIAN_POINT('',(0.0885,1.55,0.75));
#1553=CARTESIAN_POINT('Origin',(0.,1.55,0.75));
#1554=CARTESIAN_POINT('Origin',(-1.74838271594513E-16,-1.55,0.75));
#1555=CARTESIAN_POINT('',(0.0884999999999998,-1.55,0.75));
#1556=CARTESIAN_POINT('',(0.0884999999999998,-1.55,0.75));
#1557=CARTESIAN_POINT('Origin',(-1.74838271594513E-16,-1.55,0.75));
#1558=CARTESIAN_POINT('Origin',(1.55,-3.44169137633799E-16,0.75));
#1559=CARTESIAN_POINT('',(1.6385,-3.33331013461344E-16,0.75));
#1560=CARTESIAN_POINT('',(1.6385,-3.33331013461344E-16,0.75));
#1561=CARTESIAN_POINT('Origin',(1.55,-3.44169137633799E-16,0.75));
#1562=CARTESIAN_POINT('Origin',(-1.55,3.49676543189026E-16,0.75));
#1563=CARTESIAN_POINT('',(-1.4615,3.6051466736148E-16,0.75));
#1564=CARTESIAN_POINT('',(-1.4615,3.6051466736148E-16,0.75));
#1565=CARTESIAN_POINT('Origin',(-1.55,3.49676543189026E-16,0.75));
#1566=CARTESIAN_POINT('Origin',(0.,0.,0.75));
#1567=CARTESIAN_POINT('',(0.,0.,0.));
#1568=CARTESIAN_POINT('',(0.,0.,0.));
#1569=UNCERTAINTY_MEASURE_WITH_UNIT(LENGTH_MEASURE(0.000393700787401575),
#1578,'DISTANCE_ACCURACY_VALUE',
'Maximum model space distance between geometric entities at asserted c
onnectivities');
#1570=UNCERTAINTY_MEASURE_WITH_UNIT(LENGTH_MEASURE(0.000393700787401575),
#1578,'DISTANCE_ACCURACY_VALUE',
'Maximum model space distance between geometric entities at asserted c
onnectivities');
#1571=UNCERTAINTY_MEASURE_WITH_UNIT(LENGTH_MEASURE(0.000393700787401575),
#1578,'DISTANCE_ACCURACY_VALUE',
'Maximum model space distance between geometric entities at asserted c
onnectivities');
#1572=UNCERTAINTY_MEASURE_WITH_UNIT(LENGTH_MEASURE(0.000393700787401575),
#1578,'DISTANCE_ACCURACY_VALUE',
'Maximum model space distance between geometric entities at asserted c
onnectivities');
#1573=(
GEOMETRIC_REPRESENTATION_CONTEXT(3)
GLOBAL_UNCERTAINTY_ASSIGNED_CONTEXT((#1569))
GLOBAL_UNIT_ASSIGNED_CONTEXT((#1578,#1582,#1583))
REPRESENTATION_CONTEXT('','3D')
);
#1574=(
GEOMETRIC_REPRESENTATION_CONTEXT(3)
GLOBAL_UNCERTAINTY_ASSIGNED_CONTEXT((#1570))
GLOBAL_UNIT_ASSIGNED_CONTEXT((#1578,#1582,#1583))
REPRESENTATION_CONTEXT('','3D')
);
#1575=(
GEOMETRIC_REPRESENTATION_CONTEXT(3)
GLOBAL_UNCERTAINTY_ASSIGNED_CONTEXT((#1571))
GLOBAL_UNIT_ASSIGNED_CONTEXT((#1578,#1582,#1583))
REPRESENTATION_CONTEXT('','3D')
);
#1576=(
GEOMETRIC_REPRESENTATION_CONTEXT(3)
GLOBAL_UNCERTAINTY_ASSIGNED_CONTEXT((#1572))
GLOBAL_UNIT_ASSIGNED_CONTEXT((#1578,#1582,#1583))
REPRESENTATION_CONTEXT('','3D')
);
#1577=DIMENSIONAL_EXPONENTS(1.,0.,0.,0.,0.,0.,0.);
#1578=(
CONVERSION_BASED_UNIT('inch',#1581)
LENGTH_UNIT()
NAMED_UNIT(#1577)
);
#1579=(
LENGTH_UNIT()
NAMED_UNIT(*)
SI_UNIT(.MILLI.,.METRE.)
);
#1580=(
LENGTH_UNIT()
NAMED_UNIT(*)
SI_UNIT($,.METRE.)
);
#1581=LENGTH_MEASURE_WITH_UNIT(LENGTH_MEASURE(25.4),#1579);
#1582=(
NAMED_UNIT(*)
PLANE_ANGLE_UNIT()
SI_UNIT($,.RADIAN.)
);
#1583=(
NAMED_UNIT(*)
SI_UNIT($,.STERADIAN.)
SOLID_ANGLE_UNIT()
);
#1584=SHAPE_DEFINITION_REPRESENTATION(#1587,#1592);
#1585=SHAPE_DEFINITION_REPRESENTATION(#1588,#1593);
#1586=SHAPE_DEFINITION_REPRESENTATION(#1589,#1594);
#1587=PRODUCT_DEFINITION_SHAPE('',$,#1596);
#1588=PRODUCT_DEFINITION_SHAPE('',$,#1597);
#1589=PRODUCT_DEFINITION_SHAPE('',$,#1598);
#1590=PRODUCT_DEFINITION_SHAPE($,$,#17);
#1591=PRODUCT_DEFINITION_SHAPE($,$,#18);
#1592=SHAPE_REPRESENTATION('',(#884,#987,#988),#1573);
#1593=SHAPE_REPRESENTATION('',(#885),#1574);
#1594=SHAPE_REPRESENTATION('',(#932),#1575);
#1595=PRODUCT_DEFINITION_CONTEXT('part definition',#1606,'design');
#1596=PRODUCT_DEFINITION('2026-09-13-15-34-45-653','Turbidity Sensor',#1599,
#1595);
#1597=PRODUCT_DEFINITION('2026-09-13-15-35-02-799','Body ',#1600,#1595);
#1598=PRODUCT_DEFINITION('2026-09-13-15-47-38-661','Lid',#1601,#1595);
#1599=PRODUCT_DEFINITION_FORMATION('',$,#1608);
#1600=PRODUCT_DEFINITION_FORMATION('',$,#1609);
#1601=PRODUCT_DEFINITION_FORMATION('',$,#1610);
#1602=PRODUCT_RELATED_PRODUCT_CATEGORY('Turbidity Sensor',
'Turbidity Sensor',(#1608));
#1603=PRODUCT_RELATED_PRODUCT_CATEGORY('Body ','Body ',(#1609));
#1604=PRODUCT_RELATED_PRODUCT_CATEGORY('Lid','Lid',(#1610));
#1605=APPLICATION_PROTOCOL_DEFINITION('international standard',
'automotive_design',2009,#1606);
#1606=APPLICATION_CONTEXT(
'Core Data for Automotive Mechanical Design Process');
#1607=PRODUCT_CONTEXT('part definition',#1606,'mechanical');
#1608=PRODUCT('2026-09-13-15-34-45-653','Turbidity Sensor',$,(#1607));
#1609=PRODUCT('2026-09-13-15-35-02-799','Body ',$,(#1607));
#1610=PRODUCT('2026-09-13-15-47-38-661','Lid',$,(#1607));
#1611=PRESENTATION_STYLE_ASSIGNMENT((#1612));
#1612=SURFACE_STYLE_USAGE(.BOTH.,#1613);
#1613=SURFACE_SIDE_STYLE('',(#1614));
#1614=SURFACE_STYLE_FILL_AREA(#1615);
#1615=FILL_AREA_STYLE('Steel - Satin',(#1616));
#1616=FILL_AREA_STYLE_COLOUR('Steel - Satin',#1617);
#1617=COLOUR_RGB('Steel - Satin',0.627450980392157,0.627450980392157,0.627450980392157);
ENDSEC;
END-ISO-10303-21;
