ISO-10303-21;
HEADER;
/* Generated by software containing ST-Developer
 * from STEP Tools, Inc. (www.steptools.com) 
 */
/* OPTION: using custom renumber hook */

FILE_DESCRIPTION(
/* description */ ('STEP AP242 Edition 2',
'CAx-IF Rec.Pracs.---Representation and Presentation of Product Manufa
cturing Information (PMI)---4.0---2014-10-13',
'CAx-IF Rec.Pracs.---3D Tessellated Geometry---0.4---2014-09-14','2;1',
'CAx-IF Rec.Pracs.---User Defined Attributes---1.5---2016-08-15'),
/* implementation_level */ '2;1');

FILE_NAME(
/* name */ 'Sealed Cap - Part 1',
/* time_stamp */ '2026-08-30T00:38:21Z',
/* author */ (''),
/* organization */ (''),
/* preprocessor_version */ 'ST-DEVELOPER v20',
/* originating_system */ 'ONSHAPE BY PTC INC, 1.220',
/* authorisation */ '  ');

FILE_SCHEMA (('AP242_MANAGED_MODEL_BASED_3D_ENGINEERING_MIM_LF { 1 0 10303 442 3 1 4 }'));
ENDSEC;

DATA;
#10=SHAPE_REPRESENTATION_RELATIONSHIP('','',#446,#11);
#11=ADVANCED_BREP_SHAPE_REPRESENTATION('',(#444),#789);
#12=CONICAL_SURFACE('',#494,0.027178,0.785398163397448);
#13=TOROIDAL_SURFACE('',#478,0.015875,0.003175);
#14=TOROIDAL_SURFACE('',#484,0.015875,0.003175);
#15=TOROIDAL_SURFACE('',#493,0.015875,0.003175);
#16=B_SPLINE_CURVE_WITH_KNOTS('',3,(#641,#642,#643,#644),.UNSPECIFIED.,
 .F.,.F.,(4,4),(1.73472347597681E-18,0.00080608244963061),.UNSPECIFIED.);
#17=B_SPLINE_CURVE_WITH_KNOTS('',3,(#648,#649,#650,#651),.UNSPECIFIED.,
 .F.,.F.,(4,4),(1.19242524577209E-17,0.000806094382943744),
 .UNSPECIFIED.);
#18=B_SPLINE_CURVE_WITH_KNOTS('',3,(#660,#661,#662,#663),.UNSPECIFIED.,
 .F.,.F.,(4,4),(0.,0.000806094382943747),.UNSPECIFIED.);
#19=B_SPLINE_CURVE_WITH_KNOTS('',3,(#671,#672,#673,#674),.UNSPECIFIED.,
 .F.,.F.,(4,4),(0.,0.000806082449630588),.UNSPECIFIED.);
#20=B_SPLINE_CURVE_WITH_KNOTS('',3,(#679,#680,#681,#682),.UNSPECIFIED.,
 .F.,.F.,(4,4),(0.,0.000806082449630601),.UNSPECIFIED.);
#21=B_SPLINE_CURVE_WITH_KNOTS('',3,(#686,#687,#688,#689),.UNSPECIFIED.,
 .F.,.F.,(4,4),(0.,0.000806094382943742),.UNSPECIFIED.);
#22=B_SPLINE_CURVE_WITH_KNOTS('',3,(#697,#698,#699,#700),.UNSPECIFIED.,
 .F.,.F.,(4,4),(0.,0.00182548439774821),.UNSPECIFIED.);
#23=B_SPLINE_CURVE_WITH_KNOTS('',3,(#704,#705,#706,#707),.UNSPECIFIED.,
 .F.,.F.,(4,4),(0.00189038946889809,0.00507091663355988),.UNSPECIFIED.);
#24=B_SPLINE_CURVE_WITH_KNOTS('',3,(#711,#712,#713,#714),.UNSPECIFIED.,
 .F.,.F.,(4,4),(5.14652111334726E-15,0.0018254843977654),.UNSPECIFIED.);
#25=B_SPLINE_CURVE_WITH_KNOTS('',3,(#718,#719,#720,#721),.UNSPECIFIED.,
 .F.,.F.,(4,4),(0.,0.00318429323787441),.UNSPECIFIED.);
#26=B_SPLINE_CURVE_WITH_KNOTS('',3,(#727,#728,#729,#730),.UNSPECIFIED.,
 .F.,.F.,(4,4),(0.,0.00182548439774817),.UNSPECIFIED.);
#27=B_SPLINE_CURVE_WITH_KNOTS('',3,(#734,#735,#736,#737),.UNSPECIFIED.,
 .F.,.F.,(4,4),(0.00189038946889807,0.00507091663355987),.UNSPECIFIED.);
#28=B_SPLINE_CURVE_WITH_KNOTS('',3,(#741,#742,#743,#744),.UNSPECIFIED.,
 .F.,.F.,(4,4),(4.9496452612439E-15,0.0018254843977647),.UNSPECIFIED.);
#29=B_SPLINE_CURVE_WITH_KNOTS('',3,(#748,#749,#750,#751),.UNSPECIFIED.,
 .F.,.F.,(4,4),(8.67361737988404E-18,0.00318429323787527),.UNSPECIFIED.);
#30=B_SPLINE_CURVE_WITH_KNOTS('',3,(#763,#764,#765,#766),.UNSPECIFIED.,
 .F.,.F.,(4,4),(0.,0.0018254843977482),.UNSPECIFIED.);
#31=B_SPLINE_CURVE_WITH_KNOTS('',3,(#770,#771,#772,#773),.UNSPECIFIED.,
 .F.,.F.,(4,4),(0.00189038946889807,0.00507091663355985),.UNSPECIFIED.);
#32=B_SPLINE_CURVE_WITH_KNOTS('',3,(#777,#778,#779,#780),.UNSPECIFIED.,
 .F.,.F.,(4,4),(5.34398741978607E-15,0.00182548439776603),.UNSPECIFIED.);
#33=B_SPLINE_CURVE_WITH_KNOTS('',3,(#782,#783,#784,#785),.UNSPECIFIED.,
 .F.,.F.,(4,4),(0.,0.00318429323787359),.UNSPECIFIED.);
#34=LINE('',#638,#52);
#35=LINE('',#653,#53);
#36=LINE('',#665,#54);
#37=LINE('',#669,#55);
#38=LINE('',#676,#56);
#39=LINE('',#691,#57);
#40=LINE('',#695,#58);
#41=LINE('',#702,#59);
#42=LINE('',#709,#60);
#43=LINE('',#716,#61);
#44=LINE('',#725,#62);
#45=LINE('',#732,#63);
#46=LINE('',#739,#64);
#47=LINE('',#746,#65);
#48=LINE('',#757,#66);
#49=LINE('',#761,#67);
#50=LINE('',#768,#68);
#51=LINE('',#775,#69);
#52=VECTOR('',#533,1.);
#53=VECTOR('',#536,1.);
#54=VECTOR('',#543,1.);
#55=VECTOR('',#546,1.);
#56=VECTOR('',#549,1.);
#57=VECTOR('',#552,1.);
#58=VECTOR('',#557,1.);
#59=VECTOR('',#558,1.);
#60=VECTOR('',#563,1.);
#61=VECTOR('',#564,1.);
#62=VECTOR('',#573,1.);
#63=VECTOR('',#574,1.);
#64=VECTOR('',#579,1.);
#65=VECTOR('',#580,1.);
#66=VECTOR('',#591,1.);
#67=VECTOR('',#594,1.);
#68=VECTOR('',#597,1.);
#69=VECTOR('',#602,1.);
#70=PLANE('',#451);
#71=PLANE('',#458);
#72=PLANE('',#475);
#73=PLANE('',#477);
#74=PLANE('',#481);
#75=PLANE('',#483);
#76=PLANE('',#486);
#77=PLANE('',#490);
#78=PLANE('',#492);
#79=ORIENTED_EDGE('',*,*,#191,.F.);
#80=ORIENTED_EDGE('',*,*,#192,.T.);
#81=ORIENTED_EDGE('',*,*,#193,.T.);
#82=ORIENTED_EDGE('',*,*,#194,.T.);
#83=ORIENTED_EDGE('',*,*,#195,.F.);
#84=ORIENTED_EDGE('',*,*,#191,.T.);
#85=ORIENTED_EDGE('',*,*,#196,.T.);
#86=ORIENTED_EDGE('',*,*,#195,.T.);
#87=ORIENTED_EDGE('',*,*,#197,.F.);
#88=ORIENTED_EDGE('',*,*,#197,.T.);
#89=ORIENTED_EDGE('',*,*,#196,.F.);
#90=ORIENTED_EDGE('',*,*,#198,.T.);
#91=ORIENTED_EDGE('',*,*,#194,.F.);
#92=ORIENTED_EDGE('',*,*,#199,.T.);
#93=ORIENTED_EDGE('',*,*,#200,.T.);
#94=ORIENTED_EDGE('',*,*,#193,.F.);
#95=ORIENTED_EDGE('',*,*,#201,.T.);
#96=ORIENTED_EDGE('',*,*,#202,.T.);
#97=ORIENTED_EDGE('',*,*,#203,.T.);
#98=ORIENTED_EDGE('',*,*,#204,.T.);
#99=ORIENTED_EDGE('',*,*,#205,.F.);
#100=ORIENTED_EDGE('',*,*,#206,.T.);
#101=ORIENTED_EDGE('',*,*,#207,.T.);
#102=ORIENTED_EDGE('',*,*,#208,.T.);
#103=ORIENTED_EDGE('',*,*,#209,.F.);
#104=ORIENTED_EDGE('',*,*,#210,.T.);
#105=ORIENTED_EDGE('',*,*,#211,.T.);
#106=ORIENTED_EDGE('',*,*,#212,.T.);
#107=ORIENTED_EDGE('',*,*,#213,.T.);
#108=ORIENTED_EDGE('',*,*,#214,.T.);
#109=ORIENTED_EDGE('',*,*,#215,.T.);
#110=ORIENTED_EDGE('',*,*,#216,.T.);
#111=ORIENTED_EDGE('',*,*,#217,.F.);
#112=ORIENTED_EDGE('',*,*,#218,.T.);
#113=ORIENTED_EDGE('',*,*,#216,.F.);
#114=ORIENTED_EDGE('',*,*,#219,.F.);
#115=ORIENTED_EDGE('',*,*,#220,.F.);
#116=ORIENTED_EDGE('',*,*,#221,.F.);
#117=ORIENTED_EDGE('',*,*,#222,.T.);
#118=ORIENTED_EDGE('',*,*,#217,.T.);
#119=ORIENTED_EDGE('',*,*,#221,.T.);
#120=ORIENTED_EDGE('',*,*,#214,.F.);
#121=ORIENTED_EDGE('',*,*,#223,.F.);
#122=ORIENTED_EDGE('',*,*,#224,.F.);
#123=ORIENTED_EDGE('',*,*,#225,.F.);
#124=ORIENTED_EDGE('',*,*,#213,.F.);
#125=ORIENTED_EDGE('',*,*,#226,.T.);
#126=ORIENTED_EDGE('',*,*,#223,.T.);
#127=ORIENTED_EDGE('',*,*,#226,.F.);
#128=ORIENTED_EDGE('',*,*,#218,.F.);
#129=ORIENTED_EDGE('',*,*,#222,.F.);
#130=ORIENTED_EDGE('',*,*,#220,.T.);
#131=ORIENTED_EDGE('',*,*,#227,.F.);
#132=ORIENTED_EDGE('',*,*,#224,.T.);
#133=ORIENTED_EDGE('',*,*,#208,.F.);
#134=ORIENTED_EDGE('',*,*,#228,.F.);
#135=ORIENTED_EDGE('',*,*,#229,.F.);
#136=ORIENTED_EDGE('',*,*,#230,.F.);
#137=ORIENTED_EDGE('',*,*,#231,.T.);
#138=ORIENTED_EDGE('',*,*,#209,.T.);
#139=ORIENTED_EDGE('',*,*,#230,.T.);
#140=ORIENTED_EDGE('',*,*,#212,.F.);
#141=ORIENTED_EDGE('',*,*,#232,.F.);
#142=ORIENTED_EDGE('',*,*,#233,.F.);
#143=ORIENTED_EDGE('',*,*,#234,.F.);
#144=ORIENTED_EDGE('',*,*,#211,.F.);
#145=ORIENTED_EDGE('',*,*,#235,.T.);
#146=ORIENTED_EDGE('',*,*,#232,.T.);
#147=ORIENTED_EDGE('',*,*,#235,.F.);
#148=ORIENTED_EDGE('',*,*,#210,.F.);
#149=ORIENTED_EDGE('',*,*,#231,.F.);
#150=ORIENTED_EDGE('',*,*,#229,.T.);
#151=ORIENTED_EDGE('',*,*,#236,.F.);
#152=ORIENTED_EDGE('',*,*,#233,.T.);
#153=ORIENTED_EDGE('',*,*,#237,.T.);
#154=ORIENTED_EDGE('',*,*,#215,.F.);
#155=ORIENTED_EDGE('',*,*,#225,.T.);
#156=ORIENTED_EDGE('',*,*,#227,.T.);
#157=ORIENTED_EDGE('',*,*,#219,.T.);
#158=ORIENTED_EDGE('',*,*,#203,.F.);
#159=ORIENTED_EDGE('',*,*,#238,.T.);
#160=ORIENTED_EDGE('',*,*,#239,.T.);
#161=ORIENTED_EDGE('',*,*,#240,.T.);
#162=ORIENTED_EDGE('',*,*,#207,.F.);
#163=ORIENTED_EDGE('',*,*,#234,.T.);
#164=ORIENTED_EDGE('',*,*,#236,.T.);
#165=ORIENTED_EDGE('',*,*,#228,.T.);
#166=ORIENTED_EDGE('',*,*,#199,.F.);
#167=ORIENTED_EDGE('',*,*,#192,.F.);
#168=ORIENTED_EDGE('',*,*,#198,.F.);
#169=ORIENTED_EDGE('',*,*,#204,.F.);
#170=ORIENTED_EDGE('',*,*,#240,.F.);
#171=ORIENTED_EDGE('',*,*,#241,.F.);
#172=ORIENTED_EDGE('',*,*,#242,.F.);
#173=ORIENTED_EDGE('',*,*,#243,.T.);
#174=ORIENTED_EDGE('',*,*,#205,.T.);
#175=ORIENTED_EDGE('',*,*,#242,.T.);
#176=ORIENTED_EDGE('',*,*,#202,.F.);
#177=ORIENTED_EDGE('',*,*,#244,.F.);
#178=ORIENTED_EDGE('',*,*,#245,.F.);
#179=ORIENTED_EDGE('',*,*,#238,.F.);
#180=ORIENTED_EDGE('',*,*,#201,.F.);
#181=ORIENTED_EDGE('',*,*,#246,.T.);
#182=ORIENTED_EDGE('',*,*,#244,.T.);
#183=ORIENTED_EDGE('',*,*,#246,.F.);
#184=ORIENTED_EDGE('',*,*,#206,.F.);
#185=ORIENTED_EDGE('',*,*,#243,.F.);
#186=ORIENTED_EDGE('',*,*,#241,.T.);
#187=ORIENTED_EDGE('',*,*,#239,.F.);
#188=ORIENTED_EDGE('',*,*,#245,.T.);
#189=ORIENTED_EDGE('',*,*,#237,.F.);
#190=ORIENTED_EDGE('',*,*,#200,.F.);
#191=EDGE_CURVE('',#247,#247,#288,.T.);
#192=EDGE_CURVE('',#248,#248,#289,.T.);
#193=EDGE_CURVE('',#249,#249,#290,.T.);
#194=EDGE_CURVE('',#250,#250,#291,.T.);
#195=EDGE_CURVE('',#251,#251,#292,.T.);
#196=EDGE_CURVE('',#252,#252,#293,.T.);
#197=EDGE_CURVE('',#253,#253,#294,.T.);
#198=EDGE_CURVE('',#254,#254,#295,.T.);
#199=EDGE_CURVE('',#255,#255,#296,.T.);
#200=EDGE_CURVE('',#256,#256,#297,.F.);
#201=EDGE_CURVE('',#257,#258,#34,.F.);
#202=EDGE_CURVE('',#258,#259,#16,.T.);
#203=EDGE_CURVE('',#259,#260,#298,.T.);
#204=EDGE_CURVE('',#260,#261,#17,.T.);
#205=EDGE_CURVE('',#262,#261,#35,.F.);
#206=EDGE_CURVE('',#262,#257,#299,.F.);
#207=EDGE_CURVE('',#263,#264,#300,.T.);
#208=EDGE_CURVE('',#264,#265,#18,.T.);
#209=EDGE_CURVE('',#266,#265,#36,.F.);
#210=EDGE_CURVE('',#266,#267,#301,.F.);
#211=EDGE_CURVE('',#267,#268,#37,.F.);
#212=EDGE_CURVE('',#268,#263,#19,.T.);
#213=EDGE_CURVE('',#269,#270,#38,.F.);
#214=EDGE_CURVE('',#270,#271,#20,.T.);
#215=EDGE_CURVE('',#271,#272,#302,.T.);
#216=EDGE_CURVE('',#272,#273,#21,.T.);
#217=EDGE_CURVE('',#274,#273,#39,.F.);
#218=EDGE_CURVE('',#274,#269,#303,.F.);
#219=EDGE_CURVE('',#275,#272,#40,.F.);
#220=EDGE_CURVE('',#276,#275,#22,.T.);
#221=EDGE_CURVE('',#273,#276,#41,.T.);
#222=EDGE_CURVE('',#276,#274,#23,.T.);
#223=EDGE_CURVE('',#277,#270,#42,.F.);
#224=EDGE_CURVE('',#278,#277,#24,.F.);
#225=EDGE_CURVE('',#271,#278,#43,.T.);
#226=EDGE_CURVE('',#269,#277,#25,.T.);
#227=EDGE_CURVE('',#278,#275,#304,.T.);
#228=EDGE_CURVE('',#279,#264,#44,.F.);
#229=EDGE_CURVE('',#280,#279,#26,.T.);
#230=EDGE_CURVE('',#265,#280,#45,.T.);
#231=EDGE_CURVE('',#280,#266,#27,.T.);
#232=EDGE_CURVE('',#281,#268,#46,.F.);
#233=EDGE_CURVE('',#282,#281,#28,.F.);
#234=EDGE_CURVE('',#263,#282,#47,.T.);
#235=EDGE_CURVE('',#267,#281,#29,.T.);
#236=EDGE_CURVE('',#282,#279,#305,.T.);
#237=EDGE_CURVE('',#283,#283,#306,.T.);
#238=EDGE_CURVE('',#259,#284,#48,.T.);
#239=EDGE_CURVE('',#284,#285,#307,.T.);
#240=EDGE_CURVE('',#285,#260,#49,.F.);
#241=EDGE_CURVE('',#286,#285,#30,.T.);
#242=EDGE_CURVE('',#261,#286,#50,.T.);
#243=EDGE_CURVE('',#286,#262,#31,.T.);
#244=EDGE_CURVE('',#287,#258,#51,.F.);
#245=EDGE_CURVE('',#284,#287,#32,.F.);
#246=EDGE_CURVE('',#257,#287,#33,.T.);
#247=VERTEX_POINT('',#612);
#248=VERTEX_POINT('',#614);
#249=VERTEX_POINT('',#617);
#250=VERTEX_POINT('',#619);
#251=VERTEX_POINT('',#621);
#252=VERTEX_POINT('',#623);
#253=VERTEX_POINT('',#626);
#254=VERTEX_POINT('',#630);
#255=VERTEX_POINT('',#633);
#256=VERTEX_POINT('',#636);
#257=VERTEX_POINT('',#639);
#258=VERTEX_POINT('',#640);
#259=VERTEX_POINT('',#645);
#260=VERTEX_POINT('',#647);
#261=VERTEX_POINT('',#652);
#262=VERTEX_POINT('',#654);
#263=VERTEX_POINT('',#658);
#264=VERTEX_POINT('',#659);
#265=VERTEX_POINT('',#664);
#266=VERTEX_POINT('',#666);
#267=VERTEX_POINT('',#668);
#268=VERTEX_POINT('',#670);
#269=VERTEX_POINT('',#677);
#270=VERTEX_POINT('',#678);
#271=VERTEX_POINT('',#683);
#272=VERTEX_POINT('',#685);
#273=VERTEX_POINT('',#690);
#274=VERTEX_POINT('',#692);
#275=VERTEX_POINT('',#696);
#276=VERTEX_POINT('',#701);
#277=VERTEX_POINT('',#710);
#278=VERTEX_POINT('',#715);
#279=VERTEX_POINT('',#726);
#280=VERTEX_POINT('',#731);
#281=VERTEX_POINT('',#740);
#282=VERTEX_POINT('',#745);
#283=VERTEX_POINT('',#756);
#284=VERTEX_POINT('',#758);
#285=VERTEX_POINT('',#760);
#286=VERTEX_POINT('',#767);
#287=VERTEX_POINT('',#776);
#288=CIRCLE('',#449,0.0022479);
#289=CIRCLE('',#450,0.0022479);
#290=CIRCLE('',#452,0.027178);
#291=CIRCLE('',#453,0.0022479);
#292=CIRCLE('',#454,0.015875);
#293=CIRCLE('',#455,0.0022479);
#294=CIRCLE('',#457,0.015875);
#295=CIRCLE('',#460,0.0022479);
#296=CIRCLE('',#462,0.0022479);
#297=CIRCLE('',#464,0.027178);
#298=CIRCLE('',#466,0.01905);
#299=CIRCLE('',#467,0.01905);
#300=CIRCLE('',#469,0.01905);
#301=CIRCLE('',#470,0.01905);
#302=CIRCLE('',#472,0.01905);
#303=CIRCLE('',#473,0.01905);
#304=CIRCLE('',#479,0.015875);
#305=CIRCLE('',#485,0.015875);
#306=CIRCLE('',#487,0.025908);
#307=CIRCLE('',#488,0.015875);
#308=EDGE_LOOP('',(#79));
#309=EDGE_LOOP('',(#80));
#310=EDGE_LOOP('',(#81));
#311=EDGE_LOOP('',(#82));
#312=EDGE_LOOP('',(#83));
#313=EDGE_LOOP('',(#84));
#314=EDGE_LOOP('',(#85));
#315=EDGE_LOOP('',(#86));
#316=EDGE_LOOP('',(#87));
#317=EDGE_LOOP('',(#88));
#318=EDGE_LOOP('',(#89));
#319=EDGE_LOOP('',(#90));
#320=EDGE_LOOP('',(#91));
#321=EDGE_LOOP('',(#92));
#322=EDGE_LOOP('',(#93));
#323=EDGE_LOOP('',(#94));
#324=EDGE_LOOP('',(#95,#96,#97,#98,#99,#100));
#325=EDGE_LOOP('',(#101,#102,#103,#104,#105,#106));
#326=EDGE_LOOP('',(#107,#108,#109,#110,#111,#112));
#327=EDGE_LOOP('',(#113,#114,#115,#116));
#328=EDGE_LOOP('',(#117,#118,#119));
#329=EDGE_LOOP('',(#120,#121,#122,#123));
#330=EDGE_LOOP('',(#124,#125,#126));
#331=EDGE_LOOP('',(#127,#128,#129,#130,#131,#132));
#332=EDGE_LOOP('',(#133,#134,#135,#136));
#333=EDGE_LOOP('',(#137,#138,#139));
#334=EDGE_LOOP('',(#140,#141,#142,#143));
#335=EDGE_LOOP('',(#144,#145,#146));
#336=EDGE_LOOP('',(#147,#148,#149,#150,#151,#152));
#337=EDGE_LOOP('',(#153));
#338=EDGE_LOOP('',(#154,#155,#156,#157));
#339=EDGE_LOOP('',(#158,#159,#160,#161));
#340=EDGE_LOOP('',(#162,#163,#164,#165));
#341=EDGE_LOOP('',(#166));
#342=EDGE_LOOP('',(#167));
#343=EDGE_LOOP('',(#168));
#344=EDGE_LOOP('',(#169,#170,#171,#172));
#345=EDGE_LOOP('',(#173,#174,#175));
#346=EDGE_LOOP('',(#176,#177,#178,#179));
#347=EDGE_LOOP('',(#180,#181,#182));
#348=EDGE_LOOP('',(#183,#184,#185,#186,#187,#188));
#349=EDGE_LOOP('',(#189));
#350=EDGE_LOOP('',(#190));
#351=FACE_BOUND('',#308,.T.);
#352=FACE_BOUND('',#309,.T.);
#353=FACE_BOUND('',#310,.T.);
#354=FACE_BOUND('',#311,.T.);
#355=FACE_BOUND('',#312,.T.);
#356=FACE_BOUND('',#313,.T.);
#357=FACE_BOUND('',#314,.T.);
#358=FACE_BOUND('',#315,.T.);
#359=FACE_BOUND('',#316,.T.);
#360=FACE_BOUND('',#317,.T.);
#361=FACE_BOUND('',#318,.T.);
#362=FACE_BOUND('',#319,.T.);
#363=FACE_BOUND('',#320,.T.);
#364=FACE_BOUND('',#321,.T.);
#365=FACE_BOUND('',#322,.T.);
#366=FACE_BOUND('',#323,.T.);
#367=FACE_BOUND('',#324,.T.);
#368=FACE_BOUND('',#325,.T.);
#369=FACE_BOUND('',#326,.T.);
#370=FACE_BOUND('',#327,.T.);
#371=FACE_BOUND('',#328,.T.);
#372=FACE_BOUND('',#329,.T.);
#373=FACE_BOUND('',#330,.T.);
#374=FACE_BOUND('',#331,.T.);
#375=FACE_BOUND('',#332,.T.);
#376=FACE_BOUND('',#333,.T.);
#377=FACE_BOUND('',#334,.T.);
#378=FACE_BOUND('',#335,.T.);
#379=FACE_BOUND('',#336,.T.);
#380=FACE_BOUND('',#337,.T.);
#381=FACE_BOUND('',#338,.T.);
#382=FACE_BOUND('',#339,.T.);
#383=FACE_BOUND('',#340,.T.);
#384=FACE_BOUND('',#341,.T.);
#385=FACE_BOUND('',#342,.T.);
#386=FACE_BOUND('',#343,.T.);
#387=FACE_BOUND('',#344,.T.);
#388=FACE_BOUND('',#345,.T.);
#389=FACE_BOUND('',#346,.T.);
#390=FACE_BOUND('',#347,.T.);
#391=FACE_BOUND('',#348,.T.);
#392=FACE_BOUND('',#349,.T.);
#393=FACE_BOUND('',#350,.T.);
#394=CYLINDRICAL_SURFACE('',#448,0.0022479);
#395=CYLINDRICAL_SURFACE('',#456,0.015875);
#396=CYLINDRICAL_SURFACE('',#459,0.0022479);
#397=CYLINDRICAL_SURFACE('',#461,0.0022479);
#398=CYLINDRICAL_SURFACE('',#463,0.027178);
#399=CYLINDRICAL_SURFACE('',#465,0.01905);
#400=CYLINDRICAL_SURFACE('',#468,0.01905);
#401=CYLINDRICAL_SURFACE('',#471,0.01905);
#402=CYLINDRICAL_SURFACE('',#474,0.000508);
#403=CYLINDRICAL_SURFACE('',#476,0.000508);
#404=CYLINDRICAL_SURFACE('',#480,0.000508);
#405=CYLINDRICAL_SURFACE('',#482,0.000508);
#406=CYLINDRICAL_SURFACE('',#489,0.000508);
#407=CYLINDRICAL_SURFACE('',#491,0.000508);
#408=ADVANCED_FACE('',(#351,#352),#394,.F.);
#409=ADVANCED_FACE('',(#353,#354,#355,#356,#357),#70,.F.);
#410=ADVANCED_FACE('',(#358,#359),#395,.F.);
#411=ADVANCED_FACE('',(#360),#71,.T.);
#412=ADVANCED_FACE('',(#361,#362),#396,.F.);
#413=ADVANCED_FACE('',(#363,#364),#397,.F.);
#414=ADVANCED_FACE('',(#365,#366),#398,.T.);
#415=ADVANCED_FACE('',(#367),#399,.F.);
#416=ADVANCED_FACE('',(#368),#400,.F.);
#417=ADVANCED_FACE('',(#369),#401,.F.);
#418=ADVANCED_FACE('',(#370),#402,.T.);
#419=ADVANCED_FACE('',(#371),#72,.F.);
#420=ADVANCED_FACE('',(#372),#403,.T.);
#421=ADVANCED_FACE('',(#373),#73,.T.);
#422=ADVANCED_FACE('',(#374),#13,.T.);
#423=ADVANCED_FACE('',(#375),#404,.T.);
#424=ADVANCED_FACE('',(#376),#74,.F.);
#425=ADVANCED_FACE('',(#377),#405,.T.);
#426=ADVANCED_FACE('',(#378),#75,.T.);
#427=ADVANCED_FACE('',(#379),#14,.T.);
#428=ADVANCED_FACE('',(#380,#381,#382,#383,#384,#385,#386),#76,.T.);
#429=ADVANCED_FACE('',(#387),#406,.T.);
#430=ADVANCED_FACE('',(#388),#77,.F.);
#431=ADVANCED_FACE('',(#389),#407,.T.);
#432=ADVANCED_FACE('',(#390),#78,.T.);
#433=ADVANCED_FACE('',(#391),#15,.T.);
#434=ADVANCED_FACE('',(#392,#393),#12,.T.);
#435=CLOSED_SHELL('',(#408,#409,#410,#411,#412,#413,#414,#415,#416,#417,
#418,#419,#420,#421,#422,#423,#424,#425,#426,#427,#428,#429,#430,#431,#432,
#433,#434));
#436=STYLED_ITEM('',(#437),#444);
#437=PRESENTATION_STYLE_ASSIGNMENT((#438));
#438=SURFACE_STYLE_USAGE(.BOTH.,#439);
#439=SURFACE_SIDE_STYLE('',(#440));
#440=SURFACE_STYLE_FILL_AREA(#441);
#441=FILL_AREA_STYLE('',(#442));
#442=FILL_AREA_STYLE_COLOUR('',#443);
#443=COLOUR_RGB('',0.647058823529412,0.647058823529412,0.647058823529412);
#444=MANIFOLD_SOLID_BREP('Part 1',#435);
#445=SHAPE_DEFINITION_REPRESENTATION(#794,#446);
#446=SHAPE_REPRESENTATION('Part 1',(#447),#789);
#447=AXIS2_PLACEMENT_3D('',#609,#495,#496);
#448=AXIS2_PLACEMENT_3D('',#610,#497,#498);
#449=AXIS2_PLACEMENT_3D('',#611,#499,#500);
#450=AXIS2_PLACEMENT_3D('',#613,#501,#502);
#451=AXIS2_PLACEMENT_3D('',#615,#503,#504);
#452=AXIS2_PLACEMENT_3D('',#616,#505,#506);
#453=AXIS2_PLACEMENT_3D('',#618,#507,#508);
#454=AXIS2_PLACEMENT_3D('',#620,#509,#510);
#455=AXIS2_PLACEMENT_3D('',#622,#511,#512);
#456=AXIS2_PLACEMENT_3D('',#624,#513,#514);
#457=AXIS2_PLACEMENT_3D('',#625,#515,#516);
#458=AXIS2_PLACEMENT_3D('',#627,#517,#518);
#459=AXIS2_PLACEMENT_3D('',#628,#519,#520);
#460=AXIS2_PLACEMENT_3D('',#629,#521,#522);
#461=AXIS2_PLACEMENT_3D('',#631,#523,#524);
#462=AXIS2_PLACEMENT_3D('',#632,#525,#526);
#463=AXIS2_PLACEMENT_3D('',#634,#527,#528);
#464=AXIS2_PLACEMENT_3D('',#635,#529,#530);
#465=AXIS2_PLACEMENT_3D('',#637,#531,#532);
#466=AXIS2_PLACEMENT_3D('',#646,#534,#535);
#467=AXIS2_PLACEMENT_3D('',#655,#537,#538);
#468=AXIS2_PLACEMENT_3D('',#656,#539,#540);
#469=AXIS2_PLACEMENT_3D('',#657,#541,#542);
#470=AXIS2_PLACEMENT_3D('',#667,#544,#545);
#471=AXIS2_PLACEMENT_3D('',#675,#547,#548);
#472=AXIS2_PLACEMENT_3D('',#684,#550,#551);
#473=AXIS2_PLACEMENT_3D('',#693,#553,#554);
#474=AXIS2_PLACEMENT_3D('',#694,#555,#556);
#475=AXIS2_PLACEMENT_3D('',#703,#559,#560);
#476=AXIS2_PLACEMENT_3D('',#708,#561,#562);
#477=AXIS2_PLACEMENT_3D('',#717,#565,#566);
#478=AXIS2_PLACEMENT_3D('',#722,#567,#568);
#479=AXIS2_PLACEMENT_3D('',#723,#569,#570);
#480=AXIS2_PLACEMENT_3D('',#724,#571,#572);
#481=AXIS2_PLACEMENT_3D('',#733,#575,#576);
#482=AXIS2_PLACEMENT_3D('',#738,#577,#578);
#483=AXIS2_PLACEMENT_3D('',#747,#581,#582);
#484=AXIS2_PLACEMENT_3D('',#752,#583,#584);
#485=AXIS2_PLACEMENT_3D('',#753,#585,#586);
#486=AXIS2_PLACEMENT_3D('',#754,#587,#588);
#487=AXIS2_PLACEMENT_3D('',#755,#589,#590);
#488=AXIS2_PLACEMENT_3D('',#759,#592,#593);
#489=AXIS2_PLACEMENT_3D('',#762,#595,#596);
#490=AXIS2_PLACEMENT_3D('',#769,#598,#599);
#491=AXIS2_PLACEMENT_3D('',#774,#600,#601);
#492=AXIS2_PLACEMENT_3D('',#781,#603,#604);
#493=AXIS2_PLACEMENT_3D('',#786,#605,#606);
#494=AXIS2_PLACEMENT_3D('',#787,#607,#608);
#495=DIRECTION('',(0.,0.,1.));
#496=DIRECTION('',(1.,0.,0.));
#497=DIRECTION('',(0.,0.,1.));
#498=DIRECTION('',(-0.5,0.866025403784438,0.));
#499=DIRECTION('',(0.,0.,1.));
#500=DIRECTION('',(-0.5,0.866025403784438,0.));
#501=DIRECTION('',(0.,0.,1.));
#502=DIRECTION('',(-0.5,0.866025403784438,0.));
#503=DIRECTION('',(0.,0.,1.));
#504=DIRECTION('',(-0.5,0.866025403784438,0.));
#505=DIRECTION('',(0.,0.,-1.));
#506=DIRECTION('',(-1.,0.,0.));
#507=DIRECTION('',(0.,0.,1.));
#508=DIRECTION('',(-0.5,-0.866025403784439,0.));
#509=DIRECTION('',(0.,0.,-1.));
#510=DIRECTION('',(-1.,0.,0.));
#511=DIRECTION('',(0.,0.,1.));
#512=DIRECTION('',(1.,0.,0.));
#513=DIRECTION('',(0.,0.,-1.));
#514=DIRECTION('',(-1.,0.,0.));
#515=DIRECTION('',(0.,0.,-1.));
#516=DIRECTION('',(-1.,0.,0.));
#517=DIRECTION('',(0.,0.,-1.));
#518=DIRECTION('',(1.,0.,0.));
#519=DIRECTION('',(0.,0.,1.));
#520=DIRECTION('',(1.,0.,0.));
#521=DIRECTION('',(0.,0.,1.));
#522=DIRECTION('',(1.,0.,0.));
#523=DIRECTION('',(0.,0.,1.));
#524=DIRECTION('',(-0.5,-0.866025403784439,0.));
#525=DIRECTION('',(0.,0.,1.));
#526=DIRECTION('',(-0.5,-0.866025403784439,0.));
#527=DIRECTION('',(0.,0.,-1.));
#528=DIRECTION('',(-1.,0.,0.));
#529=DIRECTION('',(0.,0.,1.));
#530=DIRECTION('',(1.,0.,0.));
#531=DIRECTION('',(0.,0.,-1.));
#532=DIRECTION('',(-1.,0.,0.));
#533=DIRECTION('',(0.,0.,-1.));
#534=DIRECTION('',(0.,0.,1.));
#535=DIRECTION('',(1.,0.,0.));
#536=DIRECTION('',(0.,0.,-1.));
#537=DIRECTION('',(0.,0.,1.));
#538=DIRECTION('',(1.,0.,0.));
#539=DIRECTION('',(0.,0.,-1.));
#540=DIRECTION('',(-1.,0.,0.));
#541=DIRECTION('',(0.,0.,1.));
#542=DIRECTION('',(1.,0.,0.));
#543=DIRECTION('',(0.,0.,-1.));
#544=DIRECTION('',(0.,0.,1.));
#545=DIRECTION('',(1.,0.,0.));
#546=DIRECTION('',(0.,0.,-1.));
#547=DIRECTION('',(0.,0.,-1.));
#548=DIRECTION('',(-1.,0.,0.));
#549=DIRECTION('',(0.,0.,-1.));
#550=DIRECTION('',(0.,0.,1.));
#551=DIRECTION('',(1.,0.,0.));
#552=DIRECTION('',(0.,0.,-1.));
#553=DIRECTION('',(0.,0.,1.));
#554=DIRECTION('',(1.,0.,0.));
#555=DIRECTION('',(0.866025403784439,-0.5,0.));
#556=DIRECTION('',(0.5,0.866025403784439,0.));
#557=DIRECTION('',(-0.866025403784439,0.5,0.));
#558=DIRECTION('',(-0.866025403784439,0.5,0.));
#559=DIRECTION('',(0.5,0.866025403784439,0.));
#560=DIRECTION('',(-0.866025403784439,0.5,0.));
#561=DIRECTION('',(0.866025403784438,0.5,0.));
#562=DIRECTION('',(-0.5,0.866025403784438,0.));
#563=DIRECTION('',(0.866025403784438,0.5,0.));
#564=DIRECTION('',(0.866025403784438,0.5,0.));
#565=DIRECTION('',(0.5,-0.866025403784438,0.));
#566=DIRECTION('',(0.866025403784438,0.5,0.));
#567=DIRECTION('',(0.,0.,1.));
#568=DIRECTION('',(1.,0.,0.));
#569=DIRECTION('',(0.,0.,1.));
#570=DIRECTION('',(1.,0.,0.));
#571=DIRECTION('',(-0.866025403784438,-0.5,0.));
#572=DIRECTION('',(0.5,-0.866025403784438,0.));
#573=DIRECTION('',(0.866025403784438,0.5,0.));
#574=DIRECTION('',(0.866025403784438,0.5,0.));
#575=DIRECTION('',(0.5,-0.866025403784438,0.));
#576=DIRECTION('',(0.866025403784438,0.5,0.));
#577=DIRECTION('',(2.73184799366426E-16,-1.,0.));
#578=DIRECTION('',(1.,2.73184799366426E-16,0.));
#579=DIRECTION('',(2.73184799366426E-16,-1.,0.));
#580=DIRECTION('',(2.73184799366426E-16,-1.,0.));
#581=DIRECTION('',(-1.,-2.73184799366426E-16,0.));
#582=DIRECTION('',(2.73184799366426E-16,-1.,0.));
#583=DIRECTION('',(0.,0.,1.));
#584=DIRECTION('',(1.,0.,0.));
#585=DIRECTION('',(0.,0.,1.));
#586=DIRECTION('',(1.,0.,0.));
#587=DIRECTION('',(0.,0.,1.));
#588=DIRECTION('',(-0.5,0.866025403784438,0.));
#589=DIRECTION('',(0.,0.,1.));
#590=DIRECTION('',(1.,0.,0.));
#591=DIRECTION('',(-0.866025403784439,0.5,0.));
#592=DIRECTION('',(0.,0.,1.));
#593=DIRECTION('',(1.,0.,0.));
#594=DIRECTION('',(2.73184799366426E-16,-1.,0.));
#595=DIRECTION('',(-2.73184799366426E-16,1.,0.));
#596=DIRECTION('',(-1.,-2.73184799366426E-16,0.));
#597=DIRECTION('',(2.73184799366426E-16,-1.,0.));
#598=DIRECTION('',(-1.,-2.73184799366426E-16,0.));
#599=DIRECTION('',(2.73184799366426E-16,-1.,0.));
#600=DIRECTION('',(-0.866025403784439,0.5,0.));
#601=DIRECTION('',(-0.5,-0.866025403784439,0.));
#602=DIRECTION('',(-0.866025403784439,0.5,0.));
#603=DIRECTION('',(0.5,0.866025403784439,0.));
#604=DIRECTION('',(-0.866025403784439,0.5,0.));
#605=DIRECTION('',(0.,0.,1.));
#606=DIRECTION('',(1.,0.,0.));
#607=DIRECTION('',(0.,0.,-1.));
#608=DIRECTION('',(-1.,0.,0.));
#609=CARTESIAN_POINT('',(0.,0.,0.));
#610=CARTESIAN_POINT('',(-0.0192474145991092,-0.0111125,0.));
#611=CARTESIAN_POINT('',(-0.0192474145991092,-0.0111125,0.));
#612=CARTESIAN_POINT('',(-0.0203713645991092,-0.00916576149483296,0.));
#613=CARTESIAN_POINT('',(-0.0192474145991092,-0.0111125,0.0127));
#614=CARTESIAN_POINT('',(-0.0203713645991092,-0.00916576149483296,0.0127));
#615=CARTESIAN_POINT('',(-0.00351952724097996,-0.002032,0.));
#616=CARTESIAN_POINT('',(0.,-1.66417253536134E-18,0.));
#617=CARTESIAN_POINT('',(-0.027178,-1.66417253536134E-18,0.));
#618=CARTESIAN_POINT('',(0.0192474145991092,-0.0111125,0.));
#619=CARTESIAN_POINT('',(0.0181234645991092,-0.013059238505167,0.));
#620=CARTESIAN_POINT('',(0.,-9.72063396823212E-19,0.));
#621=CARTESIAN_POINT('',(-0.015875,-9.72063396823212E-19,0.));
#622=CARTESIAN_POINT('',(-8.67361737988404E-19,0.022225,0.));
#623=CARTESIAN_POINT('',(0.0022479,0.022225,0.));
#624=CARTESIAN_POINT('',(0.,-9.72063396823212E-19,0.00762));
#625=CARTESIAN_POINT('',(0.,-9.72063396823212E-19,0.00762));
#626=CARTESIAN_POINT('',(-0.015875,-9.72063396823212E-19,0.00762));
#627=CARTESIAN_POINT('',(0.,0.,0.00762));
#628=CARTESIAN_POINT('',(-8.67361737988404E-19,0.022225,0.));
#629=CARTESIAN_POINT('',(-8.67361737988404E-19,0.022225,0.0127));
#630=CARTESIAN_POINT('',(0.0022479,0.022225,0.0127));
#631=CARTESIAN_POINT('',(0.0192474145991092,-0.0111125,0.));
#632=CARTESIAN_POINT('',(0.0192474145991092,-0.0111125,0.0127));
#633=CARTESIAN_POINT('',(0.0181234645991092,-0.013059238505167,0.0127));
#634=CARTESIAN_POINT('',(0.,-1.66417253536134E-18,0.0127));
#635=CARTESIAN_POINT('',(0.,-1.66417253536134E-18,0.01143));
#636=CARTESIAN_POINT('',(0.027178,-1.66417253536134E-18,0.01143));
#637=CARTESIAN_POINT('',(0.,1.16647607618785E-18,0.0127));
#638=CARTESIAN_POINT('',(0.018406902325428,-0.00490799824594053,0.0127));
#639=CARTESIAN_POINT('',(0.018406902325428,-0.00490799824594053,0.009525));
#640=CARTESIAN_POINT('',(0.018406902325428,-0.00490799824594053,0.012192));
#641=CARTESIAN_POINT('',(0.018406902325428,-0.00490799824594054,0.012192));
#642=CARTESIAN_POINT('',(0.018406902325428,-0.00490799824594054,0.0124646250349174));
#643=CARTESIAN_POINT('',(0.0183422873696996,-0.00515142639858109,0.0127));
#644=CARTESIAN_POINT('',(0.0182648924727579,-0.00541259669277058,0.0127));
#645=CARTESIAN_POINT('',(0.0182648924727579,-0.00541259669277057,0.0127));
#646=CARTESIAN_POINT('',(0.,1.16647607618785E-18,0.0127));
#647=CARTESIAN_POINT('',(0.004445,0.0185241592251848,0.0127));
#648=CARTESIAN_POINT('',(0.004445,0.0185241592251848,0.0127));
#649=CARTESIAN_POINT('',(0.00471002088975222,0.0184605656315092,0.0127));
#650=CARTESIAN_POINT('',(0.00495300000000029,0.0183948441417699,0.0124647874490387));
#651=CARTESIAN_POINT('',(0.00495300000000029,0.0183948441417699,0.012192));
#652=CARTESIAN_POINT('',(0.004953,0.0183948441417697,0.012192));
#653=CARTESIAN_POINT('',(0.004953,0.0183948441417697,0.0127));
#654=CARTESIAN_POINT('',(0.004953,0.0183948441417697,0.009525));
#655=CARTESIAN_POINT('',(0.,1.16647607618785E-18,0.009525));
#656=CARTESIAN_POINT('',(0.,1.16647607618785E-18,0.0127));
#657=CARTESIAN_POINT('',(0.,1.16647607618785E-18,0.0127));
#658=CARTESIAN_POINT('',(-0.004445,0.0185241592251848,0.0127));
#659=CARTESIAN_POINT('',(-0.0182648924727579,-0.00541259669277059,0.0127));
#660=CARTESIAN_POINT('',(-0.0182648924727579,-0.00541259669277059,0.0127));
#661=CARTESIAN_POINT('',(-0.018342329249993,-0.00515128507287381,0.0127));
#662=CARTESIAN_POINT('',(-0.0184069023254282,-0.00490799824594036,0.0124647874490387));
#663=CARTESIAN_POINT('',(-0.0184069023254282,-0.00490799824594036,0.012192));
#664=CARTESIAN_POINT('',(-0.018406902325428,-0.00490799824594055,0.012192));
#665=CARTESIAN_POINT('',(-0.018406902325428,-0.00490799824594055,0.0127));
#666=CARTESIAN_POINT('',(-0.018406902325428,-0.00490799824594055,0.009525));
#667=CARTESIAN_POINT('',(0.,1.16647607618785E-18,0.009525));
#668=CARTESIAN_POINT('',(-0.004953,0.0183948441417697,0.009525));
#669=CARTESIAN_POINT('',(-0.004953,0.0183948441417697,0.0127));
#670=CARTESIAN_POINT('',(-0.004953,0.0183948441417698,0.012192));
#671=CARTESIAN_POINT('',(-0.004953,0.0183948441417698,0.012192));
#672=CARTESIAN_POINT('',(-0.004953,0.0183948441417698,0.0124646250349174));
#673=CARTESIAN_POINT('',(-0.0047098775579528,0.0184606000249648,0.0127));
#674=CARTESIAN_POINT('',(-0.004445,0.0185241592251848,0.0127));
#675=CARTESIAN_POINT('',(0.,1.16647607618785E-18,0.0127));
#676=CARTESIAN_POINT('',(-0.0134539023254279,-0.0134868458958292,0.0127));
#677=CARTESIAN_POINT('',(-0.0134539023254279,-0.0134868458958292,0.009525));
#678=CARTESIAN_POINT('',(-0.0134539023254279,-0.0134868458958292,0.012192));
#679=CARTESIAN_POINT('',(-0.0134539023254279,-0.0134868458958292,0.012192));
#680=CARTESIAN_POINT('',(-0.0134539023254279,-0.0134868458958292,0.0124646250349174));
#681=CARTESIAN_POINT('',(-0.0136324098117468,-0.0133091736263838,0.0127));
#682=CARTESIAN_POINT('',(-0.0138198924727579,-0.0131115625324142,0.0127));
#683=CARTESIAN_POINT('',(-0.0138198924727579,-0.0131115625324142,0.0127));
#684=CARTESIAN_POINT('',(0.,1.16647607618785E-18,0.0127));
#685=CARTESIAN_POINT('',(0.0138198924727579,-0.0131115625324142,0.0127));
#686=CARTESIAN_POINT('',(0.0138198924727579,-0.0131115625324142,0.0127));
#687=CARTESIAN_POINT('',(0.0136323083602408,-0.0133092805586354,0.0127));
#688=CARTESIAN_POINT('',(0.0134539023254279,-0.0134868458958295,0.0124647874490387));
#689=CARTESIAN_POINT('',(0.0134539023254279,-0.0134868458958295,0.012192));
#690=CARTESIAN_POINT('',(0.0134539023254279,-0.0134868458958292,0.012192));
#691=CARTESIAN_POINT('',(0.0134539023254279,-0.0134868458958292,0.0127));
#692=CARTESIAN_POINT('',(0.0134539023254279,-0.0134868458958292,0.009525));
#693=CARTESIAN_POINT('',(0.,1.16647607618785E-18,0.009525));
#694=CARTESIAN_POINT('',(0.0142752839420936,-0.0133744829198218,0.012192));
#695=CARTESIAN_POINT('',(0.0170249145991091,-0.0149619829198218,0.0127));
#696=CARTESIAN_POINT('',(0.0109757271536748,-0.0114694829198218,0.0127));
#697=CARTESIAN_POINT('',(0.0121474679674049,-0.012732575667546,0.012192));
#698=CARTESIAN_POINT('',(0.0116928703201526,-0.0124701135935319,0.012517360302289));
#699=CARTESIAN_POINT('',(0.0113386540879589,-0.0119578999286294,0.0127));
#700=CARTESIAN_POINT('',(0.0109757271536748,-0.0114694829198218,0.0127));
#701=CARTESIAN_POINT('',(0.0121474679674049,-0.012732575667546,0.012192));
#702=CARTESIAN_POINT('',(0.0105853743677927,-0.0118307005073105,0.012192));
#703=CARTESIAN_POINT('',(0.0140212839420936,-0.0138144238249443,0.));
#704=CARTESIAN_POINT('',(0.0121474679674049,-0.012732575667546,0.012192));
#705=CARTESIAN_POINT('',(0.0129280660805116,-0.0131832541982771,0.0116333177464034));
#706=CARTESIAN_POINT('',(0.0134539023254279,-0.0134868458958292,0.0106014993354326));
#707=CARTESIAN_POINT('',(0.0134539023254279,-0.0134868458958292,0.009525));
#708=CARTESIAN_POINT('',(-0.00129702724097996,-0.00588148291982183,0.012192));
#709=CARTESIAN_POINT('',(-0.0140212839420935,-0.0138144238249443,0.012192));
#710=CARTESIAN_POINT('',(-0.012147467967421,-0.0127325756675553,0.0121919999999885));
#711=CARTESIAN_POINT('',(-0.012147467967421,-0.0127325756675553,0.012192));
#712=CARTESIAN_POINT('',(-0.0116928703201665,-0.01247011359354,0.0125173603022939));
#713=CARTESIAN_POINT('',(-0.011338654087962,-0.0119578999286321,0.0127));
#714=CARTESIAN_POINT('',(-0.0109757271536748,-0.0114694829198218,0.0127));
#715=CARTESIAN_POINT('',(-0.0109757271536748,-0.0114694829198218,0.0127));
#716=CARTESIAN_POINT('',(-0.00129702724097996,-0.00588148291982183,0.0127));
#717=CARTESIAN_POINT('',(-0.0140212839420935,-0.0138144238249443,0.));
#718=CARTESIAN_POINT('',(-0.0134539023254279,-0.0134868458958292,0.009525));
#719=CARTESIAN_POINT('',(-0.0134539023254279,-0.0134868458958292,0.0106019116906578));
#720=CARTESIAN_POINT('',(-0.0129373975036486,-0.0131886416979371,0.0116266391490222));
#721=CARTESIAN_POINT('',(-0.012147467967421,-0.0127325756675553,0.0121919999999885));
#722=CARTESIAN_POINT('',(0.,1.16647607618785E-18,0.009525));
#723=CARTESIAN_POINT('',(0.,1.16647607618785E-18,0.0127));
#724=CARTESIAN_POINT('',(-0.0187202839420935,-0.00567551708017818,0.012192));
#725=CARTESIAN_POINT('',(-0.0214699145991092,-0.00726301708017818,0.0127));
#726=CARTESIAN_POINT('',(-0.0154207271536749,-0.00377051708017818,0.0127));
#727=CARTESIAN_POINT('',(-0.0171004679674049,-0.00415372801765738,0.012192));
#728=CARTESIAN_POINT('',(-0.0166458703201526,-0.00389126594364331,0.012517360302289));
#729=CARTESIAN_POINT('',(-0.0160251721580846,-0.00384061252058259,0.0127));
#730=CARTESIAN_POINT('',(-0.0154207271536749,-0.00377051708017818,0.0127));
#731=CARTESIAN_POINT('',(-0.0171004679674049,-0.00415372801765738,0.012192));
#732=CARTESIAN_POINT('',(-0.0155383743677927,-0.00325185285742187,0.012192));
#733=CARTESIAN_POINT('',(-0.0189742839420936,-0.00523557617505568,0.));
#734=CARTESIAN_POINT('',(-0.0171004679674049,-0.00415372801765737,0.012192));
#735=CARTESIAN_POINT('',(-0.0178810660805116,-0.00460440654838844,0.0116333177464034));
#736=CARTESIAN_POINT('',(-0.018406902325428,-0.00490799824594055,0.0106014993354326));
#737=CARTESIAN_POINT('',(-0.018406902325428,-0.00490799824594055,0.009525));
#738=CARTESIAN_POINT('',(-0.004445,-0.002032,0.012192));
#739=CARTESIAN_POINT('',(-0.004953,0.01905,0.012192));
#740=CARTESIAN_POINT('',(-0.004953,0.0168863036852212,0.0121919999999889));
#741=CARTESIAN_POINT('',(-0.004953,0.0168863036852212,0.012192));
#742=CARTESIAN_POINT('',(-0.004953,0.0163613795371907,0.0125173603022937));
#743=CARTESIAN_POINT('',(-0.00468651807012709,0.015798512449215,0.0127));
#744=CARTESIAN_POINT('',(-0.004445,0.01524,0.0127));
#745=CARTESIAN_POINT('',(-0.004445,0.01524,0.0127));
#746=CARTESIAN_POINT('',(-0.004445,-0.002032,0.0127));
#747=CARTESIAN_POINT('',(-0.004953,0.01905,0.));
#748=CARTESIAN_POINT('',(-0.004953,0.0183948441417698,0.009525));
#749=CARTESIAN_POINT('',(-0.004953,0.0183948441417698,0.0106019116906581));
#750=CARTESIAN_POINT('',(-0.004953,0.0177984357459852,0.0116266391490228));
#751=CARTESIAN_POINT('',(-0.004953,0.0168863036852212,0.012191999999989));
#752=CARTESIAN_POINT('',(0.,1.16647607618785E-18,0.009525));
#753=CARTESIAN_POINT('',(0.,1.16647607618785E-18,0.0127));
#754=CARTESIAN_POINT('',(-0.00351952724097996,-0.002032,0.0127));
#755=CARTESIAN_POINT('',(0.,-1.66417253536134E-18,0.0127));
#756=CARTESIAN_POINT('',(0.025908,-1.66417253536134E-18,0.0127));
#757=CARTESIAN_POINT('',(0.000462736379510016,0.00486548291982183,0.0127));
#758=CARTESIAN_POINT('',(0.0154207271536749,-0.00377051708017817,0.0127));
#759=CARTESIAN_POINT('',(0.,1.16647607618785E-18,0.0127));
#760=CARTESIAN_POINT('',(0.004445,0.01524,0.0127));
#761=CARTESIAN_POINT('',(0.004445,0.022225,0.0127));
#762=CARTESIAN_POINT('',(0.004445,0.01905,0.012192));
#763=CARTESIAN_POINT('',(0.004953,0.0168863036852034,0.012192));
#764=CARTESIAN_POINT('',(0.004953,0.0163613795371752,0.012517360302289));
#765=CARTESIAN_POINT('',(0.00468651807012579,0.0157985124492114,0.0127));
#766=CARTESIAN_POINT('',(0.004445,0.01524,0.0127));
#767=CARTESIAN_POINT('',(0.004953,0.0168863036852034,0.012192));
#768=CARTESIAN_POINT('',(0.004953,0.0150825533647324,0.012192));
#769=CARTESIAN_POINT('',(0.004953,0.01905,0.));
#770=CARTESIAN_POINT('',(0.004953,0.0168863036852034,0.012192));
#771=CARTESIAN_POINT('',(0.004953,0.0177876607466655,0.0116333177464034));
#772=CARTESIAN_POINT('',(0.004953,0.0183948441417697,0.0106014993354326));
#773=CARTESIAN_POINT('',(0.004953,0.0183948441417697,0.009525));
#774=CARTESIAN_POINT('',(0.000462736379510016,0.00486548291982183,0.012192));
#775=CARTESIAN_POINT('',(0.0189742839420936,-0.00523557617505567,0.012192));
#776=CARTESIAN_POINT('',(0.0171004679674216,-0.00415372801766699,0.0121919999999881));
#777=CARTESIAN_POINT('',(0.0171004679674216,-0.00415372801766699,0.012192));
#778=CARTESIAN_POINT('',(0.0166458703201671,-0.00389126594365165,0.0125173603022941));
#779=CARTESIAN_POINT('',(0.0160251721580887,-0.0038406125205828,0.0127));
#780=CARTESIAN_POINT('',(0.0154207271536749,-0.00377051708017817,0.0127));
#781=CARTESIAN_POINT('',(0.0189742839420936,-0.00523557617505567,0.));
#782=CARTESIAN_POINT('',(0.018406902325428,-0.00490799824594053,0.009525));
#783=CARTESIAN_POINT('',(0.018406902325428,-0.00490799824594053,0.0106019116906575));
#784=CARTESIAN_POINT('',(0.0178903975036489,-0.00460979404804867,0.0116266391490217));
#785=CARTESIAN_POINT('',(0.0171004679674216,-0.004153728017667,0.0121919999999881));
#786=CARTESIAN_POINT('',(0.,1.16647607618785E-18,0.009525));
#787=CARTESIAN_POINT('',(0.,-1.66417253536134E-18,0.01143));
#788=MECHANICAL_DESIGN_GEOMETRIC_PRESENTATION_REPRESENTATION('',(#436),
#789);
#789=(
GEOMETRIC_REPRESENTATION_CONTEXT(3)
GLOBAL_UNCERTAINTY_ASSIGNED_CONTEXT((#790))
GLOBAL_UNIT_ASSIGNED_CONTEXT((#793,#792,#791))
REPRESENTATION_CONTEXT('Part 1','TOP_LEVEL_ASSEMBLY_PART')
);
#790=UNCERTAINTY_MEASURE_WITH_UNIT(LENGTH_MEASURE(2.E-5),#793,
'DISTANCE_ACCURACY_VALUE','Maximum Tolerance applied to model');
#791=(
NAMED_UNIT(*)
SI_UNIT($,.STERADIAN.)
SOLID_ANGLE_UNIT()
);
#792=(
NAMED_UNIT(*)
PLANE_ANGLE_UNIT()
SI_UNIT($,.RADIAN.)
);
#793=(
LENGTH_UNIT()
NAMED_UNIT(*)
SI_UNIT($,.METRE.)
);
#794=PRODUCT_DEFINITION_SHAPE('','',#795);
#795=PRODUCT_DEFINITION('','',#797,#796);
#796=PRODUCT_DEFINITION_CONTEXT('',#803,'design');
#797=PRODUCT_DEFINITION_FORMATION_WITH_SPECIFIED_SOURCE('','',#799,
 .NOT_KNOWN.);
#798=PRODUCT_RELATED_PRODUCT_CATEGORY('','',(#799));
#799=PRODUCT('Part 1','Part 1','Part 1',(#801));
#800=PRODUCT_CATEGORY('','');
#801=PRODUCT_CONTEXT('',#803,'mechanical');
#802=APPLICATION_PROTOCOL_DEFINITION('international standard',
'ap242_managed_model_based_3d_engineering',2020,#803);
#803=APPLICATION_CONTEXT('managed model based 3d engineering');
ENDSEC;
END-ISO-10303-21;
