ISO-10303-21;
HEADER;
/* Generated by software containing ST-Developer
 * from STEP Tools, Inc. (www.steptools.com) 
 */
/* OPTION: using custom renumber hook */

FILE_DESCRIPTION(
/* description */ ('STEP AP242 Edition 2',
'CAx-IF Rec.Pracs.---Representation and Presentation of Product Manufa
cturing Information (PMI)---4.0---2014-10-13',
'CAx-IF Rec.Pracs.---3D Tessellated Geometry---0.4---2014-09-14','2;1',
'CAx-IF Rec.Pracs.---User Defined Attributes---1.5---2016-08-15'),
/* implementation_level */ '2;1');

FILE_NAME(
/* name */ 'Top Cap 2 Copy 1 Copy 1 - Part 1',
/* time_stamp */ '2026-08-16T03:22:11Z',
/* author */ (''),
/* organization */ (''),
/* preprocessor_version */ 'ST-DEVELOPER v20',
/* originating_system */ 'ONSHAPE BY PTC INC, 1.219',
/* authorisation */ '  ');

FILE_SCHEMA (('AP242_MANAGED_MODEL_BASED_3D_ENGINEERING_MIM_LF { 1 0 10303 442 3 1 4 }'));
ENDSEC;

DATA;
#10=SHAPE_REPRESENTATION_RELATIONSHIP('','',#578,#11);
#11=ADVANCED_BREP_SHAPE_REPRESENTATION('',(#576),#1021);
#12=TOROIDAL_SURFACE('',#628,0.015875,0.003175);
#13=TOROIDAL_SURFACE('',#629,0.015875,0.003175);
#14=TOROIDAL_SURFACE('',#630,0.015875,0.003175);
#15=TOROIDAL_SURFACE('',#631,0.0027559,0.000508);
#16=TOROIDAL_SURFACE('',#634,0.004445,0.000508);
#17=TOROIDAL_SURFACE('',#637,0.0027559,0.000508);
#18=TOROIDAL_SURFACE('',#640,0.004445,0.000508);
#19=TOROIDAL_SURFACE('',#643,0.0027559,0.000508);
#20=TOROIDAL_SURFACE('',#646,0.004445,0.000508);
#21=CIRCLE('',#583,0.004953);
#22=CIRCLE('',#584,0.004953);
#23=CIRCLE('',#586,0.0022479);
#24=CIRCLE('',#587,0.0022479);
#25=CIRCLE('',#589,0.015875);
#26=CIRCLE('',#590,0.01905);
#27=CIRCLE('',#591,0.004953);
#28=CIRCLE('',#592,0.01905);
#29=CIRCLE('',#593,0.004953);
#30=CIRCLE('',#594,0.01905);
#31=CIRCLE('',#595,0.0022479);
#32=CIRCLE('',#596,0.0022479);
#33=CIRCLE('',#598,0.0027559);
#34=CIRCLE('',#599,0.0027559);
#35=CIRCLE('',#600,0.0027559);
#36=CIRCLE('',#601,0.015875);
#37=CIRCLE('',#602,0.004445);
#38=CIRCLE('',#603,0.015875);
#39=CIRCLE('',#604,0.004445);
#40=CIRCLE('',#605,0.015875);
#41=CIRCLE('',#606,0.004445);
#42=CIRCLE('',#608,0.01905);
#43=CIRCLE('',#610,0.01905);
#44=CIRCLE('',#612,0.01905);
#45=CIRCLE('',#614,0.015875);
#46=CIRCLE('',#619,0.004953);
#47=CIRCLE('',#621,0.0022479);
#48=CIRCLE('',#625,0.004953);
#49=CIRCLE('',#627,0.0022479);
#50=CIRCLE('',#633,0.000508);
#51=CIRCLE('',#635,0.000508);
#52=CIRCLE('',#639,0.000508);
#53=CIRCLE('',#641,0.000508);
#54=CIRCLE('',#645,0.000508);
#55=CIRCLE('',#647,0.000508);
#56=CYLINDRICAL_SURFACE('',#582,0.004953);
#57=CYLINDRICAL_SURFACE('',#585,0.0022479);
#58=CYLINDRICAL_SURFACE('',#607,0.01905);
#59=CYLINDRICAL_SURFACE('',#609,0.01905);
#60=CYLINDRICAL_SURFACE('',#611,0.01905);
#61=CYLINDRICAL_SURFACE('',#613,0.015875);
#62=CYLINDRICAL_SURFACE('',#618,0.004953);
#63=CYLINDRICAL_SURFACE('',#620,0.0022479);
#64=CYLINDRICAL_SURFACE('',#624,0.004953);
#65=CYLINDRICAL_SURFACE('',#626,0.0022479);
#66=CYLINDRICAL_SURFACE('',#632,0.000508);
#67=CYLINDRICAL_SURFACE('',#636,0.000508);
#68=CYLINDRICAL_SURFACE('',#638,0.000508);
#69=CYLINDRICAL_SURFACE('',#642,0.000508);
#70=CYLINDRICAL_SURFACE('',#644,0.000508);
#71=CYLINDRICAL_SURFACE('',#648,0.000508);
#72=LINE('',#827,#102);
#73=LINE('',#829,#103);
#74=LINE('',#831,#104);
#75=LINE('',#833,#105);
#76=LINE('',#835,#106);
#77=LINE('',#838,#107);
#78=LINE('',#845,#108);
#79=LINE('',#847,#109);
#80=LINE('',#861,#110);
#81=LINE('',#865,#111);
#82=LINE('',#869,#112);
#83=LINE('',#873,#113);
#84=LINE('',#887,#114);
#85=LINE('',#892,#115);
#86=LINE('',#896,#116);
#87=LINE('',#900,#117);
#88=LINE('',#904,#118);
#89=LINE('',#908,#119);
#90=LINE('',#914,#120);
#91=LINE('',#916,#121);
#92=LINE('',#920,#122);
#93=LINE('',#924,#123);
#94=LINE('',#935,#124);
#95=LINE('',#937,#125);
#96=LINE('',#939,#126);
#97=LINE('',#941,#127);
#98=LINE('',#958,#128);
#99=LINE('',#960,#129);
#100=LINE('',#962,#130);
#101=LINE('',#964,#131);
#102=VECTOR('',#653,1.);
#103=VECTOR('',#654,1.);
#104=VECTOR('',#655,1.);
#105=VECTOR('',#656,1.);
#106=VECTOR('',#659,1.);
#107=VECTOR('',#660,1.);
#108=VECTOR('',#661,1.);
#109=VECTOR('',#662,1.);
#110=VECTOR('',#681,1.);
#111=VECTOR('',#684,1.);
#112=VECTOR('',#687,1.);
#113=VECTOR('',#690,1.);
#114=VECTOR('',#705,1.);
#115=VECTOR('',#708,1.);
#116=VECTOR('',#711,1.);
#117=VECTOR('',#714,1.);
#118=VECTOR('',#717,1.);
#119=VECTOR('',#720,1.);
#120=VECTOR('',#727,1.);
#121=VECTOR('',#730,1.);
#122=VECTOR('',#735,1.);
#123=VECTOR('',#738,1.);
#124=VECTOR('',#747,1.);
#125=VECTOR('',#748,1.);
#126=VECTOR('',#751,1.);
#127=VECTOR('',#752,1.);
#128=VECTOR('',#763,1.);
#129=VECTOR('',#764,1.);
#130=VECTOR('',#767,1.);
#131=VECTOR('',#768,1.);
#132=ORIENTED_EDGE('',*,*,#286,.T.);
#133=ORIENTED_EDGE('',*,*,#287,.T.);
#134=ORIENTED_EDGE('',*,*,#288,.F.);
#135=ORIENTED_EDGE('',*,*,#289,.T.);
#136=ORIENTED_EDGE('',*,*,#290,.T.);
#137=ORIENTED_EDGE('',*,*,#291,.T.);
#138=ORIENTED_EDGE('',*,*,#292,.T.);
#139=ORIENTED_EDGE('',*,*,#293,.T.);
#140=ORIENTED_EDGE('',*,*,#294,.F.);
#141=ORIENTED_EDGE('',*,*,#295,.F.);
#142=ORIENTED_EDGE('',*,*,#288,.T.);
#143=ORIENTED_EDGE('',*,*,#296,.T.);
#144=ORIENTED_EDGE('',*,*,#291,.F.);
#145=ORIENTED_EDGE('',*,*,#297,.T.);
#146=ORIENTED_EDGE('',*,*,#298,.T.);
#147=ORIENTED_EDGE('',*,*,#299,.F.);
#148=ORIENTED_EDGE('',*,*,#300,.F.);
#149=ORIENTED_EDGE('',*,*,#295,.T.);
#150=ORIENTED_EDGE('',*,*,#301,.F.);
#151=ORIENTED_EDGE('',*,*,#302,.F.);
#152=ORIENTED_EDGE('',*,*,#303,.F.);
#153=ORIENTED_EDGE('',*,*,#304,.T.);
#154=ORIENTED_EDGE('',*,*,#305,.F.);
#155=ORIENTED_EDGE('',*,*,#306,.F.);
#156=ORIENTED_EDGE('',*,*,#307,.F.);
#157=ORIENTED_EDGE('',*,*,#308,.T.);
#158=ORIENTED_EDGE('',*,*,#309,.F.);
#159=ORIENTED_EDGE('',*,*,#289,.F.);
#160=ORIENTED_EDGE('',*,*,#297,.F.);
#161=ORIENTED_EDGE('',*,*,#299,.T.);
#162=ORIENTED_EDGE('',*,*,#310,.T.);
#163=ORIENTED_EDGE('',*,*,#311,.T.);
#164=ORIENTED_EDGE('',*,*,#312,.T.);
#165=ORIENTED_EDGE('',*,*,#313,.T.);
#166=ORIENTED_EDGE('',*,*,#314,.T.);
#167=ORIENTED_EDGE('',*,*,#315,.T.);
#168=ORIENTED_EDGE('',*,*,#316,.T.);
#169=ORIENTED_EDGE('',*,*,#317,.T.);
#170=ORIENTED_EDGE('',*,*,#318,.T.);
#171=ORIENTED_EDGE('',*,*,#319,.T.);
#172=ORIENTED_EDGE('',*,*,#320,.T.);
#173=ORIENTED_EDGE('',*,*,#321,.T.);
#174=ORIENTED_EDGE('',*,*,#322,.T.);
#175=ORIENTED_EDGE('',*,*,#323,.T.);
#176=ORIENTED_EDGE('',*,*,#324,.T.);
#177=ORIENTED_EDGE('',*,*,#325,.T.);
#178=ORIENTED_EDGE('',*,*,#326,.T.);
#179=ORIENTED_EDGE('',*,*,#294,.T.);
#180=ORIENTED_EDGE('',*,*,#327,.T.);
#181=ORIENTED_EDGE('',*,*,#328,.T.);
#182=ORIENTED_EDGE('',*,*,#301,.T.);
#183=ORIENTED_EDGE('',*,*,#329,.F.);
#184=ORIENTED_EDGE('',*,*,#330,.T.);
#185=ORIENTED_EDGE('',*,*,#290,.F.);
#186=ORIENTED_EDGE('',*,*,#309,.T.);
#187=ORIENTED_EDGE('',*,*,#331,.F.);
#188=ORIENTED_EDGE('',*,*,#332,.T.);
#189=ORIENTED_EDGE('',*,*,#333,.T.);
#190=ORIENTED_EDGE('',*,*,#305,.T.);
#191=ORIENTED_EDGE('',*,*,#300,.T.);
#192=ORIENTED_EDGE('',*,*,#334,.F.);
#193=ORIENTED_EDGE('',*,*,#334,.T.);
#194=ORIENTED_EDGE('',*,*,#335,.T.);
#195=ORIENTED_EDGE('',*,*,#336,.T.);
#196=ORIENTED_EDGE('',*,*,#337,.F.);
#197=ORIENTED_EDGE('',*,*,#302,.T.);
#198=ORIENTED_EDGE('',*,*,#328,.F.);
#199=ORIENTED_EDGE('',*,*,#338,.T.);
#200=ORIENTED_EDGE('',*,*,#339,.T.);
#201=ORIENTED_EDGE('',*,*,#340,.T.);
#202=ORIENTED_EDGE('',*,*,#331,.T.);
#203=ORIENTED_EDGE('',*,*,#304,.F.);
#204=ORIENTED_EDGE('',*,*,#337,.T.);
#205=ORIENTED_EDGE('',*,*,#341,.T.);
#206=ORIENTED_EDGE('',*,*,#338,.F.);
#207=ORIENTED_EDGE('',*,*,#303,.T.);
#208=ORIENTED_EDGE('',*,*,#342,.T.);
#209=ORIENTED_EDGE('',*,*,#310,.F.);
#210=ORIENTED_EDGE('',*,*,#343,.T.);
#211=ORIENTED_EDGE('',*,*,#344,.T.);
#212=ORIENTED_EDGE('',*,*,#345,.F.);
#213=ORIENTED_EDGE('',*,*,#306,.T.);
#214=ORIENTED_EDGE('',*,*,#333,.F.);
#215=ORIENTED_EDGE('',*,*,#346,.T.);
#216=ORIENTED_EDGE('',*,*,#347,.T.);
#217=ORIENTED_EDGE('',*,*,#348,.T.);
#218=ORIENTED_EDGE('',*,*,#329,.T.);
#219=ORIENTED_EDGE('',*,*,#308,.F.);
#220=ORIENTED_EDGE('',*,*,#345,.T.);
#221=ORIENTED_EDGE('',*,*,#349,.T.);
#222=ORIENTED_EDGE('',*,*,#346,.F.);
#223=ORIENTED_EDGE('',*,*,#307,.T.);
#224=ORIENTED_EDGE('',*,*,#350,.T.);
#225=ORIENTED_EDGE('',*,*,#311,.F.);
#226=ORIENTED_EDGE('',*,*,#335,.F.);
#227=ORIENTED_EDGE('',*,*,#327,.F.);
#228=ORIENTED_EDGE('',*,*,#293,.F.);
#229=ORIENTED_EDGE('',*,*,#351,.T.);
#230=ORIENTED_EDGE('',*,*,#324,.F.);
#231=ORIENTED_EDGE('',*,*,#352,.T.);
#232=ORIENTED_EDGE('',*,*,#286,.F.);
#233=ORIENTED_EDGE('',*,*,#330,.F.);
#234=ORIENTED_EDGE('',*,*,#348,.F.);
#235=ORIENTED_EDGE('',*,*,#353,.T.);
#236=ORIENTED_EDGE('',*,*,#316,.F.);
#237=ORIENTED_EDGE('',*,*,#354,.T.);
#238=ORIENTED_EDGE('',*,*,#343,.F.);
#239=ORIENTED_EDGE('',*,*,#332,.F.);
#240=ORIENTED_EDGE('',*,*,#340,.F.);
#241=ORIENTED_EDGE('',*,*,#355,.T.);
#242=ORIENTED_EDGE('',*,*,#320,.F.);
#243=ORIENTED_EDGE('',*,*,#356,.T.);
#244=ORIENTED_EDGE('',*,*,#312,.F.);
#245=ORIENTED_EDGE('',*,*,#298,.F.);
#246=ORIENTED_EDGE('',*,*,#354,.F.);
#247=ORIENTED_EDGE('',*,*,#315,.F.);
#248=ORIENTED_EDGE('',*,*,#357,.F.);
#249=ORIENTED_EDGE('',*,*,#287,.F.);
#250=ORIENTED_EDGE('',*,*,#357,.T.);
#251=ORIENTED_EDGE('',*,*,#326,.F.);
#252=ORIENTED_EDGE('',*,*,#358,.F.);
#253=ORIENTED_EDGE('',*,*,#296,.F.);
#254=ORIENTED_EDGE('',*,*,#358,.T.);
#255=ORIENTED_EDGE('',*,*,#325,.F.);
#256=ORIENTED_EDGE('',*,*,#351,.F.);
#257=ORIENTED_EDGE('',*,*,#292,.F.);
#258=ORIENTED_EDGE('',*,*,#313,.F.);
#259=ORIENTED_EDGE('',*,*,#350,.F.);
#260=ORIENTED_EDGE('',*,*,#356,.F.);
#261=ORIENTED_EDGE('',*,*,#319,.F.);
#262=ORIENTED_EDGE('',*,*,#359,.F.);
#263=ORIENTED_EDGE('',*,*,#344,.F.);
#264=ORIENTED_EDGE('',*,*,#359,.T.);
#265=ORIENTED_EDGE('',*,*,#318,.F.);
#266=ORIENTED_EDGE('',*,*,#360,.F.);
#267=ORIENTED_EDGE('',*,*,#349,.F.);
#268=ORIENTED_EDGE('',*,*,#360,.T.);
#269=ORIENTED_EDGE('',*,*,#317,.F.);
#270=ORIENTED_EDGE('',*,*,#353,.F.);
#271=ORIENTED_EDGE('',*,*,#347,.F.);
#272=ORIENTED_EDGE('',*,*,#314,.F.);
#273=ORIENTED_EDGE('',*,*,#342,.F.);
#274=ORIENTED_EDGE('',*,*,#352,.F.);
#275=ORIENTED_EDGE('',*,*,#323,.F.);
#276=ORIENTED_EDGE('',*,*,#361,.F.);
#277=ORIENTED_EDGE('',*,*,#336,.F.);
#278=ORIENTED_EDGE('',*,*,#361,.T.);
#279=ORIENTED_EDGE('',*,*,#322,.F.);
#280=ORIENTED_EDGE('',*,*,#362,.F.);
#281=ORIENTED_EDGE('',*,*,#341,.F.);
#282=ORIENTED_EDGE('',*,*,#362,.T.);
#283=ORIENTED_EDGE('',*,*,#321,.F.);
#284=ORIENTED_EDGE('',*,*,#355,.F.);
#285=ORIENTED_EDGE('',*,*,#339,.F.);
#286=EDGE_CURVE('',#363,#364,#416,.T.);
#287=EDGE_CURVE('',#364,#365,#72,.F.);
#288=EDGE_CURVE('',#366,#365,#73,.T.);
#289=EDGE_CURVE('',#366,#367,#74,.T.);
#290=EDGE_CURVE('',#367,#363,#75,.F.);
#291=EDGE_CURVE('',#368,#369,#76,.T.);
#292=EDGE_CURVE('',#369,#370,#77,.T.);
#293=EDGE_CURVE('',#370,#371,#417,.T.);
#294=EDGE_CURVE('',#372,#371,#78,.F.);
#295=EDGE_CURVE('',#368,#372,#79,.T.);
#296=EDGE_CURVE('',#365,#369,#21,.F.);
#297=EDGE_CURVE('',#368,#366,#22,.T.);
#298=EDGE_CURVE('',#373,#373,#23,.T.);
#299=EDGE_CURVE('',#374,#374,#24,.T.);
#300=EDGE_CURVE('',#375,#375,#25,.T.);
#301=EDGE_CURVE('',#376,#372,#26,.T.);
#302=EDGE_CURVE('',#377,#376,#80,.T.);
#303=EDGE_CURVE('',#378,#377,#27,.T.);
#304=EDGE_CURVE('',#378,#379,#81,.T.);
#305=EDGE_CURVE('',#380,#379,#28,.T.);
#306=EDGE_CURVE('',#381,#380,#82,.T.);
#307=EDGE_CURVE('',#382,#381,#29,.T.);
#308=EDGE_CURVE('',#382,#383,#83,.T.);
#309=EDGE_CURVE('',#367,#383,#30,.T.);
#310=EDGE_CURVE('',#384,#384,#31,.T.);
#311=EDGE_CURVE('',#385,#385,#32,.T.);
#312=EDGE_CURVE('',#386,#386,#33,.F.);
#313=EDGE_CURVE('',#387,#387,#34,.F.);
#314=EDGE_CURVE('',#388,#388,#35,.F.);
#315=EDGE_CURVE('',#389,#390,#84,.T.);
#316=EDGE_CURVE('',#390,#391,#36,.T.);
#317=EDGE_CURVE('',#391,#392,#85,.F.);
#318=EDGE_CURVE('',#392,#393,#37,.T.);
#319=EDGE_CURVE('',#393,#394,#86,.T.);
#320=EDGE_CURVE('',#394,#395,#38,.T.);
#321=EDGE_CURVE('',#395,#396,#87,.F.);
#322=EDGE_CURVE('',#396,#397,#39,.T.);
#323=EDGE_CURVE('',#397,#398,#88,.T.);
#324=EDGE_CURVE('',#398,#399,#40,.T.);
#325=EDGE_CURVE('',#399,#400,#89,.F.);
#326=EDGE_CURVE('',#400,#389,#41,.T.);
#327=EDGE_CURVE('',#371,#401,#42,.F.);
#328=EDGE_CURVE('',#401,#376,#90,.T.);
#329=EDGE_CURVE('',#402,#383,#91,.T.);
#330=EDGE_CURVE('',#402,#363,#43,.F.);
#331=EDGE_CURVE('',#403,#379,#92,.T.);
#332=EDGE_CURVE('',#403,#404,#44,.F.);
#333=EDGE_CURVE('',#404,#380,#93,.T.);
#334=EDGE_CURVE('',#405,#405,#45,.T.);
#335=EDGE_CURVE('',#401,#406,#418,.T.);
#336=EDGE_CURVE('',#406,#407,#94,.F.);
#337=EDGE_CURVE('',#377,#407,#95,.T.);
#338=EDGE_CURVE('',#378,#408,#96,.T.);
#339=EDGE_CURVE('',#408,#409,#97,.T.);
#340=EDGE_CURVE('',#409,#403,#419,.T.);
#341=EDGE_CURVE('',#407,#408,#46,.F.);
#342=EDGE_CURVE('',#410,#410,#47,.T.);
#343=EDGE_CURVE('',#404,#411,#420,.T.);
#344=EDGE_CURVE('',#411,#412,#98,.F.);
#345=EDGE_CURVE('',#381,#412,#99,.T.);
#346=EDGE_CURVE('',#382,#413,#100,.T.);
#347=EDGE_CURVE('',#413,#414,#101,.T.);
#348=EDGE_CURVE('',#414,#402,#421,.T.);
#349=EDGE_CURVE('',#412,#413,#48,.F.);
#350=EDGE_CURVE('',#415,#415,#49,.T.);
#351=EDGE_CURVE('',#370,#399,#422,.T.);
#352=EDGE_CURVE('',#398,#406,#423,.F.);
#353=EDGE_CURVE('',#414,#391,#424,.T.);
#354=EDGE_CURVE('',#390,#364,#425,.F.);
#355=EDGE_CURVE('',#409,#395,#426,.T.);
#356=EDGE_CURVE('',#394,#411,#427,.F.);
#357=EDGE_CURVE('',#365,#389,#50,.T.);
#358=EDGE_CURVE('',#369,#400,#51,.T.);
#359=EDGE_CURVE('',#412,#393,#52,.T.);
#360=EDGE_CURVE('',#413,#392,#53,.T.);
#361=EDGE_CURVE('',#407,#397,#54,.T.);
#362=EDGE_CURVE('',#408,#396,#55,.T.);
#363=VERTEX_POINT('',#825);
#364=VERTEX_POINT('',#826);
#365=VERTEX_POINT('',#828);
#366=VERTEX_POINT('',#830);
#367=VERTEX_POINT('',#832);
#368=VERTEX_POINT('',#836);
#369=VERTEX_POINT('',#837);
#370=VERTEX_POINT('',#839);
#371=VERTEX_POINT('',#844);
#372=VERTEX_POINT('',#846);
#373=VERTEX_POINT('',#853);
#374=VERTEX_POINT('',#855);
#375=VERTEX_POINT('',#858);
#376=VERTEX_POINT('',#860);
#377=VERTEX_POINT('',#862);
#378=VERTEX_POINT('',#864);
#379=VERTEX_POINT('',#866);
#380=VERTEX_POINT('',#868);
#381=VERTEX_POINT('',#870);
#382=VERTEX_POINT('',#872);
#383=VERTEX_POINT('',#874);
#384=VERTEX_POINT('',#877);
#385=VERTEX_POINT('',#879);
#386=VERTEX_POINT('',#882);
#387=VERTEX_POINT('',#884);
#388=VERTEX_POINT('',#886);
#389=VERTEX_POINT('',#888);
#390=VERTEX_POINT('',#889);
#391=VERTEX_POINT('',#891);
#392=VERTEX_POINT('',#893);
#393=VERTEX_POINT('',#895);
#394=VERTEX_POINT('',#897);
#395=VERTEX_POINT('',#899);
#396=VERTEX_POINT('',#901);
#397=VERTEX_POINT('',#903);
#398=VERTEX_POINT('',#905);
#399=VERTEX_POINT('',#907);
#400=VERTEX_POINT('',#909);
#401=VERTEX_POINT('',#913);
#402=VERTEX_POINT('',#917);
#403=VERTEX_POINT('',#921);
#404=VERTEX_POINT('',#923);
#405=VERTEX_POINT('',#927);
#406=VERTEX_POINT('',#934);
#407=VERTEX_POINT('',#936);
#408=VERTEX_POINT('',#940);
#409=VERTEX_POINT('',#942);
#410=VERTEX_POINT('',#951);
#411=VERTEX_POINT('',#957);
#412=VERTEX_POINT('',#959);
#413=VERTEX_POINT('',#963);
#414=VERTEX_POINT('',#965);
#415=VERTEX_POINT('',#974);
#416=B_SPLINE_CURVE_WITH_KNOTS('',3,(#821,#822,#823,#824),.UNSPECIFIED.,
 .F.,.F.,(4,4),(0.,0.00318429323787441),.UNSPECIFIED.);
#417=B_SPLINE_CURVE_WITH_KNOTS('',3,(#840,#841,#842,#843),.UNSPECIFIED.,
 .F.,.F.,(4,4),(0.00189038946889807,0.00507091663355987),.UNSPECIFIED.);
#418=B_SPLINE_CURVE_WITH_KNOTS('',3,(#930,#931,#932,#933),.UNSPECIFIED.,
 .F.,.F.,(4,4),(8.67361737988404E-18,0.00318429323787527),.UNSPECIFIED.);
#419=B_SPLINE_CURVE_WITH_KNOTS('',3,(#943,#944,#945,#946),.UNSPECIFIED.,
 .F.,.F.,(4,4),(0.00189038946889807,0.00507091663355985),.UNSPECIFIED.);
#420=B_SPLINE_CURVE_WITH_KNOTS('',3,(#953,#954,#955,#956),.UNSPECIFIED.,
 .F.,.F.,(4,4),(0.,0.00318429323787359),.UNSPECIFIED.);
#421=B_SPLINE_CURVE_WITH_KNOTS('',3,(#966,#967,#968,#969),.UNSPECIFIED.,
 .F.,.F.,(4,4),(0.00189038946889809,0.00507091663355988),.UNSPECIFIED.);
#422=B_SPLINE_CURVE_WITH_KNOTS('',3,(#976,#977,#978,#979),.UNSPECIFIED.,
 .F.,.F.,(4,4),(0.,0.00182548439774817),.UNSPECIFIED.);
#423=B_SPLINE_CURVE_WITH_KNOTS('',3,(#980,#981,#982,#983),.UNSPECIFIED.,
 .F.,.F.,(4,4),(4.9496452612439E-15,0.0018254843977647),.UNSPECIFIED.);
#424=B_SPLINE_CURVE_WITH_KNOTS('',3,(#985,#986,#987,#988),.UNSPECIFIED.,
 .F.,.F.,(4,4),(0.,0.00182548439774821),.UNSPECIFIED.);
#425=B_SPLINE_CURVE_WITH_KNOTS('',3,(#989,#990,#991,#992),.UNSPECIFIED.,
 .F.,.F.,(4,4),(5.14652111334726E-15,0.0018254843977654),.UNSPECIFIED.);
#426=B_SPLINE_CURVE_WITH_KNOTS('',3,(#994,#995,#996,#997),.UNSPECIFIED.,
 .F.,.F.,(4,4),(0.,0.0018254843977482),.UNSPECIFIED.);
#427=B_SPLINE_CURVE_WITH_KNOTS('',3,(#998,#999,#1000,#1001),
 .UNSPECIFIED.,.F.,.F.,(4,4),(5.34398741978607E-15,0.00182548439776603),
 .UNSPECIFIED.);
#428=EDGE_LOOP('',(#132,#133,#134,#135,#136));
#429=EDGE_LOOP('',(#137,#138,#139,#140,#141));
#430=EDGE_LOOP('',(#142,#143,#144,#145));
#431=EDGE_LOOP('',(#146));
#432=EDGE_LOOP('',(#147));
#433=EDGE_LOOP('',(#148));
#434=EDGE_LOOP('',(#149,#150,#151,#152,#153,#154,#155,#156,#157,#158,#159,
#160));
#435=EDGE_LOOP('',(#161));
#436=EDGE_LOOP('',(#162));
#437=EDGE_LOOP('',(#163));
#438=EDGE_LOOP('',(#164));
#439=EDGE_LOOP('',(#165));
#440=EDGE_LOOP('',(#166));
#441=EDGE_LOOP('',(#167,#168,#169,#170,#171,#172,#173,#174,#175,#176,#177,
#178));
#442=EDGE_LOOP('',(#179,#180,#181,#182));
#443=EDGE_LOOP('',(#183,#184,#185,#186));
#444=EDGE_LOOP('',(#187,#188,#189,#190));
#445=EDGE_LOOP('',(#191));
#446=EDGE_LOOP('',(#192));
#447=EDGE_LOOP('',(#193));
#448=EDGE_LOOP('',(#194,#195,#196,#197,#198));
#449=EDGE_LOOP('',(#199,#200,#201,#202,#203));
#450=EDGE_LOOP('',(#204,#205,#206,#207));
#451=EDGE_LOOP('',(#208));
#452=EDGE_LOOP('',(#209));
#453=EDGE_LOOP('',(#210,#211,#212,#213,#214));
#454=EDGE_LOOP('',(#215,#216,#217,#218,#219));
#455=EDGE_LOOP('',(#220,#221,#222,#223));
#456=EDGE_LOOP('',(#224));
#457=EDGE_LOOP('',(#225));
#458=EDGE_LOOP('',(#226,#227,#228,#229,#230,#231));
#459=EDGE_LOOP('',(#232,#233,#234,#235,#236,#237));
#460=EDGE_LOOP('',(#238,#239,#240,#241,#242,#243));
#461=EDGE_LOOP('',(#244));
#462=EDGE_LOOP('',(#245));
#463=EDGE_LOOP('',(#246,#247,#248,#249));
#464=EDGE_LOOP('',(#250,#251,#252,#253));
#465=EDGE_LOOP('',(#254,#255,#256,#257));
#466=EDGE_LOOP('',(#258));
#467=EDGE_LOOP('',(#259));
#468=EDGE_LOOP('',(#260,#261,#262,#263));
#469=EDGE_LOOP('',(#264,#265,#266,#267));
#470=EDGE_LOOP('',(#268,#269,#270,#271));
#471=EDGE_LOOP('',(#272));
#472=EDGE_LOOP('',(#273));
#473=EDGE_LOOP('',(#274,#275,#276,#277));
#474=EDGE_LOOP('',(#278,#279,#280,#281));
#475=EDGE_LOOP('',(#282,#283,#284,#285));
#476=FACE_BOUND('',#428,.T.);
#477=FACE_BOUND('',#429,.T.);
#478=FACE_BOUND('',#430,.T.);
#479=FACE_BOUND('',#431,.T.);
#480=FACE_BOUND('',#432,.T.);
#481=FACE_BOUND('',#433,.T.);
#482=FACE_BOUND('',#434,.T.);
#483=FACE_BOUND('',#435,.T.);
#484=FACE_BOUND('',#436,.T.);
#485=FACE_BOUND('',#437,.T.);
#486=FACE_BOUND('',#438,.T.);
#487=FACE_BOUND('',#439,.T.);
#488=FACE_BOUND('',#440,.T.);
#489=FACE_BOUND('',#441,.T.);
#490=FACE_BOUND('',#442,.T.);
#491=FACE_BOUND('',#443,.T.);
#492=FACE_BOUND('',#444,.T.);
#493=FACE_BOUND('',#445,.T.);
#494=FACE_BOUND('',#446,.T.);
#495=FACE_BOUND('',#447,.T.);
#496=FACE_BOUND('',#448,.T.);
#497=FACE_BOUND('',#449,.T.);
#498=FACE_BOUND('',#450,.T.);
#499=FACE_BOUND('',#451,.T.);
#500=FACE_BOUND('',#452,.T.);
#501=FACE_BOUND('',#453,.T.);
#502=FACE_BOUND('',#454,.T.);
#503=FACE_BOUND('',#455,.T.);
#504=FACE_BOUND('',#456,.T.);
#505=FACE_BOUND('',#457,.T.);
#506=FACE_BOUND('',#458,.T.);
#507=FACE_BOUND('',#459,.T.);
#508=FACE_BOUND('',#460,.T.);
#509=FACE_BOUND('',#461,.T.);
#510=FACE_BOUND('',#462,.T.);
#511=FACE_BOUND('',#463,.T.);
#512=FACE_BOUND('',#464,.T.);
#513=FACE_BOUND('',#465,.T.);
#514=FACE_BOUND('',#466,.T.);
#515=FACE_BOUND('',#467,.T.);
#516=FACE_BOUND('',#468,.T.);
#517=FACE_BOUND('',#469,.T.);
#518=FACE_BOUND('',#470,.T.);
#519=FACE_BOUND('',#471,.T.);
#520=FACE_BOUND('',#472,.T.);
#521=FACE_BOUND('',#473,.T.);
#522=FACE_BOUND('',#474,.T.);
#523=FACE_BOUND('',#475,.T.);
#524=PLANE('',#580);
#525=PLANE('',#581);
#526=PLANE('',#588);
#527=PLANE('',#597);
#528=PLANE('',#615);
#529=PLANE('',#616);
#530=PLANE('',#617);
#531=PLANE('',#622);
#532=PLANE('',#623);
#533=ADVANCED_FACE('',(#476),#524,.T.);
#534=ADVANCED_FACE('',(#477),#525,.F.);
#535=ADVANCED_FACE('',(#478),#56,.T.);
#536=ADVANCED_FACE('',(#479,#480),#57,.F.);
#537=ADVANCED_FACE('',(#481,#482,#483,#484,#485),#526,.F.);
#538=ADVANCED_FACE('',(#486,#487,#488,#489),#527,.T.);
#539=ADVANCED_FACE('',(#490),#58,.T.);
#540=ADVANCED_FACE('',(#491),#59,.T.);
#541=ADVANCED_FACE('',(#492),#60,.T.);
#542=ADVANCED_FACE('',(#493,#494),#61,.F.);
#543=ADVANCED_FACE('',(#495),#528,.T.);
#544=ADVANCED_FACE('',(#496),#529,.T.);
#545=ADVANCED_FACE('',(#497),#530,.F.);
#546=ADVANCED_FACE('',(#498),#62,.T.);
#547=ADVANCED_FACE('',(#499,#500),#63,.F.);
#548=ADVANCED_FACE('',(#501),#531,.T.);
#549=ADVANCED_FACE('',(#502),#532,.F.);
#550=ADVANCED_FACE('',(#503),#64,.T.);
#551=ADVANCED_FACE('',(#504,#505),#65,.F.);
#552=ADVANCED_FACE('',(#506),#12,.T.);
#553=ADVANCED_FACE('',(#507),#13,.T.);
#554=ADVANCED_FACE('',(#508),#14,.T.);
#555=ADVANCED_FACE('',(#509,#510),#15,.T.);
#556=ADVANCED_FACE('',(#511),#66,.T.);
#557=ADVANCED_FACE('',(#512),#16,.T.);
#558=ADVANCED_FACE('',(#513),#67,.T.);
#559=ADVANCED_FACE('',(#514,#515),#17,.T.);
#560=ADVANCED_FACE('',(#516),#68,.T.);
#561=ADVANCED_FACE('',(#517),#18,.T.);
#562=ADVANCED_FACE('',(#518),#69,.T.);
#563=ADVANCED_FACE('',(#519,#520),#19,.T.);
#564=ADVANCED_FACE('',(#521),#70,.T.);
#565=ADVANCED_FACE('',(#522),#20,.T.);
#566=ADVANCED_FACE('',(#523),#71,.T.);
#567=CLOSED_SHELL('',(#533,#534,#535,#536,#537,#538,#539,#540,#541,#542,
#543,#544,#545,#546,#547,#548,#549,#550,#551,#552,#553,#554,#555,#556,#557,
#558,#559,#560,#561,#562,#563,#564,#565,#566));
#568=STYLED_ITEM('',(#569),#576);
#569=PRESENTATION_STYLE_ASSIGNMENT((#570));
#570=SURFACE_STYLE_USAGE(.BOTH.,#571);
#571=SURFACE_SIDE_STYLE('',(#572));
#572=SURFACE_STYLE_FILL_AREA(#573);
#573=FILL_AREA_STYLE('',(#574));
#574=FILL_AREA_STYLE_COLOUR('',#575);
#575=COLOUR_RGB('',0.647058823529412,0.647058823529412,0.647058823529412);
#576=MANIFOLD_SOLID_BREP('Part 1',#567);
#577=SHAPE_DEFINITION_REPRESENTATION(#1026,#578);
#578=SHAPE_REPRESENTATION('Part 1',(#579),#1021);
#579=AXIS2_PLACEMENT_3D('',#819,#649,#650);
#580=AXIS2_PLACEMENT_3D('',#820,#651,#652);
#581=AXIS2_PLACEMENT_3D('',#834,#657,#658);
#582=AXIS2_PLACEMENT_3D('',#848,#663,#664);
#583=AXIS2_PLACEMENT_3D('',#849,#665,#666);
#584=AXIS2_PLACEMENT_3D('',#850,#667,#668);
#585=AXIS2_PLACEMENT_3D('',#851,#669,#670);
#586=AXIS2_PLACEMENT_3D('',#852,#671,#672);
#587=AXIS2_PLACEMENT_3D('',#854,#673,#674);
#588=AXIS2_PLACEMENT_3D('',#856,#675,#676);
#589=AXIS2_PLACEMENT_3D('',#857,#677,#678);
#590=AXIS2_PLACEMENT_3D('',#859,#679,#680);
#591=AXIS2_PLACEMENT_3D('',#863,#682,#683);
#592=AXIS2_PLACEMENT_3D('',#867,#685,#686);
#593=AXIS2_PLACEMENT_3D('',#871,#688,#689);
#594=AXIS2_PLACEMENT_3D('',#875,#691,#692);
#595=AXIS2_PLACEMENT_3D('',#876,#693,#694);
#596=AXIS2_PLACEMENT_3D('',#878,#695,#696);
#597=AXIS2_PLACEMENT_3D('',#880,#697,#698);
#598=AXIS2_PLACEMENT_3D('',#881,#699,#700);
#599=AXIS2_PLACEMENT_3D('',#883,#701,#702);
#600=AXIS2_PLACEMENT_3D('',#885,#703,#704);
#601=AXIS2_PLACEMENT_3D('',#890,#706,#707);
#602=AXIS2_PLACEMENT_3D('',#894,#709,#710);
#603=AXIS2_PLACEMENT_3D('',#898,#712,#713);
#604=AXIS2_PLACEMENT_3D('',#902,#715,#716);
#605=AXIS2_PLACEMENT_3D('',#906,#718,#719);
#606=AXIS2_PLACEMENT_3D('',#910,#721,#722);
#607=AXIS2_PLACEMENT_3D('',#911,#723,#724);
#608=AXIS2_PLACEMENT_3D('',#912,#725,#726);
#609=AXIS2_PLACEMENT_3D('',#915,#728,#729);
#610=AXIS2_PLACEMENT_3D('',#918,#731,#732);
#611=AXIS2_PLACEMENT_3D('',#919,#733,#734);
#612=AXIS2_PLACEMENT_3D('',#922,#736,#737);
#613=AXIS2_PLACEMENT_3D('',#925,#739,#740);
#614=AXIS2_PLACEMENT_3D('',#926,#741,#742);
#615=AXIS2_PLACEMENT_3D('',#928,#743,#744);
#616=AXIS2_PLACEMENT_3D('',#929,#745,#746);
#617=AXIS2_PLACEMENT_3D('',#938,#749,#750);
#618=AXIS2_PLACEMENT_3D('',#947,#753,#754);
#619=AXIS2_PLACEMENT_3D('',#948,#755,#756);
#620=AXIS2_PLACEMENT_3D('',#949,#757,#758);
#621=AXIS2_PLACEMENT_3D('',#950,#759,#760);
#622=AXIS2_PLACEMENT_3D('',#952,#761,#762);
#623=AXIS2_PLACEMENT_3D('',#961,#765,#766);
#624=AXIS2_PLACEMENT_3D('',#970,#769,#770);
#625=AXIS2_PLACEMENT_3D('',#971,#771,#772);
#626=AXIS2_PLACEMENT_3D('',#972,#773,#774);
#627=AXIS2_PLACEMENT_3D('',#973,#775,#776);
#628=AXIS2_PLACEMENT_3D('',#975,#777,#778);
#629=AXIS2_PLACEMENT_3D('',#984,#779,#780);
#630=AXIS2_PLACEMENT_3D('',#993,#781,#782);
#631=AXIS2_PLACEMENT_3D('',#1002,#783,#784);
#632=AXIS2_PLACEMENT_3D('',#1003,#785,#786);
#633=AXIS2_PLACEMENT_3D('',#1004,#787,#788);
#634=AXIS2_PLACEMENT_3D('',#1005,#789,#790);
#635=AXIS2_PLACEMENT_3D('',#1006,#791,#792);
#636=AXIS2_PLACEMENT_3D('',#1007,#793,#794);
#637=AXIS2_PLACEMENT_3D('',#1008,#795,#796);
#638=AXIS2_PLACEMENT_3D('',#1009,#797,#798);
#639=AXIS2_PLACEMENT_3D('',#1010,#799,#800);
#640=AXIS2_PLACEMENT_3D('',#1011,#801,#802);
#641=AXIS2_PLACEMENT_3D('',#1012,#803,#804);
#642=AXIS2_PLACEMENT_3D('',#1013,#805,#806);
#643=AXIS2_PLACEMENT_3D('',#1014,#807,#808);
#644=AXIS2_PLACEMENT_3D('',#1015,#809,#810);
#645=AXIS2_PLACEMENT_3D('',#1016,#811,#812);
#646=AXIS2_PLACEMENT_3D('',#1017,#813,#814);
#647=AXIS2_PLACEMENT_3D('',#1018,#815,#816);
#648=AXIS2_PLACEMENT_3D('',#1019,#817,#818);
#649=DIRECTION('',(0.,0.,1.));
#650=DIRECTION('',(1.,0.,0.));
#651=DIRECTION('',(0.5,-0.866025403784438,0.));
#652=DIRECTION('',(0.866025403784438,0.5,0.));
#653=DIRECTION('',(0.866025403784438,0.5,0.));
#654=DIRECTION('',(0.,0.,1.));
#655=DIRECTION('',(0.866025403784438,0.5,0.));
#656=DIRECTION('',(0.,0.,-1.));
#657=DIRECTION('',(0.5,-0.866025403784438,0.));
#658=DIRECTION('',(0.866025403784438,0.5,0.));
#659=DIRECTION('',(0.,0.,1.));
#660=DIRECTION('',(0.866025403784438,0.5,0.));
#661=DIRECTION('',(0.,0.,-1.));
#662=DIRECTION('',(0.866025403784438,0.5,0.));
#663=DIRECTION('',(0.,0.,1.));
#664=DIRECTION('',(-0.5,0.866025403784438,0.));
#665=DIRECTION('',(0.,0.,1.));
#666=DIRECTION('',(1.,0.,0.));
#667=DIRECTION('',(0.,0.,1.));
#668=DIRECTION('',(-0.5,0.866025403784438,0.));
#669=DIRECTION('',(0.,0.,1.));
#670=DIRECTION('',(-0.5,0.866025403784438,0.));
#671=DIRECTION('',(0.,0.,1.));
#672=DIRECTION('',(1.,0.,0.));
#673=DIRECTION('',(0.,0.,1.));
#674=DIRECTION('',(-0.5,0.866025403784438,0.));
#675=DIRECTION('',(0.,0.,1.));
#676=DIRECTION('',(-0.5,0.866025403784438,0.));
#677=DIRECTION('',(0.,0.,-1.));
#678=DIRECTION('',(-1.,0.,0.));
#679=DIRECTION('',(0.,0.,1.));
#680=DIRECTION('',(1.,0.,0.));
#681=DIRECTION('',(2.73184799366426E-16,-1.,0.));
#682=DIRECTION('',(0.,0.,1.));
#683=DIRECTION('',(1.,0.,0.));
#684=DIRECTION('',(2.73184799366426E-16,-1.,0.));
#685=DIRECTION('',(0.,0.,1.));
#686=DIRECTION('',(1.,0.,0.));
#687=DIRECTION('',(-0.866025403784439,0.5,0.));
#688=DIRECTION('',(0.,0.,1.));
#689=DIRECTION('',(-0.5,-0.866025403784439,0.));
#690=DIRECTION('',(-0.866025403784439,0.5,0.));
#691=DIRECTION('',(0.,0.,1.));
#692=DIRECTION('',(1.,0.,0.));
#693=DIRECTION('',(0.,0.,1.));
#694=DIRECTION('',(1.,0.,0.));
#695=DIRECTION('',(0.,0.,1.));
#696=DIRECTION('',(-0.5,-0.866025403784439,0.));
#697=DIRECTION('',(0.,0.,1.));
#698=DIRECTION('',(-0.5,0.866025403784438,0.));
#699=DIRECTION('',(0.,0.,1.));
#700=DIRECTION('',(1.,0.,0.));
#701=DIRECTION('',(0.,0.,1.));
#702=DIRECTION('',(1.,0.,0.));
#703=DIRECTION('',(0.,0.,1.));
#704=DIRECTION('',(1.,0.,0.));
#705=DIRECTION('',(0.866025403784438,0.5,0.));
#706=DIRECTION('',(0.,0.,1.));
#707=DIRECTION('',(1.,0.,0.));
#708=DIRECTION('',(-0.866025403784439,0.5,0.));
#709=DIRECTION('',(0.,0.,1.));
#710=DIRECTION('',(1.,0.,0.));
#711=DIRECTION('',(-0.866025403784439,0.5,0.));
#712=DIRECTION('',(0.,0.,1.));
#713=DIRECTION('',(1.,0.,0.));
#714=DIRECTION('',(2.73184799366426E-16,-1.,0.));
#715=DIRECTION('',(0.,0.,1.));
#716=DIRECTION('',(1.,0.,0.));
#717=DIRECTION('',(2.73184799366426E-16,-1.,0.));
#718=DIRECTION('',(0.,0.,1.));
#719=DIRECTION('',(1.,0.,0.));
#720=DIRECTION('',(0.866025403784438,0.5,0.));
#721=DIRECTION('',(0.,0.,1.));
#722=DIRECTION('',(1.,0.,0.));
#723=DIRECTION('',(0.,0.,-1.));
#724=DIRECTION('',(-1.,0.,0.));
#725=DIRECTION('',(0.,0.,1.));
#726=DIRECTION('',(1.,0.,0.));
#727=DIRECTION('',(0.,0.,-1.));
#728=DIRECTION('',(0.,0.,-1.));
#729=DIRECTION('',(-1.,0.,0.));
#730=DIRECTION('',(0.,0.,-1.));
#731=DIRECTION('',(0.,0.,1.));
#732=DIRECTION('',(1.,0.,0.));
#733=DIRECTION('',(0.,0.,-1.));
#734=DIRECTION('',(-1.,0.,0.));
#735=DIRECTION('',(0.,0.,-1.));
#736=DIRECTION('',(0.,0.,1.));
#737=DIRECTION('',(1.,0.,0.));
#738=DIRECTION('',(0.,0.,-1.));
#739=DIRECTION('',(0.,0.,-1.));
#740=DIRECTION('',(-1.,0.,0.));
#741=DIRECTION('',(0.,0.,-1.));
#742=DIRECTION('',(-1.,0.,0.));
#743=DIRECTION('',(0.,0.,-1.));
#744=DIRECTION('',(1.,0.,0.));
#745=DIRECTION('',(-1.,-2.73184799366426E-16,0.));
#746=DIRECTION('',(2.73184799366426E-16,-1.,0.));
#747=DIRECTION('',(2.73184799366426E-16,-1.,0.));
#748=DIRECTION('',(0.,0.,1.));
#749=DIRECTION('',(-1.,-2.73184799366426E-16,0.));
#750=DIRECTION('',(2.73184799366426E-16,-1.,0.));
#751=DIRECTION('',(0.,0.,1.));
#752=DIRECTION('',(2.73184799366426E-16,-1.,0.));
#753=DIRECTION('',(0.,0.,1.));
#754=DIRECTION('',(1.,0.,0.));
#755=DIRECTION('',(0.,0.,1.));
#756=DIRECTION('',(1.,0.,0.));
#757=DIRECTION('',(0.,0.,1.));
#758=DIRECTION('',(1.,0.,0.));
#759=DIRECTION('',(0.,0.,1.));
#760=DIRECTION('',(1.,0.,0.));
#761=DIRECTION('',(0.5,0.866025403784439,0.));
#762=DIRECTION('',(-0.866025403784439,0.5,0.));
#763=DIRECTION('',(-0.866025403784439,0.5,0.));
#764=DIRECTION('',(0.,0.,1.));
#765=DIRECTION('',(0.5,0.866025403784439,0.));
#766=DIRECTION('',(-0.866025403784439,0.5,0.));
#767=DIRECTION('',(0.,0.,1.));
#768=DIRECTION('',(-0.866025403784439,0.5,0.));
#769=DIRECTION('',(0.,0.,1.));
#770=DIRECTION('',(-0.5,-0.866025403784439,0.));
#771=DIRECTION('',(0.,0.,1.));
#772=DIRECTION('',(1.,0.,0.));
#773=DIRECTION('',(0.,0.,1.));
#774=DIRECTION('',(-0.5,-0.866025403784439,0.));
#775=DIRECTION('',(0.,0.,1.));
#776=DIRECTION('',(1.,0.,0.));
#777=DIRECTION('',(0.,0.,1.));
#778=DIRECTION('',(1.,0.,0.));
#779=DIRECTION('',(0.,0.,1.));
#780=DIRECTION('',(1.,0.,0.));
#781=DIRECTION('',(0.,0.,1.));
#782=DIRECTION('',(1.,0.,0.));
#783=DIRECTION('',(0.,0.,1.));
#784=DIRECTION('',(1.,0.,0.));
#785=DIRECTION('',(0.866025403784438,0.5,0.));
#786=DIRECTION('',(-0.5,0.866025403784438,0.));
#787=DIRECTION('',(-0.866025403784438,-0.5,1.70740499604017E-15));
#788=DIRECTION('',(0.5,-0.866025403784438,0.));
#789=DIRECTION('',(0.,0.,1.));
#790=DIRECTION('',(1.,0.,0.));
#791=DIRECTION('',(0.866025403784438,0.5,-8.53702498020084E-16));
#792=DIRECTION('',(-0.5,0.866025403784438,0.));
#793=DIRECTION('',(-0.866025403784438,-0.5,0.));
#794=DIRECTION('',(0.5,-0.866025403784438,0.));
#795=DIRECTION('',(0.,0.,1.));
#796=DIRECTION('',(1.,0.,0.));
#797=DIRECTION('',(-0.866025403784439,0.5,0.));
#798=DIRECTION('',(-0.5,-0.866025403784439,0.));
#799=DIRECTION('',(0.866025403784438,-0.5,2.56110749406026E-15));
#800=DIRECTION('',(0.5,0.866025403784438,0.));
#801=DIRECTION('',(0.,0.,1.));
#802=DIRECTION('',(1.,0.,0.));
#803=DIRECTION('',(-0.866025403784438,0.5,1.70740499604017E-15));
#804=DIRECTION('',(-0.5,-0.866025403784439,0.));
#805=DIRECTION('',(0.866025403784439,-0.5,0.));
#806=DIRECTION('',(0.5,0.866025403784439,0.));
#807=DIRECTION('',(0.,0.,1.));
#808=DIRECTION('',(1.,0.,0.));
#809=DIRECTION('',(2.73184799366426E-16,-1.,0.));
#810=DIRECTION('',(1.,2.73184799366426E-16,0.));
#811=DIRECTION('',(0.,1.,0.));
#812=DIRECTION('',(0.,0.,1.));
#813=DIRECTION('',(0.,0.,1.));
#814=DIRECTION('',(1.,0.,0.));
#815=DIRECTION('',(0.,-1.,0.));
#816=DIRECTION('',(0.,0.,-1.));
#817=DIRECTION('',(-2.73184799366426E-16,1.,0.));
#818=DIRECTION('',(-1.,-2.73184799366426E-16,0.));
#819=CARTESIAN_POINT('',(0.,0.,0.));
#820=CARTESIAN_POINT('',(-0.0140212839420935,-0.0138144238249443,0.));
#821=CARTESIAN_POINT('',(-0.0134539023254279,-0.0134868458958292,0.009525));
#822=CARTESIAN_POINT('',(-0.0134539023254279,-0.0134868458958292,0.0106019116906578));
#823=CARTESIAN_POINT('',(-0.0129373975036486,-0.0131886416979371,0.0116266391490222));
#824=CARTESIAN_POINT('',(-0.012147467967421,-0.0127325756675553,0.0121919999999885));
#825=CARTESIAN_POINT('',(-0.0134539023254279,-0.0134868458958292,0.009525));
#826=CARTESIAN_POINT('',(-0.012147467967421,-0.0127325756675553,0.0121919999999885));
#827=CARTESIAN_POINT('',(-0.0140212839420935,-0.0138144238249443,0.012192));
#828=CARTESIAN_POINT('',(-0.0167709145991092,-0.0154019238249444,0.012192));
#829=CARTESIAN_POINT('',(-0.0167709145991092,-0.0154019238249444,0.));
#830=CARTESIAN_POINT('',(-0.0167709145991092,-0.0154019238249444,0.));
#831=CARTESIAN_POINT('',(-0.0140212839420935,-0.0138144238249443,0.));
#832=CARTESIAN_POINT('',(-0.0134539023254279,-0.0134868458958292,0.));
#833=CARTESIAN_POINT('',(-0.0134539023254279,-0.0134868458958292,0.0127));
#834=CARTESIAN_POINT('',(-0.0189742839420936,-0.00523557617505568,0.));
#835=CARTESIAN_POINT('',(-0.0217239145991092,-0.00682307617505569,0.));
#836=CARTESIAN_POINT('',(-0.0217239145991092,-0.00682307617505569,0.));
#837=CARTESIAN_POINT('',(-0.0217239145991092,-0.00682307617505569,0.012192));
#838=CARTESIAN_POINT('',(-0.0155383743677927,-0.00325185285742187,0.012192));
#839=CARTESIAN_POINT('',(-0.0171004679674049,-0.00415372801765738,0.012192));
#840=CARTESIAN_POINT('',(-0.0171004679674049,-0.00415372801765737,0.012192));
#841=CARTESIAN_POINT('',(-0.0178810660805116,-0.00460440654838844,0.0116333177464034));
#842=CARTESIAN_POINT('',(-0.018406902325428,-0.00490799824594055,0.0106014993354326));
#843=CARTESIAN_POINT('',(-0.018406902325428,-0.00490799824594055,0.009525));
#844=CARTESIAN_POINT('',(-0.018406902325428,-0.00490799824594055,0.009525));
#845=CARTESIAN_POINT('',(-0.018406902325428,-0.00490799824594055,0.0127));
#846=CARTESIAN_POINT('',(-0.018406902325428,-0.00490799824594055,0.));
#847=CARTESIAN_POINT('',(-0.0189742839420936,-0.00523557617505568,0.));
#848=CARTESIAN_POINT('',(-0.0192474145991092,-0.0111125,0.));
#849=CARTESIAN_POINT('',(-0.0192474145991092,-0.0111125,0.012192));
#850=CARTESIAN_POINT('',(-0.0192474145991092,-0.0111125,0.));
#851=CARTESIAN_POINT('',(-0.0192474145991092,-0.0111125,0.));
#852=CARTESIAN_POINT('',(-0.0192474145991092,-0.0111125,0.012192));
#853=CARTESIAN_POINT('',(-0.0169995145991092,-0.0111125,0.012192));
#854=CARTESIAN_POINT('',(-0.0192474145991092,-0.0111125,0.));
#855=CARTESIAN_POINT('',(-0.0203713645991092,-0.00916576149483296,0.));
#856=CARTESIAN_POINT('',(-0.00351952724097996,-0.002032,0.));
#857=CARTESIAN_POINT('',(0.,-9.72063396823212E-19,0.));
#858=CARTESIAN_POINT('',(-0.015875,-9.72063396823212E-19,0.));
#859=CARTESIAN_POINT('',(0.,1.16647607618785E-18,0.));
#860=CARTESIAN_POINT('',(-0.004953,0.0183948441417698,0.));
#861=CARTESIAN_POINT('',(-0.004953,0.01905,0.));
#862=CARTESIAN_POINT('',(-0.004953,0.022225,0.));
#863=CARTESIAN_POINT('',(-8.67361737988404E-19,0.022225,0.));
#864=CARTESIAN_POINT('',(0.004953,0.022225,0.));
#865=CARTESIAN_POINT('',(0.004953,0.01905,0.));
#866=CARTESIAN_POINT('',(0.004953,0.0183948441417698,0.));
#867=CARTESIAN_POINT('',(0.,1.16647607618785E-18,0.));
#868=CARTESIAN_POINT('',(0.018406902325428,-0.00490799824594053,0.));
#869=CARTESIAN_POINT('',(0.0189742839420936,-0.00523557617505567,0.));
#870=CARTESIAN_POINT('',(0.0217239145991092,-0.00682307617505567,0.));
#871=CARTESIAN_POINT('',(0.0192474145991092,-0.0111125,0.));
#872=CARTESIAN_POINT('',(0.0167709145991092,-0.0154019238249443,0.));
#873=CARTESIAN_POINT('',(0.0140212839420936,-0.0138144238249443,0.));
#874=CARTESIAN_POINT('',(0.0134539023254279,-0.0134868458958292,0.));
#875=CARTESIAN_POINT('',(0.,1.16647607618785E-18,0.));
#876=CARTESIAN_POINT('',(-8.67361737988404E-19,0.022225,0.));
#877=CARTESIAN_POINT('',(0.0022479,0.022225,0.));
#878=CARTESIAN_POINT('',(0.0192474145991092,-0.0111125,0.));
#879=CARTESIAN_POINT('',(0.0181234645991092,-0.013059238505167,0.));
#880=CARTESIAN_POINT('',(-0.00351952724097996,-0.002032,0.0127));
#881=CARTESIAN_POINT('',(-0.0192474145991092,-0.0111125,0.0127));
#882=CARTESIAN_POINT('',(-0.0164915145991092,-0.0111125,0.0127));
#883=CARTESIAN_POINT('',(0.0192474145991092,-0.0111125,0.0127));
#884=CARTESIAN_POINT('',(0.0220033145991092,-0.0111125,0.0127));
#885=CARTESIAN_POINT('',(-8.67361737988404E-19,0.022225,0.0127));
#886=CARTESIAN_POINT('',(0.0027559,0.022225,0.0127));
#887=CARTESIAN_POINT('',(-0.00129702724097996,-0.00588148291982183,0.0127));
#888=CARTESIAN_POINT('',(-0.0170249145991091,-0.0149619829198218,0.0127));
#889=CARTESIAN_POINT('',(-0.0109757271536748,-0.0114694829198218,0.0127));
#890=CARTESIAN_POINT('',(0.,1.16647607618785E-18,0.0127));
#891=CARTESIAN_POINT('',(0.0109757271536748,-0.0114694829198218,0.0127));
#892=CARTESIAN_POINT('',(0.0170249145991091,-0.0149619829198218,0.0127));
#893=CARTESIAN_POINT('',(0.0170249145991091,-0.0149619829198218,0.0127));
#894=CARTESIAN_POINT('',(0.0192474145991092,-0.0111125,0.0127));
#895=CARTESIAN_POINT('',(0.0214699145991092,-0.00726301708017816,0.0127));
#896=CARTESIAN_POINT('',(0.000462736379510016,0.00486548291982183,0.0127));
#897=CARTESIAN_POINT('',(0.0154207271536749,-0.00377051708017817,0.0127));
#898=CARTESIAN_POINT('',(0.,1.16647607618785E-18,0.0127));
#899=CARTESIAN_POINT('',(0.004445,0.01524,0.0127));
#900=CARTESIAN_POINT('',(0.004445,0.022225,0.0127));
#901=CARTESIAN_POINT('',(0.004445,0.022225,0.0127));
#902=CARTESIAN_POINT('',(-8.67361737988404E-19,0.022225,0.0127));
#903=CARTESIAN_POINT('',(-0.004445,0.022225,0.0127));
#904=CARTESIAN_POINT('',(-0.004445,-0.002032,0.0127));
#905=CARTESIAN_POINT('',(-0.004445,0.01524,0.0127));
#906=CARTESIAN_POINT('',(0.,1.16647607618785E-18,0.0127));
#907=CARTESIAN_POINT('',(-0.0154207271536749,-0.00377051708017818,0.0127));
#908=CARTESIAN_POINT('',(-0.0214699145991092,-0.00726301708017818,0.0127));
#909=CARTESIAN_POINT('',(-0.0214699145991092,-0.00726301708017818,0.0127));
#910=CARTESIAN_POINT('',(-0.0192474145991092,-0.0111125,0.0127));
#911=CARTESIAN_POINT('',(0.,1.16647607618785E-18,0.0127));
#912=CARTESIAN_POINT('',(0.,1.16647607618785E-18,0.009525));
#913=CARTESIAN_POINT('',(-0.004953,0.0183948441417697,0.009525));
#914=CARTESIAN_POINT('',(-0.004953,0.0183948441417697,0.0127));
#915=CARTESIAN_POINT('',(0.,1.16647607618785E-18,0.0127));
#916=CARTESIAN_POINT('',(0.0134539023254279,-0.0134868458958292,0.0127));
#917=CARTESIAN_POINT('',(0.0134539023254279,-0.0134868458958292,0.009525));
#918=CARTESIAN_POINT('',(0.,1.16647607618785E-18,0.009525));
#919=CARTESIAN_POINT('',(0.,1.16647607618785E-18,0.0127));
#920=CARTESIAN_POINT('',(0.004953,0.0183948441417697,0.0127));
#921=CARTESIAN_POINT('',(0.004953,0.0183948441417697,0.009525));
#922=CARTESIAN_POINT('',(0.,1.16647607618785E-18,0.009525));
#923=CARTESIAN_POINT('',(0.018406902325428,-0.00490799824594053,0.009525));
#924=CARTESIAN_POINT('',(0.018406902325428,-0.00490799824594053,0.0127));
#925=CARTESIAN_POINT('',(0.,-9.72063396823212E-19,0.00762));
#926=CARTESIAN_POINT('',(0.,-9.72063396823212E-19,0.00762));
#927=CARTESIAN_POINT('',(-0.015875,-9.72063396823212E-19,0.00762));
#928=CARTESIAN_POINT('',(0.,0.,0.00762));
#929=CARTESIAN_POINT('',(-0.004953,0.01905,0.));
#930=CARTESIAN_POINT('',(-0.004953,0.0183948441417698,0.009525));
#931=CARTESIAN_POINT('',(-0.004953,0.0183948441417698,0.0106019116906581));
#932=CARTESIAN_POINT('',(-0.004953,0.0177984357459852,0.0116266391490228));
#933=CARTESIAN_POINT('',(-0.004953,0.0168863036852212,0.012191999999989));
#934=CARTESIAN_POINT('',(-0.004953,0.0168863036852212,0.0121919999999889));
#935=CARTESIAN_POINT('',(-0.004953,0.01905,0.012192));
#936=CARTESIAN_POINT('',(-0.004953,0.022225,0.012192));
#937=CARTESIAN_POINT('',(-0.004953,0.022225,0.));
#938=CARTESIAN_POINT('',(0.004953,0.01905,0.));
#939=CARTESIAN_POINT('',(0.004953,0.022225,0.));
#940=CARTESIAN_POINT('',(0.004953,0.022225,0.012192));
#941=CARTESIAN_POINT('',(0.004953,0.0150825533647324,0.012192));
#942=CARTESIAN_POINT('',(0.004953,0.0168863036852034,0.012192));
#943=CARTESIAN_POINT('',(0.004953,0.0168863036852034,0.012192));
#944=CARTESIAN_POINT('',(0.004953,0.0177876607466655,0.0116333177464034));
#945=CARTESIAN_POINT('',(0.004953,0.0183948441417697,0.0106014993354326));
#946=CARTESIAN_POINT('',(0.004953,0.0183948441417697,0.009525));
#947=CARTESIAN_POINT('',(-8.67361737988404E-19,0.022225,0.));
#948=CARTESIAN_POINT('',(-8.67361737988404E-19,0.022225,0.012192));
#949=CARTESIAN_POINT('',(-8.67361737988404E-19,0.022225,0.));
#950=CARTESIAN_POINT('',(-8.67361737988404E-19,0.022225,0.012192));
#951=CARTESIAN_POINT('',(0.0022479,0.022225,0.012192));
#952=CARTESIAN_POINT('',(0.0189742839420936,-0.00523557617505567,0.));
#953=CARTESIAN_POINT('',(0.018406902325428,-0.00490799824594053,0.009525));
#954=CARTESIAN_POINT('',(0.018406902325428,-0.00490799824594053,0.0106019116906575));
#955=CARTESIAN_POINT('',(0.0178903975036489,-0.00460979404804867,0.0116266391490217));
#956=CARTESIAN_POINT('',(0.0171004679674216,-0.004153728017667,0.0121919999999881));
#957=CARTESIAN_POINT('',(0.0171004679674216,-0.00415372801766699,0.0121919999999881));
#958=CARTESIAN_POINT('',(0.0189742839420936,-0.00523557617505567,0.012192));
#959=CARTESIAN_POINT('',(0.0217239145991092,-0.00682307617505567,0.012192));
#960=CARTESIAN_POINT('',(0.0217239145991092,-0.00682307617505567,0.));
#961=CARTESIAN_POINT('',(0.0140212839420936,-0.0138144238249443,0.));
#962=CARTESIAN_POINT('',(0.0167709145991092,-0.0154019238249443,0.));
#963=CARTESIAN_POINT('',(0.0167709145991092,-0.0154019238249443,0.012192));
#964=CARTESIAN_POINT('',(0.0105853743677927,-0.0118307005073105,0.012192));
#965=CARTESIAN_POINT('',(0.0121474679674049,-0.012732575667546,0.012192));
#966=CARTESIAN_POINT('',(0.0121474679674049,-0.012732575667546,0.012192));
#967=CARTESIAN_POINT('',(0.0129280660805116,-0.0131832541982771,0.0116333177464034));
#968=CARTESIAN_POINT('',(0.0134539023254279,-0.0134868458958292,0.0106014993354326));
#969=CARTESIAN_POINT('',(0.0134539023254279,-0.0134868458958292,0.009525));
#970=CARTESIAN_POINT('',(0.0192474145991092,-0.0111125,0.));
#971=CARTESIAN_POINT('',(0.0192474145991092,-0.0111125,0.012192));
#972=CARTESIAN_POINT('',(0.0192474145991092,-0.0111125,0.));
#973=CARTESIAN_POINT('',(0.0192474145991092,-0.0111125,0.012192));
#974=CARTESIAN_POINT('',(0.0214953145991092,-0.0111125,0.012192));
#975=CARTESIAN_POINT('',(0.,1.16647607618785E-18,0.009525));
#976=CARTESIAN_POINT('',(-0.0171004679674049,-0.00415372801765738,0.012192));
#977=CARTESIAN_POINT('',(-0.0166458703201526,-0.00389126594364331,0.012517360302289));
#978=CARTESIAN_POINT('',(-0.0160251721580846,-0.00384061252058259,0.0127));
#979=CARTESIAN_POINT('',(-0.0154207271536749,-0.00377051708017818,0.0127));
#980=CARTESIAN_POINT('',(-0.004953,0.0168863036852212,0.012192));
#981=CARTESIAN_POINT('',(-0.004953,0.0163613795371907,0.0125173603022937));
#982=CARTESIAN_POINT('',(-0.00468651807012709,0.015798512449215,0.0127));
#983=CARTESIAN_POINT('',(-0.004445,0.01524,0.0127));
#984=CARTESIAN_POINT('',(0.,1.16647607618785E-18,0.009525));
#985=CARTESIAN_POINT('',(0.0121474679674049,-0.012732575667546,0.012192));
#986=CARTESIAN_POINT('',(0.0116928703201526,-0.0124701135935319,0.012517360302289));
#987=CARTESIAN_POINT('',(0.0113386540879589,-0.0119578999286294,0.0127));
#988=CARTESIAN_POINT('',(0.0109757271536748,-0.0114694829198218,0.0127));
#989=CARTESIAN_POINT('',(-0.012147467967421,-0.0127325756675553,0.012192));
#990=CARTESIAN_POINT('',(-0.0116928703201665,-0.01247011359354,0.0125173603022939));
#991=CARTESIAN_POINT('',(-0.011338654087962,-0.0119578999286321,0.0127));
#992=CARTESIAN_POINT('',(-0.0109757271536748,-0.0114694829198218,0.0127));
#993=CARTESIAN_POINT('',(0.,1.16647607618785E-18,0.009525));
#994=CARTESIAN_POINT('',(0.004953,0.0168863036852034,0.012192));
#995=CARTESIAN_POINT('',(0.004953,0.0163613795371752,0.012517360302289));
#996=CARTESIAN_POINT('',(0.00468651807012579,0.0157985124492114,0.0127));
#997=CARTESIAN_POINT('',(0.004445,0.01524,0.0127));
#998=CARTESIAN_POINT('',(0.0171004679674216,-0.00415372801766699,0.012192));
#999=CARTESIAN_POINT('',(0.0166458703201671,-0.00389126594365165,0.0125173603022941));
#1000=CARTESIAN_POINT('',(0.0160251721580887,-0.0038406125205828,0.0127));
#1001=CARTESIAN_POINT('',(0.0154207271536749,-0.00377051708017817,0.0127));
#1002=CARTESIAN_POINT('',(-0.0192474145991092,-0.0111125,0.012192));
#1003=CARTESIAN_POINT('',(-0.00129702724097996,-0.00588148291982183,0.012192));
#1004=CARTESIAN_POINT('',(-0.0170249145991091,-0.0149619829198218,0.012192));
#1005=CARTESIAN_POINT('',(-0.0192474145991092,-0.0111125,0.012192));
#1006=CARTESIAN_POINT('',(-0.0214699145991092,-0.00726301708017818,0.012192));
#1007=CARTESIAN_POINT('',(-0.0187202839420935,-0.00567551708017818,0.012192));
#1008=CARTESIAN_POINT('',(0.0192474145991092,-0.0111125,0.012192));
#1009=CARTESIAN_POINT('',(0.000462736379510016,0.00486548291982183,0.012192));
#1010=CARTESIAN_POINT('',(0.0214699145991092,-0.00726301708017816,0.012192));
#1011=CARTESIAN_POINT('',(0.0192474145991092,-0.0111125,0.012192));
#1012=CARTESIAN_POINT('',(0.0170249145991091,-0.0149619829198218,0.012192));
#1013=CARTESIAN_POINT('',(0.0142752839420936,-0.0133744829198218,0.012192));
#1014=CARTESIAN_POINT('',(-8.67361737988404E-19,0.022225,0.012192));
#1015=CARTESIAN_POINT('',(-0.004445,-0.002032,0.012192));
#1016=CARTESIAN_POINT('',(-0.004445,0.022225,0.012192));
#1017=CARTESIAN_POINT('',(-8.67361737988404E-19,0.022225,0.012192));
#1018=CARTESIAN_POINT('',(0.004445,0.022225,0.012192));
#1019=CARTESIAN_POINT('',(0.004445,0.01905,0.012192));
#1020=MECHANICAL_DESIGN_GEOMETRIC_PRESENTATION_REPRESENTATION('',(#568),
#1021);
#1021=(
GEOMETRIC_REPRESENTATION_CONTEXT(3)
GLOBAL_UNCERTAINTY_ASSIGNED_CONTEXT((#1022))
GLOBAL_UNIT_ASSIGNED_CONTEXT((#1025,#1024,#1023))
REPRESENTATION_CONTEXT('Part 1','TOP_LEVEL_ASSEMBLY_PART')
);
#1022=UNCERTAINTY_MEASURE_WITH_UNIT(LENGTH_MEASURE(2.E-5),#1025,
'DISTANCE_ACCURACY_VALUE','Maximum Tolerance applied to model');
#1023=(
NAMED_UNIT(*)
SI_UNIT($,.STERADIAN.)
SOLID_ANGLE_UNIT()
);
#1024=(
NAMED_UNIT(*)
PLANE_ANGLE_UNIT()
SI_UNIT($,.RADIAN.)
);
#1025=(
LENGTH_UNIT()
NAMED_UNIT(*)
SI_UNIT($,.METRE.)
);
#1026=PRODUCT_DEFINITION_SHAPE('','',#1027);
#1027=PRODUCT_DEFINITION('','',#1029,#1028);
#1028=PRODUCT_DEFINITION_CONTEXT('',#1035,'design');
#1029=PRODUCT_DEFINITION_FORMATION_WITH_SPECIFIED_SOURCE('','',#1031,
 .NOT_KNOWN.);
#1030=PRODUCT_RELATED_PRODUCT_CATEGORY('','',(#1031));
#1031=PRODUCT('Part 1','Part 1','Part 1',(#1033));
#1032=PRODUCT_CATEGORY('','');
#1033=PRODUCT_CONTEXT('',#1035,'mechanical');
#1034=APPLICATION_PROTOCOL_DEFINITION('international standard',
'ap242_managed_model_based_3d_engineering',2020,#1035);
#1035=APPLICATION_CONTEXT('managed model based 3d engineering');
ENDSEC;
END-ISO-10303-21;
