ISO-10303-21;
HEADER;
/* Generated by software containing ST-Developer
 * from STEP Tools, Inc. (www.steptools.com) 
 */

FILE_DESCRIPTION(
/* description */ (''),
/* implementation_level */ '2;1');

FILE_NAME(
/* name */ 'bodyturbid.step',
/* time_stamp */ '2026-10-08T08:42:23-07:00',
/* author */ (''),
/* organization */ (''),
/* preprocessor_version */ 'ST-DEVELOPER v20.2',
/* originating_system */ 'Autodesk Translation Framework v15.15.0.0',
/* authorisation */ '');

FILE_SCHEMA (('AUTOMOTIVE_DESIGN { 1 0 10303 214 3 1 1 }'));
ENDSEC;

DATA;
#10=MECHANICAL_DESIGN_GEOMETRIC_PRESENTATION_REPRESENTATION('',(#13),#801);
#11=SHAPE_REPRESENTATION_RELATIONSHIP('SRR','None',#811,#12);
#12=ADVANCED_BREP_SHAPE_REPRESENTATION('',(#14),#800);
#13=STYLED_ITEM('',(#820),#14);
#14=MANIFOLD_SOLID_BREP('Body1',#399);
#15=FACE_BOUND('',#76,.T.);
#16=FACE_BOUND('',#85,.T.);
#17=FACE_BOUND('',#87,.T.);
#18=FACE_BOUND('',#88,.T.);
#19=FACE_BOUND('',#89,.T.);
#20=FACE_BOUND('',#90,.T.);
#21=FACE_BOUND('',#91,.T.);
#22=FACE_BOUND('',#92,.T.);
#23=FACE_BOUND('',#93,.T.);
#24=FACE_BOUND('',#97,.T.);
#25=B_SPLINE_CURVE_WITH_KNOTS('',3,(#620,#621,#622,#623,#624,#625,#626,
#627,#628,#629,#630,#631,#632,#633),.UNSPECIFIED.,.F.,.F.,(4,2,2,2,2,2,
4),(0.410280731293692,0.414510696374841,0.474870325970349,0.535229955565857,
0.595589585161365,0.655949214756873,0.660179179838022),.UNSPECIFIED.);
#26=B_SPLINE_CURVE_WITH_KNOTS('',3,(#642,#643,#644,#645,#646,#647,#648,
#649,#650,#651,#652,#653,#654,#655),.UNSPECIFIED.,.F.,.F.,(4,2,2,2,2,2,
4),(0.410280731293691,0.414510696374841,0.474870325970349,0.535229955565856,
0.595589585161364,0.655949214756872,0.660179179838021),.UNSPECIFIED.);
#27=B_SPLINE_CURVE_WITH_KNOTS('',3,(#659,#660,#661,#662,#663,#664,#665,
#666,#667,#668,#669,#670,#671,#672),.UNSPECIFIED.,.F.,.F.,(4,2,2,2,2,2,
4),(0.410280731293691,0.414510696374841,0.474870325970348,0.535229955565856,
0.595589585161364,0.655949214756872,0.660179179838021),.UNSPECIFIED.);
#28=B_SPLINE_CURVE_WITH_KNOTS('',3,(#676,#677,#678,#679,#680,#681,#682,
#683,#684,#685,#686,#687,#688,#689),.UNSPECIFIED.,.F.,.F.,(4,2,2,2,2,2,
4),(0.410280731293692,0.414510696374841,0.474870325970349,0.535229955565856,
0.595589585161364,0.655949214756872,0.660179179838022),.UNSPECIFIED.);
#29=B_SPLINE_CURVE_WITH_KNOTS('',3,(#693,#694,#695,#696,#697,#698,#699,
#700,#701,#702,#703,#704,#705,#706),.UNSPECIFIED.,.F.,.F.,(4,2,2,2,2,2,
4),(0.410280731293693,0.414510696374841,0.474870325970349,0.535229955565857,
0.595589585161365,0.655949214756873,0.660179179838022),.UNSPECIFIED.);
#30=B_SPLINE_CURVE_WITH_KNOTS('',3,(#710,#711,#712,#713,#714,#715,#716,
#717,#718,#719,#720,#721,#722,#723),.UNSPECIFIED.,.F.,.F.,(4,2,2,2,2,2,
4),(0.410280731293691,0.414510696374841,0.474870325970349,0.535229955565857,
0.595589585161365,0.655949214756872,0.660179179838022),.UNSPECIFIED.);
#31=PLANE('',#419);
#32=PLANE('',#441);
#33=PLANE('',#464);
#34=PLANE('',#465);
#35=PLANE('',#466);
#36=PLANE('',#470);
#37=CYLINDRICAL_SURFACE('',#416,1.1);
#38=CYLINDRICAL_SURFACE('',#429,0.11);
#39=CYLINDRICAL_SURFACE('',#433,0.11);
#40=CYLINDRICAL_SURFACE('',#437,0.11);
#41=CYLINDRICAL_SURFACE('',#449,1.75);
#42=CYLINDRICAL_SURFACE('',#452,0.11);
#43=CYLINDRICAL_SURFACE('',#454,0.11);
#44=CYLINDRICAL_SURFACE('',#456,0.11);
#45=CYLINDRICAL_SURFACE('',#458,1.125);
#46=CYLINDRICAL_SURFACE('',#461,1.37);
#47=CYLINDRICAL_SURFACE('',#468,1.025);
#48=FACE_OUTER_BOUND('',#68,.T.);
#49=FACE_OUTER_BOUND('',#69,.T.);
#50=FACE_OUTER_BOUND('',#70,.T.);
#51=FACE_OUTER_BOUND('',#71,.T.);
#52=FACE_OUTER_BOUND('',#72,.T.);
#53=FACE_OUTER_BOUND('',#73,.T.);
#54=FACE_OUTER_BOUND('',#74,.T.);
#55=FACE_OUTER_BOUND('',#75,.T.);
#56=FACE_OUTER_BOUND('',#77,.T.);
#57=FACE_OUTER_BOUND('',#78,.T.);
#58=FACE_OUTER_BOUND('',#79,.T.);
#59=FACE_OUTER_BOUND('',#80,.T.);
#60=FACE_OUTER_BOUND('',#81,.T.);
#61=FACE_OUTER_BOUND('',#82,.T.);
#62=FACE_OUTER_BOUND('',#83,.T.);
#63=FACE_OUTER_BOUND('',#84,.T.);
#64=FACE_OUTER_BOUND('',#86,.T.);
#65=FACE_OUTER_BOUND('',#94,.T.);
#66=FACE_OUTER_BOUND('',#95,.T.);
#67=FACE_OUTER_BOUND('',#96,.T.);
#68=EDGE_LOOP('',(#260,#261,#262,#263));
#69=EDGE_LOOP('',(#264,#265,#266,#267,#268));
#70=EDGE_LOOP('',(#269));
#71=EDGE_LOOP('',(#270,#271,#272,#273,#274,#275,#276,#277,#278,#279,#280,
#281,#282,#283,#284,#285));
#72=EDGE_LOOP('',(#286,#287,#288,#289,#290,#291));
#73=EDGE_LOOP('',(#292,#293,#294,#295,#296,#297));
#74=EDGE_LOOP('',(#298,#299,#300,#301,#302,#303));
#75=EDGE_LOOP('',(#304,#305,#306,#307,#308,#309,#310,#311,#312,#313,#314,
#315,#316,#317,#318,#319,#320,#321,#322));
#76=EDGE_LOOP('',(#323));
#77=EDGE_LOOP('',(#324,#325,#326,#327));
#78=EDGE_LOOP('',(#328,#329,#330,#331,#332));
#79=EDGE_LOOP('',(#333,#334,#335,#336,#337,#338));
#80=EDGE_LOOP('',(#339,#340,#341,#342,#343,#344));
#81=EDGE_LOOP('',(#345,#346,#347,#348,#349,#350));
#82=EDGE_LOOP('',(#351,#352,#353,#354));
#83=EDGE_LOOP('',(#355,#356,#357,#358));
#84=EDGE_LOOP('',(#359));
#85=EDGE_LOOP('',(#360));
#86=EDGE_LOOP('',(#361));
#87=EDGE_LOOP('',(#362));
#88=EDGE_LOOP('',(#363));
#89=EDGE_LOOP('',(#364));
#90=EDGE_LOOP('',(#365));
#91=EDGE_LOOP('',(#366));
#92=EDGE_LOOP('',(#367));
#93=EDGE_LOOP('',(#368));
#94=EDGE_LOOP('',(#369));
#95=EDGE_LOOP('',(#370,#371,#372,#373));
#96=EDGE_LOOP('',(#374));
#97=EDGE_LOOP('',(#375));
#98=LINE('',#608,#112);
#99=LINE('',#615,#113);
#100=LINE('',#637,#114);
#101=LINE('',#729,#115);
#102=LINE('',#736,#116);
#103=LINE('',#743,#117);
#104=LINE('',#760,#118);
#105=LINE('',#763,#119);
#106=LINE('',#767,#120);
#107=LINE('',#771,#121);
#108=LINE('',#775,#122);
#109=LINE('',#780,#123);
#110=LINE('',#786,#124);
#111=LINE('',#796,#125);
#112=VECTOR('',#477,1.05000001755286);
#113=VECTOR('',#486,1.1);
#114=VECTOR('',#493,1.7);
#115=VECTOR('',#512,0.11);
#116=VECTOR('',#521,0.11);
#117=VECTOR('',#530,0.11);
#118=VECTOR('',#553,1.75);
#119=VECTOR('',#558,1.15);
#120=VECTOR('',#563,0.11);
#121=VECTOR('',#568,0.11);
#122=VECTOR('',#573,0.11);
#123=VECTOR('',#578,1.125);
#124=VECTOR('',#585,1.37);
#125=VECTOR('',#600,1.025);
#126=CIRCLE('',#414,1.00000003510573);
#127=CIRCLE('',#415,1.1);
#128=CIRCLE('',#417,1.1);
#129=CIRCLE('',#418,1.1);
#130=CIRCLE('',#421,1.65);
#131=CIRCLE('',#422,1.75);
#132=CIRCLE('',#423,1.65);
#133=CIRCLE('',#424,1.65);
#134=CIRCLE('',#425,1.65);
#135=CIRCLE('',#426,1.65);
#136=CIRCLE('',#427,1.65);
#137=CIRCLE('',#428,1.65);
#138=CIRCLE('',#430,0.11);
#139=CIRCLE('',#431,0.11);
#140=CIRCLE('',#432,0.11);
#141=CIRCLE('',#434,0.11);
#142=CIRCLE('',#435,0.11);
#143=CIRCLE('',#436,0.11);
#144=CIRCLE('',#438,0.11);
#145=CIRCLE('',#439,0.11);
#146=CIRCLE('',#440,0.11);
#147=CIRCLE('',#442,0.11);
#148=CIRCLE('',#443,0.11);
#149=CIRCLE('',#444,0.11);
#150=CIRCLE('',#445,0.11);
#151=CIRCLE('',#446,0.11);
#152=CIRCLE('',#447,0.11);
#153=CIRCLE('',#448,1.2);
#154=CIRCLE('',#450,1.75);
#155=CIRCLE('',#453,0.11);
#156=CIRCLE('',#455,0.11);
#157=CIRCLE('',#457,0.11);
#158=CIRCLE('',#459,1.125);
#159=CIRCLE('',#460,1.125);
#160=CIRCLE('',#462,1.37);
#161=CIRCLE('',#463,1.37);
#162=CIRCLE('',#467,1.025);
#163=CIRCLE('',#469,1.025);
#164=VERTEX_POINT('',#605);
#165=VERTEX_POINT('',#607);
#166=VERTEX_POINT('',#611);
#167=VERTEX_POINT('',#612);
#168=VERTEX_POINT('',#618);
#169=VERTEX_POINT('',#619);
#170=VERTEX_POINT('',#634);
#171=VERTEX_POINT('',#636);
#172=VERTEX_POINT('',#639);
#173=VERTEX_POINT('',#641);
#174=VERTEX_POINT('',#656);
#175=VERTEX_POINT('',#658);
#176=VERTEX_POINT('',#673);
#177=VERTEX_POINT('',#675);
#178=VERTEX_POINT('',#690);
#179=VERTEX_POINT('',#692);
#180=VERTEX_POINT('',#707);
#181=VERTEX_POINT('',#709);
#182=VERTEX_POINT('',#726);
#183=VERTEX_POINT('',#728);
#184=VERTEX_POINT('',#733);
#185=VERTEX_POINT('',#735);
#186=VERTEX_POINT('',#740);
#187=VERTEX_POINT('',#742);
#188=VERTEX_POINT('',#747);
#189=VERTEX_POINT('',#750);
#190=VERTEX_POINT('',#753);
#191=VERTEX_POINT('',#756);
#192=VERTEX_POINT('',#759);
#193=VERTEX_POINT('',#765);
#194=VERTEX_POINT('',#769);
#195=VERTEX_POINT('',#773);
#196=VERTEX_POINT('',#777);
#197=VERTEX_POINT('',#779);
#198=VERTEX_POINT('',#783);
#199=VERTEX_POINT('',#785);
#200=VERTEX_POINT('',#791);
#201=VERTEX_POINT('',#794);
#202=EDGE_CURVE('',#164,#164,#126,.T.);
#203=EDGE_CURVE('',#164,#165,#98,.T.);
#204=EDGE_CURVE('',#165,#165,#127,.T.);
#205=EDGE_CURVE('',#166,#167,#128,.T.);
#206=EDGE_CURVE('',#167,#166,#129,.T.);
#207=EDGE_CURVE('',#167,#165,#99,.T.);
#208=EDGE_CURVE('',#168,#169,#25,.T.);
#209=EDGE_CURVE('',#168,#170,#130,.T.);
#210=EDGE_CURVE('',#170,#171,#100,.T.);
#211=EDGE_CURVE('',#171,#171,#131,.T.);
#212=EDGE_CURVE('',#170,#172,#132,.T.);
#213=EDGE_CURVE('',#173,#172,#26,.T.);
#214=EDGE_CURVE('',#173,#174,#133,.T.);
#215=EDGE_CURVE('',#175,#174,#27,.T.);
#216=EDGE_CURVE('',#175,#176,#134,.T.);
#217=EDGE_CURVE('',#177,#176,#28,.T.);
#218=EDGE_CURVE('',#177,#178,#135,.T.);
#219=EDGE_CURVE('',#179,#178,#29,.T.);
#220=EDGE_CURVE('',#179,#180,#136,.T.);
#221=EDGE_CURVE('',#181,#180,#30,.T.);
#222=EDGE_CURVE('',#181,#169,#137,.T.);
#223=EDGE_CURVE('',#182,#182,#138,.T.);
#224=EDGE_CURVE('',#182,#183,#101,.T.);
#225=EDGE_CURVE('',#177,#183,#139,.T.);
#226=EDGE_CURVE('',#183,#176,#140,.T.);
#227=EDGE_CURVE('',#184,#184,#141,.T.);
#228=EDGE_CURVE('',#184,#185,#102,.T.);
#229=EDGE_CURVE('',#175,#185,#142,.T.);
#230=EDGE_CURVE('',#185,#174,#143,.T.);
#231=EDGE_CURVE('',#186,#186,#144,.T.);
#232=EDGE_CURVE('',#186,#187,#103,.T.);
#233=EDGE_CURVE('',#173,#187,#145,.T.);
#234=EDGE_CURVE('',#187,#172,#146,.T.);
#235=EDGE_CURVE('',#168,#188,#147,.T.);
#236=EDGE_CURVE('',#188,#169,#148,.T.);
#237=EDGE_CURVE('',#181,#189,#149,.T.);
#238=EDGE_CURVE('',#189,#180,#150,.T.);
#239=EDGE_CURVE('',#179,#190,#151,.T.);
#240=EDGE_CURVE('',#190,#178,#152,.T.);
#241=EDGE_CURVE('',#191,#191,#153,.T.);
#242=EDGE_CURVE('',#171,#192,#104,.T.);
#243=EDGE_CURVE('',#192,#192,#154,.T.);
#244=EDGE_CURVE('',#166,#191,#105,.T.);
#245=EDGE_CURVE('',#193,#193,#155,.T.);
#246=EDGE_CURVE('',#193,#189,#106,.T.);
#247=EDGE_CURVE('',#194,#194,#156,.T.);
#248=EDGE_CURVE('',#194,#190,#107,.T.);
#249=EDGE_CURVE('',#195,#195,#157,.T.);
#250=EDGE_CURVE('',#195,#188,#108,.T.);
#251=EDGE_CURVE('',#196,#196,#158,.T.);
#252=EDGE_CURVE('',#196,#197,#109,.T.);
#253=EDGE_CURVE('',#197,#197,#159,.T.);
#254=EDGE_CURVE('',#198,#198,#160,.T.);
#255=EDGE_CURVE('',#198,#199,#110,.T.);
#256=EDGE_CURVE('',#199,#199,#161,.T.);
#257=EDGE_CURVE('',#200,#200,#162,.T.);
#258=EDGE_CURVE('',#201,#201,#163,.T.);
#259=EDGE_CURVE('',#201,#200,#111,.T.);
#260=ORIENTED_EDGE('',*,*,#202,.T.);
#261=ORIENTED_EDGE('',*,*,#203,.T.);
#262=ORIENTED_EDGE('',*,*,#204,.T.);
#263=ORIENTED_EDGE('',*,*,#203,.F.);
#264=ORIENTED_EDGE('',*,*,#205,.F.);
#265=ORIENTED_EDGE('',*,*,#206,.F.);
#266=ORIENTED_EDGE('',*,*,#207,.T.);
#267=ORIENTED_EDGE('',*,*,#204,.F.);
#268=ORIENTED_EDGE('',*,*,#207,.F.);
#269=ORIENTED_EDGE('',*,*,#202,.F.);
#270=ORIENTED_EDGE('',*,*,#208,.F.);
#271=ORIENTED_EDGE('',*,*,#209,.T.);
#272=ORIENTED_EDGE('',*,*,#210,.T.);
#273=ORIENTED_EDGE('',*,*,#211,.T.);
#274=ORIENTED_EDGE('',*,*,#210,.F.);
#275=ORIENTED_EDGE('',*,*,#212,.T.);
#276=ORIENTED_EDGE('',*,*,#213,.F.);
#277=ORIENTED_EDGE('',*,*,#214,.T.);
#278=ORIENTED_EDGE('',*,*,#215,.F.);
#279=ORIENTED_EDGE('',*,*,#216,.T.);
#280=ORIENTED_EDGE('',*,*,#217,.F.);
#281=ORIENTED_EDGE('',*,*,#218,.T.);
#282=ORIENTED_EDGE('',*,*,#219,.F.);
#283=ORIENTED_EDGE('',*,*,#220,.T.);
#284=ORIENTED_EDGE('',*,*,#221,.F.);
#285=ORIENTED_EDGE('',*,*,#222,.T.);
#286=ORIENTED_EDGE('',*,*,#223,.F.);
#287=ORIENTED_EDGE('',*,*,#224,.T.);
#288=ORIENTED_EDGE('',*,*,#225,.F.);
#289=ORIENTED_EDGE('',*,*,#217,.T.);
#290=ORIENTED_EDGE('',*,*,#226,.F.);
#291=ORIENTED_EDGE('',*,*,#224,.F.);
#292=ORIENTED_EDGE('',*,*,#227,.F.);
#293=ORIENTED_EDGE('',*,*,#228,.T.);
#294=ORIENTED_EDGE('',*,*,#229,.F.);
#295=ORIENTED_EDGE('',*,*,#215,.T.);
#296=ORIENTED_EDGE('',*,*,#230,.F.);
#297=ORIENTED_EDGE('',*,*,#228,.F.);
#298=ORIENTED_EDGE('',*,*,#231,.F.);
#299=ORIENTED_EDGE('',*,*,#232,.T.);
#300=ORIENTED_EDGE('',*,*,#233,.F.);
#301=ORIENTED_EDGE('',*,*,#213,.T.);
#302=ORIENTED_EDGE('',*,*,#234,.F.);
#303=ORIENTED_EDGE('',*,*,#232,.F.);
#304=ORIENTED_EDGE('',*,*,#218,.F.);
#305=ORIENTED_EDGE('',*,*,#225,.T.);
#306=ORIENTED_EDGE('',*,*,#226,.T.);
#307=ORIENTED_EDGE('',*,*,#216,.F.);
#308=ORIENTED_EDGE('',*,*,#229,.T.);
#309=ORIENTED_EDGE('',*,*,#230,.T.);
#310=ORIENTED_EDGE('',*,*,#214,.F.);
#311=ORIENTED_EDGE('',*,*,#233,.T.);
#312=ORIENTED_EDGE('',*,*,#234,.T.);
#313=ORIENTED_EDGE('',*,*,#212,.F.);
#314=ORIENTED_EDGE('',*,*,#209,.F.);
#315=ORIENTED_EDGE('',*,*,#235,.T.);
#316=ORIENTED_EDGE('',*,*,#236,.T.);
#317=ORIENTED_EDGE('',*,*,#222,.F.);
#318=ORIENTED_EDGE('',*,*,#237,.T.);
#319=ORIENTED_EDGE('',*,*,#238,.T.);
#320=ORIENTED_EDGE('',*,*,#220,.F.);
#321=ORIENTED_EDGE('',*,*,#239,.T.);
#322=ORIENTED_EDGE('',*,*,#240,.T.);
#323=ORIENTED_EDGE('',*,*,#241,.F.);
#324=ORIENTED_EDGE('',*,*,#211,.F.);
#325=ORIENTED_EDGE('',*,*,#242,.T.);
#326=ORIENTED_EDGE('',*,*,#243,.F.);
#327=ORIENTED_EDGE('',*,*,#242,.F.);
#328=ORIENTED_EDGE('',*,*,#205,.T.);
#329=ORIENTED_EDGE('',*,*,#206,.T.);
#330=ORIENTED_EDGE('',*,*,#244,.T.);
#331=ORIENTED_EDGE('',*,*,#241,.T.);
#332=ORIENTED_EDGE('',*,*,#244,.F.);
#333=ORIENTED_EDGE('',*,*,#245,.F.);
#334=ORIENTED_EDGE('',*,*,#246,.T.);
#335=ORIENTED_EDGE('',*,*,#237,.F.);
#336=ORIENTED_EDGE('',*,*,#221,.T.);
#337=ORIENTED_EDGE('',*,*,#238,.F.);
#338=ORIENTED_EDGE('',*,*,#246,.F.);
#339=ORIENTED_EDGE('',*,*,#247,.F.);
#340=ORIENTED_EDGE('',*,*,#248,.T.);
#341=ORIENTED_EDGE('',*,*,#239,.F.);
#342=ORIENTED_EDGE('',*,*,#219,.T.);
#343=ORIENTED_EDGE('',*,*,#240,.F.);
#344=ORIENTED_EDGE('',*,*,#248,.F.);
#345=ORIENTED_EDGE('',*,*,#249,.F.);
#346=ORIENTED_EDGE('',*,*,#250,.T.);
#347=ORIENTED_EDGE('',*,*,#235,.F.);
#348=ORIENTED_EDGE('',*,*,#208,.T.);
#349=ORIENTED_EDGE('',*,*,#236,.F.);
#350=ORIENTED_EDGE('',*,*,#250,.F.);
#351=ORIENTED_EDGE('',*,*,#251,.F.);
#352=ORIENTED_EDGE('',*,*,#252,.T.);
#353=ORIENTED_EDGE('',*,*,#253,.T.);
#354=ORIENTED_EDGE('',*,*,#252,.F.);
#355=ORIENTED_EDGE('',*,*,#254,.F.);
#356=ORIENTED_EDGE('',*,*,#255,.T.);
#357=ORIENTED_EDGE('',*,*,#256,.T.);
#358=ORIENTED_EDGE('',*,*,#255,.F.);
#359=ORIENTED_EDGE('',*,*,#256,.F.);
#360=ORIENTED_EDGE('',*,*,#253,.F.);
#361=ORIENTED_EDGE('',*,*,#243,.T.);
#362=ORIENTED_EDGE('',*,*,#254,.T.);
#363=ORIENTED_EDGE('',*,*,#249,.T.);
#364=ORIENTED_EDGE('',*,*,#223,.T.);
#365=ORIENTED_EDGE('',*,*,#247,.T.);
#366=ORIENTED_EDGE('',*,*,#231,.T.);
#367=ORIENTED_EDGE('',*,*,#227,.T.);
#368=ORIENTED_EDGE('',*,*,#245,.T.);
#369=ORIENTED_EDGE('',*,*,#257,.F.);
#370=ORIENTED_EDGE('',*,*,#258,.F.);
#371=ORIENTED_EDGE('',*,*,#259,.T.);
#372=ORIENTED_EDGE('',*,*,#257,.T.);
#373=ORIENTED_EDGE('',*,*,#259,.F.);
#374=ORIENTED_EDGE('',*,*,#251,.T.);
#375=ORIENTED_EDGE('',*,*,#258,.T.);
#376=CONICAL_SURFACE('',#413,1.05000001755286,0.78539798786881);
#377=CONICAL_SURFACE('',#420,1.7,0.785398163397447);
#378=CONICAL_SURFACE('',#451,1.15,0.785398163397448);
#379=ADVANCED_FACE('',(#48),#376,.T.);
#380=ADVANCED_FACE('',(#49),#37,.T.);
#381=ADVANCED_FACE('',(#50),#31,.T.);
#382=ADVANCED_FACE('',(#51),#377,.T.);
#383=ADVANCED_FACE('',(#52),#38,.F.);
#384=ADVANCED_FACE('',(#53),#39,.F.);
#385=ADVANCED_FACE('',(#54),#40,.F.);
#386=ADVANCED_FACE('',(#55,#15),#32,.F.);
#387=ADVANCED_FACE('',(#56),#41,.T.);
#388=ADVANCED_FACE('',(#57),#378,.T.);
#389=ADVANCED_FACE('',(#58),#42,.F.);
#390=ADVANCED_FACE('',(#59),#43,.F.);
#391=ADVANCED_FACE('',(#60),#44,.F.);
#392=ADVANCED_FACE('',(#61),#45,.T.);
#393=ADVANCED_FACE('',(#62),#46,.F.);
#394=ADVANCED_FACE('',(#63,#16),#33,.T.);
#395=ADVANCED_FACE('',(#64,#17,#18,#19,#20,#21,#22,#23),#34,.T.);
#396=ADVANCED_FACE('',(#65),#35,.F.);
#397=ADVANCED_FACE('',(#66),#47,.F.);
#398=ADVANCED_FACE('',(#67,#24),#36,.T.);
#399=CLOSED_SHELL('',(#379,#380,#381,#382,#383,#384,#385,#386,#387,#388,
#389,#390,#391,#392,#393,#394,#395,#396,#397,#398));
#400=DERIVED_UNIT_ELEMENT(#402,1.);
#401=DERIVED_UNIT_ELEMENT(#805,-3.);
#402=(
MASS_UNIT()
NAMED_UNIT(*)
SI_UNIT(.KILO.,.GRAM.)
);
#403=DERIVED_UNIT((#400,#401));
#404=MEASURE_REPRESENTATION_ITEM('density measure',
POSITIVE_RATIO_MEASURE(7850.),#403);
#405=PROPERTY_DEFINITION_REPRESENTATION(#410,#407);
#406=PROPERTY_DEFINITION_REPRESENTATION(#411,#408);
#407=REPRESENTATION('material name',(#409),#800);
#408=REPRESENTATION('density',(#404),#800);
#409=DESCRIPTIVE_REPRESENTATION_ITEM('Steel','Steel');
#410=PROPERTY_DEFINITION('material property','material name',#813);
#411=PROPERTY_DEFINITION('material property','density of part',#813);
#412=AXIS2_PLACEMENT_3D('',#603,#471,#472);
#413=AXIS2_PLACEMENT_3D('',#604,#473,#474);
#414=AXIS2_PLACEMENT_3D('',#606,#475,#476);
#415=AXIS2_PLACEMENT_3D('',#609,#478,#479);
#416=AXIS2_PLACEMENT_3D('',#610,#480,#481);
#417=AXIS2_PLACEMENT_3D('',#613,#482,#483);
#418=AXIS2_PLACEMENT_3D('',#614,#484,#485);
#419=AXIS2_PLACEMENT_3D('',#616,#487,#488);
#420=AXIS2_PLACEMENT_3D('',#617,#489,#490);
#421=AXIS2_PLACEMENT_3D('',#635,#491,#492);
#422=AXIS2_PLACEMENT_3D('',#638,#494,#495);
#423=AXIS2_PLACEMENT_3D('',#640,#496,#497);
#424=AXIS2_PLACEMENT_3D('',#657,#498,#499);
#425=AXIS2_PLACEMENT_3D('',#674,#500,#501);
#426=AXIS2_PLACEMENT_3D('',#691,#502,#503);
#427=AXIS2_PLACEMENT_3D('',#708,#504,#505);
#428=AXIS2_PLACEMENT_3D('',#724,#506,#507);
#429=AXIS2_PLACEMENT_3D('',#725,#508,#509);
#430=AXIS2_PLACEMENT_3D('',#727,#510,#511);
#431=AXIS2_PLACEMENT_3D('',#730,#513,#514);
#432=AXIS2_PLACEMENT_3D('',#731,#515,#516);
#433=AXIS2_PLACEMENT_3D('',#732,#517,#518);
#434=AXIS2_PLACEMENT_3D('',#734,#519,#520);
#435=AXIS2_PLACEMENT_3D('',#737,#522,#523);
#436=AXIS2_PLACEMENT_3D('',#738,#524,#525);
#437=AXIS2_PLACEMENT_3D('',#739,#526,#527);
#438=AXIS2_PLACEMENT_3D('',#741,#528,#529);
#439=AXIS2_PLACEMENT_3D('',#744,#531,#532);
#440=AXIS2_PLACEMENT_3D('',#745,#533,#534);
#441=AXIS2_PLACEMENT_3D('',#746,#535,#536);
#442=AXIS2_PLACEMENT_3D('',#748,#537,#538);
#443=AXIS2_PLACEMENT_3D('',#749,#539,#540);
#444=AXIS2_PLACEMENT_3D('',#751,#541,#542);
#445=AXIS2_PLACEMENT_3D('',#752,#543,#544);
#446=AXIS2_PLACEMENT_3D('',#754,#545,#546);
#447=AXIS2_PLACEMENT_3D('',#755,#547,#548);
#448=AXIS2_PLACEMENT_3D('',#757,#549,#550);
#449=AXIS2_PLACEMENT_3D('',#758,#551,#552);
#450=AXIS2_PLACEMENT_3D('',#761,#554,#555);
#451=AXIS2_PLACEMENT_3D('',#762,#556,#557);
#452=AXIS2_PLACEMENT_3D('',#764,#559,#560);
#453=AXIS2_PLACEMENT_3D('',#766,#561,#562);
#454=AXIS2_PLACEMENT_3D('',#768,#564,#565);
#455=AXIS2_PLACEMENT_3D('',#770,#566,#567);
#456=AXIS2_PLACEMENT_3D('',#772,#569,#570);
#457=AXIS2_PLACEMENT_3D('',#774,#571,#572);
#458=AXIS2_PLACEMENT_3D('',#776,#574,#575);
#459=AXIS2_PLACEMENT_3D('',#778,#576,#577);
#460=AXIS2_PLACEMENT_3D('',#781,#579,#580);
#461=AXIS2_PLACEMENT_3D('',#782,#581,#582);
#462=AXIS2_PLACEMENT_3D('',#784,#583,#584);
#463=AXIS2_PLACEMENT_3D('',#787,#586,#587);
#464=AXIS2_PLACEMENT_3D('',#788,#588,#589);
#465=AXIS2_PLACEMENT_3D('',#789,#590,#591);
#466=AXIS2_PLACEMENT_3D('',#790,#592,#593);
#467=AXIS2_PLACEMENT_3D('',#792,#594,#595);
#468=AXIS2_PLACEMENT_3D('',#793,#596,#597);
#469=AXIS2_PLACEMENT_3D('',#795,#598,#599);
#470=AXIS2_PLACEMENT_3D('',#797,#601,#602);
#471=DIRECTION('axis',(0.,0.,1.));
#472=DIRECTION('refdir',(1.,0.,0.));
#473=DIRECTION('center_axis',(0.,0.,1.));
#474=DIRECTION('ref_axis',(1.,0.,0.));
#475=DIRECTION('center_axis',(0.,0.,1.));
#476=DIRECTION('ref_axis',(1.,0.,0.));
#477=DIRECTION('',(-0.707106657069047,8.65955904235393E-17,0.707106905304027));
#478=DIRECTION('center_axis',(0.,0.,-1.));
#479=DIRECTION('ref_axis',(1.,0.,0.));
#480=DIRECTION('center_axis',(0.,0.,1.));
#481=DIRECTION('ref_axis',(1.,0.,0.));
#482=DIRECTION('center_axis',(0.,0.,1.));
#483=DIRECTION('ref_axis',(-1.,0.,0.));
#484=DIRECTION('center_axis',(0.,0.,1.));
#485=DIRECTION('ref_axis',(-1.,0.,0.));
#486=DIRECTION('',(0.,0.,-1.));
#487=DIRECTION('center_axis',(0.,0.,-1.));
#488=DIRECTION('ref_axis',(1.,0.,0.));
#489=DIRECTION('center_axis',(0.,0.,1.));
#490=DIRECTION('ref_axis',(-1.,0.,0.));
#491=DIRECTION('center_axis',(0.,0.,1.));
#492=DIRECTION('ref_axis',(-1.,0.,0.));
#493=DIRECTION('',(0.707106781186547,-8.65956056235493E-17,0.707106781186548));
#494=DIRECTION('center_axis',(0.,0.,-1.));
#495=DIRECTION('ref_axis',(-1.,0.,0.));
#496=DIRECTION('center_axis',(0.,0.,1.));
#497=DIRECTION('ref_axis',(-1.,0.,0.));
#498=DIRECTION('center_axis',(0.,0.,1.));
#499=DIRECTION('ref_axis',(-1.,0.,0.));
#500=DIRECTION('center_axis',(0.,0.,1.));
#501=DIRECTION('ref_axis',(-1.,0.,0.));
#502=DIRECTION('center_axis',(0.,0.,1.));
#503=DIRECTION('ref_axis',(-1.,0.,0.));
#504=DIRECTION('center_axis',(0.,0.,1.));
#505=DIRECTION('ref_axis',(-1.,0.,0.));
#506=DIRECTION('center_axis',(0.,0.,1.));
#507=DIRECTION('ref_axis',(-1.,0.,0.));
#508=DIRECTION('center_axis',(0.,0.,-1.));
#509=DIRECTION('ref_axis',(-0.5,-0.866025403784439,0.));
#510=DIRECTION('center_axis',(0.,0.,-1.));
#511=DIRECTION('ref_axis',(-0.5,-0.866025403784439,0.));
#512=DIRECTION('',(0.,0.,-1.));
#513=DIRECTION('center_axis',(0.,0.,1.));
#514=DIRECTION('ref_axis',(-0.5,-0.866025403784439,0.));
#515=DIRECTION('center_axis',(0.,0.,1.));
#516=DIRECTION('ref_axis',(-0.5,-0.866025403784439,0.));
#517=DIRECTION('center_axis',(0.,0.,-1.));
#518=DIRECTION('ref_axis',(-1.,0.,0.));
#519=DIRECTION('center_axis',(0.,0.,-1.));
#520=DIRECTION('ref_axis',(-1.,0.,0.));
#521=DIRECTION('',(0.,0.,-1.));
#522=DIRECTION('center_axis',(0.,0.,1.));
#523=DIRECTION('ref_axis',(-1.,0.,0.));
#524=DIRECTION('center_axis',(0.,0.,1.));
#525=DIRECTION('ref_axis',(-1.,0.,0.));
#526=DIRECTION('center_axis',(0.,0.,-1.));
#527=DIRECTION('ref_axis',(-1.,0.,0.));
#528=DIRECTION('center_axis',(0.,0.,-1.));
#529=DIRECTION('ref_axis',(-1.,0.,0.));
#530=DIRECTION('',(0.,0.,-1.));
#531=DIRECTION('center_axis',(0.,0.,1.));
#532=DIRECTION('ref_axis',(-1.,0.,0.));
#533=DIRECTION('center_axis',(0.,0.,1.));
#534=DIRECTION('ref_axis',(-1.,0.,0.));
#535=DIRECTION('center_axis',(0.,0.,1.));
#536=DIRECTION('ref_axis',(-1.,0.,0.));
#537=DIRECTION('center_axis',(0.,0.,1.));
#538=DIRECTION('ref_axis',(-1.,0.,0.));
#539=DIRECTION('center_axis',(0.,0.,1.));
#540=DIRECTION('ref_axis',(-1.,0.,0.));
#541=DIRECTION('center_axis',(0.,0.,1.));
#542=DIRECTION('ref_axis',(1.,0.,0.));
#543=DIRECTION('center_axis',(0.,0.,1.));
#544=DIRECTION('ref_axis',(1.,0.,0.));
#545=DIRECTION('center_axis',(0.,0.,1.));
#546=DIRECTION('ref_axis',(0.5,-0.866025403784439,0.));
#547=DIRECTION('center_axis',(0.,0.,1.));
#548=DIRECTION('ref_axis',(0.5,-0.866025403784439,0.));
#549=DIRECTION('center_axis',(0.,0.,-1.));
#550=DIRECTION('ref_axis',(-1.,0.,0.));
#551=DIRECTION('center_axis',(0.,0.,-1.));
#552=DIRECTION('ref_axis',(-1.,0.,0.));
#553=DIRECTION('',(0.,0.,1.));
#554=DIRECTION('center_axis',(0.,0.,1.));
#555=DIRECTION('ref_axis',(-1.,0.,0.));
#556=DIRECTION('center_axis',(0.,0.,1.));
#557=DIRECTION('ref_axis',(-1.,0.,0.));
#558=DIRECTION('',(0.707106781186547,-8.65956056235493E-17,0.707106781186547));
#559=DIRECTION('center_axis',(0.,0.,-1.));
#560=DIRECTION('ref_axis',(1.,0.,0.));
#561=DIRECTION('center_axis',(0.,0.,-1.));
#562=DIRECTION('ref_axis',(1.,0.,0.));
#563=DIRECTION('',(0.,0.,-1.));
#564=DIRECTION('center_axis',(0.,0.,-1.));
#565=DIRECTION('ref_axis',(0.5,-0.866025403784439,0.));
#566=DIRECTION('center_axis',(0.,0.,-1.));
#567=DIRECTION('ref_axis',(0.5,-0.866025403784439,0.));
#568=DIRECTION('',(0.,0.,-1.));
#569=DIRECTION('center_axis',(0.,0.,-1.));
#570=DIRECTION('ref_axis',(-1.,0.,0.));
#571=DIRECTION('center_axis',(0.,0.,-1.));
#572=DIRECTION('ref_axis',(-1.,0.,0.));
#573=DIRECTION('',(0.,0.,-1.));
#574=DIRECTION('center_axis',(0.,0.,-1.));
#575=DIRECTION('ref_axis',(-1.,0.,0.));
#576=DIRECTION('center_axis',(0.,0.,1.));
#577=DIRECTION('ref_axis',(-1.,0.,0.));
#578=DIRECTION('',(0.,0.,-1.));
#579=DIRECTION('center_axis',(0.,0.,1.));
#580=DIRECTION('ref_axis',(-1.,0.,0.));
#581=DIRECTION('center_axis',(0.,0.,-1.));
#582=DIRECTION('ref_axis',(-1.,0.,0.));
#583=DIRECTION('center_axis',(0.,0.,-1.));
#584=DIRECTION('ref_axis',(-1.,0.,0.));
#585=DIRECTION('',(0.,0.,-1.));
#586=DIRECTION('center_axis',(0.,0.,-1.));
#587=DIRECTION('ref_axis',(-1.,0.,0.));
#588=DIRECTION('center_axis',(0.,0.,1.));
#589=DIRECTION('ref_axis',(-1.,0.,0.));
#590=DIRECTION('center_axis',(0.,0.,1.));
#591=DIRECTION('ref_axis',(1.,0.,0.));
#592=DIRECTION('center_axis',(0.,0.,-1.));
#593=DIRECTION('ref_axis',(1.,0.,0.));
#594=DIRECTION('center_axis',(0.,0.,-1.));
#595=DIRECTION('ref_axis',(1.,0.,0.));
#596=DIRECTION('center_axis',(0.,0.,1.));
#597=DIRECTION('ref_axis',(1.,0.,0.));
#598=DIRECTION('center_axis',(0.,0.,-1.));
#599=DIRECTION('ref_axis',(1.,0.,0.));
#600=DIRECTION('',(0.,0.,-1.));
#601=DIRECTION('center_axis',(0.,0.,1.));
#602=DIRECTION('ref_axis',(1.,0.,0.));
#603=CARTESIAN_POINT('',(0.,0.,0.));
#604=CARTESIAN_POINT('Origin',(0.,0.,-0.0500000000000031));
#605=CARTESIAN_POINT('',(-1.00000003510573,-1.22464684213947E-16,-0.1));
#606=CARTESIAN_POINT('Origin',(0.,0.,-0.1));
#607=CARTESIAN_POINT('',(-1.1,1.34711147906209E-16,-6.16304907370658E-15));
#608=CARTESIAN_POINT('',(-1.05000001755286,1.28587916060078E-16,-0.0500000000000031));
#609=CARTESIAN_POINT('Origin',(0.,0.,-6.16304907370658E-15));
#610=CARTESIAN_POINT('Origin',(0.,0.,0.));
#611=CARTESIAN_POINT('',(1.1,1.34711147906209E-16,0.15));
#612=CARTESIAN_POINT('',(-1.1,-1.34711147906209E-16,0.15));
#613=CARTESIAN_POINT('Origin',(0.,0.,0.15));
#614=CARTESIAN_POINT('Origin',(0.,0.,0.15));
#615=CARTESIAN_POINT('',(-1.1,-1.34711147906209E-16,0.));
#616=CARTESIAN_POINT('Origin',(0.,0.,-0.1));
#617=CARTESIAN_POINT('Origin',(0.,0.,0.3));
#618=CARTESIAN_POINT('',(1.45199327924621,-0.783719029387345,0.25));
#619=CARTESIAN_POINT('',(1.40471722850183,-0.865603551257818,0.25));
#620=CARTESIAN_POINT('Ctrl Pts',(1.45199327924621,-0.783719029387345,0.25));
#621=CARTESIAN_POINT('Ctrl Pts',(1.45195081976205,-0.784253016367582,0.250216269619529));
#622=CARTESIAN_POINT('Ctrl Pts',(1.45190438990246,-0.784787567023622,0.250429531429764));
#623=CARTESIAN_POINT('Ctrl Pts',(1.45113435462427,-0.792957054920799,0.253639016900051));
#624=CARTESIAN_POINT('Ctrl Pts',(1.44958722952675,-0.800701390205469,0.256008972865938));
#625=CARTESIAN_POINT('Ctrl Pts',(1.44480203283534,-0.815792983475039,0.25918985408513));
#626=CARTESIAN_POINT('Ctrl Pts',(1.44156277589867,-0.823140029843474,0.26));
#627=CARTESIAN_POINT('Ctrl Pts',(1.43364156466566,-0.836859970156526,0.26));
#628=CARTESIAN_POINT('Ctrl Pts',(1.42889846433615,-0.843338772137287,0.25918985408513));
#629=CARTESIAN_POINT('Ctrl Pts',(1.41822135952683,-0.85502867066894,0.256008972865938));
#630=CARTESIAN_POINT('Ctrl Pts',(1.41228813098364,-0.860240687948556,0.253639016900051));
#631=CARTESIAN_POINT('Ctrl Pts',(1.40559816456787,-0.864992302009866,0.250429531429764));
#632=CARTESIAN_POINT('Ctrl Pts',(1.40515844504993,-0.865299786775789,0.250216269619529));
#633=CARTESIAN_POINT('Ctrl Pts',(1.40471722850183,-0.865603551257818,0.25));
#634=CARTESIAN_POINT('',(1.65,-2.02066721859313E-16,0.25));
#635=CARTESIAN_POINT('Origin',(0.,0.,0.25));
#636=CARTESIAN_POINT('',(1.75,-2.14313189850787E-16,0.35));
#637=CARTESIAN_POINT('',(1.7,-2.0818995585505E-16,0.3));
#638=CARTESIAN_POINT('Origin',(0.,0.,0.35));
#639=CARTESIAN_POINT('',(1.45199327924621,0.783719029387343,0.25));
#640=CARTESIAN_POINT('Origin',(0.,0.,0.25));
#641=CARTESIAN_POINT('',(1.40471722850183,0.865603551257816,0.25));
#642=CARTESIAN_POINT('Ctrl Pts',(1.40471722850183,0.865603551257817,0.25));
#643=CARTESIAN_POINT('Ctrl Pts',(1.40515844504993,0.865299786775788,0.250216269619529));
#644=CARTESIAN_POINT('Ctrl Pts',(1.40559816456787,0.864992302009864,0.250429531429764));
#645=CARTESIAN_POINT('Ctrl Pts',(1.41228813098364,0.860240687948554,0.253639016900051));
#646=CARTESIAN_POINT('Ctrl Pts',(1.41822135952683,0.855028670668938,0.256008972865938));
#647=CARTESIAN_POINT('Ctrl Pts',(1.42889846433615,0.843338772137285,0.25918985408513));
#648=CARTESIAN_POINT('Ctrl Pts',(1.43364156466567,0.836859970156525,0.26));
#649=CARTESIAN_POINT('Ctrl Pts',(1.44156277589867,0.823140029843473,0.26));
#650=CARTESIAN_POINT('Ctrl Pts',(1.44480203283534,0.815792983475037,0.25918985408513));
#651=CARTESIAN_POINT('Ctrl Pts',(1.44958722952676,0.800701390205466,0.256008972865938));
#652=CARTESIAN_POINT('Ctrl Pts',(1.45113435462427,0.792957054920798,0.253639016900051));
#653=CARTESIAN_POINT('Ctrl Pts',(1.45190438990246,0.784787567023621,0.250429531429764));
#654=CARTESIAN_POINT('Ctrl Pts',(1.45195081976205,0.78425301636758,0.250216269619529));
#655=CARTESIAN_POINT('Ctrl Pts',(1.45199327924621,0.783719029387343,0.25));
#656=CARTESIAN_POINT('',(0.0472760507443818,1.64932258064516,0.25));
#657=CARTESIAN_POINT('Origin',(0.,0.,0.25));
#658=CARTESIAN_POINT('',(-0.0472760507443818,1.64932258064516,0.25));
#659=CARTESIAN_POINT('Ctrl Pts',(-0.0472760507443818,1.64932258064516,0.25));
#660=CARTESIAN_POINT('Ctrl Pts',(-0.0467923747121284,1.64955280314337,0.250216269619529));
#661=CARTESIAN_POINT('Ctrl Pts',(-0.0463062253345905,1.64977986903349,0.250429531429764));
#662=CARTESIAN_POINT('Ctrl Pts',(-0.0388462236406313,1.65319774286935,0.253639016900051));
#663=CARTESIAN_POINT('Ctrl Pts',(-0.0313658699999254,1.65573006087441,0.256008972865938));
#664=CARTESIAN_POINT('Ctrl Pts',(-0.0159035684991892,1.65913175561232,0.25918985408513));
#665=CARTESIAN_POINT('Ctrl Pts',(-0.00792121123300628,1.66,0.26));
#666=CARTESIAN_POINT('Ctrl Pts',(0.00792121123300628,1.66,0.26));
#667=CARTESIAN_POINT('Ctrl Pts',(0.0159035684991893,1.65913175561232,0.25918985408513));
#668=CARTESIAN_POINT('Ctrl Pts',(0.0313658699999255,1.65573006087441,0.256008972865938));
#669=CARTESIAN_POINT('Ctrl Pts',(0.0388462236406312,1.65319774286935,0.253639016900051));
#670=CARTESIAN_POINT('Ctrl Pts',(0.0463062253345904,1.64977986903349,0.250429531429764));
#671=CARTESIAN_POINT('Ctrl Pts',(0.0467923747121284,1.64955280314337,0.250216269619529));
#672=CARTESIAN_POINT('Ctrl Pts',(0.0472760507443818,1.64932258064516,0.25));
#673=CARTESIAN_POINT('',(-1.40471722850183,0.865603551257818,0.25));
#674=CARTESIAN_POINT('Origin',(0.,0.,0.25));
#675=CARTESIAN_POINT('',(-1.45199327924621,0.783719029387344,0.25));
#676=CARTESIAN_POINT('Ctrl Pts',(-1.45199327924621,0.783719029387344,0.25));
#677=CARTESIAN_POINT('Ctrl Pts',(-1.45195081976205,0.784253016367581,0.250216269619529));
#678=CARTESIAN_POINT('Ctrl Pts',(-1.45190438990246,0.784787567023622,0.250429531429764));
#679=CARTESIAN_POINT('Ctrl Pts',(-1.45113435462427,0.792957054920799,0.253639016900051));
#680=CARTESIAN_POINT('Ctrl Pts',(-1.44958722952675,0.800701390205468,0.256008972865938));
#681=CARTESIAN_POINT('Ctrl Pts',(-1.44480203283534,0.815792983475039,0.25918985408513));
#682=CARTESIAN_POINT('Ctrl Pts',(-1.44156277589867,0.823140029843474,0.26));
#683=CARTESIAN_POINT('Ctrl Pts',(-1.43364156466567,0.836859970156526,0.26));
#684=CARTESIAN_POINT('Ctrl Pts',(-1.42889846433615,0.843338772137286,0.25918985408513));
#685=CARTESIAN_POINT('Ctrl Pts',(-1.41822135952683,0.85502867066894,0.256008972865938));
#686=CARTESIAN_POINT('Ctrl Pts',(-1.41228813098364,0.860240687948555,0.253639016900051));
#687=CARTESIAN_POINT('Ctrl Pts',(-1.40559816456787,0.864992302009865,0.250429531429764));
#688=CARTESIAN_POINT('Ctrl Pts',(-1.40515844504993,0.865299786775789,0.250216269619529));
#689=CARTESIAN_POINT('Ctrl Pts',(-1.40471722850183,0.865603551257818,0.25));
#690=CARTESIAN_POINT('',(-1.45199327924621,-0.783719029387344,0.25));
#691=CARTESIAN_POINT('Origin',(0.,0.,0.25));
#692=CARTESIAN_POINT('',(-1.40471722850183,-0.865603551257817,0.25));
#693=CARTESIAN_POINT('Ctrl Pts',(-1.40471722850183,-0.865603551257817,0.25));
#694=CARTESIAN_POINT('Ctrl Pts',(-1.40515844504993,-0.865299786775788,0.250216269619529));
#695=CARTESIAN_POINT('Ctrl Pts',(-1.40559816456787,-0.864992302009865,0.250429531429764));
#696=CARTESIAN_POINT('Ctrl Pts',(-1.41228813098364,-0.860240687948555,0.253639016900051));
#697=CARTESIAN_POINT('Ctrl Pts',(-1.41822135952683,-0.85502867066894,0.256008972865938));
#698=CARTESIAN_POINT('Ctrl Pts',(-1.42889846433615,-0.843338772137286,0.25918985408513));
#699=CARTESIAN_POINT('Ctrl Pts',(-1.43364156466567,-0.836859970156526,0.26));
#700=CARTESIAN_POINT('Ctrl Pts',(-1.44156277589867,-0.823140029843473,0.26));
#701=CARTESIAN_POINT('Ctrl Pts',(-1.44480203283534,-0.815792983475038,0.25918985408513));
#702=CARTESIAN_POINT('Ctrl Pts',(-1.44958722952676,-0.800701390205468,0.256008972865938));
#703=CARTESIAN_POINT('Ctrl Pts',(-1.45113435462427,-0.792957054920798,0.253639016900051));
#704=CARTESIAN_POINT('Ctrl Pts',(-1.45190438990246,-0.784787567023621,0.250429531429764));
#705=CARTESIAN_POINT('Ctrl Pts',(-1.45195081976205,-0.784253016367581,0.250216269619529));
#706=CARTESIAN_POINT('Ctrl Pts',(-1.45199327924621,-0.783719029387344,0.25));
#707=CARTESIAN_POINT('',(-0.047276050744382,-1.64932258064516,0.25));
#708=CARTESIAN_POINT('Origin',(0.,0.,0.25));
#709=CARTESIAN_POINT('',(0.0472760507443816,-1.64932258064516,0.25));
#710=CARTESIAN_POINT('Ctrl Pts',(0.0472760507443816,-1.64932258064516,0.25));
#711=CARTESIAN_POINT('Ctrl Pts',(0.0467923747121282,-1.64955280314337,0.250216269619529));
#712=CARTESIAN_POINT('Ctrl Pts',(0.0463062253345903,-1.64977986903349,0.250429531429764));
#713=CARTESIAN_POINT('Ctrl Pts',(0.0388462236406311,-1.65319774286935,0.253639016900051));
#714=CARTESIAN_POINT('Ctrl Pts',(0.0313658699999255,-1.65573006087441,0.256008972865938));
#715=CARTESIAN_POINT('Ctrl Pts',(0.0159035684991893,-1.65913175561232,0.25918985408513));
#716=CARTESIAN_POINT('Ctrl Pts',(0.0079212112330061,-1.66,0.26));
#717=CARTESIAN_POINT('Ctrl Pts',(-0.00792121123300647,-1.66,0.26));
#718=CARTESIAN_POINT('Ctrl Pts',(-0.0159035684991895,-1.65913175561232,
0.25918985408513));
#719=CARTESIAN_POINT('Ctrl Pts',(-0.0313658699999257,-1.65573006087441,
0.256008972865938));
#720=CARTESIAN_POINT('Ctrl Pts',(-0.0388462236406314,-1.65319774286935,
0.253639016900051));
#721=CARTESIAN_POINT('Ctrl Pts',(-0.0463062253345906,-1.64977986903349,
0.250429531429764));
#722=CARTESIAN_POINT('Ctrl Pts',(-0.0467923747121286,-1.64955280314337,
0.250216269619529));
#723=CARTESIAN_POINT('Ctrl Pts',(-0.047276050744382,-1.64932258064516,0.25));
#724=CARTESIAN_POINT('Origin',(0.,0.,0.25));
#725=CARTESIAN_POINT('Origin',(-1.34233937586588,0.775,0.5));
#726=CARTESIAN_POINT('',(-1.28733937586588,0.870262794416288,0.5));
#727=CARTESIAN_POINT('Origin',(-1.34233937586588,0.775,0.5));
#728=CARTESIAN_POINT('',(-1.28733937586588,0.870262794416288,0.25));
#729=CARTESIAN_POINT('',(-1.28733937586588,0.870262794416288,0.5));
#730=CARTESIAN_POINT('Origin',(-1.34233937586588,0.775,0.25));
#731=CARTESIAN_POINT('Origin',(-1.34233937586588,0.775,0.25));
#732=CARTESIAN_POINT('Origin',(0.,1.55,0.5));
#733=CARTESIAN_POINT('',(0.11,1.55,0.5));
#734=CARTESIAN_POINT('Origin',(0.,1.55,0.5));
#735=CARTESIAN_POINT('',(0.11,1.55,0.25));
#736=CARTESIAN_POINT('',(0.11,1.55,0.5));
#737=CARTESIAN_POINT('Origin',(0.,1.55,0.25));
#738=CARTESIAN_POINT('Origin',(0.,1.55,0.25));
#739=CARTESIAN_POINT('Origin',(1.34233937586588,0.774999999999999,0.5));
#740=CARTESIAN_POINT('',(1.45233937586588,0.774999999999999,0.5));
#741=CARTESIAN_POINT('Origin',(1.34233937586588,0.774999999999999,0.5));
#742=CARTESIAN_POINT('',(1.45233937586588,0.774999999999999,0.25));
#743=CARTESIAN_POINT('',(1.45233937586588,0.774999999999999,0.5));
#744=CARTESIAN_POINT('Origin',(1.34233937586588,0.774999999999999,0.25));
#745=CARTESIAN_POINT('Origin',(1.34233937586588,0.774999999999999,0.25));
#746=CARTESIAN_POINT('Origin',(0.,0.,0.25));
#747=CARTESIAN_POINT('',(1.45233937586588,-0.775,0.25));
#748=CARTESIAN_POINT('Origin',(1.34233937586588,-0.775,0.25));
#749=CARTESIAN_POINT('Origin',(1.34233937586588,-0.775,0.25));
#750=CARTESIAN_POINT('',(-0.11,-1.55,0.25));
#751=CARTESIAN_POINT('Origin',(-1.8982025386784E-16,-1.55,0.25));
#752=CARTESIAN_POINT('Origin',(-1.8982025386784E-16,-1.55,0.25));
#753=CARTESIAN_POINT('',(-1.39733937586588,-0.679737205583711,0.25));
#754=CARTESIAN_POINT('Origin',(-1.34233937586588,-0.775,0.25));
#755=CARTESIAN_POINT('Origin',(-1.34233937586588,-0.775,0.25));
#756=CARTESIAN_POINT('',(1.2,-1.46957615897682E-16,0.25));
#757=CARTESIAN_POINT('Origin',(0.,0.,0.25));
#758=CARTESIAN_POINT('Origin',(0.,0.,0.5));
#759=CARTESIAN_POINT('',(1.75,2.14313189850787E-16,0.5));
#760=CARTESIAN_POINT('',(1.75,-2.14313189850787E-16,0.5));
#761=CARTESIAN_POINT('Origin',(0.,0.,0.5));
#762=CARTESIAN_POINT('Origin',(0.,0.,0.2));
#763=CARTESIAN_POINT('',(1.15,-1.40834381901946E-16,0.2));
#764=CARTESIAN_POINT('Origin',(-1.8982025386784E-16,-1.55,0.5));
#765=CARTESIAN_POINT('',(-0.11,-1.55,0.5));
#766=CARTESIAN_POINT('Origin',(-1.8982025386784E-16,-1.55,0.5));
#767=CARTESIAN_POINT('',(-0.11,-1.55,0.5));
#768=CARTESIAN_POINT('Origin',(-1.34233937586588,-0.775,0.5));
#769=CARTESIAN_POINT('',(-1.39733937586588,-0.679737205583711,0.5));
#770=CARTESIAN_POINT('Origin',(-1.34233937586588,-0.775,0.5));
#771=CARTESIAN_POINT('',(-1.39733937586588,-0.679737205583711,0.5));
#772=CARTESIAN_POINT('Origin',(1.34233937586588,-0.775,0.5));
#773=CARTESIAN_POINT('',(1.45233937586588,-0.775,0.5));
#774=CARTESIAN_POINT('Origin',(1.34233937586588,-0.775,0.5));
#775=CARTESIAN_POINT('',(1.45233937586588,-0.775,0.5));
#776=CARTESIAN_POINT('Origin',(0.,0.,0.5));
#777=CARTESIAN_POINT('',(1.125,1.37772764904077E-16,0.5));
#778=CARTESIAN_POINT('Origin',(0.,0.,0.5));
#779=CARTESIAN_POINT('',(1.125,1.37772764904077E-16,0.365));
#780=CARTESIAN_POINT('',(1.125,-1.37772764904077E-16,0.5));
#781=CARTESIAN_POINT('Origin',(0.,0.,0.365));
#782=CARTESIAN_POINT('Origin',(0.,0.,0.5));
#783=CARTESIAN_POINT('',(1.37,1.67776611483187E-16,0.5));
#784=CARTESIAN_POINT('Origin',(0.,0.,0.5));
#785=CARTESIAN_POINT('',(1.37,1.67776611483187E-16,0.365));
#786=CARTESIAN_POINT('',(1.37,-1.67776611483187E-16,0.5));
#787=CARTESIAN_POINT('Origin',(0.,0.,0.365));
#788=CARTESIAN_POINT('Origin',(0.,0.,0.365));
#789=CARTESIAN_POINT('Origin',(0.,0.,0.5));
#790=CARTESIAN_POINT('Origin',(0.,0.,0.));
#791=CARTESIAN_POINT('',(-1.025,-1.25526296912604E-16,0.));
#792=CARTESIAN_POINT('Origin',(0.,0.,0.));
#793=CARTESIAN_POINT('Origin',(0.,0.,0.));
#794=CARTESIAN_POINT('',(-1.025,-1.25526296912604E-16,0.5));
#795=CARTESIAN_POINT('Origin',(0.,0.,0.5));
#796=CARTESIAN_POINT('',(-1.025,-1.25526296912604E-16,0.));
#797=CARTESIAN_POINT('Origin',(0.,0.,0.5));
#798=UNCERTAINTY_MEASURE_WITH_UNIT(LENGTH_MEASURE(0.000393700787401575),
#803,'DISTANCE_ACCURACY_VALUE',
'Maximum model space distance between geometric entities at asserted c
onnectivities');
#799=UNCERTAINTY_MEASURE_WITH_UNIT(LENGTH_MEASURE(0.000393700787401575),
#803,'DISTANCE_ACCURACY_VALUE',
'Maximum model space distance between geometric entities at asserted c
onnectivities');
#800=(
GEOMETRIC_REPRESENTATION_CONTEXT(3)
GLOBAL_UNCERTAINTY_ASSIGNED_CONTEXT((#798))
GLOBAL_UNIT_ASSIGNED_CONTEXT((#803,#807,#808))
REPRESENTATION_CONTEXT('','3D')
);
#801=(
GEOMETRIC_REPRESENTATION_CONTEXT(3)
GLOBAL_UNCERTAINTY_ASSIGNED_CONTEXT((#799))
GLOBAL_UNIT_ASSIGNED_CONTEXT((#803,#807,#808))
REPRESENTATION_CONTEXT('','3D')
);
#802=DIMENSIONAL_EXPONENTS(1.,0.,0.,0.,0.,0.,0.);
#803=(
CONVERSION_BASED_UNIT('inch',#806)
LENGTH_UNIT()
NAMED_UNIT(#802)
);
#804=(
LENGTH_UNIT()
NAMED_UNIT(*)
SI_UNIT(.MILLI.,.METRE.)
);
#805=(
LENGTH_UNIT()
NAMED_UNIT(*)
SI_UNIT($,.METRE.)
);
#806=LENGTH_MEASURE_WITH_UNIT(LENGTH_MEASURE(25.4),#804);
#807=(
NAMED_UNIT(*)
PLANE_ANGLE_UNIT()
SI_UNIT($,.RADIAN.)
);
#808=(
NAMED_UNIT(*)
SI_UNIT($,.STERADIAN.)
SOLID_ANGLE_UNIT()
);
#809=SHAPE_DEFINITION_REPRESENTATION(#810,#811);
#810=PRODUCT_DEFINITION_SHAPE('',$,#813);
#811=SHAPE_REPRESENTATION('',(#412),#800);
#812=PRODUCT_DEFINITION_CONTEXT('part definition',#817,'design');
#813=PRODUCT_DEFINITION('2026-10-08-08-42-23-586','Body ',#814,#812);
#814=PRODUCT_DEFINITION_FORMATION('',$,#819);
#815=PRODUCT_RELATED_PRODUCT_CATEGORY('Body ','Body ',(#819));
#816=APPLICATION_PROTOCOL_DEFINITION('international standard',
'automotive_design',2009,#817);
#817=APPLICATION_CONTEXT(
'Core Data for Automotive Mechanical Design Process');
#818=PRODUCT_CONTEXT('part definition',#817,'mechanical');
#819=PRODUCT('2026-10-08-08-42-23-586','Body ',$,(#818));
#820=PRESENTATION_STYLE_ASSIGNMENT((#821));
#821=SURFACE_STYLE_USAGE(.BOTH.,#822);
#822=SURFACE_SIDE_STYLE('',(#823));
#823=SURFACE_STYLE_FILL_AREA(#824);
#824=FILL_AREA_STYLE('Steel - Satin',(#825));
#825=FILL_AREA_STYLE_COLOUR('Steel - Satin',#826);
#826=COLOUR_RGB('Steel - Satin',0.627450980392157,0.627450980392157,0.627450980392157);
ENDSEC;
END-ISO-10303-21;
