ISO-10303-21;
HEADER;
/* Generated by software containing ST-Developer
 * from STEP Tools, Inc. (www.steptools.com) 
 */
/* OPTION: using custom renumber hook */

FILE_DESCRIPTION(
/* description */ ('STEP AP242 Edition 2',
'CAx-IF Rec.Pracs.---Representation and Presentation of Product Manufa
cturing Information (PMI)---4.0---2014-10-13',
'CAx-IF Rec.Pracs.---3D Tessellated Geometry---0.4---2014-09-14','2;1',
'CAx-IF Rec.Pracs.---User Defined Attributes---1.5---2016-08-15'),
/* implementation_level */ '2;1');

FILE_NAME(
/* name */ 'Top Cap No Port - Part 1',
/* time_stamp */ '2026-08-16T03:18:59Z',
/* author */ (''),
/* organization */ (''),
/* preprocessor_version */ 'ST-DEVELOPER v20',
/* originating_system */ 'ONSHAPE BY PTC INC, 1.219',
/* authorisation */ '  ');

FILE_SCHEMA (('AP242_MANAGED_MODEL_BASED_3D_ENGINEERING_MIM_LF { 1 0 10303 442 3 1 4 }'));
ENDSEC;

DATA;
#10=SHAPE_REPRESENTATION_RELATIONSHIP('','',#184,#11);
#11=ADVANCED_BREP_SHAPE_REPRESENTATION('',(#182),#317);
#12=TOROIDAL_SURFACE('',#213,0.0254,0.00508);
#13=PLANE('',#189);
#14=PLANE('',#196);
#15=PLANE('',#206);
#16=PLANE('',#209);
#17=PLANE('',#210);
#18=ORIENTED_EDGE('',*,*,#48,.F.);
#19=ORIENTED_EDGE('',*,*,#49,.F.);
#20=ORIENTED_EDGE('',*,*,#50,.T.);
#21=ORIENTED_EDGE('',*,*,#49,.T.);
#22=ORIENTED_EDGE('',*,*,#50,.F.);
#23=ORIENTED_EDGE('',*,*,#51,.T.);
#24=ORIENTED_EDGE('',*,*,#52,.F.);
#25=ORIENTED_EDGE('',*,*,#53,.F.);
#26=ORIENTED_EDGE('',*,*,#54,.T.);
#27=ORIENTED_EDGE('',*,*,#53,.T.);
#28=ORIENTED_EDGE('',*,*,#54,.F.);
#29=ORIENTED_EDGE('',*,*,#55,.T.);
#30=ORIENTED_EDGE('',*,*,#56,.F.);
#31=ORIENTED_EDGE('',*,*,#57,.F.);
#32=ORIENTED_EDGE('',*,*,#58,.T.);
#33=ORIENTED_EDGE('',*,*,#59,.T.);
#34=ORIENTED_EDGE('',*,*,#60,.T.);
#35=ORIENTED_EDGE('',*,*,#51,.F.);
#36=ORIENTED_EDGE('',*,*,#55,.F.);
#37=ORIENTED_EDGE('',*,*,#61,.F.);
#38=ORIENTED_EDGE('',*,*,#48,.T.);
#39=ORIENTED_EDGE('',*,*,#52,.T.);
#40=ORIENTED_EDGE('',*,*,#56,.T.);
#41=ORIENTED_EDGE('',*,*,#59,.F.);
#42=ORIENTED_EDGE('',*,*,#62,.T.);
#43=ORIENTED_EDGE('',*,*,#57,.T.);
#44=ORIENTED_EDGE('',*,*,#62,.F.);
#45=ORIENTED_EDGE('',*,*,#61,.T.);
#46=ORIENTED_EDGE('',*,*,#58,.F.);
#47=ORIENTED_EDGE('',*,*,#60,.F.);
#48=EDGE_CURVE('',#63,#63,#78,.T.);
#49=EDGE_CURVE('',#64,#64,#79,.F.);
#50=EDGE_CURVE('',#65,#65,#80,.T.);
#51=EDGE_CURVE('',#66,#66,#81,.T.);
#52=EDGE_CURVE('',#67,#67,#82,.T.);
#53=EDGE_CURVE('',#68,#68,#83,.F.);
#54=EDGE_CURVE('',#69,#69,#84,.T.);
#55=EDGE_CURVE('',#70,#70,#85,.T.);
#56=EDGE_CURVE('',#71,#71,#86,.T.);
#57=EDGE_CURVE('',#72,#72,#87,.F.);
#58=EDGE_CURVE('',#73,#73,#88,.F.);
#59=EDGE_CURVE('',#74,#74,#89,.T.);
#60=EDGE_CURVE('',#75,#75,#90,.T.);
#61=EDGE_CURVE('',#76,#76,#91,.T.);
#62=EDGE_CURVE('',#77,#77,#92,.T.);
#63=VERTEX_POINT('',#275);
#64=VERTEX_POINT('',#277);
#65=VERTEX_POINT('',#280);
#66=VERTEX_POINT('',#283);
#67=VERTEX_POINT('',#286);
#68=VERTEX_POINT('',#288);
#69=VERTEX_POINT('',#291);
#70=VERTEX_POINT('',#294);
#71=VERTEX_POINT('',#297);
#72=VERTEX_POINT('',#299);
#73=VERTEX_POINT('',#302);
#74=VERTEX_POINT('',#304);
#75=VERTEX_POINT('',#307);
#76=VERTEX_POINT('',#309);
#77=VERTEX_POINT('',#313);
#78=CIRCLE('',#187,0.0022479);
#79=CIRCLE('',#188,0.0022479);
#80=CIRCLE('',#190,0.004953);
#81=CIRCLE('',#192,0.004953);
#82=CIRCLE('',#194,0.0022479);
#83=CIRCLE('',#195,0.0022479);
#84=CIRCLE('',#197,0.004953);
#85=CIRCLE('',#199,0.004953);
#86=CIRCLE('',#201,0.0022479);
#87=CIRCLE('',#202,0.0022479);
#88=CIRCLE('',#204,0.03048);
#89=CIRCLE('',#205,0.03048);
#90=CIRCLE('',#207,0.0254);
#91=CIRCLE('',#208,0.004953);
#92=CIRCLE('',#211,0.004953);
#93=EDGE_LOOP('',(#18));
#94=EDGE_LOOP('',(#19));
#95=EDGE_LOOP('',(#20));
#96=EDGE_LOOP('',(#21));
#97=EDGE_LOOP('',(#22));
#98=EDGE_LOOP('',(#23));
#99=EDGE_LOOP('',(#24));
#100=EDGE_LOOP('',(#25));
#101=EDGE_LOOP('',(#26));
#102=EDGE_LOOP('',(#27));
#103=EDGE_LOOP('',(#28));
#104=EDGE_LOOP('',(#29));
#105=EDGE_LOOP('',(#30));
#106=EDGE_LOOP('',(#31));
#107=EDGE_LOOP('',(#32));
#108=EDGE_LOOP('',(#33));
#109=EDGE_LOOP('',(#34));
#110=EDGE_LOOP('',(#35));
#111=EDGE_LOOP('',(#36));
#112=EDGE_LOOP('',(#37));
#113=EDGE_LOOP('',(#38));
#114=EDGE_LOOP('',(#39));
#115=EDGE_LOOP('',(#40));
#116=EDGE_LOOP('',(#41));
#117=EDGE_LOOP('',(#42));
#118=EDGE_LOOP('',(#43));
#119=EDGE_LOOP('',(#44));
#120=EDGE_LOOP('',(#45));
#121=EDGE_LOOP('',(#46));
#122=EDGE_LOOP('',(#47));
#123=FACE_BOUND('',#93,.T.);
#124=FACE_BOUND('',#94,.T.);
#125=FACE_BOUND('',#95,.T.);
#126=FACE_BOUND('',#96,.T.);
#127=FACE_BOUND('',#97,.T.);
#128=FACE_BOUND('',#98,.T.);
#129=FACE_BOUND('',#99,.T.);
#130=FACE_BOUND('',#100,.T.);
#131=FACE_BOUND('',#101,.T.);
#132=FACE_BOUND('',#102,.T.);
#133=FACE_BOUND('',#103,.T.);
#134=FACE_BOUND('',#104,.T.);
#135=FACE_BOUND('',#105,.T.);
#136=FACE_BOUND('',#106,.T.);
#137=FACE_BOUND('',#107,.T.);
#138=FACE_BOUND('',#108,.T.);
#139=FACE_BOUND('',#109,.T.);
#140=FACE_BOUND('',#110,.T.);
#141=FACE_BOUND('',#111,.T.);
#142=FACE_BOUND('',#112,.T.);
#143=FACE_BOUND('',#113,.T.);
#144=FACE_BOUND('',#114,.T.);
#145=FACE_BOUND('',#115,.T.);
#146=FACE_BOUND('',#116,.T.);
#147=FACE_BOUND('',#117,.T.);
#148=FACE_BOUND('',#118,.T.);
#149=FACE_BOUND('',#119,.T.);
#150=FACE_BOUND('',#120,.T.);
#151=FACE_BOUND('',#121,.T.);
#152=FACE_BOUND('',#122,.T.);
#153=CYLINDRICAL_SURFACE('',#186,0.0022479);
#154=CYLINDRICAL_SURFACE('',#191,0.004953);
#155=CYLINDRICAL_SURFACE('',#193,0.0022479);
#156=CYLINDRICAL_SURFACE('',#198,0.004953);
#157=CYLINDRICAL_SURFACE('',#200,0.0022479);
#158=CYLINDRICAL_SURFACE('',#203,0.03048);
#159=CYLINDRICAL_SURFACE('',#212,0.004953);
#160=ADVANCED_FACE('',(#123,#124),#153,.F.);
#161=ADVANCED_FACE('',(#125,#126),#13,.T.);
#162=ADVANCED_FACE('',(#127,#128),#154,.F.);
#163=ADVANCED_FACE('',(#129,#130),#155,.F.);
#164=ADVANCED_FACE('',(#131,#132),#14,.T.);
#165=ADVANCED_FACE('',(#133,#134),#156,.F.);
#166=ADVANCED_FACE('',(#135,#136),#157,.F.);
#167=ADVANCED_FACE('',(#137,#138),#158,.T.);
#168=ADVANCED_FACE('',(#139,#140,#141,#142),#15,.T.);
#169=ADVANCED_FACE('',(#143,#144,#145,#146),#16,.F.);
#170=ADVANCED_FACE('',(#147,#148),#17,.T.);
#171=ADVANCED_FACE('',(#149,#150),#159,.F.);
#172=ADVANCED_FACE('',(#151,#152),#12,.T.);
#173=CLOSED_SHELL('',(#160,#161,#162,#163,#164,#165,#166,#167,#168,#169,
#170,#171,#172));
#174=STYLED_ITEM('',(#175),#182);
#175=PRESENTATION_STYLE_ASSIGNMENT((#176));
#176=SURFACE_STYLE_USAGE(.BOTH.,#177);
#177=SURFACE_SIDE_STYLE('',(#178));
#178=SURFACE_STYLE_FILL_AREA(#179);
#179=FILL_AREA_STYLE('',(#180));
#180=FILL_AREA_STYLE_COLOUR('',#181);
#181=COLOUR_RGB('',0.615686274509804,0.811764705882353,0.929411764705882);
#182=MANIFOLD_SOLID_BREP('Part 1',#173);
#183=SHAPE_DEFINITION_REPRESENTATION(#322,#184);
#184=SHAPE_REPRESENTATION('Part 1',(#185),#317);
#185=AXIS2_PLACEMENT_3D('',#272,#214,#215);
#186=AXIS2_PLACEMENT_3D('',#273,#216,#217);
#187=AXIS2_PLACEMENT_3D('',#274,#218,#219);
#188=AXIS2_PLACEMENT_3D('',#276,#220,#221);
#189=AXIS2_PLACEMENT_3D('',#278,#222,#223);
#190=AXIS2_PLACEMENT_3D('',#279,#224,#225);
#191=AXIS2_PLACEMENT_3D('',#281,#226,#227);
#192=AXIS2_PLACEMENT_3D('',#282,#228,#229);
#193=AXIS2_PLACEMENT_3D('',#284,#230,#231);
#194=AXIS2_PLACEMENT_3D('',#285,#232,#233);
#195=AXIS2_PLACEMENT_3D('',#287,#234,#235);
#196=AXIS2_PLACEMENT_3D('',#289,#236,#237);
#197=AXIS2_PLACEMENT_3D('',#290,#238,#239);
#198=AXIS2_PLACEMENT_3D('',#292,#240,#241);
#199=AXIS2_PLACEMENT_3D('',#293,#242,#243);
#200=AXIS2_PLACEMENT_3D('',#295,#244,#245);
#201=AXIS2_PLACEMENT_3D('',#296,#246,#247);
#202=AXIS2_PLACEMENT_3D('',#298,#248,#249);
#203=AXIS2_PLACEMENT_3D('',#300,#250,#251);
#204=AXIS2_PLACEMENT_3D('',#301,#252,#253);
#205=AXIS2_PLACEMENT_3D('',#303,#254,#255);
#206=AXIS2_PLACEMENT_3D('',#305,#256,#257);
#207=AXIS2_PLACEMENT_3D('',#306,#258,#259);
#208=AXIS2_PLACEMENT_3D('',#308,#260,#261);
#209=AXIS2_PLACEMENT_3D('',#310,#262,#263);
#210=AXIS2_PLACEMENT_3D('',#311,#264,#265);
#211=AXIS2_PLACEMENT_3D('',#312,#266,#267);
#212=AXIS2_PLACEMENT_3D('',#314,#268,#269);
#213=AXIS2_PLACEMENT_3D('',#315,#270,#271);
#214=DIRECTION('',(0.,0.,1.));
#215=DIRECTION('',(1.,0.,0.));
#216=DIRECTION('',(0.,0.,1.));
#217=DIRECTION('',(-0.5,-0.866025403784438,0.));
#218=DIRECTION('',(0.,0.,1.));
#219=DIRECTION('',(-0.5,-0.866025403784438,0.));
#220=DIRECTION('',(0.,0.,1.));
#221=DIRECTION('',(-0.5,-0.866025403784438,0.));
#222=DIRECTION('',(0.,0.,1.));
#223=DIRECTION('',(-0.5,-0.866025403784438,0.));
#224=DIRECTION('',(0.,0.,1.));
#225=DIRECTION('',(-0.5,-0.866025403784438,0.));
#226=DIRECTION('',(0.,0.,1.));
#227=DIRECTION('',(-0.5,-0.866025403784438,0.));
#228=DIRECTION('',(0.,0.,1.));
#229=DIRECTION('',(-0.5,-0.866025403784438,0.));
#230=DIRECTION('',(0.,0.,1.));
#231=DIRECTION('',(-0.5,0.866025403784439,0.));
#232=DIRECTION('',(0.,0.,1.));
#233=DIRECTION('',(-0.5,0.866025403784439,0.));
#234=DIRECTION('',(0.,0.,1.));
#235=DIRECTION('',(-0.5,0.866025403784439,0.));
#236=DIRECTION('',(0.,0.,1.));
#237=DIRECTION('',(-0.5,0.866025403784439,0.));
#238=DIRECTION('',(0.,0.,1.));
#239=DIRECTION('',(-0.5,0.866025403784439,0.));
#240=DIRECTION('',(0.,0.,1.));
#241=DIRECTION('',(-0.5,0.866025403784439,0.));
#242=DIRECTION('',(0.,0.,1.));
#243=DIRECTION('',(-0.5,0.866025403784439,0.));
#244=DIRECTION('',(0.,0.,1.));
#245=DIRECTION('',(1.,0.,0.));
#246=DIRECTION('',(0.,0.,1.));
#247=DIRECTION('',(1.,0.,0.));
#248=DIRECTION('',(0.,0.,1.));
#249=DIRECTION('',(1.,0.,0.));
#250=DIRECTION('',(0.,0.,-1.));
#251=DIRECTION('',(-1.,0.,0.));
#252=DIRECTION('',(0.,0.,1.));
#253=DIRECTION('',(1.,0.,0.));
#254=DIRECTION('',(0.,0.,1.));
#255=DIRECTION('',(1.,0.,0.));
#256=DIRECTION('',(0.,0.,1.));
#257=DIRECTION('',(1.,0.,0.));
#258=DIRECTION('',(0.,0.,1.));
#259=DIRECTION('',(1.,0.,0.));
#260=DIRECTION('',(0.,0.,1.));
#261=DIRECTION('',(1.,0.,0.));
#262=DIRECTION('',(0.,0.,1.));
#263=DIRECTION('',(1.,0.,0.));
#264=DIRECTION('',(0.,0.,1.));
#265=DIRECTION('',(1.,0.,0.));
#266=DIRECTION('',(0.,0.,1.));
#267=DIRECTION('',(1.,0.,0.));
#268=DIRECTION('',(0.,0.,1.));
#269=DIRECTION('',(1.,0.,0.));
#270=DIRECTION('',(0.,0.,1.));
#271=DIRECTION('',(1.,0.,0.));
#272=CARTESIAN_POINT('',(0.,0.,0.));
#273=CARTESIAN_POINT('',(0.0175976362048998,-0.01016,-0.01905));
#274=CARTESIAN_POINT('',(0.0175976362048998,-0.01016,0.));
#275=CARTESIAN_POINT('',(0.0164736862048998,-0.012106738505167,0.));
#276=CARTESIAN_POINT('',(0.0175976362048998,-0.01016,0.00508));
#277=CARTESIAN_POINT('',(0.0164736862048998,-0.012106738505167,0.00508));
#278=CARTESIAN_POINT('',(6.00925839494864E-18,-3.46944695195361E-18,0.00508));
#279=CARTESIAN_POINT('',(0.0175976362048998,-0.01016,0.00508));
#280=CARTESIAN_POINT('',(0.0151211362048998,-0.0144494238249443,0.00508));
#281=CARTESIAN_POINT('',(0.0175976362048998,-0.01016,0.00508));
#282=CARTESIAN_POINT('',(0.0175976362048998,-0.01016,0.00635));
#283=CARTESIAN_POINT('',(0.0151211362048998,-0.0144494238249443,0.00635));
#284=CARTESIAN_POINT('',(-0.0175976362048998,-0.01016,-0.01905));
#285=CARTESIAN_POINT('',(-0.0175976362048998,-0.01016,0.));
#286=CARTESIAN_POINT('',(-0.0187215862048998,-0.00821326149483296,0.));
#287=CARTESIAN_POINT('',(-0.0175976362048998,-0.01016,0.00508));
#288=CARTESIAN_POINT('',(-0.0187215862048998,-0.00821326149483296,0.00508));
#289=CARTESIAN_POINT('',(-6.00925839494864E-18,-3.46944695195361E-18,0.00508));
#290=CARTESIAN_POINT('',(-0.0175976362048998,-0.01016,0.00508));
#291=CARTESIAN_POINT('',(-0.0200741362048998,-0.00587057617505567,0.00508));
#292=CARTESIAN_POINT('',(-0.0175976362048998,-0.01016,0.00508));
#293=CARTESIAN_POINT('',(-0.0175976362048998,-0.01016,0.00635));
#294=CARTESIAN_POINT('',(-0.0200741362048998,-0.00587057617505567,0.00635));
#295=CARTESIAN_POINT('',(-4.33680868994202E-19,0.02032,-0.01905));
#296=CARTESIAN_POINT('',(-4.33680868994202E-19,0.02032,0.));
#297=CARTESIAN_POINT('',(0.0022479,0.02032,0.));
#298=CARTESIAN_POINT('',(-4.33680868994202E-19,0.02032,0.00508));
#299=CARTESIAN_POINT('',(0.0022479,0.02032,0.00508));
#300=CARTESIAN_POINT('',(5.42101086242752E-19,2.16840434497101E-18,0.00635));
#301=CARTESIAN_POINT('',(5.42101086242752E-19,2.16840434497101E-18,0.00127));
#302=CARTESIAN_POINT('',(0.03048,2.16840434497101E-18,0.00127));
#303=CARTESIAN_POINT('',(5.42101086242752E-19,2.16840434497101E-18,0.));
#304=CARTESIAN_POINT('',(0.03048,2.16840434497101E-18,0.));
#305=CARTESIAN_POINT('',(0.,0.,0.00635));
#306=CARTESIAN_POINT('',(5.42101086242752E-19,2.16840434497101E-18,0.00635));
#307=CARTESIAN_POINT('',(0.0254,2.16840434497101E-18,0.00635));
#308=CARTESIAN_POINT('',(0.,0.02032,0.00635));
#309=CARTESIAN_POINT('',(0.004953,0.02032,0.00635));
#310=CARTESIAN_POINT('',(0.,0.,0.));
#311=CARTESIAN_POINT('',(0.,6.93889390390723E-18,0.00508));
#312=CARTESIAN_POINT('',(0.,0.02032,0.00508));
#313=CARTESIAN_POINT('',(0.004953,0.02032,0.00508));
#314=CARTESIAN_POINT('',(0.,0.02032,0.00508));
#315=CARTESIAN_POINT('',(5.42101086242752E-19,2.16840434497101E-18,0.00127));
#316=MECHANICAL_DESIGN_GEOMETRIC_PRESENTATION_REPRESENTATION('',(#174),
#317);
#317=(
GEOMETRIC_REPRESENTATION_CONTEXT(3)
GLOBAL_UNCERTAINTY_ASSIGNED_CONTEXT((#318))
GLOBAL_UNIT_ASSIGNED_CONTEXT((#321,#320,#319))
REPRESENTATION_CONTEXT('Part 1','TOP_LEVEL_ASSEMBLY_PART')
);
#318=UNCERTAINTY_MEASURE_WITH_UNIT(LENGTH_MEASURE(1.E-8),#321,
'DISTANCE_ACCURACY_VALUE','Maximum Tolerance applied to model');
#319=(
NAMED_UNIT(*)
SI_UNIT($,.STERADIAN.)
SOLID_ANGLE_UNIT()
);
#320=(
NAMED_UNIT(*)
PLANE_ANGLE_UNIT()
SI_UNIT($,.RADIAN.)
);
#321=(
LENGTH_UNIT()
NAMED_UNIT(*)
SI_UNIT($,.METRE.)
);
#322=PRODUCT_DEFINITION_SHAPE('','',#323);
#323=PRODUCT_DEFINITION('','',#325,#324);
#324=PRODUCT_DEFINITION_CONTEXT('',#331,'design');
#325=PRODUCT_DEFINITION_FORMATION_WITH_SPECIFIED_SOURCE('','',#327,
 .NOT_KNOWN.);
#326=PRODUCT_RELATED_PRODUCT_CATEGORY('','',(#327));
#327=PRODUCT('Part 1','Part 1','Part 1',(#329));
#328=PRODUCT_CATEGORY('','');
#329=PRODUCT_CONTEXT('',#331,'mechanical');
#330=APPLICATION_PROTOCOL_DEFINITION('international standard',
'ap242_managed_model_based_3d_engineering',2020,#331);
#331=APPLICATION_CONTEXT('managed model based 3d engineering');
ENDSEC;
END-ISO-10303-21;
