ISO-10303-21;
HEADER;
/* Generated by software containing ST-Developer
 * from STEP Tools, Inc. (www.steptools.com) 
 */
/* OPTION: using custom renumber hook */

FILE_DESCRIPTION(
/* description */ ('STEP AP242 Edition 2',
'CAx-IF Rec.Pracs.---Representation and Presentation of Product Manufa
cturing Information (PMI)---4.0---2014-10-13',
'CAx-IF Rec.Pracs.---3D Tessellated Geometry---0.4---2014-09-14','2;1',
'CAx-IF Rec.Pracs.---User Defined Attributes---1.5---2016-08-15'),
/* implementation_level */ '2;1');

FILE_NAME(
/* name */ 'Body(No Port) - AS568-137O ring Copy 1 Copy 2 - Part 1',
/* time_stamp */ '2026-08-30T00:39:08Z',
/* author */ (''),
/* organization */ (''),
/* preprocessor_version */ 'ST-DEVELOPER v20',
/* originating_system */ 'ONSHAPE BY PTC INC, 1.220',
/* authorisation */ '  ');

FILE_SCHEMA (('AP242_MANAGED_MODEL_BASED_3D_ENGINEERING_MIM_LF { 1 0 10303 442 3 1 4 }'));
ENDSEC;

DATA;
#10=SHAPE_REPRESENTATION_RELATIONSHIP('','',#228,#11);
#11=ADVANCED_BREP_SHAPE_REPRESENTATION('',(#226),#440);
#12=B_SPLINE_CURVE_WITH_KNOTS('',3,(#369,#370,#371,#372,#373,#374,#375,
#376,#377,#378,#379,#380,#381,#382,#383,#384,#385,#386),.UNSPECIFIED.,.T.,
 .F.,(1,1,1,1,1,1,1,1,1,1,1,1,1,1,1,1,1,1,1,1,1,1),(-0.00533276358544176,
-0.00266638179272086,-0.00133319089636042,3.04442734473391E-17,0.00133319089636048,
0.00266638179272093,0.00399957268908137,0.00533276358544182,0.00666595448180227,
0.00799914537816271,0.00933233627452316,0.0106655271708836,0.0119987180672441,
0.0133319089636045,0.0146650998599649,0.0159982907563254,0.0186646725490463,
0.0199978634454067,0.0213310543417672,0.0226642452381276,0.0239974361344881,
0.0253306270308485),.UNSPECIFIED.);
#13=B_SPLINE_CURVE_WITH_KNOTS('',3,(#389,#390,#391,#392,#393,#394,#395,
#396,#397,#398,#399,#400,#401,#402,#403,#404,#405,#406,#407),
 .UNSPECIFIED.,.T.,.F.,(1,1,1,1,1,1,1,1,1,1,1,1,1,1,1,1,1,1,1,1,1,1,1),
(-0.00399165146117564,-0.00266110097411709,-0.00133055048705855,3.87895961444886E-18,
0.00133055048705855,0.0026611009741171,0.00399165146117565,0.0053222019482342,
0.00665275243529275,0.00798330292235129,0.00931385340940984,0.0106444038964684,
0.0119749543835269,0.0133055048705855,0.014636055357644,0.0159666058447026,
0.0172971563317611,0.0186277068188197,0.0199582573058782,0.0212888077929368,
0.0226193582799953,0.0239499087670539,0.0252804592541124),.UNSPECIFIED.);
#14=B_SPLINE_CURVE_WITH_KNOTS('',3,(#410,#411,#412,#413,#414,#415,#416,
#417,#418,#419,#420,#421,#422,#423,#424,#425,#426,#427),.UNSPECIFIED.,.T.,
 .F.,(1,1,1,1,1,1,1,1,1,1,1,1,1,1,1,1,1,1,1,1,1,1),(-0.00396876636986382,
-0.00264584424657587,-0.00132292212328793,2.27434503568794E-17,0.00132292212328797,
0.00264584424657592,0.00396876636986387,0.00529168849315181,0.00661461061643976,
0.00793753273972771,0.00926045486301566,0.0105833769863036,0.0119062991095916,
0.0132292212328795,0.0158750654794554,0.0171979876027433,0.0185209097260313,
0.0198438318493192,0.0211667539726072,0.0224896760958951,0.0238125982191831,
0.025135520342471),.UNSPECIFIED.);
#15=CONICAL_SURFACE('',#250,0.015875,0.785398163397448);
#16=CONICAL_SURFACE('',#261,0.02794,0.785398163397448);
#17=CONICAL_SURFACE('',#262,0.01905,0.78539816339745);
#18=PLANE('',#233);
#19=PLANE('',#240);
#20=PLANE('',#244);
#21=PLANE('',#245);
#22=PLANE('',#256);
#23=ORIENTED_EDGE('',*,*,#61,.T.);
#24=ORIENTED_EDGE('',*,*,#62,.T.);
#25=ORIENTED_EDGE('',*,*,#63,.F.);
#26=ORIENTED_EDGE('',*,*,#64,.T.);
#27=ORIENTED_EDGE('',*,*,#63,.T.);
#28=ORIENTED_EDGE('',*,*,#65,.F.);
#29=ORIENTED_EDGE('',*,*,#66,.T.);
#30=ORIENTED_EDGE('',*,*,#62,.F.);
#31=ORIENTED_EDGE('',*,*,#65,.T.);
#32=ORIENTED_EDGE('',*,*,#67,.F.);
#33=ORIENTED_EDGE('',*,*,#68,.T.);
#34=ORIENTED_EDGE('',*,*,#66,.F.);
#35=ORIENTED_EDGE('',*,*,#67,.T.);
#36=ORIENTED_EDGE('',*,*,#69,.T.);
#37=ORIENTED_EDGE('',*,*,#70,.F.);
#38=ORIENTED_EDGE('',*,*,#68,.F.);
#39=ORIENTED_EDGE('',*,*,#71,.F.);
#40=ORIENTED_EDGE('',*,*,#72,.F.);
#41=ORIENTED_EDGE('',*,*,#61,.F.);
#42=ORIENTED_EDGE('',*,*,#64,.F.);
#43=ORIENTED_EDGE('',*,*,#73,.T.);
#44=ORIENTED_EDGE('',*,*,#69,.F.);
#45=ORIENTED_EDGE('',*,*,#74,.F.);
#46=ORIENTED_EDGE('',*,*,#71,.T.);
#47=ORIENTED_EDGE('',*,*,#75,.F.);
#48=ORIENTED_EDGE('',*,*,#70,.T.);
#49=ORIENTED_EDGE('',*,*,#76,.F.);
#50=ORIENTED_EDGE('',*,*,#72,.T.);
#51=ORIENTED_EDGE('',*,*,#77,.T.);
#52=ORIENTED_EDGE('',*,*,#78,.T.);
#53=ORIENTED_EDGE('',*,*,#79,.T.);
#54=ORIENTED_EDGE('',*,*,#79,.F.);
#55=ORIENTED_EDGE('',*,*,#73,.F.);
#56=ORIENTED_EDGE('',*,*,#76,.T.);
#57=ORIENTED_EDGE('',*,*,#75,.T.);
#58=ORIENTED_EDGE('',*,*,#74,.T.);
#59=ORIENTED_EDGE('',*,*,#77,.F.);
#60=ORIENTED_EDGE('',*,*,#78,.F.);
#61=EDGE_CURVE('',#80,#80,#99,.T.);
#62=EDGE_CURVE('',#81,#81,#100,.T.);
#63=EDGE_CURVE('',#82,#82,#101,.T.);
#64=EDGE_CURVE('',#83,#83,#102,.T.);
#65=EDGE_CURVE('',#84,#84,#103,.T.);
#66=EDGE_CURVE('',#85,#85,#104,.T.);
#67=EDGE_CURVE('',#86,#86,#105,.T.);
#68=EDGE_CURVE('',#87,#87,#106,.T.);
#69=EDGE_CURVE('',#88,#88,#107,.T.);
#70=EDGE_CURVE('',#89,#89,#108,.T.);
#71=EDGE_CURVE('',#90,#90,#109,.T.);
#72=EDGE_CURVE('',#91,#91,#110,.T.);
#73=EDGE_CURVE('',#92,#92,#111,.T.);
#74=EDGE_CURVE('',#93,#93,#12,.T.);
#75=EDGE_CURVE('',#94,#94,#13,.T.);
#76=EDGE_CURVE('',#95,#95,#14,.T.);
#77=EDGE_CURVE('',#96,#96,#112,.F.);
#78=EDGE_CURVE('',#97,#97,#113,.T.);
#79=EDGE_CURVE('',#98,#98,#114,.F.);
#80=VERTEX_POINT('',#334);
#81=VERTEX_POINT('',#336);
#82=VERTEX_POINT('',#339);
#83=VERTEX_POINT('',#342);
#84=VERTEX_POINT('',#345);
#85=VERTEX_POINT('',#347);
#86=VERTEX_POINT('',#351);
#87=VERTEX_POINT('',#353);
#88=VERTEX_POINT('',#357);
#89=VERTEX_POINT('',#359);
#90=VERTEX_POINT('',#361);
#91=VERTEX_POINT('',#363);
#92=VERTEX_POINT('',#367);
#93=VERTEX_POINT('',#387);
#94=VERTEX_POINT('',#408);
#95=VERTEX_POINT('',#428);
#96=VERTEX_POINT('',#431);
#97=VERTEX_POINT('',#434);
#98=VERTEX_POINT('',#436);
#99=CIRCLE('',#231,0.0127);
#100=CIRCLE('',#232,0.0127);
#101=CIRCLE('',#234,0.015875);
#102=CIRCLE('',#236,0.015875);
#103=CIRCLE('',#238,0.015748);
#104=CIRCLE('',#239,0.015748);
#105=CIRCLE('',#242,0.01778);
#106=CIRCLE('',#243,0.01778);
#107=CIRCLE('',#246,0.027178);
#108=CIRCLE('',#247,0.002794);
#109=CIRCLE('',#248,0.002794);
#110=CIRCLE('',#249,0.002794);
#111=CIRCLE('',#252,0.027178);
#112=CIRCLE('',#257,0.01778);
#113=CIRCLE('',#259,0.01905);
#114=CIRCLE('',#260,0.01905);
#115=EDGE_LOOP('',(#23));
#116=EDGE_LOOP('',(#24));
#117=EDGE_LOOP('',(#25));
#118=EDGE_LOOP('',(#26));
#119=EDGE_LOOP('',(#27));
#120=EDGE_LOOP('',(#28));
#121=EDGE_LOOP('',(#29));
#122=EDGE_LOOP('',(#30));
#123=EDGE_LOOP('',(#31));
#124=EDGE_LOOP('',(#32));
#125=EDGE_LOOP('',(#33));
#126=EDGE_LOOP('',(#34));
#127=EDGE_LOOP('',(#35));
#128=EDGE_LOOP('',(#36));
#129=EDGE_LOOP('',(#37));
#130=EDGE_LOOP('',(#38));
#131=EDGE_LOOP('',(#39));
#132=EDGE_LOOP('',(#40));
#133=EDGE_LOOP('',(#41));
#134=EDGE_LOOP('',(#42));
#135=EDGE_LOOP('',(#43));
#136=EDGE_LOOP('',(#44));
#137=EDGE_LOOP('',(#45));
#138=EDGE_LOOP('',(#46));
#139=EDGE_LOOP('',(#47));
#140=EDGE_LOOP('',(#48));
#141=EDGE_LOOP('',(#49));
#142=EDGE_LOOP('',(#50));
#143=EDGE_LOOP('',(#51));
#144=EDGE_LOOP('',(#52));
#145=EDGE_LOOP('',(#53));
#146=EDGE_LOOP('',(#54));
#147=EDGE_LOOP('',(#55));
#148=EDGE_LOOP('',(#56));
#149=EDGE_LOOP('',(#57));
#150=EDGE_LOOP('',(#58));
#151=EDGE_LOOP('',(#59));
#152=EDGE_LOOP('',(#60));
#153=FACE_BOUND('',#115,.T.);
#154=FACE_BOUND('',#116,.T.);
#155=FACE_BOUND('',#117,.T.);
#156=FACE_BOUND('',#118,.T.);
#157=FACE_BOUND('',#119,.T.);
#158=FACE_BOUND('',#120,.T.);
#159=FACE_BOUND('',#121,.T.);
#160=FACE_BOUND('',#122,.T.);
#161=FACE_BOUND('',#123,.T.);
#162=FACE_BOUND('',#124,.T.);
#163=FACE_BOUND('',#125,.T.);
#164=FACE_BOUND('',#126,.T.);
#165=FACE_BOUND('',#127,.T.);
#166=FACE_BOUND('',#128,.T.);
#167=FACE_BOUND('',#129,.T.);
#168=FACE_BOUND('',#130,.T.);
#169=FACE_BOUND('',#131,.T.);
#170=FACE_BOUND('',#132,.T.);
#171=FACE_BOUND('',#133,.T.);
#172=FACE_BOUND('',#134,.T.);
#173=FACE_BOUND('',#135,.T.);
#174=FACE_BOUND('',#136,.T.);
#175=FACE_BOUND('',#137,.T.);
#176=FACE_BOUND('',#138,.T.);
#177=FACE_BOUND('',#139,.T.);
#178=FACE_BOUND('',#140,.T.);
#179=FACE_BOUND('',#141,.T.);
#180=FACE_BOUND('',#142,.T.);
#181=FACE_BOUND('',#143,.T.);
#182=FACE_BOUND('',#144,.T.);
#183=FACE_BOUND('',#145,.T.);
#184=FACE_BOUND('',#146,.T.);
#185=FACE_BOUND('',#147,.T.);
#186=FACE_BOUND('',#148,.T.);
#187=FACE_BOUND('',#149,.T.);
#188=FACE_BOUND('',#150,.T.);
#189=FACE_BOUND('',#151,.T.);
#190=FACE_BOUND('',#152,.T.);
#191=CYLINDRICAL_SURFACE('',#230,0.0127);
#192=CYLINDRICAL_SURFACE('',#235,0.015875);
#193=CYLINDRICAL_SURFACE('',#237,0.015748);
#194=CYLINDRICAL_SURFACE('',#241,0.01778);
#195=CYLINDRICAL_SURFACE('',#251,0.027178);
#196=CYLINDRICAL_SURFACE('',#253,0.002794);
#197=CYLINDRICAL_SURFACE('',#254,0.002794);
#198=CYLINDRICAL_SURFACE('',#255,0.002794);
#199=CYLINDRICAL_SURFACE('',#258,0.01905);
#200=ADVANCED_FACE('',(#153,#154),#191,.F.);
#201=ADVANCED_FACE('',(#155),#18,.F.);
#202=ADVANCED_FACE('',(#156,#157),#192,.F.);
#203=ADVANCED_FACE('',(#158,#159),#193,.T.);
#204=ADVANCED_FACE('',(#160,#161),#19,.T.);
#205=ADVANCED_FACE('',(#162,#163),#194,.F.);
#206=ADVANCED_FACE('',(#164,#165),#20,.T.);
#207=ADVANCED_FACE('',(#166,#167,#168,#169,#170),#21,.T.);
#208=ADVANCED_FACE('',(#171,#172),#15,.F.);
#209=ADVANCED_FACE('',(#173,#174),#195,.T.);
#210=ADVANCED_FACE('',(#175,#176),#196,.F.);
#211=ADVANCED_FACE('',(#177,#178),#197,.F.);
#212=ADVANCED_FACE('',(#179,#180),#198,.F.);
#213=ADVANCED_FACE('',(#181),#22,.F.);
#214=ADVANCED_FACE('',(#182,#183),#199,.T.);
#215=ADVANCED_FACE('',(#184,#185,#186,#187,#188),#16,.T.);
#216=ADVANCED_FACE('',(#189,#190),#17,.T.);
#217=CLOSED_SHELL('',(#200,#201,#202,#203,#204,#205,#206,#207,#208,#209,
#210,#211,#212,#213,#214,#215,#216));
#218=STYLED_ITEM('',(#219),#226);
#219=PRESENTATION_STYLE_ASSIGNMENT((#220));
#220=SURFACE_STYLE_USAGE(.BOTH.,#221);
#221=SURFACE_SIDE_STYLE('',(#222));
#222=SURFACE_STYLE_FILL_AREA(#223);
#223=FILL_AREA_STYLE('',(#224));
#224=FILL_AREA_STYLE_COLOUR('',#225);
#225=COLOUR_RGB('',0.647058823529412,0.647058823529412,0.647058823529412);
#226=MANIFOLD_SOLID_BREP('Part 1',#217);
#227=SHAPE_DEFINITION_REPRESENTATION(#445,#228);
#228=SHAPE_REPRESENTATION('Part 1',(#229),#440);
#229=AXIS2_PLACEMENT_3D('',#331,#263,#264);
#230=AXIS2_PLACEMENT_3D('',#332,#265,#266);
#231=AXIS2_PLACEMENT_3D('',#333,#267,#268);
#232=AXIS2_PLACEMENT_3D('',#335,#269,#270);
#233=AXIS2_PLACEMENT_3D('',#337,#271,#272);
#234=AXIS2_PLACEMENT_3D('',#338,#273,#274);
#235=AXIS2_PLACEMENT_3D('',#340,#275,#276);
#236=AXIS2_PLACEMENT_3D('',#341,#277,#278);
#237=AXIS2_PLACEMENT_3D('',#343,#279,#280);
#238=AXIS2_PLACEMENT_3D('',#344,#281,#282);
#239=AXIS2_PLACEMENT_3D('',#346,#283,#284);
#240=AXIS2_PLACEMENT_3D('',#348,#285,#286);
#241=AXIS2_PLACEMENT_3D('',#349,#287,#288);
#242=AXIS2_PLACEMENT_3D('',#350,#289,#290);
#243=AXIS2_PLACEMENT_3D('',#352,#291,#292);
#244=AXIS2_PLACEMENT_3D('',#354,#293,#294);
#245=AXIS2_PLACEMENT_3D('',#355,#295,#296);
#246=AXIS2_PLACEMENT_3D('',#356,#297,#298);
#247=AXIS2_PLACEMENT_3D('',#358,#299,#300);
#248=AXIS2_PLACEMENT_3D('',#360,#301,#302);
#249=AXIS2_PLACEMENT_3D('',#362,#303,#304);
#250=AXIS2_PLACEMENT_3D('',#364,#305,#306);
#251=AXIS2_PLACEMENT_3D('',#365,#307,#308);
#252=AXIS2_PLACEMENT_3D('',#366,#309,#310);
#253=AXIS2_PLACEMENT_3D('',#368,#311,#312);
#254=AXIS2_PLACEMENT_3D('',#388,#313,#314);
#255=AXIS2_PLACEMENT_3D('',#409,#315,#316);
#256=AXIS2_PLACEMENT_3D('',#429,#317,#318);
#257=AXIS2_PLACEMENT_3D('',#430,#319,#320);
#258=AXIS2_PLACEMENT_3D('',#432,#321,#322);
#259=AXIS2_PLACEMENT_3D('',#433,#323,#324);
#260=AXIS2_PLACEMENT_3D('',#435,#325,#326);
#261=AXIS2_PLACEMENT_3D('',#437,#327,#328);
#262=AXIS2_PLACEMENT_3D('',#438,#329,#330);
#263=DIRECTION('',(0.,0.,1.));
#264=DIRECTION('',(1.,0.,0.));
#265=DIRECTION('',(0.,0.,-1.));
#266=DIRECTION('',(-1.,0.,0.));
#267=DIRECTION('',(0.,0.,-1.));
#268=DIRECTION('',(-1.,0.,0.));
#269=DIRECTION('',(0.,0.,1.));
#270=DIRECTION('',(1.,0.,0.));
#271=DIRECTION('',(0.,0.,-1.));
#272=DIRECTION('',(1.,0.,0.));
#273=DIRECTION('',(0.,0.,-1.));
#274=DIRECTION('',(-1.,0.,0.));
#275=DIRECTION('',(0.,0.,-1.));
#276=DIRECTION('',(-1.,0.,0.));
#277=DIRECTION('',(0.,0.,1.));
#278=DIRECTION('',(1.,0.,0.));
#279=DIRECTION('',(0.,0.,-1.));
#280=DIRECTION('',(-1.,0.,0.));
#281=DIRECTION('',(0.,0.,1.));
#282=DIRECTION('',(1.,0.,0.));
#283=DIRECTION('',(0.,0.,1.));
#284=DIRECTION('',(1.,0.,0.));
#285=DIRECTION('',(0.,0.,1.));
#286=DIRECTION('',(1.,0.,0.));
#287=DIRECTION('',(0.,0.,1.));
#288=DIRECTION('',(1.,0.,0.));
#289=DIRECTION('',(0.,0.,1.));
#290=DIRECTION('',(1.,0.,0.));
#291=DIRECTION('',(0.,0.,1.));
#292=DIRECTION('',(1.,0.,0.));
#293=DIRECTION('',(0.,0.,1.));
#294=DIRECTION('',(1.,0.,0.));
#295=DIRECTION('',(0.,0.,1.));
#296=DIRECTION('',(-0.5,-0.866025403784438,0.));
#297=DIRECTION('',(0.,0.,1.));
#298=DIRECTION('',(1.,0.,0.));
#299=DIRECTION('',(0.,0.,1.));
#300=DIRECTION('',(1.,0.,0.));
#301=DIRECTION('',(0.,0.,1.));
#302=DIRECTION('',(1.,0.,0.));
#303=DIRECTION('',(0.,0.,1.));
#304=DIRECTION('',(1.,0.,0.));
#305=DIRECTION('',(0.,0.,-1.));
#306=DIRECTION('',(-1.,0.,0.));
#307=DIRECTION('',(0.,0.,1.));
#308=DIRECTION('',(1.,0.,0.));
#309=DIRECTION('',(0.,0.,1.));
#310=DIRECTION('',(1.,0.,0.));
#311=DIRECTION('',(0.,0.,1.));
#312=DIRECTION('',(1.,0.,0.));
#313=DIRECTION('',(0.,0.,1.));
#314=DIRECTION('',(1.,0.,0.));
#315=DIRECTION('',(0.,0.,1.));
#316=DIRECTION('',(1.,0.,0.));
#317=DIRECTION('',(0.,0.,1.));
#318=DIRECTION('',(1.,0.,0.));
#319=DIRECTION('',(0.,0.,1.));
#320=DIRECTION('',(1.,0.,0.));
#321=DIRECTION('',(0.,0.,-1.));
#322=DIRECTION('',(-1.,0.,0.));
#323=DIRECTION('',(0.,0.,1.));
#324=DIRECTION('',(1.,0.,0.));
#325=DIRECTION('',(0.,0.,1.));
#326=DIRECTION('',(1.,0.,0.));
#327=DIRECTION('',(0.,0.,1.));
#328=DIRECTION('',(1.,0.,0.));
#329=DIRECTION('',(0.,0.,1.));
#330=DIRECTION('',(1.,0.,0.));
#331=CARTESIAN_POINT('',(0.,0.,0.));
#332=CARTESIAN_POINT('',(0.,7.77650717458569E-19,0.0508));
#333=CARTESIAN_POINT('',(0.,9.72063396823212E-19,0.040005));
#334=CARTESIAN_POINT('',(-0.0127,9.72063396823212E-19,0.040005));
#335=CARTESIAN_POINT('',(0.,7.77650717458569E-19,0.05715));
#336=CARTESIAN_POINT('',(0.0127,7.77650717458569E-19,0.05715));
#337=CARTESIAN_POINT('',(0.,0.,0.00635));
#338=CARTESIAN_POINT('',(0.,9.72063396823212E-19,0.00635));
#339=CARTESIAN_POINT('',(-0.015875,9.72063396823212E-19,0.00635));
#340=CARTESIAN_POINT('',(0.,9.72063396823212E-19,0.0508));
#341=CARTESIAN_POINT('',(0.,9.72063396823212E-19,0.03683));
#342=CARTESIAN_POINT('',(0.015875,9.72063396823212E-19,0.03683));
#343=CARTESIAN_POINT('',(-3.46944695195361E-18,8.98738296604136E-18,0.05715));
#344=CARTESIAN_POINT('',(-3.46944695195361E-18,8.98738296604136E-18,0.05715));
#345=CARTESIAN_POINT('',(0.015748,8.98738296604136E-18,0.05715));
#346=CARTESIAN_POINT('',(-3.46944695195361E-18,8.98738296604136E-18,0.049276));
#347=CARTESIAN_POINT('',(0.015748,8.98738296604136E-18,0.049276));
#348=CARTESIAN_POINT('',(-3.46944695195361E-18,0.004064,0.05715));
#349=CARTESIAN_POINT('',(-3.46944695195361E-18,9.11180708083473E-18,0.049276));
#350=CARTESIAN_POINT('',(-3.46944695195361E-18,9.11180708083473E-18,0.049276));
#351=CARTESIAN_POINT('',(0.01778,9.11180708083473E-18,0.049276));
#352=CARTESIAN_POINT('',(-3.46944695195361E-18,9.11180708083473E-18,0.0508));
#353=CARTESIAN_POINT('',(0.01778,9.11180708083473E-18,0.0508));
#354=CARTESIAN_POINT('',(-3.46944695195361E-18,0.004064,0.049276));
#355=CARTESIAN_POINT('',(0.00351952724097996,-0.002032,0.0508));
#356=CARTESIAN_POINT('',(-3.46944695195361E-18,1.07759796161961E-17,0.0508));
#357=CARTESIAN_POINT('',(0.027178,1.07759796161961E-17,0.0508));
#358=CARTESIAN_POINT('',(0.0192474145991092,-0.0111125,0.0508));
#359=CARTESIAN_POINT('',(0.0220414145991092,-0.0111125,0.0508));
#360=CARTESIAN_POINT('',(-0.0192474145991092,-0.0111125,0.0508));
#361=CARTESIAN_POINT('',(-0.0164534145991092,-0.0111125,0.0508));
#362=CARTESIAN_POINT('',(-8.67361737988404E-19,0.022225,0.0508));
#363=CARTESIAN_POINT('',(0.002794,0.022225,0.0508));
#364=CARTESIAN_POINT('',(0.,9.72063396823212E-19,0.03683));
#365=CARTESIAN_POINT('',(-3.46944695195361E-18,1.07759796161961E-17,0.04191));
#366=CARTESIAN_POINT('',(-3.57786716920216E-18,8.02309607639273E-18,0.041148));
#367=CARTESIAN_POINT('',(0.027178,8.02309607639273E-18,0.041148));
#368=CARTESIAN_POINT('',(-0.0192474145991092,-0.0111125,0.04191));
#369=CARTESIAN_POINT('',(-0.0220663880598287,-0.0105553085193639,0.0384251643975832));
#370=CARTESIAN_POINT('',(-0.0220598083248001,-0.0118257472293987,0.0389879123055001));
#371=CARTESIAN_POINT('',(-0.0213950402702899,-0.0130672784860778,0.0390276160300788));
#372=CARTESIAN_POINT('',(-0.0203151985267057,-0.0137834342301951,0.0385133252658821));
#373=CARTESIAN_POINT('',(-0.0192267908144509,-0.0139690009303717,0.0377332525473951));
#374=CARTESIAN_POINT('',(-0.0182461822804717,-0.0137795544667088,0.0368343613148493));
#375=CARTESIAN_POINT('',(-0.0174247236134227,-0.0132985971456829,0.0358898453169613));
#376=CARTESIAN_POINT('',(-0.0168008035842557,-0.0125740523194221,0.0349541366326451));
#377=CARTESIAN_POINT('',(-0.0164288756380826,-0.0116168157876053,0.0340868897969133));
#378=CARTESIAN_POINT('',(-0.0164351407490209,-0.0104068164983428,0.0334084686870995));
#379=CARTESIAN_POINT('',(-0.0171064364869749,-0.0091515984502449,0.0333550254720064));
#380=CARTESIAN_POINT('',(-0.0181471171707656,-0.00846495756785083,0.0339891899620045));
#381=CARTESIAN_POINT('',(-0.0191671972137134,-0.00826306121801937,0.0348412137034492));
#382=CARTESIAN_POINT('',(-0.0204333470066019,-0.00844948700856177,0.0360819372457276));
#383=CARTESIAN_POINT('',(-0.0214967263019543,-0.00922213502263801,0.0373561413093554));
#384=CARTESIAN_POINT('',(-0.0220663880598287,-0.0105553085193639,0.0384251643975832));
#385=CARTESIAN_POINT('',(-0.0220598083248001,-0.0118257472293987,0.0389879123055001));
#386=CARTESIAN_POINT('',(-0.0213950402702899,-0.0130672784860778,0.0390276160300788));
#387=CARTESIAN_POINT('',(-0.0219501102715531,-0.0118209293205061,0.0389007382749437));
#388=CARTESIAN_POINT('',(0.0192474145991092,-0.0111125,0.04191));
#389=CARTESIAN_POINT('',(0.0186489122778304,-0.0138997913351905,0.0372280350637019));
#390=CARTESIAN_POINT('',(0.0196761964854408,-0.0139431050510684,0.038081951307466));
#391=CARTESIAN_POINT('',(0.020791072250092,-0.0135543621326923,0.0387800735517319));
#392=CARTESIAN_POINT('',(0.0217529920124088,-0.0125877544492113,0.0390893810173315));
#393=CARTESIAN_POINT('',(0.0221339705091256,-0.0112641046777278,0.0387959533797158));
#394=CARTESIAN_POINT('',(0.0219255742475352,-0.0100985866052317,0.0381056888702184));
#395=CARTESIAN_POINT('',(0.0213767627298814,-0.00921614869145152,0.0372476744385476));
#396=CARTESIAN_POINT('',(0.0206219238058569,-0.00862014369022055,0.0363211546774454));
#397=CARTESIAN_POINT('',(0.0197272609229264,-0.00830501866310074,0.0353738513924938));
#398=CARTESIAN_POINT('',(0.0187387043070808,-0.00830376702074782,0.0344640739441479));
#399=CARTESIAN_POINT('',(0.017699697771711,-0.0086805429690585,0.0336742417004871));
#400=CARTESIAN_POINT('',(0.0167379499077444,-0.0096410192682006,0.0332687343841227));
#401=CARTESIAN_POINT('',(0.0163675911638134,-0.0109578403768615,0.0336571949823096));
#402=CARTESIAN_POINT('',(0.0165517587139766,-0.0120512453795197,0.0344420944363955));
#403=CARTESIAN_POINT('',(0.0170389757356065,-0.0129109445081371,0.0353476600811491));
#404=CARTESIAN_POINT('',(0.0177536921949802,-0.0135360025212483,0.0362953335736646));
#405=CARTESIAN_POINT('',(0.0186489122778304,-0.0138997913351905,0.0372280350637019));
#406=CARTESIAN_POINT('',(0.0196761964854408,-0.0139431050510684,0.038081951307466));
#407=CARTESIAN_POINT('',(0.020791072250092,-0.0135543621326923,0.0387800735517319));
#408=CARTESIAN_POINT('',(0.0196907950782809,-0.0138710956120261,0.038055985640883));
#409=CARTESIAN_POINT('',(-8.67361737988404E-19,0.022225,0.04191));
#410=CARTESIAN_POINT('',(-0.000807850165900916,0.025012216152153,0.0389834951673417));
#411=CARTESIAN_POINT('',(-0.00190702477870759,0.0243732721197504,0.0384121356535438));
#412=CARTESIAN_POINT('',(-0.00255054024827915,0.0235067940822876,0.037612809573278));
#413=CARTESIAN_POINT('',(-0.00282848049514439,0.0225586134181623,0.0367049628899569));
#414=CARTESIAN_POINT('',(-0.00277963116729358,0.0216102144655975,0.0357583188084363));
#415=CARTESIAN_POINT('',(-0.00241805788777949,0.0207150910152845,0.0348245741464171));
#416=CARTESIAN_POINT('',(-0.00172733084050795,0.0199361465686952,0.033975535689372));
#417=CARTESIAN_POINT('',(-0.000604485062534409,0.0193851486068848,0.0333489451778304));
#418=CARTESIAN_POINT('',(0.000815835192343214,0.0194432087117218,0.0334160285427214));
#419=CARTESIAN_POINT('',(0.00185952825032277,0.0200484140233813,0.0341003991353644));
#420=CARTESIAN_POINT('',(0.0024964545068916,0.0208499886987931,0.0349678783683652));
#421=CARTESIAN_POINT('',(0.00290975151933827,0.0220575192099204,0.0362193423939618));
#422=CARTESIAN_POINT('',(0.00271404708109301,0.0233633485946781,0.0374842018996904));
#423=CARTESIAN_POINT('',(0.00176265981647958,0.0244990892420408,0.0385258111367726));
#424=CARTESIAN_POINT('',(0.00060010843759299,0.0250658735196417,0.0390307676013765));
#425=CARTESIAN_POINT('',(-0.000807850165900916,0.025012216152153,0.0389834951673417));
#426=CARTESIAN_POINT('',(-0.00190702477870759,0.0243732721197504,0.0384121356535438));
#427=CARTESIAN_POINT('',(-0.00255054024827915,0.0235067940822876,0.037612809573278));
#428=CARTESIAN_POINT('',(-0.00183108158816839,0.0243353497855737,0.0383741412257992));
#429=CARTESIAN_POINT('',(0.,0.,0.));
#430=CARTESIAN_POINT('',(-3.57786716920216E-18,8.02309607639273E-18,0.));
#431=CARTESIAN_POINT('',(0.01778,8.02309607639273E-18,0.));
#432=CARTESIAN_POINT('',(-3.57786716920216E-18,8.02309607639273E-18,0.0508));
#433=CARTESIAN_POINT('',(-3.57786716920216E-18,8.02309607639273E-18,0.00127000000000001));
#434=CARTESIAN_POINT('',(0.01905,8.02309607639273E-18,0.00127000000000001));
#435=CARTESIAN_POINT('',(-3.57786716920216E-18,8.02309607639273E-18,0.03302));
#436=CARTESIAN_POINT('',(0.01905,8.02309607639273E-18,0.03302));
#437=CARTESIAN_POINT('',(-3.57786716920216E-18,8.02309607639273E-18,0.04191));
#438=CARTESIAN_POINT('',(-3.57786716920216E-18,8.02309607639273E-18,0.00127000000000001));
#439=MECHANICAL_DESIGN_GEOMETRIC_PRESENTATION_REPRESENTATION('',(#218),
#440);
#440=(
GEOMETRIC_REPRESENTATION_CONTEXT(3)
GLOBAL_UNCERTAINTY_ASSIGNED_CONTEXT((#441))
GLOBAL_UNIT_ASSIGNED_CONTEXT((#444,#443,#442))
REPRESENTATION_CONTEXT('Part 1','TOP_LEVEL_ASSEMBLY_PART')
);
#441=UNCERTAINTY_MEASURE_WITH_UNIT(LENGTH_MEASURE(2.E-5),#444,
'DISTANCE_ACCURACY_VALUE','Maximum Tolerance applied to model');
#442=(
NAMED_UNIT(*)
SI_UNIT($,.STERADIAN.)
SOLID_ANGLE_UNIT()
);
#443=(
NAMED_UNIT(*)
PLANE_ANGLE_UNIT()
SI_UNIT($,.RADIAN.)
);
#444=(
LENGTH_UNIT()
NAMED_UNIT(*)
SI_UNIT($,.METRE.)
);
#445=PRODUCT_DEFINITION_SHAPE('','',#446);
#446=PRODUCT_DEFINITION('','',#448,#447);
#447=PRODUCT_DEFINITION_CONTEXT('',#454,'design');
#448=PRODUCT_DEFINITION_FORMATION_WITH_SPECIFIED_SOURCE('','',#450,
 .NOT_KNOWN.);
#449=PRODUCT_RELATED_PRODUCT_CATEGORY('','',(#450));
#450=PRODUCT('Part 1','Part 1','Part 1',(#452));
#451=PRODUCT_CATEGORY('','');
#452=PRODUCT_CONTEXT('',#454,'mechanical');
#453=APPLICATION_PROTOCOL_DEFINITION('international standard',
'ap242_managed_model_based_3d_engineering',2020,#454);
#454=APPLICATION_CONTEXT('managed model based 3d engineering');
ENDSEC;
END-ISO-10303-21;
