ISO-10303-21;
HEADER;
/* Generated by software containing ST-Developer
 * from STEP Tools, Inc. (www.steptools.com) 
 */
/* OPTION: using custom renumber hook */

FILE_DESCRIPTION(
/* description */ ('STEP AP242 Edition 2',
'CAx-IF Rec.Pracs.---Representation and Presentation of Product Manufa
cturing Information (PMI)---4.0---2014-10-13',
'CAx-IF Rec.Pracs.---3D Tessellated Geometry---0.4---2014-09-14','2;1',
'CAx-IF Rec.Pracs.---User Defined Attributes---1.5---2016-08-15'),
/* implementation_level */ '2;1');

FILE_NAME(
/* name */ 'LEAN FLOAT - Wedge Bottom',
/* time_stamp */ '2026-09-10T19:33:38Z',
/* author */ (''),
/* organization */ (''),
/* preprocessor_version */ 'ST-DEVELOPER v20',
/* originating_system */ 'ONSHAPE BY PTC INC, 1.220',
/* authorisation */ '  ');

FILE_SCHEMA (('AP242_MANAGED_MODEL_BASED_3D_ENGINEERING_MIM_LF { 1 0 10303 442 3 1 4 }'));
ENDSEC;

DATA;
#10=SHAPE_REPRESENTATION_RELATIONSHIP('','',#741,#11);
#11=ADVANCED_BREP_SHAPE_REPRESENTATION('',(#739),#1269);
#12=CYLINDRICAL_SURFACE('',#756,0.0731774);
#13=CYLINDRICAL_SURFACE('',#758,0.076073);
#14=CYLINDRICAL_SURFACE('',#761,0.2286);
#15=CYLINDRICAL_SURFACE('',#770,0.0022479);
#16=CYLINDRICAL_SURFACE('',#771,0.0022479);
#17=CYLINDRICAL_SURFACE('',#772,0.225932999999997);
#18=CYLINDRICAL_SURFACE('',#774,0.224790000000007);
#19=CYLINDRICAL_SURFACE('',#778,0.225932999999993);
#20=CYLINDRICAL_SURFACE('',#781,0.22479);
#21=B_SPLINE_CURVE_WITH_KNOTS('',3,(#1037,#1038,#1039,#1040),
 .UNSPECIFIED.,.F.,.F.,(4,4),(0.00490932625347645,0.00601234559763077),
 .UNSPECIFIED.);
#22=B_SPLINE_CURVE_WITH_KNOTS('',3,(#1042,#1043,#1044,#1045),
 .UNSPECIFIED.,.F.,.F.,(4,4),(0.00490673033924805,0.0060092702247619),
 .UNSPECIFIED.);
#23=B_SPLINE_CURVE_WITH_KNOTS('',3,(#1049,#1050,#1051,#1052),
 .UNSPECIFIED.,.F.,.F.,(4,4),(0.00504127098658204,0.00616854674507231),
 .UNSPECIFIED.);
#24=B_SPLINE_CURVE_WITH_KNOTS('',3,(#1053,#1054,#1055,#1056),
 .UNSPECIFIED.,.F.,.F.,(4,4),(0.,0.0987893518714469),.UNSPECIFIED.);
#25=B_SPLINE_CURVE_WITH_KNOTS('',3,(#1060,#1061,#1062,#1063),
 .UNSPECIFIED.,.F.,.F.,(4,4),(6.93797597141516E-18,0.0987893518714468),
 .UNSPECIFIED.);
#26=B_SPLINE_CURVE_WITH_KNOTS('',3,(#1064,#1065,#1066,#1067),
 .UNSPECIFIED.,.F.,.F.,(4,4),(0.00504533784547481,0.00617335773607723),
 .UNSPECIFIED.);
#27=B_SPLINE_CURVE_WITH_KNOTS('',3,(#1071,#1072,#1073,#1074,#1075,#1076,
#1077,#1078,#1079,#1080,#1081),.UNSPECIFIED.,.T.,.F.,(1,1,1,1,1,1,1,1,1,
1,1,1,1,1,1),(-0.00527068490769531,-0.00351378993846354,-0.00175689496923177,
0.,0.00175689496923177,0.00351378993846354,0.00527068490769532,0.00702757987692709,
0.00878447484615886,0.0105413698153906,0.0122982647846224,0.0140551597538542,
0.0158120547230859,0.0175689496923177,0.0193258446615495),.UNSPECIFIED.);
#28=B_SPLINE_CURVE_WITH_KNOTS('',3,(#1088,#1089,#1090,#1091,#1092,#1093,
#1094,#1095,#1096,#1097,#1098),.UNSPECIFIED.,.T.,.F.,(1,1,1,1,1,1,1,1,1,
1,1,1,1,1,1),(-0.00527068490769532,-0.00351378993846354,-0.00175689496923177,
0.,0.00175689496923177,0.00351378993846354,0.00527068490769532,0.00702757987692709,
0.00878447484615886,0.0105413698153906,0.0122982647846224,0.0140551597538542,
0.015812054723086,0.0175689496923177,0.0193258446615495),.UNSPECIFIED.);
#29=B_SPLINE_CURVE_WITH_KNOTS('',3,(#1106,#1107,#1108,#1109,#1110,#1111,
#1112,#1113,#1114,#1115,#1116),.UNSPECIFIED.,.T.,.F.,(1,1,1,1,1,1,1,1,1,
1,1,1,1,1,1),(-0.00527066196413619,-0.00351377464275746,-0.00175688732137873,
0.,0.00175688732137873,0.00351377464275746,0.00527066196413619,0.00702754928551491,
0.00878443660689364,0.0105413239282724,0.0122982112496511,0.0140550985710298,
0.0158119858924086,0.0175688732137873,0.019325760535166),.UNSPECIFIED.);
#30=B_SPLINE_CURVE_WITH_KNOTS('',3,(#1118,#1119,#1120,#1121,#1122,#1123,
#1124,#1125,#1126,#1127,#1128),.UNSPECIFIED.,.T.,.F.,(1,1,1,1,1,1,1,1,1,
1,1,1,1,1,1),(-0.00527066196413617,-0.00351377464275745,-0.00175688732137872,
0.,0.00175688732137872,0.00351377464275745,0.00527066196413617,0.0070275492855149,
0.00878443660689362,0.0105413239282723,0.0122982112496511,0.0140550985710298,
0.0158119858924085,0.0175688732137872,0.019325760535166),.UNSPECIFIED.);
#31=B_SPLINE_CURVE_WITH_KNOTS('',3,(#1177,#1178,#1179,#1180),
 .UNSPECIFIED.,.F.,.F.,(4,4),(0.,0.00165374172847264),.UNSPECIFIED.);
#32=B_SPLINE_CURVE_WITH_KNOTS('',3,(#1182,#1183,#1184,#1185),
 .UNSPECIFIED.,.F.,.F.,(4,4),(0.,0.00169076777250409),.UNSPECIFIED.);
#33=B_SPLINE_CURVE_WITH_KNOTS('',3,(#1195,#1196,#1197,#1198),
 .UNSPECIFIED.,.F.,.F.,(4,4),(0.,0.00165445950540961),.UNSPECIFIED.);
#34=B_SPLINE_CURVE_WITH_KNOTS('',3,(#1204,#1205,#1206,#1207),
 .UNSPECIFIED.,.F.,.F.,(4,4),(0.,0.00169188147370724),.UNSPECIFIED.);
#35=CONICAL_SURFACE('',#752,0.225552,0.785398163397448);
#36=CONICAL_SURFACE('',#769,0.15875,0.785398163397448);
#37=CONICAL_SURFACE('',#798,0.225932999999993,0.785398163397413);
#38=CONICAL_SURFACE('',#799,0.225932999999997,0.785398163397446);
#39=CIRCLE('',#744,0.225552);
#40=CIRCLE('',#745,0.225932999999997);
#41=CIRCLE('',#746,0.225552);
#42=CIRCLE('',#747,0.225932999999993);
#43=CIRCLE('',#748,0.225552);
#44=CIRCLE('',#749,0.076073);
#45=CIRCLE('',#750,0.0731774);
#46=CIRCLE('',#751,0.2286);
#47=CIRCLE('',#753,0.224790000000007);
#48=CIRCLE('',#754,0.155702);
#49=CIRCLE('',#755,0.22479);
#50=CIRCLE('',#757,0.0731774);
#51=CIRCLE('',#759,0.076073);
#52=CIRCLE('',#762,0.2286);
#53=CIRCLE('',#765,0.15875);
#54=CIRCLE('',#773,0.225932999999997);
#55=CIRCLE('',#775,0.224790000000007);
#56=CIRCLE('',#779,0.225932999999993);
#57=CIRCLE('',#782,0.22479);
#58=ORIENTED_EDGE('',*,*,#264,.F.);
#59=ORIENTED_EDGE('',*,*,#265,.T.);
#60=ORIENTED_EDGE('',*,*,#266,.T.);
#61=ORIENTED_EDGE('',*,*,#267,.T.);
#62=ORIENTED_EDGE('',*,*,#268,.F.);
#63=ORIENTED_EDGE('',*,*,#269,.T.);
#64=ORIENTED_EDGE('',*,*,#270,.F.);
#65=ORIENTED_EDGE('',*,*,#271,.T.);
#66=ORIENTED_EDGE('',*,*,#272,.T.);
#67=ORIENTED_EDGE('',*,*,#273,.T.);
#68=ORIENTED_EDGE('',*,*,#274,.F.);
#69=ORIENTED_EDGE('',*,*,#275,.T.);
#70=ORIENTED_EDGE('',*,*,#276,.T.);
#71=ORIENTED_EDGE('',*,*,#277,.T.);
#72=ORIENTED_EDGE('',*,*,#278,.T.);
#73=ORIENTED_EDGE('',*,*,#279,.T.);
#74=ORIENTED_EDGE('',*,*,#280,.F.);
#75=ORIENTED_EDGE('',*,*,#281,.F.);
#76=ORIENTED_EDGE('',*,*,#282,.T.);
#77=ORIENTED_EDGE('',*,*,#283,.F.);
#78=ORIENTED_EDGE('',*,*,#284,.T.);
#79=ORIENTED_EDGE('',*,*,#285,.F.);
#80=ORIENTED_EDGE('',*,*,#286,.F.);
#81=ORIENTED_EDGE('',*,*,#287,.T.);
#82=ORIENTED_EDGE('',*,*,#288,.F.);
#83=ORIENTED_EDGE('',*,*,#273,.F.);
#84=ORIENTED_EDGE('',*,*,#289,.T.);
#85=ORIENTED_EDGE('',*,*,#290,.F.);
#86=ORIENTED_EDGE('',*,*,#291,.F.);
#87=ORIENTED_EDGE('',*,*,#269,.F.);
#88=ORIENTED_EDGE('',*,*,#292,.F.);
#89=ORIENTED_EDGE('',*,*,#293,.F.);
#90=ORIENTED_EDGE('',*,*,#294,.F.);
#91=ORIENTED_EDGE('',*,*,#277,.F.);
#92=ORIENTED_EDGE('',*,*,#295,.T.);
#93=ORIENTED_EDGE('',*,*,#296,.T.);
#94=ORIENTED_EDGE('',*,*,#297,.T.);
#95=ORIENTED_EDGE('',*,*,#284,.F.);
#96=ORIENTED_EDGE('',*,*,#298,.F.);
#97=ORIENTED_EDGE('',*,*,#299,.T.);
#98=ORIENTED_EDGE('',*,*,#300,.T.);
#99=ORIENTED_EDGE('',*,*,#301,.T.);
#100=ORIENTED_EDGE('',*,*,#283,.T.);
#101=ORIENTED_EDGE('',*,*,#302,.F.);
#102=ORIENTED_EDGE('',*,*,#303,.F.);
#103=ORIENTED_EDGE('',*,*,#304,.T.);
#104=ORIENTED_EDGE('',*,*,#305,.F.);
#105=ORIENTED_EDGE('',*,*,#306,.F.);
#106=ORIENTED_EDGE('',*,*,#307,.F.);
#107=ORIENTED_EDGE('',*,*,#308,.T.);
#108=ORIENTED_EDGE('',*,*,#309,.T.);
#109=ORIENTED_EDGE('',*,*,#298,.T.);
#110=ORIENTED_EDGE('',*,*,#287,.F.);
#111=ORIENTED_EDGE('',*,*,#310,.F.);
#112=ORIENTED_EDGE('',*,*,#311,.T.);
#113=ORIENTED_EDGE('',*,*,#307,.T.);
#114=ORIENTED_EDGE('',*,*,#286,.T.);
#115=ORIENTED_EDGE('',*,*,#312,.F.);
#116=ORIENTED_EDGE('',*,*,#313,.T.);
#117=ORIENTED_EDGE('',*,*,#310,.T.);
#118=ORIENTED_EDGE('',*,*,#285,.T.);
#119=ORIENTED_EDGE('',*,*,#300,.F.);
#120=ORIENTED_EDGE('',*,*,#309,.F.);
#121=ORIENTED_EDGE('',*,*,#314,.T.);
#122=ORIENTED_EDGE('',*,*,#312,.T.);
#123=ORIENTED_EDGE('',*,*,#299,.F.);
#124=ORIENTED_EDGE('',*,*,#315,.F.);
#125=ORIENTED_EDGE('',*,*,#316,.T.);
#126=ORIENTED_EDGE('',*,*,#264,.T.);
#127=ORIENTED_EDGE('',*,*,#304,.F.);
#128=ORIENTED_EDGE('',*,*,#317,.F.);
#129=ORIENTED_EDGE('',*,*,#292,.T.);
#130=ORIENTED_EDGE('',*,*,#268,.T.);
#131=ORIENTED_EDGE('',*,*,#318,.T.);
#132=ORIENTED_EDGE('',*,*,#319,.F.);
#133=ORIENTED_EDGE('',*,*,#278,.F.);
#134=ORIENTED_EDGE('',*,*,#294,.T.);
#135=ORIENTED_EDGE('',*,*,#320,.T.);
#136=ORIENTED_EDGE('',*,*,#302,.T.);
#137=ORIENTED_EDGE('',*,*,#282,.F.);
#138=ORIENTED_EDGE('',*,*,#321,.T.);
#139=ORIENTED_EDGE('',*,*,#322,.T.);
#140=ORIENTED_EDGE('',*,*,#320,.F.);
#141=ORIENTED_EDGE('',*,*,#293,.T.);
#142=ORIENTED_EDGE('',*,*,#317,.T.);
#143=ORIENTED_EDGE('',*,*,#303,.T.);
#144=ORIENTED_EDGE('',*,*,#308,.F.);
#145=ORIENTED_EDGE('',*,*,#311,.F.);
#146=ORIENTED_EDGE('',*,*,#313,.F.);
#147=ORIENTED_EDGE('',*,*,#314,.F.);
#148=ORIENTED_EDGE('',*,*,#297,.F.);
#149=ORIENTED_EDGE('',*,*,#305,.T.);
#150=ORIENTED_EDGE('',*,*,#301,.F.);
#151=ORIENTED_EDGE('',*,*,#306,.T.);
#152=ORIENTED_EDGE('',*,*,#323,.F.);
#153=ORIENTED_EDGE('',*,*,#324,.T.);
#154=ORIENTED_EDGE('',*,*,#325,.T.);
#155=ORIENTED_EDGE('',*,*,#271,.F.);
#156=ORIENTED_EDGE('',*,*,#326,.F.);
#157=ORIENTED_EDGE('',*,*,#327,.T.);
#158=ORIENTED_EDGE('',*,*,#328,.T.);
#159=ORIENTED_EDGE('',*,*,#290,.T.);
#160=ORIENTED_EDGE('',*,*,#325,.F.);
#161=ORIENTED_EDGE('',*,*,#329,.T.);
#162=ORIENTED_EDGE('',*,*,#326,.T.);
#163=ORIENTED_EDGE('',*,*,#289,.F.);
#164=ORIENTED_EDGE('',*,*,#272,.F.);
#165=ORIENTED_EDGE('',*,*,#328,.F.);
#166=ORIENTED_EDGE('',*,*,#330,.T.);
#167=ORIENTED_EDGE('',*,*,#323,.T.);
#168=ORIENTED_EDGE('',*,*,#270,.T.);
#169=ORIENTED_EDGE('',*,*,#291,.T.);
#170=ORIENTED_EDGE('',*,*,#331,.F.);
#171=ORIENTED_EDGE('',*,*,#332,.T.);
#172=ORIENTED_EDGE('',*,*,#333,.T.);
#173=ORIENTED_EDGE('',*,*,#275,.F.);
#174=ORIENTED_EDGE('',*,*,#334,.F.);
#175=ORIENTED_EDGE('',*,*,#335,.T.);
#176=ORIENTED_EDGE('',*,*,#331,.T.);
#177=ORIENTED_EDGE('',*,*,#274,.T.);
#178=ORIENTED_EDGE('',*,*,#288,.T.);
#179=ORIENTED_EDGE('',*,*,#336,.F.);
#180=ORIENTED_EDGE('',*,*,#337,.T.);
#181=ORIENTED_EDGE('',*,*,#334,.T.);
#182=ORIENTED_EDGE('',*,*,#296,.F.);
#183=ORIENTED_EDGE('',*,*,#333,.F.);
#184=ORIENTED_EDGE('',*,*,#338,.T.);
#185=ORIENTED_EDGE('',*,*,#336,.T.);
#186=ORIENTED_EDGE('',*,*,#295,.F.);
#187=ORIENTED_EDGE('',*,*,#276,.F.);
#188=ORIENTED_EDGE('',*,*,#339,.F.);
#189=ORIENTED_EDGE('',*,*,#340,.T.);
#190=ORIENTED_EDGE('',*,*,#341,.T.);
#191=ORIENTED_EDGE('',*,*,#280,.T.);
#192=ORIENTED_EDGE('',*,*,#342,.T.);
#193=ORIENTED_EDGE('',*,*,#343,.T.);
#194=ORIENTED_EDGE('',*,*,#339,.T.);
#195=ORIENTED_EDGE('',*,*,#279,.F.);
#196=ORIENTED_EDGE('',*,*,#319,.T.);
#197=ORIENTED_EDGE('',*,*,#344,.F.);
#198=ORIENTED_EDGE('',*,*,#345,.F.);
#199=ORIENTED_EDGE('',*,*,#341,.F.);
#200=ORIENTED_EDGE('',*,*,#346,.T.);
#201=ORIENTED_EDGE('',*,*,#347,.F.);
#202=ORIENTED_EDGE('',*,*,#348,.T.);
#203=ORIENTED_EDGE('',*,*,#349,.T.);
#204=ORIENTED_EDGE('',*,*,#321,.F.);
#205=ORIENTED_EDGE('',*,*,#281,.T.);
#206=ORIENTED_EDGE('',*,*,#350,.F.);
#207=ORIENTED_EDGE('',*,*,#348,.F.);
#208=ORIENTED_EDGE('',*,*,#351,.T.);
#209=ORIENTED_EDGE('',*,*,#345,.T.);
#210=ORIENTED_EDGE('',*,*,#347,.T.);
#211=ORIENTED_EDGE('',*,*,#352,.T.);
#212=ORIENTED_EDGE('',*,*,#342,.F.);
#213=ORIENTED_EDGE('',*,*,#351,.F.);
#214=ORIENTED_EDGE('',*,*,#322,.F.);
#215=ORIENTED_EDGE('',*,*,#349,.F.);
#216=ORIENTED_EDGE('',*,*,#350,.T.);
#217=ORIENTED_EDGE('',*,*,#344,.T.);
#218=ORIENTED_EDGE('',*,*,#353,.F.);
#219=ORIENTED_EDGE('',*,*,#354,.T.);
#220=ORIENTED_EDGE('',*,*,#355,.T.);
#221=ORIENTED_EDGE('',*,*,#266,.F.);
#222=ORIENTED_EDGE('',*,*,#356,.T.);
#223=ORIENTED_EDGE('',*,*,#357,.T.);
#224=ORIENTED_EDGE('',*,*,#353,.T.);
#225=ORIENTED_EDGE('',*,*,#265,.F.);
#226=ORIENTED_EDGE('',*,*,#316,.F.);
#227=ORIENTED_EDGE('',*,*,#358,.F.);
#228=ORIENTED_EDGE('',*,*,#359,.F.);
#229=ORIENTED_EDGE('',*,*,#355,.F.);
#230=ORIENTED_EDGE('',*,*,#360,.T.);
#231=ORIENTED_EDGE('',*,*,#361,.T.);
#232=ORIENTED_EDGE('',*,*,#362,.T.);
#233=ORIENTED_EDGE('',*,*,#363,.F.);
#234=ORIENTED_EDGE('',*,*,#318,.F.);
#235=ORIENTED_EDGE('',*,*,#267,.F.);
#236=ORIENTED_EDGE('',*,*,#358,.T.);
#237=ORIENTED_EDGE('',*,*,#315,.T.);
#238=ORIENTED_EDGE('',*,*,#363,.T.);
#239=ORIENTED_EDGE('',*,*,#364,.T.);
#240=ORIENTED_EDGE('',*,*,#364,.F.);
#241=ORIENTED_EDGE('',*,*,#362,.F.);
#242=ORIENTED_EDGE('',*,*,#365,.T.);
#243=ORIENTED_EDGE('',*,*,#359,.T.);
#244=ORIENTED_EDGE('',*,*,#361,.F.);
#245=ORIENTED_EDGE('',*,*,#366,.T.);
#246=ORIENTED_EDGE('',*,*,#356,.F.);
#247=ORIENTED_EDGE('',*,*,#365,.F.);
#248=ORIENTED_EDGE('',*,*,#357,.F.);
#249=ORIENTED_EDGE('',*,*,#366,.F.);
#250=ORIENTED_EDGE('',*,*,#360,.F.);
#251=ORIENTED_EDGE('',*,*,#354,.F.);
#252=ORIENTED_EDGE('',*,*,#346,.F.);
#253=ORIENTED_EDGE('',*,*,#340,.F.);
#254=ORIENTED_EDGE('',*,*,#343,.F.);
#255=ORIENTED_EDGE('',*,*,#352,.F.);
#256=ORIENTED_EDGE('',*,*,#335,.F.);
#257=ORIENTED_EDGE('',*,*,#337,.F.);
#258=ORIENTED_EDGE('',*,*,#338,.F.);
#259=ORIENTED_EDGE('',*,*,#332,.F.);
#260=ORIENTED_EDGE('',*,*,#330,.F.);
#261=ORIENTED_EDGE('',*,*,#327,.F.);
#262=ORIENTED_EDGE('',*,*,#329,.F.);
#263=ORIENTED_EDGE('',*,*,#324,.F.);
#264=EDGE_CURVE('',#367,#368,#437,.T.);
#265=EDGE_CURVE('',#367,#369,#438,.T.);
#266=EDGE_CURVE('',#369,#370,#439,.T.);
#267=EDGE_CURVE('',#370,#371,#440,.T.);
#268=EDGE_CURVE('',#372,#371,#441,.T.);
#269=EDGE_CURVE('',#372,#373,#39,.T.);
#270=EDGE_CURVE('',#374,#373,#442,.T.);
#271=EDGE_CURVE('',#374,#375,#40,.T.);
#272=EDGE_CURVE('',#375,#376,#443,.T.);
#273=EDGE_CURVE('',#376,#377,#41,.T.);
#274=EDGE_CURVE('',#378,#377,#444,.T.);
#275=EDGE_CURVE('',#378,#379,#42,.T.);
#276=EDGE_CURVE('',#379,#380,#445,.T.);
#277=EDGE_CURVE('',#380,#381,#43,.T.);
#278=EDGE_CURVE('',#381,#382,#446,.T.);
#279=EDGE_CURVE('',#382,#383,#447,.T.);
#280=EDGE_CURVE('',#384,#383,#448,.T.);
#281=EDGE_CURVE('',#385,#384,#449,.T.);
#282=EDGE_CURVE('',#385,#386,#450,.T.);
#283=EDGE_CURVE('',#368,#386,#44,.T.);
#284=EDGE_CURVE('',#387,#388,#45,.T.);
#285=EDGE_CURVE('',#389,#388,#451,.T.);
#286=EDGE_CURVE('',#390,#389,#46,.T.);
#287=EDGE_CURVE('',#390,#387,#452,.T.);
#288=EDGE_CURVE('',#377,#391,#21,.T.);
#289=EDGE_CURVE('',#376,#392,#22,.T.);
#290=EDGE_CURVE('',#393,#392,#47,.F.);
#291=EDGE_CURVE('',#373,#393,#23,.T.);
#292=EDGE_CURVE('',#394,#372,#24,.T.);
#293=EDGE_CURVE('',#395,#394,#48,.T.);
#294=EDGE_CURVE('',#381,#395,#25,.T.);
#295=EDGE_CURVE('',#380,#396,#26,.T.);
#296=EDGE_CURVE('',#396,#391,#49,.T.);
#297=EDGE_CURVE('',#397,#397,#27,.T.);
#298=EDGE_CURVE('',#398,#387,#453,.T.);
#299=EDGE_CURVE('',#398,#399,#50,.T.);
#300=EDGE_CURVE('',#399,#388,#454,.T.);
#301=EDGE_CURVE('',#400,#400,#28,.T.);
#302=EDGE_CURVE('',#401,#386,#455,.T.);
#303=EDGE_CURVE('',#402,#401,#51,.T.);
#304=EDGE_CURVE('',#402,#368,#456,.T.);
#305=EDGE_CURVE('',#403,#403,#29,.T.);
#306=EDGE_CURVE('',#404,#404,#30,.T.);
#307=EDGE_CURVE('',#405,#390,#457,.T.);
#308=EDGE_CURVE('',#405,#406,#458,.T.);
#309=EDGE_CURVE('',#406,#398,#459,.T.);
#310=EDGE_CURVE('',#407,#389,#460,.T.);
#311=EDGE_CURVE('',#407,#405,#52,.F.);
#312=EDGE_CURVE('',#408,#399,#461,.T.);
#313=EDGE_CURVE('',#408,#407,#462,.F.);
#314=EDGE_CURVE('',#406,#408,#53,.T.);
#315=EDGE_CURVE('',#409,#410,#463,.T.);
#316=EDGE_CURVE('',#409,#367,#464,.T.);
#317=EDGE_CURVE('',#394,#402,#465,.T.);
#318=EDGE_CURVE('',#371,#410,#466,.T.);
#319=EDGE_CURVE('',#382,#411,#467,.T.);
#320=EDGE_CURVE('',#395,#401,#468,.T.);
#321=EDGE_CURVE('',#385,#412,#469,.T.);
#322=EDGE_CURVE('',#412,#411,#470,.T.);
#323=EDGE_CURVE('',#413,#374,#471,.T.);
#324=EDGE_CURVE('',#413,#414,#54,.F.);
#325=EDGE_CURVE('',#414,#375,#472,.T.);
#326=EDGE_CURVE('',#415,#392,#473,.T.);
#327=EDGE_CURVE('',#415,#416,#55,.F.);
#328=EDGE_CURVE('',#416,#393,#474,.T.);
#329=EDGE_CURVE('',#414,#415,#31,.T.);
#330=EDGE_CURVE('',#416,#413,#32,.T.);
#331=EDGE_CURVE('',#417,#378,#475,.T.);
#332=EDGE_CURVE('',#417,#418,#56,.F.);
#333=EDGE_CURVE('',#418,#379,#476,.T.);
#334=EDGE_CURVE('',#419,#391,#477,.T.);
#335=EDGE_CURVE('',#419,#417,#33,.T.);
#336=EDGE_CURVE('',#420,#396,#478,.T.);
#337=EDGE_CURVE('',#420,#419,#57,.F.);
#338=EDGE_CURVE('',#418,#420,#34,.T.);
#339=EDGE_CURVE('',#421,#383,#479,.T.);
#340=EDGE_CURVE('',#421,#422,#480,.T.);
#341=EDGE_CURVE('',#422,#384,#481,.T.);
#342=EDGE_CURVE('',#423,#424,#482,.T.);
#343=EDGE_CURVE('',#424,#421,#483,.T.);
#344=EDGE_CURVE('',#425,#411,#484,.T.);
#345=EDGE_CURVE('',#423,#425,#485,.T.);
#346=EDGE_CURVE('',#422,#426,#486,.T.);
#347=EDGE_CURVE('',#427,#426,#487,.T.);
#348=EDGE_CURVE('',#427,#428,#488,.T.);
#349=EDGE_CURVE('',#428,#412,#489,.T.);
#350=EDGE_CURVE('',#428,#425,#490,.T.);
#351=EDGE_CURVE('',#427,#423,#491,.T.);
#352=EDGE_CURVE('',#426,#424,#492,.T.);
#353=EDGE_CURVE('',#429,#369,#493,.T.);
#354=EDGE_CURVE('',#429,#430,#494,.T.);
#355=EDGE_CURVE('',#430,#370,#495,.T.);
#356=EDGE_CURVE('',#431,#432,#496,.T.);
#357=EDGE_CURVE('',#432,#429,#497,.F.);
#358=EDGE_CURVE('',#433,#409,#498,.T.);
#359=EDGE_CURVE('',#431,#433,#499,.T.);
#360=EDGE_CURVE('',#430,#434,#500,.F.);
#361=EDGE_CURVE('',#434,#435,#501,.T.);
#362=EDGE_CURVE('',#435,#436,#502,.T.);
#363=EDGE_CURVE('',#410,#436,#503,.T.);
#364=EDGE_CURVE('',#436,#433,#504,.T.);
#365=EDGE_CURVE('',#435,#431,#505,.T.);
#366=EDGE_CURVE('',#434,#432,#506,.T.);
#367=VERTEX_POINT('',#989);
#368=VERTEX_POINT('',#990);
#369=VERTEX_POINT('',#992);
#370=VERTEX_POINT('',#994);
#371=VERTEX_POINT('',#996);
#372=VERTEX_POINT('',#998);
#373=VERTEX_POINT('',#1000);
#374=VERTEX_POINT('',#1002);
#375=VERTEX_POINT('',#1004);
#376=VERTEX_POINT('',#1006);
#377=VERTEX_POINT('',#1008);
#378=VERTEX_POINT('',#1010);
#379=VERTEX_POINT('',#1012);
#380=VERTEX_POINT('',#1014);
#381=VERTEX_POINT('',#1016);
#382=VERTEX_POINT('',#1018);
#383=VERTEX_POINT('',#1020);
#384=VERTEX_POINT('',#1022);
#385=VERTEX_POINT('',#1024);
#386=VERTEX_POINT('',#1026);
#387=VERTEX_POINT('',#1029);
#388=VERTEX_POINT('',#1030);
#389=VERTEX_POINT('',#1032);
#390=VERTEX_POINT('',#1034);
#391=VERTEX_POINT('',#1041);
#392=VERTEX_POINT('',#1046);
#393=VERTEX_POINT('',#1048);
#394=VERTEX_POINT('',#1057);
#395=VERTEX_POINT('',#1059);
#396=VERTEX_POINT('',#1068);
#397=VERTEX_POINT('',#1082);
#398=VERTEX_POINT('',#1084);
#399=VERTEX_POINT('',#1086);
#400=VERTEX_POINT('',#1099);
#401=VERTEX_POINT('',#1102);
#402=VERTEX_POINT('',#1104);
#403=VERTEX_POINT('',#1117);
#404=VERTEX_POINT('',#1129);
#405=VERTEX_POINT('',#1132);
#406=VERTEX_POINT('',#1134);
#407=VERTEX_POINT('',#1138);
#408=VERTEX_POINT('',#1142);
#409=VERTEX_POINT('',#1148);
#410=VERTEX_POINT('',#1149);
#411=VERTEX_POINT('',#1155);
#412=VERTEX_POINT('',#1158);
#413=VERTEX_POINT('',#1166);
#414=VERTEX_POINT('',#1168);
#415=VERTEX_POINT('',#1172);
#416=VERTEX_POINT('',#1174);
#417=VERTEX_POINT('',#1188);
#418=VERTEX_POINT('',#1190);
#419=VERTEX_POINT('',#1194);
#420=VERTEX_POINT('',#1201);
#421=VERTEX_POINT('',#1210);
#422=VERTEX_POINT('',#1212);
#423=VERTEX_POINT('',#1216);
#424=VERTEX_POINT('',#1217);
#425=VERTEX_POINT('',#1220);
#426=VERTEX_POINT('',#1224);
#427=VERTEX_POINT('',#1226);
#428=VERTEX_POINT('',#1228);
#429=VERTEX_POINT('',#1238);
#430=VERTEX_POINT('',#1240);
#431=VERTEX_POINT('',#1244);
#432=VERTEX_POINT('',#1245);
#433=VERTEX_POINT('',#1248);
#434=VERTEX_POINT('',#1252);
#435=VERTEX_POINT('',#1254);
#436=VERTEX_POINT('',#1256);
#437=LINE('',#988,#507);
#438=LINE('',#991,#508);
#439=LINE('',#993,#509);
#440=LINE('',#995,#510);
#441=LINE('',#997,#511);
#442=LINE('',#1001,#512);
#443=LINE('',#1005,#513);
#444=LINE('',#1009,#514);
#445=LINE('',#1013,#515);
#446=LINE('',#1017,#516);
#447=LINE('',#1019,#517);
#448=LINE('',#1021,#518);
#449=LINE('',#1023,#519);
#450=LINE('',#1025,#520);
#451=LINE('',#1031,#521);
#452=LINE('',#1035,#522);
#453=LINE('',#1083,#523);
#454=LINE('',#1087,#524);
#455=LINE('',#1101,#525);
#456=LINE('',#1105,#526);
#457=LINE('',#1131,#527);
#458=LINE('',#1133,#528);
#459=LINE('',#1135,#529);
#460=LINE('',#1137,#530);
#461=LINE('',#1141,#531);
#462=LINE('',#1143,#532);
#463=LINE('',#1147,#533);
#464=LINE('',#1150,#534);
#465=LINE('',#1151,#535);
#466=LINE('',#1152,#536);
#467=LINE('',#1154,#537);
#468=LINE('',#1156,#538);
#469=LINE('',#1157,#539);
#470=LINE('',#1159,#540);
#471=LINE('',#1165,#541);
#472=LINE('',#1169,#542);
#473=LINE('',#1171,#543);
#474=LINE('',#1175,#544);
#475=LINE('',#1187,#545);
#476=LINE('',#1191,#546);
#477=LINE('',#1193,#547);
#478=LINE('',#1200,#548);
#479=LINE('',#1209,#549);
#480=LINE('',#1211,#550);
#481=LINE('',#1213,#551);
#482=LINE('',#1215,#552);
#483=LINE('',#1218,#553);
#484=LINE('',#1219,#554);
#485=LINE('',#1221,#555);
#486=LINE('',#1223,#556);
#487=LINE('',#1225,#557);
#488=LINE('',#1227,#558);
#489=LINE('',#1229,#559);
#490=LINE('',#1231,#560);
#491=LINE('',#1232,#561);
#492=LINE('',#1234,#562);
#493=LINE('',#1237,#563);
#494=LINE('',#1239,#564);
#495=LINE('',#1241,#565);
#496=LINE('',#1243,#566);
#497=LINE('',#1246,#567);
#498=LINE('',#1247,#568);
#499=LINE('',#1249,#569);
#500=LINE('',#1251,#570);
#501=LINE('',#1253,#571);
#502=LINE('',#1255,#572);
#503=LINE('',#1257,#573);
#504=LINE('',#1259,#574);
#505=LINE('',#1261,#575);
#506=LINE('',#1263,#576);
#507=VECTOR('',#804,1.);
#508=VECTOR('',#805,1.);
#509=VECTOR('',#806,1.);
#510=VECTOR('',#807,1.);
#511=VECTOR('',#808,1.);
#512=VECTOR('',#811,1.);
#513=VECTOR('',#814,1.);
#514=VECTOR('',#817,1.);
#515=VECTOR('',#820,1.);
#516=VECTOR('',#823,1.);
#517=VECTOR('',#824,1.);
#518=VECTOR('',#825,1.);
#519=VECTOR('',#826,1.);
#520=VECTOR('',#827,1.);
#521=VECTOR('',#832,1.);
#522=VECTOR('',#835,1.);
#523=VECTOR('',#846,1.);
#524=VECTOR('',#849,1.);
#525=VECTOR('',#852,1.);
#526=VECTOR('',#855,1.);
#527=VECTOR('',#858,1.);
#528=VECTOR('',#859,1.);
#529=VECTOR('',#860,1.);
#530=VECTOR('',#863,1.);
#531=VECTOR('',#868,1.);
#532=VECTOR('',#869,1.);
#533=VECTOR('',#876,1.);
#534=VECTOR('',#877,1.);
#535=VECTOR('',#878,1.);
#536=VECTOR('',#879,1.);
#537=VECTOR('',#882,1.);
#538=VECTOR('',#883,1.);
#539=VECTOR('',#884,1.);
#540=VECTOR('',#885,1.);
#541=VECTOR('',#896,1.);
#542=VECTOR('',#899,1.);
#543=VECTOR('',#902,1.);
#544=VECTOR('',#905,1.);
#545=VECTOR('',#912,1.);
#546=VECTOR('',#915,1.);
#547=VECTOR('',#918,1.);
#548=VECTOR('',#921,1.);
#549=VECTOR('',#928,1.);
#550=VECTOR('',#929,1.);
#551=VECTOR('',#930,1.);
#552=VECTOR('',#933,1.);
#553=VECTOR('',#934,1.);
#554=VECTOR('',#935,1.);
#555=VECTOR('',#936,1.);
#556=VECTOR('',#939,1.);
#557=VECTOR('',#940,1.);
#558=VECTOR('',#941,1.);
#559=VECTOR('',#942,1.);
#560=VECTOR('',#945,1.);
#561=VECTOR('',#946,1.);
#562=VECTOR('',#949,1.);
#563=VECTOR('',#954,1.);
#564=VECTOR('',#955,1.);
#565=VECTOR('',#956,1.);
#566=VECTOR('',#959,1.);
#567=VECTOR('',#960,1.);
#568=VECTOR('',#961,1.);
#569=VECTOR('',#962,1.);
#570=VECTOR('',#965,1.);
#571=VECTOR('',#966,1.);
#572=VECTOR('',#967,1.);
#573=VECTOR('',#968,1.);
#574=VECTOR('',#971,1.);
#575=VECTOR('',#974,1.);
#576=VECTOR('',#977,1.);
#577=EDGE_LOOP('',(#58,#59,#60,#61,#62,#63,#64,#65,#66,#67,#68,#69,#70,
#71,#72,#73,#74,#75,#76,#77));
#578=EDGE_LOOP('',(#78,#79,#80,#81));
#579=EDGE_LOOP('',(#82,#83,#84,#85,#86,#87,#88,#89,#90,#91,#92,#93));
#580=EDGE_LOOP('',(#94));
#581=EDGE_LOOP('',(#95,#96,#97,#98));
#582=EDGE_LOOP('',(#99));
#583=EDGE_LOOP('',(#100,#101,#102,#103));
#584=EDGE_LOOP('',(#104));
#585=EDGE_LOOP('',(#105));
#586=EDGE_LOOP('',(#106,#107,#108,#109,#110));
#587=EDGE_LOOP('',(#111,#112,#113,#114));
#588=EDGE_LOOP('',(#115,#116,#117,#118,#119));
#589=EDGE_LOOP('',(#120,#121,#122,#123));
#590=EDGE_LOOP('',(#124,#125,#126,#127,#128,#129,#130,#131));
#591=EDGE_LOOP('',(#132,#133,#134,#135,#136,#137,#138,#139));
#592=EDGE_LOOP('',(#140,#141,#142,#143));
#593=EDGE_LOOP('',(#144,#145,#146,#147));
#594=EDGE_LOOP('',(#148));
#595=EDGE_LOOP('',(#149));
#596=EDGE_LOOP('',(#150));
#597=EDGE_LOOP('',(#151));
#598=EDGE_LOOP('',(#152,#153,#154,#155));
#599=EDGE_LOOP('',(#156,#157,#158,#159));
#600=EDGE_LOOP('',(#160,#161,#162,#163,#164));
#601=EDGE_LOOP('',(#165,#166,#167,#168,#169));
#602=EDGE_LOOP('',(#170,#171,#172,#173));
#603=EDGE_LOOP('',(#174,#175,#176,#177,#178));
#604=EDGE_LOOP('',(#179,#180,#181,#182));
#605=EDGE_LOOP('',(#183,#184,#185,#186,#187));
#606=EDGE_LOOP('',(#188,#189,#190,#191));
#607=EDGE_LOOP('',(#192,#193,#194,#195,#196,#197,#198));
#608=EDGE_LOOP('',(#199,#200,#201,#202,#203,#204,#205));
#609=EDGE_LOOP('',(#206,#207,#208,#209));
#610=EDGE_LOOP('',(#210,#211,#212,#213));
#611=EDGE_LOOP('',(#214,#215,#216,#217));
#612=EDGE_LOOP('',(#218,#219,#220,#221));
#613=EDGE_LOOP('',(#222,#223,#224,#225,#226,#227,#228));
#614=EDGE_LOOP('',(#229,#230,#231,#232,#233,#234,#235));
#615=EDGE_LOOP('',(#236,#237,#238,#239));
#616=EDGE_LOOP('',(#240,#241,#242,#243));
#617=EDGE_LOOP('',(#244,#245,#246,#247));
#618=EDGE_LOOP('',(#248,#249,#250,#251));
#619=EDGE_LOOP('',(#252,#253,#254,#255));
#620=EDGE_LOOP('',(#256,#257,#258,#259));
#621=EDGE_LOOP('',(#260,#261,#262,#263));
#622=FACE_BOUND('',#577,.T.);
#623=FACE_BOUND('',#578,.T.);
#624=FACE_BOUND('',#579,.T.);
#625=FACE_BOUND('',#580,.T.);
#626=FACE_BOUND('',#581,.T.);
#627=FACE_BOUND('',#582,.T.);
#628=FACE_BOUND('',#583,.T.);
#629=FACE_BOUND('',#584,.T.);
#630=FACE_BOUND('',#585,.T.);
#631=FACE_BOUND('',#586,.T.);
#632=FACE_BOUND('',#587,.T.);
#633=FACE_BOUND('',#588,.T.);
#634=FACE_BOUND('',#589,.T.);
#635=FACE_BOUND('',#590,.T.);
#636=FACE_BOUND('',#591,.T.);
#637=FACE_BOUND('',#592,.T.);
#638=FACE_BOUND('',#593,.T.);
#639=FACE_BOUND('',#594,.T.);
#640=FACE_BOUND('',#595,.T.);
#641=FACE_BOUND('',#596,.T.);
#642=FACE_BOUND('',#597,.T.);
#643=FACE_BOUND('',#598,.T.);
#644=FACE_BOUND('',#599,.T.);
#645=FACE_BOUND('',#600,.T.);
#646=FACE_BOUND('',#601,.T.);
#647=FACE_BOUND('',#602,.T.);
#648=FACE_BOUND('',#603,.T.);
#649=FACE_BOUND('',#604,.T.);
#650=FACE_BOUND('',#605,.T.);
#651=FACE_BOUND('',#606,.T.);
#652=FACE_BOUND('',#607,.T.);
#653=FACE_BOUND('',#608,.T.);
#654=FACE_BOUND('',#609,.T.);
#655=FACE_BOUND('',#610,.T.);
#656=FACE_BOUND('',#611,.T.);
#657=FACE_BOUND('',#612,.T.);
#658=FACE_BOUND('',#613,.T.);
#659=FACE_BOUND('',#614,.T.);
#660=FACE_BOUND('',#615,.T.);
#661=FACE_BOUND('',#616,.T.);
#662=FACE_BOUND('',#617,.T.);
#663=FACE_BOUND('',#618,.T.);
#664=FACE_BOUND('',#619,.T.);
#665=FACE_BOUND('',#620,.T.);
#666=FACE_BOUND('',#621,.T.);
#667=PLANE('',#743);
#668=PLANE('',#760);
#669=PLANE('',#763);
#670=PLANE('',#764);
#671=PLANE('',#766);
#672=PLANE('',#767);
#673=PLANE('',#768);
#674=PLANE('',#776);
#675=PLANE('',#777);
#676=PLANE('',#780);
#677=PLANE('',#783);
#678=PLANE('',#784);
#679=PLANE('',#785);
#680=PLANE('',#786);
#681=PLANE('',#787);
#682=PLANE('',#788);
#683=PLANE('',#789);
#684=PLANE('',#790);
#685=PLANE('',#791);
#686=PLANE('',#792);
#687=PLANE('',#793);
#688=PLANE('',#794);
#689=PLANE('',#795);
#690=PLANE('',#796);
#691=PLANE('',#797);
#692=ADVANCED_FACE('',(#622,#623),#667,.F.);
#693=ADVANCED_FACE('',(#624),#35,.F.);
#694=ADVANCED_FACE('',(#625,#626,#627),#12,.F.);
#695=ADVANCED_FACE('',(#628,#629,#630),#13,.T.);
#696=ADVANCED_FACE('',(#631),#668,.T.);
#697=ADVANCED_FACE('',(#632),#14,.T.);
#698=ADVANCED_FACE('',(#633),#669,.F.);
#699=ADVANCED_FACE('',(#634),#670,.T.);
#700=ADVANCED_FACE('',(#635),#671,.F.);
#701=ADVANCED_FACE('',(#636),#672,.T.);
#702=ADVANCED_FACE('',(#637),#673,.T.);
#703=ADVANCED_FACE('',(#638),#36,.T.);
#704=ADVANCED_FACE('',(#639,#640),#15,.F.);
#705=ADVANCED_FACE('',(#641,#642),#16,.F.);
#706=ADVANCED_FACE('',(#643),#17,.T.);
#707=ADVANCED_FACE('',(#644),#18,.F.);
#708=ADVANCED_FACE('',(#645),#674,.T.);
#709=ADVANCED_FACE('',(#646),#675,.F.);
#710=ADVANCED_FACE('',(#647),#19,.T.);
#711=ADVANCED_FACE('',(#648),#676,.F.);
#712=ADVANCED_FACE('',(#649),#20,.F.);
#713=ADVANCED_FACE('',(#650),#677,.T.);
#714=ADVANCED_FACE('',(#651),#678,.F.);
#715=ADVANCED_FACE('',(#652),#679,.T.);
#716=ADVANCED_FACE('',(#653),#680,.F.);
#717=ADVANCED_FACE('',(#654),#681,.T.);
#718=ADVANCED_FACE('',(#655),#682,.T.);
#719=ADVANCED_FACE('',(#656),#683,.F.);
#720=ADVANCED_FACE('',(#657),#684,.T.);
#721=ADVANCED_FACE('',(#658),#685,.T.);
#722=ADVANCED_FACE('',(#659),#686,.T.);
#723=ADVANCED_FACE('',(#660),#687,.F.);
#724=ADVANCED_FACE('',(#661),#688,.T.);
#725=ADVANCED_FACE('',(#662),#689,.T.);
#726=ADVANCED_FACE('',(#663),#690,.F.);
#727=ADVANCED_FACE('',(#664),#691,.T.);
#728=ADVANCED_FACE('',(#665),#37,.T.);
#729=ADVANCED_FACE('',(#666),#38,.T.);
#730=CLOSED_SHELL('',(#692,#693,#694,#695,#696,#697,#698,#699,#700,#701,
#702,#703,#704,#705,#706,#707,#708,#709,#710,#711,#712,#713,#714,#715,#716,
#717,#718,#719,#720,#721,#722,#723,#724,#725,#726,#727,#728,#729));
#731=STYLED_ITEM('',(#732),#739);
#732=PRESENTATION_STYLE_ASSIGNMENT((#733));
#733=SURFACE_STYLE_USAGE(.BOTH.,#734);
#734=SURFACE_SIDE_STYLE('',(#735));
#735=SURFACE_STYLE_FILL_AREA(#736);
#736=FILL_AREA_STYLE('',(#737));
#737=FILL_AREA_STYLE_COLOUR('',#738);
#738=COLOUR_RGB('',0.231372549019608,0.380392156862745,0.705882352941177);
#739=MANIFOLD_SOLID_BREP('Wedge Bottom',#730);
#740=SHAPE_DEFINITION_REPRESENTATION(#1274,#741);
#741=SHAPE_REPRESENTATION('Wedge Bottom',(#742),#1269);
#742=AXIS2_PLACEMENT_3D('',#986,#800,#801);
#743=AXIS2_PLACEMENT_3D('',#987,#802,#803);
#744=AXIS2_PLACEMENT_3D('',#999,#809,#810);
#745=AXIS2_PLACEMENT_3D('',#1003,#812,#813);
#746=AXIS2_PLACEMENT_3D('',#1007,#815,#816);
#747=AXIS2_PLACEMENT_3D('',#1011,#818,#819);
#748=AXIS2_PLACEMENT_3D('',#1015,#821,#822);
#749=AXIS2_PLACEMENT_3D('',#1027,#828,#829);
#750=AXIS2_PLACEMENT_3D('',#1028,#830,#831);
#751=AXIS2_PLACEMENT_3D('',#1033,#833,#834);
#752=AXIS2_PLACEMENT_3D('',#1036,#836,#837);
#753=AXIS2_PLACEMENT_3D('',#1047,#838,#839);
#754=AXIS2_PLACEMENT_3D('',#1058,#840,#841);
#755=AXIS2_PLACEMENT_3D('',#1069,#842,#843);
#756=AXIS2_PLACEMENT_3D('',#1070,#844,#845);
#757=AXIS2_PLACEMENT_3D('',#1085,#847,#848);
#758=AXIS2_PLACEMENT_3D('',#1100,#850,#851);
#759=AXIS2_PLACEMENT_3D('',#1103,#853,#854);
#760=AXIS2_PLACEMENT_3D('',#1130,#856,#857);
#761=AXIS2_PLACEMENT_3D('',#1136,#861,#862);
#762=AXIS2_PLACEMENT_3D('',#1139,#864,#865);
#763=AXIS2_PLACEMENT_3D('',#1140,#866,#867);
#764=AXIS2_PLACEMENT_3D('',#1144,#870,#871);
#765=AXIS2_PLACEMENT_3D('',#1145,#872,#873);
#766=AXIS2_PLACEMENT_3D('',#1146,#874,#875);
#767=AXIS2_PLACEMENT_3D('',#1153,#880,#881);
#768=AXIS2_PLACEMENT_3D('',#1160,#886,#887);
#769=AXIS2_PLACEMENT_3D('',#1161,#888,#889);
#770=AXIS2_PLACEMENT_3D('',#1162,#890,#891);
#771=AXIS2_PLACEMENT_3D('',#1163,#892,#893);
#772=AXIS2_PLACEMENT_3D('',#1164,#894,#895);
#773=AXIS2_PLACEMENT_3D('',#1167,#897,#898);
#774=AXIS2_PLACEMENT_3D('',#1170,#900,#901);
#775=AXIS2_PLACEMENT_3D('',#1173,#903,#904);
#776=AXIS2_PLACEMENT_3D('',#1176,#906,#907);
#777=AXIS2_PLACEMENT_3D('',#1181,#908,#909);
#778=AXIS2_PLACEMENT_3D('',#1186,#910,#911);
#779=AXIS2_PLACEMENT_3D('',#1189,#913,#914);
#780=AXIS2_PLACEMENT_3D('',#1192,#916,#917);
#781=AXIS2_PLACEMENT_3D('',#1199,#919,#920);
#782=AXIS2_PLACEMENT_3D('',#1202,#922,#923);
#783=AXIS2_PLACEMENT_3D('',#1203,#924,#925);
#784=AXIS2_PLACEMENT_3D('',#1208,#926,#927);
#785=AXIS2_PLACEMENT_3D('',#1214,#931,#932);
#786=AXIS2_PLACEMENT_3D('',#1222,#937,#938);
#787=AXIS2_PLACEMENT_3D('',#1230,#943,#944);
#788=AXIS2_PLACEMENT_3D('',#1233,#947,#948);
#789=AXIS2_PLACEMENT_3D('',#1235,#950,#951);
#790=AXIS2_PLACEMENT_3D('',#1236,#952,#953);
#791=AXIS2_PLACEMENT_3D('',#1242,#957,#958);
#792=AXIS2_PLACEMENT_3D('',#1250,#963,#964);
#793=AXIS2_PLACEMENT_3D('',#1258,#969,#970);
#794=AXIS2_PLACEMENT_3D('',#1260,#972,#973);
#795=AXIS2_PLACEMENT_3D('',#1262,#975,#976);
#796=AXIS2_PLACEMENT_3D('',#1264,#978,#979);
#797=AXIS2_PLACEMENT_3D('',#1265,#980,#981);
#798=AXIS2_PLACEMENT_3D('',#1266,#982,#983);
#799=AXIS2_PLACEMENT_3D('',#1267,#984,#985);
#800=DIRECTION('',(0.,0.,1.));
#801=DIRECTION('',(1.,0.,0.));
#802=DIRECTION('',(0.,0.,-1.));
#803=DIRECTION('',(1.,0.,0.));
#804=DIRECTION('',(0.5,-0.866025403784438,0.));
#805=DIRECTION('',(-0.866025403784438,-0.5,0.));
#806=DIRECTION('',(-0.5,0.866025403784439,0.));
#807=DIRECTION('',(0.866025403784436,0.5,0.));
#808=DIRECTION('',(0.5,-0.866025403784438,0.));
#809=DIRECTION('',(0.,0.,-1.));
#810=DIRECTION('',(1.,0.,0.));
#811=DIRECTION('',(0.,-1.,0.));
#812=DIRECTION('',(0.,0.,-1.));
#813=DIRECTION('',(-1.,0.,0.));
#814=DIRECTION('',(0.,-1.,0.));
#815=DIRECTION('',(0.,0.,-1.));
#816=DIRECTION('',(1.,0.,0.));
#817=DIRECTION('',(0.,-1.,0.));
#818=DIRECTION('',(0.,0.,-1.));
#819=DIRECTION('',(-1.,0.,0.));
#820=DIRECTION('',(0.,-1.,0.));
#821=DIRECTION('',(0.,0.,-1.));
#822=DIRECTION('',(1.,0.,0.));
#823=DIRECTION('',(-0.5,-0.866025403784439,0.));
#824=DIRECTION('',(0.866025403784436,-0.5,0.));
#825=DIRECTION('',(0.5,0.866025403784439,0.));
#826=DIRECTION('',(0.866025403784437,-0.5,0.));
#827=DIRECTION('',(-0.5,-0.866025403784439,0.));
#828=DIRECTION('',(0.,0.,-1.));
#829=DIRECTION('',(1.,0.,0.));
#830=DIRECTION('',(0.,0.,-1.));
#831=DIRECTION('',(-1.,0.,0.));
#832=DIRECTION('',(-0.5,-0.866025403784439,0.));
#833=DIRECTION('',(0.,0.,-1.));
#834=DIRECTION('',(1.,0.,0.));
#835=DIRECTION('',(0.5,-0.866025403784438,0.));
#836=DIRECTION('',(0.,0.,1.));
#837=DIRECTION('',(1.,0.,0.));
#838=DIRECTION('',(0.,0.,1.));
#839=DIRECTION('',(1.,0.,0.));
#840=DIRECTION('',(0.,0.,1.));
#841=DIRECTION('',(1.,0.,0.));
#842=DIRECTION('',(0.,0.,1.));
#843=DIRECTION('',(1.,0.,0.));
#844=DIRECTION('',(0.,0.,1.));
#845=DIRECTION('',(1.,0.,0.));
#846=DIRECTION('',(0.,0.,1.));
#847=DIRECTION('',(0.,0.,-1.));
#848=DIRECTION('',(-1.,0.,0.));
#849=DIRECTION('',(0.,0.,1.));
#850=DIRECTION('',(0.,0.,1.));
#851=DIRECTION('',(1.,0.,0.));
#852=DIRECTION('',(0.,0.,1.));
#853=DIRECTION('',(0.,0.,-1.));
#854=DIRECTION('',(1.,0.,0.));
#855=DIRECTION('',(0.,0.,1.));
#856=DIRECTION('',(-0.866025403784438,-0.5,0.));
#857=DIRECTION('',(0.5,-0.866025403784439,0.));
#858=DIRECTION('',(0.,0.,1.));
#859=DIRECTION('',(0.353553390593274,-0.612372435695794,-0.707106781186548));
#860=DIRECTION('',(0.5,-0.866025403784438,0.));
#861=DIRECTION('',(0.,0.,1.));
#862=DIRECTION('',(1.,0.,0.));
#863=DIRECTION('',(0.,0.,1.));
#864=DIRECTION('',(0.,0.,-1.));
#865=DIRECTION('',(-1.,0.,0.));
#866=DIRECTION('',(-0.866025403784439,0.5,0.));
#867=DIRECTION('',(-0.5,-0.866025403784439,0.));
#868=DIRECTION('',(-0.5,-0.866025403784439,0.));
#869=DIRECTION('',(-0.353553390593274,-0.612372435695795,-0.707106781186548));
#870=DIRECTION('',(0.,0.,-1.));
#871=DIRECTION('',(1.,0.,0.));
#872=DIRECTION('',(0.,0.,-1.));
#873=DIRECTION('',(-1.,0.,0.));
#874=DIRECTION('',(-0.866025403784438,-0.5,0.));
#875=DIRECTION('',(0.5,-0.866025403784438,0.));
#876=DIRECTION('',(-0.5,0.866025403784438,0.));
#877=DIRECTION('',(0.,0.,1.));
#878=DIRECTION('',(0.5,-0.866025403784438,0.));
#879=DIRECTION('',(0.,0.,-1.));
#880=DIRECTION('',(-0.866025403784439,0.5,0.));
#881=DIRECTION('',(-0.5,-0.866025403784439,0.));
#882=DIRECTION('',(0.,0.,-1.));
#883=DIRECTION('',(-0.5,-0.866025403784439,0.));
#884=DIRECTION('',(0.,0.,-1.));
#885=DIRECTION('',(0.5,0.866025403784439,0.));
#886=DIRECTION('',(0.,0.,1.));
#887=DIRECTION('',(1.,0.,0.));
#888=DIRECTION('',(0.,0.,1.));
#889=DIRECTION('',(1.,0.,0.));
#890=DIRECTION('',(1.96200667387074E-16,-1.,-1.94905599838898E-32));
#891=DIRECTION('',(1.,1.96200667387074E-16,0.));
#892=DIRECTION('',(1.96200667387074E-16,-1.,-1.94905599838898E-32));
#893=DIRECTION('',(1.,1.96200667387074E-16,0.));
#894=DIRECTION('',(0.,0.,-1.));
#895=DIRECTION('',(-1.,0.,0.));
#896=DIRECTION('',(0.,0.,-1.));
#897=DIRECTION('',(0.,0.,1.));
#898=DIRECTION('',(1.,0.,0.));
#899=DIRECTION('',(0.,0.,-1.));
#900=DIRECTION('',(0.,0.,-1.));
#901=DIRECTION('',(-1.,0.,0.));
#902=DIRECTION('',(0.,0.,-1.));
#903=DIRECTION('',(0.,0.,-1.));
#904=DIRECTION('',(-1.,0.,0.));
#905=DIRECTION('',(0.,0.,-1.));
#906=DIRECTION('',(1.,0.,0.));
#907=DIRECTION('',(0.,0.,-1.));
#908=DIRECTION('',(1.,0.,0.));
#909=DIRECTION('',(0.,0.,-1.));
#910=DIRECTION('',(0.,0.,-1.));
#911=DIRECTION('',(-1.,0.,0.));
#912=DIRECTION('',(0.,0.,-1.));
#913=DIRECTION('',(0.,0.,1.));
#914=DIRECTION('',(1.,0.,0.));
#915=DIRECTION('',(0.,0.,-1.));
#916=DIRECTION('',(1.,0.,0.));
#917=DIRECTION('',(0.,0.,-1.));
#918=DIRECTION('',(0.,0.,-1.));
#919=DIRECTION('',(0.,0.,-1.));
#920=DIRECTION('',(-1.,0.,0.));
#921=DIRECTION('',(0.,0.,-1.));
#922=DIRECTION('',(0.,0.,-1.));
#923=DIRECTION('',(-1.,0.,0.));
#924=DIRECTION('',(1.,0.,0.));
#925=DIRECTION('',(0.,0.,-1.));
#926=DIRECTION('',(-0.866025403784439,0.5,0.));
#927=DIRECTION('',(-0.5,-0.866025403784439,0.));
#928=DIRECTION('',(0.,0.,-1.));
#929=DIRECTION('',(-0.5,-0.866025403784439,0.));
#930=DIRECTION('',(0.,0.,-1.));
#931=DIRECTION('',(0.5,0.866025403784436,0.));
#932=DIRECTION('',(-0.866025403784436,0.5,0.));
#933=DIRECTION('',(0.866025403784436,-0.5,0.));
#934=DIRECTION('',(0.612372435695791,-0.353553390593276,-0.70710678118655));
#935=DIRECTION('',(0.866025403784436,-0.5,0.));
#936=DIRECTION('',(0.,0.,-1.));
#937=DIRECTION('',(0.5,0.866025403784437,0.));
#938=DIRECTION('',(-0.866025403784437,0.5,0.));
#939=DIRECTION('',(-0.612372435695791,0.353553390593275,0.70710678118655));
#940=DIRECTION('',(0.866025403784437,-0.5,0.));
#941=DIRECTION('',(0.,0.,-1.));
#942=DIRECTION('',(0.866025403784437,-0.5,0.));
#943=DIRECTION('',(-0.866025403784439,0.5,0.));
#944=DIRECTION('',(-0.5,-0.866025403784439,0.));
#945=DIRECTION('',(0.5,0.866025403784439,0.));
#946=DIRECTION('',(0.5,0.866025403784439,0.));
#947=DIRECTION('',(0.,0.,1.));
#948=DIRECTION('',(1.,0.,0.));
#949=DIRECTION('',(0.5,0.866025403784439,0.));
#950=DIRECTION('',(0.,0.,1.));
#951=DIRECTION('',(1.,0.,0.));
#952=DIRECTION('',(-0.866025403784439,-0.5,0.));
#953=DIRECTION('',(0.5,-0.866025403784439,0.));
#954=DIRECTION('',(0.,0.,-1.));
#955=DIRECTION('',(-0.5,0.866025403784439,0.));
#956=DIRECTION('',(0.,0.,-1.));
#957=DIRECTION('',(0.5,-0.866025403784438,0.));
#958=DIRECTION('',(0.866025403784438,0.5,0.));
#959=DIRECTION('',(-0.866025403784438,-0.5,0.));
#960=DIRECTION('',(0.612372435695792,0.353553390593273,0.70710678118655));
#961=DIRECTION('',(-0.866025403784438,-0.5,0.));
#962=DIRECTION('',(0.,0.,-1.));
#963=DIRECTION('',(-0.5,0.866025403784436,0.));
#964=DIRECTION('',(-0.866025403784436,-0.5,0.));
#965=DIRECTION('',(-0.612372435695791,-0.353553390593276,-0.70710678118655));
#966=DIRECTION('',(0.866025403784436,0.5,0.));
#967=DIRECTION('',(0.,0.,-1.));
#968=DIRECTION('',(0.866025403784436,0.5,0.));
#969=DIRECTION('',(0.,0.,1.));
#970=DIRECTION('',(1.,0.,0.));
#971=DIRECTION('',(0.5,-0.866025403784438,0.));
#972=DIRECTION('',(0.866025403784438,0.5,0.));
#973=DIRECTION('',(-0.5,0.866025403784438,0.));
#974=DIRECTION('',(0.5,-0.866025403784438,0.));
#975=DIRECTION('',(0.,0.,1.));
#976=DIRECTION('',(1.,0.,0.));
#977=DIRECTION('',(0.5,-0.866025403784439,0.));
#978=DIRECTION('',(0.612372435695797,0.353553390593276,-0.707106781186545));
#979=DIRECTION('',(-0.5,0.866025403784439,0.));
#980=DIRECTION('',(0.612372435695797,-0.353553390593275,0.707106781186545));
#981=DIRECTION('',(-0.5,-0.866025403784439,0.));
#982=DIRECTION('',(0.,0.,-1.));
#983=DIRECTION('',(-1.,0.,0.));
#984=DIRECTION('',(0.,0.,-1.));
#985=DIRECTION('',(-1.,0.,0.));
#986=CARTESIAN_POINT('',(0.,0.,0.));
#987=CARTESIAN_POINT('',(4.16333634234433E-17,0.1143,0.));
#988=CARTESIAN_POINT('',(-0.0727461841116314,0.132096086938105,0.));
#989=CARTESIAN_POINT('',(-0.0592013163267426,0.108635687752875,0.));
#990=CARTESIAN_POINT('',(-0.0353663114214482,0.0673522482582516,0.));
#991=CARTESIAN_POINT('',(-0.0123476099311969,0.135686687752875,0.));
#992=CARTESIAN_POINT('',(-0.0602351774537804,0.108038787752875,0.));
#993=CARTESIAN_POINT('',(-0.0478875675225835,0.0866521,0.));
#994=CARTESIAN_POINT('',(-0.0729351774537804,0.130035833009,0.));
#995=CARTESIAN_POINT('',(-0.0250476099311972,0.157683733009,0.));
#996=CARTESIAN_POINT('',(-0.0719013163267426,0.130632733009,0.));
#997=CARTESIAN_POINT('',(-0.0727461841116314,0.132096086938105,0.));
#998=CARTESIAN_POINT('',(-0.110126056801815,0.196839925617959,0.));
#999=CARTESIAN_POINT('',(1.38777878078145E-17,-1.38777878078145E-17,0.));
#1000=CARTESIAN_POINT('',(-0.0896781356257527,0.206957813804381,0.));
#1001=CARTESIAN_POINT('',(-0.0896781356257527,0.1143,0.));
#1002=CARTESIAN_POINT('',(-0.0896781356257527,0.207372979145522,0.));
#1003=CARTESIAN_POINT('',(-1.08246744900953E-15,2.70616862252382E-15,0.));
#1004=CARTESIAN_POINT('',(-0.0658516481755828,0.21612330027454,0.));
#1005=CARTESIAN_POINT('',(-0.0658516481755828,0.1143,0.));
#1006=CARTESIAN_POINT('',(-0.0658516481755828,0.215724975690251,0.));
#1007=CARTESIAN_POINT('',(1.38777878078145E-17,-1.38777878078145E-17,0.));
#1008=CARTESIAN_POINT('',(0.0664344047196261,0.21554622375154,-1.23114826426068E-18));
#1009=CARTESIAN_POINT('',(0.0664344047196261,0.1143,0.));
#1010=CARTESIAN_POINT('',(0.0664344047196261,0.215944878055834,8.67361737988404E-19));
#1011=CARTESIAN_POINT('',(2.1094237467878E-15,7.2997163869104E-15,0.));
#1012=CARTESIAN_POINT('',(0.0902533004994675,0.20712330201586,8.67361737988404E-19));
#1013=CARTESIAN_POINT('',(0.0902533004994675,0.1143,0.));
#1014=CARTESIAN_POINT('',(0.0902533004994675,0.2067076352072,-8.49591675786765E-19));
#1015=CARTESIAN_POINT('',(1.38777878078145E-17,-1.38777878078145E-17,0.));
#1016=CARTESIAN_POINT('',(0.110126056801814,0.196839925617959,0.));
#1017=CARTESIAN_POINT('',(0.0727461841116312,0.132096086938105,0.));
#1018=CARTESIAN_POINT('',(0.0719013163267425,0.130632733009,0.));
#1019=CARTESIAN_POINT('',(0.0250476099311972,0.157683733009,0.));
#1020=CARTESIAN_POINT('',(0.0729351774537803,0.130035833009,8.67361737988404E-19));
#1021=CARTESIAN_POINT('',(0.0478875675225836,0.0866521,0.));
#1022=CARTESIAN_POINT('',(0.0602351774537804,0.108038787752875,8.67361737988404E-19));
#1023=CARTESIAN_POINT('',(0.012347609931197,0.135686687752875,0.));
#1024=CARTESIAN_POINT('',(0.0592013163267425,0.108635687752875,0.));
#1025=CARTESIAN_POINT('',(0.0727461841116312,0.132096086938105,0.));
#1026=CARTESIAN_POINT('',(0.0353663114214481,0.0673522482582516,0.));
#1027=CARTESIAN_POINT('',(-6.93889390390723E-18,1.38777878078145E-17,0.));
#1028=CARTESIAN_POINT('',(-1.38777878078145E-17,5.55111512312578E-17,0.));
#1029=CARTESIAN_POINT('',(-0.0365887,0.0633734873828954,0.));
#1030=CARTESIAN_POINT('',(0.0365887,0.0633734873828954,0.));
#1031=CARTESIAN_POINT('',(0.037465,0.064891283505568,0.));
#1032=CARTESIAN_POINT('',(0.1143,0.197973407305123,0.));
#1033=CARTESIAN_POINT('',(2.08166817117217E-17,1.38777878078145E-17,0.));
#1034=CARTESIAN_POINT('',(-0.1143,0.197973407305123,0.));
#1035=CARTESIAN_POINT('',(-0.037465,0.064891283505568,0.));
#1036=CARTESIAN_POINT('',(1.38777878078145E-17,-1.38777878078145E-17,0.));
#1037=CARTESIAN_POINT('',(0.0664344047196261,0.21554622375154,5.06595396495959E-17));
#1038=CARTESIAN_POINT('',(0.0664344047196261,0.215280410552997,-0.000254021383845817));
#1039=CARTESIAN_POINT('',(0.0664344047196261,0.215014576994553,-0.000508021459637639));
#1040=CARTESIAN_POINT('',(0.0664344047196261,0.214748722858948,-0.000761999999999299));
#1041=CARTESIAN_POINT('',(0.0664344047196261,0.214748722858947,-0.000761999999998318));
#1042=CARTESIAN_POINT('',(-0.0658516481755828,0.215724975690251,-8.71648651700417E-17));
#1043=CARTESIAN_POINT('',(-0.0658516481755828,0.215459383191692,-0.000254020958781191));
#1044=CARTESIAN_POINT('',(-0.0658516481755828,0.215193770721293,-0.000508021033005181));
#1045=CARTESIAN_POINT('',(-0.0658516481755828,0.214928138066104,-0.00076199999999297));
#1046=CARTESIAN_POINT('',(-0.065851648175585,0.214928138066104,-0.000761999999992603));
#1047=CARTESIAN_POINT('',(1.38777878078145E-17,-1.38777878078145E-17,-0.000761999999992603));
#1048=CARTESIAN_POINT('',(-0.0896781356257527,0.206127087231856,-0.000761999999999965));
#1049=CARTESIAN_POINT('',(-0.0896781356257527,0.206957813804382,-5.70871506182122E-17));
#1050=CARTESIAN_POINT('',(-0.0896781356257527,0.20668094523518,-0.000254043918001228));
#1051=CARTESIAN_POINT('',(-0.0896781356257527,0.206404036526029,-0.000508044079724073));
#1052=CARTESIAN_POINT('',(-0.0896781356257527,0.206127087231856,-0.000761999999999886));
#1053=CARTESIAN_POINT('',(-0.0751964363372987,0.13634004828432,-0.06985));
#1054=CARTESIAN_POINT('',(-0.0868399886589367,0.156507272485983,-0.046567357758349));
#1055=CARTESIAN_POINT('',(-0.0984830884723799,0.176673712920462,-0.0232838103805781));
#1056=CARTESIAN_POINT('',(-0.110126056801815,0.196839925617958,6.79996981712334E-18));
#1057=CARTESIAN_POINT('',(-0.0751964363372987,0.13634004828432,-0.06985));
#1058=CARTESIAN_POINT('',(1.38777878078145E-17,-1.38777878078145E-17,-0.06985));
#1059=CARTESIAN_POINT('',(0.0751964363372986,0.13634004828432,-0.06985));
#1060=CARTESIAN_POINT('',(0.110126056801814,0.196839925617959,-1.38777878078145E-17));
#1061=CARTESIAN_POINT('',(0.0984830884723797,0.176673712920463,-0.0232838103805781));
#1062=CARTESIAN_POINT('',(0.0868399886589365,0.156507272485983,-0.046567357758349));
#1063=CARTESIAN_POINT('',(0.0751964363372986,0.13634004828432,-0.06985));
#1064=CARTESIAN_POINT('',(0.0902533004994675,0.2067076352072,5.08922736563789E-17));
#1065=CARTESIAN_POINT('',(0.0902533004994675,0.206430430754956,-0.000254044640668884));
#1066=CARTESIAN_POINT('',(0.0902533004994675,0.206153185551827,-0.000508044805235713));
#1067=CARTESIAN_POINT('',(0.0902533004994675,0.205875899145463,-0.00076199999999996));
#1068=CARTESIAN_POINT('',(0.0902533004994675,0.205875899145463,-0.000762000000000024));
#1069=CARTESIAN_POINT('',(1.38777878078145E-17,-1.38777878078145E-17,-0.00076199999999832));
#1070=CARTESIAN_POINT('',(-1.38777878078145E-17,5.55111512312578E-17,-0.0762));
#1071=CARTESIAN_POINT('',(0.00176010348500926,0.0731601812273404,-0.0490365200199828));
#1072=CARTESIAN_POINT('',(0.00249165647014517,0.0731342165214924,-0.0508004520097717));
#1073=CARTESIAN_POINT('',(0.00176067063441007,0.0731601474421139,-0.0525616719409302));
#1074=CARTESIAN_POINT('',(1.82638886669144E-6,0.0731860221411181,-0.0532907587522674));
#1075=CARTESIAN_POINT('',(-0.00176079494552199,0.0731601639346864,-0.0525626911382057));
#1076=CARTESIAN_POINT('',(-0.00249085256962845,0.0731342365497038,-0.0508003322923193));
#1077=CARTESIAN_POINT('',(-0.00176319392701586,0.0731600846480131,-0.0490407651092664));
#1078=CARTESIAN_POINT('',(-2.64993457030935E-6,0.0731860334778036,-0.0483088304546893));
#1079=CARTESIAN_POINT('',(0.00176010348500926,0.0731601812273404,-0.0490365200199828));
#1080=CARTESIAN_POINT('',(0.00249165647014517,0.0731342165214924,-0.0508004520097717));
#1081=CARTESIAN_POINT('',(0.00176067063441007,0.0731601474421139,-0.0525616719409302));
#1082=CARTESIAN_POINT('',(0.0022479,0.0731428657925707,-0.0508));
#1083=CARTESIAN_POINT('',(-0.0365887,0.0633734873828954,-0.0762));
#1084=CARTESIAN_POINT('',(-0.0365887,0.0633734873828954,-0.0762));
#1085=CARTESIAN_POINT('',(-1.38777878078145E-17,5.55111512312578E-17,-0.0762));
#1086=CARTESIAN_POINT('',(0.0365887,0.0633734873828954,-0.0762));
#1087=CARTESIAN_POINT('',(0.0365887,0.0633734873828954,-0.0762));
#1088=CARTESIAN_POINT('',(0.00176010348500927,0.0731601812273404,-0.0236365200199829));
#1089=CARTESIAN_POINT('',(0.00249165647014517,0.0731342165214925,-0.0254004520097717));
#1090=CARTESIAN_POINT('',(0.00176067063441007,0.0731601474421139,-0.0271616719409302));
#1091=CARTESIAN_POINT('',(1.8263888666922E-6,0.0731860221411181,-0.0278907587522674));
#1092=CARTESIAN_POINT('',(-0.00176079494552198,0.0731601639346864,-0.0271626911382057));
#1093=CARTESIAN_POINT('',(-0.00249085256962846,0.0731342365497039,-0.0254003322923193));
#1094=CARTESIAN_POINT('',(-0.00176319392701586,0.0731600846480131,-0.0236407651092664));
#1095=CARTESIAN_POINT('',(-2.64993457030327E-6,0.0731860334778036,-0.0229088304546893));
#1096=CARTESIAN_POINT('',(0.00176010348500927,0.0731601812273404,-0.0236365200199829));
#1097=CARTESIAN_POINT('',(0.00249165647014517,0.0731342165214925,-0.0254004520097717));
#1098=CARTESIAN_POINT('',(0.00176067063441007,0.0731601474421139,-0.0271616719409302));
#1099=CARTESIAN_POINT('',(0.0022479,0.0731428657925707,-0.0254));
#1100=CARTESIAN_POINT('',(-6.93889390390723E-18,1.38777878078145E-17,-0.06985));
#1101=CARTESIAN_POINT('',(0.0353663114214481,0.0673522482582516,-0.06985));
#1102=CARTESIAN_POINT('',(0.0353663114214481,0.0673522482582516,-0.06985));
#1103=CARTESIAN_POINT('',(-6.93889390390723E-18,1.38777878078145E-17,-0.06985));
#1104=CARTESIAN_POINT('',(-0.0353663114214482,0.0673522482582516,-0.06985));
#1105=CARTESIAN_POINT('',(-0.0353663114214482,0.0673522482582516,-0.06985));
#1106=CARTESIAN_POINT('',(0.00176010375370165,0.0760564366367122,-0.0490365198088982));
#1107=CARTESIAN_POINT('',(0.00249165628508329,0.0760314611113411,-0.0508004520942457));
#1108=CARTESIAN_POINT('',(0.00176067110596517,0.0760564041313102,-0.0525616718141191));
#1109=CARTESIAN_POINT('',(1.82548280425879E-6,0.0760812939456944,-0.0532907583800862));
#1110=CARTESIAN_POINT('',(-0.00176079326335946,0.0760564200294436,-0.0525626927545245));
#1111=CARTESIAN_POINT('',(-0.00249085310599783,0.076031480369489,-0.0508003314800946));
#1112=CARTESIAN_POINT('',(-0.00176319346417461,0.0760563437310703,-0.0490407654064591));
#1113=CARTESIAN_POINT('',(-2.65160540439415E-6,0.0760813048566827,-0.0483088304346729));
#1114=CARTESIAN_POINT('',(0.00176010375370165,0.0760564366367122,-0.0490365198088982));
#1115=CARTESIAN_POINT('',(0.00249165628508329,0.0760314611113411,-0.0508004520942457));
#1116=CARTESIAN_POINT('',(0.00176067110596517,0.0760564041313102,-0.0525616718141191));
#1117=CARTESIAN_POINT('',(0.0022479,0.0760397808688978,-0.0508));
#1118=CARTESIAN_POINT('',(0.00176010375370166,0.0760564366367122,-0.0236365198088982));
#1119=CARTESIAN_POINT('',(0.00249165628508329,0.0760314611113411,-0.0254004520942457));
#1120=CARTESIAN_POINT('',(0.00176067110596517,0.0760564041313101,-0.0271616718141191));
#1121=CARTESIAN_POINT('',(1.82548280426159E-6,0.0760812939456944,-0.0278907583800862));
#1122=CARTESIAN_POINT('',(-0.00176079326335946,0.0760564200294435,-0.0271626927545245));
#1123=CARTESIAN_POINT('',(-0.00249085310599783,0.076031480369489,-0.0254003314800946));
#1124=CARTESIAN_POINT('',(-0.00176319346417462,0.0760563437310703,-0.0236407654064591));
#1125=CARTESIAN_POINT('',(-2.65160540439033E-6,0.0760813048566827,-0.0229088304346729));
#1126=CARTESIAN_POINT('',(0.00176010375370166,0.0760564366367122,-0.0236365198088982));
#1127=CARTESIAN_POINT('',(0.00249165628508329,0.0760314611113411,-0.0254004520942457));
#1128=CARTESIAN_POINT('',(0.00176067110596517,0.0760564041313101,-0.0271616718141191));
#1129=CARTESIAN_POINT('',(0.0022479,0.0760397808688978,-0.0254));
#1130=CARTESIAN_POINT('',(-0.037465,0.064891283505568,-0.0762));
#1131=CARTESIAN_POINT('',(-0.1143,0.197973407305123,-0.0762));
#1132=CARTESIAN_POINT('',(-0.1143,0.197973407305123,-0.00635));
#1133=CARTESIAN_POINT('',(1.4807423316773E-17,1.04083408558608E-17,-0.23495));
#1134=CARTESIAN_POINT('',(-0.079375,0.13748153285078,-0.0762));
#1135=CARTESIAN_POINT('',(-0.037465,0.064891283505568,-0.0762));
#1136=CARTESIAN_POINT('',(2.08166817117217E-17,1.38777878078145E-17,-0.0762));
#1137=CARTESIAN_POINT('',(0.1143,0.197973407305123,-0.0762));
#1138=CARTESIAN_POINT('',(0.1143,0.197973407305123,-0.00635));
#1139=CARTESIAN_POINT('',(2.08166817117217E-17,1.38777878078145E-17,-0.00635));
#1140=CARTESIAN_POINT('',(0.037465,0.064891283505568,-0.0762));
#1141=CARTESIAN_POINT('',(0.037465,0.064891283505568,-0.0762));
#1142=CARTESIAN_POINT('',(0.079375,0.13748153285078,-0.0762));
#1143=CARTESIAN_POINT('',(4.48537152915163E-17,7.70371977754894E-33,-0.23495));
#1144=CARTESIAN_POINT('',(4.16333634234433E-17,0.1143,-0.0762));
#1145=CARTESIAN_POINT('',(2.08166817117217E-17,1.38777878078145E-17,-0.0762));
#1146=CARTESIAN_POINT('',(-0.0727461841116314,0.132096086938105,-0.06985));
#1147=CARTESIAN_POINT('',(-0.0727461841116314,0.132096086938105,-0.003175));
#1148=CARTESIAN_POINT('',(-0.0592013163267426,0.108635687752875,-0.003175));
#1149=CARTESIAN_POINT('',(-0.0719013163267426,0.130632733009,-0.003175));
#1150=CARTESIAN_POINT('',(-0.0592013163267426,0.108635687752875,-0.06985));
#1151=CARTESIAN_POINT('',(-0.0727461841116314,0.132096086938105,-0.06985));
#1152=CARTESIAN_POINT('',(-0.0719013163267426,0.130632733009,-0.06985));
#1153=CARTESIAN_POINT('',(0.0727461841116312,0.132096086938105,-0.06985));
#1154=CARTESIAN_POINT('',(0.0719013163267425,0.130632733009,-0.06985));
#1155=CARTESIAN_POINT('',(0.0719013163267425,0.130632733009,-0.003175));
#1156=CARTESIAN_POINT('',(0.0727461841116312,0.132096086938105,-0.06985));
#1157=CARTESIAN_POINT('',(0.0592013163267425,0.108635687752875,-0.06985));
#1158=CARTESIAN_POINT('',(0.0592013163267425,0.108635687752875,-0.003175));
#1159=CARTESIAN_POINT('',(0.0727461841116312,0.132096086938105,-0.003175));
#1160=CARTESIAN_POINT('',(0.,0.145986743691448,-0.06985));
#1161=CARTESIAN_POINT('',(2.08166817117217E-17,1.38777878078145E-17,-0.0762));
#1162=CARTESIAN_POINT('',(-2.432296415003E-17,0.125010248258252,-0.0508));
#1163=CARTESIAN_POINT('',(-2.432296415003E-17,0.125010248258252,-0.0254));
#1164=CARTESIAN_POINT('',(-1.08246744900953E-15,2.70616862252382E-15,0.003175));
#1165=CARTESIAN_POINT('',(-0.0896781356257527,0.207372979145522,0.003175));
#1166=CARTESIAN_POINT('',(-0.0896781356257527,0.207372979145522,0.001905));
#1167=CARTESIAN_POINT('',(-1.08246744900953E-15,2.70616862252382E-15,0.001905));
#1168=CARTESIAN_POINT('',(-0.0658516481755828,0.21612330027454,0.001905));
#1169=CARTESIAN_POINT('',(-0.0658516481755828,0.21612330027454,0.003175));
#1170=CARTESIAN_POINT('',(2.28983498828939E-15,-7.02216063075412E-15,0.003175));
#1171=CARTESIAN_POINT('',(-0.0658516481755828,0.214928138066097,0.003175));
#1172=CARTESIAN_POINT('',(-0.0658516481755828,0.214928138066097,0.00304800000000004));
#1173=CARTESIAN_POINT('',(-1.08246744900953E-15,2.70616862252382E-15,0.00304799999998974));
#1174=CARTESIAN_POINT('',(-0.0896781356257527,0.206127087231856,0.00304800000000005));
#1175=CARTESIAN_POINT('',(-0.0896781356257527,0.206127087231856,0.003175));
#1176=CARTESIAN_POINT('',(-0.0658516481755828,0.215525719170319,0.003175));
#1177=CARTESIAN_POINT('',(-0.0658516481755828,0.21612330027454,0.001905));
#1178=CARTESIAN_POINT('',(-0.0658516481755828,0.215724957807105,0.0022860469860605));
#1179=CARTESIAN_POINT('',(-0.0658516481755828,0.215326570642992,0.00266704723565555));
#1180=CARTESIAN_POINT('',(-0.0658516481755828,0.214928138066097,0.00304800000000005));
#1181=CARTESIAN_POINT('',(-0.0896781356257527,0.206750033188689,0.003175));
#1182=CARTESIAN_POINT('',(-0.0896781356257527,0.206127087231856,0.00304800000000005));
#1183=CARTESIAN_POINT('',(-0.0896781356257527,0.206542475340024,0.00266709897767918));
#1184=CARTESIAN_POINT('',(-0.0896781356257527,0.206957772145812,0.00228609843401308));
#1185=CARTESIAN_POINT('',(-0.0896781356257527,0.207372979145522,0.001905));
#1186=CARTESIAN_POINT('',(2.1094237467878E-15,7.2997163869104E-15,0.003175));
#1187=CARTESIAN_POINT('',(0.0664344047196261,0.215944878055834,0.003175));
#1188=CARTESIAN_POINT('',(0.0664344047196261,0.215944878055834,0.001905));
#1189=CARTESIAN_POINT('',(2.1094237467878E-15,7.2997163869104E-15,0.001905));
#1190=CARTESIAN_POINT('',(0.0902533004994675,0.20712330201586,0.001905));
#1191=CARTESIAN_POINT('',(0.0902533004994675,0.20712330201586,0.003175));
#1192=CARTESIAN_POINT('',(0.0664344047196261,0.21534680045739,0.003175));
#1193=CARTESIAN_POINT('',(0.0664344047196261,0.214748722858947,0.003175));
#1194=CARTESIAN_POINT('',(0.0664344047196261,0.214748722858947,0.00304800000000018));
#1195=CARTESIAN_POINT('',(0.0664344047196261,0.214748722858947,0.00304800000000018));
#1196=CARTESIAN_POINT('',(0.0664344047196261,0.215147487309874,0.00266704819361106));
#1197=CARTESIAN_POINT('',(0.0664344047196261,0.215546205465304,0.00228604793875275));
#1198=CARTESIAN_POINT('',(0.0664344047196261,0.215944878055834,0.001905));
#1199=CARTESIAN_POINT('',(-5.96744875736022E-16,-1.60982338570648E-15,0.003175));
#1200=CARTESIAN_POINT('',(0.0902533004994675,0.205875899145463,0.003175));
#1201=CARTESIAN_POINT('',(0.0902533004994675,0.205875899145463,0.00304800000000014));
#1202=CARTESIAN_POINT('',(2.1094237467878E-15,7.2997163869104E-15,0.00304799999999087));
#1203=CARTESIAN_POINT('',(0.0902533004994675,0.206499600580661,0.003175));
#1204=CARTESIAN_POINT('',(0.0902533004994675,0.20712330201586,0.001905));
#1205=CARTESIAN_POINT('',(0.0902533004994675,0.206707592738079,0.00228610005308011));
#1206=CARTESIAN_POINT('',(0.0902533004994675,0.2062917922882,0.00266710060630227));
#1207=CARTESIAN_POINT('',(0.0902533004994675,0.205875899145463,0.00304800000000012));
#1208=CARTESIAN_POINT('',(0.0665851774537803,0.119037310380937,0.003175));
#1209=CARTESIAN_POINT('',(0.0729351774537803,0.130035833009,0.003175));
#1210=CARTESIAN_POINT('',(0.0729351774537803,0.130035833009,0.001905));
#1211=CARTESIAN_POINT('',(0.0602351774537803,0.108038787752875,0.001905));
#1212=CARTESIAN_POINT('',(0.0602351774537804,0.108038787752875,0.001905));
#1213=CARTESIAN_POINT('',(0.0602351774537804,0.108038787752875,0.003175));
#1214=CARTESIAN_POINT('',(0.0720882912114196,0.130524783009,0.003175));
#1215=CARTESIAN_POINT('',(0.0720882912114196,0.130524783009,0.003175));
#1216=CARTESIAN_POINT('',(0.0712414049690588,0.131013733009,0.003175));
#1217=CARTESIAN_POINT('',(0.0718353251909741,0.130670833009,0.003175));
#1218=CARTESIAN_POINT('',(0.0719618082011968,0.130597808009,0.00302895));
#1219=CARTESIAN_POINT('',(0.0720882912114196,0.130524783009,-0.003175));
#1220=CARTESIAN_POINT('',(0.0712414049690588,0.131013733009,-0.003175));
#1221=CARTESIAN_POINT('',(0.0712414049690588,0.131013733009,0.003175));
#1222=CARTESIAN_POINT('',(0.0593882912114196,0.108527737752875,0.003175));
#1223=CARTESIAN_POINT('',(0.0591353251909741,0.108673787752875,0.003175));
#1224=CARTESIAN_POINT('',(0.0591353251909741,0.108673787752875,0.003175));
#1225=CARTESIAN_POINT('',(0.0593882912114196,0.108527737752875,0.003175));
#1226=CARTESIAN_POINT('',(0.0585414049690588,0.109016687752875,0.003175));
#1227=CARTESIAN_POINT('',(0.0585414049690588,0.109016687752875,0.003175));
#1228=CARTESIAN_POINT('',(0.0585414049690588,0.109016687752875,-0.003175));
#1229=CARTESIAN_POINT('',(0.0593882912114196,0.108527737752875,-0.003175));
#1230=CARTESIAN_POINT('',(0.0648914049690588,0.120015210380937,0.003175));
#1231=CARTESIAN_POINT('',(0.0648914049690588,0.120015210380937,-0.003175));
#1232=CARTESIAN_POINT('',(0.0648914049690588,0.120015210380937,0.003175));
#1233=CARTESIAN_POINT('',(0.,0.145986743691448,0.003175));
#1234=CARTESIAN_POINT('',(0.0718353251909741,0.130670833009,0.003175));
#1235=CARTESIAN_POINT('',(0.,0.145986743691448,-0.003175));
#1236=CARTESIAN_POINT('',(-0.0665851774537804,0.119037310380937,0.003175));
#1237=CARTESIAN_POINT('',(-0.0602351774537804,0.108038787752875,0.003175));
#1238=CARTESIAN_POINT('',(-0.0602351774537804,0.108038787752875,0.001905));
#1239=CARTESIAN_POINT('',(-0.0665851774537804,0.119037310380937,0.001905));
#1240=CARTESIAN_POINT('',(-0.0729351774537804,0.130035833009,0.001905));
#1241=CARTESIAN_POINT('',(-0.0729351774537804,0.130035833009,0.003175));
#1242=CARTESIAN_POINT('',(-0.0593882912114196,0.108527737752875,0.003175));
#1243=CARTESIAN_POINT('',(-0.0593882912114196,0.108527737752875,0.003175));
#1244=CARTESIAN_POINT('',(-0.0585414049690589,0.109016687752875,0.003175));
#1245=CARTESIAN_POINT('',(-0.0591353251909742,0.108673787752875,0.003175));
#1246=CARTESIAN_POINT('',(-0.0592618082011969,0.108600762752875,0.00302895));
#1247=CARTESIAN_POINT('',(-0.0593882912114196,0.108527737752875,-0.003175));
#1248=CARTESIAN_POINT('',(-0.0585414049690589,0.109016687752875,-0.003175));
#1249=CARTESIAN_POINT('',(-0.0585414049690589,0.109016687752875,0.003175));
#1250=CARTESIAN_POINT('',(-0.0720882912114196,0.130524783009,0.003175));
#1251=CARTESIAN_POINT('',(-0.0719618082011969,0.130597808009,0.00302895));
#1252=CARTESIAN_POINT('',(-0.0718353251909742,0.130670833009,0.003175));
#1253=CARTESIAN_POINT('',(-0.0720882912114196,0.130524783009,0.003175));
#1254=CARTESIAN_POINT('',(-0.0712414049690589,0.131013733009,0.003175));
#1255=CARTESIAN_POINT('',(-0.0712414049690589,0.131013733009,0.003175));
#1256=CARTESIAN_POINT('',(-0.0712414049690589,0.131013733009,-0.003175));
#1257=CARTESIAN_POINT('',(-0.0720882912114196,0.130524783009,-0.003175));
#1258=CARTESIAN_POINT('',(0.,0.145986743691448,-0.003175));
#1259=CARTESIAN_POINT('',(-0.0648914049690589,0.120015210380937,-0.003175));
#1260=CARTESIAN_POINT('',(-0.0648914049690589,0.120015210380937,0.003175));
#1261=CARTESIAN_POINT('',(-0.0648914049690589,0.120015210380937,0.003175));
#1262=CARTESIAN_POINT('',(0.,0.145986743691448,0.003175));
#1263=CARTESIAN_POINT('',(-0.0605084777597773,0.111052157768586,0.003175));
#1264=CARTESIAN_POINT('',(-0.0665851774537804,0.119037310380937,0.001905));
#1265=CARTESIAN_POINT('',(0.0605084777597773,0.111052157768586,0.003175));
#1266=CARTESIAN_POINT('',(2.1094237467878E-15,7.2997163869104E-15,0.001905));
#1267=CARTESIAN_POINT('',(-1.08246744900953E-15,2.70616862252382E-15,0.001905));
#1268=MECHANICAL_DESIGN_GEOMETRIC_PRESENTATION_REPRESENTATION('',(#731),
#1269);
#1269=(
GEOMETRIC_REPRESENTATION_CONTEXT(3)
GLOBAL_UNCERTAINTY_ASSIGNED_CONTEXT((#1270))
GLOBAL_UNIT_ASSIGNED_CONTEXT((#1273,#1272,#1271))
REPRESENTATION_CONTEXT('Wedge Bottom','TOP_LEVEL_ASSEMBLY_PART')
);
#1270=UNCERTAINTY_MEASURE_WITH_UNIT(LENGTH_MEASURE(2.E-5),#1273,
'DISTANCE_ACCURACY_VALUE','Maximum Tolerance applied to model');
#1271=(
NAMED_UNIT(*)
SI_UNIT($,.STERADIAN.)
SOLID_ANGLE_UNIT()
);
#1272=(
NAMED_UNIT(*)
PLANE_ANGLE_UNIT()
SI_UNIT($,.RADIAN.)
);
#1273=(
LENGTH_UNIT()
NAMED_UNIT(*)
SI_UNIT($,.METRE.)
);
#1274=PRODUCT_DEFINITION_SHAPE('','',#1275);
#1275=PRODUCT_DEFINITION('','',#1277,#1276);
#1276=PRODUCT_DEFINITION_CONTEXT('',#1283,'design');
#1277=PRODUCT_DEFINITION_FORMATION_WITH_SPECIFIED_SOURCE('','',#1279,
 .NOT_KNOWN.);
#1278=PRODUCT_RELATED_PRODUCT_CATEGORY('','',(#1279));
#1279=PRODUCT('Wedge Bottom','Wedge Bottom','Wedge Bottom',(#1281));
#1280=PRODUCT_CATEGORY('','');
#1281=PRODUCT_CONTEXT('',#1283,'mechanical');
#1282=APPLICATION_PROTOCOL_DEFINITION('international standard',
'ap242_managed_model_based_3d_engineering',2020,#1283);
#1283=APPLICATION_CONTEXT('managed model based 3d engineering');
ENDSEC;
END-ISO-10303-21;
