ISO-10303-21;
HEADER;
/* Generated by software containing ST-Developer
 * from STEP Tools, Inc. (www.steptools.com) 
 */
/* OPTION: using custom renumber hook */

FILE_DESCRIPTION(
/* description */ ('STEP AP242 Edition 2',
'CAx-IF Rec.Pracs.---Representation and Presentation of Product Manufa
cturing Information (PMI)---4.0---2014-10-13',
'CAx-IF Rec.Pracs.---3D Tessellated Geometry---0.4---2014-09-14','2;1',
'CAx-IF Rec.Pracs.---User Defined Attributes---1.5---2016-08-15'),
/* implementation_level */ '2;1');

FILE_NAME(
/* name */ 'LEAN FLOAT - Wedge',
/* time_stamp */ '2026-09-09T01:42:22Z',
/* author */ (''),
/* organization */ (''),
/* preprocessor_version */ 'ST-DEVELOPER v20',
/* originating_system */ 'ONSHAPE BY PTC INC, 1.220',
/* authorisation */ '  ');

FILE_SCHEMA (('AP242_MANAGED_MODEL_BASED_3D_ENGINEERING_MIM_LF { 1 0 10303 442 3 1 4 }'));
ENDSEC;

DATA;
#10=SHAPE_REPRESENTATION_RELATIONSHIP('','',#723,#11);
#11=ADVANCED_BREP_SHAPE_REPRESENTATION('',(#721),#1347);
#12=PLANE('',#734);
#13=PLANE('',#735);
#14=PLANE('',#739);
#15=PLANE('',#743);
#16=PLANE('',#744);
#17=PLANE('',#748);
#18=PLANE('',#749);
#19=PLANE('',#756);
#20=PLANE('',#776);
#21=PLANE('',#778);
#22=PLANE('',#780);
#23=PLANE('',#782);
#24=PLANE('',#784);
#25=PLANE('',#786);
#26=CIRCLE('',#726,0.073024999999957);
#27=CIRCLE('',#727,0.073024999999957);
#28=CIRCLE('',#729,0.073787);
#29=CIRCLE('',#730,0.073787);
#30=CIRCLE('',#732,0.2286);
#31=CIRCLE('',#733,0.2286);
#32=CIRCLE('',#736,0.0022479);
#33=CIRCLE('',#737,0.0022479);
#34=CIRCLE('',#738,0.0022479);
#35=CIRCLE('',#741,0.226187);
#36=CIRCLE('',#742,0.226187);
#37=CIRCLE('',#745,0.0022479);
#38=CIRCLE('',#746,0.0022479);
#39=CIRCLE('',#747,0.0022479);
#40=CIRCLE('',#750,0.00508);
#41=CIRCLE('',#751,0.00508);
#42=CIRCLE('',#752,0.00508);
#43=CIRCLE('',#753,0.00508);
#44=CIRCLE('',#754,0.00508);
#45=CIRCLE('',#755,0.00508);
#46=CIRCLE('',#757,0.00508);
#47=CIRCLE('',#758,0.00508);
#48=CIRCLE('',#759,0.00508);
#49=CIRCLE('',#760,0.00508);
#50=CIRCLE('',#761,0.00508);
#51=CIRCLE('',#762,0.00508);
#52=LINE('',#980,#104);
#53=LINE('',#994,#105);
#54=LINE('',#998,#106);
#55=LINE('',#1002,#107);
#56=LINE('',#1088,#108);
#57=LINE('',#1102,#109);
#58=LINE('',#1116,#110);
#59=LINE('',#1130,#111);
#60=LINE('',#1135,#112);
#61=LINE('',#1139,#113);
#62=LINE('',#1140,#114);
#63=LINE('',#1155,#115);
#64=LINE('',#1168,#116);
#65=LINE('',#1183,#117);
#66=LINE('',#1196,#118);
#67=LINE('',#1211,#119);
#68=LINE('',#1228,#120);
#69=LINE('',#1232,#121);
#70=LINE('',#1234,#122);
#71=LINE('',#1235,#123);
#72=LINE('',#1243,#124);
#73=LINE('',#1246,#125);
#74=LINE('',#1248,#126);
#75=LINE('',#1250,#127);
#76=LINE('',#1252,#128);
#77=LINE('',#1255,#129);
#78=LINE('',#1257,#130);
#79=LINE('',#1259,#131);
#80=LINE('',#1264,#132);
#81=LINE('',#1268,#133);
#82=LINE('',#1270,#134);
#83=LINE('',#1273,#135);
#84=LINE('',#1275,#136);
#85=LINE('',#1277,#137);
#86=LINE('',#1285,#138);
#87=LINE('',#1288,#139);
#88=LINE('',#1290,#140);
#89=LINE('',#1292,#141);
#90=LINE('',#1294,#142);
#91=LINE('',#1295,#143);
#92=LINE('',#1323,#144);
#93=LINE('',#1324,#145);
#94=LINE('',#1326,#146);
#95=LINE('',#1328,#147);
#96=LINE('',#1331,#148);
#97=LINE('',#1332,#149);
#98=LINE('',#1334,#150);
#99=LINE('',#1336,#151);
#100=LINE('',#1339,#152);
#101=LINE('',#1340,#153);
#102=LINE('',#1342,#154);
#103=LINE('',#1344,#155);
#104=VECTOR('',#791,1.);
#105=VECTOR('',#792,1.);
#106=VECTOR('',#795,1.);
#107=VECTOR('',#798,1.);
#108=VECTOR('',#799,1.);
#109=VECTOR('',#800,1.);
#110=VECTOR('',#801,1.);
#111=VECTOR('',#802,1.);
#112=VECTOR('',#807,1.);
#113=VECTOR('',#810,1.);
#114=VECTOR('',#811,1.);
#115=VECTOR('',#812,1.);
#116=VECTOR('',#813,1.);
#117=VECTOR('',#814,1.);
#118=VECTOR('',#815,1.);
#119=VECTOR('',#816,1.);
#120=VECTOR('',#821,1.);
#121=VECTOR('',#824,1.);
#122=VECTOR('',#827,1.);
#123=VECTOR('',#828,1.);
#124=VECTOR('',#837,1.);
#125=VECTOR('',#838,1.);
#126=VECTOR('',#839,1.);
#127=VECTOR('',#840,1.);
#128=VECTOR('',#843,1.);
#129=VECTOR('',#844,1.);
#130=VECTOR('',#845,1.);
#131=VECTOR('',#846,1.);
#132=VECTOR('',#851,1.);
#133=VECTOR('',#854,1.);
#134=VECTOR('',#857,1.);
#135=VECTOR('',#858,1.);
#136=VECTOR('',#859,1.);
#137=VECTOR('',#860,1.);
#138=VECTOR('',#869,1.);
#139=VECTOR('',#870,1.);
#140=VECTOR('',#871,1.);
#141=VECTOR('',#872,1.);
#142=VECTOR('',#875,1.);
#143=VECTOR('',#876,1.);
#144=VECTOR('',#931,1.);
#145=VECTOR('',#932,1.);
#146=VECTOR('',#935,1.);
#147=VECTOR('',#938,1.);
#148=VECTOR('',#943,1.);
#149=VECTOR('',#944,1.);
#150=VECTOR('',#947,1.);
#151=VECTOR('',#950,1.);
#152=VECTOR('',#955,1.);
#153=VECTOR('',#956,1.);
#154=VECTOR('',#959,1.);
#155=VECTOR('',#962,1.);
#156=ORIENTED_EDGE('',*,*,#348,.F.);
#157=ORIENTED_EDGE('',*,*,#349,.F.);
#158=ORIENTED_EDGE('',*,*,#350,.F.);
#159=ORIENTED_EDGE('',*,*,#351,.T.);
#160=ORIENTED_EDGE('',*,*,#352,.T.);
#161=ORIENTED_EDGE('',*,*,#353,.F.);
#162=ORIENTED_EDGE('',*,*,#354,.F.);
#163=ORIENTED_EDGE('',*,*,#355,.T.);
#164=ORIENTED_EDGE('',*,*,#356,.T.);
#165=ORIENTED_EDGE('',*,*,#357,.T.);
#166=ORIENTED_EDGE('',*,*,#358,.T.);
#167=ORIENTED_EDGE('',*,*,#359,.T.);
#168=ORIENTED_EDGE('',*,*,#360,.T.);
#169=ORIENTED_EDGE('',*,*,#361,.T.);
#170=ORIENTED_EDGE('',*,*,#362,.F.);
#171=ORIENTED_EDGE('',*,*,#363,.F.);
#172=ORIENTED_EDGE('',*,*,#364,.F.);
#173=ORIENTED_EDGE('',*,*,#365,.T.);
#174=ORIENTED_EDGE('',*,*,#366,.F.);
#175=ORIENTED_EDGE('',*,*,#367,.F.);
#176=ORIENTED_EDGE('',*,*,#368,.F.);
#177=ORIENTED_EDGE('',*,*,#369,.T.);
#178=ORIENTED_EDGE('',*,*,#370,.F.);
#179=ORIENTED_EDGE('',*,*,#371,.T.);
#180=ORIENTED_EDGE('',*,*,#372,.T.);
#181=ORIENTED_EDGE('',*,*,#373,.T.);
#182=ORIENTED_EDGE('',*,*,#374,.T.);
#183=ORIENTED_EDGE('',*,*,#375,.T.);
#184=ORIENTED_EDGE('',*,*,#376,.F.);
#185=ORIENTED_EDGE('',*,*,#377,.T.);
#186=ORIENTED_EDGE('',*,*,#378,.T.);
#187=ORIENTED_EDGE('',*,*,#379,.T.);
#188=ORIENTED_EDGE('',*,*,#380,.F.);
#189=ORIENTED_EDGE('',*,*,#381,.T.);
#190=ORIENTED_EDGE('',*,*,#382,.T.);
#191=ORIENTED_EDGE('',*,*,#383,.T.);
#192=ORIENTED_EDGE('',*,*,#384,.F.);
#193=ORIENTED_EDGE('',*,*,#385,.T.);
#194=ORIENTED_EDGE('',*,*,#386,.F.);
#195=ORIENTED_EDGE('',*,*,#387,.F.);
#196=ORIENTED_EDGE('',*,*,#388,.T.);
#197=ORIENTED_EDGE('',*,*,#389,.T.);
#198=ORIENTED_EDGE('',*,*,#390,.T.);
#199=ORIENTED_EDGE('',*,*,#355,.F.);
#200=ORIENTED_EDGE('',*,*,#391,.F.);
#201=ORIENTED_EDGE('',*,*,#387,.T.);
#202=ORIENTED_EDGE('',*,*,#392,.F.);
#203=ORIENTED_EDGE('',*,*,#393,.F.);
#204=ORIENTED_EDGE('',*,*,#394,.F.);
#205=ORIENTED_EDGE('',*,*,#395,.T.);
#206=ORIENTED_EDGE('',*,*,#396,.T.);
#207=ORIENTED_EDGE('',*,*,#397,.F.);
#208=ORIENTED_EDGE('',*,*,#398,.T.);
#209=ORIENTED_EDGE('',*,*,#399,.F.);
#210=ORIENTED_EDGE('',*,*,#400,.T.);
#211=ORIENTED_EDGE('',*,*,#401,.T.);
#212=ORIENTED_EDGE('',*,*,#402,.T.);
#213=ORIENTED_EDGE('',*,*,#403,.T.);
#214=ORIENTED_EDGE('',*,*,#404,.T.);
#215=ORIENTED_EDGE('',*,*,#405,.F.);
#216=ORIENTED_EDGE('',*,*,#406,.T.);
#217=ORIENTED_EDGE('',*,*,#407,.T.);
#218=ORIENTED_EDGE('',*,*,#408,.T.);
#219=ORIENTED_EDGE('',*,*,#409,.F.);
#220=ORIENTED_EDGE('',*,*,#410,.T.);
#221=ORIENTED_EDGE('',*,*,#411,.F.);
#222=ORIENTED_EDGE('',*,*,#412,.F.);
#223=ORIENTED_EDGE('',*,*,#413,.F.);
#224=ORIENTED_EDGE('',*,*,#414,.F.);
#225=ORIENTED_EDGE('',*,*,#415,.T.);
#226=ORIENTED_EDGE('',*,*,#416,.T.);
#227=ORIENTED_EDGE('',*,*,#417,.T.);
#228=ORIENTED_EDGE('',*,*,#418,.F.);
#229=ORIENTED_EDGE('',*,*,#389,.F.);
#230=ORIENTED_EDGE('',*,*,#419,.T.);
#231=ORIENTED_EDGE('',*,*,#353,.T.);
#232=ORIENTED_EDGE('',*,*,#420,.T.);
#233=ORIENTED_EDGE('',*,*,#372,.F.);
#234=ORIENTED_EDGE('',*,*,#421,.T.);
#235=ORIENTED_EDGE('',*,*,#395,.F.);
#236=ORIENTED_EDGE('',*,*,#422,.T.);
#237=ORIENTED_EDGE('',*,*,#399,.T.);
#238=ORIENTED_EDGE('',*,*,#423,.T.);
#239=ORIENTED_EDGE('',*,*,#405,.T.);
#240=ORIENTED_EDGE('',*,*,#424,.T.);
#241=ORIENTED_EDGE('',*,*,#407,.F.);
#242=ORIENTED_EDGE('',*,*,#425,.T.);
#243=ORIENTED_EDGE('',*,*,#416,.F.);
#244=ORIENTED_EDGE('',*,*,#388,.F.);
#245=ORIENTED_EDGE('',*,*,#391,.T.);
#246=ORIENTED_EDGE('',*,*,#354,.T.);
#247=ORIENTED_EDGE('',*,*,#419,.F.);
#248=ORIENTED_EDGE('',*,*,#370,.T.);
#249=ORIENTED_EDGE('',*,*,#426,.T.);
#250=ORIENTED_EDGE('',*,*,#414,.T.);
#251=ORIENTED_EDGE('',*,*,#427,.T.);
#252=ORIENTED_EDGE('',*,*,#409,.T.);
#253=ORIENTED_EDGE('',*,*,#428,.T.);
#254=ORIENTED_EDGE('',*,*,#403,.F.);
#255=ORIENTED_EDGE('',*,*,#429,.T.);
#256=ORIENTED_EDGE('',*,*,#401,.F.);
#257=ORIENTED_EDGE('',*,*,#430,.T.);
#258=ORIENTED_EDGE('',*,*,#397,.T.);
#259=ORIENTED_EDGE('',*,*,#431,.T.);
#260=ORIENTED_EDGE('',*,*,#386,.T.);
#261=ORIENTED_EDGE('',*,*,#418,.T.);
#262=ORIENTED_EDGE('',*,*,#352,.F.);
#263=ORIENTED_EDGE('',*,*,#390,.F.);
#264=ORIENTED_EDGE('',*,*,#394,.T.);
#265=ORIENTED_EDGE('',*,*,#356,.F.);
#266=ORIENTED_EDGE('',*,*,#393,.T.);
#267=ORIENTED_EDGE('',*,*,#357,.F.);
#268=ORIENTED_EDGE('',*,*,#392,.T.);
#269=ORIENTED_EDGE('',*,*,#358,.F.);
#270=ORIENTED_EDGE('',*,*,#413,.T.);
#271=ORIENTED_EDGE('',*,*,#359,.F.);
#272=ORIENTED_EDGE('',*,*,#412,.T.);
#273=ORIENTED_EDGE('',*,*,#360,.F.);
#274=ORIENTED_EDGE('',*,*,#411,.T.);
#275=ORIENTED_EDGE('',*,*,#361,.F.);
#276=ORIENTED_EDGE('',*,*,#424,.F.);
#277=ORIENTED_EDGE('',*,*,#404,.F.);
#278=ORIENTED_EDGE('',*,*,#428,.F.);
#279=ORIENTED_EDGE('',*,*,#408,.F.);
#280=ORIENTED_EDGE('',*,*,#425,.F.);
#281=ORIENTED_EDGE('',*,*,#410,.F.);
#282=ORIENTED_EDGE('',*,*,#427,.F.);
#283=ORIENTED_EDGE('',*,*,#417,.F.);
#284=ORIENTED_EDGE('',*,*,#422,.F.);
#285=ORIENTED_EDGE('',*,*,#398,.F.);
#286=ORIENTED_EDGE('',*,*,#430,.F.);
#287=ORIENTED_EDGE('',*,*,#400,.F.);
#288=ORIENTED_EDGE('',*,*,#423,.F.);
#289=ORIENTED_EDGE('',*,*,#402,.F.);
#290=ORIENTED_EDGE('',*,*,#429,.F.);
#291=ORIENTED_EDGE('',*,*,#406,.F.);
#292=ORIENTED_EDGE('',*,*,#420,.F.);
#293=ORIENTED_EDGE('',*,*,#415,.F.);
#294=ORIENTED_EDGE('',*,*,#426,.F.);
#295=ORIENTED_EDGE('',*,*,#373,.F.);
#296=ORIENTED_EDGE('',*,*,#421,.F.);
#297=ORIENTED_EDGE('',*,*,#371,.F.);
#298=ORIENTED_EDGE('',*,*,#431,.F.);
#299=ORIENTED_EDGE('',*,*,#396,.F.);
#300=ORIENTED_EDGE('',*,*,#362,.T.);
#301=ORIENTED_EDGE('',*,*,#432,.F.);
#302=ORIENTED_EDGE('',*,*,#375,.F.);
#303=ORIENTED_EDGE('',*,*,#433,.T.);
#304=ORIENTED_EDGE('',*,*,#363,.T.);
#305=ORIENTED_EDGE('',*,*,#433,.F.);
#306=ORIENTED_EDGE('',*,*,#374,.F.);
#307=ORIENTED_EDGE('',*,*,#434,.T.);
#308=ORIENTED_EDGE('',*,*,#364,.T.);
#309=ORIENTED_EDGE('',*,*,#434,.F.);
#310=ORIENTED_EDGE('',*,*,#377,.F.);
#311=ORIENTED_EDGE('',*,*,#435,.T.);
#312=ORIENTED_EDGE('',*,*,#435,.F.);
#313=ORIENTED_EDGE('',*,*,#376,.T.);
#314=ORIENTED_EDGE('',*,*,#432,.T.);
#315=ORIENTED_EDGE('',*,*,#365,.F.);
#316=ORIENTED_EDGE('',*,*,#348,.T.);
#317=ORIENTED_EDGE('',*,*,#436,.F.);
#318=ORIENTED_EDGE('',*,*,#379,.F.);
#319=ORIENTED_EDGE('',*,*,#437,.T.);
#320=ORIENTED_EDGE('',*,*,#349,.T.);
#321=ORIENTED_EDGE('',*,*,#437,.F.);
#322=ORIENTED_EDGE('',*,*,#378,.F.);
#323=ORIENTED_EDGE('',*,*,#438,.T.);
#324=ORIENTED_EDGE('',*,*,#350,.T.);
#325=ORIENTED_EDGE('',*,*,#438,.F.);
#326=ORIENTED_EDGE('',*,*,#381,.F.);
#327=ORIENTED_EDGE('',*,*,#439,.T.);
#328=ORIENTED_EDGE('',*,*,#439,.F.);
#329=ORIENTED_EDGE('',*,*,#380,.T.);
#330=ORIENTED_EDGE('',*,*,#436,.T.);
#331=ORIENTED_EDGE('',*,*,#351,.F.);
#332=ORIENTED_EDGE('',*,*,#366,.T.);
#333=ORIENTED_EDGE('',*,*,#440,.F.);
#334=ORIENTED_EDGE('',*,*,#383,.F.);
#335=ORIENTED_EDGE('',*,*,#441,.T.);
#336=ORIENTED_EDGE('',*,*,#367,.T.);
#337=ORIENTED_EDGE('',*,*,#441,.F.);
#338=ORIENTED_EDGE('',*,*,#382,.F.);
#339=ORIENTED_EDGE('',*,*,#442,.T.);
#340=ORIENTED_EDGE('',*,*,#368,.T.);
#341=ORIENTED_EDGE('',*,*,#442,.F.);
#342=ORIENTED_EDGE('',*,*,#385,.F.);
#343=ORIENTED_EDGE('',*,*,#443,.T.);
#344=ORIENTED_EDGE('',*,*,#443,.F.);
#345=ORIENTED_EDGE('',*,*,#384,.T.);
#346=ORIENTED_EDGE('',*,*,#440,.T.);
#347=ORIENTED_EDGE('',*,*,#369,.F.);
#348=EDGE_CURVE('',#444,#445,#512,.T.);
#349=EDGE_CURVE('',#446,#444,#52,.T.);
#350=EDGE_CURVE('',#447,#446,#513,.T.);
#351=EDGE_CURVE('',#447,#445,#53,.T.);
#352=EDGE_CURVE('',#448,#449,#26,.T.);
#353=EDGE_CURVE('',#450,#449,#54,.T.);
#354=EDGE_CURVE('',#451,#450,#27,.T.);
#355=EDGE_CURVE('',#451,#448,#55,.T.);
#356=EDGE_CURVE('',#452,#452,#514,.T.);
#357=EDGE_CURVE('',#453,#453,#515,.T.);
#358=EDGE_CURVE('',#454,#454,#516,.T.);
#359=EDGE_CURVE('',#455,#455,#517,.T.);
#360=EDGE_CURVE('',#456,#456,#518,.T.);
#361=EDGE_CURVE('',#457,#457,#519,.T.);
#362=EDGE_CURVE('',#458,#459,#520,.T.);
#363=EDGE_CURVE('',#460,#458,#56,.T.);
#364=EDGE_CURVE('',#461,#460,#521,.T.);
#365=EDGE_CURVE('',#461,#459,#57,.T.);
#366=EDGE_CURVE('',#462,#463,#522,.T.);
#367=EDGE_CURVE('',#464,#462,#58,.T.);
#368=EDGE_CURVE('',#465,#464,#523,.T.);
#369=EDGE_CURVE('',#465,#463,#59,.T.);
#370=EDGE_CURVE('',#466,#467,#28,.T.);
#371=EDGE_CURVE('',#466,#468,#60,.F.);
#372=EDGE_CURVE('',#468,#469,#29,.T.);
#373=EDGE_CURVE('',#469,#467,#61,.T.);
#374=EDGE_CURVE('',#470,#471,#62,.T.);
#375=EDGE_CURVE('',#471,#472,#524,.T.);
#376=EDGE_CURVE('',#473,#472,#63,.T.);
#377=EDGE_CURVE('',#473,#470,#525,.T.);
#378=EDGE_CURVE('',#474,#475,#64,.T.);
#379=EDGE_CURVE('',#475,#476,#526,.T.);
#380=EDGE_CURVE('',#477,#476,#65,.T.);
#381=EDGE_CURVE('',#477,#474,#527,.T.);
#382=EDGE_CURVE('',#478,#479,#66,.T.);
#383=EDGE_CURVE('',#479,#480,#528,.T.);
#384=EDGE_CURVE('',#481,#480,#67,.T.);
#385=EDGE_CURVE('',#481,#478,#529,.T.);
#386=EDGE_CURVE('',#482,#483,#30,.T.);
#387=EDGE_CURVE('',#484,#482,#68,.T.);
#388=EDGE_CURVE('',#484,#485,#31,.T.);
#389=EDGE_CURVE('',#485,#483,#69,.T.);
#390=EDGE_CURVE('',#482,#448,#70,.T.);
#391=EDGE_CURVE('',#484,#451,#71,.T.);
#392=EDGE_CURVE('',#486,#486,#32,.T.);
#393=EDGE_CURVE('',#487,#487,#33,.T.);
#394=EDGE_CURVE('',#488,#488,#34,.T.);
#395=EDGE_CURVE('',#489,#490,#72,.T.);
#396=EDGE_CURVE('',#490,#491,#73,.T.);
#397=EDGE_CURVE('',#492,#491,#74,.T.);
#398=EDGE_CURVE('',#492,#489,#75,.F.);
#399=EDGE_CURVE('',#493,#494,#76,.T.);
#400=EDGE_CURVE('',#493,#495,#77,.T.);
#401=EDGE_CURVE('',#495,#496,#78,.T.);
#402=EDGE_CURVE('',#496,#494,#79,.T.);
#403=EDGE_CURVE('',#497,#498,#35,.T.);
#404=EDGE_CURVE('',#498,#499,#80,.F.);
#405=EDGE_CURVE('',#500,#499,#36,.T.);
#406=EDGE_CURVE('',#500,#497,#81,.T.);
#407=EDGE_CURVE('',#501,#502,#82,.T.);
#408=EDGE_CURVE('',#502,#503,#83,.T.);
#409=EDGE_CURVE('',#504,#503,#84,.T.);
#410=EDGE_CURVE('',#504,#501,#85,.F.);
#411=EDGE_CURVE('',#505,#505,#37,.T.);
#412=EDGE_CURVE('',#506,#506,#38,.T.);
#413=EDGE_CURVE('',#507,#507,#39,.T.);
#414=EDGE_CURVE('',#508,#509,#86,.T.);
#415=EDGE_CURVE('',#508,#510,#87,.F.);
#416=EDGE_CURVE('',#510,#511,#88,.T.);
#417=EDGE_CURVE('',#511,#509,#89,.T.);
#418=EDGE_CURVE('',#483,#449,#90,.T.);
#419=EDGE_CURVE('',#485,#450,#91,.T.);
#420=EDGE_CURVE('',#510,#469,#40,.T.);
#421=EDGE_CURVE('',#468,#490,#41,.T.);
#422=EDGE_CURVE('',#489,#493,#42,.F.);
#423=EDGE_CURVE('',#494,#500,#43,.F.);
#424=EDGE_CURVE('',#499,#502,#44,.F.);
#425=EDGE_CURVE('',#501,#511,#45,.F.);
#426=EDGE_CURVE('',#467,#508,#46,.F.);
#427=EDGE_CURVE('',#509,#504,#47,.T.);
#428=EDGE_CURVE('',#503,#498,#48,.T.);
#429=EDGE_CURVE('',#497,#496,#49,.T.);
#430=EDGE_CURVE('',#495,#492,#50,.T.);
#431=EDGE_CURVE('',#491,#466,#51,.F.);
#432=EDGE_CURVE('',#472,#459,#92,.T.);
#433=EDGE_CURVE('',#471,#458,#93,.T.);
#434=EDGE_CURVE('',#470,#460,#94,.T.);
#435=EDGE_CURVE('',#473,#461,#95,.T.);
#436=EDGE_CURVE('',#476,#445,#96,.T.);
#437=EDGE_CURVE('',#475,#444,#97,.T.);
#438=EDGE_CURVE('',#474,#446,#98,.T.);
#439=EDGE_CURVE('',#477,#447,#99,.T.);
#440=EDGE_CURVE('',#480,#463,#100,.T.);
#441=EDGE_CURVE('',#479,#462,#101,.T.);
#442=EDGE_CURVE('',#478,#464,#102,.T.);
#443=EDGE_CURVE('',#481,#465,#103,.T.);
#444=VERTEX_POINT('',#978);
#445=VERTEX_POINT('',#979);
#446=VERTEX_POINT('',#981);
#447=VERTEX_POINT('',#993);
#448=VERTEX_POINT('',#996);
#449=VERTEX_POINT('',#997);
#450=VERTEX_POINT('',#999);
#451=VERTEX_POINT('',#1001);
#452=VERTEX_POINT('',#1014);
#453=VERTEX_POINT('',#1026);
#454=VERTEX_POINT('',#1038);
#455=VERTEX_POINT('',#1050);
#456=VERTEX_POINT('',#1062);
#457=VERTEX_POINT('',#1074);
#458=VERTEX_POINT('',#1086);
#459=VERTEX_POINT('',#1087);
#460=VERTEX_POINT('',#1089);
#461=VERTEX_POINT('',#1101);
#462=VERTEX_POINT('',#1114);
#463=VERTEX_POINT('',#1115);
#464=VERTEX_POINT('',#1117);
#465=VERTEX_POINT('',#1129);
#466=VERTEX_POINT('',#1133);
#467=VERTEX_POINT('',#1134);
#468=VERTEX_POINT('',#1136);
#469=VERTEX_POINT('',#1138);
#470=VERTEX_POINT('',#1141);
#471=VERTEX_POINT('',#1142);
#472=VERTEX_POINT('',#1154);
#473=VERTEX_POINT('',#1156);
#474=VERTEX_POINT('',#1169);
#475=VERTEX_POINT('',#1170);
#476=VERTEX_POINT('',#1182);
#477=VERTEX_POINT('',#1184);
#478=VERTEX_POINT('',#1197);
#479=VERTEX_POINT('',#1198);
#480=VERTEX_POINT('',#1210);
#481=VERTEX_POINT('',#1212);
#482=VERTEX_POINT('',#1226);
#483=VERTEX_POINT('',#1227);
#484=VERTEX_POINT('',#1229);
#485=VERTEX_POINT('',#1231);
#486=VERTEX_POINT('',#1238);
#487=VERTEX_POINT('',#1240);
#488=VERTEX_POINT('',#1242);
#489=VERTEX_POINT('',#1244);
#490=VERTEX_POINT('',#1245);
#491=VERTEX_POINT('',#1247);
#492=VERTEX_POINT('',#1249);
#493=VERTEX_POINT('',#1253);
#494=VERTEX_POINT('',#1254);
#495=VERTEX_POINT('',#1256);
#496=VERTEX_POINT('',#1258);
#497=VERTEX_POINT('',#1262);
#498=VERTEX_POINT('',#1263);
#499=VERTEX_POINT('',#1265);
#500=VERTEX_POINT('',#1267);
#501=VERTEX_POINT('',#1271);
#502=VERTEX_POINT('',#1272);
#503=VERTEX_POINT('',#1274);
#504=VERTEX_POINT('',#1276);
#505=VERTEX_POINT('',#1280);
#506=VERTEX_POINT('',#1282);
#507=VERTEX_POINT('',#1284);
#508=VERTEX_POINT('',#1286);
#509=VERTEX_POINT('',#1287);
#510=VERTEX_POINT('',#1289);
#511=VERTEX_POINT('',#1291);
#512=B_SPLINE_CURVE_WITH_KNOTS('',3,(#967,#968,#969,#970,#971,#972,#973,
#974,#975,#976,#977),.UNSPECIFIED.,.F.,.F.,(4,1,1,1,1,1,1,1,4),(0.,0.00372553733680719,
0.00745107467361439,0.0111766120104216,0.0149021493472288,0.018627686684036,
0.0223532240208432,0.0260787613576504,0.0298042986944575),.UNSPECIFIED.);
#513=B_SPLINE_CURVE_WITH_KNOTS('',3,(#982,#983,#984,#985,#986,#987,#988,
#989,#990,#991,#992),.UNSPECIFIED.,.F.,.F.,(4,1,1,1,1,1,1,1,4),(0.,0.00372553733680719,
0.00745107467361438,0.0111766120104216,0.0149021493472288,0.018627686684036,
0.0223532240208432,0.0260787613576503,0.0298042986944575),.UNSPECIFIED.);
#514=B_SPLINE_CURVE_WITH_KNOTS('',3,(#1003,#1004,#1005,#1006,#1007,#1008,
#1009,#1010,#1011,#1012,#1013),.UNSPECIFIED.,.T.,.F.,(1,1,1,1,1,1,1,1,1,
1,1,1,1,1,1),(-0.00527084676490177,-0.00351389784326784,-0.00175694892163392,
6.93889390390723E-18,0.00175694892163393,0.00351389784326786,0.00527084676490178,
0.00702779568653571,0.00878474460816963,0.0105416935298036,0.0122986424514375,
0.0140555913730714,0.0158125402947053,0.0175694892163393,0.0193264381379732),
 .UNSPECIFIED.);
#515=B_SPLINE_CURVE_WITH_KNOTS('',3,(#1015,#1016,#1017,#1018,#1019,#1020,
#1021,#1022,#1023,#1024,#1025),.UNSPECIFIED.,.T.,.F.,(1,1,1,1,1,1,1,1,1,
1,1,1,1,1,1),(-0.00527084676490176,-0.00351389784326784,-0.00175694892163391,
1.38777878078145E-17,0.00175694892163394,0.00351389784326786,0.00527084676490179,
0.00702779568653571,0.00878474460816964,0.0105416935298036,0.0122986424514375,
0.0140555913730714,0.0158125402947053,0.0175694892163393,0.0193264381379732),
 .UNSPECIFIED.);
#516=B_SPLINE_CURVE_WITH_KNOTS('',3,(#1027,#1028,#1029,#1030,#1031,#1032,
#1033,#1034,#1035,#1036,#1037),.UNSPECIFIED.,.T.,.F.,(1,1,1,1,1,1,1,1,1,
1,1,1,1,1,1),(-0.00527084676490176,-0.00351389784326784,-0.00175694892163391,
1.38777878078145E-17,0.00175694892163394,0.00351389784326786,0.00527084676490179,
0.00702779568653571,0.00878474460816964,0.0105416935298036,0.0122986424514375,
0.0140555913730714,0.0158125402947053,0.0175694892163393,0.0193264381379732),
 .UNSPECIFIED.);
#517=B_SPLINE_CURVE_WITH_KNOTS('',3,(#1039,#1040,#1041,#1042,#1043,#1044,
#1045,#1046,#1047,#1048,#1049),.UNSPECIFIED.,.T.,.F.,(1,1,1,1,1,1,1,1,1,
1,1,1,1,1,1),(-0.00527085356772295,-0.00351390237848197,-0.00175695118924099,
0.,0.00175695118924098,0.00351390237848197,0.00527085356772295,0.00702780475696394,
0.00878475594620492,0.0105417071354459,0.0122986583246869,0.0140556095139279,
0.0158125607031689,0.0175695118924098,0.0193264630816508),.UNSPECIFIED.);
#518=B_SPLINE_CURVE_WITH_KNOTS('',3,(#1051,#1052,#1053,#1054,#1055,#1056,
#1057,#1058,#1059,#1060,#1061),.UNSPECIFIED.,.T.,.F.,(1,1,1,1,1,1,1,1,1,
1,1,1,1,1,1),(-0.00527085356772291,-0.00351390237848194,-0.00175695118924097,
0.,0.00175695118924097,0.00351390237848194,0.00527085356772291,0.00702780475696388,
0.00878475594620486,0.0105417071354458,0.0122986583246868,0.0140556095139278,
0.0158125607031687,0.0175695118924097,0.0193264630816507),.UNSPECIFIED.);
#519=B_SPLINE_CURVE_WITH_KNOTS('',3,(#1063,#1064,#1065,#1066,#1067,#1068,
#1069,#1070,#1071,#1072,#1073),.UNSPECIFIED.,.T.,.F.,(1,1,1,1,1,1,1,1,1,
1,1,1,1,1,1),(-0.00527085356772293,-0.00351390237848196,-0.00175695118924098,
0.,0.00175695118924098,0.00351390237848196,0.00527085356772293,0.00702780475696391,
0.00878475594620489,0.0105417071354459,0.0122986583246868,0.0140556095139278,
0.0158125607031688,0.0175695118924098,0.0193264630816508),.UNSPECIFIED.);
#520=B_SPLINE_CURVE_WITH_KNOTS('',3,(#1075,#1076,#1077,#1078,#1079,#1080,
#1081,#1082,#1083,#1084,#1085),.UNSPECIFIED.,.F.,.F.,(4,1,1,1,1,1,1,1,4),
(0.,0.00372553733680719,0.00745107467361438,0.0111766120104216,0.0149021493472288,
0.0186276866840359,0.0223532240208431,0.0260787613576503,0.0298042986944575),
 .UNSPECIFIED.);
#521=B_SPLINE_CURVE_WITH_KNOTS('',3,(#1090,#1091,#1092,#1093,#1094,#1095,
#1096,#1097,#1098,#1099,#1100),.UNSPECIFIED.,.F.,.F.,(4,1,1,1,1,1,1,1,4),
(0.,0.00372553733680719,0.00745107467361439,0.0111766120104216,0.0149021493472288,
0.018627686684036,0.0223532240208432,0.0260787613576504,0.0298042986944575),
 .UNSPECIFIED.);
#522=B_SPLINE_CURVE_WITH_KNOTS('',3,(#1103,#1104,#1105,#1106,#1107,#1108,
#1109,#1110,#1111,#1112,#1113),.UNSPECIFIED.,.F.,.F.,(4,1,1,1,1,1,1,1,4),
(0.,0.0037255373368072,0.0074510746736144,0.0111766120104216,0.0149021493472288,
0.018627686684036,0.0223532240208432,0.0260787613576504,0.0298042986944576),
 .UNSPECIFIED.);
#523=B_SPLINE_CURVE_WITH_KNOTS('',3,(#1118,#1119,#1120,#1121,#1122,#1123,
#1124,#1125,#1126,#1127,#1128),.UNSPECIFIED.,.F.,.F.,(4,1,1,1,1,1,1,1,4),
(0.,0.00372553733680719,0.00745107467361438,0.0111766120104216,0.0149021493472288,
0.0186276866840359,0.0223532240208431,0.0260787613576503,0.0298042986944575),
 .UNSPECIFIED.);
#524=B_SPLINE_CURVE_WITH_KNOTS('',3,(#1143,#1144,#1145,#1146,#1147,#1148,
#1149,#1150,#1151,#1152,#1153),.UNSPECIFIED.,.F.,.F.,(4,1,1,1,1,1,1,1,4),
(0.,0.00372545741668354,0.00745091483336709,0.0111763722500506,0.0149018296667342,
0.0186272870834177,0.0223527445001013,0.0260782019167848,0.0298036593334683),
 .UNSPECIFIED.);
#525=B_SPLINE_CURVE_WITH_KNOTS('',3,(#1157,#1158,#1159,#1160,#1161,#1162,
#1163,#1164,#1165,#1166,#1167),.UNSPECIFIED.,.F.,.F.,(4,1,1,1,1,1,1,1,4),
(0.,0.00372545741668356,0.00745091483336711,0.0111763722500507,0.0149018296667342,
0.0186272870834178,0.0223527445001013,0.0260782019167849,0.0298036593334684),
 .UNSPECIFIED.);
#526=B_SPLINE_CURVE_WITH_KNOTS('',3,(#1171,#1172,#1173,#1174,#1175,#1176,
#1177,#1178,#1179,#1180,#1181),.UNSPECIFIED.,.F.,.F.,(4,1,1,1,1,1,1,1,4),
(0.,0.00372545741668355,0.00745091483336711,0.0111763722500507,0.0149018296667342,
0.0186272870834178,0.0223527445001013,0.0260782019167849,0.0298036593334684),
 .UNSPECIFIED.);
#527=B_SPLINE_CURVE_WITH_KNOTS('',3,(#1185,#1186,#1187,#1188,#1189,#1190,
#1191,#1192,#1193,#1194,#1195),.UNSPECIFIED.,.F.,.F.,(4,1,1,1,1,1,1,1,4),
(0.,0.00372545741668355,0.0074509148333671,0.0111763722500507,0.0149018296667342,
0.0186272870834178,0.0223527445001013,0.0260782019167849,0.0298036593334684),
 .UNSPECIFIED.);
#528=B_SPLINE_CURVE_WITH_KNOTS('',3,(#1199,#1200,#1201,#1202,#1203,#1204,
#1205,#1206,#1207,#1208,#1209),.UNSPECIFIED.,.F.,.F.,(4,1,1,1,1,1,1,1,4),
(0.,0.00372545741668356,0.00745091483336712,0.0111763722500507,0.0149018296667342,
0.0186272870834178,0.0223527445001014,0.0260782019167849,0.0298036593334685),
 .UNSPECIFIED.);
#529=B_SPLINE_CURVE_WITH_KNOTS('',3,(#1213,#1214,#1215,#1216,#1217,#1218,
#1219,#1220,#1221,#1222,#1223),.UNSPECIFIED.,.F.,.F.,(4,1,1,1,1,1,1,1,4),
(0.,0.00372545741668355,0.00745091483336711,0.0111763722500507,0.0149018296667342,
0.0186272870834178,0.0223527445001013,0.0260782019167849,0.0298036593334684),
 .UNSPECIFIED.);
#530=EDGE_LOOP('',(#156,#157,#158,#159));
#531=EDGE_LOOP('',(#160,#161,#162,#163));
#532=EDGE_LOOP('',(#164));
#533=EDGE_LOOP('',(#165));
#534=EDGE_LOOP('',(#166));
#535=EDGE_LOOP('',(#167));
#536=EDGE_LOOP('',(#168));
#537=EDGE_LOOP('',(#169));
#538=EDGE_LOOP('',(#170,#171,#172,#173));
#539=EDGE_LOOP('',(#174,#175,#176,#177));
#540=EDGE_LOOP('',(#178,#179,#180,#181));
#541=EDGE_LOOP('',(#182,#183,#184,#185));
#542=EDGE_LOOP('',(#186,#187,#188,#189));
#543=EDGE_LOOP('',(#190,#191,#192,#193));
#544=EDGE_LOOP('',(#194,#195,#196,#197));
#545=EDGE_LOOP('',(#198,#199,#200,#201));
#546=EDGE_LOOP('',(#202));
#547=EDGE_LOOP('',(#203));
#548=EDGE_LOOP('',(#204));
#549=EDGE_LOOP('',(#205,#206,#207,#208));
#550=EDGE_LOOP('',(#209,#210,#211,#212));
#551=EDGE_LOOP('',(#213,#214,#215,#216));
#552=EDGE_LOOP('',(#217,#218,#219,#220));
#553=EDGE_LOOP('',(#221));
#554=EDGE_LOOP('',(#222));
#555=EDGE_LOOP('',(#223));
#556=EDGE_LOOP('',(#224,#225,#226,#227));
#557=EDGE_LOOP('',(#228,#229,#230,#231));
#558=EDGE_LOOP('',(#232,#233,#234,#235,#236,#237,#238,#239,#240,#241,#242,
#243));
#559=EDGE_LOOP('',(#244,#245,#246,#247));
#560=EDGE_LOOP('',(#248,#249,#250,#251,#252,#253,#254,#255,#256,#257,#258,
#259));
#561=EDGE_LOOP('',(#260,#261,#262,#263));
#562=EDGE_LOOP('',(#264));
#563=EDGE_LOOP('',(#265));
#564=EDGE_LOOP('',(#266));
#565=EDGE_LOOP('',(#267));
#566=EDGE_LOOP('',(#268));
#567=EDGE_LOOP('',(#269));
#568=EDGE_LOOP('',(#270));
#569=EDGE_LOOP('',(#271));
#570=EDGE_LOOP('',(#272));
#571=EDGE_LOOP('',(#273));
#572=EDGE_LOOP('',(#274));
#573=EDGE_LOOP('',(#275));
#574=EDGE_LOOP('',(#276,#277,#278,#279));
#575=EDGE_LOOP('',(#280,#281,#282,#283));
#576=EDGE_LOOP('',(#284,#285,#286,#287));
#577=EDGE_LOOP('',(#288,#289,#290,#291));
#578=EDGE_LOOP('',(#292,#293,#294,#295));
#579=EDGE_LOOP('',(#296,#297,#298,#299));
#580=EDGE_LOOP('',(#300,#301,#302,#303));
#581=EDGE_LOOP('',(#304,#305,#306,#307));
#582=EDGE_LOOP('',(#308,#309,#310,#311));
#583=EDGE_LOOP('',(#312,#313,#314,#315));
#584=EDGE_LOOP('',(#316,#317,#318,#319));
#585=EDGE_LOOP('',(#320,#321,#322,#323));
#586=EDGE_LOOP('',(#324,#325,#326,#327));
#587=EDGE_LOOP('',(#328,#329,#330,#331));
#588=EDGE_LOOP('',(#332,#333,#334,#335));
#589=EDGE_LOOP('',(#336,#337,#338,#339));
#590=EDGE_LOOP('',(#340,#341,#342,#343));
#591=EDGE_LOOP('',(#344,#345,#346,#347));
#592=FACE_BOUND('',#530,.T.);
#593=FACE_BOUND('',#531,.T.);
#594=FACE_BOUND('',#532,.T.);
#595=FACE_BOUND('',#533,.T.);
#596=FACE_BOUND('',#534,.T.);
#597=FACE_BOUND('',#535,.T.);
#598=FACE_BOUND('',#536,.T.);
#599=FACE_BOUND('',#537,.T.);
#600=FACE_BOUND('',#538,.T.);
#601=FACE_BOUND('',#539,.T.);
#602=FACE_BOUND('',#540,.T.);
#603=FACE_BOUND('',#541,.T.);
#604=FACE_BOUND('',#542,.T.);
#605=FACE_BOUND('',#543,.T.);
#606=FACE_BOUND('',#544,.T.);
#607=FACE_BOUND('',#545,.T.);
#608=FACE_BOUND('',#546,.T.);
#609=FACE_BOUND('',#547,.T.);
#610=FACE_BOUND('',#548,.T.);
#611=FACE_BOUND('',#549,.T.);
#612=FACE_BOUND('',#550,.T.);
#613=FACE_BOUND('',#551,.T.);
#614=FACE_BOUND('',#552,.T.);
#615=FACE_BOUND('',#553,.T.);
#616=FACE_BOUND('',#554,.T.);
#617=FACE_BOUND('',#555,.T.);
#618=FACE_BOUND('',#556,.T.);
#619=FACE_BOUND('',#557,.T.);
#620=FACE_BOUND('',#558,.T.);
#621=FACE_BOUND('',#559,.T.);
#622=FACE_BOUND('',#560,.T.);
#623=FACE_BOUND('',#561,.T.);
#624=FACE_BOUND('',#562,.T.);
#625=FACE_BOUND('',#563,.T.);
#626=FACE_BOUND('',#564,.T.);
#627=FACE_BOUND('',#565,.T.);
#628=FACE_BOUND('',#566,.T.);
#629=FACE_BOUND('',#567,.T.);
#630=FACE_BOUND('',#568,.T.);
#631=FACE_BOUND('',#569,.T.);
#632=FACE_BOUND('',#570,.T.);
#633=FACE_BOUND('',#571,.T.);
#634=FACE_BOUND('',#572,.T.);
#635=FACE_BOUND('',#573,.T.);
#636=FACE_BOUND('',#574,.T.);
#637=FACE_BOUND('',#575,.T.);
#638=FACE_BOUND('',#576,.T.);
#639=FACE_BOUND('',#577,.T.);
#640=FACE_BOUND('',#578,.T.);
#641=FACE_BOUND('',#579,.T.);
#642=FACE_BOUND('',#580,.T.);
#643=FACE_BOUND('',#581,.T.);
#644=FACE_BOUND('',#582,.T.);
#645=FACE_BOUND('',#583,.T.);
#646=FACE_BOUND('',#584,.T.);
#647=FACE_BOUND('',#585,.T.);
#648=FACE_BOUND('',#586,.T.);
#649=FACE_BOUND('',#587,.T.);
#650=FACE_BOUND('',#588,.T.);
#651=FACE_BOUND('',#589,.T.);
#652=FACE_BOUND('',#590,.T.);
#653=FACE_BOUND('',#591,.T.);
#654=CYLINDRICAL_SURFACE('',#725,0.073024999999957);
#655=CYLINDRICAL_SURFACE('',#728,0.073787);
#656=CYLINDRICAL_SURFACE('',#731,0.2286);
#657=CYLINDRICAL_SURFACE('',#740,0.226187);
#658=CYLINDRICAL_SURFACE('',#763,0.0022479);
#659=CYLINDRICAL_SURFACE('',#764,0.0022479);
#660=CYLINDRICAL_SURFACE('',#765,0.0022479);
#661=CYLINDRICAL_SURFACE('',#766,0.0022479);
#662=CYLINDRICAL_SURFACE('',#767,0.0022479);
#663=CYLINDRICAL_SURFACE('',#768,0.0022479);
#664=CYLINDRICAL_SURFACE('',#769,0.00508);
#665=CYLINDRICAL_SURFACE('',#770,0.00508);
#666=CYLINDRICAL_SURFACE('',#771,0.00508);
#667=CYLINDRICAL_SURFACE('',#772,0.00508);
#668=CYLINDRICAL_SURFACE('',#773,0.00508);
#669=CYLINDRICAL_SURFACE('',#774,0.00508);
#670=CYLINDRICAL_SURFACE('',#775,0.009525);
#671=CYLINDRICAL_SURFACE('',#777,0.009525);
#672=CYLINDRICAL_SURFACE('',#779,0.009525);
#673=CYLINDRICAL_SURFACE('',#781,0.009525);
#674=CYLINDRICAL_SURFACE('',#783,0.009525);
#675=CYLINDRICAL_SURFACE('',#785,0.009525);
#676=ADVANCED_FACE('',(#592,#593,#594,#595,#596,#597,#598,#599,#600,#601),
#654,.F.);
#677=ADVANCED_FACE('',(#602,#603,#604,#605),#655,.T.);
#678=ADVANCED_FACE('',(#606),#656,.T.);
#679=ADVANCED_FACE('',(#607),#12,.F.);
#680=ADVANCED_FACE('',(#608,#609,#610,#611),#13,.T.);
#681=ADVANCED_FACE('',(#612),#14,.F.);
#682=ADVANCED_FACE('',(#613),#657,.F.);
#683=ADVANCED_FACE('',(#614),#15,.T.);
#684=ADVANCED_FACE('',(#615,#616,#617,#618),#16,.T.);
#685=ADVANCED_FACE('',(#619),#17,.T.);
#686=ADVANCED_FACE('',(#620,#621),#18,.T.);
#687=ADVANCED_FACE('',(#622,#623),#19,.F.);
#688=ADVANCED_FACE('',(#624,#625),#658,.F.);
#689=ADVANCED_FACE('',(#626,#627),#659,.F.);
#690=ADVANCED_FACE('',(#628,#629),#660,.F.);
#691=ADVANCED_FACE('',(#630,#631),#661,.F.);
#692=ADVANCED_FACE('',(#632,#633),#662,.F.);
#693=ADVANCED_FACE('',(#634,#635),#663,.F.);
#694=ADVANCED_FACE('',(#636),#664,.F.);
#695=ADVANCED_FACE('',(#637),#665,.F.);
#696=ADVANCED_FACE('',(#638),#666,.F.);
#697=ADVANCED_FACE('',(#639),#667,.F.);
#698=ADVANCED_FACE('',(#640),#668,.T.);
#699=ADVANCED_FACE('',(#641),#669,.T.);
#700=ADVANCED_FACE('',(#642),#670,.F.);
#701=ADVANCED_FACE('',(#643),#20,.T.);
#702=ADVANCED_FACE('',(#644),#671,.F.);
#703=ADVANCED_FACE('',(#645),#21,.F.);
#704=ADVANCED_FACE('',(#646),#672,.F.);
#705=ADVANCED_FACE('',(#647),#22,.T.);
#706=ADVANCED_FACE('',(#648),#673,.F.);
#707=ADVANCED_FACE('',(#649),#23,.F.);
#708=ADVANCED_FACE('',(#650),#674,.F.);
#709=ADVANCED_FACE('',(#651),#24,.T.);
#710=ADVANCED_FACE('',(#652),#675,.F.);
#711=ADVANCED_FACE('',(#653),#25,.F.);
#712=CLOSED_SHELL('',(#676,#677,#678,#679,#680,#681,#682,#683,#684,#685,
#686,#687,#688,#689,#690,#691,#692,#693,#694,#695,#696,#697,#698,#699,#700,
#701,#702,#703,#704,#705,#706,#707,#708,#709,#710,#711));
#713=STYLED_ITEM('',(#714),#721);
#714=PRESENTATION_STYLE_ASSIGNMENT((#715));
#715=SURFACE_STYLE_USAGE(.BOTH.,#716);
#716=SURFACE_SIDE_STYLE('',(#717));
#717=SURFACE_STYLE_FILL_AREA(#718);
#718=FILL_AREA_STYLE('',(#719));
#719=FILL_AREA_STYLE_COLOUR('',#720);
#720=COLOUR_RGB('',0.647058823529412,0.647058823529412,0.647058823529412);
#721=MANIFOLD_SOLID_BREP('Wedge',#712);
#722=SHAPE_DEFINITION_REPRESENTATION(#1352,#723);
#723=SHAPE_REPRESENTATION('Wedge',(#724),#1347);
#724=AXIS2_PLACEMENT_3D('',#965,#787,#788);
#725=AXIS2_PLACEMENT_3D('',#966,#789,#790);
#726=AXIS2_PLACEMENT_3D('',#995,#793,#794);
#727=AXIS2_PLACEMENT_3D('',#1000,#796,#797);
#728=AXIS2_PLACEMENT_3D('',#1131,#803,#804);
#729=AXIS2_PLACEMENT_3D('',#1132,#805,#806);
#730=AXIS2_PLACEMENT_3D('',#1137,#808,#809);
#731=AXIS2_PLACEMENT_3D('',#1224,#817,#818);
#732=AXIS2_PLACEMENT_3D('',#1225,#819,#820);
#733=AXIS2_PLACEMENT_3D('',#1230,#822,#823);
#734=AXIS2_PLACEMENT_3D('',#1233,#825,#826);
#735=AXIS2_PLACEMENT_3D('',#1236,#829,#830);
#736=AXIS2_PLACEMENT_3D('',#1237,#831,#832);
#737=AXIS2_PLACEMENT_3D('',#1239,#833,#834);
#738=AXIS2_PLACEMENT_3D('',#1241,#835,#836);
#739=AXIS2_PLACEMENT_3D('',#1251,#841,#842);
#740=AXIS2_PLACEMENT_3D('',#1260,#847,#848);
#741=AXIS2_PLACEMENT_3D('',#1261,#849,#850);
#742=AXIS2_PLACEMENT_3D('',#1266,#852,#853);
#743=AXIS2_PLACEMENT_3D('',#1269,#855,#856);
#744=AXIS2_PLACEMENT_3D('',#1278,#861,#862);
#745=AXIS2_PLACEMENT_3D('',#1279,#863,#864);
#746=AXIS2_PLACEMENT_3D('',#1281,#865,#866);
#747=AXIS2_PLACEMENT_3D('',#1283,#867,#868);
#748=AXIS2_PLACEMENT_3D('',#1293,#873,#874);
#749=AXIS2_PLACEMENT_3D('',#1296,#877,#878);
#750=AXIS2_PLACEMENT_3D('',#1297,#879,#880);
#751=AXIS2_PLACEMENT_3D('',#1298,#881,#882);
#752=AXIS2_PLACEMENT_3D('',#1299,#883,#884);
#753=AXIS2_PLACEMENT_3D('',#1300,#885,#886);
#754=AXIS2_PLACEMENT_3D('',#1301,#887,#888);
#755=AXIS2_PLACEMENT_3D('',#1302,#889,#890);
#756=AXIS2_PLACEMENT_3D('',#1303,#891,#892);
#757=AXIS2_PLACEMENT_3D('',#1304,#893,#894);
#758=AXIS2_PLACEMENT_3D('',#1305,#895,#896);
#759=AXIS2_PLACEMENT_3D('',#1306,#897,#898);
#760=AXIS2_PLACEMENT_3D('',#1307,#899,#900);
#761=AXIS2_PLACEMENT_3D('',#1308,#901,#902);
#762=AXIS2_PLACEMENT_3D('',#1309,#903,#904);
#763=AXIS2_PLACEMENT_3D('',#1310,#905,#906);
#764=AXIS2_PLACEMENT_3D('',#1311,#907,#908);
#765=AXIS2_PLACEMENT_3D('',#1312,#909,#910);
#766=AXIS2_PLACEMENT_3D('',#1313,#911,#912);
#767=AXIS2_PLACEMENT_3D('',#1314,#913,#914);
#768=AXIS2_PLACEMENT_3D('',#1315,#915,#916);
#769=AXIS2_PLACEMENT_3D('',#1316,#917,#918);
#770=AXIS2_PLACEMENT_3D('',#1317,#919,#920);
#771=AXIS2_PLACEMENT_3D('',#1318,#921,#922);
#772=AXIS2_PLACEMENT_3D('',#1319,#923,#924);
#773=AXIS2_PLACEMENT_3D('',#1320,#925,#926);
#774=AXIS2_PLACEMENT_3D('',#1321,#927,#928);
#775=AXIS2_PLACEMENT_3D('',#1322,#929,#930);
#776=AXIS2_PLACEMENT_3D('',#1325,#933,#934);
#777=AXIS2_PLACEMENT_3D('',#1327,#936,#937);
#778=AXIS2_PLACEMENT_3D('',#1329,#939,#940);
#779=AXIS2_PLACEMENT_3D('',#1330,#941,#942);
#780=AXIS2_PLACEMENT_3D('',#1333,#945,#946);
#781=AXIS2_PLACEMENT_3D('',#1335,#948,#949);
#782=AXIS2_PLACEMENT_3D('',#1337,#951,#952);
#783=AXIS2_PLACEMENT_3D('',#1338,#953,#954);
#784=AXIS2_PLACEMENT_3D('',#1341,#957,#958);
#785=AXIS2_PLACEMENT_3D('',#1343,#960,#961);
#786=AXIS2_PLACEMENT_3D('',#1345,#963,#964);
#787=DIRECTION('',(0.,0.,1.));
#788=DIRECTION('',(1.,0.,0.));
#789=DIRECTION('',(0.,0.,-1.));
#790=DIRECTION('',(-1.,0.,0.));
#791=DIRECTION('',(0.,0.,-1.));
#792=DIRECTION('',(0.,0.,-1.));
#793=DIRECTION('',(0.,0.,-1.));
#794=DIRECTION('',(1.,0.,0.));
#795=DIRECTION('',(0.,0.,-1.));
#796=DIRECTION('',(0.,0.,-1.));
#797=DIRECTION('',(1.,0.,0.));
#798=DIRECTION('',(0.,0.,-1.));
#799=DIRECTION('',(0.,0.,-1.));
#800=DIRECTION('',(0.,0.,-1.));
#801=DIRECTION('',(0.,0.,-1.));
#802=DIRECTION('',(0.,0.,-1.));
#803=DIRECTION('',(0.,0.,-1.));
#804=DIRECTION('',(-1.,0.,0.));
#805=DIRECTION('',(0.,0.,-1.));
#806=DIRECTION('',(1.,0.,0.));
#807=DIRECTION('',(0.,0.,-1.));
#808=DIRECTION('',(0.,0.,-1.));
#809=DIRECTION('',(1.,0.,0.));
#810=DIRECTION('',(0.,0.,-1.));
#811=DIRECTION('',(0.,0.,-1.));
#812=DIRECTION('',(0.,0.,-1.));
#813=DIRECTION('',(0.,0.,-1.));
#814=DIRECTION('',(0.,0.,-1.));
#815=DIRECTION('',(0.,0.,-1.));
#816=DIRECTION('',(0.,0.,-1.));
#817=DIRECTION('',(0.,0.,-1.));
#818=DIRECTION('',(-1.,0.,0.));
#819=DIRECTION('',(0.,0.,-1.));
#820=DIRECTION('',(1.,0.,0.));
#821=DIRECTION('',(0.,0.,-1.));
#822=DIRECTION('',(0.,0.,-1.));
#823=DIRECTION('',(1.,0.,0.));
#824=DIRECTION('',(0.,0.,-1.));
#825=DIRECTION('',(0.866025403784438,0.5,0.));
#826=DIRECTION('',(-0.5,0.866025403784438,0.));
#827=DIRECTION('',(0.5,-0.866025403784438,0.));
#828=DIRECTION('',(0.5,-0.866025403784438,0.));
#829=DIRECTION('',(-0.38268343236509,0.923879532511287,0.));
#830=DIRECTION('',(-0.923879532511287,-0.38268343236509,0.));
#831=DIRECTION('',(-0.38268343236509,0.923879532511287,0.));
#832=DIRECTION('',(-0.923879532511287,-0.38268343236509,0.));
#833=DIRECTION('',(-0.38268343236509,0.923879532511287,0.));
#834=DIRECTION('',(-0.923879532511287,-0.38268343236509,0.));
#835=DIRECTION('',(-0.38268343236509,0.923879532511287,0.));
#836=DIRECTION('',(-0.923879532511287,-0.38268343236509,0.));
#837=DIRECTION('',(0.923879532511287,0.38268343236509,0.));
#838=DIRECTION('',(0.,0.,-1.));
#839=DIRECTION('',(0.923879532511287,0.38268343236509,0.));
#840=DIRECTION('',(0.,0.,-1.));
#841=DIRECTION('',(-0.866025403784439,-0.5,0.));
#842=DIRECTION('',(0.5,-0.866025403784439,0.));
#843=DIRECTION('',(-0.5,0.866025403784439,0.));
#844=DIRECTION('',(0.,0.,-1.));
#845=DIRECTION('',(-0.5,0.866025403784439,0.));
#846=DIRECTION('',(0.,0.,1.));
#847=DIRECTION('',(0.,0.,-1.));
#848=DIRECTION('',(-1.,0.,0.));
#849=DIRECTION('',(0.,0.,-1.));
#850=DIRECTION('',(1.,0.,0.));
#851=DIRECTION('',(0.,0.,-1.));
#852=DIRECTION('',(0.,0.,-1.));
#853=DIRECTION('',(1.,0.,0.));
#854=DIRECTION('',(0.,0.,-1.));
#855=DIRECTION('',(-0.866025403784439,0.5,0.));
#856=DIRECTION('',(-0.5,-0.866025403784439,0.));
#857=DIRECTION('',(0.5,0.866025403784439,0.));
#858=DIRECTION('',(0.,0.,-1.));
#859=DIRECTION('',(0.5,0.866025403784439,0.));
#860=DIRECTION('',(0.,0.,-1.));
#861=DIRECTION('',(0.382683432365091,0.923879532511287,0.));
#862=DIRECTION('',(-0.923879532511287,0.382683432365091,0.));
#863=DIRECTION('',(0.382683432365091,0.923879532511287,0.));
#864=DIRECTION('',(-0.923879532511287,0.382683432365091,0.));
#865=DIRECTION('',(0.382683432365091,0.923879532511287,0.));
#866=DIRECTION('',(-0.923879532511287,0.382683432365091,0.));
#867=DIRECTION('',(0.382683432365091,0.923879532511287,0.));
#868=DIRECTION('',(-0.923879532511287,0.382683432365091,0.));
#869=DIRECTION('',(0.923879532511287,-0.382683432365091,0.));
#870=DIRECTION('',(0.,0.,-1.));
#871=DIRECTION('',(0.923879532511287,-0.382683432365091,0.));
#872=DIRECTION('',(0.,0.,-1.));
#873=DIRECTION('',(0.866025403784439,-0.5,0.));
#874=DIRECTION('',(0.5,0.866025403784439,0.));
#875=DIRECTION('',(-0.5,-0.866025403784439,0.));
#876=DIRECTION('',(-0.5,-0.866025403784439,0.));
#877=DIRECTION('',(0.,0.,1.));
#878=DIRECTION('',(1.,0.,0.));
#879=DIRECTION('',(0.,0.,1.));
#880=DIRECTION('',(1.,0.,0.));
#881=DIRECTION('',(0.,0.,1.));
#882=DIRECTION('',(1.,0.,0.));
#883=DIRECTION('',(0.,0.,1.));
#884=DIRECTION('',(1.,0.,0.));
#885=DIRECTION('',(0.,0.,1.));
#886=DIRECTION('',(1.,0.,0.));
#887=DIRECTION('',(0.,0.,1.));
#888=DIRECTION('',(1.,0.,0.));
#889=DIRECTION('',(0.,0.,1.));
#890=DIRECTION('',(1.,0.,0.));
#891=DIRECTION('',(0.,0.,1.));
#892=DIRECTION('',(1.,0.,0.));
#893=DIRECTION('',(0.,0.,1.));
#894=DIRECTION('',(1.,0.,0.));
#895=DIRECTION('',(0.,0.,1.));
#896=DIRECTION('',(1.,0.,0.));
#897=DIRECTION('',(0.,0.,1.));
#898=DIRECTION('',(1.,0.,0.));
#899=DIRECTION('',(0.,0.,1.));
#900=DIRECTION('',(1.,0.,0.));
#901=DIRECTION('',(0.,0.,1.));
#902=DIRECTION('',(1.,0.,0.));
#903=DIRECTION('',(0.,0.,1.));
#904=DIRECTION('',(1.,0.,0.));
#905=DIRECTION('',(-0.38268343236509,0.923879532511287,0.));
#906=DIRECTION('',(-0.923879532511287,-0.38268343236509,0.));
#907=DIRECTION('',(-0.38268343236509,0.923879532511287,0.));
#908=DIRECTION('',(-0.923879532511287,-0.38268343236509,0.));
#909=DIRECTION('',(-0.38268343236509,0.923879532511287,0.));
#910=DIRECTION('',(-0.923879532511287,-0.38268343236509,0.));
#911=DIRECTION('',(0.382683432365091,0.923879532511287,0.));
#912=DIRECTION('',(-0.923879532511287,0.382683432365091,0.));
#913=DIRECTION('',(0.382683432365091,0.923879532511287,0.));
#914=DIRECTION('',(-0.923879532511287,0.382683432365091,0.));
#915=DIRECTION('',(0.382683432365091,0.923879532511287,0.));
#916=DIRECTION('',(-0.923879532511287,0.382683432365091,0.));
#917=DIRECTION('',(0.,0.,-1.));
#918=DIRECTION('',(-1.,0.,0.));
#919=DIRECTION('',(0.,0.,1.));
#920=DIRECTION('',(1.,0.,0.));
#921=DIRECTION('',(0.,0.,-1.));
#922=DIRECTION('',(-1.,0.,0.));
#923=DIRECTION('',(0.,0.,-1.));
#924=DIRECTION('',(-1.,0.,0.));
#925=DIRECTION('',(0.,0.,-1.));
#926=DIRECTION('',(-1.,0.,0.));
#927=DIRECTION('',(0.,0.,-1.));
#928=DIRECTION('',(-1.,0.,0.));
#929=DIRECTION('',(0.,-1.,0.));
#930=DIRECTION('',(0.,0.,-1.));
#931=DIRECTION('',(0.,-1.,0.));
#932=DIRECTION('',(0.,-1.,0.));
#933=DIRECTION('',(1.,0.,0.));
#934=DIRECTION('',(0.,0.,-1.));
#935=DIRECTION('',(0.,-1.,0.));
#936=DIRECTION('',(0.,-1.,0.));
#937=DIRECTION('',(0.,0.,-1.));
#938=DIRECTION('',(0.,-1.,0.));
#939=DIRECTION('',(1.,0.,0.));
#940=DIRECTION('',(0.,0.,-1.));
#941=DIRECTION('',(0.,-1.,0.));
#942=DIRECTION('',(0.,0.,-1.));
#943=DIRECTION('',(0.,-1.,0.));
#944=DIRECTION('',(0.,-1.,0.));
#945=DIRECTION('',(1.,0.,0.));
#946=DIRECTION('',(0.,0.,-1.));
#947=DIRECTION('',(0.,-1.,0.));
#948=DIRECTION('',(0.,-1.,0.));
#949=DIRECTION('',(0.,0.,-1.));
#950=DIRECTION('',(0.,-1.,0.));
#951=DIRECTION('',(1.,0.,0.));
#952=DIRECTION('',(0.,0.,-1.));
#953=DIRECTION('',(0.,-1.,0.));
#954=DIRECTION('',(0.,0.,-1.));
#955=DIRECTION('',(0.,-1.,0.));
#956=DIRECTION('',(0.,-1.,0.));
#957=DIRECTION('',(1.,0.,0.));
#958=DIRECTION('',(0.,0.,-1.));
#959=DIRECTION('',(0.,-1.,0.));
#960=DIRECTION('',(0.,-1.,0.));
#961=DIRECTION('',(0.,0.,-1.));
#962=DIRECTION('',(0.,-1.,0.));
#963=DIRECTION('',(1.,0.,0.));
#964=DIRECTION('',(0.,0.,-1.));
#965=CARTESIAN_POINT('',(0.,0.,0.));
#966=CARTESIAN_POINT('',(-2.12677098154757E-14,3.73798214603483E-14,0.1397));
#967=CARTESIAN_POINT('',(-0.009525,0.0724011394937921,0.015875));
#968=CARTESIAN_POINT('',(-0.009525,0.0724011394937921,0.0146151683409252));
#969=CARTESIAN_POINT('',(-0.00902659040718891,0.0724693024650267,0.012134182399473));
#970=CARTESIAN_POINT('',(-0.00690933262311276,0.0727139474334363,0.00896356747011977));
#971=CARTESIAN_POINT('',(-0.00374646640109293,0.072957411573938,0.00684962994564917));
#972=CARTESIAN_POINT('',(-7.55076180039879E-6,0.0730586138597227,0.00610162582811883));
#973=CARTESIAN_POINT('',(0.0037347847797518,0.0729581309851685,0.00684388209030676));
#974=CARTESIAN_POINT('',(0.00690627061944654,0.0727143128229708,0.00895968064025554));
#975=CARTESIAN_POINT('',(0.00902544214190948,0.0724694435932394,0.0121304161747652));
#976=CARTESIAN_POINT('',(0.009525,0.0724011394937865,0.0146151704720256));
#977=CARTESIAN_POINT('',(0.009525,0.0724011394937865,0.015875));
#978=CARTESIAN_POINT('',(-0.009525,0.0724011394937921,0.015875));
#979=CARTESIAN_POINT('',(0.009525,0.0724011394937865,0.015875));
#980=CARTESIAN_POINT('',(-0.009525,0.0724011394937921,0.1397));
#981=CARTESIAN_POINT('',(-0.009525,0.0724011394937921,0.034925));
#982=CARTESIAN_POINT('',(0.009525,0.0724011394937865,0.034925));
#983=CARTESIAN_POINT('',(0.009525,0.0724011394937865,0.0361848316590748));
#984=CARTESIAN_POINT('',(0.00902659040718891,0.0724693024650214,0.038665817600527));
#985=CARTESIAN_POINT('',(0.00690933262311282,0.0727139474334323,0.0418364325298801));
#986=CARTESIAN_POINT('',(0.00374646640109312,0.0729574115739358,0.0439503700543508));
#987=CARTESIAN_POINT('',(7.55076180067995E-6,0.0730586138597227,0.0446983741718811));
#988=CARTESIAN_POINT('',(-0.0037347847797516,0.0729581309851707,0.0439561179096934));
#989=CARTESIAN_POINT('',(-0.00690627061944649,0.0727143128229748,0.0418403193597445));
#990=CARTESIAN_POINT('',(-0.00902544214190948,0.0724694435932447,0.0386695838252349));
#991=CARTESIAN_POINT('',(-0.009525,0.0724011394937921,0.0361848295279744));
#992=CARTESIAN_POINT('',(-0.009525,0.0724011394937921,0.034925));
#993=CARTESIAN_POINT('',(0.009525,0.0724011394937865,0.034925));
#994=CARTESIAN_POINT('',(0.009525,0.0724011394937865,0.1397));
#995=CARTESIAN_POINT('',(-2.12677098154757E-14,3.73798214603483E-14,0.));
#996=CARTESIAN_POINT('',(-0.0365125,0.0632415051113586,0.));
#997=CARTESIAN_POINT('',(0.0365125,0.0632415051113586,0.));
#998=CARTESIAN_POINT('',(0.0365125,0.0632415051113586,0.1397));
#999=CARTESIAN_POINT('',(0.0365125,0.0632415051113586,0.1397));
#1000=CARTESIAN_POINT('',(-2.12677098154757E-14,3.73798214603483E-14,0.1397));
#1001=CARTESIAN_POINT('',(-0.0365125,0.0632415051113586,0.1397));
#1002=CARTESIAN_POINT('',(-0.0365125,0.0632415051113586,0.1397));
#1003=CARTESIAN_POINT('',(-0.0288250986314733,0.0670994976438173,0.0236363760580813));
#1004=CARTESIAN_POINT('',(-0.0294941675522345,0.0668029542546362,0.0254004546642469));
#1005=CARTESIAN_POINT('',(-0.0288256193015549,0.0670992520077622,0.0271618052849311));
#1006=CARTESIAN_POINT('',(-0.0272028231352107,0.0677784559258797,0.0278907400686496));
#1007=CARTESIAN_POINT('',(-0.025557393235866,0.0684108799160536,0.0271626332564431));
#1008=CARTESIAN_POINT('',(-0.024869813108106,0.068658810036441,0.0254003431886531));
#1009=CARTESIAN_POINT('',(-0.0255551385645034,0.0684116991877146,0.0236408141729617));
#1010=CARTESIAN_POINT('',(-0.0271986720642329,0.0677801340177868,0.0229088545917389));
#1011=CARTESIAN_POINT('',(-0.0288250986314733,0.0670994976438173,0.0236363760580813));
#1012=CARTESIAN_POINT('',(-0.0294941675522345,0.0668029542546362,0.0254004546642469));
#1013=CARTESIAN_POINT('',(-0.0288256193015549,0.0670992520077622,0.0271618052849311));
#1014=CARTESIAN_POINT('',(-0.0292712313569943,0.0669017611116874,0.0254));
#1015=CARTESIAN_POINT('',(-0.0288250986314733,0.0670994976438173,0.0680863760580813));
#1016=CARTESIAN_POINT('',(-0.0294941675522345,0.0668029542546363,0.0698504546642469));
#1017=CARTESIAN_POINT('',(-0.0288256193015549,0.0670992520077622,0.0716118052849311));
#1018=CARTESIAN_POINT('',(-0.0272028231352107,0.0677784559258797,0.0723407400686496));
#1019=CARTESIAN_POINT('',(-0.025557393235866,0.0684108799160536,0.0716126332564431));
#1020=CARTESIAN_POINT('',(-0.024869813108106,0.068658810036441,0.069850343188653));
#1021=CARTESIAN_POINT('',(-0.0255551385645034,0.0684116991877146,0.0680908141729617));
#1022=CARTESIAN_POINT('',(-0.0271986720642329,0.0677801340177868,0.0673588545917389));
#1023=CARTESIAN_POINT('',(-0.0288250986314733,0.0670994976438173,0.0680863760580813));
#1024=CARTESIAN_POINT('',(-0.0294941675522345,0.0668029542546363,0.0698504546642469));
#1025=CARTESIAN_POINT('',(-0.0288256193015549,0.0670992520077622,0.0716118052849311));
#1026=CARTESIAN_POINT('',(-0.0292712313569943,0.0669017611116874,0.06985));
#1027=CARTESIAN_POINT('',(-0.0288250986314732,0.0670994976438173,0.112536376058081));
#1028=CARTESIAN_POINT('',(-0.0294941675522345,0.0668029542546363,0.114300454664247));
#1029=CARTESIAN_POINT('',(-0.0288256193015549,0.0670992520077622,0.116061805284931));
#1030=CARTESIAN_POINT('',(-0.0272028231352107,0.0677784559258797,0.11679074006865));
#1031=CARTESIAN_POINT('',(-0.025557393235866,0.0684108799160536,0.116062633256443));
#1032=CARTESIAN_POINT('',(-0.024869813108106,0.068658810036441,0.114300343188653));
#1033=CARTESIAN_POINT('',(-0.0255551385645034,0.0684116991877146,0.112540814172962));
#1034=CARTESIAN_POINT('',(-0.0271986720642329,0.0677801340177868,0.111808854591739));
#1035=CARTESIAN_POINT('',(-0.0288250986314732,0.0670994976438173,0.112536376058081));
#1036=CARTESIAN_POINT('',(-0.0294941675522345,0.0668029542546363,0.114300454664247));
#1037=CARTESIAN_POINT('',(-0.0288256193015549,0.0670992520077622,0.116061805284931));
#1038=CARTESIAN_POINT('',(-0.0292712313569943,0.0669017611116874,0.1143));
#1039=CARTESIAN_POINT('',(0.0255580380712725,0.0684106396454501,0.023636582905088));
#1040=CARTESIAN_POINT('',(0.0248690598174006,0.068659090737283,0.0254004481676875));
#1041=CARTESIAN_POINT('',(0.0255575060823193,0.0684108169511668,0.0271616244241621));
#1042=CARTESIAN_POINT('',(0.0271994381310255,0.0677798143488447,0.0278907354362909));
#1043=CARTESIAN_POINT('',(0.0288257376104217,0.0670992224012334,0.0271628310322688));
#1044=CARTESIAN_POINT('',(0.0294934282808418,0.0668032725770532,0.0254003229688073));
#1045=CARTESIAN_POINT('',(0.0288279366408669,0.0670982542962838,0.0236406296579906));
#1046=CARTESIAN_POINT('',(0.0272035808712229,0.0677781640895479,0.0229088482181308));
#1047=CARTESIAN_POINT('',(0.0255580380712725,0.0684106396454501,0.023636582905088));
#1048=CARTESIAN_POINT('',(0.0248690598174006,0.068659090737283,0.0254004481676875));
#1049=CARTESIAN_POINT('',(0.0255575060823193,0.0684108169511668,0.0271616244241621));
#1050=CARTESIAN_POINT('',(0.0250986305705324,0.0685763032576248,0.0254));
#1051=CARTESIAN_POINT('',(0.0255580380712725,0.0684106396454501,0.068086582905088));
#1052=CARTESIAN_POINT('',(0.0248690598174007,0.068659090737283,0.0698504481676875));
#1053=CARTESIAN_POINT('',(0.0255575060823192,0.0684108169511668,0.0716116244241621));
#1054=CARTESIAN_POINT('',(0.0271994381310255,0.0677798143488447,0.0723407354362909));
#1055=CARTESIAN_POINT('',(0.0288257376104217,0.0670992224012334,0.0716128310322687));
#1056=CARTESIAN_POINT('',(0.0294934282808419,0.0668032725770532,0.0698503229688073));
#1057=CARTESIAN_POINT('',(0.0288279366408669,0.0670982542962838,0.0680906296579905));
#1058=CARTESIAN_POINT('',(0.0272035808712229,0.0677781640895479,0.0673588482181308));
#1059=CARTESIAN_POINT('',(0.0255580380712725,0.0684106396454501,0.068086582905088));
#1060=CARTESIAN_POINT('',(0.0248690598174007,0.068659090737283,0.0698504481676875));
#1061=CARTESIAN_POINT('',(0.0255575060823192,0.0684108169511668,0.0716116244241621));
#1062=CARTESIAN_POINT('',(0.0250986305705324,0.0685763032576248,0.06985));
#1063=CARTESIAN_POINT('',(0.0255580380712725,0.0684106396454501,0.112536582905088));
#1064=CARTESIAN_POINT('',(0.0248690598174007,0.0686590907372829,0.114300448167687));
#1065=CARTESIAN_POINT('',(0.0255575060823192,0.0684108169511668,0.116061624424162));
#1066=CARTESIAN_POINT('',(0.0271994381310255,0.0677798143488447,0.116790735436291));
#1067=CARTESIAN_POINT('',(0.0288257376104217,0.0670992224012334,0.116062831032269));
#1068=CARTESIAN_POINT('',(0.0294934282808418,0.0668032725770532,0.114300322968807));
#1069=CARTESIAN_POINT('',(0.0288279366408669,0.0670982542962838,0.112540629657991));
#1070=CARTESIAN_POINT('',(0.0272035808712229,0.0677781640895479,0.111808848218131));
#1071=CARTESIAN_POINT('',(0.0255580380712725,0.0684106396454501,0.112536582905088));
#1072=CARTESIAN_POINT('',(0.0248690598174007,0.0686590907372829,0.114300448167687));
#1073=CARTESIAN_POINT('',(0.0255575060823192,0.0684108169511668,0.116061624424162));
#1074=CARTESIAN_POINT('',(0.0250986305705324,0.0685763032576248,0.1143));
#1075=CARTESIAN_POINT('',(-0.009525,0.0724011394937921,0.0603250014688161));
#1076=CARTESIAN_POINT('',(-0.009525,0.0724011394937921,0.0590651698097414));
#1077=CARTESIAN_POINT('',(-0.00902659040718893,0.0724693024650267,0.0565841838682891));
#1078=CARTESIAN_POINT('',(-0.00690933262311277,0.0727139474334364,0.0534135689389359));
#1079=CARTESIAN_POINT('',(-0.00374646640109294,0.0729574115739379,0.0512996314144653));
#1080=CARTESIAN_POINT('',(-7.550761800415E-6,0.0730586138597227,0.050551627296935));
#1081=CARTESIAN_POINT('',(0.00373478477975179,0.0729581309851685,0.0512938835591229));
#1082=CARTESIAN_POINT('',(0.00690627061944654,0.0727143128229708,0.0534096821090717));
#1083=CARTESIAN_POINT('',(0.00902544214190947,0.0724694435932394,0.0565804176435813));
#1084=CARTESIAN_POINT('',(0.009525,0.0724011394937865,0.0590651719408417));
#1085=CARTESIAN_POINT('',(0.009525,0.0724011394937865,0.0603250014688161));
#1086=CARTESIAN_POINT('',(-0.009525,0.0724011394937921,0.0603250014688161));
#1087=CARTESIAN_POINT('',(0.009525,0.0724011394937865,0.0603250014688161));
#1088=CARTESIAN_POINT('',(-0.009525,0.0724011394937921,0.1397));
#1089=CARTESIAN_POINT('',(-0.009525,0.0724011394937921,0.0793750014688161));
#1090=CARTESIAN_POINT('',(0.009525,0.0724011394937865,0.0793750014688161));
#1091=CARTESIAN_POINT('',(0.009525,0.0724011394937865,0.0806348331278909));
#1092=CARTESIAN_POINT('',(0.00902659040718888,0.0724693024650214,0.0831158190693431));
#1093=CARTESIAN_POINT('',(0.00690933262311281,0.0727139474334323,0.0862864339986963));
#1094=CARTESIAN_POINT('',(0.00374646640109311,0.0729574115739358,0.0884003715231669));
#1095=CARTESIAN_POINT('',(7.55076180065171E-6,0.0730586138597227,0.0891483756406973));
#1096=CARTESIAN_POINT('',(-0.00373478477975162,0.0729581309851707,0.0884061193785095));
#1097=CARTESIAN_POINT('',(-0.0069062706194465,0.0727143128229748,0.0862903208285607));
#1098=CARTESIAN_POINT('',(-0.0090254421419095,0.0724694435932447,0.083119585294051));
#1099=CARTESIAN_POINT('',(-0.009525,0.0724011394937921,0.0806348309967906));
#1100=CARTESIAN_POINT('',(-0.009525,0.0724011394937921,0.0793750014688161));
#1101=CARTESIAN_POINT('',(0.009525,0.0724011394937865,0.0793750014688161));
#1102=CARTESIAN_POINT('',(0.009525,0.0724011394937865,0.1397));
#1103=CARTESIAN_POINT('',(-0.009525,0.0724011394937921,0.104775));
#1104=CARTESIAN_POINT('',(-0.009525,0.0724011394937921,0.103515168340925));
#1105=CARTESIAN_POINT('',(-0.00902659040718889,0.0724693024650267,0.101034182399473));
#1106=CARTESIAN_POINT('',(-0.00690933262311274,0.0727139474334363,0.0978635674701198));
#1107=CARTESIAN_POINT('',(-0.00374646640109293,0.0729574115739379,0.0957496299456492));
#1108=CARTESIAN_POINT('',(-7.55076180039757E-6,0.0730586138597227,0.0950016258281188));
#1109=CARTESIAN_POINT('',(0.00373478477975182,0.0729581309851685,0.0957438820903068));
#1110=CARTESIAN_POINT('',(0.00690627061944653,0.0727143128229708,0.0978596806402555));
#1111=CARTESIAN_POINT('',(0.0090254421419095,0.0724694435932394,0.101030416174765));
#1112=CARTESIAN_POINT('',(0.009525,0.0724011394937865,0.103515170472026));
#1113=CARTESIAN_POINT('',(0.009525,0.0724011394937865,0.104775));
#1114=CARTESIAN_POINT('',(-0.009525,0.0724011394937921,0.104775));
#1115=CARTESIAN_POINT('',(0.009525,0.0724011394937865,0.104775));
#1116=CARTESIAN_POINT('',(-0.009525,0.0724011394937921,0.1397));
#1117=CARTESIAN_POINT('',(-0.009525,0.0724011394937921,0.123825));
#1118=CARTESIAN_POINT('',(0.009525,0.0724011394937865,0.123825));
#1119=CARTESIAN_POINT('',(0.009525,0.0724011394937865,0.125084831659075));
#1120=CARTESIAN_POINT('',(0.00902659040718891,0.0724693024650214,0.127565817600527));
#1121=CARTESIAN_POINT('',(0.00690933262311283,0.0727139474334323,0.13073643252988));
#1122=CARTESIAN_POINT('',(0.00374646640109311,0.0729574115739357,0.132850370054351));
#1123=CARTESIAN_POINT('',(7.55076180070122E-6,0.0730586138597227,0.133598374171881));
#1124=CARTESIAN_POINT('',(-0.00373478477975158,0.0729581309851707,0.132856117909693));
#1125=CARTESIAN_POINT('',(-0.00690627061944651,0.0727143128229748,0.130740319359745));
#1126=CARTESIAN_POINT('',(-0.00902544214190946,0.0724694435932447,0.127569583825235));
#1127=CARTESIAN_POINT('',(-0.009525,0.0724011394937921,0.125084829527974));
#1128=CARTESIAN_POINT('',(-0.009525,0.0724011394937921,0.123825));
#1129=CARTESIAN_POINT('',(0.009525,0.0724011394937865,0.123825));
#1130=CARTESIAN_POINT('',(0.009525,0.0724011394937865,0.1397));
#1131=CARTESIAN_POINT('',(1.21430643318376E-17,1.11022302462516E-16,0.1397));
#1132=CARTESIAN_POINT('',(1.21430643318376E-17,1.11022302462516E-16,0.));
#1133=CARTESIAN_POINT('',(-0.0198714691148648,0.0710608618313694,0.));
#1134=CARTESIAN_POINT('',(0.0198714691148648,0.0710608618313694,0.));
#1135=CARTESIAN_POINT('',(-0.0198714691148648,0.0710608618313694,0.06985));
#1136=CARTESIAN_POINT('',(-0.0198714691148648,0.0710608618313694,0.1397));
#1137=CARTESIAN_POINT('',(1.21430643318376E-17,1.11022302462516E-16,0.1397));
#1138=CARTESIAN_POINT('',(0.0198714691148648,0.0710608618313694,0.1397));
#1139=CARTESIAN_POINT('',(0.0198714691148648,0.0710608618313695,0.06985));
#1140=CARTESIAN_POINT('',(-0.009525,0.0731696367627994,0.1397));
#1141=CARTESIAN_POINT('',(-0.009525,0.0731696367627994,0.0793750014688161));
#1142=CARTESIAN_POINT('',(-0.009525,0.0731696367627994,0.0603250014688161));
#1143=CARTESIAN_POINT('',(-0.009525,0.0731696367627994,0.0603250014688161));
#1144=CARTESIAN_POINT('',(-0.009525,0.0731696367627994,0.0590651990522172));
#1145=CARTESIAN_POINT('',(-0.00902662131852668,0.0732370787948539,0.0565842566372784));
#1146=CARTESIAN_POINT('',(-0.00690934404430753,0.0734791697499456,0.0534135587861919));
#1147=CARTESIAN_POINT('',(-0.00374638793193056,0.0737201130954249,0.0512995973834775));
#1148=CARTESIAN_POINT('',(-7.53573110268855E-6,0.0738202652199295,0.0505516418394083));
#1149=CARTESIAN_POINT('',(0.00373471384879786,0.0737208240499594,0.0512938593706689));
#1150=CARTESIAN_POINT('',(0.0069062593538786,0.0734795334930018,0.053409648560406));
#1151=CARTESIAN_POINT('',(0.00902547990585205,0.07323721777724,0.056580497897526));
#1152=CARTESIAN_POINT('',(0.009525,0.0731696367627994,0.0590652012237252));
#1153=CARTESIAN_POINT('',(0.009525,0.0731696367627994,0.0603250014688161));
#1154=CARTESIAN_POINT('',(0.009525,0.0731696367627994,0.0603250014688161));
#1155=CARTESIAN_POINT('',(0.009525,0.0731696367627994,0.1397));
#1156=CARTESIAN_POINT('',(0.009525,0.0731696367627994,0.0793750014688161));
#1157=CARTESIAN_POINT('',(0.009525,0.0731696367627994,0.0793750014688161));
#1158=CARTESIAN_POINT('',(0.009525,0.0731696367627994,0.080634803885415));
#1159=CARTESIAN_POINT('',(0.00902662131852665,0.073237078794854,0.0831157463003538));
#1160=CARTESIAN_POINT('',(0.00690934404430751,0.0734791697499456,0.0862864441514404));
#1161=CARTESIAN_POINT('',(0.00374638793193052,0.0737201130954249,0.0884004055541548));
#1162=CARTESIAN_POINT('',(7.53573110267495E-6,0.0738202652199294,0.0891483610982239));
#1163=CARTESIAN_POINT('',(-0.00373471384879793,0.0737208240499594,0.0884061435669632));
#1164=CARTESIAN_POINT('',(-0.00690625935387861,0.0734795334930018,0.0862903543772262));
#1165=CARTESIAN_POINT('',(-0.0090254799058521,0.07323721777724,0.0831195050401062));
#1166=CARTESIAN_POINT('',(-0.009525,0.0731696367627994,0.0806348017139071));
#1167=CARTESIAN_POINT('',(-0.009525,0.0731696367627994,0.0793750014688161));
#1168=CARTESIAN_POINT('',(-0.009525,0.0731696367627994,0.1397));
#1169=CARTESIAN_POINT('',(-0.009525,0.0731696367627994,0.034925));
#1170=CARTESIAN_POINT('',(-0.009525,0.0731696367627994,0.015875));
#1171=CARTESIAN_POINT('',(-0.009525,0.0731696367627994,0.015875));
#1172=CARTESIAN_POINT('',(-0.009525,0.0731696367627994,0.0146151975834011));
#1173=CARTESIAN_POINT('',(-0.00902662131852665,0.0732370787948539,0.0121342551684623));
#1174=CARTESIAN_POINT('',(-0.00690934404430752,0.0734791697499456,0.00896355731737576));
#1175=CARTESIAN_POINT('',(-0.00374638793193053,0.0737201130954249,0.00684959591466136));
#1176=CARTESIAN_POINT('',(-7.53573110268262E-6,0.0738202652199295,0.00610164037059225));
#1177=CARTESIAN_POINT('',(0.00373471384879791,0.0737208240499594,0.00684385790185287));
#1178=CARTESIAN_POINT('',(0.0069062593538786,0.0734795334930018,0.00895964709158988));
#1179=CARTESIAN_POINT('',(0.00902547990585209,0.07323721777724,0.01213049642871));
#1180=CARTESIAN_POINT('',(0.009525,0.0731696367627994,0.0146151997549091));
#1181=CARTESIAN_POINT('',(0.009525,0.0731696367627994,0.015875));
#1182=CARTESIAN_POINT('',(0.009525,0.0731696367627994,0.015875));
#1183=CARTESIAN_POINT('',(0.009525,0.0731696367627994,0.1397));
#1184=CARTESIAN_POINT('',(0.009525,0.0731696367627994,0.034925));
#1185=CARTESIAN_POINT('',(0.009525,0.0731696367627994,0.034925));
#1186=CARTESIAN_POINT('',(0.009525,0.0731696367627994,0.0361848024165989));
#1187=CARTESIAN_POINT('',(0.00902662131852667,0.0732370787948539,0.0386657448315377));
#1188=CARTESIAN_POINT('',(0.00690934404430753,0.0734791697499456,0.0418364426826243));
#1189=CARTESIAN_POINT('',(0.00374638793193053,0.0737201130954249,0.0439504040853386));
#1190=CARTESIAN_POINT('',(7.53573110269709E-6,0.0738202652199294,0.0446983596294077));
#1191=CARTESIAN_POINT('',(-0.0037347138487979,0.0737208240499594,0.0439561420981471));
#1192=CARTESIAN_POINT('',(-0.0069062593538786,0.0734795334930018,0.0418403529084101));
#1193=CARTESIAN_POINT('',(-0.00902547990585207,0.07323721777724,0.03866950357129));
#1194=CARTESIAN_POINT('',(-0.009525,0.0731696367627994,0.0361848002450909));
#1195=CARTESIAN_POINT('',(-0.009525,0.0731696367627994,0.034925));
#1196=CARTESIAN_POINT('',(-0.009525,0.0731696367627994,0.1397));
#1197=CARTESIAN_POINT('',(-0.009525,0.0731696367627994,0.123825));
#1198=CARTESIAN_POINT('',(-0.009525,0.0731696367627994,0.104775));
#1199=CARTESIAN_POINT('',(-0.009525,0.0731696367627994,0.104775));
#1200=CARTESIAN_POINT('',(-0.009525,0.0731696367627994,0.103515197583401));
#1201=CARTESIAN_POINT('',(-0.00902662131852665,0.073237078794854,0.101034255168462));
#1202=CARTESIAN_POINT('',(-0.00690934404430751,0.0734791697499456,0.0978635573173758));
#1203=CARTESIAN_POINT('',(-0.0037463879319305,0.0737201130954249,0.0957495959146613));
#1204=CARTESIAN_POINT('',(-7.53573110267356E-6,0.0738202652199295,0.0950016403705922));
#1205=CARTESIAN_POINT('',(0.0037347138487979,0.0737208240499594,0.0957438579018528));
#1206=CARTESIAN_POINT('',(0.00690625935387864,0.0734795334930018,0.0978596470915899));
#1207=CARTESIAN_POINT('',(0.00902547990585208,0.07323721777724,0.10103049642871));
#1208=CARTESIAN_POINT('',(0.009525,0.0731696367627994,0.103515199754909));
#1209=CARTESIAN_POINT('',(0.009525,0.0731696367627994,0.104775));
#1210=CARTESIAN_POINT('',(0.009525,0.0731696367627994,0.104775));
#1211=CARTESIAN_POINT('',(0.009525,0.0731696367627994,0.1397));
#1212=CARTESIAN_POINT('',(0.009525,0.0731696367627994,0.123825));
#1213=CARTESIAN_POINT('',(0.009525,0.0731696367627994,0.123825));
#1214=CARTESIAN_POINT('',(0.009525,0.0731696367627994,0.125084802416599));
#1215=CARTESIAN_POINT('',(0.0090266213185267,0.0732370787948539,0.127565744831538));
#1216=CARTESIAN_POINT('',(0.00690934404430751,0.0734791697499456,0.130736442682624));
#1217=CARTESIAN_POINT('',(0.00374638793193057,0.0737201130954249,0.132850404085339));
#1218=CARTESIAN_POINT('',(7.53573110269901E-6,0.0738202652199295,0.133598359629408));
#1219=CARTESIAN_POINT('',(-0.00373471384879789,0.0737208240499594,0.132856142098147));
#1220=CARTESIAN_POINT('',(-0.0069062593538786,0.0734795334930018,0.13074035290841));
#1221=CARTESIAN_POINT('',(-0.00902547990585206,0.07323721777724,0.12756950357129));
#1222=CARTESIAN_POINT('',(-0.009525,0.0731696367627994,0.125084800245091));
#1223=CARTESIAN_POINT('',(-0.009525,0.0731696367627994,0.123825));
#1224=CARTESIAN_POINT('',(2.08166817117217E-17,1.38777878078145E-17,0.1397));
#1225=CARTESIAN_POINT('',(2.08166817117217E-17,1.38777878078145E-17,0.));
#1226=CARTESIAN_POINT('',(-0.1143,0.197973407305123,0.));
#1227=CARTESIAN_POINT('',(0.1143,0.197973407305123,0.));
#1228=CARTESIAN_POINT('',(-0.1143,0.197973407305123,0.1397));
#1229=CARTESIAN_POINT('',(-0.1143,0.197973407305123,0.1397));
#1230=CARTESIAN_POINT('',(2.08166817117217E-17,1.38777878078145E-17,0.1397));
#1231=CARTESIAN_POINT('',(0.1143,0.197973407305123,0.1397));
#1232=CARTESIAN_POINT('',(0.1143,0.197973407305123,0.1397));
#1233=CARTESIAN_POINT('',(-0.037465,0.064891283505568,0.1397));
#1234=CARTESIAN_POINT('',(-0.037465,0.064891283505568,0.));
#1235=CARTESIAN_POINT('',(-0.037465,0.064891283505568,0.1397));
#1236=CARTESIAN_POINT('',(-0.0284063561579983,0.0706878134540023,0.1397));
#1237=CARTESIAN_POINT('',(-0.0284063561579983,0.0706878134540023,0.1143));
#1238=CARTESIAN_POINT('',(-0.0304831449591305,0.0698275793663888,0.1143));
#1239=CARTESIAN_POINT('',(-0.0284063561579983,0.0706878134540023,0.06985));
#1240=CARTESIAN_POINT('',(-0.0304831449591305,0.0698275793663888,0.06985));
#1241=CARTESIAN_POINT('',(-0.0284063561579983,0.0706878134540023,0.0254));
#1242=CARTESIAN_POINT('',(-0.0304831449591305,0.0698275793663888,0.0254));
#1243=CARTESIAN_POINT('',(-0.0284063561579983,0.0706878134540023,0.1397));
#1244=CARTESIAN_POINT('',(-0.0328104303139065,0.0688635862089283,0.1397));
#1245=CARTESIAN_POINT('',(-0.025238053449008,0.0720001674057695,0.1397));
#1246=CARTESIAN_POINT('',(-0.025238053449008,0.0720001674057695,0.1397));
#1247=CARTESIAN_POINT('',(-0.025238053449008,0.0720001674057695,0.));
#1248=CARTESIAN_POINT('',(-0.0284063561579983,0.0706878134540023,0.));
#1249=CARTESIAN_POINT('',(-0.0328104303139065,0.0688635862089283,0.));
#1250=CARTESIAN_POINT('',(-0.0328104303139065,0.0688635862089283,0.1397));
#1251=CARTESIAN_POINT('',(-0.0743641047571244,0.132002807698714,0.1397));
#1252=CARTESIAN_POINT('',(-0.0743641047571244,0.132002807698714,0.1397));
#1253=CARTESIAN_POINT('',(-0.0391538712015461,0.0710168942340857,0.1397));
#1254=CARTESIAN_POINT('',(-0.109117218207899,0.19219696591666,0.1397));
#1255=CARTESIAN_POINT('',(-0.0391538712015461,0.0710168942340857,0.1397));
#1256=CARTESIAN_POINT('',(-0.0391538712015461,0.0710168942340857,0.));
#1257=CARTESIAN_POINT('',(-0.0743641047571244,0.132002807698714,0.));
#1258=CARTESIAN_POINT('',(-0.109117218207899,0.19219696591666,0.));
#1259=CARTESIAN_POINT('',(-0.109117218207899,0.19219696591666,0.1397));
#1260=CARTESIAN_POINT('',(-1.38777878078145E-17,-2.77555756156289E-17,0.1397));
#1261=CARTESIAN_POINT('',(-1.38777878078145E-17,-2.77555756156289E-17,0.));
#1262=CARTESIAN_POINT('',(-0.107123732399791,0.19921110643169,0.));
#1263=CARTESIAN_POINT('',(0.107123732399791,0.19921110643169,0.));
#1264=CARTESIAN_POINT('',(0.107123732399791,0.19921110643169,0.1397));
#1265=CARTESIAN_POINT('',(0.107123732399791,0.19921110643169,0.1397));
#1266=CARTESIAN_POINT('',(-1.38777878078145E-17,-2.77555756156289E-17,0.1397));
#1267=CARTESIAN_POINT('',(-0.107123732399791,0.19921110643169,0.1397));
#1268=CARTESIAN_POINT('',(-0.107123732399791,0.19921110643169,0.1397));
#1269=CARTESIAN_POINT('',(0.0743641047571244,0.132002807698714,0.1397));
#1270=CARTESIAN_POINT('',(0.0743641047571244,0.132002807698714,0.1397));
#1271=CARTESIAN_POINT('',(0.0391538712015461,0.0710168942340857,0.1397));
#1272=CARTESIAN_POINT('',(0.109117218207899,0.19219696591666,0.1397));
#1273=CARTESIAN_POINT('',(0.109117218207899,0.19219696591666,0.1397));
#1274=CARTESIAN_POINT('',(0.109117218207899,0.19219696591666,0.));
#1275=CARTESIAN_POINT('',(0.0743641047571244,0.132002807698714,0.));
#1276=CARTESIAN_POINT('',(0.0391538712015461,0.0710168942340857,0.));
#1277=CARTESIAN_POINT('',(0.0391538712015461,0.0710168942340857,0.1397));
#1278=CARTESIAN_POINT('',(0.0284063561579983,0.0706878134540023,0.1397));
#1279=CARTESIAN_POINT('',(0.0284063561579983,0.0706878134540024,0.1143));
#1280=CARTESIAN_POINT('',(0.0263295673568662,0.0715480475416159,0.1143));
#1281=CARTESIAN_POINT('',(0.0284063561579983,0.0706878134540024,0.06985));
#1282=CARTESIAN_POINT('',(0.0263295673568662,0.0715480475416159,0.06985));
#1283=CARTESIAN_POINT('',(0.0284063561579983,0.0706878134540024,0.0254));
#1284=CARTESIAN_POINT('',(0.0263295673568662,0.0715480475416159,0.0254));
#1285=CARTESIAN_POINT('',(0.0284063561579983,0.0706878134540023,0.));
#1286=CARTESIAN_POINT('',(0.025238053449008,0.0720001674057695,0.));
#1287=CARTESIAN_POINT('',(0.0328104303139065,0.0688635862089283,0.));
#1288=CARTESIAN_POINT('',(0.025238053449008,0.0720001674057695,0.1397));
#1289=CARTESIAN_POINT('',(0.025238053449008,0.0720001674057695,0.1397));
#1290=CARTESIAN_POINT('',(0.0284063561579983,0.0706878134540023,0.1397));
#1291=CARTESIAN_POINT('',(0.0328104303139065,0.0688635862089283,0.1397));
#1292=CARTESIAN_POINT('',(0.0328104303139065,0.0688635862089283,0.));
#1293=CARTESIAN_POINT('',(0.037465,0.064891283505568,0.1397));
#1294=CARTESIAN_POINT('',(0.037465,0.064891283505568,0.));
#1295=CARTESIAN_POINT('',(0.037465,0.064891283505568,0.1397));
#1296=CARTESIAN_POINT('',(0.,0.1143,0.1397));
#1297=CARTESIAN_POINT('',(0.0232940216125933,0.0673068593806122,0.1397));
#1298=CARTESIAN_POINT('',(-0.0232940216125934,0.0673068593806122,0.1397));
#1299=CARTESIAN_POINT('',(-0.0347544621503211,0.0735568942340857,0.1397));
#1300=CARTESIAN_POINT('',(-0.104717809156674,0.194736965916661,0.1397));
#1301=CARTESIAN_POINT('',(0.104717809156674,0.194736965916661,0.1397));
#1302=CARTESIAN_POINT('',(0.0347544621503211,0.0735568942340857,0.1397));
#1303=CARTESIAN_POINT('',(0.,0.1143,0.));
#1304=CARTESIAN_POINT('',(0.0232940216125933,0.0673068593806122,0.));
#1305=CARTESIAN_POINT('',(0.0347544621503211,0.0735568942340857,0.));
#1306=CARTESIAN_POINT('',(0.104717809156674,0.194736965916661,0.));
#1307=CARTESIAN_POINT('',(-0.104717809156674,0.194736965916661,0.));
#1308=CARTESIAN_POINT('',(-0.0347544621503211,0.0735568942340857,0.));
#1309=CARTESIAN_POINT('',(-0.0232940216125934,0.0673068593806122,0.));
#1310=CARTESIAN_POINT('',(-0.0235462765669617,0.058954543391109,0.0254));
#1311=CARTESIAN_POINT('',(-0.0235462765669617,0.058954543391109,0.06985));
#1312=CARTESIAN_POINT('',(-0.0235462765669617,0.058954543391109,0.1143));
#1313=CARTESIAN_POINT('',(0.0235462765669617,0.058954543391109,0.0254));
#1314=CARTESIAN_POINT('',(0.0235462765669617,0.058954543391109,0.06985));
#1315=CARTESIAN_POINT('',(0.0235462765669617,0.058954543391109,0.1143));
#1316=CARTESIAN_POINT('',(0.104717809156674,0.194736965916661,0.1397));
#1317=CARTESIAN_POINT('',(0.0347544621503211,0.0735568942340857,0.1397));
#1318=CARTESIAN_POINT('',(-0.0347544621503211,0.0735568942340857,0.1397));
#1319=CARTESIAN_POINT('',(-0.104717809156674,0.194736965916661,0.1397));
#1320=CARTESIAN_POINT('',(0.0232940216125933,0.0673068593806122,0.1397));
#1321=CARTESIAN_POINT('',(-0.0232940216125934,0.0673068593806122,0.1397));
#1322=CARTESIAN_POINT('',(-1.38777878078145E-17,0.113994094629423,0.0603250014688161));
#1323=CARTESIAN_POINT('',(0.009525,0.113994094629423,0.0603250014688161));
#1324=CARTESIAN_POINT('',(-0.009525,0.113994094629423,0.0603250014688161));
#1325=CARTESIAN_POINT('',(-0.009525,0.113994094629423,0.0698500014688162));
#1326=CARTESIAN_POINT('',(-0.009525,0.113994094629423,0.0793750014688161));
#1327=CARTESIAN_POINT('',(-1.38777878078145E-17,0.113994094629423,0.0793750014688161));
#1328=CARTESIAN_POINT('',(0.009525,0.113994094629423,0.0793750014688161));
#1329=CARTESIAN_POINT('',(0.009525,0.113994094629423,0.0698500014688162));
#1330=CARTESIAN_POINT('',(3.46944695195361E-18,0.113994094629423,0.015875));
#1331=CARTESIAN_POINT('',(0.009525,0.113994094629423,0.015875));
#1332=CARTESIAN_POINT('',(-0.009525,0.113994094629423,0.015875));
#1333=CARTESIAN_POINT('',(-0.009525,0.113994094629423,0.0254));
#1334=CARTESIAN_POINT('',(-0.009525,0.113994094629423,0.034925));
#1335=CARTESIAN_POINT('',(3.46944695195361E-18,0.113994094629423,0.034925));
#1336=CARTESIAN_POINT('',(0.009525,0.113994094629423,0.034925));
#1337=CARTESIAN_POINT('',(0.009525,0.113994094629423,0.0254));
#1338=CARTESIAN_POINT('',(1.38777878078145E-17,0.113994094629423,0.104775));
#1339=CARTESIAN_POINT('',(0.009525,0.113994094629423,0.104775));
#1340=CARTESIAN_POINT('',(-0.009525,0.113994094629423,0.104775));
#1341=CARTESIAN_POINT('',(-0.009525,0.113994094629423,0.1143));
#1342=CARTESIAN_POINT('',(-0.009525,0.113994094629423,0.123825));
#1343=CARTESIAN_POINT('',(1.56125112837912E-17,0.113994094629423,0.123825));
#1344=CARTESIAN_POINT('',(0.009525,0.113994094629423,0.123825));
#1345=CARTESIAN_POINT('',(0.009525,0.113994094629423,0.1143));
#1346=MECHANICAL_DESIGN_GEOMETRIC_PRESENTATION_REPRESENTATION('',(#713),
#1347);
#1347=(
GEOMETRIC_REPRESENTATION_CONTEXT(3)
GLOBAL_UNCERTAINTY_ASSIGNED_CONTEXT((#1348))
GLOBAL_UNIT_ASSIGNED_CONTEXT((#1351,#1350,#1349))
REPRESENTATION_CONTEXT('Wedge','TOP_LEVEL_ASSEMBLY_PART')
);
#1348=UNCERTAINTY_MEASURE_WITH_UNIT(LENGTH_MEASURE(2.E-5),#1351,
'DISTANCE_ACCURACY_VALUE','Maximum Tolerance applied to model');
#1349=(
NAMED_UNIT(*)
SI_UNIT($,.STERADIAN.)
SOLID_ANGLE_UNIT()
);
#1350=(
NAMED_UNIT(*)
PLANE_ANGLE_UNIT()
SI_UNIT($,.RADIAN.)
);
#1351=(
LENGTH_UNIT()
NAMED_UNIT(*)
SI_UNIT($,.METRE.)
);
#1352=PRODUCT_DEFINITION_SHAPE('','',#1353);
#1353=PRODUCT_DEFINITION('','',#1355,#1354);
#1354=PRODUCT_DEFINITION_CONTEXT('',#1361,'design');
#1355=PRODUCT_DEFINITION_FORMATION_WITH_SPECIFIED_SOURCE('','',#1357,
 .NOT_KNOWN.);
#1356=PRODUCT_RELATED_PRODUCT_CATEGORY('','',(#1357));
#1357=PRODUCT('Wedge','Wedge','Wedge',(#1359));
#1358=PRODUCT_CATEGORY('','');
#1359=PRODUCT_CONTEXT('',#1361,'mechanical');
#1360=APPLICATION_PROTOCOL_DEFINITION('international standard',
'ap242_managed_model_based_3d_engineering',2020,#1361);
#1361=APPLICATION_CONTEXT('managed model based 3d engineering');
ENDSEC;
END-ISO-10303-21;
