ISO-10303-21;
HEADER;
/* Generated by software containing ST-Developer
 * from STEP Tools, Inc. (www.steptools.com) 
 */
/* OPTION: using custom renumber hook */

FILE_DESCRIPTION(
/* description */ ('STEP AP242 Edition 2',
'CAx-IF Rec.Pracs.---Representation and Presentation of Product Manufa
cturing Information (PMI)---4.0---2014-10-13',
'CAx-IF Rec.Pracs.---3D Tessellated Geometry---0.4---2014-09-14','2;1',
'CAx-IF Rec.Pracs.---User Defined Attributes---1.5---2016-08-15'),
/* implementation_level */ '2;1');

FILE_NAME(
/* name */ 'Heat Set Chassis + Wedge - Wedge',
/* time_stamp */ '2026-08-20T18:19:24Z',
/* author */ (''),
/* organization */ (''),
/* preprocessor_version */ 'ST-DEVELOPER v20',
/* originating_system */ 'ONSHAPE BY PTC INC, 1.219',
/* authorisation */ '  ');

FILE_SCHEMA (('AP242_MANAGED_MODEL_BASED_3D_ENGINEERING_MIM_LF { 1 0 10303 442 3 1 4 }'));
ENDSEC;

DATA;
#10=SHAPE_REPRESENTATION_RELATIONSHIP('','',#395,#11);
#11=ADVANCED_BREP_SHAPE_REPRESENTATION('',(#393),#695);
#12=B_SPLINE_CURVE_WITH_KNOTS('',3,(#582,#583,#584,#585,#586,#587,#588,
#589,#590,#591,#592),.UNSPECIFIED.,.T.,.F.,(1,1,1,1,1,1,1,1,1,1,1,1,1,1,
1),(-0.00527096303448834,-0.00351397535632556,-0.00175698767816278,0.,0.00175698767816278,
0.00351397535632556,0.00527096303448834,0.00702795071265112,0.0087849383908139,
0.0105419260689767,0.0122989137471395,0.0140559014253022,0.015812889103465,
0.0175698767816278,0.0193268644597906),.UNSPECIFIED.);
#13=B_SPLINE_CURVE_WITH_KNOTS('',3,(#594,#595,#596,#597,#598,#599,#600,
#601,#602,#603,#604),.UNSPECIFIED.,.T.,.F.,(1,1,1,1,1,1,1,1,1,1,1,1,1,1,
1),(-0.00527096303448839,-0.00351397535632559,-0.00175698767816279,1.38777878078145E-17,
0.00175698767816281,0.00351397535632562,0.00527096303448842,0.00702795071265122,
0.00878493839081402,0.0105419260689768,0.0122989137471396,0.0140559014253024,
0.0158128891034652,0.017569876781628,0.0193268644597908),.UNSPECIFIED.);
#14=B_SPLINE_CURVE_WITH_KNOTS('',3,(#606,#607,#608,#609,#610,#611,#612,
#613,#614,#615,#616),.UNSPECIFIED.,.T.,.F.,(1,1,1,1,1,1,1,1,1,1,1,1,1,1,
1),(-0.00527096303448842,-0.00351397535632561,-0.00175698767816281,0.,0.00175698767816281,
0.00351397535632561,0.00527096303448842,0.00702795071265123,0.00878493839081403,
0.0105419260689768,0.0122989137471396,0.0140559014253025,0.0158128891034653,
0.0175698767816281,0.0193268644597909),.UNSPECIFIED.);
#15=B_SPLINE_CURVE_WITH_KNOTS('',3,(#642,#643,#644,#645,#646,#647,#648,
#649,#650,#651,#652),.UNSPECIFIED.,.T.,.F.,(1,1,1,1,1,1,1,1,1,1,1,1,1,1,
1),(-0.0052712747768988,-0.0035141831845992,-0.0017570915922996,0.,0.0017570915922996,
0.0035141831845992,0.0052712747768988,0.0070283663691984,0.008785457961498,
0.0105425495537976,0.0122996411460972,0.0140567327383968,0.0158138243306964,
0.017570915922996,0.0193280075152956),.UNSPECIFIED.);
#16=B_SPLINE_CURVE_WITH_KNOTS('',3,(#654,#655,#656,#657,#658,#659,#660,
#661,#662,#663,#664),.UNSPECIFIED.,.T.,.F.,(1,1,1,1,1,1,1,1,1,1,1,1,1,1,
1),(-0.00527127477689882,-0.00351418318459921,-0.00175709159229961,0.,0.00175709159229961,
0.00351418318459922,0.00527127477689882,0.00702836636919843,0.00878545796149804,
0.0105425495537976,0.0122996411460973,0.0140567327383969,0.0158138243306965,
0.0175709159229961,0.0193280075152957),.UNSPECIFIED.);
#17=B_SPLINE_CURVE_WITH_KNOTS('',3,(#666,#667,#668,#669,#670,#671,#672,
#673,#674,#675,#676),.UNSPECIFIED.,.T.,.F.,(1,1,1,1,1,1,1,1,1,1,1,1,1,1,
1),(-0.00527127477689882,-0.00351418318459921,-0.00175709159229961,0.,0.00175709159229961,
0.00351418318459921,0.00527127477689882,0.00702836636919843,0.00878545796149804,
0.0105425495537976,0.0122996411460973,0.0140567327383969,0.0158138243306965,
0.0175709159229961,0.0193280075152957),.UNSPECIFIED.);
#18=CYLINDRICAL_SURFACE('',#402,0.22225);
#19=CYLINDRICAL_SURFACE('',#411,0.073025);
#20=CYLINDRICAL_SURFACE('',#415,0.2286);
#21=CYLINDRICAL_SURFACE('',#419,0.073025);
#22=CYLINDRICAL_SURFACE('',#425,0.0022479);
#23=CYLINDRICAL_SURFACE('',#426,0.0022479);
#24=CYLINDRICAL_SURFACE('',#427,0.0022479);
#25=CYLINDRICAL_SURFACE('',#428,0.0022479);
#26=CYLINDRICAL_SURFACE('',#429,0.0022479);
#27=CYLINDRICAL_SURFACE('',#430,0.0022479);
#28=LINE('',#537,#56);
#29=LINE('',#540,#57);
#30=LINE('',#542,#58);
#31=LINE('',#544,#59);
#32=LINE('',#546,#60);
#33=LINE('',#548,#61);
#34=LINE('',#550,#62);
#35=LINE('',#554,#63);
#36=LINE('',#558,#64);
#37=LINE('',#560,#65);
#38=LINE('',#562,#66);
#39=LINE('',#570,#67);
#40=LINE('',#572,#68);
#41=LINE('',#574,#69);
#42=LINE('',#576,#70);
#43=LINE('',#578,#71);
#44=LINE('',#580,#72);
#45=LINE('',#620,#73);
#46=LINE('',#624,#74);
#47=LINE('',#626,#75);
#48=LINE('',#628,#76);
#49=LINE('',#632,#77);
#50=LINE('',#636,#78);
#51=LINE('',#638,#79);
#52=LINE('',#640,#80);
#53=LINE('',#680,#81);
#54=LINE('',#684,#82);
#55=LINE('',#685,#83);
#56=VECTOR('',#441,1.);
#57=VECTOR('',#442,1.);
#58=VECTOR('',#443,1.);
#59=VECTOR('',#444,1.);
#60=VECTOR('',#447,1.);
#61=VECTOR('',#448,1.);
#62=VECTOR('',#449,1.);
#63=VECTOR('',#454,1.);
#64=VECTOR('',#459,1.);
#65=VECTOR('',#460,1.);
#66=VECTOR('',#461,1.);
#67=VECTOR('',#470,1.);
#68=VECTOR('',#471,1.);
#69=VECTOR('',#472,1.);
#70=VECTOR('',#475,1.);
#71=VECTOR('',#476,1.);
#72=VECTOR('',#477,1.);
#73=VECTOR('',#482,1.);
#74=VECTOR('',#487,1.);
#75=VECTOR('',#488,1.);
#76=VECTOR('',#489,1.);
#77=VECTOR('',#494,1.);
#78=VECTOR('',#499,1.);
#79=VECTOR('',#500,1.);
#80=VECTOR('',#501,1.);
#81=VECTOR('',#506,1.);
#82=VECTOR('',#511,1.);
#83=VECTOR('',#512,1.);
#84=ORIENTED_EDGE('',*,*,#180,.F.);
#85=ORIENTED_EDGE('',*,*,#181,.F.);
#86=ORIENTED_EDGE('',*,*,#182,.F.);
#87=ORIENTED_EDGE('',*,*,#183,.F.);
#88=ORIENTED_EDGE('',*,*,#184,.F.);
#89=ORIENTED_EDGE('',*,*,#185,.T.);
#90=ORIENTED_EDGE('',*,*,#186,.T.);
#91=ORIENTED_EDGE('',*,*,#187,.T.);
#92=ORIENTED_EDGE('',*,*,#188,.F.);
#93=ORIENTED_EDGE('',*,*,#189,.F.);
#94=ORIENTED_EDGE('',*,*,#184,.T.);
#95=ORIENTED_EDGE('',*,*,#190,.T.);
#96=ORIENTED_EDGE('',*,*,#191,.F.);
#97=ORIENTED_EDGE('',*,*,#192,.F.);
#98=ORIENTED_EDGE('',*,*,#188,.T.);
#99=ORIENTED_EDGE('',*,*,#193,.F.);
#100=ORIENTED_EDGE('',*,*,#194,.F.);
#101=ORIENTED_EDGE('',*,*,#195,.T.);
#102=ORIENTED_EDGE('',*,*,#191,.T.);
#103=ORIENTED_EDGE('',*,*,#196,.F.);
#104=ORIENTED_EDGE('',*,*,#197,.F.);
#105=ORIENTED_EDGE('',*,*,#198,.F.);
#106=ORIENTED_EDGE('',*,*,#199,.F.);
#107=ORIENTED_EDGE('',*,*,#200,.F.);
#108=ORIENTED_EDGE('',*,*,#201,.T.);
#109=ORIENTED_EDGE('',*,*,#194,.T.);
#110=ORIENTED_EDGE('',*,*,#202,.F.);
#111=ORIENTED_EDGE('',*,*,#203,.F.);
#112=ORIENTED_EDGE('',*,*,#204,.T.);
#113=ORIENTED_EDGE('',*,*,#200,.T.);
#114=ORIENTED_EDGE('',*,*,#205,.F.);
#115=ORIENTED_EDGE('',*,*,#206,.F.);
#116=ORIENTED_EDGE('',*,*,#207,.F.);
#117=ORIENTED_EDGE('',*,*,#208,.F.);
#118=ORIENTED_EDGE('',*,*,#209,.F.);
#119=ORIENTED_EDGE('',*,*,#210,.T.);
#120=ORIENTED_EDGE('',*,*,#203,.T.);
#121=ORIENTED_EDGE('',*,*,#211,.F.);
#122=ORIENTED_EDGE('',*,*,#212,.F.);
#123=ORIENTED_EDGE('',*,*,#213,.T.);
#124=ORIENTED_EDGE('',*,*,#209,.T.);
#125=ORIENTED_EDGE('',*,*,#214,.F.);
#126=ORIENTED_EDGE('',*,*,#215,.F.);
#127=ORIENTED_EDGE('',*,*,#216,.T.);
#128=ORIENTED_EDGE('',*,*,#212,.T.);
#129=ORIENTED_EDGE('',*,*,#217,.T.);
#130=ORIENTED_EDGE('',*,*,#218,.F.);
#131=ORIENTED_EDGE('',*,*,#219,.F.);
#132=ORIENTED_EDGE('',*,*,#215,.T.);
#133=ORIENTED_EDGE('',*,*,#220,.T.);
#134=ORIENTED_EDGE('',*,*,#221,.T.);
#135=ORIENTED_EDGE('',*,*,#222,.T.);
#136=ORIENTED_EDGE('',*,*,#223,.T.);
#137=ORIENTED_EDGE('',*,*,#224,.F.);
#138=ORIENTED_EDGE('',*,*,#225,.F.);
#139=ORIENTED_EDGE('',*,*,#218,.T.);
#140=ORIENTED_EDGE('',*,*,#226,.F.);
#141=ORIENTED_EDGE('',*,*,#186,.F.);
#142=ORIENTED_EDGE('',*,*,#227,.T.);
#143=ORIENTED_EDGE('',*,*,#224,.T.);
#144=ORIENTED_EDGE('',*,*,#185,.F.);
#145=ORIENTED_EDGE('',*,*,#189,.T.);
#146=ORIENTED_EDGE('',*,*,#192,.T.);
#147=ORIENTED_EDGE('',*,*,#195,.F.);
#148=ORIENTED_EDGE('',*,*,#201,.F.);
#149=ORIENTED_EDGE('',*,*,#204,.F.);
#150=ORIENTED_EDGE('',*,*,#210,.F.);
#151=ORIENTED_EDGE('',*,*,#213,.F.);
#152=ORIENTED_EDGE('',*,*,#216,.F.);
#153=ORIENTED_EDGE('',*,*,#219,.T.);
#154=ORIENTED_EDGE('',*,*,#225,.T.);
#155=ORIENTED_EDGE('',*,*,#227,.F.);
#156=ORIENTED_EDGE('',*,*,#183,.T.);
#157=ORIENTED_EDGE('',*,*,#226,.T.);
#158=ORIENTED_EDGE('',*,*,#223,.F.);
#159=ORIENTED_EDGE('',*,*,#217,.F.);
#160=ORIENTED_EDGE('',*,*,#214,.T.);
#161=ORIENTED_EDGE('',*,*,#211,.T.);
#162=ORIENTED_EDGE('',*,*,#208,.T.);
#163=ORIENTED_EDGE('',*,*,#202,.T.);
#164=ORIENTED_EDGE('',*,*,#199,.T.);
#165=ORIENTED_EDGE('',*,*,#193,.T.);
#166=ORIENTED_EDGE('',*,*,#190,.F.);
#167=ORIENTED_EDGE('',*,*,#187,.F.);
#168=ORIENTED_EDGE('',*,*,#182,.T.);
#169=ORIENTED_EDGE('',*,*,#222,.F.);
#170=ORIENTED_EDGE('',*,*,#181,.T.);
#171=ORIENTED_EDGE('',*,*,#221,.F.);
#172=ORIENTED_EDGE('',*,*,#180,.T.);
#173=ORIENTED_EDGE('',*,*,#220,.F.);
#174=ORIENTED_EDGE('',*,*,#207,.T.);
#175=ORIENTED_EDGE('',*,*,#198,.T.);
#176=ORIENTED_EDGE('',*,*,#206,.T.);
#177=ORIENTED_EDGE('',*,*,#197,.T.);
#178=ORIENTED_EDGE('',*,*,#205,.T.);
#179=ORIENTED_EDGE('',*,*,#196,.T.);
#180=EDGE_CURVE('',#228,#228,#264,.T.);
#181=EDGE_CURVE('',#229,#229,#265,.T.);
#182=EDGE_CURVE('',#230,#230,#266,.T.);
#183=EDGE_CURVE('',#231,#232,#28,.T.);
#184=EDGE_CURVE('',#233,#231,#29,.T.);
#185=EDGE_CURVE('',#233,#234,#30,.T.);
#186=EDGE_CURVE('',#234,#232,#31,.T.);
#187=EDGE_CURVE('',#231,#235,#32,.T.);
#188=EDGE_CURVE('',#236,#235,#33,.T.);
#189=EDGE_CURVE('',#233,#236,#34,.T.);
#190=EDGE_CURVE('',#235,#237,#267,.T.);
#191=EDGE_CURVE('',#238,#237,#35,.T.);
#192=EDGE_CURVE('',#236,#238,#268,.T.);
#193=EDGE_CURVE('',#239,#237,#36,.T.);
#194=EDGE_CURVE('',#240,#239,#37,.T.);
#195=EDGE_CURVE('',#240,#238,#38,.T.);
#196=EDGE_CURVE('',#241,#241,#269,.T.);
#197=EDGE_CURVE('',#242,#242,#270,.T.);
#198=EDGE_CURVE('',#243,#243,#271,.T.);
#199=EDGE_CURVE('',#244,#239,#39,.T.);
#200=EDGE_CURVE('',#245,#244,#40,.T.);
#201=EDGE_CURVE('',#245,#240,#41,.T.);
#202=EDGE_CURVE('',#246,#244,#42,.T.);
#203=EDGE_CURVE('',#247,#246,#43,.T.);
#204=EDGE_CURVE('',#247,#245,#44,.T.);
#205=EDGE_CURVE('',#248,#248,#12,.T.);
#206=EDGE_CURVE('',#249,#249,#13,.T.);
#207=EDGE_CURVE('',#250,#250,#14,.T.);
#208=EDGE_CURVE('',#251,#246,#272,.T.);
#209=EDGE_CURVE('',#252,#251,#45,.T.);
#210=EDGE_CURVE('',#252,#247,#273,.T.);
#211=EDGE_CURVE('',#253,#251,#46,.T.);
#212=EDGE_CURVE('',#254,#253,#47,.T.);
#213=EDGE_CURVE('',#254,#252,#48,.T.);
#214=EDGE_CURVE('',#255,#253,#274,.T.);
#215=EDGE_CURVE('',#256,#255,#49,.T.);
#216=EDGE_CURVE('',#256,#254,#275,.T.);
#217=EDGE_CURVE('',#255,#257,#50,.T.);
#218=EDGE_CURVE('',#258,#257,#51,.T.);
#219=EDGE_CURVE('',#256,#258,#52,.T.);
#220=EDGE_CURVE('',#259,#259,#15,.T.);
#221=EDGE_CURVE('',#260,#260,#16,.T.);
#222=EDGE_CURVE('',#261,#261,#17,.T.);
#223=EDGE_CURVE('',#257,#262,#276,.T.);
#224=EDGE_CURVE('',#263,#262,#53,.T.);
#225=EDGE_CURVE('',#258,#263,#277,.T.);
#226=EDGE_CURVE('',#232,#262,#54,.T.);
#227=EDGE_CURVE('',#234,#263,#55,.T.);
#228=VERTEX_POINT('',#532);
#229=VERTEX_POINT('',#534);
#230=VERTEX_POINT('',#536);
#231=VERTEX_POINT('',#538);
#232=VERTEX_POINT('',#539);
#233=VERTEX_POINT('',#541);
#234=VERTEX_POINT('',#543);
#235=VERTEX_POINT('',#547);
#236=VERTEX_POINT('',#549);
#237=VERTEX_POINT('',#553);
#238=VERTEX_POINT('',#555);
#239=VERTEX_POINT('',#559);
#240=VERTEX_POINT('',#561);
#241=VERTEX_POINT('',#565);
#242=VERTEX_POINT('',#567);
#243=VERTEX_POINT('',#569);
#244=VERTEX_POINT('',#571);
#245=VERTEX_POINT('',#573);
#246=VERTEX_POINT('',#577);
#247=VERTEX_POINT('',#579);
#248=VERTEX_POINT('',#593);
#249=VERTEX_POINT('',#605);
#250=VERTEX_POINT('',#617);
#251=VERTEX_POINT('',#619);
#252=VERTEX_POINT('',#621);
#253=VERTEX_POINT('',#625);
#254=VERTEX_POINT('',#627);
#255=VERTEX_POINT('',#631);
#256=VERTEX_POINT('',#633);
#257=VERTEX_POINT('',#637);
#258=VERTEX_POINT('',#639);
#259=VERTEX_POINT('',#653);
#260=VERTEX_POINT('',#665);
#261=VERTEX_POINT('',#677);
#262=VERTEX_POINT('',#679);
#263=VERTEX_POINT('',#681);
#264=CIRCLE('',#398,0.0022479);
#265=CIRCLE('',#399,0.0022479);
#266=CIRCLE('',#400,0.0022479);
#267=CIRCLE('',#403,0.22225);
#268=CIRCLE('',#404,0.22225);
#269=CIRCLE('',#407,0.0022479);
#270=CIRCLE('',#408,0.0022479);
#271=CIRCLE('',#409,0.0022479);
#272=CIRCLE('',#412,0.073025);
#273=CIRCLE('',#413,0.073025);
#274=CIRCLE('',#416,0.2286);
#275=CIRCLE('',#417,0.2286);
#276=CIRCLE('',#420,0.073025);
#277=CIRCLE('',#421,0.073025);
#278=EDGE_LOOP('',(#84));
#279=EDGE_LOOP('',(#85));
#280=EDGE_LOOP('',(#86));
#281=EDGE_LOOP('',(#87,#88,#89,#90));
#282=EDGE_LOOP('',(#91,#92,#93,#94));
#283=EDGE_LOOP('',(#95,#96,#97,#98));
#284=EDGE_LOOP('',(#99,#100,#101,#102));
#285=EDGE_LOOP('',(#103));
#286=EDGE_LOOP('',(#104));
#287=EDGE_LOOP('',(#105));
#288=EDGE_LOOP('',(#106,#107,#108,#109));
#289=EDGE_LOOP('',(#110,#111,#112,#113));
#290=EDGE_LOOP('',(#114));
#291=EDGE_LOOP('',(#115));
#292=EDGE_LOOP('',(#116));
#293=EDGE_LOOP('',(#117,#118,#119,#120));
#294=EDGE_LOOP('',(#121,#122,#123,#124));
#295=EDGE_LOOP('',(#125,#126,#127,#128));
#296=EDGE_LOOP('',(#129,#130,#131,#132));
#297=EDGE_LOOP('',(#133));
#298=EDGE_LOOP('',(#134));
#299=EDGE_LOOP('',(#135));
#300=EDGE_LOOP('',(#136,#137,#138,#139));
#301=EDGE_LOOP('',(#140,#141,#142,#143));
#302=EDGE_LOOP('',(#144,#145,#146,#147,#148,#149,#150,#151,#152,#153,#154,
#155));
#303=EDGE_LOOP('',(#156,#157,#158,#159,#160,#161,#162,#163,#164,#165,#166,
#167));
#304=EDGE_LOOP('',(#168));
#305=EDGE_LOOP('',(#169));
#306=EDGE_LOOP('',(#170));
#307=EDGE_LOOP('',(#171));
#308=EDGE_LOOP('',(#172));
#309=EDGE_LOOP('',(#173));
#310=EDGE_LOOP('',(#174));
#311=EDGE_LOOP('',(#175));
#312=EDGE_LOOP('',(#176));
#313=EDGE_LOOP('',(#177));
#314=EDGE_LOOP('',(#178));
#315=EDGE_LOOP('',(#179));
#316=FACE_BOUND('',#278,.T.);
#317=FACE_BOUND('',#279,.T.);
#318=FACE_BOUND('',#280,.T.);
#319=FACE_BOUND('',#281,.T.);
#320=FACE_BOUND('',#282,.T.);
#321=FACE_BOUND('',#283,.T.);
#322=FACE_BOUND('',#284,.T.);
#323=FACE_BOUND('',#285,.T.);
#324=FACE_BOUND('',#286,.T.);
#325=FACE_BOUND('',#287,.T.);
#326=FACE_BOUND('',#288,.T.);
#327=FACE_BOUND('',#289,.T.);
#328=FACE_BOUND('',#290,.T.);
#329=FACE_BOUND('',#291,.T.);
#330=FACE_BOUND('',#292,.T.);
#331=FACE_BOUND('',#293,.T.);
#332=FACE_BOUND('',#294,.T.);
#333=FACE_BOUND('',#295,.T.);
#334=FACE_BOUND('',#296,.T.);
#335=FACE_BOUND('',#297,.T.);
#336=FACE_BOUND('',#298,.T.);
#337=FACE_BOUND('',#299,.T.);
#338=FACE_BOUND('',#300,.T.);
#339=FACE_BOUND('',#301,.T.);
#340=FACE_BOUND('',#302,.T.);
#341=FACE_BOUND('',#303,.T.);
#342=FACE_BOUND('',#304,.T.);
#343=FACE_BOUND('',#305,.T.);
#344=FACE_BOUND('',#306,.T.);
#345=FACE_BOUND('',#307,.T.);
#346=FACE_BOUND('',#308,.T.);
#347=FACE_BOUND('',#309,.T.);
#348=FACE_BOUND('',#310,.T.);
#349=FACE_BOUND('',#311,.T.);
#350=FACE_BOUND('',#312,.T.);
#351=FACE_BOUND('',#313,.T.);
#352=FACE_BOUND('',#314,.T.);
#353=FACE_BOUND('',#315,.T.);
#354=PLANE('',#397);
#355=PLANE('',#401);
#356=PLANE('',#405);
#357=PLANE('',#406);
#358=PLANE('',#410);
#359=PLANE('',#414);
#360=PLANE('',#418);
#361=PLANE('',#422);
#362=PLANE('',#423);
#363=PLANE('',#424);
#364=ADVANCED_FACE('',(#316,#317,#318,#319),#354,.T.);
#365=ADVANCED_FACE('',(#320),#355,.F.);
#366=ADVANCED_FACE('',(#321),#18,.F.);
#367=ADVANCED_FACE('',(#322),#356,.T.);
#368=ADVANCED_FACE('',(#323,#324,#325,#326),#357,.T.);
#369=ADVANCED_FACE('',(#327),#358,.T.);
#370=ADVANCED_FACE('',(#328,#329,#330,#331),#19,.F.);
#371=ADVANCED_FACE('',(#332),#359,.T.);
#372=ADVANCED_FACE('',(#333),#20,.T.);
#373=ADVANCED_FACE('',(#334),#360,.F.);
#374=ADVANCED_FACE('',(#335,#336,#337,#338),#21,.F.);
#375=ADVANCED_FACE('',(#339),#361,.T.);
#376=ADVANCED_FACE('',(#340),#362,.T.);
#377=ADVANCED_FACE('',(#341),#363,.F.);
#378=ADVANCED_FACE('',(#342,#343),#22,.F.);
#379=ADVANCED_FACE('',(#344,#345),#23,.F.);
#380=ADVANCED_FACE('',(#346,#347),#24,.F.);
#381=ADVANCED_FACE('',(#348,#349),#25,.F.);
#382=ADVANCED_FACE('',(#350,#351),#26,.F.);
#383=ADVANCED_FACE('',(#352,#353),#27,.F.);
#384=CLOSED_SHELL('',(#364,#365,#366,#367,#368,#369,#370,#371,#372,#373,
#374,#375,#376,#377,#378,#379,#380,#381,#382,#383));
#385=STYLED_ITEM('',(#386),#393);
#386=PRESENTATION_STYLE_ASSIGNMENT((#387));
#387=SURFACE_STYLE_USAGE(.BOTH.,#388);
#388=SURFACE_SIDE_STYLE('',(#389));
#389=SURFACE_STYLE_FILL_AREA(#390);
#390=FILL_AREA_STYLE('',(#391));
#391=FILL_AREA_STYLE_COLOUR('',#392);
#392=COLOUR_RGB('',0.647058823529412,0.647058823529412,0.647058823529412);
#393=MANIFOLD_SOLID_BREP('Wedge',#384);
#394=SHAPE_DEFINITION_REPRESENTATION(#700,#395);
#395=SHAPE_REPRESENTATION('Wedge',(#396),#695);
#396=AXIS2_PLACEMENT_3D('',#529,#431,#432);
#397=AXIS2_PLACEMENT_3D('',#530,#433,#434);
#398=AXIS2_PLACEMENT_3D('',#531,#435,#436);
#399=AXIS2_PLACEMENT_3D('',#533,#437,#438);
#400=AXIS2_PLACEMENT_3D('',#535,#439,#440);
#401=AXIS2_PLACEMENT_3D('',#545,#445,#446);
#402=AXIS2_PLACEMENT_3D('',#551,#450,#451);
#403=AXIS2_PLACEMENT_3D('',#552,#452,#453);
#404=AXIS2_PLACEMENT_3D('',#556,#455,#456);
#405=AXIS2_PLACEMENT_3D('',#557,#457,#458);
#406=AXIS2_PLACEMENT_3D('',#563,#462,#463);
#407=AXIS2_PLACEMENT_3D('',#564,#464,#465);
#408=AXIS2_PLACEMENT_3D('',#566,#466,#467);
#409=AXIS2_PLACEMENT_3D('',#568,#468,#469);
#410=AXIS2_PLACEMENT_3D('',#575,#473,#474);
#411=AXIS2_PLACEMENT_3D('',#581,#478,#479);
#412=AXIS2_PLACEMENT_3D('',#618,#480,#481);
#413=AXIS2_PLACEMENT_3D('',#622,#483,#484);
#414=AXIS2_PLACEMENT_3D('',#623,#485,#486);
#415=AXIS2_PLACEMENT_3D('',#629,#490,#491);
#416=AXIS2_PLACEMENT_3D('',#630,#492,#493);
#417=AXIS2_PLACEMENT_3D('',#634,#495,#496);
#418=AXIS2_PLACEMENT_3D('',#635,#497,#498);
#419=AXIS2_PLACEMENT_3D('',#641,#502,#503);
#420=AXIS2_PLACEMENT_3D('',#678,#504,#505);
#421=AXIS2_PLACEMENT_3D('',#682,#507,#508);
#422=AXIS2_PLACEMENT_3D('',#683,#509,#510);
#423=AXIS2_PLACEMENT_3D('',#686,#513,#514);
#424=AXIS2_PLACEMENT_3D('',#687,#515,#516);
#425=AXIS2_PLACEMENT_3D('',#688,#517,#518);
#426=AXIS2_PLACEMENT_3D('',#689,#519,#520);
#427=AXIS2_PLACEMENT_3D('',#690,#521,#522);
#428=AXIS2_PLACEMENT_3D('',#691,#523,#524);
#429=AXIS2_PLACEMENT_3D('',#692,#525,#526);
#430=AXIS2_PLACEMENT_3D('',#693,#527,#528);
#431=DIRECTION('',(0.,0.,1.));
#432=DIRECTION('',(1.,0.,0.));
#433=DIRECTION('',(-0.38268343236509,0.923879532511287,0.));
#434=DIRECTION('',(-0.923879532511287,-0.38268343236509,0.));
#435=DIRECTION('',(-0.38268343236509,0.923879532511287,0.));
#436=DIRECTION('',(-0.923879532511287,-0.38268343236509,0.));
#437=DIRECTION('',(-0.38268343236509,0.923879532511287,0.));
#438=DIRECTION('',(-0.923879532511287,-0.38268343236509,0.));
#439=DIRECTION('',(-0.38268343236509,0.923879532511287,0.));
#440=DIRECTION('',(-0.923879532511287,-0.38268343236509,0.));
#441=DIRECTION('',(0.923879532511287,0.38268343236509,0.));
#442=DIRECTION('',(0.,0.,-1.));
#443=DIRECTION('',(0.923879532511287,0.38268343236509,0.));
#444=DIRECTION('',(0.,0.,-1.));
#445=DIRECTION('',(-0.866025403784439,-0.5,0.));
#446=DIRECTION('',(0.5,-0.866025403784439,0.));
#447=DIRECTION('',(-0.5,0.866025403784439,0.));
#448=DIRECTION('',(0.,0.,-1.));
#449=DIRECTION('',(-0.5,0.866025403784439,0.));
#450=DIRECTION('',(0.,0.,-1.));
#451=DIRECTION('',(-1.,0.,0.));
#452=DIRECTION('',(0.,0.,-1.));
#453=DIRECTION('',(1.,0.,0.));
#454=DIRECTION('',(0.,0.,-1.));
#455=DIRECTION('',(0.,0.,-1.));
#456=DIRECTION('',(1.,0.,0.));
#457=DIRECTION('',(-0.866025403784439,0.5,0.));
#458=DIRECTION('',(-0.5,-0.866025403784439,0.));
#459=DIRECTION('',(0.5,0.866025403784439,0.));
#460=DIRECTION('',(0.,0.,-1.));
#461=DIRECTION('',(0.5,0.866025403784439,0.));
#462=DIRECTION('',(0.38268343236509,0.923879532511287,0.));
#463=DIRECTION('',(-0.923879532511287,0.38268343236509,0.));
#464=DIRECTION('',(0.38268343236509,0.923879532511287,0.));
#465=DIRECTION('',(-0.923879532511287,0.38268343236509,0.));
#466=DIRECTION('',(0.38268343236509,0.923879532511287,0.));
#467=DIRECTION('',(-0.923879532511287,0.38268343236509,0.));
#468=DIRECTION('',(0.38268343236509,0.923879532511287,0.));
#469=DIRECTION('',(-0.923879532511287,0.38268343236509,0.));
#470=DIRECTION('',(0.923879532511287,-0.38268343236509,0.));
#471=DIRECTION('',(0.,0.,-1.));
#472=DIRECTION('',(0.923879532511287,-0.38268343236509,0.));
#473=DIRECTION('',(-0.965925826289068,0.258819045102521,0.));
#474=DIRECTION('',(-0.258819045102521,-0.965925826289068,0.));
#475=DIRECTION('',(0.258819045102521,0.965925826289068,0.));
#476=DIRECTION('',(0.,0.,-1.));
#477=DIRECTION('',(0.258819045102521,0.965925826289068,0.));
#478=DIRECTION('',(0.,0.,-1.));
#479=DIRECTION('',(-1.,0.,0.));
#480=DIRECTION('',(0.,0.,1.));
#481=DIRECTION('',(1.,0.,0.));
#482=DIRECTION('',(0.,0.,-1.));
#483=DIRECTION('',(0.,0.,1.));
#484=DIRECTION('',(1.,0.,0.));
#485=DIRECTION('',(0.866025403784439,-0.5,0.));
#486=DIRECTION('',(0.5,0.866025403784439,0.));
#487=DIRECTION('',(-0.5,-0.866025403784439,0.));
#488=DIRECTION('',(0.,0.,-1.));
#489=DIRECTION('',(-0.5,-0.866025403784439,0.));
#490=DIRECTION('',(0.,0.,-1.));
#491=DIRECTION('',(-1.,0.,0.));
#492=DIRECTION('',(0.,0.,-1.));
#493=DIRECTION('',(1.,0.,0.));
#494=DIRECTION('',(0.,0.,-1.));
#495=DIRECTION('',(0.,0.,-1.));
#496=DIRECTION('',(1.,0.,0.));
#497=DIRECTION('',(0.866025403784439,0.5,0.));
#498=DIRECTION('',(-0.5,0.866025403784439,0.));
#499=DIRECTION('',(0.5,-0.866025403784439,0.));
#500=DIRECTION('',(0.,0.,-1.));
#501=DIRECTION('',(0.5,-0.866025403784439,0.));
#502=DIRECTION('',(0.,0.,-1.));
#503=DIRECTION('',(-1.,0.,0.));
#504=DIRECTION('',(0.,0.,-1.));
#505=DIRECTION('',(1.,0.,0.));
#506=DIRECTION('',(0.,0.,-1.));
#507=DIRECTION('',(0.,0.,-1.));
#508=DIRECTION('',(1.,0.,0.));
#509=DIRECTION('',(0.965925826289068,0.258819045102521,0.));
#510=DIRECTION('',(-0.258819045102521,0.965925826289068,0.));
#511=DIRECTION('',(0.258819045102521,-0.965925826289068,0.));
#512=DIRECTION('',(0.258819045102521,-0.965925826289068,0.));
#513=DIRECTION('',(0.,0.,1.));
#514=DIRECTION('',(1.,0.,0.));
#515=DIRECTION('',(0.,0.,1.));
#516=DIRECTION('',(1.,0.,0.));
#517=DIRECTION('',(-0.38268343236509,0.923879532511287,0.));
#518=DIRECTION('',(-0.923879532511287,-0.38268343236509,0.));
#519=DIRECTION('',(-0.38268343236509,0.923879532511287,0.));
#520=DIRECTION('',(-0.923879532511287,-0.38268343236509,0.));
#521=DIRECTION('',(-0.38268343236509,0.923879532511287,0.));
#522=DIRECTION('',(-0.923879532511287,-0.38268343236509,0.));
#523=DIRECTION('',(0.38268343236509,0.923879532511287,0.));
#524=DIRECTION('',(-0.923879532511287,0.38268343236509,0.));
#525=DIRECTION('',(0.38268343236509,0.923879532511287,0.));
#526=DIRECTION('',(-0.923879532511287,0.38268343236509,0.));
#527=DIRECTION('',(0.38268343236509,0.923879532511287,0.));
#528=DIRECTION('',(-0.923879532511287,0.38268343236509,0.));
#529=CARTESIAN_POINT('',(0.,0.,0.));
#530=CARTESIAN_POINT('',(-0.027731788746697,0.0709672284244982,0.2032));
#531=CARTESIAN_POINT('',(-0.0277317887466969,0.0709672284244983,0.1778));
#532=CARTESIAN_POINT('',(-0.0298085775478291,0.0701069943368848,0.1778));
#533=CARTESIAN_POINT('',(-0.0277317887466969,0.0709672284244983,0.1016));
#534=CARTESIAN_POINT('',(-0.0298085775478291,0.0701069943368848,0.1016));
#535=CARTESIAN_POINT('',(-0.0277317887466969,0.0709672284244983,0.0254));
#536=CARTESIAN_POINT('',(-0.0298085775478291,0.0701069943368848,0.0254));
#537=CARTESIAN_POINT('',(-0.027731788746697,0.0709672284244982,0.));
#538=CARTESIAN_POINT('',(-0.0355772161629419,0.0677175459860759,0.));
#539=CARTESIAN_POINT('',(-0.0198863613304522,0.0742169108629206,0.));
#540=CARTESIAN_POINT('',(-0.0355772161629419,0.0677175459860759,0.2032));
#541=CARTESIAN_POINT('',(-0.0355772161629419,0.0677175459860759,0.2032));
#542=CARTESIAN_POINT('',(-0.027731788746697,0.0709672284244982,0.2032));
#543=CARTESIAN_POINT('',(-0.0198863613304522,0.0742169108629206,0.2032));
#544=CARTESIAN_POINT('',(-0.0198863613304522,0.0742169108629206,0.2032));
#545=CARTESIAN_POINT('',(-0.0721112591803213,0.130996364698084,0.2032));
#546=CARTESIAN_POINT('',(-0.0721112591803213,0.130996364698084,0.));
#547=CARTESIAN_POINT('',(-0.108474903792128,0.193980044714111,0.));
#548=CARTESIAN_POINT('',(-0.108474903792128,0.193980044714111,0.2032));
#549=CARTESIAN_POINT('',(-0.108474903792128,0.193980044714111,0.2032));
#550=CARTESIAN_POINT('',(-0.0721112591803213,0.130996364698084,0.2032));
#551=CARTESIAN_POINT('',(1.38777878078145E-17,-9.71445146547012E-17,0.2032));
#552=CARTESIAN_POINT('',(1.38777878078145E-17,-9.71445146547012E-17,0.));
#553=CARTESIAN_POINT('',(0.108474903792128,0.193980044714111,0.));
#554=CARTESIAN_POINT('',(0.108474903792128,0.193980044714111,0.2032));
#555=CARTESIAN_POINT('',(0.108474903792128,0.193980044714111,0.2032));
#556=CARTESIAN_POINT('',(1.38777878078145E-17,-9.71445146547012E-17,0.2032));
#557=CARTESIAN_POINT('',(0.0721112591803213,0.130996364698084,0.2032));
#558=CARTESIAN_POINT('',(0.0721112591803213,0.130996364698084,0.));
#559=CARTESIAN_POINT('',(0.0355772161629418,0.0677175459860759,0.));
#560=CARTESIAN_POINT('',(0.0355772161629418,0.0677175459860759,0.2032));
#561=CARTESIAN_POINT('',(0.0355772161629418,0.0677175459860759,0.2032));
#562=CARTESIAN_POINT('',(0.0721112591803213,0.130996364698084,0.2032));
#563=CARTESIAN_POINT('',(0.027731788746697,0.0709672284244983,0.2032));
#564=CARTESIAN_POINT('',(0.028190894324411,0.070777060667648,0.1778));
#565=CARTESIAN_POINT('',(0.0261141055232788,0.0716372947552615,0.1778));
#566=CARTESIAN_POINT('',(0.028190894324411,0.070777060667648,0.1016));
#567=CARTESIAN_POINT('',(0.0261141055232788,0.0716372947552615,0.1016));
#568=CARTESIAN_POINT('',(0.028190894324411,0.070777060667648,0.0254));
#569=CARTESIAN_POINT('',(0.0261141055232788,0.0716372947552615,0.0254));
#570=CARTESIAN_POINT('',(0.027731788746697,0.0709672284244983,0.));
#571=CARTESIAN_POINT('',(0.0198863613304521,0.0742169108629206,0.));
#572=CARTESIAN_POINT('',(0.0198863613304521,0.0742169108629206,0.2032));
#573=CARTESIAN_POINT('',(0.0198863613304521,0.0742169108629206,0.2032));
#574=CARTESIAN_POINT('',(0.027731788746697,0.0709672284244983,0.2032));
#575=CARTESIAN_POINT('',(0.0193933110495319,0.0723768221638399,0.2032));
#576=CARTESIAN_POINT('',(0.0193933110495319,0.0723768221638399,0.));
#577=CARTESIAN_POINT('',(0.0189002607686115,0.0705367334647592,0.));
#578=CARTESIAN_POINT('',(0.0189002607686115,0.0705367334647592,0.2032));
#579=CARTESIAN_POINT('',(0.0189002607686115,0.0705367334647592,0.2032));
#580=CARTESIAN_POINT('',(0.0193933110495319,0.0723768221638399,0.2032));
#581=CARTESIAN_POINT('',(-1.56125112837912E-17,-1.2490009027033E-16,0.2032));
#582=CARTESIAN_POINT('',(0.0253393193431831,0.068491954823536,0.17956341401207));
#583=CARTESIAN_POINT('',(0.0246494065017264,0.0687382548744508,0.177799553161001));
#584=CARTESIAN_POINT('',(0.0253387887792449,0.0684921297372155,0.176038373343926));
#585=CARTESIAN_POINT('',(0.0269827445921287,0.0678663702550008,0.175309279139022));
#586=CARTESIAN_POINT('',(0.0286112732346858,0.06719095090633,0.176037113183204));
#587=CARTESIAN_POINT('',(0.0292798948453348,0.0668971394541954,0.177799679467287));
#588=CARTESIAN_POINT('',(0.028613476214925,0.0671899895034143,0.179559425586937));
#589=CARTESIAN_POINT('',(0.0269868852902014,0.0678647361604615,0.180291138843681));
#590=CARTESIAN_POINT('',(0.0253393193431831,0.068491954823536,0.17956341401207));
#591=CARTESIAN_POINT('',(0.0246494065017264,0.0687382548744508,0.177799553161001));
#592=CARTESIAN_POINT('',(0.0253387887792449,0.0684921297372155,0.176038373343926));
#593=CARTESIAN_POINT('',(0.0248792890215556,0.0686561840097591,0.1778));
#594=CARTESIAN_POINT('',(0.0253393193431831,0.068491954823536,0.10336341401207));
#595=CARTESIAN_POINT('',(0.0246494065017263,0.0687382548744508,0.101599553161001));
#596=CARTESIAN_POINT('',(0.0253387887792449,0.0684921297372156,0.0998383733439259));
#597=CARTESIAN_POINT('',(0.0269827445921287,0.0678663702550008,0.0991092791390218));
#598=CARTESIAN_POINT('',(0.0286112732346858,0.06719095090633,0.0998371131832037));
#599=CARTESIAN_POINT('',(0.0292798948453348,0.0668971394541954,0.101599679467287));
#600=CARTESIAN_POINT('',(0.028613476214925,0.0671899895034143,0.103359425586937));
#601=CARTESIAN_POINT('',(0.0269868852902014,0.0678647361604615,0.104091138843681));
#602=CARTESIAN_POINT('',(0.0253393193431831,0.068491954823536,0.10336341401207));
#603=CARTESIAN_POINT('',(0.0246494065017263,0.0687382548744508,0.101599553161001));
#604=CARTESIAN_POINT('',(0.0253387887792449,0.0684921297372156,0.0998383733439259));
#605=CARTESIAN_POINT('',(0.0248792890215556,0.0686561840097591,0.1016));
#606=CARTESIAN_POINT('',(0.0253393193431831,0.068491954823536,0.02716341401207));
#607=CARTESIAN_POINT('',(0.0246494065017263,0.0687382548744507,0.025399553161001));
#608=CARTESIAN_POINT('',(0.0253387887792449,0.0684921297372156,0.0236383733439259));
#609=CARTESIAN_POINT('',(0.0269827445921287,0.0678663702550008,0.0229092791390218));
#610=CARTESIAN_POINT('',(0.0286112732346858,0.06719095090633,0.0236371131832037));
#611=CARTESIAN_POINT('',(0.0292798948453348,0.0668971394541954,0.0253996794672866));
#612=CARTESIAN_POINT('',(0.028613476214925,0.0671899895034143,0.0271594255869368));
#613=CARTESIAN_POINT('',(0.0269868852902014,0.0678647361604615,0.0278911388436814));
#614=CARTESIAN_POINT('',(0.0253393193431831,0.068491954823536,0.02716341401207));
#615=CARTESIAN_POINT('',(0.0246494065017263,0.0687382548744507,0.025399553161001));
#616=CARTESIAN_POINT('',(0.0253387887792449,0.0684921297372156,0.0236383733439259));
#617=CARTESIAN_POINT('',(0.0248792890215555,0.0686561840097591,0.0254));
#618=CARTESIAN_POINT('',(-1.56125112837912E-17,-1.2490009027033E-16,0.));
#619=CARTESIAN_POINT('',(0.0365125,0.0632415051113586,0.));
#620=CARTESIAN_POINT('',(0.0365125,0.0632415051113586,0.2032));
#621=CARTESIAN_POINT('',(0.0365125,0.0632415051113586,0.2032));
#622=CARTESIAN_POINT('',(-1.56125112837912E-17,-1.2490009027033E-16,0.2032));
#623=CARTESIAN_POINT('',(0.07635875,0.13225723460245,0.2032));
#624=CARTESIAN_POINT('',(0.07635875,0.13225723460245,0.));
#625=CARTESIAN_POINT('',(0.1143,0.197973407305123,0.));
#626=CARTESIAN_POINT('',(0.1143,0.197973407305123,0.2032));
#627=CARTESIAN_POINT('',(0.1143,0.197973407305123,0.2032));
#628=CARTESIAN_POINT('',(0.07635875,0.13225723460245,0.2032));
#629=CARTESIAN_POINT('',(2.08166817117217E-17,1.38777878078145E-17,0.2032));
#630=CARTESIAN_POINT('',(2.08166817117217E-17,1.38777878078145E-17,0.));
#631=CARTESIAN_POINT('',(-0.1143,0.197973407305123,0.));
#632=CARTESIAN_POINT('',(-0.1143,0.197973407305123,0.2032));
#633=CARTESIAN_POINT('',(-0.1143,0.197973407305123,0.2032));
#634=CARTESIAN_POINT('',(2.08166817117217E-17,1.38777878078145E-17,0.2032));
#635=CARTESIAN_POINT('',(-0.07635875,0.13225723460245,0.2032));
#636=CARTESIAN_POINT('',(-0.07635875,0.13225723460245,0.));
#637=CARTESIAN_POINT('',(-0.0365125,0.0632415051113586,0.));
#638=CARTESIAN_POINT('',(-0.0365125,0.0632415051113586,0.2032));
#639=CARTESIAN_POINT('',(-0.0365125,0.0632415051113586,0.2032));
#640=CARTESIAN_POINT('',(-0.07635875,0.13225723460245,0.2032));
#641=CARTESIAN_POINT('',(-1.7347234759768E-16,4.64905891561784E-16,0.2032));
#642=CARTESIAN_POINT('',(-0.0281526752590918,0.0673843895231597,0.176036175763289));
#643=CARTESIAN_POINT('',(-0.0288247012570744,0.0670945387744557,0.177800456061148));
#644=CARTESIAN_POINT('',(-0.0281532048471611,0.0673841464728081,0.179561999992119));
#645=CARTESIAN_POINT('',(-0.0265234492021869,0.0680471859808718,0.180290686907348));
#646=CARTESIAN_POINT('',(-0.024871699169905,0.068663146165285,0.179562651709997));
#647=CARTESIAN_POINT('',(-0.0241811604449709,0.0689043643780184,0.177800354333285));
#648=CARTESIAN_POINT('',(-0.0248694366071944,0.068663942847512,0.176040784271187));
#649=CARTESIAN_POINT('',(-0.0265192932442389,0.0680488178630763,0.175308912541382));
#650=CARTESIAN_POINT('',(-0.0281526752590918,0.0673843895231597,0.176036175763289));
#651=CARTESIAN_POINT('',(-0.0288247012570744,0.0670945387744557,0.177800456061148));
#652=CARTESIAN_POINT('',(-0.0281532048471611,0.0673841464728081,0.179561999992119));
#653=CARTESIAN_POINT('',(-0.0286007808557584,0.0671911151822984,0.1778));
#654=CARTESIAN_POINT('',(-0.0281526752590918,0.0673843895231597,0.0998361757632887));
#655=CARTESIAN_POINT('',(-0.0288247012570744,0.0670945387744557,0.101600456061148));
#656=CARTESIAN_POINT('',(-0.0281532048471611,0.0673841464728081,0.103361999992119));
#657=CARTESIAN_POINT('',(-0.0265234492021869,0.0680471859808718,0.104090686907348));
#658=CARTESIAN_POINT('',(-0.024871699169905,0.068663146165285,0.103362651709997));
#659=CARTESIAN_POINT('',(-0.0241811604449709,0.0689043643780184,0.101600354333285));
#660=CARTESIAN_POINT('',(-0.0248694366071944,0.0686639428475121,0.0998407842711872));
#661=CARTESIAN_POINT('',(-0.0265192932442389,0.0680488178630763,0.0991089125413816));
#662=CARTESIAN_POINT('',(-0.0281526752590918,0.0673843895231597,0.0998361757632887));
#663=CARTESIAN_POINT('',(-0.0288247012570744,0.0670945387744557,0.101600456061148));
#664=CARTESIAN_POINT('',(-0.0281532048471611,0.0673841464728081,0.103361999992119));
#665=CARTESIAN_POINT('',(-0.0286007808557584,0.0671911151822984,0.1016));
#666=CARTESIAN_POINT('',(-0.0281526752590918,0.0673843895231597,0.0236361757632888));
#667=CARTESIAN_POINT('',(-0.0288247012570744,0.0670945387744557,0.0254004560611481));
#668=CARTESIAN_POINT('',(-0.0281532048471611,0.0673841464728081,0.0271619999921188));
#669=CARTESIAN_POINT('',(-0.0265234492021869,0.0680471859808718,0.027890686907348));
#670=CARTESIAN_POINT('',(-0.024871699169905,0.068663146165285,0.0271626517099973));
#671=CARTESIAN_POINT('',(-0.0241811604449709,0.0689043643780183,0.0254003543332854));
#672=CARTESIAN_POINT('',(-0.0248694366071944,0.0686639428475121,0.0236407842711872));
#673=CARTESIAN_POINT('',(-0.0265192932442389,0.0680488178630763,0.0229089125413816));
#674=CARTESIAN_POINT('',(-0.0281526752590918,0.0673843895231597,0.0236361757632888));
#675=CARTESIAN_POINT('',(-0.0288247012570744,0.0670945387744557,0.0254004560611481));
#676=CARTESIAN_POINT('',(-0.0281532048471611,0.0673841464728081,0.0271619999921188));
#677=CARTESIAN_POINT('',(-0.0286007808557584,0.0671911151822984,0.0254));
#678=CARTESIAN_POINT('',(-1.7347234759768E-16,4.64905891561784E-16,0.));
#679=CARTESIAN_POINT('',(-0.0189002607686116,0.0705367334647592,0.));
#680=CARTESIAN_POINT('',(-0.0189002607686116,0.0705367334647592,0.2032));
#681=CARTESIAN_POINT('',(-0.0189002607686116,0.0705367334647592,0.2032));
#682=CARTESIAN_POINT('',(-1.7347234759768E-16,4.64905891561784E-16,0.2032));
#683=CARTESIAN_POINT('',(-0.0193933110495319,0.0723768221638399,0.2032));
#684=CARTESIAN_POINT('',(-0.0193933110495319,0.0723768221638399,0.));
#685=CARTESIAN_POINT('',(-0.0193933110495319,0.0723768221638399,0.2032));
#686=CARTESIAN_POINT('',(0.,0.1143,0.2032));
#687=CARTESIAN_POINT('',(0.,0.1143,0.));
#688=CARTESIAN_POINT('',(-0.0228717091556603,0.0592339583616049,0.0254));
#689=CARTESIAN_POINT('',(-0.0228717091556603,0.0592339583616049,0.1016));
#690=CARTESIAN_POINT('',(-0.0228717091556603,0.0592339583616049,0.1778));
#691=CARTESIAN_POINT('',(0.0233308147333743,0.0590437906047547,0.0254));
#692=CARTESIAN_POINT('',(0.0233308147333743,0.0590437906047547,0.1016));
#693=CARTESIAN_POINT('',(0.0233308147333743,0.0590437906047547,0.1778));
#694=MECHANICAL_DESIGN_GEOMETRIC_PRESENTATION_REPRESENTATION('',(#385),
#695);
#695=(
GEOMETRIC_REPRESENTATION_CONTEXT(3)
GLOBAL_UNCERTAINTY_ASSIGNED_CONTEXT((#696))
GLOBAL_UNIT_ASSIGNED_CONTEXT((#699,#698,#697))
REPRESENTATION_CONTEXT('Wedge','TOP_LEVEL_ASSEMBLY_PART')
);
#696=UNCERTAINTY_MEASURE_WITH_UNIT(LENGTH_MEASURE(2.E-5),#699,
'DISTANCE_ACCURACY_VALUE','Maximum Tolerance applied to model');
#697=(
NAMED_UNIT(*)
SI_UNIT($,.STERADIAN.)
SOLID_ANGLE_UNIT()
);
#698=(
NAMED_UNIT(*)
PLANE_ANGLE_UNIT()
SI_UNIT($,.RADIAN.)
);
#699=(
LENGTH_UNIT()
NAMED_UNIT(*)
SI_UNIT($,.METRE.)
);
#700=PRODUCT_DEFINITION_SHAPE('','',#701);
#701=PRODUCT_DEFINITION('','',#703,#702);
#702=PRODUCT_DEFINITION_CONTEXT('',#709,'design');
#703=PRODUCT_DEFINITION_FORMATION_WITH_SPECIFIED_SOURCE('','',#705,
 .NOT_KNOWN.);
#704=PRODUCT_RELATED_PRODUCT_CATEGORY('','',(#705));
#705=PRODUCT('Wedge','Wedge','Wedge',(#707));
#706=PRODUCT_CATEGORY('','');
#707=PRODUCT_CONTEXT('',#709,'mechanical');
#708=APPLICATION_PROTOCOL_DEFINITION('international standard',
'ap242_managed_model_based_3d_engineering',2020,#709);
#709=APPLICATION_CONTEXT('managed model based 3d engineering');
ENDSEC;
END-ISO-10303-21;
