ISO-10303-21;
HEADER;
/* Generated by software containing ST-Developer
 * from STEP Tools, Inc. (www.steptools.com) 
 */
/* OPTION: using custom renumber hook */

FILE_DESCRIPTION(
/* description */ ('STEP AP242 Edition 2',
'CAx-IF Rec.Pracs.---Representation and Presentation of Product Manufa
cturing Information (PMI)---4.0---2014-10-13',
'CAx-IF Rec.Pracs.---3D Tessellated Geometry---0.4---2014-09-14','2;1',
'CAx-IF Rec.Pracs.---User Defined Attributes---1.5---2016-08-15'),
/* implementation_level */ '2;1');

FILE_NAME(
/* name */ 'Heat Set Chassis + Wedge - Wedge Bottom',
/* time_stamp */ '2026-08-20T18:19:24Z',
/* author */ (''),
/* organization */ (''),
/* preprocessor_version */ 'ST-DEVELOPER v20',
/* originating_system */ 'ONSHAPE BY PTC INC, 1.219',
/* authorisation */ '  ');

FILE_SCHEMA (('AP242_MANAGED_MODEL_BASED_3D_ENGINEERING_MIM_LF { 1 0 10303 442 3 1 4 }'));
ENDSEC;

DATA;
#10=SHAPE_REPRESENTATION_RELATIONSHIP('','',#235,#11);
#11=ADVANCED_BREP_SHAPE_REPRESENTATION('',(#233),#425);
#12=CONICAL_SURFACE('',#254,0.22352,0.785398163397448);
#13=CONICAL_SURFACE('',#255,0.1524,0.785398163397448);
#14=PLANE('',#243);
#15=PLANE('',#246);
#16=PLANE('',#247);
#17=PLANE('',#248);
#18=PLANE('',#250);
#19=PLANE('',#251);
#20=PLANE('',#252);
#21=LINE('',#333,#35);
#22=LINE('',#337,#36);
#23=LINE('',#354,#37);
#24=LINE('',#358,#38);
#25=LINE('',#384,#39);
#26=LINE('',#388,#40);
#27=LINE('',#389,#41);
#28=LINE('',#393,#42);
#29=LINE('',#395,#43);
#30=LINE('',#397,#44);
#31=LINE('',#399,#45);
#32=LINE('',#401,#46);
#33=LINE('',#405,#47);
#34=LINE('',#417,#48);
#35=VECTOR('',#264,1.);
#36=VECTOR('',#267,1.);
#37=VECTOR('',#272,1.);
#38=VECTOR('',#275,1.);
#39=VECTOR('',#278,1.);
#40=VECTOR('',#281,1.);
#41=VECTOR('',#282,1.);
#42=VECTOR('',#285,1.);
#43=VECTOR('',#288,1.);
#44=VECTOR('',#289,1.);
#45=VECTOR('',#292,1.);
#46=VECTOR('',#293,1.);
#47=VECTOR('',#300,1.);
#48=VECTOR('',#303,1.);
#49=CIRCLE('',#238,0.0731774);
#50=CIRCLE('',#239,0.0731774);
#51=CIRCLE('',#241,0.076073);
#52=CIRCLE('',#242,0.076073);
#53=CIRCLE('',#244,0.2286);
#54=CIRCLE('',#245,0.21082);
#55=CIRCLE('',#249,0.1524);
#56=CIRCLE('',#253,0.14732);
#57=ORIENTED_EDGE('',*,*,#113,.T.);
#58=ORIENTED_EDGE('',*,*,#114,.F.);
#59=ORIENTED_EDGE('',*,*,#115,.F.);
#60=ORIENTED_EDGE('',*,*,#116,.T.);
#61=ORIENTED_EDGE('',*,*,#117,.T.);
#62=ORIENTED_EDGE('',*,*,#118,.T.);
#63=ORIENTED_EDGE('',*,*,#119,.T.);
#64=ORIENTED_EDGE('',*,*,#120,.F.);
#65=ORIENTED_EDGE('',*,*,#121,.F.);
#66=ORIENTED_EDGE('',*,*,#122,.T.);
#67=ORIENTED_EDGE('',*,*,#123,.F.);
#68=ORIENTED_EDGE('',*,*,#124,.F.);
#69=ORIENTED_EDGE('',*,*,#114,.T.);
#70=ORIENTED_EDGE('',*,*,#125,.F.);
#71=ORIENTED_EDGE('',*,*,#126,.F.);
#72=ORIENTED_EDGE('',*,*,#127,.T.);
#73=ORIENTED_EDGE('',*,*,#128,.F.);
#74=ORIENTED_EDGE('',*,*,#129,.T.);
#75=ORIENTED_EDGE('',*,*,#130,.T.);
#76=ORIENTED_EDGE('',*,*,#119,.F.);
#77=ORIENTED_EDGE('',*,*,#127,.F.);
#78=ORIENTED_EDGE('',*,*,#131,.T.);
#79=ORIENTED_EDGE('',*,*,#132,.T.);
#80=ORIENTED_EDGE('',*,*,#115,.T.);
#81=ORIENTED_EDGE('',*,*,#133,.F.);
#82=ORIENTED_EDGE('',*,*,#134,.T.);
#83=ORIENTED_EDGE('',*,*,#125,.T.);
#84=ORIENTED_EDGE('',*,*,#117,.F.);
#85=ORIENTED_EDGE('',*,*,#132,.F.);
#86=ORIENTED_EDGE('',*,*,#135,.T.);
#87=ORIENTED_EDGE('',*,*,#133,.T.);
#88=ORIENTED_EDGE('',*,*,#116,.F.);
#89=ORIENTED_EDGE('',*,*,#136,.F.);
#90=ORIENTED_EDGE('',*,*,#137,.T.);
#91=ORIENTED_EDGE('',*,*,#128,.T.);
#92=ORIENTED_EDGE('',*,*,#122,.F.);
#93=ORIENTED_EDGE('',*,*,#130,.F.);
#94=ORIENTED_EDGE('',*,*,#138,.T.);
#95=ORIENTED_EDGE('',*,*,#139,.T.);
#96=ORIENTED_EDGE('',*,*,#120,.T.);
#97=ORIENTED_EDGE('',*,*,#139,.F.);
#98=ORIENTED_EDGE('',*,*,#140,.T.);
#99=ORIENTED_EDGE('',*,*,#136,.T.);
#100=ORIENTED_EDGE('',*,*,#121,.T.);
#101=ORIENTED_EDGE('',*,*,#137,.F.);
#102=ORIENTED_EDGE('',*,*,#140,.F.);
#103=ORIENTED_EDGE('',*,*,#138,.F.);
#104=ORIENTED_EDGE('',*,*,#129,.F.);
#105=ORIENTED_EDGE('',*,*,#131,.F.);
#106=ORIENTED_EDGE('',*,*,#126,.T.);
#107=ORIENTED_EDGE('',*,*,#134,.F.);
#108=ORIENTED_EDGE('',*,*,#135,.F.);
#109=ORIENTED_EDGE('',*,*,#113,.F.);
#110=ORIENTED_EDGE('',*,*,#123,.T.);
#111=ORIENTED_EDGE('',*,*,#118,.F.);
#112=ORIENTED_EDGE('',*,*,#124,.T.);
#113=EDGE_CURVE('',#141,#141,#161,.T.);
#114=EDGE_CURVE('',#142,#143,#49,.T.);
#115=EDGE_CURVE('',#144,#142,#21,.T.);
#116=EDGE_CURVE('',#144,#145,#50,.T.);
#117=EDGE_CURVE('',#145,#143,#22,.T.);
#118=EDGE_CURVE('',#146,#146,#162,.T.);
#119=EDGE_CURVE('',#147,#148,#51,.T.);
#120=EDGE_CURVE('',#149,#148,#23,.T.);
#121=EDGE_CURVE('',#150,#149,#52,.T.);
#122=EDGE_CURVE('',#150,#147,#24,.T.);
#123=EDGE_CURVE('',#151,#151,#163,.T.);
#124=EDGE_CURVE('',#152,#152,#164,.T.);
#125=EDGE_CURVE('',#153,#143,#25,.T.);
#126=EDGE_CURVE('',#154,#153,#53,.T.);
#127=EDGE_CURVE('',#154,#142,#26,.T.);
#128=EDGE_CURVE('',#155,#147,#27,.T.);
#129=EDGE_CURVE('',#155,#156,#54,.T.);
#130=EDGE_CURVE('',#156,#148,#28,.T.);
#131=EDGE_CURVE('',#154,#157,#29,.T.);
#132=EDGE_CURVE('',#157,#144,#30,.T.);
#133=EDGE_CURVE('',#158,#145,#31,.T.);
#134=EDGE_CURVE('',#158,#153,#32,.F.);
#135=EDGE_CURVE('',#157,#158,#55,.T.);
#136=EDGE_CURVE('',#159,#150,#33,.T.);
#137=EDGE_CURVE('',#159,#155,#165,.T.);
#138=EDGE_CURVE('',#156,#160,#166,.T.);
#139=EDGE_CURVE('',#160,#149,#34,.T.);
#140=EDGE_CURVE('',#160,#159,#56,.T.);
#141=VERTEX_POINT('',#329);
#142=VERTEX_POINT('',#331);
#143=VERTEX_POINT('',#332);
#144=VERTEX_POINT('',#334);
#145=VERTEX_POINT('',#336);
#146=VERTEX_POINT('',#349);
#147=VERTEX_POINT('',#352);
#148=VERTEX_POINT('',#353);
#149=VERTEX_POINT('',#355);
#150=VERTEX_POINT('',#357);
#151=VERTEX_POINT('',#370);
#152=VERTEX_POINT('',#382);
#153=VERTEX_POINT('',#385);
#154=VERTEX_POINT('',#387);
#155=VERTEX_POINT('',#390);
#156=VERTEX_POINT('',#392);
#157=VERTEX_POINT('',#396);
#158=VERTEX_POINT('',#400);
#159=VERTEX_POINT('',#406);
#160=VERTEX_POINT('',#416);
#161=B_SPLINE_CURVE_WITH_KNOTS('',3,(#318,#319,#320,#321,#322,#323,#324,
#325,#326,#327,#328),.UNSPECIFIED.,.T.,.F.,(1,1,1,1,1,1,1,1,1,1,1,1,1,1,
1),(-0.00527068491857793,-0.00351378994571862,-0.00175689497285931,7.57384297283987E-19,
0.00175689497285931,0.00351378994571862,0.00527068491857793,0.00702757989143724,
0.00878447486429655,0.0105413698371559,0.0122982648100152,0.0140551597828745,
0.0158120547557338,0.0175689497285931,0.0193258447014524),.UNSPECIFIED.);
#162=B_SPLINE_CURVE_WITH_KNOTS('',3,(#338,#339,#340,#341,#342,#343,#344,
#345,#346,#347,#348),.UNSPECIFIED.,.T.,.F.,(1,1,1,1,1,1,1,1,1,1,1,1,1,1,
1),(-0.00527068491857793,-0.00351378994571862,-0.00175689497285931,3.7895416196553E-19,
0.00175689497285931,0.00351378994571862,0.00527068491857793,0.00702757989143724,
0.00878447486429655,0.0105413698371559,0.0122982648100152,0.0140551597828745,
0.0158120547557338,0.0175689497285931,0.0193258447014524),.UNSPECIFIED.);
#163=B_SPLINE_CURVE_WITH_KNOTS('',3,(#359,#360,#361,#362,#363,#364,#365,
#366,#367,#368,#369),.UNSPECIFIED.,.T.,.F.,(1,1,1,1,1,1,1,1,1,1,1,1,1,1,
1),(-0.00527066197345355,-0.00351377464896904,-0.00175688732448452,4.70448784211765E-19,
0.00175688732448452,0.00351377464896904,0.00527066197345355,0.00702754929793807,
0.00878443662242259,0.0105413239469071,0.0122982112713916,0.0140550985958761,
0.0158119859203607,0.0175688732448452,0.0193257605693297),.UNSPECIFIED.);
#164=B_SPLINE_CURVE_WITH_KNOTS('',3,(#371,#372,#373,#374,#375,#376,#377,
#378,#379,#380,#381),.UNSPECIFIED.,.T.,.F.,(1,1,1,1,1,1,1,1,1,1,1,1,1,1,
1),(-0.00527066197345354,-0.00351377464896903,-0.00175688732448451,7.31660567262898E-19,
0.00175688732448452,0.00351377464896903,0.00527066197345354,0.00702754929793806,
0.00878443662242257,0.0105413239469071,0.0122982112713916,0.0140550985958761,
0.0158119859203606,0.0175688732448451,0.0193257605693297),.UNSPECIFIED.);
#165=B_SPLINE_CURVE_WITH_KNOTS('',3,(#407,#408,#409,#410),.UNSPECIFIED.,
 .F.,.F.,(4,4),(0.,0.0898212297457693),.UNSPECIFIED.);
#166=B_SPLINE_CURVE_WITH_KNOTS('',3,(#412,#413,#414,#415),.UNSPECIFIED.,
 .F.,.F.,(4,4),(0.,0.0898212297457691),.UNSPECIFIED.);
#167=EDGE_LOOP('',(#57));
#168=EDGE_LOOP('',(#58,#59,#60,#61));
#169=EDGE_LOOP('',(#62));
#170=EDGE_LOOP('',(#63,#64,#65,#66));
#171=EDGE_LOOP('',(#67));
#172=EDGE_LOOP('',(#68));
#173=EDGE_LOOP('',(#69,#70,#71,#72));
#174=EDGE_LOOP('',(#73,#74,#75,#76));
#175=EDGE_LOOP('',(#77,#78,#79,#80));
#176=EDGE_LOOP('',(#81,#82,#83,#84));
#177=EDGE_LOOP('',(#85,#86,#87,#88));
#178=EDGE_LOOP('',(#89,#90,#91,#92));
#179=EDGE_LOOP('',(#93,#94,#95,#96));
#180=EDGE_LOOP('',(#97,#98,#99,#100));
#181=EDGE_LOOP('',(#101,#102,#103,#104));
#182=EDGE_LOOP('',(#105,#106,#107,#108));
#183=EDGE_LOOP('',(#109));
#184=EDGE_LOOP('',(#110));
#185=EDGE_LOOP('',(#111));
#186=EDGE_LOOP('',(#112));
#187=FACE_BOUND('',#167,.T.);
#188=FACE_BOUND('',#168,.T.);
#189=FACE_BOUND('',#169,.T.);
#190=FACE_BOUND('',#170,.T.);
#191=FACE_BOUND('',#171,.T.);
#192=FACE_BOUND('',#172,.T.);
#193=FACE_BOUND('',#173,.T.);
#194=FACE_BOUND('',#174,.T.);
#195=FACE_BOUND('',#175,.T.);
#196=FACE_BOUND('',#176,.T.);
#197=FACE_BOUND('',#177,.T.);
#198=FACE_BOUND('',#178,.T.);
#199=FACE_BOUND('',#179,.T.);
#200=FACE_BOUND('',#180,.T.);
#201=FACE_BOUND('',#181,.T.);
#202=FACE_BOUND('',#182,.T.);
#203=FACE_BOUND('',#183,.T.);
#204=FACE_BOUND('',#184,.T.);
#205=FACE_BOUND('',#185,.T.);
#206=FACE_BOUND('',#186,.T.);
#207=CYLINDRICAL_SURFACE('',#237,0.0731774);
#208=CYLINDRICAL_SURFACE('',#240,0.076073);
#209=CYLINDRICAL_SURFACE('',#256,0.0022479);
#210=CYLINDRICAL_SURFACE('',#257,0.0022479);
#211=ADVANCED_FACE('',(#187,#188,#189),#207,.F.);
#212=ADVANCED_FACE('',(#190,#191,#192),#208,.T.);
#213=ADVANCED_FACE('',(#193,#194),#14,.F.);
#214=ADVANCED_FACE('',(#195),#15,.T.);
#215=ADVANCED_FACE('',(#196),#16,.F.);
#216=ADVANCED_FACE('',(#197),#17,.T.);
#217=ADVANCED_FACE('',(#198),#18,.F.);
#218=ADVANCED_FACE('',(#199),#19,.T.);
#219=ADVANCED_FACE('',(#200),#20,.T.);
#220=ADVANCED_FACE('',(#201),#12,.F.);
#221=ADVANCED_FACE('',(#202),#13,.T.);
#222=ADVANCED_FACE('',(#203,#204),#209,.F.);
#223=ADVANCED_FACE('',(#205,#206),#210,.F.);
#224=CLOSED_SHELL('',(#211,#212,#213,#214,#215,#216,#217,#218,#219,#220,
#221,#222,#223));
#225=STYLED_ITEM('',(#226),#233);
#226=PRESENTATION_STYLE_ASSIGNMENT((#227));
#227=SURFACE_STYLE_USAGE(.BOTH.,#228);
#228=SURFACE_SIDE_STYLE('',(#229));
#229=SURFACE_STYLE_FILL_AREA(#230);
#230=FILL_AREA_STYLE('',(#231));
#231=FILL_AREA_STYLE_COLOUR('',#232);
#232=COLOUR_RGB('',0.231372549019608,0.380392156862745,0.705882352941177);
#233=MANIFOLD_SOLID_BREP('Wedge Bottom',#224);
#234=SHAPE_DEFINITION_REPRESENTATION(#430,#235);
#235=SHAPE_REPRESENTATION('Wedge Bottom',(#236),#425);
#236=AXIS2_PLACEMENT_3D('',#316,#258,#259);
#237=AXIS2_PLACEMENT_3D('',#317,#260,#261);
#238=AXIS2_PLACEMENT_3D('',#330,#262,#263);
#239=AXIS2_PLACEMENT_3D('',#335,#265,#266);
#240=AXIS2_PLACEMENT_3D('',#350,#268,#269);
#241=AXIS2_PLACEMENT_3D('',#351,#270,#271);
#242=AXIS2_PLACEMENT_3D('',#356,#273,#274);
#243=AXIS2_PLACEMENT_3D('',#383,#276,#277);
#244=AXIS2_PLACEMENT_3D('',#386,#279,#280);
#245=AXIS2_PLACEMENT_3D('',#391,#283,#284);
#246=AXIS2_PLACEMENT_3D('',#394,#286,#287);
#247=AXIS2_PLACEMENT_3D('',#398,#290,#291);
#248=AXIS2_PLACEMENT_3D('',#402,#294,#295);
#249=AXIS2_PLACEMENT_3D('',#403,#296,#297);
#250=AXIS2_PLACEMENT_3D('',#404,#298,#299);
#251=AXIS2_PLACEMENT_3D('',#411,#301,#302);
#252=AXIS2_PLACEMENT_3D('',#418,#304,#305);
#253=AXIS2_PLACEMENT_3D('',#419,#306,#307);
#254=AXIS2_PLACEMENT_3D('',#420,#308,#309);
#255=AXIS2_PLACEMENT_3D('',#421,#310,#311);
#256=AXIS2_PLACEMENT_3D('',#422,#312,#313);
#257=AXIS2_PLACEMENT_3D('',#423,#314,#315);
#258=DIRECTION('',(0.,0.,1.));
#259=DIRECTION('',(1.,0.,0.));
#260=DIRECTION('',(0.,0.,1.));
#261=DIRECTION('',(1.,0.,0.));
#262=DIRECTION('',(0.,0.,-1.));
#263=DIRECTION('',(-1.,0.,0.));
#264=DIRECTION('',(0.,0.,1.));
#265=DIRECTION('',(0.,0.,-1.));
#266=DIRECTION('',(-1.,0.,0.));
#267=DIRECTION('',(0.,0.,1.));
#268=DIRECTION('',(0.,0.,1.));
#269=DIRECTION('',(1.,0.,0.));
#270=DIRECTION('',(0.,0.,-1.));
#271=DIRECTION('',(1.,0.,0.));
#272=DIRECTION('',(0.,0.,1.));
#273=DIRECTION('',(0.,0.,-1.));
#274=DIRECTION('',(1.,0.,0.));
#275=DIRECTION('',(0.,0.,1.));
#276=DIRECTION('',(0.,0.,-1.));
#277=DIRECTION('',(1.,0.,0.));
#278=DIRECTION('',(-0.5,-0.866025403784439,0.));
#279=DIRECTION('',(0.,0.,-1.));
#280=DIRECTION('',(1.,0.,0.));
#281=DIRECTION('',(0.5,-0.866025403784439,0.));
#282=DIRECTION('',(0.5,-0.866025403784439,0.));
#283=DIRECTION('',(0.,0.,-1.));
#284=DIRECTION('',(-1.,0.,0.));
#285=DIRECTION('',(-0.5,-0.866025403784439,0.));
#286=DIRECTION('',(-0.866025403784439,-0.5,0.));
#287=DIRECTION('',(0.5,-0.866025403784439,0.));
#288=DIRECTION('',(0.353553390593274,-0.612372435695795,-0.707106781186548));
#289=DIRECTION('',(0.5,-0.866025403784439,0.));
#290=DIRECTION('',(-0.866025403784439,0.5,0.));
#291=DIRECTION('',(-0.5,-0.866025403784439,0.));
#292=DIRECTION('',(-0.5,-0.866025403784439,0.));
#293=DIRECTION('',(-0.353553390593274,-0.612372435695795,-0.707106781186548));
#294=DIRECTION('',(0.,0.,-1.));
#295=DIRECTION('',(1.,0.,0.));
#296=DIRECTION('',(0.,0.,-1.));
#297=DIRECTION('',(-1.,0.,0.));
#298=DIRECTION('',(-0.866025403784439,-0.5,0.));
#299=DIRECTION('',(0.5,-0.866025403784439,0.));
#300=DIRECTION('',(0.5,-0.866025403784439,0.));
#301=DIRECTION('',(-0.866025403784439,0.5,0.));
#302=DIRECTION('',(-0.5,-0.866025403784439,0.));
#303=DIRECTION('',(-0.5,-0.866025403784439,0.));
#304=DIRECTION('',(0.,0.,1.));
#305=DIRECTION('',(1.,0.,0.));
#306=DIRECTION('',(0.,0.,1.));
#307=DIRECTION('',(1.,0.,0.));
#308=DIRECTION('',(0.,0.,1.));
#309=DIRECTION('',(1.,0.,0.));
#310=DIRECTION('',(0.,0.,1.));
#311=DIRECTION('',(1.,0.,0.));
#312=DIRECTION('',(0.,-1.,0.));
#313=DIRECTION('',(0.,0.,-1.));
#314=DIRECTION('',(0.,-1.,0.));
#315=DIRECTION('',(0.,0.,-1.));
#316=CARTESIAN_POINT('',(0.,0.,0.));
#317=CARTESIAN_POINT('',(-1.38777878078145E-17,5.55111512312578E-17,-0.0762));
#318=CARTESIAN_POINT('',(0.00176348002816682,0.0731600927146738,-0.0525601034395922));
#319=CARTESIAN_POINT('',(-4.52009850151553E-7,0.0731860451963487,-0.0532916564939152));
#320=CARTESIAN_POINT('',(-0.00176167198876621,0.0731601264999316,-0.0525606705847471));
#321=CARTESIAN_POINT('',(-0.00249075872894628,0.0731342395767068,-0.0508018263956169));
#322=CARTESIAN_POINT('',(-0.00176269118364322,0.073160110007421,-0.0490392050977111));
#323=CARTESIAN_POINT('',(-3.32289845752848E-7,0.0731860251681279,-0.0483091474068025));
#324=CARTESIAN_POINT('',(0.00175923493863222,0.0731601892939892,-0.049036806124023));
#325=CARTESIAN_POINT('',(0.00249116952128902,0.0731342282400739,-0.0507973500545605));
#326=CARTESIAN_POINT('',(0.00176348002816682,0.0731600927146738,-0.0525601034395922));
#327=CARTESIAN_POINT('',(-4.52009850151553E-7,0.0731860451963487,-0.0532916564939152));
#328=CARTESIAN_POINT('',(-0.00176167198876621,0.0731601264999316,-0.0525606705847471));
#329=CARTESIAN_POINT('',(7.79357900831371E-19,0.0731774,-0.0530479));
#330=CARTESIAN_POINT('',(-1.38777878078145E-17,5.55111512312578E-17,0.));
#331=CARTESIAN_POINT('',(-0.0365887,0.0633734873828954,0.));
#332=CARTESIAN_POINT('',(0.0365887,0.0633734873828954,0.));
#333=CARTESIAN_POINT('',(-0.0365887,0.0633734873828954,-0.0762));
#334=CARTESIAN_POINT('',(-0.0365887,0.0633734873828954,-0.0762));
#335=CARTESIAN_POINT('',(-1.38777878078145E-17,5.55111512312578E-17,-0.0762));
#336=CARTESIAN_POINT('',(0.0365887,0.0633734873828954,-0.0762));
#337=CARTESIAN_POINT('',(0.0365887,0.0633734873828954,-0.0762));
#338=CARTESIAN_POINT('',(0.00176348002816683,0.0731600927146738,-0.0271601034395921));
#339=CARTESIAN_POINT('',(-4.52009850153477E-7,0.0731860451963487,-0.0278916564939152));
#340=CARTESIAN_POINT('',(-0.00176167198876622,0.0731601264999316,-0.027160670584747));
#341=CARTESIAN_POINT('',(-0.00249075872894628,0.0731342395767068,-0.0254018263956169));
#342=CARTESIAN_POINT('',(-0.00176269118364322,0.073160110007421,-0.0236392050977111));
#343=CARTESIAN_POINT('',(-3.32289845755844E-7,0.0731860251681279,-0.0229091474068025));
#344=CARTESIAN_POINT('',(0.00175923493863222,0.0731601892939892,-0.023636806124023));
#345=CARTESIAN_POINT('',(0.00249116952128902,0.0731342282400738,-0.0253973500545605));
#346=CARTESIAN_POINT('',(0.00176348002816683,0.0731600927146738,-0.0271601034395921));
#347=CARTESIAN_POINT('',(-4.52009850153477E-7,0.0731860451963487,-0.0278916564939152));
#348=CARTESIAN_POINT('',(-0.00176167198876622,0.0731601264999316,-0.027160670584747));
#349=CARTESIAN_POINT('',(3.89948565397873E-19,0.0731774,-0.0276479));
#350=CARTESIAN_POINT('',(6.93889390390723E-18,-1.38777878078145E-17,-0.0635));
#351=CARTESIAN_POINT('',(6.93889390390723E-18,-1.38777878078145E-17,0.));
#352=CARTESIAN_POINT('',(-0.0335521881780091,0.0682740946294235,0.));
#353=CARTESIAN_POINT('',(0.033552188178009,0.0682740946294235,0.));
#354=CARTESIAN_POINT('',(0.0335521881780091,0.0682740946294235,-0.0635));
#355=CARTESIAN_POINT('',(0.0335521881780091,0.0682740946294235,-0.0635));
#356=CARTESIAN_POINT('',(6.93889390390723E-18,-1.38777878078145E-17,-0.0635));
#357=CARTESIAN_POINT('',(-0.0335521881780091,0.0682740946294235,-0.0635));
#358=CARTESIAN_POINT('',(-0.0335521881780091,0.0682740946294235,-0.0635));
#359=CARTESIAN_POINT('',(0.00176348023232435,0.0760563514857111,-0.0525601037148186));
#360=CARTESIAN_POINT('',(-4.52094312435914E-7,0.0760813161307872,-0.0532916563054339));
#361=CARTESIAN_POINT('',(-0.00176167185507461,0.0760563839911404,-0.052560671063446));
#362=CARTESIAN_POINT('',(-0.00249075836011919,0.0760314832964208,-0.0508018254885823));
#363=CARTESIAN_POINT('',(-0.00176269279342766,0.0760563680930574,-0.0490392067736565));
#364=CARTESIAN_POINT('',(-3.31477976176027E-7,0.0760812968726321,-0.0483091468738228));
#365=CARTESIAN_POINT('',(0.00175923463454981,0.0760564443913425,-0.0490368065795232));
#366=CARTESIAN_POINT('',(0.00249116954476097,0.0760314723854778,-0.0507973483852895));
#367=CARTESIAN_POINT('',(0.00176348023232435,0.0760563514857111,-0.0525601037148186));
#368=CARTESIAN_POINT('',(-4.52094312435914E-7,0.0760813161307872,-0.0532916563054339));
#369=CARTESIAN_POINT('',(-0.00176167185507461,0.0760563839911404,-0.052560671063446));
#370=CARTESIAN_POINT('',(4.84097343671446E-19,0.076073,-0.0530479));
#371=CARTESIAN_POINT('',(0.00176348023232437,0.0760563514857111,-0.0271601037148186));
#372=CARTESIAN_POINT('',(-4.52094312441335E-7,0.0760813161307872,-0.0278916563054338));
#373=CARTESIAN_POINT('',(-0.0017616718550746,0.0760563839911404,-0.027160671063446));
#374=CARTESIAN_POINT('',(-0.00249075836011919,0.0760314832964207,-0.0254018254885823));
#375=CARTESIAN_POINT('',(-0.00176269279342766,0.0760563680930574,-0.0236392067736565));
#376=CARTESIAN_POINT('',(-3.31477976181853E-7,0.0760812968726321,-0.0229091468738228));
#377=CARTESIAN_POINT('',(0.00175923463454981,0.0760564443913425,-0.0236368065795232));
#378=CARTESIAN_POINT('',(0.00249116954476096,0.0760314723854777,-0.0253973483852895));
#379=CARTESIAN_POINT('',(0.00176348023232437,0.0760563514857111,-0.0271601037148186));
#380=CARTESIAN_POINT('',(-4.52094312441335E-7,0.0760813161307872,-0.0278916563054338));
#381=CARTESIAN_POINT('',(-0.0017616718550746,0.0760563839911404,-0.027160671063446));
#382=CARTESIAN_POINT('',(7.52887347077672E-19,0.076073,-0.0276479));
#383=CARTESIAN_POINT('',(4.16333634234433E-17,0.1143,0.));
#384=CARTESIAN_POINT('',(0.07635875,0.13225723460245,0.));
#385=CARTESIAN_POINT('',(0.1143,0.197973407305123,0.));
#386=CARTESIAN_POINT('',(2.08166817117217E-17,1.38777878078145E-17,0.));
#387=CARTESIAN_POINT('',(-0.1143,0.197973407305123,0.));
#388=CARTESIAN_POINT('',(-0.07635875,0.13225723460245,0.));
#389=CARTESIAN_POINT('',(-0.0704419558811159,0.132169046570618,0.));
#390=CARTESIAN_POINT('',(-0.100979984095633,0.185062463001133,0.));
#391=CARTESIAN_POINT('',(1.38777878078145E-17,-1.2490009027033E-16,0.));
#392=CARTESIAN_POINT('',(0.100979984095633,0.185062463001133,0.));
#393=CARTESIAN_POINT('',(0.0704419558811159,0.132169046570618,0.));
#394=CARTESIAN_POINT('',(-0.07635875,0.13225723460245,-0.0762));
#395=CARTESIAN_POINT('',(-7.53314526074565E-17,-4.16333634234433E-17,-0.2286));
#396=CARTESIAN_POINT('',(-0.0762,0.131982271536748,-0.0762));
#397=CARTESIAN_POINT('',(-0.07635875,0.13225723460245,-0.0762));
#398=CARTESIAN_POINT('',(0.07635875,0.13225723460245,-0.0762));
#399=CARTESIAN_POINT('',(0.07635875,0.13225723460245,-0.0762));
#400=CARTESIAN_POINT('',(0.0762,0.131982271536748,-0.0762));
#401=CARTESIAN_POINT('',(4.48537152915163E-17,1.07852076885685E-32,-0.2286));
#402=CARTESIAN_POINT('',(4.16333634234433E-17,0.1143,-0.0762));
#403=CARTESIAN_POINT('',(2.08166817117217E-17,1.38777878078145E-17,-0.0762));
#404=CARTESIAN_POINT('',(-0.0704419558811159,0.132169046570618,-0.0635));
#405=CARTESIAN_POINT('',(-0.0704419558811159,0.132169046570618,-0.0635));
#406=CARTESIAN_POINT('',(-0.0692167848194174,0.130046988043793,-0.0635));
#407=CARTESIAN_POINT('',(-0.0692167848194174,0.130046988043793,-0.0635));
#408=CARTESIAN_POINT('',(-0.0798054664173382,0.148387122556561,-0.042335231133667));
#409=CARTESIAN_POINT('',(-0.0903929137140212,0.166725119196874,-0.0211679926385979));
#410=CARTESIAN_POINT('',(-0.100979984095633,0.185062463001133,4.49531969378158E-19));
#411=CARTESIAN_POINT('',(0.0704419558811159,0.132169046570618,-0.0635));
#412=CARTESIAN_POINT('',(0.100979984095633,0.185062463001133,0.));
#413=CARTESIAN_POINT('',(0.090392913714021,0.166725119196874,-0.0211679926385979));
#414=CARTESIAN_POINT('',(0.0798054664173382,0.148387122556562,-0.0423352311336671));
#415=CARTESIAN_POINT('',(0.0692167848194174,0.130046988043793,-0.0635));
#416=CARTESIAN_POINT('',(0.0692167848194174,0.130046988043793,-0.0635));
#417=CARTESIAN_POINT('',(0.0704419558811159,0.132169046570618,-0.0635));
#418=CARTESIAN_POINT('',(0.,0.145986743691448,-0.0635));
#419=CARTESIAN_POINT('',(1.38777878078145E-17,-1.2490009027033E-16,-0.0635));
#420=CARTESIAN_POINT('',(1.38777878078145E-17,-1.2490009027033E-16,0.0127));
#421=CARTESIAN_POINT('',(2.08166817117217E-17,1.38777878078145E-17,-0.0762));
#422=CARTESIAN_POINT('',(0.,0.125932094629423,-0.0508));
#423=CARTESIAN_POINT('',(0.,0.125932094629423,-0.0254));
#424=MECHANICAL_DESIGN_GEOMETRIC_PRESENTATION_REPRESENTATION('',(#225),
#425);
#425=(
GEOMETRIC_REPRESENTATION_CONTEXT(3)
GLOBAL_UNCERTAINTY_ASSIGNED_CONTEXT((#426))
GLOBAL_UNIT_ASSIGNED_CONTEXT((#429,#428,#427))
REPRESENTATION_CONTEXT('Wedge Bottom','TOP_LEVEL_ASSEMBLY_PART')
);
#426=UNCERTAINTY_MEASURE_WITH_UNIT(LENGTH_MEASURE(2.E-5),#429,
'DISTANCE_ACCURACY_VALUE','Maximum Tolerance applied to model');
#427=(
NAMED_UNIT(*)
SI_UNIT($,.STERADIAN.)
SOLID_ANGLE_UNIT()
);
#428=(
NAMED_UNIT(*)
PLANE_ANGLE_UNIT()
SI_UNIT($,.RADIAN.)
);
#429=(
LENGTH_UNIT()
NAMED_UNIT(*)
SI_UNIT($,.METRE.)
);
#430=PRODUCT_DEFINITION_SHAPE('','',#431);
#431=PRODUCT_DEFINITION('','',#433,#432);
#432=PRODUCT_DEFINITION_CONTEXT('',#439,'design');
#433=PRODUCT_DEFINITION_FORMATION_WITH_SPECIFIED_SOURCE('','',#435,
 .NOT_KNOWN.);
#434=PRODUCT_RELATED_PRODUCT_CATEGORY('','',(#435));
#435=PRODUCT('Wedge Bottom','Wedge Bottom','Wedge Bottom',(#437));
#436=PRODUCT_CATEGORY('','');
#437=PRODUCT_CONTEXT('',#439,'mechanical');
#438=APPLICATION_PROTOCOL_DEFINITION('international standard',
'ap242_managed_model_based_3d_engineering',2020,#439);
#439=APPLICATION_CONTEXT('managed model based 3d engineering');
ENDSEC;
END-ISO-10303-21;
