ISO-10303-21;
HEADER;
/* Generated by software containing ST-Developer
 * from STEP Tools, Inc. (www.steptools.com) 
 */
/* OPTION: using custom renumber hook */

FILE_DESCRIPTION(
/* description */ ('STEP AP242 Edition 2',
'CAx-IF Rec.Pracs.---Representation and Presentation of Product Manufa
cturing Information (PMI)---4.0---2014-10-13',
'CAx-IF Rec.Pracs.---3D Tessellated Geometry---0.4---2014-09-14','2;1',
'CAx-IF Rec.Pracs.---User Defined Attributes---1.5---2016-08-15'),
/* implementation_level */ '2;1');

FILE_NAME(
/* name */ 'Master V3 - Part 1',
/* time_stamp */ '2026-08-16T04:12:34Z',
/* author */ (''),
/* organization */ (''),
/* preprocessor_version */ 'ST-DEVELOPER v20',
/* originating_system */ 'ONSHAPE BY PTC INC, 1.219',
/* authorisation */ '  ');

FILE_SCHEMA (('AP242_MANAGED_MODEL_BASED_3D_ENGINEERING_MIM_LF { 1 0 10303 442 3 1 4 }'));
ENDSEC;

DATA;
#10=SHAPE_REPRESENTATION_RELATIONSHIP('','',#1192,#11);
#11=ADVANCED_BREP_SHAPE_REPRESENTATION('',(#1190),#2037);
#12=CYLINDRICAL_SURFACE('',#1228,0.00508);
#13=CYLINDRICAL_SURFACE('',#1235,0.00508);
#14=CYLINDRICAL_SURFACE('',#1242,0.00508);
#15=CYLINDRICAL_SURFACE('',#1249,0.00508);
#16=CYLINDRICAL_SURFACE('',#1256,0.00508);
#17=CYLINDRICAL_SURFACE('',#1263,0.00508);
#18=CYLINDRICAL_SURFACE('',#1268,0.073025);
#19=CYLINDRICAL_SURFACE('',#1284,0.057785);
#20=CYLINDRICAL_SURFACE('',#1310,0.00508);
#21=CYLINDRICAL_SURFACE('',#1311,0.00508);
#22=CYLINDRICAL_SURFACE('',#1312,0.00508);
#23=CYLINDRICAL_SURFACE('',#1313,0.00508);
#24=CYLINDRICAL_SURFACE('',#1314,0.00508);
#25=CYLINDRICAL_SURFACE('',#1315,0.00508);
#26=CYLINDRICAL_SURFACE('',#1316,0.00508);
#27=CYLINDRICAL_SURFACE('',#1317,0.00508);
#28=CYLINDRICAL_SURFACE('',#1318,0.00508);
#29=CYLINDRICAL_SURFACE('',#1319,0.00508);
#30=CYLINDRICAL_SURFACE('',#1320,0.00508);
#31=CYLINDRICAL_SURFACE('',#1321,0.00508);
#32=LINE('',#1693,#140);
#33=LINE('',#1695,#141);
#34=LINE('',#1704,#142);
#35=LINE('',#1706,#143);
#36=LINE('',#1711,#144);
#37=LINE('',#1713,#145);
#38=LINE('',#1722,#146);
#39=LINE('',#1724,#147);
#40=LINE('',#1729,#148);
#41=LINE('',#1731,#149);
#42=LINE('',#1740,#150);
#43=LINE('',#1742,#151);
#44=LINE('',#1747,#152);
#45=LINE('',#1749,#153);
#46=LINE('',#1758,#154);
#47=LINE('',#1760,#155);
#48=LINE('',#1765,#156);
#49=LINE('',#1767,#157);
#50=LINE('',#1776,#158);
#51=LINE('',#1778,#159);
#52=LINE('',#1783,#160);
#53=LINE('',#1785,#161);
#54=LINE('',#1789,#162);
#55=LINE('',#1791,#163);
#56=LINE('',#1793,#164);
#57=LINE('',#1795,#165);
#58=LINE('',#1799,#166);
#59=LINE('',#1803,#167);
#60=LINE('',#1805,#168);
#61=LINE('',#1807,#169);
#62=LINE('',#1809,#170);
#63=LINE('',#1811,#171);
#64=LINE('',#1813,#172);
#65=LINE('',#1815,#173);
#66=LINE('',#1817,#174);
#67=LINE('',#1819,#175);
#68=LINE('',#1821,#176);
#69=LINE('',#1823,#177);
#70=LINE('',#1825,#178);
#71=LINE('',#1827,#179);
#72=LINE('',#1831,#180);
#73=LINE('',#1835,#181);
#74=LINE('',#1836,#182);
#75=LINE('',#1838,#183);
#76=LINE('',#1840,#184);
#77=LINE('',#1842,#185);
#78=LINE('',#1844,#186);
#79=LINE('',#1846,#187);
#80=LINE('',#1848,#188);
#81=LINE('',#1850,#189);
#82=LINE('',#1852,#190);
#83=LINE('',#1854,#191);
#84=LINE('',#1858,#192);
#85=LINE('',#1862,#193);
#86=LINE('',#1863,#194);
#87=LINE('',#1865,#195);
#88=LINE('',#1867,#196);
#89=LINE('',#1869,#197);
#90=LINE('',#1871,#198);
#91=LINE('',#1873,#199);
#92=LINE('',#1875,#200);
#93=LINE('',#1877,#201);
#94=LINE('',#1879,#202);
#95=LINE('',#1881,#203);
#96=LINE('',#1885,#204);
#97=LINE('',#1889,#205);
#98=LINE('',#1890,#206);
#99=LINE('',#1892,#207);
#100=LINE('',#1894,#208);
#101=LINE('',#1896,#209);
#102=LINE('',#1898,#210);
#103=LINE('',#1900,#211);
#104=LINE('',#1902,#212);
#105=LINE('',#1904,#213);
#106=LINE('',#1906,#214);
#107=LINE('',#1908,#215);
#108=LINE('',#1912,#216);
#109=LINE('',#1916,#217);
#110=LINE('',#1917,#218);
#111=LINE('',#1919,#219);
#112=LINE('',#1921,#220);
#113=LINE('',#1923,#221);
#114=LINE('',#1925,#222);
#115=LINE('',#1927,#223);
#116=LINE('',#1929,#224);
#117=LINE('',#1931,#225);
#118=LINE('',#1933,#226);
#119=LINE('',#1935,#227);
#120=LINE('',#1939,#228);
#121=LINE('',#1943,#229);
#122=LINE('',#1944,#230);
#123=LINE('',#1946,#231);
#124=LINE('',#1948,#232);
#125=LINE('',#1950,#233);
#126=LINE('',#1952,#234);
#127=LINE('',#1956,#235);
#128=LINE('',#1958,#236);
#129=LINE('',#1962,#237);
#130=LINE('',#1964,#238);
#131=LINE('',#1968,#239);
#132=LINE('',#1970,#240);
#133=LINE('',#1974,#241);
#134=LINE('',#1976,#242);
#135=LINE('',#1980,#243);
#136=LINE('',#1982,#244);
#137=LINE('',#1986,#245);
#138=LINE('',#1993,#246);
#139=LINE('',#1995,#247);
#140=VECTOR('',#1328,1.);
#141=VECTOR('',#1329,1.);
#142=VECTOR('',#1338,1.);
#143=VECTOR('',#1339,1.);
#144=VECTOR('',#1344,1.);
#145=VECTOR('',#1345,1.);
#146=VECTOR('',#1354,1.);
#147=VECTOR('',#1355,1.);
#148=VECTOR('',#1360,1.);
#149=VECTOR('',#1361,1.);
#150=VECTOR('',#1370,1.);
#151=VECTOR('',#1371,1.);
#152=VECTOR('',#1376,1.);
#153=VECTOR('',#1377,1.);
#154=VECTOR('',#1386,1.);
#155=VECTOR('',#1387,1.);
#156=VECTOR('',#1392,1.);
#157=VECTOR('',#1393,1.);
#158=VECTOR('',#1402,1.);
#159=VECTOR('',#1403,1.);
#160=VECTOR('',#1408,1.);
#161=VECTOR('',#1409,1.);
#162=VECTOR('',#1414,1.);
#163=VECTOR('',#1415,1.);
#164=VECTOR('',#1416,1.);
#165=VECTOR('',#1417,1.);
#166=VECTOR('',#1422,1.);
#167=VECTOR('',#1427,1.);
#168=VECTOR('',#1428,1.);
#169=VECTOR('',#1429,1.);
#170=VECTOR('',#1430,1.);
#171=VECTOR('',#1433,1.);
#172=VECTOR('',#1434,1.);
#173=VECTOR('',#1435,1.);
#174=VECTOR('',#1438,1.);
#175=VECTOR('',#1439,1.);
#176=VECTOR('',#1440,1.);
#177=VECTOR('',#1443,1.);
#178=VECTOR('',#1444,1.);
#179=VECTOR('',#1445,1.);
#180=VECTOR('',#1450,1.);
#181=VECTOR('',#1455,1.);
#182=VECTOR('',#1456,1.);
#183=VECTOR('',#1457,1.);
#184=VECTOR('',#1460,1.);
#185=VECTOR('',#1461,1.);
#186=VECTOR('',#1464,1.);
#187=VECTOR('',#1465,1.);
#188=VECTOR('',#1466,1.);
#189=VECTOR('',#1469,1.);
#190=VECTOR('',#1470,1.);
#191=VECTOR('',#1471,1.);
#192=VECTOR('',#1476,1.);
#193=VECTOR('',#1481,1.);
#194=VECTOR('',#1482,1.);
#195=VECTOR('',#1483,1.);
#196=VECTOR('',#1486,1.);
#197=VECTOR('',#1487,1.);
#198=VECTOR('',#1490,1.);
#199=VECTOR('',#1491,1.);
#200=VECTOR('',#1492,1.);
#201=VECTOR('',#1495,1.);
#202=VECTOR('',#1496,1.);
#203=VECTOR('',#1497,1.);
#204=VECTOR('',#1502,1.);
#205=VECTOR('',#1507,1.);
#206=VECTOR('',#1508,1.);
#207=VECTOR('',#1509,1.);
#208=VECTOR('',#1512,1.);
#209=VECTOR('',#1513,1.);
#210=VECTOR('',#1516,1.);
#211=VECTOR('',#1517,1.);
#212=VECTOR('',#1518,1.);
#213=VECTOR('',#1521,1.);
#214=VECTOR('',#1522,1.);
#215=VECTOR('',#1523,1.);
#216=VECTOR('',#1528,1.);
#217=VECTOR('',#1533,1.);
#218=VECTOR('',#1534,1.);
#219=VECTOR('',#1535,1.);
#220=VECTOR('',#1538,1.);
#221=VECTOR('',#1539,1.);
#222=VECTOR('',#1542,1.);
#223=VECTOR('',#1543,1.);
#224=VECTOR('',#1544,1.);
#225=VECTOR('',#1547,1.);
#226=VECTOR('',#1548,1.);
#227=VECTOR('',#1549,1.);
#228=VECTOR('',#1554,1.);
#229=VECTOR('',#1559,1.);
#230=VECTOR('',#1560,1.);
#231=VECTOR('',#1561,1.);
#232=VECTOR('',#1564,1.);
#233=VECTOR('',#1565,1.);
#234=VECTOR('',#1568,1.);
#235=VECTOR('',#1571,1.);
#236=VECTOR('',#1574,1.);
#237=VECTOR('',#1577,1.);
#238=VECTOR('',#1580,1.);
#239=VECTOR('',#1583,1.);
#240=VECTOR('',#1586,1.);
#241=VECTOR('',#1589,1.);
#242=VECTOR('',#1592,1.);
#243=VECTOR('',#1595,1.);
#244=VECTOR('',#1598,1.);
#245=VECTOR('',#1601,1.);
#246=VECTOR('',#1610,1.);
#247=VECTOR('',#1611,1.);
#248=ORIENTED_EDGE('',*,*,#590,.F.);
#249=ORIENTED_EDGE('',*,*,#591,.T.);
#250=ORIENTED_EDGE('',*,*,#592,.T.);
#251=ORIENTED_EDGE('',*,*,#593,.T.);
#252=ORIENTED_EDGE('',*,*,#594,.F.);
#253=ORIENTED_EDGE('',*,*,#595,.T.);
#254=ORIENTED_EDGE('',*,*,#596,.T.);
#255=ORIENTED_EDGE('',*,*,#597,.F.);
#256=ORIENTED_EDGE('',*,*,#598,.F.);
#257=ORIENTED_EDGE('',*,*,#599,.T.);
#258=ORIENTED_EDGE('',*,*,#600,.T.);
#259=ORIENTED_EDGE('',*,*,#601,.T.);
#260=ORIENTED_EDGE('',*,*,#602,.F.);
#261=ORIENTED_EDGE('',*,*,#603,.T.);
#262=ORIENTED_EDGE('',*,*,#604,.T.);
#263=ORIENTED_EDGE('',*,*,#605,.F.);
#264=ORIENTED_EDGE('',*,*,#606,.F.);
#265=ORIENTED_EDGE('',*,*,#607,.T.);
#266=ORIENTED_EDGE('',*,*,#608,.T.);
#267=ORIENTED_EDGE('',*,*,#609,.T.);
#268=ORIENTED_EDGE('',*,*,#610,.F.);
#269=ORIENTED_EDGE('',*,*,#611,.T.);
#270=ORIENTED_EDGE('',*,*,#612,.T.);
#271=ORIENTED_EDGE('',*,*,#613,.F.);
#272=ORIENTED_EDGE('',*,*,#614,.F.);
#273=ORIENTED_EDGE('',*,*,#615,.T.);
#274=ORIENTED_EDGE('',*,*,#616,.T.);
#275=ORIENTED_EDGE('',*,*,#617,.T.);
#276=ORIENTED_EDGE('',*,*,#618,.F.);
#277=ORIENTED_EDGE('',*,*,#619,.T.);
#278=ORIENTED_EDGE('',*,*,#620,.T.);
#279=ORIENTED_EDGE('',*,*,#621,.F.);
#280=ORIENTED_EDGE('',*,*,#622,.F.);
#281=ORIENTED_EDGE('',*,*,#623,.T.);
#282=ORIENTED_EDGE('',*,*,#624,.T.);
#283=ORIENTED_EDGE('',*,*,#625,.T.);
#284=ORIENTED_EDGE('',*,*,#626,.F.);
#285=ORIENTED_EDGE('',*,*,#627,.T.);
#286=ORIENTED_EDGE('',*,*,#628,.T.);
#287=ORIENTED_EDGE('',*,*,#629,.F.);
#288=ORIENTED_EDGE('',*,*,#630,.F.);
#289=ORIENTED_EDGE('',*,*,#631,.T.);
#290=ORIENTED_EDGE('',*,*,#632,.T.);
#291=ORIENTED_EDGE('',*,*,#633,.T.);
#292=ORIENTED_EDGE('',*,*,#634,.F.);
#293=ORIENTED_EDGE('',*,*,#635,.F.);
#294=ORIENTED_EDGE('',*,*,#636,.T.);
#295=ORIENTED_EDGE('',*,*,#637,.T.);
#296=ORIENTED_EDGE('',*,*,#591,.F.);
#297=ORIENTED_EDGE('',*,*,#638,.F.);
#298=ORIENTED_EDGE('',*,*,#639,.F.);
#299=ORIENTED_EDGE('',*,*,#640,.T.);
#300=ORIENTED_EDGE('',*,*,#635,.T.);
#301=ORIENTED_EDGE('',*,*,#641,.T.);
#302=ORIENTED_EDGE('',*,*,#642,.T.);
#303=ORIENTED_EDGE('',*,*,#643,.F.);
#304=ORIENTED_EDGE('',*,*,#644,.F.);
#305=ORIENTED_EDGE('',*,*,#639,.T.);
#306=ORIENTED_EDGE('',*,*,#645,.F.);
#307=ORIENTED_EDGE('',*,*,#646,.T.);
#308=ORIENTED_EDGE('',*,*,#647,.T.);
#309=ORIENTED_EDGE('',*,*,#643,.T.);
#310=ORIENTED_EDGE('',*,*,#632,.F.);
#311=ORIENTED_EDGE('',*,*,#648,.F.);
#312=ORIENTED_EDGE('',*,*,#649,.T.);
#313=ORIENTED_EDGE('',*,*,#650,.T.);
#314=ORIENTED_EDGE('',*,*,#651,.F.);
#315=ORIENTED_EDGE('',*,*,#652,.F.);
#316=ORIENTED_EDGE('',*,*,#653,.T.);
#317=ORIENTED_EDGE('',*,*,#648,.T.);
#318=ORIENTED_EDGE('',*,*,#631,.F.);
#319=ORIENTED_EDGE('',*,*,#654,.F.);
#320=ORIENTED_EDGE('',*,*,#655,.F.);
#321=ORIENTED_EDGE('',*,*,#656,.T.);
#322=ORIENTED_EDGE('',*,*,#652,.T.);
#323=ORIENTED_EDGE('',*,*,#657,.T.);
#324=ORIENTED_EDGE('',*,*,#629,.T.);
#325=ORIENTED_EDGE('',*,*,#658,.F.);
#326=ORIENTED_EDGE('',*,*,#659,.F.);
#327=ORIENTED_EDGE('',*,*,#655,.T.);
#328=ORIENTED_EDGE('',*,*,#628,.F.);
#329=ORIENTED_EDGE('',*,*,#660,.T.);
#330=ORIENTED_EDGE('',*,*,#661,.T.);
#331=ORIENTED_EDGE('',*,*,#658,.T.);
#332=ORIENTED_EDGE('',*,*,#624,.F.);
#333=ORIENTED_EDGE('',*,*,#662,.F.);
#334=ORIENTED_EDGE('',*,*,#663,.T.);
#335=ORIENTED_EDGE('',*,*,#664,.T.);
#336=ORIENTED_EDGE('',*,*,#665,.F.);
#337=ORIENTED_EDGE('',*,*,#666,.F.);
#338=ORIENTED_EDGE('',*,*,#667,.T.);
#339=ORIENTED_EDGE('',*,*,#662,.T.);
#340=ORIENTED_EDGE('',*,*,#623,.F.);
#341=ORIENTED_EDGE('',*,*,#668,.F.);
#342=ORIENTED_EDGE('',*,*,#669,.F.);
#343=ORIENTED_EDGE('',*,*,#670,.T.);
#344=ORIENTED_EDGE('',*,*,#666,.T.);
#345=ORIENTED_EDGE('',*,*,#671,.T.);
#346=ORIENTED_EDGE('',*,*,#621,.T.);
#347=ORIENTED_EDGE('',*,*,#672,.F.);
#348=ORIENTED_EDGE('',*,*,#673,.F.);
#349=ORIENTED_EDGE('',*,*,#669,.T.);
#350=ORIENTED_EDGE('',*,*,#620,.F.);
#351=ORIENTED_EDGE('',*,*,#674,.T.);
#352=ORIENTED_EDGE('',*,*,#675,.T.);
#353=ORIENTED_EDGE('',*,*,#672,.T.);
#354=ORIENTED_EDGE('',*,*,#616,.F.);
#355=ORIENTED_EDGE('',*,*,#676,.F.);
#356=ORIENTED_EDGE('',*,*,#677,.T.);
#357=ORIENTED_EDGE('',*,*,#678,.T.);
#358=ORIENTED_EDGE('',*,*,#679,.F.);
#359=ORIENTED_EDGE('',*,*,#680,.F.);
#360=ORIENTED_EDGE('',*,*,#681,.T.);
#361=ORIENTED_EDGE('',*,*,#676,.T.);
#362=ORIENTED_EDGE('',*,*,#615,.F.);
#363=ORIENTED_EDGE('',*,*,#682,.F.);
#364=ORIENTED_EDGE('',*,*,#683,.F.);
#365=ORIENTED_EDGE('',*,*,#684,.T.);
#366=ORIENTED_EDGE('',*,*,#680,.T.);
#367=ORIENTED_EDGE('',*,*,#685,.T.);
#368=ORIENTED_EDGE('',*,*,#613,.T.);
#369=ORIENTED_EDGE('',*,*,#686,.F.);
#370=ORIENTED_EDGE('',*,*,#687,.F.);
#371=ORIENTED_EDGE('',*,*,#683,.T.);
#372=ORIENTED_EDGE('',*,*,#612,.F.);
#373=ORIENTED_EDGE('',*,*,#688,.T.);
#374=ORIENTED_EDGE('',*,*,#689,.T.);
#375=ORIENTED_EDGE('',*,*,#686,.T.);
#376=ORIENTED_EDGE('',*,*,#608,.F.);
#377=ORIENTED_EDGE('',*,*,#690,.F.);
#378=ORIENTED_EDGE('',*,*,#691,.T.);
#379=ORIENTED_EDGE('',*,*,#692,.T.);
#380=ORIENTED_EDGE('',*,*,#693,.F.);
#381=ORIENTED_EDGE('',*,*,#694,.F.);
#382=ORIENTED_EDGE('',*,*,#695,.T.);
#383=ORIENTED_EDGE('',*,*,#690,.T.);
#384=ORIENTED_EDGE('',*,*,#607,.F.);
#385=ORIENTED_EDGE('',*,*,#696,.F.);
#386=ORIENTED_EDGE('',*,*,#697,.F.);
#387=ORIENTED_EDGE('',*,*,#698,.T.);
#388=ORIENTED_EDGE('',*,*,#694,.T.);
#389=ORIENTED_EDGE('',*,*,#699,.T.);
#390=ORIENTED_EDGE('',*,*,#605,.T.);
#391=ORIENTED_EDGE('',*,*,#700,.F.);
#392=ORIENTED_EDGE('',*,*,#701,.F.);
#393=ORIENTED_EDGE('',*,*,#697,.T.);
#394=ORIENTED_EDGE('',*,*,#604,.F.);
#395=ORIENTED_EDGE('',*,*,#702,.T.);
#396=ORIENTED_EDGE('',*,*,#703,.T.);
#397=ORIENTED_EDGE('',*,*,#700,.T.);
#398=ORIENTED_EDGE('',*,*,#600,.F.);
#399=ORIENTED_EDGE('',*,*,#704,.F.);
#400=ORIENTED_EDGE('',*,*,#705,.T.);
#401=ORIENTED_EDGE('',*,*,#706,.T.);
#402=ORIENTED_EDGE('',*,*,#707,.F.);
#403=ORIENTED_EDGE('',*,*,#708,.F.);
#404=ORIENTED_EDGE('',*,*,#709,.T.);
#405=ORIENTED_EDGE('',*,*,#704,.T.);
#406=ORIENTED_EDGE('',*,*,#599,.F.);
#407=ORIENTED_EDGE('',*,*,#710,.F.);
#408=ORIENTED_EDGE('',*,*,#711,.F.);
#409=ORIENTED_EDGE('',*,*,#712,.T.);
#410=ORIENTED_EDGE('',*,*,#708,.T.);
#411=ORIENTED_EDGE('',*,*,#713,.T.);
#412=ORIENTED_EDGE('',*,*,#597,.T.);
#413=ORIENTED_EDGE('',*,*,#714,.F.);
#414=ORIENTED_EDGE('',*,*,#715,.F.);
#415=ORIENTED_EDGE('',*,*,#711,.T.);
#416=ORIENTED_EDGE('',*,*,#596,.F.);
#417=ORIENTED_EDGE('',*,*,#716,.T.);
#418=ORIENTED_EDGE('',*,*,#717,.T.);
#419=ORIENTED_EDGE('',*,*,#714,.T.);
#420=ORIENTED_EDGE('',*,*,#590,.T.);
#421=ORIENTED_EDGE('',*,*,#718,.T.);
#422=ORIENTED_EDGE('',*,*,#719,.F.);
#423=ORIENTED_EDGE('',*,*,#720,.T.);
#424=ORIENTED_EDGE('',*,*,#594,.T.);
#425=ORIENTED_EDGE('',*,*,#721,.T.);
#426=ORIENTED_EDGE('',*,*,#598,.T.);
#427=ORIENTED_EDGE('',*,*,#722,.T.);
#428=ORIENTED_EDGE('',*,*,#723,.F.);
#429=ORIENTED_EDGE('',*,*,#724,.T.);
#430=ORIENTED_EDGE('',*,*,#602,.T.);
#431=ORIENTED_EDGE('',*,*,#725,.T.);
#432=ORIENTED_EDGE('',*,*,#606,.T.);
#433=ORIENTED_EDGE('',*,*,#726,.T.);
#434=ORIENTED_EDGE('',*,*,#727,.F.);
#435=ORIENTED_EDGE('',*,*,#728,.T.);
#436=ORIENTED_EDGE('',*,*,#610,.T.);
#437=ORIENTED_EDGE('',*,*,#729,.T.);
#438=ORIENTED_EDGE('',*,*,#614,.T.);
#439=ORIENTED_EDGE('',*,*,#730,.T.);
#440=ORIENTED_EDGE('',*,*,#731,.F.);
#441=ORIENTED_EDGE('',*,*,#732,.T.);
#442=ORIENTED_EDGE('',*,*,#618,.T.);
#443=ORIENTED_EDGE('',*,*,#733,.T.);
#444=ORIENTED_EDGE('',*,*,#622,.T.);
#445=ORIENTED_EDGE('',*,*,#734,.T.);
#446=ORIENTED_EDGE('',*,*,#735,.F.);
#447=ORIENTED_EDGE('',*,*,#736,.T.);
#448=ORIENTED_EDGE('',*,*,#626,.T.);
#449=ORIENTED_EDGE('',*,*,#737,.T.);
#450=ORIENTED_EDGE('',*,*,#630,.T.);
#451=ORIENTED_EDGE('',*,*,#738,.T.);
#452=ORIENTED_EDGE('',*,*,#739,.F.);
#453=ORIENTED_EDGE('',*,*,#740,.T.);
#454=ORIENTED_EDGE('',*,*,#741,.T.);
#455=ORIENTED_EDGE('',*,*,#742,.T.);
#456=ORIENTED_EDGE('',*,*,#743,.F.);
#457=ORIENTED_EDGE('',*,*,#592,.F.);
#458=ORIENTED_EDGE('',*,*,#637,.F.);
#459=ORIENTED_EDGE('',*,*,#744,.T.);
#460=ORIENTED_EDGE('',*,*,#745,.T.);
#461=ORIENTED_EDGE('',*,*,#746,.T.);
#462=ORIENTED_EDGE('',*,*,#747,.F.);
#463=ORIENTED_EDGE('',*,*,#636,.F.);
#464=ORIENTED_EDGE('',*,*,#640,.F.);
#465=ORIENTED_EDGE('',*,*,#644,.T.);
#466=ORIENTED_EDGE('',*,*,#647,.F.);
#467=ORIENTED_EDGE('',*,*,#748,.T.);
#468=ORIENTED_EDGE('',*,*,#739,.T.);
#469=ORIENTED_EDGE('',*,*,#749,.T.);
#470=ORIENTED_EDGE('',*,*,#649,.F.);
#471=ORIENTED_EDGE('',*,*,#653,.F.);
#472=ORIENTED_EDGE('',*,*,#656,.F.);
#473=ORIENTED_EDGE('',*,*,#659,.T.);
#474=ORIENTED_EDGE('',*,*,#661,.F.);
#475=ORIENTED_EDGE('',*,*,#750,.T.);
#476=ORIENTED_EDGE('',*,*,#735,.T.);
#477=ORIENTED_EDGE('',*,*,#751,.T.);
#478=ORIENTED_EDGE('',*,*,#663,.F.);
#479=ORIENTED_EDGE('',*,*,#667,.F.);
#480=ORIENTED_EDGE('',*,*,#670,.F.);
#481=ORIENTED_EDGE('',*,*,#673,.T.);
#482=ORIENTED_EDGE('',*,*,#675,.F.);
#483=ORIENTED_EDGE('',*,*,#752,.T.);
#484=ORIENTED_EDGE('',*,*,#731,.T.);
#485=ORIENTED_EDGE('',*,*,#753,.T.);
#486=ORIENTED_EDGE('',*,*,#677,.F.);
#487=ORIENTED_EDGE('',*,*,#681,.F.);
#488=ORIENTED_EDGE('',*,*,#684,.F.);
#489=ORIENTED_EDGE('',*,*,#687,.T.);
#490=ORIENTED_EDGE('',*,*,#689,.F.);
#491=ORIENTED_EDGE('',*,*,#754,.T.);
#492=ORIENTED_EDGE('',*,*,#727,.T.);
#493=ORIENTED_EDGE('',*,*,#755,.T.);
#494=ORIENTED_EDGE('',*,*,#691,.F.);
#495=ORIENTED_EDGE('',*,*,#695,.F.);
#496=ORIENTED_EDGE('',*,*,#698,.F.);
#497=ORIENTED_EDGE('',*,*,#701,.T.);
#498=ORIENTED_EDGE('',*,*,#703,.F.);
#499=ORIENTED_EDGE('',*,*,#756,.T.);
#500=ORIENTED_EDGE('',*,*,#723,.T.);
#501=ORIENTED_EDGE('',*,*,#757,.T.);
#502=ORIENTED_EDGE('',*,*,#705,.F.);
#503=ORIENTED_EDGE('',*,*,#709,.F.);
#504=ORIENTED_EDGE('',*,*,#712,.F.);
#505=ORIENTED_EDGE('',*,*,#715,.T.);
#506=ORIENTED_EDGE('',*,*,#717,.F.);
#507=ORIENTED_EDGE('',*,*,#758,.T.);
#508=ORIENTED_EDGE('',*,*,#719,.T.);
#509=ORIENTED_EDGE('',*,*,#759,.T.);
#510=ORIENTED_EDGE('',*,*,#744,.F.);
#511=ORIENTED_EDGE('',*,*,#746,.F.);
#512=ORIENTED_EDGE('',*,*,#741,.F.);
#513=ORIENTED_EDGE('',*,*,#760,.T.);
#514=ORIENTED_EDGE('',*,*,#645,.T.);
#515=ORIENTED_EDGE('',*,*,#642,.F.);
#516=ORIENTED_EDGE('',*,*,#747,.T.);
#517=ORIENTED_EDGE('',*,*,#713,.F.);
#518=ORIENTED_EDGE('',*,*,#710,.T.);
#519=ORIENTED_EDGE('',*,*,#707,.T.);
#520=ORIENTED_EDGE('',*,*,#721,.F.);
#521=ORIENTED_EDGE('',*,*,#699,.F.);
#522=ORIENTED_EDGE('',*,*,#696,.T.);
#523=ORIENTED_EDGE('',*,*,#693,.T.);
#524=ORIENTED_EDGE('',*,*,#725,.F.);
#525=ORIENTED_EDGE('',*,*,#685,.F.);
#526=ORIENTED_EDGE('',*,*,#682,.T.);
#527=ORIENTED_EDGE('',*,*,#679,.T.);
#528=ORIENTED_EDGE('',*,*,#729,.F.);
#529=ORIENTED_EDGE('',*,*,#671,.F.);
#530=ORIENTED_EDGE('',*,*,#668,.T.);
#531=ORIENTED_EDGE('',*,*,#665,.T.);
#532=ORIENTED_EDGE('',*,*,#733,.F.);
#533=ORIENTED_EDGE('',*,*,#657,.F.);
#534=ORIENTED_EDGE('',*,*,#654,.T.);
#535=ORIENTED_EDGE('',*,*,#651,.T.);
#536=ORIENTED_EDGE('',*,*,#737,.F.);
#537=ORIENTED_EDGE('',*,*,#743,.T.);
#538=ORIENTED_EDGE('',*,*,#638,.T.);
#539=ORIENTED_EDGE('',*,*,#634,.T.);
#540=ORIENTED_EDGE('',*,*,#742,.F.);
#541=ORIENTED_EDGE('',*,*,#641,.F.);
#542=ORIENTED_EDGE('',*,*,#759,.F.);
#543=ORIENTED_EDGE('',*,*,#718,.F.);
#544=ORIENTED_EDGE('',*,*,#593,.F.);
#545=ORIENTED_EDGE('',*,*,#745,.F.);
#546=ORIENTED_EDGE('',*,*,#748,.F.);
#547=ORIENTED_EDGE('',*,*,#646,.F.);
#548=ORIENTED_EDGE('',*,*,#760,.F.);
#549=ORIENTED_EDGE('',*,*,#740,.F.);
#550=ORIENTED_EDGE('',*,*,#749,.F.);
#551=ORIENTED_EDGE('',*,*,#738,.F.);
#552=ORIENTED_EDGE('',*,*,#633,.F.);
#553=ORIENTED_EDGE('',*,*,#650,.F.);
#554=ORIENTED_EDGE('',*,*,#750,.F.);
#555=ORIENTED_EDGE('',*,*,#660,.F.);
#556=ORIENTED_EDGE('',*,*,#627,.F.);
#557=ORIENTED_EDGE('',*,*,#736,.F.);
#558=ORIENTED_EDGE('',*,*,#751,.F.);
#559=ORIENTED_EDGE('',*,*,#734,.F.);
#560=ORIENTED_EDGE('',*,*,#625,.F.);
#561=ORIENTED_EDGE('',*,*,#664,.F.);
#562=ORIENTED_EDGE('',*,*,#752,.F.);
#563=ORIENTED_EDGE('',*,*,#674,.F.);
#564=ORIENTED_EDGE('',*,*,#619,.F.);
#565=ORIENTED_EDGE('',*,*,#732,.F.);
#566=ORIENTED_EDGE('',*,*,#753,.F.);
#567=ORIENTED_EDGE('',*,*,#730,.F.);
#568=ORIENTED_EDGE('',*,*,#617,.F.);
#569=ORIENTED_EDGE('',*,*,#678,.F.);
#570=ORIENTED_EDGE('',*,*,#754,.F.);
#571=ORIENTED_EDGE('',*,*,#688,.F.);
#572=ORIENTED_EDGE('',*,*,#611,.F.);
#573=ORIENTED_EDGE('',*,*,#728,.F.);
#574=ORIENTED_EDGE('',*,*,#755,.F.);
#575=ORIENTED_EDGE('',*,*,#726,.F.);
#576=ORIENTED_EDGE('',*,*,#609,.F.);
#577=ORIENTED_EDGE('',*,*,#692,.F.);
#578=ORIENTED_EDGE('',*,*,#756,.F.);
#579=ORIENTED_EDGE('',*,*,#702,.F.);
#580=ORIENTED_EDGE('',*,*,#603,.F.);
#581=ORIENTED_EDGE('',*,*,#724,.F.);
#582=ORIENTED_EDGE('',*,*,#758,.F.);
#583=ORIENTED_EDGE('',*,*,#716,.F.);
#584=ORIENTED_EDGE('',*,*,#595,.F.);
#585=ORIENTED_EDGE('',*,*,#720,.F.);
#586=ORIENTED_EDGE('',*,*,#757,.F.);
#587=ORIENTED_EDGE('',*,*,#722,.F.);
#588=ORIENTED_EDGE('',*,*,#601,.F.);
#589=ORIENTED_EDGE('',*,*,#706,.F.);
#590=EDGE_CURVE('',#761,#762,#872,.T.);
#591=EDGE_CURVE('',#761,#763,#32,.T.);
#592=EDGE_CURVE('',#763,#764,#33,.T.);
#593=EDGE_CURVE('',#764,#762,#873,.T.);
#594=EDGE_CURVE('',#765,#766,#874,.T.);
#595=EDGE_CURVE('',#765,#767,#875,.T.);
#596=EDGE_CURVE('',#767,#768,#34,.T.);
#597=EDGE_CURVE('',#766,#768,#35,.T.);
#598=EDGE_CURVE('',#769,#770,#876,.T.);
#599=EDGE_CURVE('',#769,#771,#36,.T.);
#600=EDGE_CURVE('',#771,#772,#37,.T.);
#601=EDGE_CURVE('',#772,#770,#877,.T.);
#602=EDGE_CURVE('',#773,#774,#878,.T.);
#603=EDGE_CURVE('',#773,#775,#879,.T.);
#604=EDGE_CURVE('',#775,#776,#38,.T.);
#605=EDGE_CURVE('',#774,#776,#39,.T.);
#606=EDGE_CURVE('',#777,#778,#880,.T.);
#607=EDGE_CURVE('',#777,#779,#40,.T.);
#608=EDGE_CURVE('',#779,#780,#41,.T.);
#609=EDGE_CURVE('',#780,#778,#881,.T.);
#610=EDGE_CURVE('',#781,#782,#882,.T.);
#611=EDGE_CURVE('',#781,#783,#883,.T.);
#612=EDGE_CURVE('',#783,#784,#42,.T.);
#613=EDGE_CURVE('',#782,#784,#43,.T.);
#614=EDGE_CURVE('',#785,#786,#884,.T.);
#615=EDGE_CURVE('',#785,#787,#44,.T.);
#616=EDGE_CURVE('',#787,#788,#45,.T.);
#617=EDGE_CURVE('',#788,#786,#885,.T.);
#618=EDGE_CURVE('',#789,#790,#886,.T.);
#619=EDGE_CURVE('',#789,#791,#887,.T.);
#620=EDGE_CURVE('',#791,#792,#46,.T.);
#621=EDGE_CURVE('',#790,#792,#47,.T.);
#622=EDGE_CURVE('',#793,#794,#888,.T.);
#623=EDGE_CURVE('',#793,#795,#48,.T.);
#624=EDGE_CURVE('',#795,#796,#49,.T.);
#625=EDGE_CURVE('',#796,#794,#889,.T.);
#626=EDGE_CURVE('',#797,#798,#890,.T.);
#627=EDGE_CURVE('',#797,#799,#891,.T.);
#628=EDGE_CURVE('',#799,#800,#50,.T.);
#629=EDGE_CURVE('',#798,#800,#51,.T.);
#630=EDGE_CURVE('',#801,#802,#892,.T.);
#631=EDGE_CURVE('',#801,#803,#52,.T.);
#632=EDGE_CURVE('',#803,#804,#53,.T.);
#633=EDGE_CURVE('',#804,#802,#893,.T.);
#634=EDGE_CURVE('',#805,#761,#54,.T.);
#635=EDGE_CURVE('',#806,#805,#55,.T.);
#636=EDGE_CURVE('',#806,#807,#56,.T.);
#637=EDGE_CURVE('',#807,#763,#57,.T.);
#638=EDGE_CURVE('',#808,#805,#894,.T.);
#639=EDGE_CURVE('',#809,#808,#58,.T.);
#640=EDGE_CURVE('',#809,#806,#895,.T.);
#641=EDGE_CURVE('',#808,#810,#59,.T.);
#642=EDGE_CURVE('',#810,#811,#60,.T.);
#643=EDGE_CURVE('',#812,#811,#61,.T.);
#644=EDGE_CURVE('',#809,#812,#62,.T.);
#645=EDGE_CURVE('',#813,#811,#63,.T.);
#646=EDGE_CURVE('',#813,#814,#64,.F.);
#647=EDGE_CURVE('',#814,#812,#65,.T.);
#648=EDGE_CURVE('',#815,#803,#66,.T.);
#649=EDGE_CURVE('',#815,#816,#67,.T.);
#650=EDGE_CURVE('',#816,#804,#68,.T.);
#651=EDGE_CURVE('',#817,#801,#69,.T.);
#652=EDGE_CURVE('',#818,#817,#70,.T.);
#653=EDGE_CURVE('',#818,#815,#71,.T.);
#654=EDGE_CURVE('',#819,#817,#896,.T.);
#655=EDGE_CURVE('',#820,#819,#72,.T.);
#656=EDGE_CURVE('',#820,#818,#897,.T.);
#657=EDGE_CURVE('',#819,#798,#73,.T.);
#658=EDGE_CURVE('',#821,#800,#74,.T.);
#659=EDGE_CURVE('',#820,#821,#75,.T.);
#660=EDGE_CURVE('',#799,#822,#76,.F.);
#661=EDGE_CURVE('',#822,#821,#77,.T.);
#662=EDGE_CURVE('',#823,#795,#78,.T.);
#663=EDGE_CURVE('',#823,#824,#79,.T.);
#664=EDGE_CURVE('',#824,#796,#80,.T.);
#665=EDGE_CURVE('',#825,#793,#81,.T.);
#666=EDGE_CURVE('',#826,#825,#82,.T.);
#667=EDGE_CURVE('',#826,#823,#83,.T.);
#668=EDGE_CURVE('',#827,#825,#898,.T.);
#669=EDGE_CURVE('',#828,#827,#84,.T.);
#670=EDGE_CURVE('',#828,#826,#899,.T.);
#671=EDGE_CURVE('',#827,#790,#85,.T.);
#672=EDGE_CURVE('',#829,#792,#86,.T.);
#673=EDGE_CURVE('',#828,#829,#87,.T.);
#674=EDGE_CURVE('',#791,#830,#88,.F.);
#675=EDGE_CURVE('',#830,#829,#89,.T.);
#676=EDGE_CURVE('',#831,#787,#90,.T.);
#677=EDGE_CURVE('',#831,#832,#91,.T.);
#678=EDGE_CURVE('',#832,#788,#92,.T.);
#679=EDGE_CURVE('',#833,#785,#93,.T.);
#680=EDGE_CURVE('',#834,#833,#94,.T.);
#681=EDGE_CURVE('',#834,#831,#95,.T.);
#682=EDGE_CURVE('',#835,#833,#900,.T.);
#683=EDGE_CURVE('',#836,#835,#96,.T.);
#684=EDGE_CURVE('',#836,#834,#901,.T.);
#685=EDGE_CURVE('',#835,#782,#97,.T.);
#686=EDGE_CURVE('',#837,#784,#98,.T.);
#687=EDGE_CURVE('',#836,#837,#99,.T.);
#688=EDGE_CURVE('',#783,#838,#100,.F.);
#689=EDGE_CURVE('',#838,#837,#101,.T.);
#690=EDGE_CURVE('',#839,#779,#102,.T.);
#691=EDGE_CURVE('',#839,#840,#103,.T.);
#692=EDGE_CURVE('',#840,#780,#104,.T.);
#693=EDGE_CURVE('',#841,#777,#105,.T.);
#694=EDGE_CURVE('',#842,#841,#106,.T.);
#695=EDGE_CURVE('',#842,#839,#107,.T.);
#696=EDGE_CURVE('',#843,#841,#902,.T.);
#697=EDGE_CURVE('',#844,#843,#108,.T.);
#698=EDGE_CURVE('',#844,#842,#903,.T.);
#699=EDGE_CURVE('',#843,#774,#109,.T.);
#700=EDGE_CURVE('',#845,#776,#110,.T.);
#701=EDGE_CURVE('',#844,#845,#111,.T.);
#702=EDGE_CURVE('',#775,#846,#112,.F.);
#703=EDGE_CURVE('',#846,#845,#113,.T.);
#704=EDGE_CURVE('',#847,#771,#114,.T.);
#705=EDGE_CURVE('',#847,#848,#115,.T.);
#706=EDGE_CURVE('',#848,#772,#116,.T.);
#707=EDGE_CURVE('',#849,#769,#117,.T.);
#708=EDGE_CURVE('',#850,#849,#118,.T.);
#709=EDGE_CURVE('',#850,#847,#119,.T.);
#710=EDGE_CURVE('',#851,#849,#904,.T.);
#711=EDGE_CURVE('',#852,#851,#120,.T.);
#712=EDGE_CURVE('',#852,#850,#905,.T.);
#713=EDGE_CURVE('',#851,#766,#121,.T.);
#714=EDGE_CURVE('',#853,#768,#122,.T.);
#715=EDGE_CURVE('',#852,#853,#123,.T.);
#716=EDGE_CURVE('',#767,#854,#124,.F.);
#717=EDGE_CURVE('',#854,#853,#125,.T.);
#718=EDGE_CURVE('',#762,#855,#126,.F.);
#719=EDGE_CURVE('',#856,#855,#906,.T.);
#720=EDGE_CURVE('',#856,#765,#127,.T.);
#721=EDGE_CURVE('',#766,#769,#907,.T.);
#722=EDGE_CURVE('',#770,#857,#128,.F.);
#723=EDGE_CURVE('',#858,#857,#908,.T.);
#724=EDGE_CURVE('',#858,#773,#129,.T.);
#725=EDGE_CURVE('',#774,#777,#909,.T.);
#726=EDGE_CURVE('',#778,#859,#130,.F.);
#727=EDGE_CURVE('',#860,#859,#910,.T.);
#728=EDGE_CURVE('',#860,#781,#131,.T.);
#729=EDGE_CURVE('',#782,#785,#911,.T.);
#730=EDGE_CURVE('',#786,#861,#132,.F.);
#731=EDGE_CURVE('',#862,#861,#912,.T.);
#732=EDGE_CURVE('',#862,#789,#133,.T.);
#733=EDGE_CURVE('',#790,#793,#913,.T.);
#734=EDGE_CURVE('',#794,#863,#134,.F.);
#735=EDGE_CURVE('',#864,#863,#914,.T.);
#736=EDGE_CURVE('',#864,#797,#135,.T.);
#737=EDGE_CURVE('',#798,#801,#915,.T.);
#738=EDGE_CURVE('',#802,#865,#136,.F.);
#739=EDGE_CURVE('',#866,#865,#916,.T.);
#740=EDGE_CURVE('',#866,#867,#137,.T.);
#741=EDGE_CURVE('',#867,#810,#917,.T.);
#742=EDGE_CURVE('',#810,#761,#918,.T.);
#743=EDGE_CURVE('',#868,#868,#919,.T.);
#744=EDGE_CURVE('',#807,#869,#138,.T.);
#745=EDGE_CURVE('',#869,#764,#139,.T.);
#746=EDGE_CURVE('',#870,#870,#920,.T.);
#747=EDGE_CURVE('',#871,#871,#921,.T.);
#748=EDGE_CURVE('',#814,#866,#922,.F.);
#749=EDGE_CURVE('',#865,#816,#923,.F.);
#750=EDGE_CURVE('',#822,#864,#924,.F.);
#751=EDGE_CURVE('',#863,#824,#925,.F.);
#752=EDGE_CURVE('',#830,#862,#926,.F.);
#753=EDGE_CURVE('',#861,#832,#927,.F.);
#754=EDGE_CURVE('',#838,#860,#928,.F.);
#755=EDGE_CURVE('',#859,#840,#929,.F.);
#756=EDGE_CURVE('',#846,#858,#930,.F.);
#757=EDGE_CURVE('',#857,#848,#931,.F.);
#758=EDGE_CURVE('',#854,#856,#932,.F.);
#759=EDGE_CURVE('',#855,#869,#933,.F.);
#760=EDGE_CURVE('',#867,#813,#934,.T.);
#761=VERTEX_POINT('',#1691);
#762=VERTEX_POINT('',#1692);
#763=VERTEX_POINT('',#1694);
#764=VERTEX_POINT('',#1696);
#765=VERTEX_POINT('',#1700);
#766=VERTEX_POINT('',#1701);
#767=VERTEX_POINT('',#1703);
#768=VERTEX_POINT('',#1705);
#769=VERTEX_POINT('',#1709);
#770=VERTEX_POINT('',#1710);
#771=VERTEX_POINT('',#1712);
#772=VERTEX_POINT('',#1714);
#773=VERTEX_POINT('',#1718);
#774=VERTEX_POINT('',#1719);
#775=VERTEX_POINT('',#1721);
#776=VERTEX_POINT('',#1723);
#777=VERTEX_POINT('',#1727);
#778=VERTEX_POINT('',#1728);
#779=VERTEX_POINT('',#1730);
#780=VERTEX_POINT('',#1732);
#781=VERTEX_POINT('',#1736);
#782=VERTEX_POINT('',#1737);
#783=VERTEX_POINT('',#1739);
#784=VERTEX_POINT('',#1741);
#785=VERTEX_POINT('',#1745);
#786=VERTEX_POINT('',#1746);
#787=VERTEX_POINT('',#1748);
#788=VERTEX_POINT('',#1750);
#789=VERTEX_POINT('',#1754);
#790=VERTEX_POINT('',#1755);
#791=VERTEX_POINT('',#1757);
#792=VERTEX_POINT('',#1759);
#793=VERTEX_POINT('',#1763);
#794=VERTEX_POINT('',#1764);
#795=VERTEX_POINT('',#1766);
#796=VERTEX_POINT('',#1768);
#797=VERTEX_POINT('',#1772);
#798=VERTEX_POINT('',#1773);
#799=VERTEX_POINT('',#1775);
#800=VERTEX_POINT('',#1777);
#801=VERTEX_POINT('',#1781);
#802=VERTEX_POINT('',#1782);
#803=VERTEX_POINT('',#1784);
#804=VERTEX_POINT('',#1786);
#805=VERTEX_POINT('',#1790);
#806=VERTEX_POINT('',#1792);
#807=VERTEX_POINT('',#1794);
#808=VERTEX_POINT('',#1798);
#809=VERTEX_POINT('',#1800);
#810=VERTEX_POINT('',#1804);
#811=VERTEX_POINT('',#1806);
#812=VERTEX_POINT('',#1808);
#813=VERTEX_POINT('',#1812);
#814=VERTEX_POINT('',#1814);
#815=VERTEX_POINT('',#1818);
#816=VERTEX_POINT('',#1820);
#817=VERTEX_POINT('',#1824);
#818=VERTEX_POINT('',#1826);
#819=VERTEX_POINT('',#1830);
#820=VERTEX_POINT('',#1832);
#821=VERTEX_POINT('',#1837);
#822=VERTEX_POINT('',#1841);
#823=VERTEX_POINT('',#1845);
#824=VERTEX_POINT('',#1847);
#825=VERTEX_POINT('',#1851);
#826=VERTEX_POINT('',#1853);
#827=VERTEX_POINT('',#1857);
#828=VERTEX_POINT('',#1859);
#829=VERTEX_POINT('',#1864);
#830=VERTEX_POINT('',#1868);
#831=VERTEX_POINT('',#1872);
#832=VERTEX_POINT('',#1874);
#833=VERTEX_POINT('',#1878);
#834=VERTEX_POINT('',#1880);
#835=VERTEX_POINT('',#1884);
#836=VERTEX_POINT('',#1886);
#837=VERTEX_POINT('',#1891);
#838=VERTEX_POINT('',#1895);
#839=VERTEX_POINT('',#1899);
#840=VERTEX_POINT('',#1901);
#841=VERTEX_POINT('',#1905);
#842=VERTEX_POINT('',#1907);
#843=VERTEX_POINT('',#1911);
#844=VERTEX_POINT('',#1913);
#845=VERTEX_POINT('',#1918);
#846=VERTEX_POINT('',#1922);
#847=VERTEX_POINT('',#1926);
#848=VERTEX_POINT('',#1928);
#849=VERTEX_POINT('',#1932);
#850=VERTEX_POINT('',#1934);
#851=VERTEX_POINT('',#1938);
#852=VERTEX_POINT('',#1940);
#853=VERTEX_POINT('',#1945);
#854=VERTEX_POINT('',#1949);
#855=VERTEX_POINT('',#1953);
#856=VERTEX_POINT('',#1955);
#857=VERTEX_POINT('',#1959);
#858=VERTEX_POINT('',#1961);
#859=VERTEX_POINT('',#1965);
#860=VERTEX_POINT('',#1967);
#861=VERTEX_POINT('',#1971);
#862=VERTEX_POINT('',#1973);
#863=VERTEX_POINT('',#1977);
#864=VERTEX_POINT('',#1979);
#865=VERTEX_POINT('',#1983);
#866=VERTEX_POINT('',#1985);
#867=VERTEX_POINT('',#1987);
#868=VERTEX_POINT('',#1991);
#869=VERTEX_POINT('',#1994);
#870=VERTEX_POINT('',#1998);
#871=VERTEX_POINT('',#2000);
#872=CIRCLE('',#1195,0.073025);
#873=CIRCLE('',#1196,0.00508);
#874=CIRCLE('',#1198,0.073025);
#875=CIRCLE('',#1199,0.00508);
#876=CIRCLE('',#1201,0.073025);
#877=CIRCLE('',#1202,0.00508);
#878=CIRCLE('',#1204,0.073025);
#879=CIRCLE('',#1205,0.00508);
#880=CIRCLE('',#1207,0.073025);
#881=CIRCLE('',#1208,0.00508);
#882=CIRCLE('',#1210,0.073025);
#883=CIRCLE('',#1211,0.00508);
#884=CIRCLE('',#1213,0.073025);
#885=CIRCLE('',#1214,0.00508);
#886=CIRCLE('',#1216,0.073025);
#887=CIRCLE('',#1217,0.00508);
#888=CIRCLE('',#1219,0.073025);
#889=CIRCLE('',#1220,0.00508);
#890=CIRCLE('',#1222,0.073025);
#891=CIRCLE('',#1223,0.00508);
#892=CIRCLE('',#1225,0.073025);
#893=CIRCLE('',#1226,0.00508);
#894=CIRCLE('',#1229,0.00508);
#895=CIRCLE('',#1230,0.00508);
#896=CIRCLE('',#1236,0.00508);
#897=CIRCLE('',#1237,0.00508);
#898=CIRCLE('',#1243,0.00508);
#899=CIRCLE('',#1244,0.00508);
#900=CIRCLE('',#1250,0.00508);
#901=CIRCLE('',#1251,0.00508);
#902=CIRCLE('',#1257,0.00508);
#903=CIRCLE('',#1258,0.00508);
#904=CIRCLE('',#1264,0.00508);
#905=CIRCLE('',#1265,0.00508);
#906=CIRCLE('',#1269,0.073025);
#907=CIRCLE('',#1270,0.073025);
#908=CIRCLE('',#1271,0.073025);
#909=CIRCLE('',#1272,0.073025);
#910=CIRCLE('',#1273,0.073025);
#911=CIRCLE('',#1274,0.073025);
#912=CIRCLE('',#1275,0.073025);
#913=CIRCLE('',#1276,0.073025);
#914=CIRCLE('',#1277,0.073025);
#915=CIRCLE('',#1278,0.073025);
#916=CIRCLE('',#1279,0.073025);
#917=CIRCLE('',#1280,0.073025);
#918=CIRCLE('',#1281,0.073025);
#919=CIRCLE('',#1282,0.073025);
#920=CIRCLE('',#1285,0.057785);
#921=CIRCLE('',#1286,0.057785);
#922=CIRCLE('',#1288,0.00508);
#923=CIRCLE('',#1289,0.00508);
#924=CIRCLE('',#1290,0.00508);
#925=CIRCLE('',#1291,0.00508);
#926=CIRCLE('',#1292,0.00508);
#927=CIRCLE('',#1293,0.00508);
#928=CIRCLE('',#1294,0.00508);
#929=CIRCLE('',#1295,0.00508);
#930=CIRCLE('',#1296,0.00508);
#931=CIRCLE('',#1297,0.00508);
#932=CIRCLE('',#1298,0.00508);
#933=CIRCLE('',#1299,0.00508);
#934=CIRCLE('',#1301,0.00508);
#935=EDGE_LOOP('',(#248,#249,#250,#251));
#936=EDGE_LOOP('',(#252,#253,#254,#255));
#937=EDGE_LOOP('',(#256,#257,#258,#259));
#938=EDGE_LOOP('',(#260,#261,#262,#263));
#939=EDGE_LOOP('',(#264,#265,#266,#267));
#940=EDGE_LOOP('',(#268,#269,#270,#271));
#941=EDGE_LOOP('',(#272,#273,#274,#275));
#942=EDGE_LOOP('',(#276,#277,#278,#279));
#943=EDGE_LOOP('',(#280,#281,#282,#283));
#944=EDGE_LOOP('',(#284,#285,#286,#287));
#945=EDGE_LOOP('',(#288,#289,#290,#291));
#946=EDGE_LOOP('',(#292,#293,#294,#295,#296));
#947=EDGE_LOOP('',(#297,#298,#299,#300));
#948=EDGE_LOOP('',(#301,#302,#303,#304,#305));
#949=EDGE_LOOP('',(#306,#307,#308,#309));
#950=EDGE_LOOP('',(#310,#311,#312,#313));
#951=EDGE_LOOP('',(#314,#315,#316,#317,#318));
#952=EDGE_LOOP('',(#319,#320,#321,#322));
#953=EDGE_LOOP('',(#323,#324,#325,#326,#327));
#954=EDGE_LOOP('',(#328,#329,#330,#331));
#955=EDGE_LOOP('',(#332,#333,#334,#335));
#956=EDGE_LOOP('',(#336,#337,#338,#339,#340));
#957=EDGE_LOOP('',(#341,#342,#343,#344));
#958=EDGE_LOOP('',(#345,#346,#347,#348,#349));
#959=EDGE_LOOP('',(#350,#351,#352,#353));
#960=EDGE_LOOP('',(#354,#355,#356,#357));
#961=EDGE_LOOP('',(#358,#359,#360,#361,#362));
#962=EDGE_LOOP('',(#363,#364,#365,#366));
#963=EDGE_LOOP('',(#367,#368,#369,#370,#371));
#964=EDGE_LOOP('',(#372,#373,#374,#375));
#965=EDGE_LOOP('',(#376,#377,#378,#379));
#966=EDGE_LOOP('',(#380,#381,#382,#383,#384));
#967=EDGE_LOOP('',(#385,#386,#387,#388));
#968=EDGE_LOOP('',(#389,#390,#391,#392,#393));
#969=EDGE_LOOP('',(#394,#395,#396,#397));
#970=EDGE_LOOP('',(#398,#399,#400,#401));
#971=EDGE_LOOP('',(#402,#403,#404,#405,#406));
#972=EDGE_LOOP('',(#407,#408,#409,#410));
#973=EDGE_LOOP('',(#411,#412,#413,#414,#415));
#974=EDGE_LOOP('',(#416,#417,#418,#419));
#975=EDGE_LOOP('',(#420,#421,#422,#423,#424,#425,#426,#427,#428,#429,#430,
#431,#432,#433,#434,#435,#436,#437,#438,#439,#440,#441,#442,#443,#444,#445,
#446,#447,#448,#449,#450,#451,#452,#453,#454,#455));
#976=EDGE_LOOP('',(#456));
#977=EDGE_LOOP('',(#457,#458,#459,#460));
#978=EDGE_LOOP('',(#461));
#979=EDGE_LOOP('',(#462));
#980=EDGE_LOOP('',(#463,#464,#465,#466,#467,#468,#469,#470,#471,#472,#473,
#474,#475,#476,#477,#478,#479,#480,#481,#482,#483,#484,#485,#486,#487,#488,
#489,#490,#491,#492,#493,#494,#495,#496,#497,#498,#499,#500,#501,#502,#503,
#504,#505,#506,#507,#508,#509,#510));
#981=EDGE_LOOP('',(#511));
#982=EDGE_LOOP('',(#512,#513,#514,#515));
#983=EDGE_LOOP('',(#516));
#984=EDGE_LOOP('',(#517,#518,#519,#520));
#985=EDGE_LOOP('',(#521,#522,#523,#524));
#986=EDGE_LOOP('',(#525,#526,#527,#528));
#987=EDGE_LOOP('',(#529,#530,#531,#532));
#988=EDGE_LOOP('',(#533,#534,#535,#536));
#989=EDGE_LOOP('',(#537));
#990=EDGE_LOOP('',(#538,#539,#540,#541));
#991=EDGE_LOOP('',(#542,#543,#544,#545));
#992=EDGE_LOOP('',(#546,#547,#548,#549));
#993=EDGE_LOOP('',(#550,#551,#552,#553));
#994=EDGE_LOOP('',(#554,#555,#556,#557));
#995=EDGE_LOOP('',(#558,#559,#560,#561));
#996=EDGE_LOOP('',(#562,#563,#564,#565));
#997=EDGE_LOOP('',(#566,#567,#568,#569));
#998=EDGE_LOOP('',(#570,#571,#572,#573));
#999=EDGE_LOOP('',(#574,#575,#576,#577));
#1000=EDGE_LOOP('',(#578,#579,#580,#581));
#1001=EDGE_LOOP('',(#582,#583,#584,#585));
#1002=EDGE_LOOP('',(#586,#587,#588,#589));
#1003=FACE_BOUND('',#935,.T.);
#1004=FACE_BOUND('',#936,.T.);
#1005=FACE_BOUND('',#937,.T.);
#1006=FACE_BOUND('',#938,.T.);
#1007=FACE_BOUND('',#939,.T.);
#1008=FACE_BOUND('',#940,.T.);
#1009=FACE_BOUND('',#941,.T.);
#1010=FACE_BOUND('',#942,.T.);
#1011=FACE_BOUND('',#943,.T.);
#1012=FACE_BOUND('',#944,.T.);
#1013=FACE_BOUND('',#945,.T.);
#1014=FACE_BOUND('',#946,.T.);
#1015=FACE_BOUND('',#947,.T.);
#1016=FACE_BOUND('',#948,.T.);
#1017=FACE_BOUND('',#949,.T.);
#1018=FACE_BOUND('',#950,.T.);
#1019=FACE_BOUND('',#951,.T.);
#1020=FACE_BOUND('',#952,.T.);
#1021=FACE_BOUND('',#953,.T.);
#1022=FACE_BOUND('',#954,.T.);
#1023=FACE_BOUND('',#955,.T.);
#1024=FACE_BOUND('',#956,.T.);
#1025=FACE_BOUND('',#957,.T.);
#1026=FACE_BOUND('',#958,.T.);
#1027=FACE_BOUND('',#959,.T.);
#1028=FACE_BOUND('',#960,.T.);
#1029=FACE_BOUND('',#961,.T.);
#1030=FACE_BOUND('',#962,.T.);
#1031=FACE_BOUND('',#963,.T.);
#1032=FACE_BOUND('',#964,.T.);
#1033=FACE_BOUND('',#965,.T.);
#1034=FACE_BOUND('',#966,.T.);
#1035=FACE_BOUND('',#967,.T.);
#1036=FACE_BOUND('',#968,.T.);
#1037=FACE_BOUND('',#969,.T.);
#1038=FACE_BOUND('',#970,.T.);
#1039=FACE_BOUND('',#971,.T.);
#1040=FACE_BOUND('',#972,.T.);
#1041=FACE_BOUND('',#973,.T.);
#1042=FACE_BOUND('',#974,.T.);
#1043=FACE_BOUND('',#975,.T.);
#1044=FACE_BOUND('',#976,.T.);
#1045=FACE_BOUND('',#977,.T.);
#1046=FACE_BOUND('',#978,.T.);
#1047=FACE_BOUND('',#979,.T.);
#1048=FACE_BOUND('',#980,.T.);
#1049=FACE_BOUND('',#981,.T.);
#1050=FACE_BOUND('',#982,.T.);
#1051=FACE_BOUND('',#983,.T.);
#1052=FACE_BOUND('',#984,.T.);
#1053=FACE_BOUND('',#985,.T.);
#1054=FACE_BOUND('',#986,.T.);
#1055=FACE_BOUND('',#987,.T.);
#1056=FACE_BOUND('',#988,.T.);
#1057=FACE_BOUND('',#989,.T.);
#1058=FACE_BOUND('',#990,.T.);
#1059=FACE_BOUND('',#991,.T.);
#1060=FACE_BOUND('',#992,.T.);
#1061=FACE_BOUND('',#993,.T.);
#1062=FACE_BOUND('',#994,.T.);
#1063=FACE_BOUND('',#995,.T.);
#1064=FACE_BOUND('',#996,.T.);
#1065=FACE_BOUND('',#997,.T.);
#1066=FACE_BOUND('',#998,.T.);
#1067=FACE_BOUND('',#999,.T.);
#1068=FACE_BOUND('',#1000,.T.);
#1069=FACE_BOUND('',#1001,.T.);
#1070=FACE_BOUND('',#1002,.T.);
#1071=PLANE('',#1194);
#1072=PLANE('',#1197);
#1073=PLANE('',#1200);
#1074=PLANE('',#1203);
#1075=PLANE('',#1206);
#1076=PLANE('',#1209);
#1077=PLANE('',#1212);
#1078=PLANE('',#1215);
#1079=PLANE('',#1218);
#1080=PLANE('',#1221);
#1081=PLANE('',#1224);
#1082=PLANE('',#1227);
#1083=PLANE('',#1231);
#1084=PLANE('',#1232);
#1085=PLANE('',#1233);
#1086=PLANE('',#1234);
#1087=PLANE('',#1238);
#1088=PLANE('',#1239);
#1089=PLANE('',#1240);
#1090=PLANE('',#1241);
#1091=PLANE('',#1245);
#1092=PLANE('',#1246);
#1093=PLANE('',#1247);
#1094=PLANE('',#1248);
#1095=PLANE('',#1252);
#1096=PLANE('',#1253);
#1097=PLANE('',#1254);
#1098=PLANE('',#1255);
#1099=PLANE('',#1259);
#1100=PLANE('',#1260);
#1101=PLANE('',#1261);
#1102=PLANE('',#1262);
#1103=PLANE('',#1266);
#1104=PLANE('',#1267);
#1105=PLANE('',#1283);
#1106=PLANE('',#1287);
#1107=PLANE('',#1300);
#1108=PLANE('',#1302);
#1109=PLANE('',#1303);
#1110=PLANE('',#1304);
#1111=PLANE('',#1305);
#1112=PLANE('',#1306);
#1113=PLANE('',#1307);
#1114=PLANE('',#1308);
#1115=PLANE('',#1309);
#1116=ADVANCED_FACE('',(#1003),#1071,.F.);
#1117=ADVANCED_FACE('',(#1004),#1072,.F.);
#1118=ADVANCED_FACE('',(#1005),#1073,.F.);
#1119=ADVANCED_FACE('',(#1006),#1074,.F.);
#1120=ADVANCED_FACE('',(#1007),#1075,.F.);
#1121=ADVANCED_FACE('',(#1008),#1076,.F.);
#1122=ADVANCED_FACE('',(#1009),#1077,.F.);
#1123=ADVANCED_FACE('',(#1010),#1078,.F.);
#1124=ADVANCED_FACE('',(#1011),#1079,.F.);
#1125=ADVANCED_FACE('',(#1012),#1080,.F.);
#1126=ADVANCED_FACE('',(#1013),#1081,.F.);
#1127=ADVANCED_FACE('',(#1014),#1082,.T.);
#1128=ADVANCED_FACE('',(#1015),#12,.F.);
#1129=ADVANCED_FACE('',(#1016),#1083,.F.);
#1130=ADVANCED_FACE('',(#1017),#1084,.T.);
#1131=ADVANCED_FACE('',(#1018),#1085,.T.);
#1132=ADVANCED_FACE('',(#1019),#1086,.T.);
#1133=ADVANCED_FACE('',(#1020),#13,.F.);
#1134=ADVANCED_FACE('',(#1021),#1087,.F.);
#1135=ADVANCED_FACE('',(#1022),#1088,.T.);
#1136=ADVANCED_FACE('',(#1023),#1089,.T.);
#1137=ADVANCED_FACE('',(#1024),#1090,.T.);
#1138=ADVANCED_FACE('',(#1025),#14,.F.);
#1139=ADVANCED_FACE('',(#1026),#1091,.F.);
#1140=ADVANCED_FACE('',(#1027),#1092,.T.);
#1141=ADVANCED_FACE('',(#1028),#1093,.T.);
#1142=ADVANCED_FACE('',(#1029),#1094,.T.);
#1143=ADVANCED_FACE('',(#1030),#15,.F.);
#1144=ADVANCED_FACE('',(#1031),#1095,.F.);
#1145=ADVANCED_FACE('',(#1032),#1096,.T.);
#1146=ADVANCED_FACE('',(#1033),#1097,.T.);
#1147=ADVANCED_FACE('',(#1034),#1098,.T.);
#1148=ADVANCED_FACE('',(#1035),#16,.F.);
#1149=ADVANCED_FACE('',(#1036),#1099,.F.);
#1150=ADVANCED_FACE('',(#1037),#1100,.T.);
#1151=ADVANCED_FACE('',(#1038),#1101,.T.);
#1152=ADVANCED_FACE('',(#1039),#1102,.T.);
#1153=ADVANCED_FACE('',(#1040),#17,.F.);
#1154=ADVANCED_FACE('',(#1041),#1103,.F.);
#1155=ADVANCED_FACE('',(#1042),#1104,.T.);
#1156=ADVANCED_FACE('',(#1043,#1044),#18,.T.);
#1157=ADVANCED_FACE('',(#1045),#1105,.T.);
#1158=ADVANCED_FACE('',(#1046,#1047),#19,.F.);
#1159=ADVANCED_FACE('',(#1048,#1049),#1106,.T.);
#1160=ADVANCED_FACE('',(#1050),#1107,.F.);
#1161=ADVANCED_FACE('',(#1051),#1108,.F.);
#1162=ADVANCED_FACE('',(#1052),#1109,.F.);
#1163=ADVANCED_FACE('',(#1053),#1110,.F.);
#1164=ADVANCED_FACE('',(#1054),#1111,.F.);
#1165=ADVANCED_FACE('',(#1055),#1112,.F.);
#1166=ADVANCED_FACE('',(#1056),#1113,.F.);
#1167=ADVANCED_FACE('',(#1057),#1114,.T.);
#1168=ADVANCED_FACE('',(#1058),#1115,.F.);
#1169=ADVANCED_FACE('',(#1059),#20,.F.);
#1170=ADVANCED_FACE('',(#1060),#21,.F.);
#1171=ADVANCED_FACE('',(#1061),#22,.F.);
#1172=ADVANCED_FACE('',(#1062),#23,.F.);
#1173=ADVANCED_FACE('',(#1063),#24,.F.);
#1174=ADVANCED_FACE('',(#1064),#25,.F.);
#1175=ADVANCED_FACE('',(#1065),#26,.F.);
#1176=ADVANCED_FACE('',(#1066),#27,.F.);
#1177=ADVANCED_FACE('',(#1067),#28,.F.);
#1178=ADVANCED_FACE('',(#1068),#29,.F.);
#1179=ADVANCED_FACE('',(#1069),#30,.F.);
#1180=ADVANCED_FACE('',(#1070),#31,.F.);
#1181=CLOSED_SHELL('',(#1116,#1117,#1118,#1119,#1120,#1121,#1122,#1123,
#1124,#1125,#1126,#1127,#1128,#1129,#1130,#1131,#1132,#1133,#1134,#1135,
#1136,#1137,#1138,#1139,#1140,#1141,#1142,#1143,#1144,#1145,#1146,#1147,
#1148,#1149,#1150,#1151,#1152,#1153,#1154,#1155,#1156,#1157,#1158,#1159,
#1160,#1161,#1162,#1163,#1164,#1165,#1166,#1167,#1168,#1169,#1170,#1171,
#1172,#1173,#1174,#1175,#1176,#1177,#1178,#1179,#1180));
#1182=STYLED_ITEM('',(#1183),#1190);
#1183=PRESENTATION_STYLE_ASSIGNMENT((#1184));
#1184=SURFACE_STYLE_USAGE(.BOTH.,#1185);
#1185=SURFACE_SIDE_STYLE('',(#1186));
#1186=SURFACE_STYLE_FILL_AREA(#1187);
#1187=FILL_AREA_STYLE('',(#1188));
#1188=FILL_AREA_STYLE_COLOUR('',#1189);
#1189=COLOUR_RGB('',0.615686274509804,0.811764705882353,0.929411764705882);
#1190=MANIFOLD_SOLID_BREP('Part 1',#1181);
#1191=SHAPE_DEFINITION_REPRESENTATION(#2042,#1192);
#1192=SHAPE_REPRESENTATION('Part 1',(#1193),#2037);
#1193=AXIS2_PLACEMENT_3D('',#1688,#1322,#1323);
#1194=AXIS2_PLACEMENT_3D('',#1689,#1324,#1325);
#1195=AXIS2_PLACEMENT_3D('',#1690,#1326,#1327);
#1196=AXIS2_PLACEMENT_3D('',#1697,#1330,#1331);
#1197=AXIS2_PLACEMENT_3D('',#1698,#1332,#1333);
#1198=AXIS2_PLACEMENT_3D('',#1699,#1334,#1335);
#1199=AXIS2_PLACEMENT_3D('',#1702,#1336,#1337);
#1200=AXIS2_PLACEMENT_3D('',#1707,#1340,#1341);
#1201=AXIS2_PLACEMENT_3D('',#1708,#1342,#1343);
#1202=AXIS2_PLACEMENT_3D('',#1715,#1346,#1347);
#1203=AXIS2_PLACEMENT_3D('',#1716,#1348,#1349);
#1204=AXIS2_PLACEMENT_3D('',#1717,#1350,#1351);
#1205=AXIS2_PLACEMENT_3D('',#1720,#1352,#1353);
#1206=AXIS2_PLACEMENT_3D('',#1725,#1356,#1357);
#1207=AXIS2_PLACEMENT_3D('',#1726,#1358,#1359);
#1208=AXIS2_PLACEMENT_3D('',#1733,#1362,#1363);
#1209=AXIS2_PLACEMENT_3D('',#1734,#1364,#1365);
#1210=AXIS2_PLACEMENT_3D('',#1735,#1366,#1367);
#1211=AXIS2_PLACEMENT_3D('',#1738,#1368,#1369);
#1212=AXIS2_PLACEMENT_3D('',#1743,#1372,#1373);
#1213=AXIS2_PLACEMENT_3D('',#1744,#1374,#1375);
#1214=AXIS2_PLACEMENT_3D('',#1751,#1378,#1379);
#1215=AXIS2_PLACEMENT_3D('',#1752,#1380,#1381);
#1216=AXIS2_PLACEMENT_3D('',#1753,#1382,#1383);
#1217=AXIS2_PLACEMENT_3D('',#1756,#1384,#1385);
#1218=AXIS2_PLACEMENT_3D('',#1761,#1388,#1389);
#1219=AXIS2_PLACEMENT_3D('',#1762,#1390,#1391);
#1220=AXIS2_PLACEMENT_3D('',#1769,#1394,#1395);
#1221=AXIS2_PLACEMENT_3D('',#1770,#1396,#1397);
#1222=AXIS2_PLACEMENT_3D('',#1771,#1398,#1399);
#1223=AXIS2_PLACEMENT_3D('',#1774,#1400,#1401);
#1224=AXIS2_PLACEMENT_3D('',#1779,#1404,#1405);
#1225=AXIS2_PLACEMENT_3D('',#1780,#1406,#1407);
#1226=AXIS2_PLACEMENT_3D('',#1787,#1410,#1411);
#1227=AXIS2_PLACEMENT_3D('',#1788,#1412,#1413);
#1228=AXIS2_PLACEMENT_3D('',#1796,#1418,#1419);
#1229=AXIS2_PLACEMENT_3D('',#1797,#1420,#1421);
#1230=AXIS2_PLACEMENT_3D('',#1801,#1423,#1424);
#1231=AXIS2_PLACEMENT_3D('',#1802,#1425,#1426);
#1232=AXIS2_PLACEMENT_3D('',#1810,#1431,#1432);
#1233=AXIS2_PLACEMENT_3D('',#1816,#1436,#1437);
#1234=AXIS2_PLACEMENT_3D('',#1822,#1441,#1442);
#1235=AXIS2_PLACEMENT_3D('',#1828,#1446,#1447);
#1236=AXIS2_PLACEMENT_3D('',#1829,#1448,#1449);
#1237=AXIS2_PLACEMENT_3D('',#1833,#1451,#1452);
#1238=AXIS2_PLACEMENT_3D('',#1834,#1453,#1454);
#1239=AXIS2_PLACEMENT_3D('',#1839,#1458,#1459);
#1240=AXIS2_PLACEMENT_3D('',#1843,#1462,#1463);
#1241=AXIS2_PLACEMENT_3D('',#1849,#1467,#1468);
#1242=AXIS2_PLACEMENT_3D('',#1855,#1472,#1473);
#1243=AXIS2_PLACEMENT_3D('',#1856,#1474,#1475);
#1244=AXIS2_PLACEMENT_3D('',#1860,#1477,#1478);
#1245=AXIS2_PLACEMENT_3D('',#1861,#1479,#1480);
#1246=AXIS2_PLACEMENT_3D('',#1866,#1484,#1485);
#1247=AXIS2_PLACEMENT_3D('',#1870,#1488,#1489);
#1248=AXIS2_PLACEMENT_3D('',#1876,#1493,#1494);
#1249=AXIS2_PLACEMENT_3D('',#1882,#1498,#1499);
#1250=AXIS2_PLACEMENT_3D('',#1883,#1500,#1501);
#1251=AXIS2_PLACEMENT_3D('',#1887,#1503,#1504);
#1252=AXIS2_PLACEMENT_3D('',#1888,#1505,#1506);
#1253=AXIS2_PLACEMENT_3D('',#1893,#1510,#1511);
#1254=AXIS2_PLACEMENT_3D('',#1897,#1514,#1515);
#1255=AXIS2_PLACEMENT_3D('',#1903,#1519,#1520);
#1256=AXIS2_PLACEMENT_3D('',#1909,#1524,#1525);
#1257=AXIS2_PLACEMENT_3D('',#1910,#1526,#1527);
#1258=AXIS2_PLACEMENT_3D('',#1914,#1529,#1530);
#1259=AXIS2_PLACEMENT_3D('',#1915,#1531,#1532);
#1260=AXIS2_PLACEMENT_3D('',#1920,#1536,#1537);
#1261=AXIS2_PLACEMENT_3D('',#1924,#1540,#1541);
#1262=AXIS2_PLACEMENT_3D('',#1930,#1545,#1546);
#1263=AXIS2_PLACEMENT_3D('',#1936,#1550,#1551);
#1264=AXIS2_PLACEMENT_3D('',#1937,#1552,#1553);
#1265=AXIS2_PLACEMENT_3D('',#1941,#1555,#1556);
#1266=AXIS2_PLACEMENT_3D('',#1942,#1557,#1558);
#1267=AXIS2_PLACEMENT_3D('',#1947,#1562,#1563);
#1268=AXIS2_PLACEMENT_3D('',#1951,#1566,#1567);
#1269=AXIS2_PLACEMENT_3D('',#1954,#1569,#1570);
#1270=AXIS2_PLACEMENT_3D('',#1957,#1572,#1573);
#1271=AXIS2_PLACEMENT_3D('',#1960,#1575,#1576);
#1272=AXIS2_PLACEMENT_3D('',#1963,#1578,#1579);
#1273=AXIS2_PLACEMENT_3D('',#1966,#1581,#1582);
#1274=AXIS2_PLACEMENT_3D('',#1969,#1584,#1585);
#1275=AXIS2_PLACEMENT_3D('',#1972,#1587,#1588);
#1276=AXIS2_PLACEMENT_3D('',#1975,#1590,#1591);
#1277=AXIS2_PLACEMENT_3D('',#1978,#1593,#1594);
#1278=AXIS2_PLACEMENT_3D('',#1981,#1596,#1597);
#1279=AXIS2_PLACEMENT_3D('',#1984,#1599,#1600);
#1280=AXIS2_PLACEMENT_3D('',#1988,#1602,#1603);
#1281=AXIS2_PLACEMENT_3D('',#1989,#1604,#1605);
#1282=AXIS2_PLACEMENT_3D('',#1990,#1606,#1607);
#1283=AXIS2_PLACEMENT_3D('',#1992,#1608,#1609);
#1284=AXIS2_PLACEMENT_3D('',#1996,#1612,#1613);
#1285=AXIS2_PLACEMENT_3D('',#1997,#1614,#1615);
#1286=AXIS2_PLACEMENT_3D('',#1999,#1616,#1617);
#1287=AXIS2_PLACEMENT_3D('',#2001,#1618,#1619);
#1288=AXIS2_PLACEMENT_3D('',#2002,#1620,#1621);
#1289=AXIS2_PLACEMENT_3D('',#2003,#1622,#1623);
#1290=AXIS2_PLACEMENT_3D('',#2004,#1624,#1625);
#1291=AXIS2_PLACEMENT_3D('',#2005,#1626,#1627);
#1292=AXIS2_PLACEMENT_3D('',#2006,#1628,#1629);
#1293=AXIS2_PLACEMENT_3D('',#2007,#1630,#1631);
#1294=AXIS2_PLACEMENT_3D('',#2008,#1632,#1633);
#1295=AXIS2_PLACEMENT_3D('',#2009,#1634,#1635);
#1296=AXIS2_PLACEMENT_3D('',#2010,#1636,#1637);
#1297=AXIS2_PLACEMENT_3D('',#2011,#1638,#1639);
#1298=AXIS2_PLACEMENT_3D('',#2012,#1640,#1641);
#1299=AXIS2_PLACEMENT_3D('',#2013,#1642,#1643);
#1300=AXIS2_PLACEMENT_3D('',#2014,#1644,#1645);
#1301=AXIS2_PLACEMENT_3D('',#2015,#1646,#1647);
#1302=AXIS2_PLACEMENT_3D('',#2016,#1648,#1649);
#1303=AXIS2_PLACEMENT_3D('',#2017,#1650,#1651);
#1304=AXIS2_PLACEMENT_3D('',#2018,#1652,#1653);
#1305=AXIS2_PLACEMENT_3D('',#2019,#1654,#1655);
#1306=AXIS2_PLACEMENT_3D('',#2020,#1656,#1657);
#1307=AXIS2_PLACEMENT_3D('',#2021,#1658,#1659);
#1308=AXIS2_PLACEMENT_3D('',#2022,#1660,#1661);
#1309=AXIS2_PLACEMENT_3D('',#2023,#1662,#1663);
#1310=AXIS2_PLACEMENT_3D('',#2024,#1664,#1665);
#1311=AXIS2_PLACEMENT_3D('',#2025,#1666,#1667);
#1312=AXIS2_PLACEMENT_3D('',#2026,#1668,#1669);
#1313=AXIS2_PLACEMENT_3D('',#2027,#1670,#1671);
#1314=AXIS2_PLACEMENT_3D('',#2028,#1672,#1673);
#1315=AXIS2_PLACEMENT_3D('',#2029,#1674,#1675);
#1316=AXIS2_PLACEMENT_3D('',#2030,#1676,#1677);
#1317=AXIS2_PLACEMENT_3D('',#2031,#1678,#1679);
#1318=AXIS2_PLACEMENT_3D('',#2032,#1680,#1681);
#1319=AXIS2_PLACEMENT_3D('',#2033,#1682,#1683);
#1320=AXIS2_PLACEMENT_3D('',#2034,#1684,#1685);
#1321=AXIS2_PLACEMENT_3D('',#2035,#1686,#1687);
#1322=DIRECTION('',(0.,0.,1.));
#1323=DIRECTION('',(1.,0.,0.));
#1324=DIRECTION('',(0.,0.,1.));
#1325=DIRECTION('',(1.,0.,0.));
#1326=DIRECTION('',(0.,0.,-1.));
#1327=DIRECTION('',(-1.,0.,0.));
#1328=DIRECTION('',(-1.,-1.20913009324572E-16,0.));
#1329=DIRECTION('',(0.,1.,0.));
#1330=DIRECTION('',(0.,0.,1.));
#1331=DIRECTION('',(1.,0.,0.));
#1332=DIRECTION('',(0.,0.,1.));
#1333=DIRECTION('',(1.,0.,0.));
#1334=DIRECTION('',(0.,0.,-1.));
#1335=DIRECTION('',(-1.,0.,0.));
#1336=DIRECTION('',(0.,0.,1.));
#1337=DIRECTION('',(1.,0.,0.));
#1338=DIRECTION('',(0.866025403784439,0.5,0.));
#1339=DIRECTION('',(-0.5,0.866025403784438,0.));
#1340=DIRECTION('',(0.,0.,1.));
#1341=DIRECTION('',(1.,0.,0.));
#1342=DIRECTION('',(0.,0.,-1.));
#1343=DIRECTION('',(-1.,0.,0.));
#1344=DIRECTION('',(-0.5,0.866025403784439,0.));
#1345=DIRECTION('',(0.866025403784438,0.5,0.));
#1346=DIRECTION('',(0.,0.,1.));
#1347=DIRECTION('',(1.,0.,0.));
#1348=DIRECTION('',(0.,0.,1.));
#1349=DIRECTION('',(1.,0.,0.));
#1350=DIRECTION('',(0.,0.,-1.));
#1351=DIRECTION('',(-1.,0.,0.));
#1352=DIRECTION('',(0.,0.,1.));
#1353=DIRECTION('',(1.,0.,0.));
#1354=DIRECTION('',(0.86602540378444,-0.5,0.));
#1355=DIRECTION('',(0.5,0.866025403784438,0.));
#1356=DIRECTION('',(0.,0.,1.));
#1357=DIRECTION('',(1.,0.,0.));
#1358=DIRECTION('',(0.,0.,-1.));
#1359=DIRECTION('',(-1.,0.,0.));
#1360=DIRECTION('',(0.5,0.866025403784439,0.));
#1361=DIRECTION('',(0.866025403784439,-0.5,0.));
#1362=DIRECTION('',(0.,0.,1.));
#1363=DIRECTION('',(1.,0.,0.));
#1364=DIRECTION('',(0.,0.,1.));
#1365=DIRECTION('',(1.,0.,0.));
#1366=DIRECTION('',(0.,0.,-1.));
#1367=DIRECTION('',(-1.,0.,0.));
#1368=DIRECTION('',(0.,0.,1.));
#1369=DIRECTION('',(1.,0.,0.));
#1370=DIRECTION('',(0.,-1.,0.));
#1371=DIRECTION('',(1.,-2.67632078633153E-16,0.));
#1372=DIRECTION('',(0.,0.,1.));
#1373=DIRECTION('',(1.,0.,0.));
#1374=DIRECTION('',(0.,0.,-1.));
#1375=DIRECTION('',(-1.,0.,0.));
#1376=DIRECTION('',(1.,-3.62739027973716E-16,0.));
#1377=DIRECTION('',(0.,-1.,0.));
#1378=DIRECTION('',(0.,0.,1.));
#1379=DIRECTION('',(1.,0.,0.));
#1380=DIRECTION('',(0.,0.,1.));
#1381=DIRECTION('',(1.,0.,0.));
#1382=DIRECTION('',(0.,0.,-1.));
#1383=DIRECTION('',(-1.,0.,0.));
#1384=DIRECTION('',(0.,0.,1.));
#1385=DIRECTION('',(1.,0.,0.));
#1386=DIRECTION('',(-0.866025403784439,-0.5,0.));
#1387=DIRECTION('',(0.5,-0.866025403784438,0.));
#1388=DIRECTION('',(0.,0.,1.));
#1389=DIRECTION('',(1.,0.,0.));
#1390=DIRECTION('',(0.,0.,-1.));
#1391=DIRECTION('',(-1.,0.,0.));
#1392=DIRECTION('',(0.5,-0.866025403784438,0.));
#1393=DIRECTION('',(-0.866025403784439,-0.5,0.));
#1394=DIRECTION('',(0.,0.,1.));
#1395=DIRECTION('',(1.,0.,0.));
#1396=DIRECTION('',(0.,0.,1.));
#1397=DIRECTION('',(1.,0.,0.));
#1398=DIRECTION('',(0.,0.,-1.));
#1399=DIRECTION('',(-1.,0.,0.));
#1400=DIRECTION('',(0.,0.,1.));
#1401=DIRECTION('',(1.,0.,0.));
#1402=DIRECTION('',(-0.86602540378444,0.5,0.));
#1403=DIRECTION('',(-0.5,-0.866025403784439,0.));
#1404=DIRECTION('',(0.,0.,1.));
#1405=DIRECTION('',(1.,0.,0.));
#1406=DIRECTION('',(0.,0.,-1.));
#1407=DIRECTION('',(-1.,0.,0.));
#1408=DIRECTION('',(-0.5,-0.866025403784439,0.));
#1409=DIRECTION('',(-0.866025403784438,0.5,0.));
#1410=DIRECTION('',(0.,0.,1.));
#1411=DIRECTION('',(1.,0.,0.));
#1412=DIRECTION('',(1.20913009324572E-16,-1.,0.));
#1413=DIRECTION('',(1.,1.20913009324572E-16,0.));
#1414=DIRECTION('',(-1.,-1.20913009324572E-16,0.));
#1415=DIRECTION('',(0.,0.,-1.));
#1416=DIRECTION('',(-1.,-1.20913009324572E-16,0.));
#1417=DIRECTION('',(0.,0.,-1.));
#1418=DIRECTION('',(0.,0.,-1.));
#1419=DIRECTION('',(-1.,0.,0.));
#1420=DIRECTION('',(0.,0.,1.));
#1421=DIRECTION('',(1.,0.,0.));
#1422=DIRECTION('',(0.,0.,-1.));
#1423=DIRECTION('',(0.,0.,1.));
#1424=DIRECTION('',(1.,0.,0.));
#1425=DIRECTION('',(0.,-1.,0.));
#1426=DIRECTION('',(0.,0.,-1.));
#1427=DIRECTION('',(-1.,0.,0.));
#1428=DIRECTION('',(-1.,0.,0.));
#1429=DIRECTION('',(0.,0.,-1.));
#1430=DIRECTION('',(-1.,0.,0.));
#1431=DIRECTION('',(-1.,0.,0.));
#1432=DIRECTION('',(0.,0.,1.));
#1433=DIRECTION('',(0.,1.,0.));
#1434=DIRECTION('',(0.,0.,-1.));
#1435=DIRECTION('',(0.,1.,0.));
#1436=DIRECTION('',(-0.5,-0.866025403784438,0.));
#1437=DIRECTION('',(0.866025403784439,-0.5,0.));
#1438=DIRECTION('',(0.,0.,-1.));
#1439=DIRECTION('',(-0.866025403784438,0.5,0.));
#1440=DIRECTION('',(0.,0.,-1.));
#1441=DIRECTION('',(0.866025403784439,-0.5,0.));
#1442=DIRECTION('',(0.5,0.866025403784439,0.));
#1443=DIRECTION('',(-0.5,-0.866025403784439,0.));
#1444=DIRECTION('',(0.,0.,-1.));
#1445=DIRECTION('',(-0.5,-0.866025403784439,0.));
#1446=DIRECTION('',(0.,0.,-1.));
#1447=DIRECTION('',(-1.,0.,0.));
#1448=DIRECTION('',(0.,0.,1.));
#1449=DIRECTION('',(1.,0.,0.));
#1450=DIRECTION('',(0.,0.,-1.));
#1451=DIRECTION('',(0.,0.,1.));
#1452=DIRECTION('',(1.,0.,0.));
#1453=DIRECTION('',(0.866025403784439,-0.5,0.));
#1454=DIRECTION('',(0.5,0.866025403784439,0.));
#1455=DIRECTION('',(-0.5,-0.866025403784439,0.));
#1456=DIRECTION('',(0.,0.,-1.));
#1457=DIRECTION('',(-0.5,-0.866025403784439,0.));
#1458=DIRECTION('',(-0.5,-0.86602540378444,0.));
#1459=DIRECTION('',(0.86602540378444,-0.5,0.));
#1460=DIRECTION('',(0.,0.,-1.));
#1461=DIRECTION('',(-0.86602540378444,0.5,0.));
#1462=DIRECTION('',(0.5,-0.866025403784439,0.));
#1463=DIRECTION('',(0.866025403784439,0.5,0.));
#1464=DIRECTION('',(0.,0.,-1.));
#1465=DIRECTION('',(-0.866025403784439,-0.5,0.));
#1466=DIRECTION('',(0.,0.,-1.));
#1467=DIRECTION('',(0.866025403784438,0.5,0.));
#1468=DIRECTION('',(-0.5,0.866025403784438,0.));
#1469=DIRECTION('',(0.5,-0.866025403784438,0.));
#1470=DIRECTION('',(0.,0.,-1.));
#1471=DIRECTION('',(0.5,-0.866025403784438,0.));
#1472=DIRECTION('',(0.,0.,-1.));
#1473=DIRECTION('',(-1.,0.,0.));
#1474=DIRECTION('',(0.,0.,1.));
#1475=DIRECTION('',(1.,0.,0.));
#1476=DIRECTION('',(0.,0.,-1.));
#1477=DIRECTION('',(0.,0.,1.));
#1478=DIRECTION('',(1.,0.,0.));
#1479=DIRECTION('',(0.866025403784438,0.5,0.));
#1480=DIRECTION('',(-0.5,0.866025403784438,0.));
#1481=DIRECTION('',(0.5,-0.866025403784438,0.));
#1482=DIRECTION('',(0.,0.,-1.));
#1483=DIRECTION('',(0.5,-0.866025403784438,0.));
#1484=DIRECTION('',(0.5,-0.866025403784439,0.));
#1485=DIRECTION('',(0.866025403784439,0.5,0.));
#1486=DIRECTION('',(0.,0.,-1.));
#1487=DIRECTION('',(-0.866025403784439,-0.5,0.));
#1488=DIRECTION('',(1.,0.,0.));
#1489=DIRECTION('',(0.,0.,-1.));
#1490=DIRECTION('',(0.,0.,-1.));
#1491=DIRECTION('',(0.,-1.,0.));
#1492=DIRECTION('',(0.,0.,-1.));
#1493=DIRECTION('',(3.62739027973716E-16,1.,0.));
#1494=DIRECTION('',(-1.,3.62739027973716E-16,0.));
#1495=DIRECTION('',(1.,-3.62739027973716E-16,0.));
#1496=DIRECTION('',(0.,0.,-1.));
#1497=DIRECTION('',(1.,-3.62739027973716E-16,0.));
#1498=DIRECTION('',(0.,0.,-1.));
#1499=DIRECTION('',(-1.,0.,0.));
#1500=DIRECTION('',(0.,0.,1.));
#1501=DIRECTION('',(1.,0.,0.));
#1502=DIRECTION('',(0.,0.,-1.));
#1503=DIRECTION('',(0.,0.,1.));
#1504=DIRECTION('',(1.,0.,0.));
#1505=DIRECTION('',(2.67632078633153E-16,1.,0.));
#1506=DIRECTION('',(-1.,2.67632078633153E-16,0.));
#1507=DIRECTION('',(1.,-2.67632078633153E-16,0.));
#1508=DIRECTION('',(0.,0.,-1.));
#1509=DIRECTION('',(1.,-2.67632078633153E-16,0.));
#1510=DIRECTION('',(1.,0.,0.));
#1511=DIRECTION('',(0.,0.,-1.));
#1512=DIRECTION('',(0.,0.,-1.));
#1513=DIRECTION('',(0.,-1.,0.));
#1514=DIRECTION('',(0.5,0.866025403784439,0.));
#1515=DIRECTION('',(-0.866025403784439,0.5,0.));
#1516=DIRECTION('',(0.,0.,-1.));
#1517=DIRECTION('',(0.866025403784439,-0.5,0.));
#1518=DIRECTION('',(0.,0.,-1.));
#1519=DIRECTION('',(-0.866025403784439,0.5,0.));
#1520=DIRECTION('',(-0.5,-0.866025403784439,0.));
#1521=DIRECTION('',(0.5,0.866025403784439,0.));
#1522=DIRECTION('',(0.,0.,-1.));
#1523=DIRECTION('',(0.5,0.866025403784439,0.));
#1524=DIRECTION('',(0.,0.,-1.));
#1525=DIRECTION('',(-1.,0.,0.));
#1526=DIRECTION('',(0.,0.,1.));
#1527=DIRECTION('',(1.,0.,0.));
#1528=DIRECTION('',(0.,0.,-1.));
#1529=DIRECTION('',(0.,0.,1.));
#1530=DIRECTION('',(1.,0.,0.));
#1531=DIRECTION('',(-0.866025403784438,0.5,0.));
#1532=DIRECTION('',(-0.5,-0.866025403784438,0.));
#1533=DIRECTION('',(0.5,0.866025403784438,0.));
#1534=DIRECTION('',(0.,0.,-1.));
#1535=DIRECTION('',(0.5,0.866025403784438,0.));
#1536=DIRECTION('',(0.5,0.86602540378444,0.));
#1537=DIRECTION('',(-0.86602540378444,0.5,0.));
#1538=DIRECTION('',(0.,0.,-1.));
#1539=DIRECTION('',(0.86602540378444,-0.5,0.));
#1540=DIRECTION('',(-0.5,0.866025403784438,0.));
#1541=DIRECTION('',(-0.866025403784438,-0.5,0.));
#1542=DIRECTION('',(0.,0.,-1.));
#1543=DIRECTION('',(0.866025403784438,0.5,0.));
#1544=DIRECTION('',(0.,0.,-1.));
#1545=DIRECTION('',(-0.866025403784439,-0.5,0.));
#1546=DIRECTION('',(0.5,-0.866025403784439,0.));
#1547=DIRECTION('',(-0.5,0.866025403784439,0.));
#1548=DIRECTION('',(0.,0.,-1.));
#1549=DIRECTION('',(-0.5,0.866025403784439,0.));
#1550=DIRECTION('',(0.,0.,-1.));
#1551=DIRECTION('',(-1.,0.,0.));
#1552=DIRECTION('',(0.,0.,1.));
#1553=DIRECTION('',(1.,0.,0.));
#1554=DIRECTION('',(0.,0.,-1.));
#1555=DIRECTION('',(0.,0.,1.));
#1556=DIRECTION('',(1.,0.,0.));
#1557=DIRECTION('',(-0.866025403784438,-0.5,0.));
#1558=DIRECTION('',(0.5,-0.866025403784438,0.));
#1559=DIRECTION('',(-0.5,0.866025403784438,0.));
#1560=DIRECTION('',(0.,0.,-1.));
#1561=DIRECTION('',(-0.5,0.866025403784438,0.));
#1562=DIRECTION('',(-0.5,0.866025403784439,0.));
#1563=DIRECTION('',(-0.866025403784439,-0.5,0.));
#1564=DIRECTION('',(0.,0.,-1.));
#1565=DIRECTION('',(0.866025403784439,0.5,0.));
#1566=DIRECTION('',(0.,0.,-1.));
#1567=DIRECTION('',(-1.,0.,0.));
#1568=DIRECTION('',(0.,0.,-1.));
#1569=DIRECTION('',(0.,0.,1.));
#1570=DIRECTION('',(1.,0.,0.));
#1571=DIRECTION('',(0.,0.,-1.));
#1572=DIRECTION('',(0.,0.,-1.));
#1573=DIRECTION('',(-1.,0.,0.));
#1574=DIRECTION('',(0.,0.,-1.));
#1575=DIRECTION('',(0.,0.,1.));
#1576=DIRECTION('',(1.,0.,0.));
#1577=DIRECTION('',(0.,0.,-1.));
#1578=DIRECTION('',(0.,0.,-1.));
#1579=DIRECTION('',(-1.,0.,0.));
#1580=DIRECTION('',(0.,0.,-1.));
#1581=DIRECTION('',(0.,0.,1.));
#1582=DIRECTION('',(1.,0.,0.));
#1583=DIRECTION('',(0.,0.,-1.));
#1584=DIRECTION('',(0.,0.,-1.));
#1585=DIRECTION('',(-1.,0.,0.));
#1586=DIRECTION('',(0.,0.,-1.));
#1587=DIRECTION('',(0.,0.,1.));
#1588=DIRECTION('',(1.,0.,0.));
#1589=DIRECTION('',(0.,0.,-1.));
#1590=DIRECTION('',(0.,0.,-1.));
#1591=DIRECTION('',(-1.,0.,0.));
#1592=DIRECTION('',(0.,0.,-1.));
#1593=DIRECTION('',(0.,0.,1.));
#1594=DIRECTION('',(1.,0.,0.));
#1595=DIRECTION('',(0.,0.,-1.));
#1596=DIRECTION('',(0.,0.,-1.));
#1597=DIRECTION('',(-1.,0.,0.));
#1598=DIRECTION('',(0.,0.,-1.));
#1599=DIRECTION('',(0.,0.,1.));
#1600=DIRECTION('',(1.,0.,0.));
#1601=DIRECTION('',(0.,0.,-1.));
#1602=DIRECTION('',(0.,0.,-1.));
#1603=DIRECTION('',(-1.,0.,0.));
#1604=DIRECTION('',(0.,0.,-1.));
#1605=DIRECTION('',(-1.,0.,0.));
#1606=DIRECTION('',(0.,0.,-1.));
#1607=DIRECTION('',(-1.,0.,0.));
#1608=DIRECTION('',(-1.,0.,0.));
#1609=DIRECTION('',(0.,0.,1.));
#1610=DIRECTION('',(0.,1.,0.));
#1611=DIRECTION('',(0.,0.,-1.));
#1612=DIRECTION('',(0.,0.,-1.));
#1613=DIRECTION('',(-1.,0.,0.));
#1614=DIRECTION('',(0.,0.,1.));
#1615=DIRECTION('',(1.,0.,0.));
#1616=DIRECTION('',(0.,0.,1.));
#1617=DIRECTION('',(1.,0.,0.));
#1618=DIRECTION('',(0.,0.,1.));
#1619=DIRECTION('',(1.,0.,0.));
#1620=DIRECTION('',(0.,0.,1.));
#1621=DIRECTION('',(1.,0.,0.));
#1622=DIRECTION('',(0.,0.,1.));
#1623=DIRECTION('',(1.,0.,0.));
#1624=DIRECTION('',(0.,0.,1.));
#1625=DIRECTION('',(1.,0.,0.));
#1626=DIRECTION('',(0.,0.,1.));
#1627=DIRECTION('',(1.,0.,0.));
#1628=DIRECTION('',(0.,0.,1.));
#1629=DIRECTION('',(1.,0.,0.));
#1630=DIRECTION('',(0.,0.,1.));
#1631=DIRECTION('',(1.,0.,0.));
#1632=DIRECTION('',(0.,0.,1.));
#1633=DIRECTION('',(1.,0.,0.));
#1634=DIRECTION('',(0.,0.,1.));
#1635=DIRECTION('',(1.,0.,0.));
#1636=DIRECTION('',(0.,0.,1.));
#1637=DIRECTION('',(1.,0.,0.));
#1638=DIRECTION('',(0.,0.,1.));
#1639=DIRECTION('',(1.,0.,0.));
#1640=DIRECTION('',(0.,0.,1.));
#1641=DIRECTION('',(1.,0.,0.));
#1642=DIRECTION('',(0.,0.,1.));
#1643=DIRECTION('',(1.,0.,0.));
#1644=DIRECTION('',(0.,0.,1.));
#1645=DIRECTION('',(1.,0.,0.));
#1646=DIRECTION('',(0.,0.,1.));
#1647=DIRECTION('',(1.,0.,0.));
#1648=DIRECTION('',(0.,0.,-1.));
#1649=DIRECTION('',(1.,0.,0.));
#1650=DIRECTION('',(0.,0.,-1.));
#1651=DIRECTION('',(1.,0.,0.));
#1652=DIRECTION('',(0.,0.,-1.));
#1653=DIRECTION('',(1.,0.,0.));
#1654=DIRECTION('',(0.,0.,-1.));
#1655=DIRECTION('',(1.,0.,0.));
#1656=DIRECTION('',(0.,0.,-1.));
#1657=DIRECTION('',(1.,0.,0.));
#1658=DIRECTION('',(0.,0.,-1.));
#1659=DIRECTION('',(1.,0.,0.));
#1660=DIRECTION('',(0.,0.,-1.));
#1661=DIRECTION('',(1.,0.,0.));
#1662=DIRECTION('',(0.,0.,-1.));
#1663=DIRECTION('',(1.,0.,0.));
#1664=DIRECTION('',(0.,0.,-1.));
#1665=DIRECTION('',(-1.,0.,0.));
#1666=DIRECTION('',(0.,0.,-1.));
#1667=DIRECTION('',(-1.,0.,0.));
#1668=DIRECTION('',(0.,0.,-1.));
#1669=DIRECTION('',(-1.,0.,0.));
#1670=DIRECTION('',(0.,0.,-1.));
#1671=DIRECTION('',(-1.,0.,0.));
#1672=DIRECTION('',(0.,0.,-1.));
#1673=DIRECTION('',(-1.,0.,0.));
#1674=DIRECTION('',(0.,0.,-1.));
#1675=DIRECTION('',(-1.,0.,0.));
#1676=DIRECTION('',(0.,0.,-1.));
#1677=DIRECTION('',(-1.,0.,0.));
#1678=DIRECTION('',(0.,0.,-1.));
#1679=DIRECTION('',(-1.,0.,0.));
#1680=DIRECTION('',(0.,0.,-1.));
#1681=DIRECTION('',(-1.,0.,0.));
#1682=DIRECTION('',(0.,0.,-1.));
#1683=DIRECTION('',(-1.,0.,0.));
#1684=DIRECTION('',(0.,0.,-1.));
#1685=DIRECTION('',(-1.,0.,0.));
#1686=DIRECTION('',(0.,0.,-1.));
#1687=DIRECTION('',(-1.,0.,0.));
#1688=CARTESIAN_POINT('',(0.,0.,0.));
#1689=CARTESIAN_POINT('',(0.,-1.38777878078145E-17,0.));
#1690=CARTESIAN_POINT('',(0.,-4.47149162538678E-18,0.));
#1691=CARTESIAN_POINT('',(-0.0729255409647402,0.00381,0.));
#1692=CARTESIAN_POINT('',(-0.072166962971744,0.0111615447154471,3.16482839200915E-32));
#1693=CARTESIAN_POINT('',(-0.0747188999730751,0.00381,0.));
#1694=CARTESIAN_POINT('',(-0.07651225898141,0.00381,0.));
#1695=CARTESIAN_POINT('',(-0.07651225898141,0.005334,0.));
#1696=CARTESIAN_POINT('',(-0.07651225898141,0.00690304662567956,0.));
#1697=CARTESIAN_POINT('',(-0.0771872734393436,0.011938,0.));
#1698=CARTESIAN_POINT('',(0.,-1.38777878078145E-17,0.));
#1699=CARTESIAN_POINT('',(0.,-4.47149162538678E-18,0.));
#1700=CARTESIAN_POINT('',(-0.0457496627549253,0.0569176508897777,0.));
#1701=CARTESIAN_POINT('',(-0.0397623272707888,0.0612503710601878,0.));
#1702=CARTESIAN_POINT('',(-0.0489322479900505,0.0608771396473274,0.));
#1703=CARTESIAN_POINT('',(-0.044234343232052,0.0628100366659953,0.));
#1704=CARTESIAN_POINT('',(-0.0428755089944912,0.0635945599788351,0.));
#1705=CARTESIAN_POINT('',(-0.0415556862791237,0.0643565599788351,0.));
#1706=CARTESIAN_POINT('',(-0.0402538975750342,0.0621017958026329,0.));
#1707=CARTESIAN_POINT('',(0.,-1.38777878078145E-17,0.));
#1708=CARTESIAN_POINT('',(0.,-4.47149162538678E-18,0.));
#1709=CARTESIAN_POINT('',(-0.0331632136939514,0.0650603710601878,0.));
#1710=CARTESIAN_POINT('',(-0.0264173002168188,0.0680791956052248,2.10988559467277E-32));
#1711=CARTESIAN_POINT('',(-0.0336547839981969,0.0659117958026329,0.));
#1712=CARTESIAN_POINT('',(-0.0349565727022863,0.0681665599788351,0.));
#1713=CARTESIAN_POINT('',(-0.0336367499869188,0.0689285599788351,0.));
#1714=CARTESIAN_POINT('',(-0.0322779157493581,0.0697130832916749,0.));
#1715=CARTESIAN_POINT('',(-0.0282550254492932,0.0728151396473274,0.));
#1716=CARTESIAN_POINT('',(0.,-1.38777878078145E-17,0.));
#1717=CARTESIAN_POINT('',(0.,-4.47149162538678E-18,0.));
#1718=CARTESIAN_POINT('',(0.0264173002168188,0.0680791956052249,0.));
#1719=CARTESIAN_POINT('',(0.0331632136939514,0.0650603710601878,0.));
#1720=CARTESIAN_POINT('',(0.0282550254492932,0.0728151396473274,0.));
#1721=CARTESIAN_POINT('',(0.032277915749358,0.0697130832916749,0.));
#1722=CARTESIAN_POINT('',(0.0336367499869187,0.0689285599788351,0.));
#1723=CARTESIAN_POINT('',(0.0349565727022862,0.0681665599788351,0.));
#1724=CARTESIAN_POINT('',(0.0327581044940293,0.0643587013433092,0.));
#1725=CARTESIAN_POINT('',(0.,-1.38777878078145E-17,0.));
#1726=CARTESIAN_POINT('',(0.,-4.47149162538678E-18,0.));
#1727=CARTESIAN_POINT('',(0.0397623272707888,0.0612503710601878,0.));
#1728=CARTESIAN_POINT('',(0.0457496627549252,0.0569176508897777,4.21977118934553E-32));
#1729=CARTESIAN_POINT('',(0.0406590067749562,0.0628034655195115,0.));
#1730=CARTESIAN_POINT('',(0.0415556862791236,0.0643565599788351,0.));
#1731=CARTESIAN_POINT('',(0.0428755089944911,0.0635945599788351,0.));
#1732=CARTESIAN_POINT('',(0.0442343432320519,0.0628100366659953,0.));
#1733=CARTESIAN_POINT('',(0.0489322479900504,0.0608771396473274,0.));
#1734=CARTESIAN_POINT('',(0.,-1.38777878078145E-17,0.));
#1735=CARTESIAN_POINT('',(0.,-4.47149162538678E-18,0.));
#1736=CARTESIAN_POINT('',(0.0721669629717441,0.0111615447154472,0.));
#1737=CARTESIAN_POINT('',(0.0729255409647402,0.00381,0.));
#1738=CARTESIAN_POINT('',(0.0771872734393436,0.011938,0.));
#1739=CARTESIAN_POINT('',(0.07651225898141,0.00690304662567957,0.));
#1740=CARTESIAN_POINT('',(0.07651225898141,0.005334,0.));
#1741=CARTESIAN_POINT('',(0.07651225898141,0.00381,0.));
#1742=CARTESIAN_POINT('',(0.0721153225648961,0.00381,0.));
#1743=CARTESIAN_POINT('',(0.,-1.38777878078145E-17,0.));
#1744=CARTESIAN_POINT('',(0.,-4.47149162538678E-18,0.));
#1745=CARTESIAN_POINT('',(0.0729255409647402,-0.00381,0.));
#1746=CARTESIAN_POINT('',(0.072166962971744,-0.0111615447154472,4.21977118934553E-32));
#1747=CARTESIAN_POINT('',(0.0747188999730751,-0.00381,0.));
#1748=CARTESIAN_POINT('',(0.07651225898141,-0.00381,0.));
#1749=CARTESIAN_POINT('',(0.07651225898141,-0.005334,0.));
#1750=CARTESIAN_POINT('',(0.07651225898141,-0.00690304662567959,0.));
#1751=CARTESIAN_POINT('',(0.0771872734393436,-0.011938,0.));
#1752=CARTESIAN_POINT('',(0.,-1.38777878078145E-17,0.));
#1753=CARTESIAN_POINT('',(0.,-4.47149162538678E-18,0.));
#1754=CARTESIAN_POINT('',(0.0457496627549253,-0.0569176508897777,0.));
#1755=CARTESIAN_POINT('',(0.0397623272707888,-0.0612503710601878,0.));
#1756=CARTESIAN_POINT('',(0.0489322479900505,-0.0608771396473274,0.));
#1757=CARTESIAN_POINT('',(0.044234343232052,-0.0628100366659953,0.));
#1758=CARTESIAN_POINT('',(0.0428755089944912,-0.0635945599788351,0.));
#1759=CARTESIAN_POINT('',(0.0415556862791237,-0.0643565599788351,0.));
#1760=CARTESIAN_POINT('',(0.0393572180708668,-0.0605487013433092,0.));
#1761=CARTESIAN_POINT('',(0.,-1.38777878078145E-17,0.));
#1762=CARTESIAN_POINT('',(0.,-4.47149162538678E-18,0.));
#1763=CARTESIAN_POINT('',(0.0331632136939514,-0.0650603710601878,0.));
#1764=CARTESIAN_POINT('',(0.0264173002168188,-0.0680791956052248,4.21977118934553E-32));
#1765=CARTESIAN_POINT('',(0.0340598931981189,-0.0666134655195114,0.));
#1766=CARTESIAN_POINT('',(0.0349565727022863,-0.0681665599788351,0.));
#1767=CARTESIAN_POINT('',(0.0336367499869188,-0.0689285599788351,0.));
#1768=CARTESIAN_POINT('',(0.0322779157493581,-0.0697130832916749,0.));
#1769=CARTESIAN_POINT('',(0.0282550254492932,-0.0728151396473274,0.));
#1770=CARTESIAN_POINT('',(0.,-1.38777878078145E-17,0.));
#1771=CARTESIAN_POINT('',(0.,-4.47149162538678E-18,0.));
#1772=CARTESIAN_POINT('',(-0.0264173002168188,-0.0680791956052249,0.));
#1773=CARTESIAN_POINT('',(-0.0331632136939514,-0.0650603710601878,0.));
#1774=CARTESIAN_POINT('',(-0.0282550254492932,-0.0728151396473274,0.));
#1775=CARTESIAN_POINT('',(-0.032277915749358,-0.0697130832916749,0.));
#1776=CARTESIAN_POINT('',(-0.0336367499869188,-0.0689285599788351,0.));
#1777=CARTESIAN_POINT('',(-0.0349565727022862,-0.0681665599788351,0.));
#1778=CARTESIAN_POINT('',(-0.0327581044940293,-0.0643587013433092,0.));
#1779=CARTESIAN_POINT('',(0.,-1.38777878078145E-17,0.));
#1780=CARTESIAN_POINT('',(0.,-4.47149162538678E-18,0.));
#1781=CARTESIAN_POINT('',(-0.0397623272707888,-0.0612503710601878,0.));
#1782=CARTESIAN_POINT('',(-0.0457496627549252,-0.0569176508897777,3.16482839200915E-32));
#1783=CARTESIAN_POINT('',(-0.0406590067749562,-0.0628034655195115,0.));
#1784=CARTESIAN_POINT('',(-0.0415556862791237,-0.0643565599788351,0.));
#1785=CARTESIAN_POINT('',(-0.0428755089944912,-0.0635945599788351,0.));
#1786=CARTESIAN_POINT('',(-0.0442343432320519,-0.0628100366659953,0.));
#1787=CARTESIAN_POINT('',(-0.0489322479900504,-0.0608771396473274,0.));
#1788=CARTESIAN_POINT('',(-0.0747188999730751,0.00381,0.2032));
#1789=CARTESIAN_POINT('',(-0.0747188999730751,0.00381,0.));
#1790=CARTESIAN_POINT('',(-0.0713051041650521,0.00381,0.));
#1791=CARTESIAN_POINT('',(-0.0713051041650521,0.00381,0.2032));
#1792=CARTESIAN_POINT('',(-0.0713051041650521,0.00381,0.2032));
#1793=CARTESIAN_POINT('',(-0.0747188999730751,0.00381,0.2032));
#1794=CARTESIAN_POINT('',(-0.07651225898141,0.00381,0.2032));
#1795=CARTESIAN_POINT('',(-0.07651225898141,0.00381,0.2032));
#1796=CARTESIAN_POINT('',(-0.067945,-1.69135538907739E-17,0.2032));
#1797=CARTESIAN_POINT('',(-0.067945,-1.69135538907739E-17,0.));
#1798=CARTESIAN_POINT('',(-0.071305104165052,-0.00381,0.));
#1799=CARTESIAN_POINT('',(-0.071305104165052,-0.00381,0.2032));
#1800=CARTESIAN_POINT('',(-0.071305104165052,-0.00381,0.2032));
#1801=CARTESIAN_POINT('',(-0.067945,-1.69135538907739E-17,0.2032));
#1802=CARTESIAN_POINT('',(-0.0721153225648961,-0.00381,0.2032));
#1803=CARTESIAN_POINT('',(-0.0721153225648961,-0.00381,0.));
#1804=CARTESIAN_POINT('',(-0.0729255409647402,-0.00381,0.));
#1805=CARTESIAN_POINT('',(-0.0721153225648961,-0.00381,0.));
#1806=CARTESIAN_POINT('',(-0.07651225898141,-0.00381,0.));
#1807=CARTESIAN_POINT('',(-0.07651225898141,-0.00381,0.2032));
#1808=CARTESIAN_POINT('',(-0.07651225898141,-0.00381,0.2032));
#1809=CARTESIAN_POINT('',(-0.0721153225648961,-0.00381,0.2032));
#1810=CARTESIAN_POINT('',(-0.07651225898141,-0.005334,0.2032));
#1811=CARTESIAN_POINT('',(-0.07651225898141,-0.005334,0.));
#1812=CARTESIAN_POINT('',(-0.07651225898141,-0.00690304662567961,0.));
#1813=CARTESIAN_POINT('',(-0.07651225898141,-0.00690304662567961,0.1016));
#1814=CARTESIAN_POINT('',(-0.07651225898141,-0.00690304662567961,0.2032));
#1815=CARTESIAN_POINT('',(-0.07651225898141,-0.005334,0.2032));
#1816=CARTESIAN_POINT('',(-0.0428755089944912,-0.0635945599788351,0.2032));
#1817=CARTESIAN_POINT('',(-0.0415556862791237,-0.0643565599788351,0.2032));
#1818=CARTESIAN_POINT('',(-0.0415556862791237,-0.0643565599788351,0.2032));
#1819=CARTESIAN_POINT('',(-0.0428755089944912,-0.0635945599788351,0.2032));
#1820=CARTESIAN_POINT('',(-0.0442343432320519,-0.0628100366659953,0.2032));
#1821=CARTESIAN_POINT('',(-0.0442343432320519,-0.0628100366659953,0.1016));
#1822=CARTESIAN_POINT('',(-0.0406590067749562,-0.0628034655195115,0.2032));
#1823=CARTESIAN_POINT('',(-0.0406590067749562,-0.0628034655195115,0.));
#1824=CARTESIAN_POINT('',(-0.0389521088709447,-0.0598470316264307,0.));
#1825=CARTESIAN_POINT('',(-0.0389521088709447,-0.0598470316264307,0.2032));
#1826=CARTESIAN_POINT('',(-0.0389521088709447,-0.0598470316264307,0.2032));
#1827=CARTESIAN_POINT('',(-0.0406590067749562,-0.0628034655195115,0.2032));
#1828=CARTESIAN_POINT('',(-0.0339725,-0.0588420960601337,0.2032));
#1829=CARTESIAN_POINT('',(-0.0339725,-0.0588420960601337,0.));
#1830=CARTESIAN_POINT('',(-0.0323529952941073,-0.0636570316264307,0.));
#1831=CARTESIAN_POINT('',(-0.0323529952941073,-0.0636570316264307,0.2032));
#1832=CARTESIAN_POINT('',(-0.0323529952941073,-0.0636570316264307,0.2032));
#1833=CARTESIAN_POINT('',(-0.0339725,-0.0588420960601337,0.2032));
#1834=CARTESIAN_POINT('',(-0.0327581044940293,-0.0643587013433092,0.2032));
#1835=CARTESIAN_POINT('',(-0.0327581044940293,-0.0643587013433092,0.));
#1836=CARTESIAN_POINT('',(-0.0349565727022862,-0.0681665599788351,0.2032));
#1837=CARTESIAN_POINT('',(-0.0349565727022862,-0.0681665599788351,0.2032));
#1838=CARTESIAN_POINT('',(-0.0327581044940293,-0.0643587013433092,0.2032));
#1839=CARTESIAN_POINT('',(-0.0336367499869188,-0.0689285599788351,0.2032));
#1840=CARTESIAN_POINT('',(-0.032277915749358,-0.0697130832916749,0.1016));
#1841=CARTESIAN_POINT('',(-0.032277915749358,-0.0697130832916749,0.2032));
#1842=CARTESIAN_POINT('',(-0.0336367499869188,-0.0689285599788351,0.2032));
#1843=CARTESIAN_POINT('',(0.0336367499869188,-0.0689285599788351,0.2032));
#1844=CARTESIAN_POINT('',(0.0349565727022863,-0.0681665599788351,0.2032));
#1845=CARTESIAN_POINT('',(0.0349565727022863,-0.0681665599788351,0.2032));
#1846=CARTESIAN_POINT('',(0.0336367499869188,-0.0689285599788351,0.2032));
#1847=CARTESIAN_POINT('',(0.0322779157493581,-0.0697130832916749,0.2032));
#1848=CARTESIAN_POINT('',(0.0322779157493581,-0.0697130832916749,0.1016));
#1849=CARTESIAN_POINT('',(0.0340598931981189,-0.0666134655195114,0.2032));
#1850=CARTESIAN_POINT('',(0.0340598931981189,-0.0666134655195114,0.));
#1851=CARTESIAN_POINT('',(0.0323529952941073,-0.0636570316264307,0.));
#1852=CARTESIAN_POINT('',(0.0323529952941073,-0.0636570316264307,0.2032));
#1853=CARTESIAN_POINT('',(0.0323529952941073,-0.0636570316264307,0.2032));
#1854=CARTESIAN_POINT('',(0.0340598931981189,-0.0666134655195114,0.2032));
#1855=CARTESIAN_POINT('',(0.0339725,-0.0588420960601337,0.2032));
#1856=CARTESIAN_POINT('',(0.0339725,-0.0588420960601337,0.));
#1857=CARTESIAN_POINT('',(0.0389521088709448,-0.0598470316264306,0.));
#1858=CARTESIAN_POINT('',(0.0389521088709448,-0.0598470316264306,0.2032));
#1859=CARTESIAN_POINT('',(0.0389521088709448,-0.0598470316264306,0.2032));
#1860=CARTESIAN_POINT('',(0.0339725,-0.0588420960601337,0.2032));
#1861=CARTESIAN_POINT('',(0.0393572180708668,-0.0605487013433092,0.2032));
#1862=CARTESIAN_POINT('',(0.0393572180708668,-0.0605487013433092,0.));
#1863=CARTESIAN_POINT('',(0.0415556862791237,-0.0643565599788351,0.2032));
#1864=CARTESIAN_POINT('',(0.0415556862791237,-0.0643565599788351,0.2032));
#1865=CARTESIAN_POINT('',(0.0393572180708668,-0.0605487013433092,0.2032));
#1866=CARTESIAN_POINT('',(0.0428755089944912,-0.0635945599788351,0.2032));
#1867=CARTESIAN_POINT('',(0.044234343232052,-0.0628100366659953,0.1016));
#1868=CARTESIAN_POINT('',(0.044234343232052,-0.0628100366659953,0.2032));
#1869=CARTESIAN_POINT('',(0.0428755089944912,-0.0635945599788351,0.2032));
#1870=CARTESIAN_POINT('',(0.07651225898141,-0.005334,0.2032));
#1871=CARTESIAN_POINT('',(0.07651225898141,-0.00381,0.2032));
#1872=CARTESIAN_POINT('',(0.07651225898141,-0.00381,0.2032));
#1873=CARTESIAN_POINT('',(0.07651225898141,-0.005334,0.2032));
#1874=CARTESIAN_POINT('',(0.07651225898141,-0.00690304662567959,0.2032));
#1875=CARTESIAN_POINT('',(0.07651225898141,-0.00690304662567959,0.1016));
#1876=CARTESIAN_POINT('',(0.0747188999730751,-0.00381,0.2032));
#1877=CARTESIAN_POINT('',(0.0747188999730751,-0.00381,0.));
#1878=CARTESIAN_POINT('',(0.0713051041650521,-0.00381,0.));
#1879=CARTESIAN_POINT('',(0.0713051041650521,-0.00381,0.2032));
#1880=CARTESIAN_POINT('',(0.0713051041650521,-0.00381,0.2032));
#1881=CARTESIAN_POINT('',(0.0747188999730751,-0.00381,0.2032));
#1882=CARTESIAN_POINT('',(0.067945,-1.10588621593522E-17,0.2032));
#1883=CARTESIAN_POINT('',(0.067945,-1.10588621593522E-17,0.));
#1884=CARTESIAN_POINT('',(0.071305104165052,0.00381,0.));
#1885=CARTESIAN_POINT('',(0.071305104165052,0.00381,0.2032));
#1886=CARTESIAN_POINT('',(0.071305104165052,0.00381,0.2032));
#1887=CARTESIAN_POINT('',(0.067945,-1.10588621593522E-17,0.2032));
#1888=CARTESIAN_POINT('',(0.0721153225648961,0.00381,0.2032));
#1889=CARTESIAN_POINT('',(0.0721153225648961,0.00381,0.));
#1890=CARTESIAN_POINT('',(0.07651225898141,0.00381,0.2032));
#1891=CARTESIAN_POINT('',(0.07651225898141,0.00381,0.2032));
#1892=CARTESIAN_POINT('',(0.0721153225648961,0.00381,0.2032));
#1893=CARTESIAN_POINT('',(0.07651225898141,0.005334,0.2032));
#1894=CARTESIAN_POINT('',(0.07651225898141,0.00690304662567957,0.1016));
#1895=CARTESIAN_POINT('',(0.07651225898141,0.00690304662567957,0.2032));
#1896=CARTESIAN_POINT('',(0.07651225898141,0.005334,0.2032));
#1897=CARTESIAN_POINT('',(0.0428755089944911,0.0635945599788351,0.2032));
#1898=CARTESIAN_POINT('',(0.0415556862791236,0.0643565599788351,0.2032));
#1899=CARTESIAN_POINT('',(0.0415556862791236,0.0643565599788351,0.2032));
#1900=CARTESIAN_POINT('',(0.0428755089944911,0.0635945599788351,0.2032));
#1901=CARTESIAN_POINT('',(0.0442343432320519,0.0628100366659953,0.2032));
#1902=CARTESIAN_POINT('',(0.0442343432320519,0.0628100366659953,0.1016));
#1903=CARTESIAN_POINT('',(0.0406590067749562,0.0628034655195115,0.2032));
#1904=CARTESIAN_POINT('',(0.0406590067749562,0.0628034655195115,0.));
#1905=CARTESIAN_POINT('',(0.0389521088709447,0.0598470316264307,0.));
#1906=CARTESIAN_POINT('',(0.0389521088709447,0.0598470316264307,0.2032));
#1907=CARTESIAN_POINT('',(0.0389521088709447,0.0598470316264307,0.2032));
#1908=CARTESIAN_POINT('',(0.0406590067749562,0.0628034655195115,0.2032));
#1909=CARTESIAN_POINT('',(0.0339725,0.0588420960601337,0.2032));
#1910=CARTESIAN_POINT('',(0.0339725,0.0588420960601337,0.));
#1911=CARTESIAN_POINT('',(0.0323529952941073,0.0636570316264307,0.));
#1912=CARTESIAN_POINT('',(0.0323529952941073,0.0636570316264307,0.2032));
#1913=CARTESIAN_POINT('',(0.0323529952941073,0.0636570316264307,0.2032));
#1914=CARTESIAN_POINT('',(0.0339725,0.0588420960601337,0.2032));
#1915=CARTESIAN_POINT('',(0.0327581044940293,0.0643587013433092,0.2032));
#1916=CARTESIAN_POINT('',(0.0327581044940293,0.0643587013433092,0.));
#1917=CARTESIAN_POINT('',(0.0349565727022862,0.0681665599788351,0.2032));
#1918=CARTESIAN_POINT('',(0.0349565727022862,0.0681665599788351,0.2032));
#1919=CARTESIAN_POINT('',(0.0327581044940293,0.0643587013433092,0.2032));
#1920=CARTESIAN_POINT('',(0.0336367499869187,0.0689285599788351,0.2032));
#1921=CARTESIAN_POINT('',(0.032277915749358,0.0697130832916749,0.1016));
#1922=CARTESIAN_POINT('',(0.032277915749358,0.0697130832916749,0.2032));
#1923=CARTESIAN_POINT('',(0.0336367499869187,0.0689285599788351,0.2032));
#1924=CARTESIAN_POINT('',(-0.0336367499869188,0.0689285599788351,0.2032));
#1925=CARTESIAN_POINT('',(-0.0349565727022863,0.0681665599788351,0.2032));
#1926=CARTESIAN_POINT('',(-0.0349565727022863,0.0681665599788351,0.2032));
#1927=CARTESIAN_POINT('',(-0.0336367499869188,0.0689285599788351,0.2032));
#1928=CARTESIAN_POINT('',(-0.0322779157493581,0.0697130832916749,0.2032));
#1929=CARTESIAN_POINT('',(-0.0322779157493581,0.0697130832916749,0.1016));
#1930=CARTESIAN_POINT('',(-0.0336547839981969,0.0659117958026329,0.2032));
#1931=CARTESIAN_POINT('',(-0.0336547839981969,0.0659117958026329,0.));
#1932=CARTESIAN_POINT('',(-0.0323529952941073,0.0636570316264307,0.));
#1933=CARTESIAN_POINT('',(-0.0323529952941073,0.0636570316264307,0.2032));
#1934=CARTESIAN_POINT('',(-0.0323529952941073,0.0636570316264307,0.2032));
#1935=CARTESIAN_POINT('',(-0.0336547839981969,0.0659117958026329,0.2032));
#1936=CARTESIAN_POINT('',(-0.0339725,0.0588420960601337,0.2032));
#1937=CARTESIAN_POINT('',(-0.0339725,0.0588420960601337,0.));
#1938=CARTESIAN_POINT('',(-0.0389521088709448,0.0598470316264306,0.));
#1939=CARTESIAN_POINT('',(-0.0389521088709448,0.0598470316264306,0.2032));
#1940=CARTESIAN_POINT('',(-0.0389521088709448,0.0598470316264306,0.2032));
#1941=CARTESIAN_POINT('',(-0.0339725,0.0588420960601337,0.2032));
#1942=CARTESIAN_POINT('',(-0.0402538975750342,0.0621017958026329,0.2032));
#1943=CARTESIAN_POINT('',(-0.0402538975750342,0.0621017958026329,0.));
#1944=CARTESIAN_POINT('',(-0.0415556862791237,0.0643565599788351,0.2032));
#1945=CARTESIAN_POINT('',(-0.0415556862791237,0.0643565599788351,0.2032));
#1946=CARTESIAN_POINT('',(-0.0402538975750342,0.0621017958026329,0.2032));
#1947=CARTESIAN_POINT('',(-0.0428755089944912,0.0635945599788351,0.2032));
#1948=CARTESIAN_POINT('',(-0.044234343232052,0.0628100366659953,0.1016));
#1949=CARTESIAN_POINT('',(-0.044234343232052,0.0628100366659953,0.2032));
#1950=CARTESIAN_POINT('',(-0.0428755089944912,0.0635945599788351,0.2032));
#1951=CARTESIAN_POINT('',(-1.7347234759768E-17,-4.33680868994202E-19,0.2032));
#1952=CARTESIAN_POINT('',(-0.072166962971744,0.0111615447154471,0.2032));
#1953=CARTESIAN_POINT('',(-0.072166962971744,0.0111615447154471,0.2032));
#1954=CARTESIAN_POINT('',(-1.7347234759768E-17,-4.33680868994202E-19,0.2032));
#1955=CARTESIAN_POINT('',(-0.0457496627549252,0.0569176508897777,0.2032));
#1956=CARTESIAN_POINT('',(-0.0457496627549252,0.0569176508897777,0.2032));
#1957=CARTESIAN_POINT('',(0.,-4.47149162538678E-18,0.));
#1958=CARTESIAN_POINT('',(-0.0264173002168188,0.0680791956052248,0.2032));
#1959=CARTESIAN_POINT('',(-0.0264173002168188,0.0680791956052248,0.2032));
#1960=CARTESIAN_POINT('',(2.77555756156289E-17,1.38777878078145E-17,0.2032));
#1961=CARTESIAN_POINT('',(0.0264173002168188,0.0680791956052249,0.2032));
#1962=CARTESIAN_POINT('',(0.0264173002168188,0.0680791956052248,0.2032));
#1963=CARTESIAN_POINT('',(0.,-4.47149162538678E-18,0.));
#1964=CARTESIAN_POINT('',(0.0457496627549252,0.0569176508897777,0.2032));
#1965=CARTESIAN_POINT('',(0.0457496627549252,0.0569176508897777,0.2032));
#1966=CARTESIAN_POINT('',(6.93889390390723E-18,-7.37257477290143E-18,0.2032));
#1967=CARTESIAN_POINT('',(0.0721669629717441,0.0111615447154472,0.2032));
#1968=CARTESIAN_POINT('',(0.072166962971744,0.0111615447154471,0.2032));
#1969=CARTESIAN_POINT('',(0.,-4.47149162538678E-18,0.));
#1970=CARTESIAN_POINT('',(0.072166962971744,-0.0111615447154472,0.2032));
#1971=CARTESIAN_POINT('',(0.072166962971744,-0.0111615447154472,0.2032));
#1972=CARTESIAN_POINT('',(3.46944695195361E-18,6.93889390390723E-18,0.2032));
#1973=CARTESIAN_POINT('',(0.0457496627549252,-0.0569176508897777,0.2032));
#1974=CARTESIAN_POINT('',(0.0457496627549252,-0.0569176508897776,0.2032));
#1975=CARTESIAN_POINT('',(0.,-4.47149162538678E-18,0.));
#1976=CARTESIAN_POINT('',(0.0264173002168188,-0.0680791956052248,0.2032));
#1977=CARTESIAN_POINT('',(0.0264173002168188,-0.0680791956052248,0.2032));
#1978=CARTESIAN_POINT('',(-3.46944695195361E-18,6.93889390390723E-18,0.2032));
#1979=CARTESIAN_POINT('',(-0.0264173002168188,-0.0680791956052249,0.2032));
#1980=CARTESIAN_POINT('',(-0.0264173002168188,-0.0680791956052248,0.2032));
#1981=CARTESIAN_POINT('',(0.,-4.47149162538678E-18,0.));
#1982=CARTESIAN_POINT('',(-0.0457496627549252,-0.0569176508897777,0.2032));
#1983=CARTESIAN_POINT('',(-0.0457496627549252,-0.0569176508897777,0.2032));
#1984=CARTESIAN_POINT('',(-6.93889390390723E-18,1.64798730217796E-17,0.2032));
#1985=CARTESIAN_POINT('',(-0.0721669629717441,-0.0111615447154472,0.2032));
#1986=CARTESIAN_POINT('',(-0.072166962971744,-0.0111615447154472,0.2032));
#1987=CARTESIAN_POINT('',(-0.0721669629717441,-0.0111615447154472,0.));
#1988=CARTESIAN_POINT('',(0.,-4.47149162538678E-18,0.));
#1989=CARTESIAN_POINT('',(0.,-4.47149162538678E-18,0.));
#1990=CARTESIAN_POINT('',(0.,-4.47149162538678E-18,-0.0762));
#1991=CARTESIAN_POINT('',(-0.073025,-4.47149162538678E-18,-0.0762));
#1992=CARTESIAN_POINT('',(-0.07651225898141,0.005334,0.2032));
#1993=CARTESIAN_POINT('',(-0.07651225898141,0.005334,0.2032));
#1994=CARTESIAN_POINT('',(-0.07651225898141,0.00690304662567956,0.2032));
#1995=CARTESIAN_POINT('',(-0.07651225898141,0.00690304662567956,0.1016));
#1996=CARTESIAN_POINT('',(0.,3.53831076443649E-18,0.2032));
#1997=CARTESIAN_POINT('',(0.,3.53831076443649E-18,0.2032));
#1998=CARTESIAN_POINT('',(0.057785,3.53831076443649E-18,0.2032));
#1999=CARTESIAN_POINT('',(0.,3.53831076443649E-18,0.));
#2000=CARTESIAN_POINT('',(0.057785,3.53831076443649E-18,0.));
#2001=CARTESIAN_POINT('',(0.,-1.38777878078145E-17,0.2032));
#2002=CARTESIAN_POINT('',(-0.0771872734393436,-0.011938,0.2032));
#2003=CARTESIAN_POINT('',(-0.0489322479900504,-0.0608771396473274,0.2032));
#2004=CARTESIAN_POINT('',(-0.0282550254492932,-0.0728151396473274,0.2032));
#2005=CARTESIAN_POINT('',(0.0282550254492932,-0.0728151396473274,0.2032));
#2006=CARTESIAN_POINT('',(0.0489322479900505,-0.0608771396473274,0.2032));
#2007=CARTESIAN_POINT('',(0.0771872734393436,-0.011938,0.2032));
#2008=CARTESIAN_POINT('',(0.0771872734393436,0.011938,0.2032));
#2009=CARTESIAN_POINT('',(0.0489322479900504,0.0608771396473274,0.2032));
#2010=CARTESIAN_POINT('',(0.0282550254492932,0.0728151396473274,0.2032));
#2011=CARTESIAN_POINT('',(-0.0282550254492932,0.0728151396473274,0.2032));
#2012=CARTESIAN_POINT('',(-0.0489322479900505,0.0608771396473274,0.2032));
#2013=CARTESIAN_POINT('',(-0.0771872734393436,0.011938,0.2032));
#2014=CARTESIAN_POINT('',(0.,-1.38777878078145E-17,0.));
#2015=CARTESIAN_POINT('',(-0.0771872734393436,-0.011938,0.));
#2016=CARTESIAN_POINT('',(0.,0.,0.));
#2017=CARTESIAN_POINT('',(0.,0.,0.));
#2018=CARTESIAN_POINT('',(0.,0.,0.));
#2019=CARTESIAN_POINT('',(0.,0.,0.));
#2020=CARTESIAN_POINT('',(0.,0.,0.));
#2021=CARTESIAN_POINT('',(0.,0.,0.));
#2022=CARTESIAN_POINT('',(0.,0.,-0.0762));
#2023=CARTESIAN_POINT('',(0.,0.,0.));
#2024=CARTESIAN_POINT('',(-0.0771872734393436,0.011938,0.2032));
#2025=CARTESIAN_POINT('',(-0.0771872734393436,-0.011938,0.2032));
#2026=CARTESIAN_POINT('',(-0.0489322479900504,-0.0608771396473274,0.2032));
#2027=CARTESIAN_POINT('',(-0.0282550254492932,-0.0728151396473274,0.2032));
#2028=CARTESIAN_POINT('',(0.0282550254492932,-0.0728151396473274,0.2032));
#2029=CARTESIAN_POINT('',(0.0489322479900505,-0.0608771396473274,0.2032));
#2030=CARTESIAN_POINT('',(0.0771872734393436,-0.011938,0.2032));
#2031=CARTESIAN_POINT('',(0.0771872734393436,0.011938,0.2032));
#2032=CARTESIAN_POINT('',(0.0489322479900504,0.0608771396473274,0.2032));
#2033=CARTESIAN_POINT('',(0.0282550254492932,0.0728151396473274,0.2032));
#2034=CARTESIAN_POINT('',(-0.0489322479900505,0.0608771396473274,0.2032));
#2035=CARTESIAN_POINT('',(-0.0282550254492932,0.0728151396473274,0.2032));
#2036=MECHANICAL_DESIGN_GEOMETRIC_PRESENTATION_REPRESENTATION('',(#1182),
#2037);
#2037=(
GEOMETRIC_REPRESENTATION_CONTEXT(3)
GLOBAL_UNCERTAINTY_ASSIGNED_CONTEXT((#2038))
GLOBAL_UNIT_ASSIGNED_CONTEXT((#2041,#2040,#2039))
REPRESENTATION_CONTEXT('Part 1','TOP_LEVEL_ASSEMBLY_PART')
);
#2038=UNCERTAINTY_MEASURE_WITH_UNIT(LENGTH_MEASURE(1.E-8),#2041,
'DISTANCE_ACCURACY_VALUE','Maximum Tolerance applied to model');
#2039=(
NAMED_UNIT(*)
SI_UNIT($,.STERADIAN.)
SOLID_ANGLE_UNIT()
);
#2040=(
NAMED_UNIT(*)
PLANE_ANGLE_UNIT()
SI_UNIT($,.RADIAN.)
);
#2041=(
LENGTH_UNIT()
NAMED_UNIT(*)
SI_UNIT($,.METRE.)
);
#2042=PRODUCT_DEFINITION_SHAPE('','',#2043);
#2043=PRODUCT_DEFINITION('','',#2045,#2044);
#2044=PRODUCT_DEFINITION_CONTEXT('',#2051,'design');
#2045=PRODUCT_DEFINITION_FORMATION_WITH_SPECIFIED_SOURCE('','',#2047,
 .NOT_KNOWN.);
#2046=PRODUCT_RELATED_PRODUCT_CATEGORY('','',(#2047));
#2047=PRODUCT('Part 1','Part 1','Part 1',(#2049));
#2048=PRODUCT_CATEGORY('','');
#2049=PRODUCT_CONTEXT('',#2051,'mechanical');
#2050=APPLICATION_PROTOCOL_DEFINITION('international standard',
'ap242_managed_model_based_3d_engineering',2020,#2051);
#2051=APPLICATION_CONTEXT('managed model based 3d engineering');
ENDSEC;
END-ISO-10303-21;
