ISO-10303-21;
HEADER;
/* Generated by software containing ST-Developer
 * from STEP Tools, Inc. (www.steptools.com) 
 */
/* OPTION: using custom renumber hook */

FILE_DESCRIPTION(
/* description */ ('STEP AP242 Edition 2',
'CAx-IF Rec.Pracs.---Representation and Presentation of Product Manufa
cturing Information (PMI)---4.0---2014-10-13',
'CAx-IF Rec.Pracs.---3D Tessellated Geometry---0.4---2014-09-14','2;1',
'CAx-IF Rec.Pracs.---User Defined Attributes---1.5---2016-08-15'),
/* implementation_level */ '2;1');

FILE_NAME(
/* name */ 'Master Reference - Chassis',
/* time_stamp */ '2026-08-15T18:30:46Z',
/* author */ (''),
/* organization */ (''),
/* preprocessor_version */ 'ST-DEVELOPER v20',
/* originating_system */ 'ONSHAPE BY PTC INC, 1.219',
/* authorisation */ '  ');

FILE_SCHEMA (('AP242_MANAGED_MODEL_BASED_3D_ENGINEERING_MIM_LF { 1 0 10303 442 3 1 4 }'));
ENDSEC;

DATA;
#10=SHAPE_REPRESENTATION_RELATIONSHIP('','',#1076,#11);
#11=ADVANCED_BREP_SHAPE_REPRESENTATION('',(#1074),#1793);
#12=CIRCLE('',#1080,0.00381);
#13=CIRCLE('',#1081,0.00381);
#14=CIRCLE('',#1088,0.00381);
#15=CIRCLE('',#1089,0.00381);
#16=CIRCLE('',#1096,0.00381);
#17=CIRCLE('',#1097,0.00381);
#18=CIRCLE('',#1104,0.00381);
#19=CIRCLE('',#1105,0.00381);
#20=CIRCLE('',#1112,0.00381);
#21=CIRCLE('',#1113,0.00381);
#22=CIRCLE('',#1120,0.00381);
#23=CIRCLE('',#1121,0.00381);
#24=CIRCLE('',#1127,0.073025);
#25=CIRCLE('',#1128,0.073025);
#26=CIRCLE('',#1129,0.073025);
#27=CIRCLE('',#1130,0.073025);
#28=CIRCLE('',#1131,0.073025);
#29=CIRCLE('',#1132,0.073025);
#30=CIRCLE('',#1133,0.073025);
#31=CIRCLE('',#1134,0.073025);
#32=CIRCLE('',#1135,0.073025);
#33=CIRCLE('',#1136,0.073025);
#34=CIRCLE('',#1137,0.073025);
#35=CIRCLE('',#1138,0.073025);
#36=CIRCLE('',#1139,0.073025);
#37=CIRCLE('',#1140,0.073025);
#38=CIRCLE('',#1141,0.073025);
#39=CIRCLE('',#1142,0.073025);
#40=CIRCLE('',#1143,0.073025);
#41=CIRCLE('',#1144,0.073025);
#42=CIRCLE('',#1145,0.073025);
#43=CIRCLE('',#1146,0.073025);
#44=CIRCLE('',#1147,0.073025);
#45=CIRCLE('',#1148,0.073025);
#46=CIRCLE('',#1149,0.073025);
#47=CIRCLE('',#1150,0.073025);
#48=CIRCLE('',#1151,0.073025);
#49=CIRCLE('',#1154,0.00381);
#50=CIRCLE('',#1155,0.00381);
#51=CIRCLE('',#1157,0.057785);
#52=CIRCLE('',#1158,0.057785);
#53=CYLINDRICAL_SURFACE('',#1079,0.00381);
#54=CYLINDRICAL_SURFACE('',#1087,0.00381);
#55=CYLINDRICAL_SURFACE('',#1095,0.00381);
#56=CYLINDRICAL_SURFACE('',#1103,0.00381);
#57=CYLINDRICAL_SURFACE('',#1111,0.00381);
#58=CYLINDRICAL_SURFACE('',#1119,0.00381);
#59=CYLINDRICAL_SURFACE('',#1126,0.073025);
#60=CYLINDRICAL_SURFACE('',#1153,0.00381);
#61=CYLINDRICAL_SURFACE('',#1156,0.057785);
#62=ORIENTED_EDGE('',*,*,#368,.F.);
#63=ORIENTED_EDGE('',*,*,#369,.F.);
#64=ORIENTED_EDGE('',*,*,#370,.T.);
#65=ORIENTED_EDGE('',*,*,#371,.T.);
#66=ORIENTED_EDGE('',*,*,#372,.F.);
#67=ORIENTED_EDGE('',*,*,#373,.F.);
#68=ORIENTED_EDGE('',*,*,#374,.T.);
#69=ORIENTED_EDGE('',*,*,#369,.T.);
#70=ORIENTED_EDGE('',*,*,#375,.F.);
#71=ORIENTED_EDGE('',*,*,#376,.F.);
#72=ORIENTED_EDGE('',*,*,#377,.T.);
#73=ORIENTED_EDGE('',*,*,#373,.T.);
#74=ORIENTED_EDGE('',*,*,#378,.T.);
#75=ORIENTED_EDGE('',*,*,#379,.F.);
#76=ORIENTED_EDGE('',*,*,#380,.F.);
#77=ORIENTED_EDGE('',*,*,#381,.T.);
#78=ORIENTED_EDGE('',*,*,#382,.T.);
#79=ORIENTED_EDGE('',*,*,#383,.F.);
#80=ORIENTED_EDGE('',*,*,#384,.F.);
#81=ORIENTED_EDGE('',*,*,#379,.T.);
#82=ORIENTED_EDGE('',*,*,#385,.T.);
#83=ORIENTED_EDGE('',*,*,#386,.F.);
#84=ORIENTED_EDGE('',*,*,#387,.F.);
#85=ORIENTED_EDGE('',*,*,#383,.T.);
#86=ORIENTED_EDGE('',*,*,#388,.T.);
#87=ORIENTED_EDGE('',*,*,#389,.F.);
#88=ORIENTED_EDGE('',*,*,#390,.F.);
#89=ORIENTED_EDGE('',*,*,#391,.T.);
#90=ORIENTED_EDGE('',*,*,#392,.F.);
#91=ORIENTED_EDGE('',*,*,#393,.F.);
#92=ORIENTED_EDGE('',*,*,#394,.T.);
#93=ORIENTED_EDGE('',*,*,#389,.T.);
#94=ORIENTED_EDGE('',*,*,#395,.F.);
#95=ORIENTED_EDGE('',*,*,#396,.F.);
#96=ORIENTED_EDGE('',*,*,#397,.T.);
#97=ORIENTED_EDGE('',*,*,#393,.T.);
#98=ORIENTED_EDGE('',*,*,#398,.T.);
#99=ORIENTED_EDGE('',*,*,#399,.F.);
#100=ORIENTED_EDGE('',*,*,#400,.F.);
#101=ORIENTED_EDGE('',*,*,#401,.T.);
#102=ORIENTED_EDGE('',*,*,#402,.T.);
#103=ORIENTED_EDGE('',*,*,#403,.F.);
#104=ORIENTED_EDGE('',*,*,#404,.F.);
#105=ORIENTED_EDGE('',*,*,#399,.T.);
#106=ORIENTED_EDGE('',*,*,#405,.T.);
#107=ORIENTED_EDGE('',*,*,#406,.F.);
#108=ORIENTED_EDGE('',*,*,#407,.F.);
#109=ORIENTED_EDGE('',*,*,#403,.T.);
#110=ORIENTED_EDGE('',*,*,#408,.T.);
#111=ORIENTED_EDGE('',*,*,#409,.F.);
#112=ORIENTED_EDGE('',*,*,#410,.F.);
#113=ORIENTED_EDGE('',*,*,#411,.T.);
#114=ORIENTED_EDGE('',*,*,#412,.F.);
#115=ORIENTED_EDGE('',*,*,#413,.F.);
#116=ORIENTED_EDGE('',*,*,#414,.T.);
#117=ORIENTED_EDGE('',*,*,#409,.T.);
#118=ORIENTED_EDGE('',*,*,#415,.F.);
#119=ORIENTED_EDGE('',*,*,#416,.F.);
#120=ORIENTED_EDGE('',*,*,#417,.T.);
#121=ORIENTED_EDGE('',*,*,#413,.T.);
#122=ORIENTED_EDGE('',*,*,#418,.T.);
#123=ORIENTED_EDGE('',*,*,#419,.F.);
#124=ORIENTED_EDGE('',*,*,#420,.F.);
#125=ORIENTED_EDGE('',*,*,#421,.T.);
#126=ORIENTED_EDGE('',*,*,#422,.T.);
#127=ORIENTED_EDGE('',*,*,#423,.F.);
#128=ORIENTED_EDGE('',*,*,#424,.F.);
#129=ORIENTED_EDGE('',*,*,#419,.T.);
#130=ORIENTED_EDGE('',*,*,#425,.T.);
#131=ORIENTED_EDGE('',*,*,#426,.F.);
#132=ORIENTED_EDGE('',*,*,#427,.F.);
#133=ORIENTED_EDGE('',*,*,#423,.T.);
#134=ORIENTED_EDGE('',*,*,#428,.T.);
#135=ORIENTED_EDGE('',*,*,#429,.F.);
#136=ORIENTED_EDGE('',*,*,#430,.F.);
#137=ORIENTED_EDGE('',*,*,#431,.T.);
#138=ORIENTED_EDGE('',*,*,#432,.F.);
#139=ORIENTED_EDGE('',*,*,#433,.F.);
#140=ORIENTED_EDGE('',*,*,#434,.T.);
#141=ORIENTED_EDGE('',*,*,#429,.T.);
#142=ORIENTED_EDGE('',*,*,#435,.F.);
#143=ORIENTED_EDGE('',*,*,#436,.F.);
#144=ORIENTED_EDGE('',*,*,#437,.T.);
#145=ORIENTED_EDGE('',*,*,#433,.T.);
#146=ORIENTED_EDGE('',*,*,#438,.T.);
#147=ORIENTED_EDGE('',*,*,#439,.F.);
#148=ORIENTED_EDGE('',*,*,#440,.F.);
#149=ORIENTED_EDGE('',*,*,#441,.T.);
#150=ORIENTED_EDGE('',*,*,#442,.T.);
#151=ORIENTED_EDGE('',*,*,#443,.F.);
#152=ORIENTED_EDGE('',*,*,#444,.F.);
#153=ORIENTED_EDGE('',*,*,#439,.T.);
#154=ORIENTED_EDGE('',*,*,#445,.T.);
#155=ORIENTED_EDGE('',*,*,#446,.F.);
#156=ORIENTED_EDGE('',*,*,#447,.F.);
#157=ORIENTED_EDGE('',*,*,#443,.T.);
#158=ORIENTED_EDGE('',*,*,#448,.T.);
#159=ORIENTED_EDGE('',*,*,#449,.F.);
#160=ORIENTED_EDGE('',*,*,#450,.F.);
#161=ORIENTED_EDGE('',*,*,#451,.T.);
#162=ORIENTED_EDGE('',*,*,#452,.F.);
#163=ORIENTED_EDGE('',*,*,#453,.F.);
#164=ORIENTED_EDGE('',*,*,#454,.T.);
#165=ORIENTED_EDGE('',*,*,#449,.T.);
#166=ORIENTED_EDGE('',*,*,#455,.F.);
#167=ORIENTED_EDGE('',*,*,#456,.F.);
#168=ORIENTED_EDGE('',*,*,#457,.T.);
#169=ORIENTED_EDGE('',*,*,#453,.T.);
#170=ORIENTED_EDGE('',*,*,#458,.T.);
#171=ORIENTED_EDGE('',*,*,#459,.F.);
#172=ORIENTED_EDGE('',*,*,#460,.F.);
#173=ORIENTED_EDGE('',*,*,#461,.T.);
#174=ORIENTED_EDGE('',*,*,#462,.T.);
#175=ORIENTED_EDGE('',*,*,#463,.F.);
#176=ORIENTED_EDGE('',*,*,#464,.F.);
#177=ORIENTED_EDGE('',*,*,#459,.T.);
#178=ORIENTED_EDGE('',*,*,#465,.T.);
#179=ORIENTED_EDGE('',*,*,#466,.F.);
#180=ORIENTED_EDGE('',*,*,#467,.F.);
#181=ORIENTED_EDGE('',*,*,#463,.T.);
#182=ORIENTED_EDGE('',*,*,#468,.T.);
#183=ORIENTED_EDGE('',*,*,#469,.F.);
#184=ORIENTED_EDGE('',*,*,#470,.F.);
#185=ORIENTED_EDGE('',*,*,#471,.T.);
#186=ORIENTED_EDGE('',*,*,#472,.F.);
#187=ORIENTED_EDGE('',*,*,#473,.F.);
#188=ORIENTED_EDGE('',*,*,#474,.T.);
#189=ORIENTED_EDGE('',*,*,#469,.T.);
#190=ORIENTED_EDGE('',*,*,#475,.F.);
#191=ORIENTED_EDGE('',*,*,#476,.F.);
#192=ORIENTED_EDGE('',*,*,#477,.T.);
#193=ORIENTED_EDGE('',*,*,#473,.T.);
#194=ORIENTED_EDGE('',*,*,#478,.T.);
#195=ORIENTED_EDGE('',*,*,#479,.F.);
#196=ORIENTED_EDGE('',*,*,#480,.F.);
#197=ORIENTED_EDGE('',*,*,#481,.T.);
#198=ORIENTED_EDGE('',*,*,#482,.T.);
#199=ORIENTED_EDGE('',*,*,#483,.F.);
#200=ORIENTED_EDGE('',*,*,#484,.F.);
#201=ORIENTED_EDGE('',*,*,#479,.T.);
#202=ORIENTED_EDGE('',*,*,#485,.T.);
#203=ORIENTED_EDGE('',*,*,#486,.F.);
#204=ORIENTED_EDGE('',*,*,#487,.F.);
#205=ORIENTED_EDGE('',*,*,#483,.T.);
#206=ORIENTED_EDGE('',*,*,#486,.T.);
#207=ORIENTED_EDGE('',*,*,#488,.T.);
#208=ORIENTED_EDGE('',*,*,#481,.F.);
#209=ORIENTED_EDGE('',*,*,#489,.F.);
#210=ORIENTED_EDGE('',*,*,#476,.T.);
#211=ORIENTED_EDGE('',*,*,#490,.T.);
#212=ORIENTED_EDGE('',*,*,#471,.F.);
#213=ORIENTED_EDGE('',*,*,#491,.F.);
#214=ORIENTED_EDGE('',*,*,#466,.T.);
#215=ORIENTED_EDGE('',*,*,#492,.T.);
#216=ORIENTED_EDGE('',*,*,#461,.F.);
#217=ORIENTED_EDGE('',*,*,#493,.F.);
#218=ORIENTED_EDGE('',*,*,#456,.T.);
#219=ORIENTED_EDGE('',*,*,#494,.T.);
#220=ORIENTED_EDGE('',*,*,#451,.F.);
#221=ORIENTED_EDGE('',*,*,#495,.F.);
#222=ORIENTED_EDGE('',*,*,#446,.T.);
#223=ORIENTED_EDGE('',*,*,#496,.T.);
#224=ORIENTED_EDGE('',*,*,#441,.F.);
#225=ORIENTED_EDGE('',*,*,#497,.F.);
#226=ORIENTED_EDGE('',*,*,#436,.T.);
#227=ORIENTED_EDGE('',*,*,#498,.T.);
#228=ORIENTED_EDGE('',*,*,#431,.F.);
#229=ORIENTED_EDGE('',*,*,#499,.F.);
#230=ORIENTED_EDGE('',*,*,#426,.T.);
#231=ORIENTED_EDGE('',*,*,#500,.T.);
#232=ORIENTED_EDGE('',*,*,#421,.F.);
#233=ORIENTED_EDGE('',*,*,#501,.F.);
#234=ORIENTED_EDGE('',*,*,#416,.T.);
#235=ORIENTED_EDGE('',*,*,#502,.T.);
#236=ORIENTED_EDGE('',*,*,#411,.F.);
#237=ORIENTED_EDGE('',*,*,#503,.F.);
#238=ORIENTED_EDGE('',*,*,#406,.T.);
#239=ORIENTED_EDGE('',*,*,#504,.T.);
#240=ORIENTED_EDGE('',*,*,#401,.F.);
#241=ORIENTED_EDGE('',*,*,#505,.F.);
#242=ORIENTED_EDGE('',*,*,#396,.T.);
#243=ORIENTED_EDGE('',*,*,#506,.T.);
#244=ORIENTED_EDGE('',*,*,#391,.F.);
#245=ORIENTED_EDGE('',*,*,#507,.F.);
#246=ORIENTED_EDGE('',*,*,#386,.T.);
#247=ORIENTED_EDGE('',*,*,#508,.T.);
#248=ORIENTED_EDGE('',*,*,#381,.F.);
#249=ORIENTED_EDGE('',*,*,#509,.F.);
#250=ORIENTED_EDGE('',*,*,#376,.T.);
#251=ORIENTED_EDGE('',*,*,#510,.T.);
#252=ORIENTED_EDGE('',*,*,#511,.F.);
#253=ORIENTED_EDGE('',*,*,#512,.F.);
#254=ORIENTED_EDGE('',*,*,#513,.F.);
#255=ORIENTED_EDGE('',*,*,#514,.T.);
#256=ORIENTED_EDGE('',*,*,#515,.F.);
#257=ORIENTED_EDGE('',*,*,#516,.F.);
#258=ORIENTED_EDGE('',*,*,#511,.T.);
#259=ORIENTED_EDGE('',*,*,#517,.F.);
#260=ORIENTED_EDGE('',*,*,#371,.F.);
#261=ORIENTED_EDGE('',*,*,#518,.T.);
#262=ORIENTED_EDGE('',*,*,#515,.T.);
#263=ORIENTED_EDGE('',*,*,#519,.T.);
#264=ORIENTED_EDGE('',*,*,#520,.F.);
#265=ORIENTED_EDGE('',*,*,#370,.F.);
#266=ORIENTED_EDGE('',*,*,#374,.F.);
#267=ORIENTED_EDGE('',*,*,#377,.F.);
#268=ORIENTED_EDGE('',*,*,#509,.T.);
#269=ORIENTED_EDGE('',*,*,#380,.T.);
#270=ORIENTED_EDGE('',*,*,#384,.T.);
#271=ORIENTED_EDGE('',*,*,#387,.T.);
#272=ORIENTED_EDGE('',*,*,#507,.T.);
#273=ORIENTED_EDGE('',*,*,#390,.T.);
#274=ORIENTED_EDGE('',*,*,#394,.F.);
#275=ORIENTED_EDGE('',*,*,#397,.F.);
#276=ORIENTED_EDGE('',*,*,#505,.T.);
#277=ORIENTED_EDGE('',*,*,#400,.T.);
#278=ORIENTED_EDGE('',*,*,#404,.T.);
#279=ORIENTED_EDGE('',*,*,#407,.T.);
#280=ORIENTED_EDGE('',*,*,#503,.T.);
#281=ORIENTED_EDGE('',*,*,#410,.T.);
#282=ORIENTED_EDGE('',*,*,#414,.F.);
#283=ORIENTED_EDGE('',*,*,#417,.F.);
#284=ORIENTED_EDGE('',*,*,#501,.T.);
#285=ORIENTED_EDGE('',*,*,#420,.T.);
#286=ORIENTED_EDGE('',*,*,#424,.T.);
#287=ORIENTED_EDGE('',*,*,#427,.T.);
#288=ORIENTED_EDGE('',*,*,#499,.T.);
#289=ORIENTED_EDGE('',*,*,#430,.T.);
#290=ORIENTED_EDGE('',*,*,#434,.F.);
#291=ORIENTED_EDGE('',*,*,#437,.F.);
#292=ORIENTED_EDGE('',*,*,#497,.T.);
#293=ORIENTED_EDGE('',*,*,#440,.T.);
#294=ORIENTED_EDGE('',*,*,#444,.T.);
#295=ORIENTED_EDGE('',*,*,#447,.T.);
#296=ORIENTED_EDGE('',*,*,#495,.T.);
#297=ORIENTED_EDGE('',*,*,#450,.T.);
#298=ORIENTED_EDGE('',*,*,#454,.F.);
#299=ORIENTED_EDGE('',*,*,#457,.F.);
#300=ORIENTED_EDGE('',*,*,#493,.T.);
#301=ORIENTED_EDGE('',*,*,#460,.T.);
#302=ORIENTED_EDGE('',*,*,#464,.T.);
#303=ORIENTED_EDGE('',*,*,#467,.T.);
#304=ORIENTED_EDGE('',*,*,#491,.T.);
#305=ORIENTED_EDGE('',*,*,#470,.T.);
#306=ORIENTED_EDGE('',*,*,#474,.F.);
#307=ORIENTED_EDGE('',*,*,#477,.F.);
#308=ORIENTED_EDGE('',*,*,#489,.T.);
#309=ORIENTED_EDGE('',*,*,#480,.T.);
#310=ORIENTED_EDGE('',*,*,#484,.T.);
#311=ORIENTED_EDGE('',*,*,#487,.T.);
#312=ORIENTED_EDGE('',*,*,#512,.T.);
#313=ORIENTED_EDGE('',*,*,#516,.T.);
#314=ORIENTED_EDGE('',*,*,#518,.F.);
#315=ORIENTED_EDGE('',*,*,#519,.F.);
#316=ORIENTED_EDGE('',*,*,#520,.T.);
#317=ORIENTED_EDGE('',*,*,#485,.F.);
#318=ORIENTED_EDGE('',*,*,#482,.F.);
#319=ORIENTED_EDGE('',*,*,#478,.F.);
#320=ORIENTED_EDGE('',*,*,#488,.F.);
#321=ORIENTED_EDGE('',*,*,#465,.F.);
#322=ORIENTED_EDGE('',*,*,#462,.F.);
#323=ORIENTED_EDGE('',*,*,#458,.F.);
#324=ORIENTED_EDGE('',*,*,#492,.F.);
#325=ORIENTED_EDGE('',*,*,#490,.F.);
#326=ORIENTED_EDGE('',*,*,#475,.T.);
#327=ORIENTED_EDGE('',*,*,#472,.T.);
#328=ORIENTED_EDGE('',*,*,#468,.F.);
#329=ORIENTED_EDGE('',*,*,#445,.F.);
#330=ORIENTED_EDGE('',*,*,#442,.F.);
#331=ORIENTED_EDGE('',*,*,#438,.F.);
#332=ORIENTED_EDGE('',*,*,#496,.F.);
#333=ORIENTED_EDGE('',*,*,#494,.F.);
#334=ORIENTED_EDGE('',*,*,#455,.T.);
#335=ORIENTED_EDGE('',*,*,#452,.T.);
#336=ORIENTED_EDGE('',*,*,#448,.F.);
#337=ORIENTED_EDGE('',*,*,#425,.F.);
#338=ORIENTED_EDGE('',*,*,#422,.F.);
#339=ORIENTED_EDGE('',*,*,#418,.F.);
#340=ORIENTED_EDGE('',*,*,#500,.F.);
#341=ORIENTED_EDGE('',*,*,#498,.F.);
#342=ORIENTED_EDGE('',*,*,#435,.T.);
#343=ORIENTED_EDGE('',*,*,#432,.T.);
#344=ORIENTED_EDGE('',*,*,#428,.F.);
#345=ORIENTED_EDGE('',*,*,#405,.F.);
#346=ORIENTED_EDGE('',*,*,#402,.F.);
#347=ORIENTED_EDGE('',*,*,#398,.F.);
#348=ORIENTED_EDGE('',*,*,#504,.F.);
#349=ORIENTED_EDGE('',*,*,#502,.F.);
#350=ORIENTED_EDGE('',*,*,#415,.T.);
#351=ORIENTED_EDGE('',*,*,#412,.T.);
#352=ORIENTED_EDGE('',*,*,#408,.F.);
#353=ORIENTED_EDGE('',*,*,#385,.F.);
#354=ORIENTED_EDGE('',*,*,#382,.F.);
#355=ORIENTED_EDGE('',*,*,#378,.F.);
#356=ORIENTED_EDGE('',*,*,#508,.F.);
#357=ORIENTED_EDGE('',*,*,#514,.F.);
#358=ORIENTED_EDGE('',*,*,#510,.F.);
#359=ORIENTED_EDGE('',*,*,#375,.T.);
#360=ORIENTED_EDGE('',*,*,#372,.T.);
#361=ORIENTED_EDGE('',*,*,#368,.T.);
#362=ORIENTED_EDGE('',*,*,#517,.T.);
#363=ORIENTED_EDGE('',*,*,#513,.T.);
#364=ORIENTED_EDGE('',*,*,#506,.F.);
#365=ORIENTED_EDGE('',*,*,#395,.T.);
#366=ORIENTED_EDGE('',*,*,#392,.T.);
#367=ORIENTED_EDGE('',*,*,#388,.F.);
#368=EDGE_CURVE('',#521,#522,#624,.T.);
#369=EDGE_CURVE('',#523,#521,#625,.T.);
#370=EDGE_CURVE('',#523,#524,#626,.T.);
#371=EDGE_CURVE('',#524,#522,#627,.T.);
#372=EDGE_CURVE('',#525,#521,#12,.T.);
#373=EDGE_CURVE('',#526,#525,#628,.T.);
#374=EDGE_CURVE('',#526,#523,#13,.T.);
#375=EDGE_CURVE('',#527,#525,#629,.T.);
#376=EDGE_CURVE('',#528,#527,#630,.T.);
#377=EDGE_CURVE('',#528,#526,#631,.T.);
#378=EDGE_CURVE('',#529,#530,#632,.T.);
#379=EDGE_CURVE('',#531,#530,#633,.T.);
#380=EDGE_CURVE('',#532,#531,#634,.T.);
#381=EDGE_CURVE('',#532,#529,#635,.T.);
#382=EDGE_CURVE('',#530,#533,#636,.T.);
#383=EDGE_CURVE('',#534,#533,#637,.T.);
#384=EDGE_CURVE('',#531,#534,#638,.T.);
#385=EDGE_CURVE('',#533,#535,#639,.T.);
#386=EDGE_CURVE('',#536,#535,#640,.T.);
#387=EDGE_CURVE('',#534,#536,#641,.T.);
#388=EDGE_CURVE('',#537,#538,#642,.T.);
#389=EDGE_CURVE('',#539,#538,#643,.T.);
#390=EDGE_CURVE('',#540,#539,#644,.T.);
#391=EDGE_CURVE('',#540,#537,#645,.T.);
#392=EDGE_CURVE('',#541,#538,#14,.T.);
#393=EDGE_CURVE('',#542,#541,#646,.T.);
#394=EDGE_CURVE('',#542,#539,#15,.T.);
#395=EDGE_CURVE('',#543,#541,#647,.T.);
#396=EDGE_CURVE('',#544,#543,#648,.T.);
#397=EDGE_CURVE('',#544,#542,#649,.T.);
#398=EDGE_CURVE('',#545,#546,#650,.T.);
#399=EDGE_CURVE('',#547,#546,#651,.T.);
#400=EDGE_CURVE('',#548,#547,#652,.T.);
#401=EDGE_CURVE('',#548,#545,#653,.T.);
#402=EDGE_CURVE('',#546,#549,#654,.T.);
#403=EDGE_CURVE('',#550,#549,#655,.T.);
#404=EDGE_CURVE('',#547,#550,#656,.T.);
#405=EDGE_CURVE('',#549,#551,#657,.T.);
#406=EDGE_CURVE('',#552,#551,#658,.T.);
#407=EDGE_CURVE('',#550,#552,#659,.T.);
#408=EDGE_CURVE('',#553,#554,#660,.T.);
#409=EDGE_CURVE('',#555,#554,#661,.T.);
#410=EDGE_CURVE('',#556,#555,#662,.T.);
#411=EDGE_CURVE('',#556,#553,#663,.T.);
#412=EDGE_CURVE('',#557,#554,#16,.T.);
#413=EDGE_CURVE('',#558,#557,#664,.T.);
#414=EDGE_CURVE('',#558,#555,#17,.T.);
#415=EDGE_CURVE('',#559,#557,#665,.T.);
#416=EDGE_CURVE('',#560,#559,#666,.T.);
#417=EDGE_CURVE('',#560,#558,#667,.T.);
#418=EDGE_CURVE('',#561,#562,#668,.T.);
#419=EDGE_CURVE('',#563,#562,#669,.T.);
#420=EDGE_CURVE('',#564,#563,#670,.T.);
#421=EDGE_CURVE('',#564,#561,#671,.T.);
#422=EDGE_CURVE('',#562,#565,#672,.T.);
#423=EDGE_CURVE('',#566,#565,#673,.T.);
#424=EDGE_CURVE('',#563,#566,#674,.T.);
#425=EDGE_CURVE('',#565,#567,#675,.T.);
#426=EDGE_CURVE('',#568,#567,#676,.T.);
#427=EDGE_CURVE('',#566,#568,#677,.T.);
#428=EDGE_CURVE('',#569,#570,#678,.T.);
#429=EDGE_CURVE('',#571,#570,#679,.T.);
#430=EDGE_CURVE('',#572,#571,#680,.T.);
#431=EDGE_CURVE('',#572,#569,#681,.T.);
#432=EDGE_CURVE('',#573,#570,#18,.T.);
#433=EDGE_CURVE('',#574,#573,#682,.T.);
#434=EDGE_CURVE('',#574,#571,#19,.T.);
#435=EDGE_CURVE('',#575,#573,#683,.T.);
#436=EDGE_CURVE('',#576,#575,#684,.T.);
#437=EDGE_CURVE('',#576,#574,#685,.T.);
#438=EDGE_CURVE('',#577,#578,#686,.T.);
#439=EDGE_CURVE('',#579,#578,#687,.T.);
#440=EDGE_CURVE('',#580,#579,#688,.T.);
#441=EDGE_CURVE('',#580,#577,#689,.T.);
#442=EDGE_CURVE('',#578,#581,#690,.T.);
#443=EDGE_CURVE('',#582,#581,#691,.T.);
#444=EDGE_CURVE('',#579,#582,#692,.T.);
#445=EDGE_CURVE('',#581,#583,#693,.T.);
#446=EDGE_CURVE('',#584,#583,#694,.T.);
#447=EDGE_CURVE('',#582,#584,#695,.T.);
#448=EDGE_CURVE('',#585,#586,#696,.T.);
#449=EDGE_CURVE('',#587,#586,#697,.T.);
#450=EDGE_CURVE('',#588,#587,#698,.T.);
#451=EDGE_CURVE('',#588,#585,#699,.T.);
#452=EDGE_CURVE('',#589,#586,#20,.T.);
#453=EDGE_CURVE('',#590,#589,#700,.T.);
#454=EDGE_CURVE('',#590,#587,#21,.T.);
#455=EDGE_CURVE('',#591,#589,#701,.T.);
#456=EDGE_CURVE('',#592,#591,#702,.T.);
#457=EDGE_CURVE('',#592,#590,#703,.T.);
#458=EDGE_CURVE('',#593,#594,#704,.T.);
#459=EDGE_CURVE('',#595,#594,#705,.T.);
#460=EDGE_CURVE('',#596,#595,#706,.T.);
#461=EDGE_CURVE('',#596,#593,#707,.T.);
#462=EDGE_CURVE('',#594,#597,#708,.T.);
#463=EDGE_CURVE('',#598,#597,#709,.T.);
#464=EDGE_CURVE('',#595,#598,#710,.T.);
#465=EDGE_CURVE('',#597,#599,#711,.T.);
#466=EDGE_CURVE('',#600,#599,#712,.T.);
#467=EDGE_CURVE('',#598,#600,#713,.T.);
#468=EDGE_CURVE('',#601,#602,#714,.T.);
#469=EDGE_CURVE('',#603,#602,#715,.T.);
#470=EDGE_CURVE('',#604,#603,#716,.T.);
#471=EDGE_CURVE('',#604,#601,#717,.T.);
#472=EDGE_CURVE('',#605,#602,#22,.T.);
#473=EDGE_CURVE('',#606,#605,#718,.T.);
#474=EDGE_CURVE('',#606,#603,#23,.T.);
#475=EDGE_CURVE('',#607,#605,#719,.T.);
#476=EDGE_CURVE('',#608,#607,#720,.T.);
#477=EDGE_CURVE('',#608,#606,#721,.T.);
#478=EDGE_CURVE('',#609,#610,#722,.T.);
#479=EDGE_CURVE('',#611,#610,#723,.T.);
#480=EDGE_CURVE('',#612,#611,#724,.T.);
#481=EDGE_CURVE('',#612,#609,#725,.T.);
#482=EDGE_CURVE('',#610,#613,#726,.T.);
#483=EDGE_CURVE('',#614,#613,#727,.T.);
#484=EDGE_CURVE('',#611,#614,#728,.T.);
#485=EDGE_CURVE('',#613,#615,#729,.T.);
#486=EDGE_CURVE('',#616,#615,#730,.T.);
#487=EDGE_CURVE('',#614,#616,#731,.T.);
#488=EDGE_CURVE('',#615,#609,#24,.T.);
#489=EDGE_CURVE('',#608,#612,#25,.T.);
#490=EDGE_CURVE('',#607,#601,#26,.T.);
#491=EDGE_CURVE('',#600,#604,#27,.T.);
#492=EDGE_CURVE('',#599,#593,#28,.T.);
#493=EDGE_CURVE('',#592,#596,#29,.T.);
#494=EDGE_CURVE('',#591,#585,#30,.T.);
#495=EDGE_CURVE('',#584,#588,#31,.T.);
#496=EDGE_CURVE('',#583,#577,#32,.T.);
#497=EDGE_CURVE('',#576,#580,#33,.T.);
#498=EDGE_CURVE('',#575,#569,#34,.T.);
#499=EDGE_CURVE('',#568,#572,#35,.T.);
#500=EDGE_CURVE('',#567,#561,#36,.T.);
#501=EDGE_CURVE('',#560,#564,#37,.T.);
#502=EDGE_CURVE('',#559,#553,#38,.T.);
#503=EDGE_CURVE('',#552,#556,#39,.T.);
#504=EDGE_CURVE('',#551,#545,#40,.T.);
#505=EDGE_CURVE('',#544,#548,#41,.T.);
#506=EDGE_CURVE('',#543,#537,#42,.T.);
#507=EDGE_CURVE('',#536,#540,#43,.T.);
#508=EDGE_CURVE('',#535,#529,#44,.T.);
#509=EDGE_CURVE('',#528,#532,#45,.T.);
#510=EDGE_CURVE('',#527,#617,#46,.T.);
#511=EDGE_CURVE('',#618,#617,#732,.T.);
#512=EDGE_CURVE('',#616,#618,#47,.T.);
#513=EDGE_CURVE('',#619,#619,#48,.T.);
#514=EDGE_CURVE('',#617,#620,#733,.T.);
#515=EDGE_CURVE('',#621,#620,#734,.T.);
#516=EDGE_CURVE('',#618,#621,#735,.T.);
#517=EDGE_CURVE('',#522,#620,#49,.T.);
#518=EDGE_CURVE('',#524,#621,#50,.T.);
#519=EDGE_CURVE('',#622,#622,#51,.T.);
#520=EDGE_CURVE('',#623,#623,#52,.T.);
#521=VERTEX_POINT('',#1483);
#522=VERTEX_POINT('',#1484);
#523=VERTEX_POINT('',#1486);
#524=VERTEX_POINT('',#1488);
#525=VERTEX_POINT('',#1492);
#526=VERTEX_POINT('',#1494);
#527=VERTEX_POINT('',#1498);
#528=VERTEX_POINT('',#1500);
#529=VERTEX_POINT('',#1504);
#530=VERTEX_POINT('',#1505);
#531=VERTEX_POINT('',#1507);
#532=VERTEX_POINT('',#1509);
#533=VERTEX_POINT('',#1513);
#534=VERTEX_POINT('',#1515);
#535=VERTEX_POINT('',#1519);
#536=VERTEX_POINT('',#1521);
#537=VERTEX_POINT('',#1525);
#538=VERTEX_POINT('',#1526);
#539=VERTEX_POINT('',#1528);
#540=VERTEX_POINT('',#1530);
#541=VERTEX_POINT('',#1534);
#542=VERTEX_POINT('',#1536);
#543=VERTEX_POINT('',#1540);
#544=VERTEX_POINT('',#1542);
#545=VERTEX_POINT('',#1546);
#546=VERTEX_POINT('',#1547);
#547=VERTEX_POINT('',#1549);
#548=VERTEX_POINT('',#1551);
#549=VERTEX_POINT('',#1555);
#550=VERTEX_POINT('',#1557);
#551=VERTEX_POINT('',#1561);
#552=VERTEX_POINT('',#1563);
#553=VERTEX_POINT('',#1567);
#554=VERTEX_POINT('',#1568);
#555=VERTEX_POINT('',#1570);
#556=VERTEX_POINT('',#1572);
#557=VERTEX_POINT('',#1576);
#558=VERTEX_POINT('',#1578);
#559=VERTEX_POINT('',#1582);
#560=VERTEX_POINT('',#1584);
#561=VERTEX_POINT('',#1588);
#562=VERTEX_POINT('',#1589);
#563=VERTEX_POINT('',#1591);
#564=VERTEX_POINT('',#1593);
#565=VERTEX_POINT('',#1597);
#566=VERTEX_POINT('',#1599);
#567=VERTEX_POINT('',#1603);
#568=VERTEX_POINT('',#1605);
#569=VERTEX_POINT('',#1609);
#570=VERTEX_POINT('',#1610);
#571=VERTEX_POINT('',#1612);
#572=VERTEX_POINT('',#1614);
#573=VERTEX_POINT('',#1618);
#574=VERTEX_POINT('',#1620);
#575=VERTEX_POINT('',#1624);
#576=VERTEX_POINT('',#1626);
#577=VERTEX_POINT('',#1630);
#578=VERTEX_POINT('',#1631);
#579=VERTEX_POINT('',#1633);
#580=VERTEX_POINT('',#1635);
#581=VERTEX_POINT('',#1639);
#582=VERTEX_POINT('',#1641);
#583=VERTEX_POINT('',#1645);
#584=VERTEX_POINT('',#1647);
#585=VERTEX_POINT('',#1651);
#586=VERTEX_POINT('',#1652);
#587=VERTEX_POINT('',#1654);
#588=VERTEX_POINT('',#1656);
#589=VERTEX_POINT('',#1660);
#590=VERTEX_POINT('',#1662);
#591=VERTEX_POINT('',#1666);
#592=VERTEX_POINT('',#1668);
#593=VERTEX_POINT('',#1672);
#594=VERTEX_POINT('',#1673);
#595=VERTEX_POINT('',#1675);
#596=VERTEX_POINT('',#1677);
#597=VERTEX_POINT('',#1681);
#598=VERTEX_POINT('',#1683);
#599=VERTEX_POINT('',#1687);
#600=VERTEX_POINT('',#1689);
#601=VERTEX_POINT('',#1693);
#602=VERTEX_POINT('',#1694);
#603=VERTEX_POINT('',#1696);
#604=VERTEX_POINT('',#1698);
#605=VERTEX_POINT('',#1702);
#606=VERTEX_POINT('',#1704);
#607=VERTEX_POINT('',#1708);
#608=VERTEX_POINT('',#1710);
#609=VERTEX_POINT('',#1714);
#610=VERTEX_POINT('',#1715);
#611=VERTEX_POINT('',#1717);
#612=VERTEX_POINT('',#1719);
#613=VERTEX_POINT('',#1723);
#614=VERTEX_POINT('',#1725);
#615=VERTEX_POINT('',#1729);
#616=VERTEX_POINT('',#1731);
#617=VERTEX_POINT('',#1757);
#618=VERTEX_POINT('',#1759);
#619=VERTEX_POINT('',#1762);
#620=VERTEX_POINT('',#1765);
#621=VERTEX_POINT('',#1767);
#622=VERTEX_POINT('',#1774);
#623=VERTEX_POINT('',#1776);
#624=LINE('',#1482,#736);
#625=LINE('',#1485,#737);
#626=LINE('',#1487,#738);
#627=LINE('',#1489,#739);
#628=LINE('',#1493,#740);
#629=LINE('',#1497,#741);
#630=LINE('',#1499,#742);
#631=LINE('',#1501,#743);
#632=LINE('',#1503,#744);
#633=LINE('',#1506,#745);
#634=LINE('',#1508,#746);
#635=LINE('',#1510,#747);
#636=LINE('',#1512,#748);
#637=LINE('',#1514,#749);
#638=LINE('',#1516,#750);
#639=LINE('',#1518,#751);
#640=LINE('',#1520,#752);
#641=LINE('',#1522,#753);
#642=LINE('',#1524,#754);
#643=LINE('',#1527,#755);
#644=LINE('',#1529,#756);
#645=LINE('',#1531,#757);
#646=LINE('',#1535,#758);
#647=LINE('',#1539,#759);
#648=LINE('',#1541,#760);
#649=LINE('',#1543,#761);
#650=LINE('',#1545,#762);
#651=LINE('',#1548,#763);
#652=LINE('',#1550,#764);
#653=LINE('',#1552,#765);
#654=LINE('',#1554,#766);
#655=LINE('',#1556,#767);
#656=LINE('',#1558,#768);
#657=LINE('',#1560,#769);
#658=LINE('',#1562,#770);
#659=LINE('',#1564,#771);
#660=LINE('',#1566,#772);
#661=LINE('',#1569,#773);
#662=LINE('',#1571,#774);
#663=LINE('',#1573,#775);
#664=LINE('',#1577,#776);
#665=LINE('',#1581,#777);
#666=LINE('',#1583,#778);
#667=LINE('',#1585,#779);
#668=LINE('',#1587,#780);
#669=LINE('',#1590,#781);
#670=LINE('',#1592,#782);
#671=LINE('',#1594,#783);
#672=LINE('',#1596,#784);
#673=LINE('',#1598,#785);
#674=LINE('',#1600,#786);
#675=LINE('',#1602,#787);
#676=LINE('',#1604,#788);
#677=LINE('',#1606,#789);
#678=LINE('',#1608,#790);
#679=LINE('',#1611,#791);
#680=LINE('',#1613,#792);
#681=LINE('',#1615,#793);
#682=LINE('',#1619,#794);
#683=LINE('',#1623,#795);
#684=LINE('',#1625,#796);
#685=LINE('',#1627,#797);
#686=LINE('',#1629,#798);
#687=LINE('',#1632,#799);
#688=LINE('',#1634,#800);
#689=LINE('',#1636,#801);
#690=LINE('',#1638,#802);
#691=LINE('',#1640,#803);
#692=LINE('',#1642,#804);
#693=LINE('',#1644,#805);
#694=LINE('',#1646,#806);
#695=LINE('',#1648,#807);
#696=LINE('',#1650,#808);
#697=LINE('',#1653,#809);
#698=LINE('',#1655,#810);
#699=LINE('',#1657,#811);
#700=LINE('',#1661,#812);
#701=LINE('',#1665,#813);
#702=LINE('',#1667,#814);
#703=LINE('',#1669,#815);
#704=LINE('',#1671,#816);
#705=LINE('',#1674,#817);
#706=LINE('',#1676,#818);
#707=LINE('',#1678,#819);
#708=LINE('',#1680,#820);
#709=LINE('',#1682,#821);
#710=LINE('',#1684,#822);
#711=LINE('',#1686,#823);
#712=LINE('',#1688,#824);
#713=LINE('',#1690,#825);
#714=LINE('',#1692,#826);
#715=LINE('',#1695,#827);
#716=LINE('',#1697,#828);
#717=LINE('',#1699,#829);
#718=LINE('',#1703,#830);
#719=LINE('',#1707,#831);
#720=LINE('',#1709,#832);
#721=LINE('',#1711,#833);
#722=LINE('',#1713,#834);
#723=LINE('',#1716,#835);
#724=LINE('',#1718,#836);
#725=LINE('',#1720,#837);
#726=LINE('',#1722,#838);
#727=LINE('',#1724,#839);
#728=LINE('',#1726,#840);
#729=LINE('',#1728,#841);
#730=LINE('',#1730,#842);
#731=LINE('',#1732,#843);
#732=LINE('',#1758,#844);
#733=LINE('',#1764,#845);
#734=LINE('',#1766,#846);
#735=LINE('',#1768,#847);
#736=VECTOR('',#1178,1.);
#737=VECTOR('',#1179,1.);
#738=VECTOR('',#1180,1.);
#739=VECTOR('',#1181,1.);
#740=VECTOR('',#1186,1.);
#741=VECTOR('',#1191,1.);
#742=VECTOR('',#1192,1.);
#743=VECTOR('',#1193,1.);
#744=VECTOR('',#1196,1.);
#745=VECTOR('',#1197,1.);
#746=VECTOR('',#1198,1.);
#747=VECTOR('',#1199,1.);
#748=VECTOR('',#1202,1.);
#749=VECTOR('',#1203,1.);
#750=VECTOR('',#1204,1.);
#751=VECTOR('',#1207,1.);
#752=VECTOR('',#1208,1.);
#753=VECTOR('',#1209,1.);
#754=VECTOR('',#1212,1.);
#755=VECTOR('',#1213,1.);
#756=VECTOR('',#1214,1.);
#757=VECTOR('',#1215,1.);
#758=VECTOR('',#1220,1.);
#759=VECTOR('',#1225,1.);
#760=VECTOR('',#1226,1.);
#761=VECTOR('',#1227,1.);
#762=VECTOR('',#1230,1.);
#763=VECTOR('',#1231,1.);
#764=VECTOR('',#1232,1.);
#765=VECTOR('',#1233,1.);
#766=VECTOR('',#1236,1.);
#767=VECTOR('',#1237,1.);
#768=VECTOR('',#1238,1.);
#769=VECTOR('',#1241,1.);
#770=VECTOR('',#1242,1.);
#771=VECTOR('',#1243,1.);
#772=VECTOR('',#1246,1.);
#773=VECTOR('',#1247,1.);
#774=VECTOR('',#1248,1.);
#775=VECTOR('',#1249,1.);
#776=VECTOR('',#1254,1.);
#777=VECTOR('',#1259,1.);
#778=VECTOR('',#1260,1.);
#779=VECTOR('',#1261,1.);
#780=VECTOR('',#1264,1.);
#781=VECTOR('',#1265,1.);
#782=VECTOR('',#1266,1.);
#783=VECTOR('',#1267,1.);
#784=VECTOR('',#1270,1.);
#785=VECTOR('',#1271,1.);
#786=VECTOR('',#1272,1.);
#787=VECTOR('',#1275,1.);
#788=VECTOR('',#1276,1.);
#789=VECTOR('',#1277,1.);
#790=VECTOR('',#1280,1.);
#791=VECTOR('',#1281,1.);
#792=VECTOR('',#1282,1.);
#793=VECTOR('',#1283,1.);
#794=VECTOR('',#1288,1.);
#795=VECTOR('',#1293,1.);
#796=VECTOR('',#1294,1.);
#797=VECTOR('',#1295,1.);
#798=VECTOR('',#1298,1.);
#799=VECTOR('',#1299,1.);
#800=VECTOR('',#1300,1.);
#801=VECTOR('',#1301,1.);
#802=VECTOR('',#1304,1.);
#803=VECTOR('',#1305,1.);
#804=VECTOR('',#1306,1.);
#805=VECTOR('',#1309,1.);
#806=VECTOR('',#1310,1.);
#807=VECTOR('',#1311,1.);
#808=VECTOR('',#1314,1.);
#809=VECTOR('',#1315,1.);
#810=VECTOR('',#1316,1.);
#811=VECTOR('',#1317,1.);
#812=VECTOR('',#1322,1.);
#813=VECTOR('',#1327,1.);
#814=VECTOR('',#1328,1.);
#815=VECTOR('',#1329,1.);
#816=VECTOR('',#1332,1.);
#817=VECTOR('',#1333,1.);
#818=VECTOR('',#1334,1.);
#819=VECTOR('',#1335,1.);
#820=VECTOR('',#1338,1.);
#821=VECTOR('',#1339,1.);
#822=VECTOR('',#1340,1.);
#823=VECTOR('',#1343,1.);
#824=VECTOR('',#1344,1.);
#825=VECTOR('',#1345,1.);
#826=VECTOR('',#1348,1.);
#827=VECTOR('',#1349,1.);
#828=VECTOR('',#1350,1.);
#829=VECTOR('',#1351,1.);
#830=VECTOR('',#1356,1.);
#831=VECTOR('',#1361,1.);
#832=VECTOR('',#1362,1.);
#833=VECTOR('',#1363,1.);
#834=VECTOR('',#1366,1.);
#835=VECTOR('',#1367,1.);
#836=VECTOR('',#1368,1.);
#837=VECTOR('',#1369,1.);
#838=VECTOR('',#1372,1.);
#839=VECTOR('',#1373,1.);
#840=VECTOR('',#1374,1.);
#841=VECTOR('',#1377,1.);
#842=VECTOR('',#1378,1.);
#843=VECTOR('',#1379,1.);
#844=VECTOR('',#1428,1.);
#845=VECTOR('',#1435,1.);
#846=VECTOR('',#1436,1.);
#847=VECTOR('',#1437,1.);
#848=EDGE_LOOP('',(#62,#63,#64,#65));
#849=EDGE_LOOP('',(#66,#67,#68,#69));
#850=EDGE_LOOP('',(#70,#71,#72,#73));
#851=EDGE_LOOP('',(#74,#75,#76,#77));
#852=EDGE_LOOP('',(#78,#79,#80,#81));
#853=EDGE_LOOP('',(#82,#83,#84,#85));
#854=EDGE_LOOP('',(#86,#87,#88,#89));
#855=EDGE_LOOP('',(#90,#91,#92,#93));
#856=EDGE_LOOP('',(#94,#95,#96,#97));
#857=EDGE_LOOP('',(#98,#99,#100,#101));
#858=EDGE_LOOP('',(#102,#103,#104,#105));
#859=EDGE_LOOP('',(#106,#107,#108,#109));
#860=EDGE_LOOP('',(#110,#111,#112,#113));
#861=EDGE_LOOP('',(#114,#115,#116,#117));
#862=EDGE_LOOP('',(#118,#119,#120,#121));
#863=EDGE_LOOP('',(#122,#123,#124,#125));
#864=EDGE_LOOP('',(#126,#127,#128,#129));
#865=EDGE_LOOP('',(#130,#131,#132,#133));
#866=EDGE_LOOP('',(#134,#135,#136,#137));
#867=EDGE_LOOP('',(#138,#139,#140,#141));
#868=EDGE_LOOP('',(#142,#143,#144,#145));
#869=EDGE_LOOP('',(#146,#147,#148,#149));
#870=EDGE_LOOP('',(#150,#151,#152,#153));
#871=EDGE_LOOP('',(#154,#155,#156,#157));
#872=EDGE_LOOP('',(#158,#159,#160,#161));
#873=EDGE_LOOP('',(#162,#163,#164,#165));
#874=EDGE_LOOP('',(#166,#167,#168,#169));
#875=EDGE_LOOP('',(#170,#171,#172,#173));
#876=EDGE_LOOP('',(#174,#175,#176,#177));
#877=EDGE_LOOP('',(#178,#179,#180,#181));
#878=EDGE_LOOP('',(#182,#183,#184,#185));
#879=EDGE_LOOP('',(#186,#187,#188,#189));
#880=EDGE_LOOP('',(#190,#191,#192,#193));
#881=EDGE_LOOP('',(#194,#195,#196,#197));
#882=EDGE_LOOP('',(#198,#199,#200,#201));
#883=EDGE_LOOP('',(#202,#203,#204,#205));
#884=EDGE_LOOP('',(#206,#207,#208,#209,#210,#211,#212,#213,#214,#215,#216,
#217,#218,#219,#220,#221,#222,#223,#224,#225,#226,#227,#228,#229,#230,#231,
#232,#233,#234,#235,#236,#237,#238,#239,#240,#241,#242,#243,#244,#245,#246,
#247,#248,#249,#250,#251,#252,#253));
#885=EDGE_LOOP('',(#254));
#886=EDGE_LOOP('',(#255,#256,#257,#258));
#887=EDGE_LOOP('',(#259,#260,#261,#262));
#888=EDGE_LOOP('',(#263));
#889=EDGE_LOOP('',(#264));
#890=EDGE_LOOP('',(#265,#266,#267,#268,#269,#270,#271,#272,#273,#274,#275,
#276,#277,#278,#279,#280,#281,#282,#283,#284,#285,#286,#287,#288,#289,#290,
#291,#292,#293,#294,#295,#296,#297,#298,#299,#300,#301,#302,#303,#304,#305,
#306,#307,#308,#309,#310,#311,#312,#313,#314));
#891=EDGE_LOOP('',(#315));
#892=EDGE_LOOP('',(#316));
#893=EDGE_LOOP('',(#317,#318,#319,#320));
#894=EDGE_LOOP('',(#321,#322,#323,#324));
#895=EDGE_LOOP('',(#325,#326,#327,#328));
#896=EDGE_LOOP('',(#329,#330,#331,#332));
#897=EDGE_LOOP('',(#333,#334,#335,#336));
#898=EDGE_LOOP('',(#337,#338,#339,#340));
#899=EDGE_LOOP('',(#341,#342,#343,#344));
#900=EDGE_LOOP('',(#345,#346,#347,#348));
#901=EDGE_LOOP('',(#349,#350,#351,#352));
#902=EDGE_LOOP('',(#353,#354,#355,#356));
#903=EDGE_LOOP('',(#357,#358,#359,#360,#361,#362));
#904=EDGE_LOOP('',(#363));
#905=EDGE_LOOP('',(#364,#365,#366,#367));
#906=FACE_BOUND('',#848,.T.);
#907=FACE_BOUND('',#849,.T.);
#908=FACE_BOUND('',#850,.T.);
#909=FACE_BOUND('',#851,.T.);
#910=FACE_BOUND('',#852,.T.);
#911=FACE_BOUND('',#853,.T.);
#912=FACE_BOUND('',#854,.T.);
#913=FACE_BOUND('',#855,.T.);
#914=FACE_BOUND('',#856,.T.);
#915=FACE_BOUND('',#857,.T.);
#916=FACE_BOUND('',#858,.T.);
#917=FACE_BOUND('',#859,.T.);
#918=FACE_BOUND('',#860,.T.);
#919=FACE_BOUND('',#861,.T.);
#920=FACE_BOUND('',#862,.T.);
#921=FACE_BOUND('',#863,.T.);
#922=FACE_BOUND('',#864,.T.);
#923=FACE_BOUND('',#865,.T.);
#924=FACE_BOUND('',#866,.T.);
#925=FACE_BOUND('',#867,.T.);
#926=FACE_BOUND('',#868,.T.);
#927=FACE_BOUND('',#869,.T.);
#928=FACE_BOUND('',#870,.T.);
#929=FACE_BOUND('',#871,.T.);
#930=FACE_BOUND('',#872,.T.);
#931=FACE_BOUND('',#873,.T.);
#932=FACE_BOUND('',#874,.T.);
#933=FACE_BOUND('',#875,.T.);
#934=FACE_BOUND('',#876,.T.);
#935=FACE_BOUND('',#877,.T.);
#936=FACE_BOUND('',#878,.T.);
#937=FACE_BOUND('',#879,.T.);
#938=FACE_BOUND('',#880,.T.);
#939=FACE_BOUND('',#881,.T.);
#940=FACE_BOUND('',#882,.T.);
#941=FACE_BOUND('',#883,.T.);
#942=FACE_BOUND('',#884,.T.);
#943=FACE_BOUND('',#885,.T.);
#944=FACE_BOUND('',#886,.T.);
#945=FACE_BOUND('',#887,.T.);
#946=FACE_BOUND('',#888,.T.);
#947=FACE_BOUND('',#889,.T.);
#948=FACE_BOUND('',#890,.T.);
#949=FACE_BOUND('',#891,.T.);
#950=FACE_BOUND('',#892,.T.);
#951=FACE_BOUND('',#893,.T.);
#952=FACE_BOUND('',#894,.T.);
#953=FACE_BOUND('',#895,.T.);
#954=FACE_BOUND('',#896,.T.);
#955=FACE_BOUND('',#897,.T.);
#956=FACE_BOUND('',#898,.T.);
#957=FACE_BOUND('',#899,.T.);
#958=FACE_BOUND('',#900,.T.);
#959=FACE_BOUND('',#901,.T.);
#960=FACE_BOUND('',#902,.T.);
#961=FACE_BOUND('',#903,.T.);
#962=FACE_BOUND('',#904,.T.);
#963=FACE_BOUND('',#905,.T.);
#964=PLANE('',#1078);
#965=PLANE('',#1082);
#966=PLANE('',#1083);
#967=PLANE('',#1084);
#968=PLANE('',#1085);
#969=PLANE('',#1086);
#970=PLANE('',#1090);
#971=PLANE('',#1091);
#972=PLANE('',#1092);
#973=PLANE('',#1093);
#974=PLANE('',#1094);
#975=PLANE('',#1098);
#976=PLANE('',#1099);
#977=PLANE('',#1100);
#978=PLANE('',#1101);
#979=PLANE('',#1102);
#980=PLANE('',#1106);
#981=PLANE('',#1107);
#982=PLANE('',#1108);
#983=PLANE('',#1109);
#984=PLANE('',#1110);
#985=PLANE('',#1114);
#986=PLANE('',#1115);
#987=PLANE('',#1116);
#988=PLANE('',#1117);
#989=PLANE('',#1118);
#990=PLANE('',#1122);
#991=PLANE('',#1123);
#992=PLANE('',#1124);
#993=PLANE('',#1125);
#994=PLANE('',#1152);
#995=PLANE('',#1159);
#996=PLANE('',#1160);
#997=PLANE('',#1161);
#998=PLANE('',#1162);
#999=PLANE('',#1163);
#1000=PLANE('',#1164);
#1001=PLANE('',#1165);
#1002=PLANE('',#1166);
#1003=PLANE('',#1167);
#1004=PLANE('',#1168);
#1005=PLANE('',#1169);
#1006=PLANE('',#1170);
#1007=PLANE('',#1171);
#1008=PLANE('',#1172);
#1009=PLANE('',#1173);
#1010=ADVANCED_FACE('',(#906),#964,.T.);
#1011=ADVANCED_FACE('',(#907),#53,.F.);
#1012=ADVANCED_FACE('',(#908),#965,.T.);
#1013=ADVANCED_FACE('',(#909),#966,.F.);
#1014=ADVANCED_FACE('',(#910),#967,.F.);
#1015=ADVANCED_FACE('',(#911),#968,.F.);
#1016=ADVANCED_FACE('',(#912),#969,.F.);
#1017=ADVANCED_FACE('',(#913),#54,.F.);
#1018=ADVANCED_FACE('',(#914),#970,.T.);
#1019=ADVANCED_FACE('',(#915),#971,.F.);
#1020=ADVANCED_FACE('',(#916),#972,.F.);
#1021=ADVANCED_FACE('',(#917),#973,.F.);
#1022=ADVANCED_FACE('',(#918),#974,.F.);
#1023=ADVANCED_FACE('',(#919),#55,.F.);
#1024=ADVANCED_FACE('',(#920),#975,.T.);
#1025=ADVANCED_FACE('',(#921),#976,.F.);
#1026=ADVANCED_FACE('',(#922),#977,.F.);
#1027=ADVANCED_FACE('',(#923),#978,.F.);
#1028=ADVANCED_FACE('',(#924),#979,.F.);
#1029=ADVANCED_FACE('',(#925),#56,.F.);
#1030=ADVANCED_FACE('',(#926),#980,.T.);
#1031=ADVANCED_FACE('',(#927),#981,.F.);
#1032=ADVANCED_FACE('',(#928),#982,.F.);
#1033=ADVANCED_FACE('',(#929),#983,.F.);
#1034=ADVANCED_FACE('',(#930),#984,.F.);
#1035=ADVANCED_FACE('',(#931),#57,.F.);
#1036=ADVANCED_FACE('',(#932),#985,.T.);
#1037=ADVANCED_FACE('',(#933),#986,.F.);
#1038=ADVANCED_FACE('',(#934),#987,.F.);
#1039=ADVANCED_FACE('',(#935),#988,.F.);
#1040=ADVANCED_FACE('',(#936),#989,.F.);
#1041=ADVANCED_FACE('',(#937),#58,.F.);
#1042=ADVANCED_FACE('',(#938),#990,.T.);
#1043=ADVANCED_FACE('',(#939),#991,.F.);
#1044=ADVANCED_FACE('',(#940),#992,.F.);
#1045=ADVANCED_FACE('',(#941),#993,.F.);
#1046=ADVANCED_FACE('',(#942,#943),#59,.T.);
#1047=ADVANCED_FACE('',(#944),#994,.F.);
#1048=ADVANCED_FACE('',(#945),#60,.F.);
#1049=ADVANCED_FACE('',(#946,#947),#61,.F.);
#1050=ADVANCED_FACE('',(#948,#949),#995,.T.);
#1051=ADVANCED_FACE('',(#950),#996,.F.);
#1052=ADVANCED_FACE('',(#951),#997,.F.);
#1053=ADVANCED_FACE('',(#952),#998,.F.);
#1054=ADVANCED_FACE('',(#953),#999,.F.);
#1055=ADVANCED_FACE('',(#954),#1000,.F.);
#1056=ADVANCED_FACE('',(#955),#1001,.F.);
#1057=ADVANCED_FACE('',(#956),#1002,.F.);
#1058=ADVANCED_FACE('',(#957),#1003,.F.);
#1059=ADVANCED_FACE('',(#958),#1004,.F.);
#1060=ADVANCED_FACE('',(#959),#1005,.F.);
#1061=ADVANCED_FACE('',(#960),#1006,.F.);
#1062=ADVANCED_FACE('',(#961),#1007,.F.);
#1063=ADVANCED_FACE('',(#962),#1008,.T.);
#1064=ADVANCED_FACE('',(#963),#1009,.F.);
#1065=CLOSED_SHELL('',(#1010,#1011,#1012,#1013,#1014,#1015,#1016,#1017,
#1018,#1019,#1020,#1021,#1022,#1023,#1024,#1025,#1026,#1027,#1028,#1029,
#1030,#1031,#1032,#1033,#1034,#1035,#1036,#1037,#1038,#1039,#1040,#1041,
#1042,#1043,#1044,#1045,#1046,#1047,#1048,#1049,#1050,#1051,#1052,#1053,
#1054,#1055,#1056,#1057,#1058,#1059,#1060,#1061,#1062,#1063,#1064));
#1066=STYLED_ITEM('',(#1067),#1074);
#1067=PRESENTATION_STYLE_ASSIGNMENT((#1068));
#1068=SURFACE_STYLE_USAGE(.BOTH.,#1069);
#1069=SURFACE_SIDE_STYLE('',(#1070));
#1070=SURFACE_STYLE_FILL_AREA(#1071);
#1071=FILL_AREA_STYLE('',(#1072));
#1072=FILL_AREA_STYLE_COLOUR('',#1073);
#1073=COLOUR_RGB('',0.615686274509804,0.811764705882353,0.929411764705882);
#1074=MANIFOLD_SOLID_BREP('Chassis',#1065);
#1075=SHAPE_DEFINITION_REPRESENTATION(#1798,#1076);
#1076=SHAPE_REPRESENTATION('Chassis',(#1077),#1793);
#1077=AXIS2_PLACEMENT_3D('',#1480,#1174,#1175);
#1078=AXIS2_PLACEMENT_3D('',#1481,#1176,#1177);
#1079=AXIS2_PLACEMENT_3D('',#1490,#1182,#1183);
#1080=AXIS2_PLACEMENT_3D('',#1491,#1184,#1185);
#1081=AXIS2_PLACEMENT_3D('',#1495,#1187,#1188);
#1082=AXIS2_PLACEMENT_3D('',#1496,#1189,#1190);
#1083=AXIS2_PLACEMENT_3D('',#1502,#1194,#1195);
#1084=AXIS2_PLACEMENT_3D('',#1511,#1200,#1201);
#1085=AXIS2_PLACEMENT_3D('',#1517,#1205,#1206);
#1086=AXIS2_PLACEMENT_3D('',#1523,#1210,#1211);
#1087=AXIS2_PLACEMENT_3D('',#1532,#1216,#1217);
#1088=AXIS2_PLACEMENT_3D('',#1533,#1218,#1219);
#1089=AXIS2_PLACEMENT_3D('',#1537,#1221,#1222);
#1090=AXIS2_PLACEMENT_3D('',#1538,#1223,#1224);
#1091=AXIS2_PLACEMENT_3D('',#1544,#1228,#1229);
#1092=AXIS2_PLACEMENT_3D('',#1553,#1234,#1235);
#1093=AXIS2_PLACEMENT_3D('',#1559,#1239,#1240);
#1094=AXIS2_PLACEMENT_3D('',#1565,#1244,#1245);
#1095=AXIS2_PLACEMENT_3D('',#1574,#1250,#1251);
#1096=AXIS2_PLACEMENT_3D('',#1575,#1252,#1253);
#1097=AXIS2_PLACEMENT_3D('',#1579,#1255,#1256);
#1098=AXIS2_PLACEMENT_3D('',#1580,#1257,#1258);
#1099=AXIS2_PLACEMENT_3D('',#1586,#1262,#1263);
#1100=AXIS2_PLACEMENT_3D('',#1595,#1268,#1269);
#1101=AXIS2_PLACEMENT_3D('',#1601,#1273,#1274);
#1102=AXIS2_PLACEMENT_3D('',#1607,#1278,#1279);
#1103=AXIS2_PLACEMENT_3D('',#1616,#1284,#1285);
#1104=AXIS2_PLACEMENT_3D('',#1617,#1286,#1287);
#1105=AXIS2_PLACEMENT_3D('',#1621,#1289,#1290);
#1106=AXIS2_PLACEMENT_3D('',#1622,#1291,#1292);
#1107=AXIS2_PLACEMENT_3D('',#1628,#1296,#1297);
#1108=AXIS2_PLACEMENT_3D('',#1637,#1302,#1303);
#1109=AXIS2_PLACEMENT_3D('',#1643,#1307,#1308);
#1110=AXIS2_PLACEMENT_3D('',#1649,#1312,#1313);
#1111=AXIS2_PLACEMENT_3D('',#1658,#1318,#1319);
#1112=AXIS2_PLACEMENT_3D('',#1659,#1320,#1321);
#1113=AXIS2_PLACEMENT_3D('',#1663,#1323,#1324);
#1114=AXIS2_PLACEMENT_3D('',#1664,#1325,#1326);
#1115=AXIS2_PLACEMENT_3D('',#1670,#1330,#1331);
#1116=AXIS2_PLACEMENT_3D('',#1679,#1336,#1337);
#1117=AXIS2_PLACEMENT_3D('',#1685,#1341,#1342);
#1118=AXIS2_PLACEMENT_3D('',#1691,#1346,#1347);
#1119=AXIS2_PLACEMENT_3D('',#1700,#1352,#1353);
#1120=AXIS2_PLACEMENT_3D('',#1701,#1354,#1355);
#1121=AXIS2_PLACEMENT_3D('',#1705,#1357,#1358);
#1122=AXIS2_PLACEMENT_3D('',#1706,#1359,#1360);
#1123=AXIS2_PLACEMENT_3D('',#1712,#1364,#1365);
#1124=AXIS2_PLACEMENT_3D('',#1721,#1370,#1371);
#1125=AXIS2_PLACEMENT_3D('',#1727,#1375,#1376);
#1126=AXIS2_PLACEMENT_3D('',#1733,#1380,#1381);
#1127=AXIS2_PLACEMENT_3D('',#1734,#1382,#1383);
#1128=AXIS2_PLACEMENT_3D('',#1735,#1384,#1385);
#1129=AXIS2_PLACEMENT_3D('',#1736,#1386,#1387);
#1130=AXIS2_PLACEMENT_3D('',#1737,#1388,#1389);
#1131=AXIS2_PLACEMENT_3D('',#1738,#1390,#1391);
#1132=AXIS2_PLACEMENT_3D('',#1739,#1392,#1393);
#1133=AXIS2_PLACEMENT_3D('',#1740,#1394,#1395);
#1134=AXIS2_PLACEMENT_3D('',#1741,#1396,#1397);
#1135=AXIS2_PLACEMENT_3D('',#1742,#1398,#1399);
#1136=AXIS2_PLACEMENT_3D('',#1743,#1400,#1401);
#1137=AXIS2_PLACEMENT_3D('',#1744,#1402,#1403);
#1138=AXIS2_PLACEMENT_3D('',#1745,#1404,#1405);
#1139=AXIS2_PLACEMENT_3D('',#1746,#1406,#1407);
#1140=AXIS2_PLACEMENT_3D('',#1747,#1408,#1409);
#1141=AXIS2_PLACEMENT_3D('',#1748,#1410,#1411);
#1142=AXIS2_PLACEMENT_3D('',#1749,#1412,#1413);
#1143=AXIS2_PLACEMENT_3D('',#1750,#1414,#1415);
#1144=AXIS2_PLACEMENT_3D('',#1751,#1416,#1417);
#1145=AXIS2_PLACEMENT_3D('',#1752,#1418,#1419);
#1146=AXIS2_PLACEMENT_3D('',#1753,#1420,#1421);
#1147=AXIS2_PLACEMENT_3D('',#1754,#1422,#1423);
#1148=AXIS2_PLACEMENT_3D('',#1755,#1424,#1425);
#1149=AXIS2_PLACEMENT_3D('',#1756,#1426,#1427);
#1150=AXIS2_PLACEMENT_3D('',#1760,#1429,#1430);
#1151=AXIS2_PLACEMENT_3D('',#1761,#1431,#1432);
#1152=AXIS2_PLACEMENT_3D('',#1763,#1433,#1434);
#1153=AXIS2_PLACEMENT_3D('',#1769,#1438,#1439);
#1154=AXIS2_PLACEMENT_3D('',#1770,#1440,#1441);
#1155=AXIS2_PLACEMENT_3D('',#1771,#1442,#1443);
#1156=AXIS2_PLACEMENT_3D('',#1772,#1444,#1445);
#1157=AXIS2_PLACEMENT_3D('',#1773,#1446,#1447);
#1158=AXIS2_PLACEMENT_3D('',#1775,#1448,#1449);
#1159=AXIS2_PLACEMENT_3D('',#1777,#1450,#1451);
#1160=AXIS2_PLACEMENT_3D('',#1778,#1452,#1453);
#1161=AXIS2_PLACEMENT_3D('',#1779,#1454,#1455);
#1162=AXIS2_PLACEMENT_3D('',#1780,#1456,#1457);
#1163=AXIS2_PLACEMENT_3D('',#1781,#1458,#1459);
#1164=AXIS2_PLACEMENT_3D('',#1782,#1460,#1461);
#1165=AXIS2_PLACEMENT_3D('',#1783,#1462,#1463);
#1166=AXIS2_PLACEMENT_3D('',#1784,#1464,#1465);
#1167=AXIS2_PLACEMENT_3D('',#1785,#1466,#1467);
#1168=AXIS2_PLACEMENT_3D('',#1786,#1468,#1469);
#1169=AXIS2_PLACEMENT_3D('',#1787,#1470,#1471);
#1170=AXIS2_PLACEMENT_3D('',#1788,#1472,#1473);
#1171=AXIS2_PLACEMENT_3D('',#1789,#1474,#1475);
#1172=AXIS2_PLACEMENT_3D('',#1790,#1476,#1477);
#1173=AXIS2_PLACEMENT_3D('',#1791,#1478,#1479);
#1174=DIRECTION('',(0.,0.,1.));
#1175=DIRECTION('',(1.,0.,0.));
#1176=DIRECTION('',(0.,1.,0.));
#1177=DIRECTION('',(0.,0.,1.));
#1178=DIRECTION('',(1.,0.,0.));
#1179=DIRECTION('',(0.,0.,-1.));
#1180=DIRECTION('',(1.,0.,0.));
#1181=DIRECTION('',(0.,0.,-1.));
#1182=DIRECTION('',(0.,0.,-1.));
#1183=DIRECTION('',(-1.,0.,0.));
#1184=DIRECTION('',(0.,0.,1.));
#1185=DIRECTION('',(1.,0.,0.));
#1186=DIRECTION('',(0.,0.,-1.));
#1187=DIRECTION('',(0.,0.,1.));
#1188=DIRECTION('',(1.,0.,0.));
#1189=DIRECTION('',(1.,0.,0.));
#1190=DIRECTION('',(0.,0.,-1.));
#1191=DIRECTION('',(0.,-1.,0.));
#1192=DIRECTION('',(0.,0.,-1.));
#1193=DIRECTION('',(0.,-1.,0.));
#1194=DIRECTION('',(0.866025403784438,0.5,0.));
#1195=DIRECTION('',(-0.5,0.866025403784438,0.));
#1196=DIRECTION('',(0.5,-0.866025403784438,0.));
#1197=DIRECTION('',(0.,0.,-1.));
#1198=DIRECTION('',(0.5,-0.866025403784438,0.));
#1199=DIRECTION('',(0.,0.,-1.));
#1200=DIRECTION('',(0.5,-0.866025403784438,0.));
#1201=DIRECTION('',(0.866025403784438,0.5,0.));
#1202=DIRECTION('',(-0.866025403784438,-0.5,0.));
#1203=DIRECTION('',(0.,0.,-1.));
#1204=DIRECTION('',(-0.866025403784438,-0.5,0.));
#1205=DIRECTION('',(-0.866025403784438,-0.5,0.));
#1206=DIRECTION('',(0.5,-0.866025403784439,0.));
#1207=DIRECTION('',(-0.5,0.866025403784439,0.));
#1208=DIRECTION('',(0.,0.,-1.));
#1209=DIRECTION('',(-0.5,0.866025403784439,0.));
#1210=DIRECTION('',(0.5,0.866025403784439,0.));
#1211=DIRECTION('',(-0.866025403784439,0.5,0.));
#1212=DIRECTION('',(0.866025403784439,-0.5,0.));
#1213=DIRECTION('',(0.,0.,-1.));
#1214=DIRECTION('',(0.866025403784439,-0.5,0.));
#1215=DIRECTION('',(0.,0.,-1.));
#1216=DIRECTION('',(0.,0.,-1.));
#1217=DIRECTION('',(-1.,0.,0.));
#1218=DIRECTION('',(0.,0.,1.));
#1219=DIRECTION('',(1.,0.,0.));
#1220=DIRECTION('',(0.,0.,-1.));
#1221=DIRECTION('',(0.,0.,1.));
#1222=DIRECTION('',(1.,0.,0.));
#1223=DIRECTION('',(0.5,0.866025403784439,0.));
#1224=DIRECTION('',(-0.866025403784439,0.5,0.));
#1225=DIRECTION('',(0.866025403784439,-0.5,0.));
#1226=DIRECTION('',(0.,0.,-1.));
#1227=DIRECTION('',(0.866025403784439,-0.5,0.));
#1228=DIRECTION('',(-8.89716795171035E-16,1.,0.));
#1229=DIRECTION('',(-1.,-8.89716795171035E-16,0.));
#1230=DIRECTION('',(1.,8.89716795171035E-16,0.));
#1231=DIRECTION('',(0.,0.,-1.));
#1232=DIRECTION('',(1.,8.89716795171035E-16,0.));
#1233=DIRECTION('',(0.,0.,-1.));
#1234=DIRECTION('',(1.,1.36592399683213E-15,0.));
#1235=DIRECTION('',(-1.36592399683213E-15,1.,0.));
#1236=DIRECTION('',(1.36592399683213E-15,-1.,0.));
#1237=DIRECTION('',(0.,0.,-1.));
#1238=DIRECTION('',(1.36592399683213E-15,-1.,0.));
#1239=DIRECTION('',(5.93144530114025E-16,-1.,0.));
#1240=DIRECTION('',(1.,5.93144530114025E-16,0.));
#1241=DIRECTION('',(-1.,-5.93144530114025E-16,0.));
#1242=DIRECTION('',(0.,0.,-1.));
#1243=DIRECTION('',(-1.,-5.93144530114025E-16,0.));
#1244=DIRECTION('',(-0.5,0.866025403784439,0.));
#1245=DIRECTION('',(-0.866025403784439,-0.5,0.));
#1246=DIRECTION('',(0.866025403784439,0.5,0.));
#1247=DIRECTION('',(0.,0.,-1.));
#1248=DIRECTION('',(0.866025403784439,0.5,0.));
#1249=DIRECTION('',(0.,0.,-1.));
#1250=DIRECTION('',(0.,0.,-1.));
#1251=DIRECTION('',(-1.,0.,0.));
#1252=DIRECTION('',(0.,0.,1.));
#1253=DIRECTION('',(1.,0.,0.));
#1254=DIRECTION('',(0.,0.,-1.));
#1255=DIRECTION('',(0.,0.,1.));
#1256=DIRECTION('',(1.,0.,0.));
#1257=DIRECTION('',(-0.5,0.866025403784439,0.));
#1258=DIRECTION('',(-0.866025403784439,-0.5,0.));
#1259=DIRECTION('',(0.866025403784439,0.5,0.));
#1260=DIRECTION('',(0.,0.,-1.));
#1261=DIRECTION('',(0.866025403784439,0.5,0.));
#1262=DIRECTION('',(-0.866025403784439,0.5,0.));
#1263=DIRECTION('',(-0.5,-0.866025403784439,0.));
#1264=DIRECTION('',(0.5,0.866025403784439,0.));
#1265=DIRECTION('',(0.,0.,-1.));
#1266=DIRECTION('',(0.5,0.866025403784439,0.));
#1267=DIRECTION('',(0.,0.,-1.));
#1268=DIRECTION('',(0.5,0.866025403784439,0.));
#1269=DIRECTION('',(-0.866025403784439,0.5,0.));
#1270=DIRECTION('',(0.866025403784439,-0.5,0.));
#1271=DIRECTION('',(0.,0.,-1.));
#1272=DIRECTION('',(0.866025403784439,-0.5,0.));
#1273=DIRECTION('',(0.866025403784439,-0.5,0.));
#1274=DIRECTION('',(0.5,0.866025403784439,0.));
#1275=DIRECTION('',(-0.5,-0.866025403784439,0.));
#1276=DIRECTION('',(0.,0.,-1.));
#1277=DIRECTION('',(-0.5,-0.866025403784439,0.));
#1278=DIRECTION('',(-1.,1.13826999736011E-16,0.));
#1279=DIRECTION('',(-1.13826999736011E-16,-1.,0.));
#1280=DIRECTION('',(1.13826999736011E-16,1.,0.));
#1281=DIRECTION('',(0.,0.,-1.));
#1282=DIRECTION('',(1.13826999736011E-16,1.,0.));
#1283=DIRECTION('',(0.,0.,-1.));
#1284=DIRECTION('',(0.,0.,-1.));
#1285=DIRECTION('',(-1.,0.,0.));
#1286=DIRECTION('',(0.,0.,1.));
#1287=DIRECTION('',(1.,0.,0.));
#1288=DIRECTION('',(0.,0.,-1.));
#1289=DIRECTION('',(0.,0.,1.));
#1290=DIRECTION('',(1.,0.,0.));
#1291=DIRECTION('',(-1.,1.13826999736011E-16,0.));
#1292=DIRECTION('',(-1.13826999736011E-16,-1.,0.));
#1293=DIRECTION('',(1.13826999736011E-16,1.,0.));
#1294=DIRECTION('',(0.,0.,-1.));
#1295=DIRECTION('',(1.13826999736011E-16,1.,0.));
#1296=DIRECTION('',(-0.866025403784438,-0.5,0.));
#1297=DIRECTION('',(0.5,-0.866025403784439,0.));
#1298=DIRECTION('',(-0.5,0.866025403784438,0.));
#1299=DIRECTION('',(0.,0.,-1.));
#1300=DIRECTION('',(-0.5,0.866025403784438,0.));
#1301=DIRECTION('',(0.,0.,-1.));
#1302=DIRECTION('',(-0.5,0.866025403784439,0.));
#1303=DIRECTION('',(-0.866025403784439,-0.5,0.));
#1304=DIRECTION('',(0.866025403784439,0.5,0.));
#1305=DIRECTION('',(0.,0.,-1.));
#1306=DIRECTION('',(0.866025403784439,0.5,0.));
#1307=DIRECTION('',(0.866025403784438,0.5,0.));
#1308=DIRECTION('',(-0.5,0.866025403784439,0.));
#1309=DIRECTION('',(0.5,-0.866025403784439,0.));
#1310=DIRECTION('',(0.,0.,-1.));
#1311=DIRECTION('',(0.5,-0.866025403784439,0.));
#1312=DIRECTION('',(-0.5,-0.866025403784439,0.));
#1313=DIRECTION('',(0.866025403784439,-0.5,0.));
#1314=DIRECTION('',(-0.866025403784439,0.5,0.));
#1315=DIRECTION('',(0.,0.,-1.));
#1316=DIRECTION('',(-0.866025403784439,0.5,0.));
#1317=DIRECTION('',(0.,0.,-1.));
#1318=DIRECTION('',(0.,0.,-1.));
#1319=DIRECTION('',(-1.,0.,0.));
#1320=DIRECTION('',(0.,0.,1.));
#1321=DIRECTION('',(1.,0.,0.));
#1322=DIRECTION('',(0.,0.,-1.));
#1323=DIRECTION('',(0.,0.,1.));
#1324=DIRECTION('',(1.,0.,0.));
#1325=DIRECTION('',(-0.5,-0.866025403784438,0.));
#1326=DIRECTION('',(0.866025403784438,-0.5,0.));
#1327=DIRECTION('',(-0.866025403784438,0.5,0.));
#1328=DIRECTION('',(0.,0.,-1.));
#1329=DIRECTION('',(-0.866025403784438,0.5,0.));
#1330=DIRECTION('',(5.93144530114023E-16,-1.,0.));
#1331=DIRECTION('',(1.,5.93144530114023E-16,0.));
#1332=DIRECTION('',(-1.,-5.93144530114023E-16,0.));
#1333=DIRECTION('',(0.,0.,-1.));
#1334=DIRECTION('',(-1.,-5.93144530114023E-16,0.));
#1335=DIRECTION('',(0.,0.,-1.));
#1336=DIRECTION('',(-1.,-1.36592399683213E-15,0.));
#1337=DIRECTION('',(1.36592399683213E-15,-1.,0.));
#1338=DIRECTION('',(-1.36592399683213E-15,1.,0.));
#1339=DIRECTION('',(0.,0.,-1.));
#1340=DIRECTION('',(-1.36592399683213E-15,1.,0.));
#1341=DIRECTION('',(-9.88574216856708E-17,1.,0.));
#1342=DIRECTION('',(-1.,-9.88574216856709E-17,0.));
#1343=DIRECTION('',(1.,9.88574216856709E-17,0.));
#1344=DIRECTION('',(0.,0.,-1.));
#1345=DIRECTION('',(1.,9.88574216856709E-17,0.));
#1346=DIRECTION('',(0.5,-0.866025403784439,0.));
#1347=DIRECTION('',(0.866025403784439,0.5,0.));
#1348=DIRECTION('',(-0.866025403784439,-0.5,0.));
#1349=DIRECTION('',(0.,0.,-1.));
#1350=DIRECTION('',(-0.866025403784439,-0.5,0.));
#1351=DIRECTION('',(0.,0.,-1.));
#1352=DIRECTION('',(0.,0.,-1.));
#1353=DIRECTION('',(-1.,0.,0.));
#1354=DIRECTION('',(0.,0.,1.));
#1355=DIRECTION('',(1.,0.,0.));
#1356=DIRECTION('',(0.,0.,-1.));
#1357=DIRECTION('',(0.,0.,1.));
#1358=DIRECTION('',(1.,0.,0.));
#1359=DIRECTION('',(0.5,-0.866025403784438,0.));
#1360=DIRECTION('',(0.866025403784438,0.5,0.));
#1361=DIRECTION('',(-0.866025403784438,-0.5,0.));
#1362=DIRECTION('',(0.,0.,-1.));
#1363=DIRECTION('',(-0.866025403784438,-0.5,0.));
#1364=DIRECTION('',(0.866025403784439,-0.5,0.));
#1365=DIRECTION('',(0.5,0.866025403784439,0.));
#1366=DIRECTION('',(-0.5,-0.866025403784439,0.));
#1367=DIRECTION('',(0.,0.,-1.));
#1368=DIRECTION('',(-0.5,-0.866025403784439,0.));
#1369=DIRECTION('',(0.,0.,-1.));
#1370=DIRECTION('',(-0.5,-0.866025403784439,0.));
#1371=DIRECTION('',(0.866025403784439,-0.5,0.));
#1372=DIRECTION('',(-0.866025403784439,0.5,0.));
#1373=DIRECTION('',(0.,0.,-1.));
#1374=DIRECTION('',(-0.866025403784439,0.5,0.));
#1375=DIRECTION('',(-0.866025403784439,0.5,0.));
#1376=DIRECTION('',(-0.5,-0.866025403784439,0.));
#1377=DIRECTION('',(0.5,0.866025403784439,0.));
#1378=DIRECTION('',(0.,0.,-1.));
#1379=DIRECTION('',(0.5,0.866025403784439,0.));
#1380=DIRECTION('',(0.,0.,-1.));
#1381=DIRECTION('',(-1.,0.,0.));
#1382=DIRECTION('',(0.,0.,-1.));
#1383=DIRECTION('',(-1.,0.,0.));
#1384=DIRECTION('',(0.,0.,1.));
#1385=DIRECTION('',(1.,0.,0.));
#1386=DIRECTION('',(0.,0.,-1.));
#1387=DIRECTION('',(-1.,0.,0.));
#1388=DIRECTION('',(0.,0.,1.));
#1389=DIRECTION('',(1.,0.,0.));
#1390=DIRECTION('',(0.,0.,-1.));
#1391=DIRECTION('',(-1.,0.,0.));
#1392=DIRECTION('',(0.,0.,1.));
#1393=DIRECTION('',(1.,0.,0.));
#1394=DIRECTION('',(0.,0.,-1.));
#1395=DIRECTION('',(-1.,0.,0.));
#1396=DIRECTION('',(0.,0.,1.));
#1397=DIRECTION('',(1.,0.,0.));
#1398=DIRECTION('',(0.,0.,-1.));
#1399=DIRECTION('',(-1.,0.,0.));
#1400=DIRECTION('',(0.,0.,1.));
#1401=DIRECTION('',(1.,0.,0.));
#1402=DIRECTION('',(0.,0.,-1.));
#1403=DIRECTION('',(-1.,0.,0.));
#1404=DIRECTION('',(0.,0.,1.));
#1405=DIRECTION('',(1.,0.,0.));
#1406=DIRECTION('',(0.,0.,-1.));
#1407=DIRECTION('',(-1.,0.,0.));
#1408=DIRECTION('',(0.,0.,1.));
#1409=DIRECTION('',(1.,0.,0.));
#1410=DIRECTION('',(0.,0.,-1.));
#1411=DIRECTION('',(-1.,0.,0.));
#1412=DIRECTION('',(0.,0.,1.));
#1413=DIRECTION('',(1.,0.,0.));
#1414=DIRECTION('',(0.,0.,-1.));
#1415=DIRECTION('',(-1.,0.,0.));
#1416=DIRECTION('',(0.,0.,1.));
#1417=DIRECTION('',(1.,0.,0.));
#1418=DIRECTION('',(0.,0.,-1.));
#1419=DIRECTION('',(-1.,0.,0.));
#1420=DIRECTION('',(0.,0.,1.));
#1421=DIRECTION('',(1.,0.,0.));
#1422=DIRECTION('',(0.,0.,-1.));
#1423=DIRECTION('',(-1.,0.,0.));
#1424=DIRECTION('',(0.,0.,1.));
#1425=DIRECTION('',(1.,0.,0.));
#1426=DIRECTION('',(0.,0.,-1.));
#1427=DIRECTION('',(-1.,0.,0.));
#1428=DIRECTION('',(0.,0.,-1.));
#1429=DIRECTION('',(0.,0.,1.));
#1430=DIRECTION('',(1.,0.,0.));
#1431=DIRECTION('',(0.,0.,-1.));
#1432=DIRECTION('',(-1.,0.,0.));
#1433=DIRECTION('',(1.,0.,0.));
#1434=DIRECTION('',(0.,0.,-1.));
#1435=DIRECTION('',(0.,-1.,0.));
#1436=DIRECTION('',(0.,0.,-1.));
#1437=DIRECTION('',(0.,-1.,0.));
#1438=DIRECTION('',(0.,0.,-1.));
#1439=DIRECTION('',(-1.,0.,0.));
#1440=DIRECTION('',(0.,0.,1.));
#1441=DIRECTION('',(1.,0.,0.));
#1442=DIRECTION('',(0.,0.,1.));
#1443=DIRECTION('',(1.,0.,0.));
#1444=DIRECTION('',(0.,0.,-1.));
#1445=DIRECTION('',(-1.,0.,0.));
#1446=DIRECTION('',(0.,0.,1.));
#1447=DIRECTION('',(1.,0.,0.));
#1448=DIRECTION('',(0.,0.,1.));
#1449=DIRECTION('',(1.,0.,0.));
#1450=DIRECTION('',(0.,0.,1.));
#1451=DIRECTION('',(1.,0.,0.));
#1452=DIRECTION('',(0.,0.,-1.));
#1453=DIRECTION('',(1.,0.,0.));
#1454=DIRECTION('',(0.,0.,-1.));
#1455=DIRECTION('',(1.,0.,0.));
#1456=DIRECTION('',(0.,0.,-1.));
#1457=DIRECTION('',(1.,0.,0.));
#1458=DIRECTION('',(0.,0.,-1.));
#1459=DIRECTION('',(1.,0.,0.));
#1460=DIRECTION('',(0.,0.,-1.));
#1461=DIRECTION('',(1.,0.,0.));
#1462=DIRECTION('',(0.,0.,-1.));
#1463=DIRECTION('',(1.,0.,0.));
#1464=DIRECTION('',(0.,0.,-1.));
#1465=DIRECTION('',(1.,0.,0.));
#1466=DIRECTION('',(0.,0.,-1.));
#1467=DIRECTION('',(1.,0.,0.));
#1468=DIRECTION('',(0.,0.,-1.));
#1469=DIRECTION('',(1.,0.,0.));
#1470=DIRECTION('',(0.,0.,-1.));
#1471=DIRECTION('',(1.,0.,0.));
#1472=DIRECTION('',(0.,0.,-1.));
#1473=DIRECTION('',(1.,0.,0.));
#1474=DIRECTION('',(0.,0.,-1.));
#1475=DIRECTION('',(1.,0.,0.));
#1476=DIRECTION('',(0.,0.,-1.));
#1477=DIRECTION('',(1.,0.,0.));
#1478=DIRECTION('',(0.,0.,-1.));
#1479=DIRECTION('',(1.,0.,0.));
#1480=CARTESIAN_POINT('',(0.,0.,0.));
#1481=CARTESIAN_POINT('',(1.0842021724855E-18,0.0627697929739952,0.2032));
#1482=CARTESIAN_POINT('',(1.0842021724855E-18,0.0627697929739952,0.));
#1483=CARTESIAN_POINT('',(-0.00135420051287603,0.0627697929739952,0.));
#1484=CARTESIAN_POINT('',(0.00135420051287604,0.0627697929739952,0.));
#1485=CARTESIAN_POINT('',(-0.00135420051287603,0.0627697929739952,0.2032));
#1486=CARTESIAN_POINT('',(-0.00135420051287603,0.0627697929739952,0.2032));
#1487=CARTESIAN_POINT('',(1.0842021724855E-18,0.0627697929739952,0.2032));
#1488=CARTESIAN_POINT('',(0.00135420051287604,0.0627697929739952,0.2032));
#1489=CARTESIAN_POINT('',(0.00135420051287604,0.0627697929739952,0.2032));
#1490=CARTESIAN_POINT('',(5.52943107967607E-18,0.0663310063867137,0.2032));
#1491=CARTESIAN_POINT('',(5.52943107967607E-18,0.0663310063867137,0.));
#1492=CARTESIAN_POINT('',(-0.00254,0.0691708127181385,0.));
#1493=CARTESIAN_POINT('',(-0.00254,0.0691708127181385,0.2032));
#1494=CARTESIAN_POINT('',(-0.00254,0.0691708127181385,0.2032));
#1495=CARTESIAN_POINT('',(5.52943107967607E-18,0.0663310063867137,0.2032));
#1496=CARTESIAN_POINT('',(-0.00254,0.0710758127181385,0.2032));
#1497=CARTESIAN_POINT('',(-0.00254,0.0710758127181385,0.));
#1498=CARTESIAN_POINT('',(-0.00254,0.0729808127181385,0.));
#1499=CARTESIAN_POINT('',(-0.00254,0.0729808127181385,0.2032));
#1500=CARTESIAN_POINT('',(-0.00254,0.0729808127181385,0.2032));
#1501=CARTESIAN_POINT('',(-0.00254,0.0710758127181385,0.2032));
#1502=CARTESIAN_POINT('',(-0.0298311695608582,0.0618291013286085,0.2032));
#1503=CARTESIAN_POINT('',(-0.0298311695608582,0.0618291013286085,0.));
#1504=CARTESIAN_POINT('',(-0.0320246359774371,0.0656282966068193,0.));
#1505=CARTESIAN_POINT('',(-0.0276377031442793,0.0580299060503977,0.));
#1506=CARTESIAN_POINT('',(-0.0276377031442793,0.0580299060503977,0.2032));
#1507=CARTESIAN_POINT('',(-0.0276377031442793,0.0580299060503977,0.2032));
#1508=CARTESIAN_POINT('',(-0.0298311695608582,0.0618291013286085,0.2032));
#1509=CARTESIAN_POINT('',(-0.0320246359774371,0.0656282966068193,0.2032));
#1510=CARTESIAN_POINT('',(-0.0320246359774371,0.0656282966068193,0.2032));
#1511=CARTESIAN_POINT('',(-0.0320371121955043,0.0554899060503977,0.2032));
#1512=CARTESIAN_POINT('',(-0.0320371121955043,0.0554899060503977,0.));
#1513=CARTESIAN_POINT('',(-0.0364365212467292,0.0529499060503977,0.));
#1514=CARTESIAN_POINT('',(-0.0364365212467292,0.0529499060503977,0.2032));
#1515=CARTESIAN_POINT('',(-0.0364365212467292,0.0529499060503977,0.2032));
#1516=CARTESIAN_POINT('',(-0.0320371121955043,0.0554899060503977,0.2032));
#1517=CARTESIAN_POINT('',(-0.0386299876633081,0.0567491013286085,0.2032));
#1518=CARTESIAN_POINT('',(-0.0386299876633081,0.0567491013286085,0.));
#1519=CARTESIAN_POINT('',(-0.040823454079887,0.0605482966068192,0.));
#1520=CARTESIAN_POINT('',(-0.040823454079887,0.0605482966068192,0.2032));
#1521=CARTESIAN_POINT('',(-0.040823454079887,0.0605482966068192,0.2032));
#1522=CARTESIAN_POINT('',(-0.0386299876633081,0.0567491013286085,0.2032));
#1523=CARTESIAN_POINT('',(-0.060283459408533,0.0377376108846817,0.2032));
#1524=CARTESIAN_POINT('',(-0.060283459408533,0.0377376108846817,0.));
#1525=CARTESIAN_POINT('',(-0.0619332378027424,0.0386901108846817,0.));
#1526=CARTESIAN_POINT('',(-0.0586336810143237,0.0367851108846817,0.));
#1527=CARTESIAN_POINT('',(-0.0586336810143237,0.0367851108846817,0.2032));
#1528=CARTESIAN_POINT('',(-0.0586336810143237,0.0367851108846817,0.2032));
#1529=CARTESIAN_POINT('',(-0.060283459408533,0.0377376108846817,0.2032));
#1530=CARTESIAN_POINT('',(-0.0619332378027424,0.0386901108846817,0.2032));
#1531=CARTESIAN_POINT('',(-0.0619332378027424,0.0386901108846817,0.2032));
#1532=CARTESIAN_POINT('',(-0.0574443365894819,0.0331655031933569,0.2032));
#1533=CARTESIAN_POINT('',(-0.0574443365894819,0.0331655031933569,0.));
#1534=CARTESIAN_POINT('',(-0.0611736810143237,0.0323857018334568,0.));
#1535=CARTESIAN_POINT('',(-0.0611736810143237,0.0323857018334568,0.2032));
#1536=CARTESIAN_POINT('',(-0.0611736810143237,0.0323857018334568,0.2032));
#1537=CARTESIAN_POINT('',(-0.0574443365894819,0.0331655031933569,0.2032));
#1538=CARTESIAN_POINT('',(-0.062823459408533,0.0333382018334568,0.2032));
#1539=CARTESIAN_POINT('',(-0.062823459408533,0.0333382018334568,0.));
#1540=CARTESIAN_POINT('',(-0.0644732378027424,0.0342907018334567,0.));
#1541=CARTESIAN_POINT('',(-0.0644732378027424,0.0342907018334567,0.2032));
#1542=CARTESIAN_POINT('',(-0.0644732378027424,0.0342907018334567,0.2032));
#1543=CARTESIAN_POINT('',(-0.062823459408533,0.0333382018334568,0.2032));
#1544=CARTESIAN_POINT('',(-0.0684611572241662,0.00508,0.2032));
#1545=CARTESIAN_POINT('',(-0.0684611572241662,0.00508,0.));
#1546=CARTESIAN_POINT('',(-0.0728480900573241,0.00508,0.));
#1547=CARTESIAN_POINT('',(-0.0640742243910084,0.00508,0.));
#1548=CARTESIAN_POINT('',(-0.0640742243910084,0.00508,0.2032));
#1549=CARTESIAN_POINT('',(-0.0640742243910084,0.00508,0.2032));
#1550=CARTESIAN_POINT('',(-0.0684611572241662,0.00508,0.2032));
#1551=CARTESIAN_POINT('',(-0.0728480900573241,0.00508,0.2032));
#1552=CARTESIAN_POINT('',(-0.0728480900573241,0.00508,0.2032));
#1553=CARTESIAN_POINT('',(-0.0640742243910084,-3.46944695195361E-17,0.2032));
#1554=CARTESIAN_POINT('',(-0.0640742243910084,-3.46944695195361E-17,0.));
#1555=CARTESIAN_POINT('',(-0.0640742243910084,-0.00508,0.));
#1556=CARTESIAN_POINT('',(-0.0640742243910084,-0.00508,0.2032));
#1557=CARTESIAN_POINT('',(-0.0640742243910084,-0.00508,0.2032));
#1558=CARTESIAN_POINT('',(-0.0640742243910084,-3.46944695195361E-17,0.2032));
#1559=CARTESIAN_POINT('',(-0.0684611572241662,-0.00508,0.2032));
#1560=CARTESIAN_POINT('',(-0.0684611572241662,-0.00508,0.));
#1561=CARTESIAN_POINT('',(-0.0728480900573241,-0.00508,0.));
#1562=CARTESIAN_POINT('',(-0.0728480900573241,-0.00508,0.2032));
#1563=CARTESIAN_POINT('',(-0.0728480900573241,-0.00508,0.2032));
#1564=CARTESIAN_POINT('',(-0.0684611572241662,-0.00508,0.2032));
#1565=CARTESIAN_POINT('',(-0.062823459408533,-0.0333382018334568,0.2032));
#1566=CARTESIAN_POINT('',(-0.062823459408533,-0.0333382018334568,0.));
#1567=CARTESIAN_POINT('',(-0.0644732378027424,-0.0342907018334567,0.));
#1568=CARTESIAN_POINT('',(-0.0611736810143237,-0.0323857018334568,0.));
#1569=CARTESIAN_POINT('',(-0.0611736810143237,-0.0323857018334568,0.2032));
#1570=CARTESIAN_POINT('',(-0.0611736810143237,-0.0323857018334568,0.2032));
#1571=CARTESIAN_POINT('',(-0.062823459408533,-0.0333382018334568,0.2032));
#1572=CARTESIAN_POINT('',(-0.0644732378027424,-0.0342907018334567,0.2032));
#1573=CARTESIAN_POINT('',(-0.0644732378027424,-0.0342907018334567,0.2032));
#1574=CARTESIAN_POINT('',(-0.057444336589482,-0.0331655031933569,0.2032));
#1575=CARTESIAN_POINT('',(-0.057444336589482,-0.0331655031933569,0.));
#1576=CARTESIAN_POINT('',(-0.0586336810143237,-0.0367851108846817,0.));
#1577=CARTESIAN_POINT('',(-0.0586336810143237,-0.0367851108846817,0.2032));
#1578=CARTESIAN_POINT('',(-0.0586336810143237,-0.0367851108846817,0.2032));
#1579=CARTESIAN_POINT('',(-0.057444336589482,-0.0331655031933569,0.2032));
#1580=CARTESIAN_POINT('',(-0.060283459408533,-0.0377376108846817,0.2032));
#1581=CARTESIAN_POINT('',(-0.060283459408533,-0.0377376108846817,0.));
#1582=CARTESIAN_POINT('',(-0.0619332378027424,-0.0386901108846817,0.));
#1583=CARTESIAN_POINT('',(-0.0619332378027424,-0.0386901108846817,0.2032));
#1584=CARTESIAN_POINT('',(-0.0619332378027424,-0.0386901108846817,0.2032));
#1585=CARTESIAN_POINT('',(-0.060283459408533,-0.0377376108846817,0.2032));
#1586=CARTESIAN_POINT('',(-0.0386299876633081,-0.0567491013286085,0.2032));
#1587=CARTESIAN_POINT('',(-0.0386299876633081,-0.0567491013286085,0.));
#1588=CARTESIAN_POINT('',(-0.040823454079887,-0.0605482966068193,0.));
#1589=CARTESIAN_POINT('',(-0.0364365212467291,-0.0529499060503977,0.));
#1590=CARTESIAN_POINT('',(-0.0364365212467291,-0.0529499060503977,0.2032));
#1591=CARTESIAN_POINT('',(-0.0364365212467291,-0.0529499060503977,0.2032));
#1592=CARTESIAN_POINT('',(-0.0386299876633081,-0.0567491013286085,0.2032));
#1593=CARTESIAN_POINT('',(-0.040823454079887,-0.0605482966068193,0.2032));
#1594=CARTESIAN_POINT('',(-0.040823454079887,-0.0605482966068193,0.2032));
#1595=CARTESIAN_POINT('',(-0.0320371121955042,-0.0554899060503978,0.2032));
#1596=CARTESIAN_POINT('',(-0.0320371121955042,-0.0554899060503978,0.));
#1597=CARTESIAN_POINT('',(-0.0276377031442792,-0.0580299060503978,0.));
#1598=CARTESIAN_POINT('',(-0.0276377031442792,-0.0580299060503978,0.2032));
#1599=CARTESIAN_POINT('',(-0.0276377031442792,-0.0580299060503978,0.2032));
#1600=CARTESIAN_POINT('',(-0.0320371121955042,-0.0554899060503978,0.2032));
#1601=CARTESIAN_POINT('',(-0.0298311695608581,-0.0618291013286085,0.2032));
#1602=CARTESIAN_POINT('',(-0.0298311695608581,-0.0618291013286085,0.));
#1603=CARTESIAN_POINT('',(-0.0320246359774371,-0.0656282966068193,0.));
#1604=CARTESIAN_POINT('',(-0.0320246359774371,-0.0656282966068193,0.2032));
#1605=CARTESIAN_POINT('',(-0.0320246359774371,-0.0656282966068193,0.2032));
#1606=CARTESIAN_POINT('',(-0.0298311695608581,-0.0618291013286085,0.2032));
#1607=CARTESIAN_POINT('',(-0.00254,-0.0710758127181385,0.2032));
#1608=CARTESIAN_POINT('',(-0.00254,-0.0710758127181385,0.));
#1609=CARTESIAN_POINT('',(-0.00254,-0.0729808127181385,0.));
#1610=CARTESIAN_POINT('',(-0.00254,-0.0691708127181385,0.));
#1611=CARTESIAN_POINT('',(-0.00254,-0.0691708127181385,0.2032));
#1612=CARTESIAN_POINT('',(-0.00254,-0.0691708127181385,0.2032));
#1613=CARTESIAN_POINT('',(-0.00254,-0.0710758127181385,0.2032));
#1614=CARTESIAN_POINT('',(-0.00254,-0.0729808127181385,0.2032));
#1615=CARTESIAN_POINT('',(-0.00254,-0.0729808127181385,0.2032));
#1616=CARTESIAN_POINT('',(-9.15735294346745E-18,-0.0663310063867137,0.2032));
#1617=CARTESIAN_POINT('',(-9.15735294346745E-18,-0.0663310063867137,0.));
#1618=CARTESIAN_POINT('',(0.00254,-0.0691708127181385,0.));
#1619=CARTESIAN_POINT('',(0.00254,-0.0691708127181385,0.2032));
#1620=CARTESIAN_POINT('',(0.00254,-0.0691708127181385,0.2032));
#1621=CARTESIAN_POINT('',(-9.15735294346745E-18,-0.0663310063867137,0.2032));
#1622=CARTESIAN_POINT('',(0.00254,-0.0710758127181385,0.2032));
#1623=CARTESIAN_POINT('',(0.00254,-0.0710758127181385,0.));
#1624=CARTESIAN_POINT('',(0.00254,-0.0729808127181385,0.));
#1625=CARTESIAN_POINT('',(0.00254,-0.0729808127181385,0.2032));
#1626=CARTESIAN_POINT('',(0.00254,-0.0729808127181385,0.2032));
#1627=CARTESIAN_POINT('',(0.00254,-0.0710758127181385,0.2032));
#1628=CARTESIAN_POINT('',(0.0298311695608582,-0.0618291013286085,0.2032));
#1629=CARTESIAN_POINT('',(0.0298311695608582,-0.0618291013286085,0.));
#1630=CARTESIAN_POINT('',(0.0320246359774371,-0.0656282966068193,0.));
#1631=CARTESIAN_POINT('',(0.0276377031442793,-0.0580299060503977,0.));
#1632=CARTESIAN_POINT('',(0.0276377031442793,-0.0580299060503977,0.2032));
#1633=CARTESIAN_POINT('',(0.0276377031442793,-0.0580299060503977,0.2032));
#1634=CARTESIAN_POINT('',(0.0298311695608582,-0.0618291013286085,0.2032));
#1635=CARTESIAN_POINT('',(0.0320246359774371,-0.0656282966068193,0.2032));
#1636=CARTESIAN_POINT('',(0.0320246359774371,-0.0656282966068193,0.2032));
#1637=CARTESIAN_POINT('',(0.0320371121955043,-0.0554899060503977,0.2032));
#1638=CARTESIAN_POINT('',(0.0320371121955043,-0.0554899060503977,0.));
#1639=CARTESIAN_POINT('',(0.0364365212467292,-0.0529499060503977,0.));
#1640=CARTESIAN_POINT('',(0.0364365212467292,-0.0529499060503977,0.2032));
#1641=CARTESIAN_POINT('',(0.0364365212467292,-0.0529499060503977,0.2032));
#1642=CARTESIAN_POINT('',(0.0320371121955043,-0.0554899060503977,0.2032));
#1643=CARTESIAN_POINT('',(0.0386299876633081,-0.0567491013286085,0.2032));
#1644=CARTESIAN_POINT('',(0.0386299876633081,-0.0567491013286085,0.));
#1645=CARTESIAN_POINT('',(0.040823454079887,-0.0605482966068192,0.));
#1646=CARTESIAN_POINT('',(0.040823454079887,-0.0605482966068192,0.2032));
#1647=CARTESIAN_POINT('',(0.040823454079887,-0.0605482966068192,0.2032));
#1648=CARTESIAN_POINT('',(0.0386299876633081,-0.0567491013286085,0.2032));
#1649=CARTESIAN_POINT('',(0.060283459408533,-0.0377376108846817,0.2032));
#1650=CARTESIAN_POINT('',(0.060283459408533,-0.0377376108846817,0.));
#1651=CARTESIAN_POINT('',(0.0619332378027423,-0.0386901108846817,0.));
#1652=CARTESIAN_POINT('',(0.0586336810143236,-0.0367851108846817,0.));
#1653=CARTESIAN_POINT('',(0.0586336810143236,-0.0367851108846817,0.2032));
#1654=CARTESIAN_POINT('',(0.0586336810143236,-0.0367851108846817,0.2032));
#1655=CARTESIAN_POINT('',(0.060283459408533,-0.0377376108846817,0.2032));
#1656=CARTESIAN_POINT('',(0.0619332378027423,-0.0386901108846817,0.2032));
#1657=CARTESIAN_POINT('',(0.0619332378027423,-0.0386901108846817,0.2032));
#1658=CARTESIAN_POINT('',(0.0574443365894819,-0.0331655031933569,0.2032));
#1659=CARTESIAN_POINT('',(0.0574443365894819,-0.0331655031933569,0.));
#1660=CARTESIAN_POINT('',(0.0611736810143237,-0.0323857018334568,0.));
#1661=CARTESIAN_POINT('',(0.0611736810143237,-0.0323857018334568,0.2032));
#1662=CARTESIAN_POINT('',(0.0611736810143237,-0.0323857018334568,0.2032));
#1663=CARTESIAN_POINT('',(0.0574443365894819,-0.0331655031933569,0.2032));
#1664=CARTESIAN_POINT('',(0.062823459408533,-0.0333382018334568,0.2032));
#1665=CARTESIAN_POINT('',(0.062823459408533,-0.0333382018334568,0.));
#1666=CARTESIAN_POINT('',(0.0644732378027424,-0.0342907018334568,0.));
#1667=CARTESIAN_POINT('',(0.0644732378027424,-0.0342907018334568,0.2032));
#1668=CARTESIAN_POINT('',(0.0644732378027424,-0.0342907018334568,0.2032));
#1669=CARTESIAN_POINT('',(0.062823459408533,-0.0333382018334568,0.2032));
#1670=CARTESIAN_POINT('',(0.0684611572241662,-0.00508,0.2032));
#1671=CARTESIAN_POINT('',(0.0684611572241662,-0.00508,0.));
#1672=CARTESIAN_POINT('',(0.0728480900573241,-0.00508,0.));
#1673=CARTESIAN_POINT('',(0.0640742243910084,-0.00508,0.));
#1674=CARTESIAN_POINT('',(0.0640742243910084,-0.00508,0.2032));
#1675=CARTESIAN_POINT('',(0.0640742243910084,-0.00508,0.2032));
#1676=CARTESIAN_POINT('',(0.0684611572241662,-0.00508,0.2032));
#1677=CARTESIAN_POINT('',(0.0728480900573241,-0.00508,0.2032));
#1678=CARTESIAN_POINT('',(0.0728480900573241,-0.00508,0.2032));
#1679=CARTESIAN_POINT('',(0.0640742243910084,6.93889390390723E-18,0.2032));
#1680=CARTESIAN_POINT('',(0.0640742243910084,6.93889390390723E-18,0.));
#1681=CARTESIAN_POINT('',(0.0640742243910084,0.00508,0.));
#1682=CARTESIAN_POINT('',(0.0640742243910084,0.00508,0.2032));
#1683=CARTESIAN_POINT('',(0.0640742243910084,0.00508,0.2032));
#1684=CARTESIAN_POINT('',(0.0640742243910084,6.93889390390723E-18,0.2032));
#1685=CARTESIAN_POINT('',(0.0684611572241662,0.00508,0.2032));
#1686=CARTESIAN_POINT('',(0.0684611572241662,0.00508,0.));
#1687=CARTESIAN_POINT('',(0.0728480900573241,0.00508,0.));
#1688=CARTESIAN_POINT('',(0.0728480900573241,0.00508,0.2032));
#1689=CARTESIAN_POINT('',(0.0728480900573241,0.00508,0.2032));
#1690=CARTESIAN_POINT('',(0.0684611572241662,0.00508,0.2032));
#1691=CARTESIAN_POINT('',(0.062823459408533,0.0333382018334568,0.2032));
#1692=CARTESIAN_POINT('',(0.062823459408533,0.0333382018334568,0.));
#1693=CARTESIAN_POINT('',(0.0644732378027424,0.0342907018334567,0.));
#1694=CARTESIAN_POINT('',(0.0611736810143236,0.0323857018334568,0.));
#1695=CARTESIAN_POINT('',(0.0611736810143236,0.0323857018334568,0.2032));
#1696=CARTESIAN_POINT('',(0.0611736810143236,0.0323857018334568,0.2032));
#1697=CARTESIAN_POINT('',(0.062823459408533,0.0333382018334568,0.2032));
#1698=CARTESIAN_POINT('',(0.0644732378027424,0.0342907018334567,0.2032));
#1699=CARTESIAN_POINT('',(0.0644732378027424,0.0342907018334567,0.2032));
#1700=CARTESIAN_POINT('',(0.0574443365894819,0.0331655031933569,0.2032));
#1701=CARTESIAN_POINT('',(0.0574443365894819,0.0331655031933569,0.));
#1702=CARTESIAN_POINT('',(0.0586336810143236,0.0367851108846817,0.));
#1703=CARTESIAN_POINT('',(0.0586336810143236,0.0367851108846817,0.2032));
#1704=CARTESIAN_POINT('',(0.0586336810143236,0.0367851108846817,0.2032));
#1705=CARTESIAN_POINT('',(0.0574443365894819,0.0331655031933569,0.2032));
#1706=CARTESIAN_POINT('',(0.060283459408533,0.0377376108846817,0.2032));
#1707=CARTESIAN_POINT('',(0.060283459408533,0.0377376108846817,0.));
#1708=CARTESIAN_POINT('',(0.0619332378027424,0.0386901108846817,0.));
#1709=CARTESIAN_POINT('',(0.0619332378027424,0.0386901108846817,0.2032));
#1710=CARTESIAN_POINT('',(0.0619332378027424,0.0386901108846817,0.2032));
#1711=CARTESIAN_POINT('',(0.060283459408533,0.0377376108846817,0.2032));
#1712=CARTESIAN_POINT('',(0.0386299876633081,0.0567491013286085,0.2032));
#1713=CARTESIAN_POINT('',(0.0386299876633081,0.0567491013286085,0.));
#1714=CARTESIAN_POINT('',(0.040823454079887,0.0605482966068193,0.));
#1715=CARTESIAN_POINT('',(0.0364365212467291,0.0529499060503978,0.));
#1716=CARTESIAN_POINT('',(0.0364365212467291,0.0529499060503978,0.2032));
#1717=CARTESIAN_POINT('',(0.0364365212467291,0.0529499060503978,0.2032));
#1718=CARTESIAN_POINT('',(0.0386299876633081,0.0567491013286085,0.2032));
#1719=CARTESIAN_POINT('',(0.040823454079887,0.0605482966068193,0.2032));
#1720=CARTESIAN_POINT('',(0.040823454079887,0.0605482966068193,0.2032));
#1721=CARTESIAN_POINT('',(0.0320371121955041,0.0554899060503978,0.2032));
#1722=CARTESIAN_POINT('',(0.0320371121955041,0.0554899060503978,0.));
#1723=CARTESIAN_POINT('',(0.0276377031442792,0.0580299060503978,0.));
#1724=CARTESIAN_POINT('',(0.0276377031442792,0.0580299060503978,0.2032));
#1725=CARTESIAN_POINT('',(0.0276377031442792,0.0580299060503978,0.2032));
#1726=CARTESIAN_POINT('',(0.0320371121955041,0.0554899060503978,0.2032));
#1727=CARTESIAN_POINT('',(0.0298311695608581,0.0618291013286085,0.2032));
#1728=CARTESIAN_POINT('',(0.0298311695608581,0.0618291013286085,0.));
#1729=CARTESIAN_POINT('',(0.0320246359774371,0.0656282966068193,0.));
#1730=CARTESIAN_POINT('',(0.0320246359774371,0.0656282966068193,0.2032));
#1731=CARTESIAN_POINT('',(0.0320246359774371,0.0656282966068193,0.2032));
#1732=CARTESIAN_POINT('',(0.0298311695608581,0.0618291013286085,0.2032));
#1733=CARTESIAN_POINT('',(-6.85215773010839E-17,-1.80411241501588E-16,0.2032));
#1734=CARTESIAN_POINT('',(0.,-4.47149162538678E-18,0.));
#1735=CARTESIAN_POINT('',(6.93889390390723E-17,5.55111512312578E-17,0.2032));
#1736=CARTESIAN_POINT('',(0.,-4.47149162538678E-18,0.));
#1737=CARTESIAN_POINT('',(4.16333634234433E-17,3.72965547335013E-17,0.2032));
#1738=CARTESIAN_POINT('',(0.,-4.47149162538678E-18,0.));
#1739=CARTESIAN_POINT('',(1.66533453693773E-16,-6.20163642661709E-17,0.2032));
#1740=CARTESIAN_POINT('',(0.,-4.47149162538678E-18,0.));
#1741=CARTESIAN_POINT('',(-8.67361737988404E-17,5.89805981832114E-17,0.2032));
#1742=CARTESIAN_POINT('',(0.,-4.47149162538678E-18,0.));
#1743=CARTESIAN_POINT('',(1.2338220722885E-16,-2.42861286636753E-16,0.2032));
#1744=CARTESIAN_POINT('',(0.,-4.47149162538678E-18,0.));
#1745=CARTESIAN_POINT('',(8.00141203294302E-17,1.52655665885959E-16,0.2032));
#1746=CARTESIAN_POINT('',(0.,-4.47149162538678E-18,0.));
#1747=CARTESIAN_POINT('',(-1.7347234759768E-17,0.,0.2032));
#1748=CARTESIAN_POINT('',(0.,-4.47149162538678E-18,0.));
#1749=CARTESIAN_POINT('',(-1.17961196366423E-16,-5.63785129692462E-17,0.2032));
#1750=CARTESIAN_POINT('',(0.,-4.47149162538678E-18,0.));
#1751=CARTESIAN_POINT('',(0.,2.03830008427275E-17,0.2032));
#1752=CARTESIAN_POINT('',(0.,-4.47149162538678E-18,0.));
#1753=CARTESIAN_POINT('',(1.14491749414469E-16,-1.07552855510562E-16,0.2032));
#1754=CARTESIAN_POINT('',(0.,-4.47149162538678E-18,0.));
#1755=CARTESIAN_POINT('',(-1.3010426069826E-16,2.42861286636753E-16,0.2032));
#1756=CARTESIAN_POINT('',(0.,-4.47149162538678E-18,0.));
#1757=CARTESIAN_POINT('',(0.00254,0.0729808127181385,0.));
#1758=CARTESIAN_POINT('',(0.00254,0.0729808127181385,0.2032));
#1759=CARTESIAN_POINT('',(0.00254,0.0729808127181385,0.2032));
#1760=CARTESIAN_POINT('',(-6.85215773010839E-17,-1.80411241501588E-16,0.2032));
#1761=CARTESIAN_POINT('',(0.,-4.47149162538678E-18,-0.0762));
#1762=CARTESIAN_POINT('',(-0.073025,-4.47149162538678E-18,-0.0762));
#1763=CARTESIAN_POINT('',(0.00254,0.0710758127181385,0.2032));
#1764=CARTESIAN_POINT('',(0.00254,0.0710758127181385,0.));
#1765=CARTESIAN_POINT('',(0.00254,0.0691708127181385,0.));
#1766=CARTESIAN_POINT('',(0.00254,0.0691708127181385,0.2032));
#1767=CARTESIAN_POINT('',(0.00254,0.0691708127181385,0.2032));
#1768=CARTESIAN_POINT('',(0.00254,0.0710758127181385,0.2032));
#1769=CARTESIAN_POINT('',(-4.44522890719057E-18,0.0663310063867137,0.2032));
#1770=CARTESIAN_POINT('',(-4.44522890719057E-18,0.0663310063867137,0.));
#1771=CARTESIAN_POINT('',(-4.44522890719057E-18,0.0663310063867137,0.2032));
#1772=CARTESIAN_POINT('',(4.20670442924376E-17,5.89805981832114E-17,0.2032));
#1773=CARTESIAN_POINT('',(4.20670442924376E-17,5.89805981832114E-17,0.2032));
#1774=CARTESIAN_POINT('',(0.057785,5.89805981832114E-17,0.2032));
#1775=CARTESIAN_POINT('',(4.20670442924376E-17,5.89805981832114E-17,0.));
#1776=CARTESIAN_POINT('',(0.057785,5.89805981832114E-17,0.));
#1777=CARTESIAN_POINT('',(0.,0.00144224689243992,0.2032));
#1778=CARTESIAN_POINT('',(0.,0.,0.));
#1779=CARTESIAN_POINT('',(0.,0.,0.));
#1780=CARTESIAN_POINT('',(0.,0.,0.));
#1781=CARTESIAN_POINT('',(0.,0.,0.));
#1782=CARTESIAN_POINT('',(0.,0.,0.));
#1783=CARTESIAN_POINT('',(0.,0.,0.));
#1784=CARTESIAN_POINT('',(0.,0.,0.));
#1785=CARTESIAN_POINT('',(0.,0.,0.));
#1786=CARTESIAN_POINT('',(0.,0.,0.));
#1787=CARTESIAN_POINT('',(0.,0.,0.));
#1788=CARTESIAN_POINT('',(0.,0.,0.));
#1789=CARTESIAN_POINT('',(0.,0.,0.));
#1790=CARTESIAN_POINT('',(0.,0.,-0.0762));
#1791=CARTESIAN_POINT('',(0.,0.,0.));
#1792=MECHANICAL_DESIGN_GEOMETRIC_PRESENTATION_REPRESENTATION('',(#1066),
#1793);
#1793=(
GEOMETRIC_REPRESENTATION_CONTEXT(3)
GLOBAL_UNCERTAINTY_ASSIGNED_CONTEXT((#1794))
GLOBAL_UNIT_ASSIGNED_CONTEXT((#1797,#1796,#1795))
REPRESENTATION_CONTEXT('Chassis','TOP_LEVEL_ASSEMBLY_PART')
);
#1794=UNCERTAINTY_MEASURE_WITH_UNIT(LENGTH_MEASURE(1.E-8),#1797,
'DISTANCE_ACCURACY_VALUE','Maximum Tolerance applied to model');
#1795=(
NAMED_UNIT(*)
SI_UNIT($,.STERADIAN.)
SOLID_ANGLE_UNIT()
);
#1796=(
NAMED_UNIT(*)
PLANE_ANGLE_UNIT()
SI_UNIT($,.RADIAN.)
);
#1797=(
LENGTH_UNIT()
NAMED_UNIT(*)
SI_UNIT($,.METRE.)
);
#1798=PRODUCT_DEFINITION_SHAPE('','',#1799);
#1799=PRODUCT_DEFINITION('','',#1801,#1800);
#1800=PRODUCT_DEFINITION_CONTEXT('',#1807,'design');
#1801=PRODUCT_DEFINITION_FORMATION_WITH_SPECIFIED_SOURCE('','',#1803,
 .NOT_KNOWN.);
#1802=PRODUCT_RELATED_PRODUCT_CATEGORY('','',(#1803));
#1803=PRODUCT('Chassis','Chassis','Chassis',(#1805));
#1804=PRODUCT_CATEGORY('','');
#1805=PRODUCT_CONTEXT('',#1807,'mechanical');
#1806=APPLICATION_PROTOCOL_DEFINITION('international standard',
'ap242_managed_model_based_3d_engineering',2020,#1807);
#1807=APPLICATION_CONTEXT('managed model based 3d engineering');
ENDSEC;
END-ISO-10303-21;
