ISO-10303-21;
HEADER;
/* Generated by software containing ST-Developer
 * from STEP Tools, Inc. (www.steptools.com) 
 */
/* OPTION: using custom renumber hook */

FILE_DESCRIPTION(
/* description */ ('STEP AP242 Edition 2',
'CAx-IF Rec.Pracs.---Representation and Presentation of Product Manufa
cturing Information (PMI)---4.0---2014-10-13',
'CAx-IF Rec.Pracs.---3D Tessellated Geometry---0.4---2014-09-14','2;1',
'CAx-IF Rec.Pracs.---User Defined Attributes---1.5---2016-08-15'),
/* implementation_level */ '2;1');

FILE_NAME(
/* name */ 'Floatation Copy 1 - Part 1',
/* time_stamp */ '2026-08-15T18:25:55Z',
/* author */ (''),
/* organization */ (''),
/* preprocessor_version */ 'ST-DEVELOPER v20',
/* originating_system */ 'ONSHAPE BY PTC INC, 1.219',
/* authorisation */ '  ');

FILE_SCHEMA (('AP242_MANAGED_MODEL_BASED_3D_ENGINEERING_MIM_LF { 1 0 10303 442 3 1 4 }'));
ENDSEC;

DATA;
#10=SHAPE_REPRESENTATION_RELATIONSHIP('','',#703,#11);
#11=ADVANCED_BREP_SHAPE_REPRESENTATION('',(#701),#1587);
#12=TOROIDAL_SURFACE('',#744,0.0552398231086698,0.0127);
#13=TOROIDAL_SURFACE('',#759,0.3302,0.0508);
#14=TOROIDAL_SURFACE('',#763,0.3683,0.0127);
#15=CYLINDRICAL_SURFACE('',#720,0.0508);
#16=CYLINDRICAL_SURFACE('',#725,0.0508);
#17=CYLINDRICAL_SURFACE('',#730,0.0508);
#18=CYLINDRICAL_SURFACE('',#735,0.0508);
#19=CYLINDRICAL_SURFACE('',#741,0.041275);
#20=CYLINDRICAL_SURFACE('',#752,0.075565);
#21=CYLINDRICAL_SURFACE('',#761,0.381);
#22=B_SPLINE_CURVE_WITH_KNOTS('',3,(#1060,#1061,#1062,#1063),
 .UNSPECIFIED.,.F.,.F.,(4,4),(0.,0.0019075333359769),.UNSPECIFIED.);
#23=B_SPLINE_CURVE_WITH_KNOTS('',3,(#1072,#1073,#1074,#1075),
 .UNSPECIFIED.,.F.,.F.,(4,4),(0.,0.0019075333359769),.UNSPECIFIED.);
#24=B_SPLINE_CURVE_WITH_KNOTS('',3,(#1081,#1082,#1083,#1084),
 .UNSPECIFIED.,.F.,.F.,(4,4),(0.,0.00635),.UNSPECIFIED.);
#25=B_SPLINE_CURVE_WITH_KNOTS('',3,(#1090,#1091,#1092,#1093),
 .UNSPECIFIED.,.F.,.F.,(4,4),(0.,0.0019075333359769),.UNSPECIFIED.);
#26=B_SPLINE_CURVE_WITH_KNOTS('',3,(#1102,#1103,#1104,#1105),
 .UNSPECIFIED.,.F.,.F.,(4,4),(0.,0.0019075333359769),.UNSPECIFIED.);
#27=B_SPLINE_CURVE_WITH_KNOTS('',3,(#1111,#1112,#1113,#1114),
 .UNSPECIFIED.,.F.,.F.,(4,4),(0.,0.00635),.UNSPECIFIED.);
#28=B_SPLINE_CURVE_WITH_KNOTS('',3,(#1120,#1121,#1122,#1123),
 .UNSPECIFIED.,.F.,.F.,(4,4),(0.,0.0019075333359769),.UNSPECIFIED.);
#29=B_SPLINE_CURVE_WITH_KNOTS('',3,(#1132,#1133,#1134,#1135),
 .UNSPECIFIED.,.F.,.F.,(4,4),(0.,0.0019075333359769),.UNSPECIFIED.);
#30=B_SPLINE_CURVE_WITH_KNOTS('',3,(#1141,#1142,#1143,#1144),
 .UNSPECIFIED.,.F.,.F.,(4,4),(0.,0.00635),.UNSPECIFIED.);
#31=B_SPLINE_CURVE_WITH_KNOTS('',3,(#1150,#1151,#1152,#1153),
 .UNSPECIFIED.,.F.,.F.,(4,4),(0.,0.0019075333359769),.UNSPECIFIED.);
#32=B_SPLINE_CURVE_WITH_KNOTS('',3,(#1162,#1163,#1164,#1165),
 .UNSPECIFIED.,.F.,.F.,(4,4),(0.,0.0019075333359769),.UNSPECIFIED.);
#33=B_SPLINE_CURVE_WITH_KNOTS('',3,(#1171,#1172,#1173,#1174),
 .UNSPECIFIED.,.F.,.F.,(4,4),(0.,0.00635),.UNSPECIFIED.);
#34=B_SPLINE_CURVE_WITH_KNOTS('',3,(#1185,#1186,#1187,#1188,#1189,#1190,
#1191,#1192),.UNSPECIFIED.,.F.,.F.,(4,1,1,1,1,4),(0.,0.0174281382298409,
0.0348562764596819,0.0435703455746023,0.0522844146895228,0.0697125529193637),
 .UNSPECIFIED.);
#35=B_SPLINE_CURVE_WITH_KNOTS('',3,(#1201,#1202,#1203,#1204,#1205,#1206,
#1207,#1208),.UNSPECIFIED.,.F.,.F.,(4,1,1,1,1,4),(4.85722573273506E-17,
0.017428138229841,0.0348562764596819,0.0435703455746023,0.0522844146895228,
0.0697125529193637),.UNSPECIFIED.);
#36=B_SPLINE_CURVE_WITH_KNOTS('',3,(#1214,#1215,#1216,#1217,#1218,#1219,
#1220,#1221),.UNSPECIFIED.,.F.,.F.,(4,1,1,1,1,4),(0.,0.0174281382298409,
0.0348562764596819,0.0435703455746023,0.0522844146895228,0.0697125529193637),
 .UNSPECIFIED.);
#37=B_SPLINE_CURVE_WITH_KNOTS('',3,(#1227,#1228,#1229,#1230,#1231,#1232,
#1233,#1234),.UNSPECIFIED.,.F.,.F.,(4,1,1,1,1,4),(4.85722573273506E-17,
0.017428138229841,0.0348562764596819,0.0435703455746023,0.0522844146895228,
0.0697125529193637),.UNSPECIFIED.);
#38=B_SPLINE_CURVE_WITH_KNOTS('',3,(#1240,#1241,#1242,#1243,#1244,#1245,
#1246,#1247),.UNSPECIFIED.,.F.,.F.,(4,1,1,1,1,4),(0.,0.0174281382298409,
0.0348562764596819,0.0435703455746023,0.0522844146895228,0.0697125529193637),
 .UNSPECIFIED.);
#39=B_SPLINE_CURVE_WITH_KNOTS('',3,(#1253,#1254,#1255,#1256,#1257,#1258,
#1259,#1260),.UNSPECIFIED.,.F.,.F.,(4,1,1,1,1,4),(0.,0.0174281382298409,
0.0348562764596819,0.0435703455746023,0.0522844146895228,0.0697125529193637),
 .UNSPECIFIED.);
#40=B_SPLINE_CURVE_WITH_KNOTS('',3,(#1266,#1267,#1268,#1269,#1270,#1271,
#1272,#1273),.UNSPECIFIED.,.F.,.F.,(4,1,1,1,1,4),(0.,0.0174281382298409,
0.0348562764596819,0.0435703455746023,0.0522844146895228,0.0697125529193637),
 .UNSPECIFIED.);
#41=B_SPLINE_CURVE_WITH_KNOTS('',3,(#1282,#1283,#1284,#1285,#1286,#1287,
#1288,#1289),.UNSPECIFIED.,.F.,.F.,(4,1,1,1,1,4),(0.,0.0174281382298409,
0.0348562764596819,0.0435703455746023,0.0522844146895228,0.0697125529193637),
 .UNSPECIFIED.);
#42=LINE('',#1021,#94);
#43=LINE('',#1026,#95);
#44=LINE('',#1030,#96);
#45=LINE('',#1035,#97);
#46=LINE('',#1039,#98);
#47=LINE('',#1044,#99);
#48=LINE('',#1048,#100);
#49=LINE('',#1053,#101);
#50=LINE('',#1057,#102);
#51=LINE('',#1064,#103);
#52=LINE('',#1066,#104);
#53=LINE('',#1068,#105);
#54=LINE('',#1077,#106);
#55=LINE('',#1079,#107);
#56=LINE('',#1086,#108);
#57=LINE('',#1088,#109);
#58=LINE('',#1094,#110);
#59=LINE('',#1096,#111);
#60=LINE('',#1098,#112);
#61=LINE('',#1107,#113);
#62=LINE('',#1109,#114);
#63=LINE('',#1116,#115);
#64=LINE('',#1118,#116);
#65=LINE('',#1124,#117);
#66=LINE('',#1126,#118);
#67=LINE('',#1128,#119);
#68=LINE('',#1137,#120);
#69=LINE('',#1139,#121);
#70=LINE('',#1146,#122);
#71=LINE('',#1148,#123);
#72=LINE('',#1154,#124);
#73=LINE('',#1156,#125);
#74=LINE('',#1158,#126);
#75=LINE('',#1167,#127);
#76=LINE('',#1169,#128);
#77=LINE('',#1175,#129);
#78=LINE('',#1195,#130);
#79=LINE('',#1197,#131);
#80=LINE('',#1199,#132);
#81=LINE('',#1210,#133);
#82=LINE('',#1212,#134);
#83=LINE('',#1223,#135);
#84=LINE('',#1225,#136);
#85=LINE('',#1236,#137);
#86=LINE('',#1238,#138);
#87=LINE('',#1249,#139);
#88=LINE('',#1251,#140);
#89=LINE('',#1262,#141);
#90=LINE('',#1264,#142);
#91=LINE('',#1275,#143);
#92=LINE('',#1277,#144);
#93=LINE('',#1290,#145);
#94=VECTOR('',#773,1.);
#95=VECTOR('',#776,1.);
#96=VECTOR('',#781,1.);
#97=VECTOR('',#784,1.);
#98=VECTOR('',#789,1.);
#99=VECTOR('',#792,1.);
#100=VECTOR('',#797,1.);
#101=VECTOR('',#800,1.);
#102=VECTOR('',#805,1.);
#103=VECTOR('',#806,1.);
#104=VECTOR('',#807,1.);
#105=VECTOR('',#810,1.);
#106=VECTOR('',#815,1.);
#107=VECTOR('',#816,1.);
#108=VECTOR('',#819,1.);
#109=VECTOR('',#820,1.);
#110=VECTOR('',#823,1.);
#111=VECTOR('',#824,1.);
#112=VECTOR('',#827,1.);
#113=VECTOR('',#832,1.);
#114=VECTOR('',#833,1.);
#115=VECTOR('',#836,1.);
#116=VECTOR('',#837,1.);
#117=VECTOR('',#840,1.);
#118=VECTOR('',#841,1.);
#119=VECTOR('',#844,1.);
#120=VECTOR('',#849,1.);
#121=VECTOR('',#850,1.);
#122=VECTOR('',#853,1.);
#123=VECTOR('',#854,1.);
#124=VECTOR('',#857,1.);
#125=VECTOR('',#858,1.);
#126=VECTOR('',#861,1.);
#127=VECTOR('',#866,1.);
#128=VECTOR('',#867,1.);
#129=VECTOR('',#870,1.);
#130=VECTOR('',#885,1.);
#131=VECTOR('',#886,1.);
#132=VECTOR('',#887,1.);
#133=VECTOR('',#890,1.);
#134=VECTOR('',#891,1.);
#135=VECTOR('',#894,1.);
#136=VECTOR('',#895,1.);
#137=VECTOR('',#898,1.);
#138=VECTOR('',#899,1.);
#139=VECTOR('',#902,1.);
#140=VECTOR('',#903,1.);
#141=VECTOR('',#906,1.);
#142=VECTOR('',#907,1.);
#143=VECTOR('',#910,1.);
#144=VECTOR('',#911,1.);
#145=VECTOR('',#918,1.);
#146=PLANE('',#707);
#147=PLANE('',#710);
#148=PLANE('',#713);
#149=PLANE('',#716);
#150=PLANE('',#719);
#151=PLANE('',#722);
#152=PLANE('',#723);
#153=PLANE('',#724);
#154=PLANE('',#727);
#155=PLANE('',#728);
#156=PLANE('',#729);
#157=PLANE('',#732);
#158=PLANE('',#733);
#159=PLANE('',#734);
#160=PLANE('',#737);
#161=PLANE('',#738);
#162=PLANE('',#739);
#163=PLANE('',#743);
#164=PLANE('',#745);
#165=PLANE('',#746);
#166=PLANE('',#747);
#167=PLANE('',#748);
#168=PLANE('',#749);
#169=PLANE('',#750);
#170=PLANE('',#751);
#171=PLANE('',#754);
#172=PLANE('',#755);
#173=PLANE('',#756);
#174=ORIENTED_EDGE('',*,*,#362,.T.);
#175=ORIENTED_EDGE('',*,*,#363,.T.);
#176=ORIENTED_EDGE('',*,*,#364,.T.);
#177=ORIENTED_EDGE('',*,*,#365,.T.);
#178=ORIENTED_EDGE('',*,*,#366,.F.);
#179=ORIENTED_EDGE('',*,*,#367,.F.);
#180=ORIENTED_EDGE('',*,*,#368,.T.);
#181=ORIENTED_EDGE('',*,*,#369,.T.);
#182=ORIENTED_EDGE('',*,*,#370,.F.);
#183=ORIENTED_EDGE('',*,*,#371,.F.);
#184=ORIENTED_EDGE('',*,*,#372,.T.);
#185=ORIENTED_EDGE('',*,*,#373,.T.);
#186=ORIENTED_EDGE('',*,*,#374,.F.);
#187=ORIENTED_EDGE('',*,*,#375,.F.);
#188=ORIENTED_EDGE('',*,*,#376,.T.);
#189=ORIENTED_EDGE('',*,*,#377,.T.);
#190=ORIENTED_EDGE('',*,*,#378,.F.);
#191=ORIENTED_EDGE('',*,*,#379,.F.);
#192=ORIENTED_EDGE('',*,*,#380,.T.);
#193=ORIENTED_EDGE('',*,*,#381,.T.);
#194=ORIENTED_EDGE('',*,*,#372,.F.);
#195=ORIENTED_EDGE('',*,*,#382,.F.);
#196=ORIENTED_EDGE('',*,*,#383,.T.);
#197=ORIENTED_EDGE('',*,*,#375,.T.);
#198=ORIENTED_EDGE('',*,*,#384,.F.);
#199=ORIENTED_EDGE('',*,*,#385,.F.);
#200=ORIENTED_EDGE('',*,*,#382,.T.);
#201=ORIENTED_EDGE('',*,*,#374,.T.);
#202=ORIENTED_EDGE('',*,*,#386,.T.);
#203=ORIENTED_EDGE('',*,*,#387,.F.);
#204=ORIENTED_EDGE('',*,*,#388,.F.);
#205=ORIENTED_EDGE('',*,*,#384,.T.);
#206=ORIENTED_EDGE('',*,*,#387,.T.);
#207=ORIENTED_EDGE('',*,*,#389,.T.);
#208=ORIENTED_EDGE('',*,*,#390,.F.);
#209=ORIENTED_EDGE('',*,*,#391,.T.);
#210=ORIENTED_EDGE('',*,*,#390,.T.);
#211=ORIENTED_EDGE('',*,*,#392,.T.);
#212=ORIENTED_EDGE('',*,*,#376,.F.);
#213=ORIENTED_EDGE('',*,*,#393,.F.);
#214=ORIENTED_EDGE('',*,*,#394,.T.);
#215=ORIENTED_EDGE('',*,*,#379,.T.);
#216=ORIENTED_EDGE('',*,*,#395,.F.);
#217=ORIENTED_EDGE('',*,*,#396,.F.);
#218=ORIENTED_EDGE('',*,*,#393,.T.);
#219=ORIENTED_EDGE('',*,*,#378,.T.);
#220=ORIENTED_EDGE('',*,*,#397,.T.);
#221=ORIENTED_EDGE('',*,*,#398,.F.);
#222=ORIENTED_EDGE('',*,*,#399,.F.);
#223=ORIENTED_EDGE('',*,*,#395,.T.);
#224=ORIENTED_EDGE('',*,*,#398,.T.);
#225=ORIENTED_EDGE('',*,*,#400,.T.);
#226=ORIENTED_EDGE('',*,*,#401,.F.);
#227=ORIENTED_EDGE('',*,*,#402,.T.);
#228=ORIENTED_EDGE('',*,*,#401,.T.);
#229=ORIENTED_EDGE('',*,*,#403,.T.);
#230=ORIENTED_EDGE('',*,*,#364,.F.);
#231=ORIENTED_EDGE('',*,*,#404,.F.);
#232=ORIENTED_EDGE('',*,*,#405,.T.);
#233=ORIENTED_EDGE('',*,*,#367,.T.);
#234=ORIENTED_EDGE('',*,*,#406,.F.);
#235=ORIENTED_EDGE('',*,*,#407,.F.);
#236=ORIENTED_EDGE('',*,*,#404,.T.);
#237=ORIENTED_EDGE('',*,*,#366,.T.);
#238=ORIENTED_EDGE('',*,*,#408,.T.);
#239=ORIENTED_EDGE('',*,*,#409,.F.);
#240=ORIENTED_EDGE('',*,*,#410,.F.);
#241=ORIENTED_EDGE('',*,*,#406,.T.);
#242=ORIENTED_EDGE('',*,*,#409,.T.);
#243=ORIENTED_EDGE('',*,*,#411,.T.);
#244=ORIENTED_EDGE('',*,*,#412,.F.);
#245=ORIENTED_EDGE('',*,*,#413,.T.);
#246=ORIENTED_EDGE('',*,*,#412,.T.);
#247=ORIENTED_EDGE('',*,*,#414,.T.);
#248=ORIENTED_EDGE('',*,*,#368,.F.);
#249=ORIENTED_EDGE('',*,*,#415,.F.);
#250=ORIENTED_EDGE('',*,*,#416,.T.);
#251=ORIENTED_EDGE('',*,*,#371,.T.);
#252=ORIENTED_EDGE('',*,*,#417,.F.);
#253=ORIENTED_EDGE('',*,*,#418,.F.);
#254=ORIENTED_EDGE('',*,*,#415,.T.);
#255=ORIENTED_EDGE('',*,*,#370,.T.);
#256=ORIENTED_EDGE('',*,*,#419,.T.);
#257=ORIENTED_EDGE('',*,*,#420,.F.);
#258=ORIENTED_EDGE('',*,*,#421,.F.);
#259=ORIENTED_EDGE('',*,*,#417,.T.);
#260=ORIENTED_EDGE('',*,*,#420,.T.);
#261=ORIENTED_EDGE('',*,*,#422,.T.);
#262=ORIENTED_EDGE('',*,*,#380,.F.);
#263=ORIENTED_EDGE('',*,*,#423,.T.);
#264=ORIENTED_EDGE('',*,*,#424,.F.);
#265=ORIENTED_EDGE('',*,*,#383,.F.);
#266=ORIENTED_EDGE('',*,*,#385,.T.);
#267=ORIENTED_EDGE('',*,*,#388,.T.);
#268=ORIENTED_EDGE('',*,*,#391,.F.);
#269=ORIENTED_EDGE('',*,*,#394,.F.);
#270=ORIENTED_EDGE('',*,*,#396,.T.);
#271=ORIENTED_EDGE('',*,*,#399,.T.);
#272=ORIENTED_EDGE('',*,*,#402,.F.);
#273=ORIENTED_EDGE('',*,*,#405,.F.);
#274=ORIENTED_EDGE('',*,*,#407,.T.);
#275=ORIENTED_EDGE('',*,*,#410,.T.);
#276=ORIENTED_EDGE('',*,*,#413,.F.);
#277=ORIENTED_EDGE('',*,*,#416,.F.);
#278=ORIENTED_EDGE('',*,*,#418,.T.);
#279=ORIENTED_EDGE('',*,*,#421,.T.);
#280=ORIENTED_EDGE('',*,*,#423,.F.);
#281=ORIENTED_EDGE('',*,*,#425,.F.);
#282=ORIENTED_EDGE('',*,*,#424,.T.);
#283=ORIENTED_EDGE('',*,*,#425,.T.);
#284=ORIENTED_EDGE('',*,*,#408,.F.);
#285=ORIENTED_EDGE('',*,*,#365,.F.);
#286=ORIENTED_EDGE('',*,*,#403,.F.);
#287=ORIENTED_EDGE('',*,*,#400,.F.);
#288=ORIENTED_EDGE('',*,*,#397,.F.);
#289=ORIENTED_EDGE('',*,*,#377,.F.);
#290=ORIENTED_EDGE('',*,*,#392,.F.);
#291=ORIENTED_EDGE('',*,*,#389,.F.);
#292=ORIENTED_EDGE('',*,*,#386,.F.);
#293=ORIENTED_EDGE('',*,*,#373,.F.);
#294=ORIENTED_EDGE('',*,*,#381,.F.);
#295=ORIENTED_EDGE('',*,*,#422,.F.);
#296=ORIENTED_EDGE('',*,*,#419,.F.);
#297=ORIENTED_EDGE('',*,*,#369,.F.);
#298=ORIENTED_EDGE('',*,*,#414,.F.);
#299=ORIENTED_EDGE('',*,*,#411,.F.);
#300=ORIENTED_EDGE('',*,*,#362,.F.);
#301=ORIENTED_EDGE('',*,*,#426,.T.);
#302=ORIENTED_EDGE('',*,*,#427,.F.);
#303=ORIENTED_EDGE('',*,*,#428,.F.);
#304=ORIENTED_EDGE('',*,*,#429,.T.);
#305=ORIENTED_EDGE('',*,*,#430,.T.);
#306=ORIENTED_EDGE('',*,*,#431,.F.);
#307=ORIENTED_EDGE('',*,*,#432,.F.);
#308=ORIENTED_EDGE('',*,*,#427,.T.);
#309=ORIENTED_EDGE('',*,*,#433,.T.);
#310=ORIENTED_EDGE('',*,*,#434,.F.);
#311=ORIENTED_EDGE('',*,*,#435,.F.);
#312=ORIENTED_EDGE('',*,*,#431,.T.);
#313=ORIENTED_EDGE('',*,*,#436,.T.);
#314=ORIENTED_EDGE('',*,*,#437,.F.);
#315=ORIENTED_EDGE('',*,*,#438,.F.);
#316=ORIENTED_EDGE('',*,*,#434,.T.);
#317=ORIENTED_EDGE('',*,*,#439,.T.);
#318=ORIENTED_EDGE('',*,*,#440,.F.);
#319=ORIENTED_EDGE('',*,*,#441,.F.);
#320=ORIENTED_EDGE('',*,*,#437,.T.);
#321=ORIENTED_EDGE('',*,*,#442,.T.);
#322=ORIENTED_EDGE('',*,*,#443,.F.);
#323=ORIENTED_EDGE('',*,*,#444,.F.);
#324=ORIENTED_EDGE('',*,*,#440,.T.);
#325=ORIENTED_EDGE('',*,*,#445,.T.);
#326=ORIENTED_EDGE('',*,*,#446,.F.);
#327=ORIENTED_EDGE('',*,*,#447,.F.);
#328=ORIENTED_EDGE('',*,*,#443,.T.);
#329=ORIENTED_EDGE('',*,*,#363,.F.);
#330=ORIENTED_EDGE('',*,*,#448,.T.);
#331=ORIENTED_EDGE('',*,*,#449,.T.);
#332=ORIENTED_EDGE('',*,*,#429,.F.);
#333=ORIENTED_EDGE('',*,*,#450,.F.);
#334=ORIENTED_EDGE('',*,*,#446,.T.);
#335=ORIENTED_EDGE('',*,*,#448,.F.);
#336=ORIENTED_EDGE('',*,*,#428,.T.);
#337=ORIENTED_EDGE('',*,*,#432,.T.);
#338=ORIENTED_EDGE('',*,*,#435,.T.);
#339=ORIENTED_EDGE('',*,*,#438,.T.);
#340=ORIENTED_EDGE('',*,*,#441,.T.);
#341=ORIENTED_EDGE('',*,*,#444,.T.);
#342=ORIENTED_EDGE('',*,*,#447,.T.);
#343=ORIENTED_EDGE('',*,*,#450,.T.);
#344=ORIENTED_EDGE('',*,*,#451,.T.);
#345=ORIENTED_EDGE('',*,*,#452,.T.);
#346=ORIENTED_EDGE('',*,*,#451,.F.);
#347=ORIENTED_EDGE('',*,*,#453,.F.);
#348=ORIENTED_EDGE('',*,*,#452,.F.);
#349=ORIENTED_EDGE('',*,*,#453,.T.);
#350=ORIENTED_EDGE('',*,*,#454,.T.);
#351=ORIENTED_EDGE('',*,*,#455,.F.);
#352=ORIENTED_EDGE('',*,*,#454,.F.);
#353=ORIENTED_EDGE('',*,*,#426,.F.);
#354=ORIENTED_EDGE('',*,*,#449,.F.);
#355=ORIENTED_EDGE('',*,*,#445,.F.);
#356=ORIENTED_EDGE('',*,*,#442,.F.);
#357=ORIENTED_EDGE('',*,*,#439,.F.);
#358=ORIENTED_EDGE('',*,*,#436,.F.);
#359=ORIENTED_EDGE('',*,*,#433,.F.);
#360=ORIENTED_EDGE('',*,*,#430,.F.);
#361=ORIENTED_EDGE('',*,*,#455,.T.);
#362=EDGE_CURVE('',#456,#456,#522,.T.);
#363=EDGE_CURVE('',#457,#457,#523,.F.);
#364=EDGE_CURVE('',#458,#459,#42,.T.);
#365=EDGE_CURVE('',#459,#460,#524,.F.);
#366=EDGE_CURVE('',#461,#460,#43,.T.);
#367=EDGE_CURVE('',#458,#461,#525,.T.);
#368=EDGE_CURVE('',#462,#463,#44,.T.);
#369=EDGE_CURVE('',#463,#464,#526,.F.);
#370=EDGE_CURVE('',#465,#464,#45,.T.);
#371=EDGE_CURVE('',#462,#465,#527,.T.);
#372=EDGE_CURVE('',#466,#467,#46,.T.);
#373=EDGE_CURVE('',#467,#468,#528,.F.);
#374=EDGE_CURVE('',#469,#468,#47,.T.);
#375=EDGE_CURVE('',#466,#469,#529,.T.);
#376=EDGE_CURVE('',#470,#471,#48,.T.);
#377=EDGE_CURVE('',#471,#472,#530,.F.);
#378=EDGE_CURVE('',#473,#472,#49,.T.);
#379=EDGE_CURVE('',#470,#473,#531,.T.);
#380=EDGE_CURVE('',#474,#475,#50,.T.);
#381=EDGE_CURVE('',#475,#467,#22,.T.);
#382=EDGE_CURVE('',#476,#466,#51,.T.);
#383=EDGE_CURVE('',#476,#474,#52,.T.);
#384=EDGE_CURVE('',#477,#469,#53,.T.);
#385=EDGE_CURVE('',#476,#477,#532,.T.);
#386=EDGE_CURVE('',#468,#478,#23,.T.);
#387=EDGE_CURVE('',#479,#478,#54,.T.);
#388=EDGE_CURVE('',#477,#479,#55,.T.);
#389=EDGE_CURVE('',#478,#480,#24,.T.);
#390=EDGE_CURVE('',#481,#480,#56,.T.);
#391=EDGE_CURVE('',#481,#479,#57,.T.);
#392=EDGE_CURVE('',#480,#471,#25,.T.);
#393=EDGE_CURVE('',#482,#470,#58,.T.);
#394=EDGE_CURVE('',#482,#481,#59,.T.);
#395=EDGE_CURVE('',#483,#473,#60,.T.);
#396=EDGE_CURVE('',#482,#483,#533,.T.);
#397=EDGE_CURVE('',#472,#484,#26,.T.);
#398=EDGE_CURVE('',#485,#484,#61,.T.);
#399=EDGE_CURVE('',#483,#485,#62,.T.);
#400=EDGE_CURVE('',#484,#486,#27,.T.);
#401=EDGE_CURVE('',#487,#486,#63,.T.);
#402=EDGE_CURVE('',#487,#485,#64,.T.);
#403=EDGE_CURVE('',#486,#459,#28,.T.);
#404=EDGE_CURVE('',#488,#458,#65,.T.);
#405=EDGE_CURVE('',#488,#487,#66,.T.);
#406=EDGE_CURVE('',#489,#461,#67,.T.);
#407=EDGE_CURVE('',#488,#489,#534,.T.);
#408=EDGE_CURVE('',#460,#490,#29,.T.);
#409=EDGE_CURVE('',#491,#490,#68,.T.);
#410=EDGE_CURVE('',#489,#491,#69,.T.);
#411=EDGE_CURVE('',#490,#492,#30,.T.);
#412=EDGE_CURVE('',#493,#492,#70,.T.);
#413=EDGE_CURVE('',#493,#491,#71,.T.);
#414=EDGE_CURVE('',#492,#463,#31,.T.);
#415=EDGE_CURVE('',#494,#462,#72,.T.);
#416=EDGE_CURVE('',#494,#493,#73,.T.);
#417=EDGE_CURVE('',#495,#465,#74,.T.);
#418=EDGE_CURVE('',#494,#495,#535,.T.);
#419=EDGE_CURVE('',#464,#496,#32,.T.);
#420=EDGE_CURVE('',#497,#496,#75,.T.);
#421=EDGE_CURVE('',#495,#497,#76,.T.);
#422=EDGE_CURVE('',#496,#475,#33,.T.);
#423=EDGE_CURVE('',#474,#497,#77,.T.);
#424=EDGE_CURVE('',#498,#498,#536,.T.);
#425=EDGE_CURVE('',#499,#499,#537,.T.);
#426=EDGE_CURVE('',#500,#501,#34,.T.);
#427=EDGE_CURVE('',#502,#501,#78,.T.);
#428=EDGE_CURVE('',#503,#502,#79,.T.);
#429=EDGE_CURVE('',#503,#500,#80,.T.);
#430=EDGE_CURVE('',#501,#504,#35,.T.);
#431=EDGE_CURVE('',#505,#504,#81,.T.);
#432=EDGE_CURVE('',#502,#505,#82,.T.);
#433=EDGE_CURVE('',#504,#506,#36,.T.);
#434=EDGE_CURVE('',#507,#506,#83,.T.);
#435=EDGE_CURVE('',#505,#507,#84,.T.);
#436=EDGE_CURVE('',#506,#508,#37,.T.);
#437=EDGE_CURVE('',#509,#508,#85,.T.);
#438=EDGE_CURVE('',#507,#509,#86,.T.);
#439=EDGE_CURVE('',#508,#510,#38,.T.);
#440=EDGE_CURVE('',#511,#510,#87,.T.);
#441=EDGE_CURVE('',#509,#511,#88,.T.);
#442=EDGE_CURVE('',#510,#512,#39,.T.);
#443=EDGE_CURVE('',#513,#512,#89,.T.);
#444=EDGE_CURVE('',#511,#513,#90,.T.);
#445=EDGE_CURVE('',#512,#514,#40,.T.);
#446=EDGE_CURVE('',#515,#514,#91,.T.);
#447=EDGE_CURVE('',#513,#515,#92,.T.);
#448=EDGE_CURVE('',#516,#516,#538,.T.);
#449=EDGE_CURVE('',#514,#500,#41,.T.);
#450=EDGE_CURVE('',#515,#503,#93,.T.);
#451=EDGE_CURVE('',#517,#517,#539,.T.);
#452=EDGE_CURVE('',#518,#518,#540,.T.);
#453=EDGE_CURVE('',#519,#519,#541,.T.);
#454=EDGE_CURVE('',#520,#520,#542,.F.);
#455=EDGE_CURVE('',#521,#521,#543,.F.);
#456=VERTEX_POINT('',#1017);
#457=VERTEX_POINT('',#1019);
#458=VERTEX_POINT('',#1022);
#459=VERTEX_POINT('',#1023);
#460=VERTEX_POINT('',#1025);
#461=VERTEX_POINT('',#1027);
#462=VERTEX_POINT('',#1031);
#463=VERTEX_POINT('',#1032);
#464=VERTEX_POINT('',#1034);
#465=VERTEX_POINT('',#1036);
#466=VERTEX_POINT('',#1040);
#467=VERTEX_POINT('',#1041);
#468=VERTEX_POINT('',#1043);
#469=VERTEX_POINT('',#1045);
#470=VERTEX_POINT('',#1049);
#471=VERTEX_POINT('',#1050);
#472=VERTEX_POINT('',#1052);
#473=VERTEX_POINT('',#1054);
#474=VERTEX_POINT('',#1058);
#475=VERTEX_POINT('',#1059);
#476=VERTEX_POINT('',#1065);
#477=VERTEX_POINT('',#1069);
#478=VERTEX_POINT('',#1076);
#479=VERTEX_POINT('',#1078);
#480=VERTEX_POINT('',#1085);
#481=VERTEX_POINT('',#1087);
#482=VERTEX_POINT('',#1095);
#483=VERTEX_POINT('',#1099);
#484=VERTEX_POINT('',#1106);
#485=VERTEX_POINT('',#1108);
#486=VERTEX_POINT('',#1115);
#487=VERTEX_POINT('',#1117);
#488=VERTEX_POINT('',#1125);
#489=VERTEX_POINT('',#1129);
#490=VERTEX_POINT('',#1136);
#491=VERTEX_POINT('',#1138);
#492=VERTEX_POINT('',#1145);
#493=VERTEX_POINT('',#1147);
#494=VERTEX_POINT('',#1155);
#495=VERTEX_POINT('',#1159);
#496=VERTEX_POINT('',#1166);
#497=VERTEX_POINT('',#1168);
#498=VERTEX_POINT('',#1178);
#499=VERTEX_POINT('',#1181);
#500=VERTEX_POINT('',#1193);
#501=VERTEX_POINT('',#1194);
#502=VERTEX_POINT('',#1196);
#503=VERTEX_POINT('',#1198);
#504=VERTEX_POINT('',#1209);
#505=VERTEX_POINT('',#1211);
#506=VERTEX_POINT('',#1222);
#507=VERTEX_POINT('',#1224);
#508=VERTEX_POINT('',#1235);
#509=VERTEX_POINT('',#1237);
#510=VERTEX_POINT('',#1248);
#511=VERTEX_POINT('',#1250);
#512=VERTEX_POINT('',#1261);
#513=VERTEX_POINT('',#1263);
#514=VERTEX_POINT('',#1274);
#515=VERTEX_POINT('',#1276);
#516=VERTEX_POINT('',#1280);
#517=VERTEX_POINT('',#1294);
#518=VERTEX_POINT('',#1436);
#519=VERTEX_POINT('',#1439);
#520=VERTEX_POINT('',#1442);
#521=VERTEX_POINT('',#1445);
#522=CIRCLE('',#705,0.0664565565813453);
#523=CIRCLE('',#706,0.075565);
#524=CIRCLE('',#708,0.0552398231086698);
#525=CIRCLE('',#709,0.0508);
#526=CIRCLE('',#711,0.0552398231086698);
#527=CIRCLE('',#712,0.0508);
#528=CIRCLE('',#714,0.0552398231086698);
#529=CIRCLE('',#715,0.0508);
#530=CIRCLE('',#717,0.0552398231086698);
#531=CIRCLE('',#718,0.0508);
#532=CIRCLE('',#721,0.0508);
#533=CIRCLE('',#726,0.0508);
#534=CIRCLE('',#731,0.0508);
#535=CIRCLE('',#736,0.0508);
#536=CIRCLE('',#740,0.041275);
#537=CIRCLE('',#742,0.041275);
#538=CIRCLE('',#753,0.075565);
#539=CIRCLE('',#757,0.0635);
#540=CIRCLE('',#758,0.331976381550828);
#541=CIRCLE('',#760,0.381);
#542=CIRCLE('',#762,0.381);
#543=CIRCLE('',#764,0.368374434659212);
#544=EDGE_LOOP('',(#174));
#545=EDGE_LOOP('',(#175));
#546=EDGE_LOOP('',(#176,#177,#178,#179));
#547=EDGE_LOOP('',(#180,#181,#182,#183));
#548=EDGE_LOOP('',(#184,#185,#186,#187));
#549=EDGE_LOOP('',(#188,#189,#190,#191));
#550=EDGE_LOOP('',(#192,#193,#194,#195,#196));
#551=EDGE_LOOP('',(#197,#198,#199,#200));
#552=EDGE_LOOP('',(#201,#202,#203,#204,#205));
#553=EDGE_LOOP('',(#206,#207,#208,#209));
#554=EDGE_LOOP('',(#210,#211,#212,#213,#214));
#555=EDGE_LOOP('',(#215,#216,#217,#218));
#556=EDGE_LOOP('',(#219,#220,#221,#222,#223));
#557=EDGE_LOOP('',(#224,#225,#226,#227));
#558=EDGE_LOOP('',(#228,#229,#230,#231,#232));
#559=EDGE_LOOP('',(#233,#234,#235,#236));
#560=EDGE_LOOP('',(#237,#238,#239,#240,#241));
#561=EDGE_LOOP('',(#242,#243,#244,#245));
#562=EDGE_LOOP('',(#246,#247,#248,#249,#250));
#563=EDGE_LOOP('',(#251,#252,#253,#254));
#564=EDGE_LOOP('',(#255,#256,#257,#258,#259));
#565=EDGE_LOOP('',(#260,#261,#262,#263));
#566=EDGE_LOOP('',(#264));
#567=EDGE_LOOP('',(#265,#266,#267,#268,#269,#270,#271,#272,#273,#274,#275,
#276,#277,#278,#279,#280));
#568=EDGE_LOOP('',(#281));
#569=EDGE_LOOP('',(#282));
#570=EDGE_LOOP('',(#283));
#571=EDGE_LOOP('',(#284,#285,#286,#287,#288,#289,#290,#291,#292,#293,#294,
#295,#296,#297,#298,#299));
#572=EDGE_LOOP('',(#300));
#573=EDGE_LOOP('',(#301,#302,#303,#304));
#574=EDGE_LOOP('',(#305,#306,#307,#308));
#575=EDGE_LOOP('',(#309,#310,#311,#312));
#576=EDGE_LOOP('',(#313,#314,#315,#316));
#577=EDGE_LOOP('',(#317,#318,#319,#320));
#578=EDGE_LOOP('',(#321,#322,#323,#324));
#579=EDGE_LOOP('',(#325,#326,#327,#328));
#580=EDGE_LOOP('',(#329));
#581=EDGE_LOOP('',(#330));
#582=EDGE_LOOP('',(#331,#332,#333,#334));
#583=EDGE_LOOP('',(#335));
#584=EDGE_LOOP('',(#336,#337,#338,#339,#340,#341,#342,#343));
#585=EDGE_LOOP('',(#344));
#586=EDGE_LOOP('',(#345));
#587=EDGE_LOOP('',(#346));
#588=EDGE_LOOP('',(#347));
#589=EDGE_LOOP('',(#348));
#590=EDGE_LOOP('',(#349));
#591=EDGE_LOOP('',(#350));
#592=EDGE_LOOP('',(#351));
#593=EDGE_LOOP('',(#352));
#594=EDGE_LOOP('',(#353,#354,#355,#356,#357,#358,#359,#360));
#595=EDGE_LOOP('',(#361));
#596=FACE_BOUND('',#544,.T.);
#597=FACE_BOUND('',#545,.T.);
#598=FACE_BOUND('',#546,.T.);
#599=FACE_BOUND('',#547,.T.);
#600=FACE_BOUND('',#548,.T.);
#601=FACE_BOUND('',#549,.T.);
#602=FACE_BOUND('',#550,.T.);
#603=FACE_BOUND('',#551,.T.);
#604=FACE_BOUND('',#552,.T.);
#605=FACE_BOUND('',#553,.T.);
#606=FACE_BOUND('',#554,.T.);
#607=FACE_BOUND('',#555,.T.);
#608=FACE_BOUND('',#556,.T.);
#609=FACE_BOUND('',#557,.T.);
#610=FACE_BOUND('',#558,.T.);
#611=FACE_BOUND('',#559,.T.);
#612=FACE_BOUND('',#560,.T.);
#613=FACE_BOUND('',#561,.T.);
#614=FACE_BOUND('',#562,.T.);
#615=FACE_BOUND('',#563,.T.);
#616=FACE_BOUND('',#564,.T.);
#617=FACE_BOUND('',#565,.T.);
#618=FACE_BOUND('',#566,.T.);
#619=FACE_BOUND('',#567,.T.);
#620=FACE_BOUND('',#568,.T.);
#621=FACE_BOUND('',#569,.T.);
#622=FACE_BOUND('',#570,.T.);
#623=FACE_BOUND('',#571,.T.);
#624=FACE_BOUND('',#572,.T.);
#625=FACE_BOUND('',#573,.T.);
#626=FACE_BOUND('',#574,.T.);
#627=FACE_BOUND('',#575,.T.);
#628=FACE_BOUND('',#576,.T.);
#629=FACE_BOUND('',#577,.T.);
#630=FACE_BOUND('',#578,.T.);
#631=FACE_BOUND('',#579,.T.);
#632=FACE_BOUND('',#580,.T.);
#633=FACE_BOUND('',#581,.T.);
#634=FACE_BOUND('',#582,.T.);
#635=FACE_BOUND('',#583,.T.);
#636=FACE_BOUND('',#584,.T.);
#637=FACE_BOUND('',#585,.T.);
#638=FACE_BOUND('',#586,.T.);
#639=FACE_BOUND('',#587,.T.);
#640=FACE_BOUND('',#588,.T.);
#641=FACE_BOUND('',#589,.T.);
#642=FACE_BOUND('',#590,.T.);
#643=FACE_BOUND('',#591,.T.);
#644=FACE_BOUND('',#592,.T.);
#645=FACE_BOUND('',#593,.T.);
#646=FACE_BOUND('',#594,.T.);
#647=FACE_BOUND('',#595,.T.);
#648=B_SPLINE_SURFACE_WITH_KNOTS('',3,3,((#940,#941,#942,#943,#944,#945,
#946,#947,#948,#949,#950,#951,#952,#953,#954,#955,#956,#957,#958),(#959,
#960,#961,#962,#963,#964,#965,#966,#967,#968,#969,#970,#971,#972,#973,#974,
#975,#976,#977),(#978,#979,#980,#981,#982,#983,#984,#985,#986,#987,#988,
#989,#990,#991,#992,#993,#994,#995,#996),(#997,#998,#999,#1000,#1001,#1002,
#1003,#1004,#1005,#1006,#1007,#1008,#1009,#1010,#1011,#1012,#1013,#1014,
#1015)),.UNSPECIFIED.,.F.,.T.,.F.,(4,4),(1,1,1,1,1,1,1,1,1,1,1,1,1,1,1,
1,1,1,1,1,1,1,1),(0.864600912056359,0.954723580007946),(-1.17809724509617,
-0.785398163397448,-0.392699081698725,0.,0.392699081698724,0.785398163397448,
1.17809724509617,1.5707963267949,1.96349540849362,2.35619449019234,2.74889357189107,
3.14159265358979,3.53429173528852,3.92699081698724,4.31968989868597,4.71238898038469,
5.10508806208341,5.49778714378214,5.89048622548086,6.28318530717959,6.67588438887831,
7.06858347057703,7.46128255227576),.UNSPECIFIED.);
#649=B_SPLINE_SURFACE_WITH_KNOTS('',3,3,((#1295,#1296,#1297,#1298,#1299,
#1300,#1301,#1302,#1303,#1304,#1305,#1306,#1307,#1308,#1309,#1310,#1311,
#1312,#1313,#1314,#1315,#1316,#1317,#1318,#1319,#1320,#1321,#1322,#1323,
#1324,#1325,#1326,#1327,#1328,#1329),(#1330,#1331,#1332,#1333,#1334,#1335,
#1336,#1337,#1338,#1339,#1340,#1341,#1342,#1343,#1344,#1345,#1346,#1347,
#1348,#1349,#1350,#1351,#1352,#1353,#1354,#1355,#1356,#1357,#1358,#1359,
#1360,#1361,#1362,#1363,#1364),(#1365,#1366,#1367,#1368,#1369,#1370,#1371,
#1372,#1373,#1374,#1375,#1376,#1377,#1378,#1379,#1380,#1381,#1382,#1383,
#1384,#1385,#1386,#1387,#1388,#1389,#1390,#1391,#1392,#1393,#1394,#1395,
#1396,#1397,#1398,#1399),(#1400,#1401,#1402,#1403,#1404,#1405,#1406,#1407,
#1408,#1409,#1410,#1411,#1412,#1413,#1414,#1415,#1416,#1417,#1418,#1419,
#1420,#1421,#1422,#1423,#1424,#1425,#1426,#1427,#1428,#1429,#1430,#1431,
#1432,#1433,#1434)),.UNSPECIFIED.,.F.,.T.,.F.,(4,4),(1,1,1,1,1,1,1,1,1,
1,1,1,1,1,1,1,1,1,1,1,1,1,1,1,1,1,1,1,1,1,1,1,1,1,1,1,1,1,1),(0.0804376570768609,
1.),(-0.589048622548086,-0.392699081698725,-0.196349540849362,0.,0.196349540849362,
0.392699081698724,0.589048622548086,0.785398163397448,0.98174770424681,
1.17809724509617,1.37444678594553,1.5707963267949,1.76714586764426,1.96349540849362,
2.15984494934298,2.35619449019234,2.55254403104171,2.74889357189107,2.94524311274043,
3.14159265358979,3.33794219443916,3.53429173528852,3.73064127613788,3.92699081698724,
4.1233403578366,4.31968989868597,4.51603943953533,4.71238898038469,4.90873852123405,
5.10508806208341,5.30143760293278,5.49778714378214,5.6941366846315,5.89048622548086,
6.08683576633022,6.28318530717959,6.47953484802895,6.67588438887831,6.87223392972767),
 .UNSPECIFIED.);
#650=B_SPLINE_SURFACE_WITH_KNOTS('',3,3,((#1446,#1447,#1448,#1449,#1450,
#1451,#1452,#1453,#1454,#1455,#1456,#1457,#1458,#1459,#1460,#1461,#1462,
#1463,#1464,#1465,#1466,#1467,#1468,#1469,#1470,#1471,#1472,#1473,#1474,
#1475,#1476,#1477,#1478,#1479,#1480),(#1481,#1482,#1483,#1484,#1485,#1486,
#1487,#1488,#1489,#1490,#1491,#1492,#1493,#1494,#1495,#1496,#1497,#1498,
#1499,#1500,#1501,#1502,#1503,#1504,#1505,#1506,#1507,#1508,#1509,#1510,
#1511,#1512,#1513,#1514,#1515),(#1516,#1517,#1518,#1519,#1520,#1521,#1522,
#1523,#1524,#1525,#1526,#1527,#1528,#1529,#1530,#1531,#1532,#1533,#1534,
#1535,#1536,#1537,#1538,#1539,#1540,#1541,#1542,#1543,#1544,#1545,#1546,
#1547,#1548,#1549,#1550),(#1551,#1552,#1553,#1554,#1555,#1556,#1557,#1558,
#1559,#1560,#1561,#1562,#1563,#1564,#1565,#1566,#1567,#1568,#1569,#1570,
#1571,#1572,#1573,#1574,#1575,#1576,#1577,#1578,#1579,#1580,#1581,#1582,
#1583,#1584,#1585)),.UNSPECIFIED.,.F.,.T.,.F.,(4,4),(1,1,1,1,1,1,1,1,1,
1,1,1,1,1,1,1,1,1,1,1,1,1,1,1,1,1,1,1,1,1,1,1,1,1,1,1,1,1,1),(0.0219243882761381,
0.817819445681817),(-0.589048622548086,-0.392699081698725,-0.196349540849362,
0.,0.196349540849362,0.392699081698724,0.589048622548086,0.785398163397448,
0.98174770424681,1.17809724509617,1.37444678594553,1.5707963267949,1.76714586764426,
1.96349540849362,2.15984494934298,2.35619449019234,2.55254403104171,2.74889357189107,
2.94524311274043,3.14159265358979,3.33794219443916,3.53429173528852,3.73064127613788,
3.92699081698724,4.1233403578366,4.31968989868597,4.51603943953533,4.71238898038469,
4.90873852123405,5.10508806208341,5.30143760293278,5.49778714378214,5.6941366846315,
5.89048622548086,6.08683576633022,6.28318530717959,6.47953484802895,6.67588438887831,
6.87223392972767),.UNSPECIFIED.);
#651=ADVANCED_FACE('',(#596,#597),#648,.T.);
#652=ADVANCED_FACE('',(#598),#146,.F.);
#653=ADVANCED_FACE('',(#599),#147,.F.);
#654=ADVANCED_FACE('',(#600),#148,.F.);
#655=ADVANCED_FACE('',(#601),#149,.F.);
#656=ADVANCED_FACE('',(#602),#150,.T.);
#657=ADVANCED_FACE('',(#603),#15,.F.);
#658=ADVANCED_FACE('',(#604),#151,.F.);
#659=ADVANCED_FACE('',(#605),#152,.T.);
#660=ADVANCED_FACE('',(#606),#153,.T.);
#661=ADVANCED_FACE('',(#607),#16,.F.);
#662=ADVANCED_FACE('',(#608),#154,.F.);
#663=ADVANCED_FACE('',(#609),#155,.T.);
#664=ADVANCED_FACE('',(#610),#156,.T.);
#665=ADVANCED_FACE('',(#611),#17,.F.);
#666=ADVANCED_FACE('',(#612),#157,.F.);
#667=ADVANCED_FACE('',(#613),#158,.T.);
#668=ADVANCED_FACE('',(#614),#159,.T.);
#669=ADVANCED_FACE('',(#615),#18,.F.);
#670=ADVANCED_FACE('',(#616),#160,.F.);
#671=ADVANCED_FACE('',(#617),#161,.T.);
#672=ADVANCED_FACE('',(#618,#619),#162,.T.);
#673=ADVANCED_FACE('',(#620,#621),#19,.F.);
#674=ADVANCED_FACE('',(#622),#163,.T.);
#675=ADVANCED_FACE('',(#623,#624),#12,.T.);
#676=ADVANCED_FACE('',(#625),#164,.F.);
#677=ADVANCED_FACE('',(#626),#165,.F.);
#678=ADVANCED_FACE('',(#627),#166,.F.);
#679=ADVANCED_FACE('',(#628),#167,.F.);
#680=ADVANCED_FACE('',(#629),#168,.F.);
#681=ADVANCED_FACE('',(#630),#169,.F.);
#682=ADVANCED_FACE('',(#631),#170,.F.);
#683=ADVANCED_FACE('',(#632,#633),#20,.T.);
#684=ADVANCED_FACE('',(#634),#171,.F.);
#685=ADVANCED_FACE('',(#635,#636),#172,.T.);
#686=ADVANCED_FACE('',(#637),#173,.T.);
#687=ADVANCED_FACE('',(#638,#639),#649,.F.);
#688=ADVANCED_FACE('',(#640,#641),#13,.T.);
#689=ADVANCED_FACE('',(#642,#643),#21,.T.);
#690=ADVANCED_FACE('',(#644,#645),#14,.T.);
#691=ADVANCED_FACE('',(#646,#647),#650,.T.);
#692=CLOSED_SHELL('',(#651,#652,#653,#654,#655,#656,#657,#658,#659,#660,
#661,#662,#663,#664,#665,#666,#667,#668,#669,#670,#671,#672,#673,#674,#675,
#676,#677,#678,#679,#680,#681,#682,#683,#684,#685,#686,#687,#688,#689,#690,
#691));
#693=STYLED_ITEM('',(#694),#701);
#694=PRESENTATION_STYLE_ASSIGNMENT((#695));
#695=SURFACE_STYLE_USAGE(.BOTH.,#696);
#696=SURFACE_SIDE_STYLE('',(#697));
#697=SURFACE_STYLE_FILL_AREA(#698);
#698=FILL_AREA_STYLE('',(#699));
#699=FILL_AREA_STYLE_COLOUR('',#700);
#700=COLOUR_RGB('',0.823529411764706,0.623529411764706,0.0352941176470589);
#701=MANIFOLD_SOLID_BREP('Part 1',#692);
#702=SHAPE_DEFINITION_REPRESENTATION(#1592,#703);
#703=SHAPE_REPRESENTATION('Part 1',(#704),#1587);
#704=AXIS2_PLACEMENT_3D('',#939,#765,#766);
#705=AXIS2_PLACEMENT_3D('',#1016,#767,#768);
#706=AXIS2_PLACEMENT_3D('',#1018,#769,#770);
#707=AXIS2_PLACEMENT_3D('',#1020,#771,#772);
#708=AXIS2_PLACEMENT_3D('',#1024,#774,#775);
#709=AXIS2_PLACEMENT_3D('',#1028,#777,#778);
#710=AXIS2_PLACEMENT_3D('',#1029,#779,#780);
#711=AXIS2_PLACEMENT_3D('',#1033,#782,#783);
#712=AXIS2_PLACEMENT_3D('',#1037,#785,#786);
#713=AXIS2_PLACEMENT_3D('',#1038,#787,#788);
#714=AXIS2_PLACEMENT_3D('',#1042,#790,#791);
#715=AXIS2_PLACEMENT_3D('',#1046,#793,#794);
#716=AXIS2_PLACEMENT_3D('',#1047,#795,#796);
#717=AXIS2_PLACEMENT_3D('',#1051,#798,#799);
#718=AXIS2_PLACEMENT_3D('',#1055,#801,#802);
#719=AXIS2_PLACEMENT_3D('',#1056,#803,#804);
#720=AXIS2_PLACEMENT_3D('',#1067,#808,#809);
#721=AXIS2_PLACEMENT_3D('',#1070,#811,#812);
#722=AXIS2_PLACEMENT_3D('',#1071,#813,#814);
#723=AXIS2_PLACEMENT_3D('',#1080,#817,#818);
#724=AXIS2_PLACEMENT_3D('',#1089,#821,#822);
#725=AXIS2_PLACEMENT_3D('',#1097,#825,#826);
#726=AXIS2_PLACEMENT_3D('',#1100,#828,#829);
#727=AXIS2_PLACEMENT_3D('',#1101,#830,#831);
#728=AXIS2_PLACEMENT_3D('',#1110,#834,#835);
#729=AXIS2_PLACEMENT_3D('',#1119,#838,#839);
#730=AXIS2_PLACEMENT_3D('',#1127,#842,#843);
#731=AXIS2_PLACEMENT_3D('',#1130,#845,#846);
#732=AXIS2_PLACEMENT_3D('',#1131,#847,#848);
#733=AXIS2_PLACEMENT_3D('',#1140,#851,#852);
#734=AXIS2_PLACEMENT_3D('',#1149,#855,#856);
#735=AXIS2_PLACEMENT_3D('',#1157,#859,#860);
#736=AXIS2_PLACEMENT_3D('',#1160,#862,#863);
#737=AXIS2_PLACEMENT_3D('',#1161,#864,#865);
#738=AXIS2_PLACEMENT_3D('',#1170,#868,#869);
#739=AXIS2_PLACEMENT_3D('',#1176,#871,#872);
#740=AXIS2_PLACEMENT_3D('',#1177,#873,#874);
#741=AXIS2_PLACEMENT_3D('',#1179,#875,#876);
#742=AXIS2_PLACEMENT_3D('',#1180,#877,#878);
#743=AXIS2_PLACEMENT_3D('',#1182,#879,#880);
#744=AXIS2_PLACEMENT_3D('',#1183,#881,#882);
#745=AXIS2_PLACEMENT_3D('',#1184,#883,#884);
#746=AXIS2_PLACEMENT_3D('',#1200,#888,#889);
#747=AXIS2_PLACEMENT_3D('',#1213,#892,#893);
#748=AXIS2_PLACEMENT_3D('',#1226,#896,#897);
#749=AXIS2_PLACEMENT_3D('',#1239,#900,#901);
#750=AXIS2_PLACEMENT_3D('',#1252,#904,#905);
#751=AXIS2_PLACEMENT_3D('',#1265,#908,#909);
#752=AXIS2_PLACEMENT_3D('',#1278,#912,#913);
#753=AXIS2_PLACEMENT_3D('',#1279,#914,#915);
#754=AXIS2_PLACEMENT_3D('',#1281,#916,#917);
#755=AXIS2_PLACEMENT_3D('',#1291,#919,#920);
#756=AXIS2_PLACEMENT_3D('',#1292,#921,#922);
#757=AXIS2_PLACEMENT_3D('',#1293,#923,#924);
#758=AXIS2_PLACEMENT_3D('',#1435,#925,#926);
#759=AXIS2_PLACEMENT_3D('',#1437,#927,#928);
#760=AXIS2_PLACEMENT_3D('',#1438,#929,#930);
#761=AXIS2_PLACEMENT_3D('',#1440,#931,#932);
#762=AXIS2_PLACEMENT_3D('',#1441,#933,#934);
#763=AXIS2_PLACEMENT_3D('',#1443,#935,#936);
#764=AXIS2_PLACEMENT_3D('',#1444,#937,#938);
#765=DIRECTION('',(0.,0.,1.));
#766=DIRECTION('',(1.,0.,0.));
#767=DIRECTION('',(0.,0.,-1.));
#768=DIRECTION('',(-1.,0.,0.));
#769=DIRECTION('',(0.,0.,-1.));
#770=DIRECTION('',(-1.,0.,0.));
#771=DIRECTION('',(0.,0.,-1.));
#772=DIRECTION('',(-1.,0.,0.));
#773=DIRECTION('',(1.36592399683213E-16,-1.,0.));
#774=DIRECTION('',(0.,0.,-1.));
#775=DIRECTION('',(-1.,0.,0.));
#776=DIRECTION('',(1.,0.,0.));
#777=DIRECTION('',(0.,0.,1.));
#778=DIRECTION('',(1.,0.,0.));
#779=DIRECTION('',(0.,0.,-1.));
#780=DIRECTION('',(-1.,0.,0.));
#781=DIRECTION('',(1.,6.82961998416066E-17,0.));
#782=DIRECTION('',(0.,0.,-1.));
#783=DIRECTION('',(-1.,0.,0.));
#784=DIRECTION('',(0.,1.,0.));
#785=DIRECTION('',(0.,0.,1.));
#786=DIRECTION('',(1.,0.,0.));
#787=DIRECTION('',(0.,0.,-1.));
#788=DIRECTION('',(-1.,0.,0.));
#789=DIRECTION('',(0.,1.,0.));
#790=DIRECTION('',(0.,0.,-1.));
#791=DIRECTION('',(-1.,0.,0.));
#792=DIRECTION('',(-1.,-1.36592399683213E-16,0.));
#793=DIRECTION('',(0.,0.,1.));
#794=DIRECTION('',(1.,0.,0.));
#795=DIRECTION('',(0.,0.,-1.));
#796=DIRECTION('',(-1.,0.,0.));
#797=DIRECTION('',(-1.,-2.04888599524819E-16,0.));
#798=DIRECTION('',(0.,0.,-1.));
#799=DIRECTION('',(-1.,0.,0.));
#800=DIRECTION('',(1.36592399683213E-16,-1.,0.));
#801=DIRECTION('',(0.,0.,1.));
#802=DIRECTION('',(1.,0.,0.));
#803=DIRECTION('',(1.,0.,0.));
#804=DIRECTION('',(0.,0.,-1.));
#805=DIRECTION('',(0.,0.,1.));
#806=DIRECTION('',(0.,0.,1.));
#807=DIRECTION('',(0.,1.,0.));
#808=DIRECTION('',(0.,0.,1.));
#809=DIRECTION('',(1.,0.,0.));
#810=DIRECTION('',(0.,0.,1.));
#811=DIRECTION('',(0.,0.,1.));
#812=DIRECTION('',(1.,0.,0.));
#813=DIRECTION('',(-1.36592399683213E-16,1.,0.));
#814=DIRECTION('',(-1.,-1.36592399683213E-16,0.));
#815=DIRECTION('',(0.,0.,1.));
#816=DIRECTION('',(-1.,-1.36592399683213E-16,0.));
#817=DIRECTION('',(1.,0.,0.));
#818=DIRECTION('',(0.,0.,-1.));
#819=DIRECTION('',(0.,0.,1.));
#820=DIRECTION('',(0.,1.,0.));
#821=DIRECTION('',(-2.04888599524819E-16,1.,0.));
#822=DIRECTION('',(-1.,-2.04888599524819E-16,0.));
#823=DIRECTION('',(0.,0.,1.));
#824=DIRECTION('',(-1.,-2.04888599524819E-16,0.));
#825=DIRECTION('',(0.,0.,1.));
#826=DIRECTION('',(1.,0.,0.));
#827=DIRECTION('',(0.,0.,1.));
#828=DIRECTION('',(0.,0.,1.));
#829=DIRECTION('',(1.,0.,0.));
#830=DIRECTION('',(-1.,-1.36592399683213E-16,0.));
#831=DIRECTION('',(1.36592399683213E-16,-1.,0.));
#832=DIRECTION('',(0.,0.,1.));
#833=DIRECTION('',(1.36592399683213E-16,-1.,0.));
#834=DIRECTION('',(0.,1.,0.));
#835=DIRECTION('',(0.,0.,1.));
#836=DIRECTION('',(0.,0.,1.));
#837=DIRECTION('',(-1.,0.,0.));
#838=DIRECTION('',(-1.,-1.36592399683213E-16,0.));
#839=DIRECTION('',(1.36592399683213E-16,-1.,0.));
#840=DIRECTION('',(0.,0.,1.));
#841=DIRECTION('',(1.36592399683213E-16,-1.,0.));
#842=DIRECTION('',(0.,0.,1.));
#843=DIRECTION('',(1.,0.,0.));
#844=DIRECTION('',(0.,0.,1.));
#845=DIRECTION('',(0.,0.,1.));
#846=DIRECTION('',(1.,0.,0.));
#847=DIRECTION('',(0.,-1.,0.));
#848=DIRECTION('',(0.,0.,-1.));
#849=DIRECTION('',(0.,0.,1.));
#850=DIRECTION('',(1.,0.,0.));
#851=DIRECTION('',(-1.,0.,0.));
#852=DIRECTION('',(0.,0.,1.));
#853=DIRECTION('',(0.,0.,1.));
#854=DIRECTION('',(0.,-1.,0.));
#855=DIRECTION('',(6.82961998416066E-17,-1.,0.));
#856=DIRECTION('',(1.,6.82961998416066E-17,0.));
#857=DIRECTION('',(0.,0.,1.));
#858=DIRECTION('',(1.,6.82961998416066E-17,0.));
#859=DIRECTION('',(0.,0.,1.));
#860=DIRECTION('',(1.,0.,0.));
#861=DIRECTION('',(0.,0.,1.));
#862=DIRECTION('',(0.,0.,1.));
#863=DIRECTION('',(1.,0.,0.));
#864=DIRECTION('',(1.,0.,0.));
#865=DIRECTION('',(0.,0.,-1.));
#866=DIRECTION('',(0.,0.,1.));
#867=DIRECTION('',(0.,1.,0.));
#868=DIRECTION('',(0.,-1.,0.));
#869=DIRECTION('',(0.,0.,-1.));
#870=DIRECTION('',(1.,0.,0.));
#871=DIRECTION('',(0.,0.,1.));
#872=DIRECTION('',(1.,0.,0.));
#873=DIRECTION('',(0.,0.,1.));
#874=DIRECTION('',(1.,0.,0.));
#875=DIRECTION('',(0.,0.,1.));
#876=DIRECTION('',(1.,0.,0.));
#877=DIRECTION('',(0.,0.,1.));
#878=DIRECTION('',(1.,0.,0.));
#879=DIRECTION('',(0.,0.,1.));
#880=DIRECTION('',(1.,0.,0.));
#881=DIRECTION('',(0.,0.,-1.));
#882=DIRECTION('',(-1.,0.,0.));
#883=DIRECTION('',(0.707106781186548,-0.707106781186548,0.));
#884=DIRECTION('',(0.707106781186548,0.707106781186548,0.));
#885=DIRECTION('',(0.,0.,1.));
#886=DIRECTION('',(0.707106781186548,0.707106781186548,0.));
#887=DIRECTION('',(0.,0.,1.));
#888=DIRECTION('',(1.,0.,0.));
#889=DIRECTION('',(0.,0.,-1.));
#890=DIRECTION('',(0.,0.,1.));
#891=DIRECTION('',(0.,1.,0.));
#892=DIRECTION('',(0.707106781186548,0.707106781186548,0.));
#893=DIRECTION('',(-0.707106781186548,0.707106781186548,0.));
#894=DIRECTION('',(0.,0.,1.));
#895=DIRECTION('',(-0.707106781186547,0.707106781186548,0.));
#896=DIRECTION('',(0.,1.,0.));
#897=DIRECTION('',(0.,0.,1.));
#898=DIRECTION('',(0.,0.,1.));
#899=DIRECTION('',(-1.,0.,0.));
#900=DIRECTION('',(-0.707106781186548,0.707106781186548,0.));
#901=DIRECTION('',(-0.707106781186548,-0.707106781186548,0.));
#902=DIRECTION('',(0.,0.,1.));
#903=DIRECTION('',(-0.707106781186548,-0.707106781186548,0.));
#904=DIRECTION('',(-1.,0.,0.));
#905=DIRECTION('',(0.,0.,1.));
#906=DIRECTION('',(0.,0.,1.));
#907=DIRECTION('',(0.,-1.,0.));
#908=DIRECTION('',(-0.707106781186548,-0.707106781186548,0.));
#909=DIRECTION('',(0.707106781186548,-0.707106781186548,0.));
#910=DIRECTION('',(0.,0.,1.));
#911=DIRECTION('',(0.707106781186548,-0.707106781186548,0.));
#912=DIRECTION('',(0.,0.,1.));
#913=DIRECTION('',(1.,0.,0.));
#914=DIRECTION('',(0.,0.,1.));
#915=DIRECTION('',(1.,0.,0.));
#916=DIRECTION('',(0.,-1.,0.));
#917=DIRECTION('',(0.,0.,-1.));
#918=DIRECTION('',(1.,0.,0.));
#919=DIRECTION('',(0.,0.,1.));
#920=DIRECTION('',(1.,0.,0.));
#921=DIRECTION('',(0.,0.,-1.));
#922=DIRECTION('',(-1.,0.,0.));
#923=DIRECTION('',(0.,0.,-1.));
#924=DIRECTION('',(-1.,0.,0.));
#925=DIRECTION('',(0.,0.,-1.));
#926=DIRECTION('',(-1.,0.,0.));
#927=DIRECTION('',(0.,0.,1.));
#928=DIRECTION('',(1.,0.,0.));
#929=DIRECTION('',(0.,0.,1.));
#930=DIRECTION('',(1.,0.,0.));
#931=DIRECTION('',(0.,0.,-1.));
#932=DIRECTION('',(-1.,0.,0.));
#933=DIRECTION('',(0.,0.,1.));
#934=DIRECTION('',(1.,0.,0.));
#935=DIRECTION('',(0.,0.,1.));
#936=DIRECTION('',(1.,0.,0.));
#937=DIRECTION('',(0.,0.,-1.));
#938=DIRECTION('',(-1.,0.,0.));
#939=CARTESIAN_POINT('',(0.,0.,0.));
#940=CARTESIAN_POINT('',(-0.0716304718760974,-0.0296703129302639,0.209362146969206));
#941=CARTESIAN_POINT('',(-0.0775322640619514,-5.89805981832114E-17,0.209362146969206));
#942=CARTESIAN_POINT('',(-0.0716304718760973,0.0296703129302641,0.209362146969206));
#943=CARTESIAN_POINT('',(-0.0548235896789519,0.0548235896789519,0.209362146969206));
#944=CARTESIAN_POINT('',(-0.0296703129302641,0.0716304718760973,0.209362146969206));
#945=CARTESIAN_POINT('',(-1.54498809579184E-17,0.0775322640619514,0.209362146969206));
#946=CARTESIAN_POINT('',(0.029670312930264,0.0716304718760973,0.209362146969206));
#947=CARTESIAN_POINT('',(0.0548235896789519,0.0548235896789519,0.209362146969206));
#948=CARTESIAN_POINT('',(0.0716304718760973,0.0296703129302641,0.209362146969206));
#949=CARTESIAN_POINT('',(0.0775322640619514,1.49405494588226E-17,0.209362146969206));
#950=CARTESIAN_POINT('',(0.0716304718760973,-0.0296703129302641,0.209362146969206));
#951=CARTESIAN_POINT('',(0.0548235896789519,-0.0548235896789519,0.209362146969206));
#952=CARTESIAN_POINT('',(0.0296703129302641,-0.0716304718760973,0.209362146969206));
#953=CARTESIAN_POINT('',(1.15467531369706E-17,-0.0775322640619514,0.209362146969206));
#954=CARTESIAN_POINT('',(-0.0296703129302641,-0.0716304718760973,0.209362146969206));
#955=CARTESIAN_POINT('',(-0.0548235896789519,-0.0548235896789519,0.209362146969206));
#956=CARTESIAN_POINT('',(-0.0716304718760974,-0.0296703129302639,0.209362146969206));
#957=CARTESIAN_POINT('',(-0.0775322640619514,-5.89805981832114E-17,0.209362146969206));
#958=CARTESIAN_POINT('',(-0.0716304718760973,0.0296703129302641,0.209362146969206));
#959=CARTESIAN_POINT('',(-0.0680744707863728,-0.0281973690510865,0.213320490127327));
#960=CARTESIAN_POINT('',(-0.0736832762182022,-5.5944832100252E-17,0.213320490127327));
#961=CARTESIAN_POINT('',(-0.0680744707863726,0.0281973690510866,0.213320490127327));
#962=CARTESIAN_POINT('',(-0.0521019442739323,0.0521019442739322,0.213320490127327));
#963=CARTESIAN_POINT('',(-0.0281973690510866,0.0680744707863726,0.213320490127327));
#964=CARTESIAN_POINT('',(-2.61292723569007E-17,0.0736832762182023,0.213320490127327));
#965=CARTESIAN_POINT('',(0.0281973690510866,0.0680744707863726,0.213320490127327));
#966=CARTESIAN_POINT('',(0.0521019442739322,0.0521019442739322,0.213320490127327));
#967=CARTESIAN_POINT('',(0.0680744707863727,0.0281973690510866,0.213320490127327));
#968=CARTESIAN_POINT('',(0.0736832762182022,6.35068246159832E-18,0.213320490127327));
#969=CARTESIAN_POINT('',(0.0680744707863726,-0.0281973690510866,0.213320490127327));
#970=CARTESIAN_POINT('',(0.0521019442739323,-0.0521019442739322,0.213320490127327));
#971=CARTESIAN_POINT('',(0.0281973690510867,-0.0680744707863726,0.213320490127327));
#972=CARTESIAN_POINT('',(1.33356867215717E-17,-0.0736832762182023,0.213320490127327));
#973=CARTESIAN_POINT('',(-0.0281973690510866,-0.0680744707863727,0.213320490127327));
#974=CARTESIAN_POINT('',(-0.0521019442739323,-0.0521019442739322,0.213320490127327));
#975=CARTESIAN_POINT('',(-0.0680744707863728,-0.0281973690510865,0.213320490127327));
#976=CARTESIAN_POINT('',(-0.0736832762182022,-5.5944832100252E-17,0.213320490127327));
#977=CARTESIAN_POINT('',(-0.0680744707863726,0.0281973690510866,0.213320490127327));
#978=CARTESIAN_POINT('',(-0.0651964095140245,-0.0270052370387391,0.217485134505527));
#979=CARTESIAN_POINT('',(-0.0705680851450488,-4.85722573273506E-17,0.217485134505527));
#980=CARTESIAN_POINT('',(-0.0651964095140245,0.0270052370387392,0.217485134505527));
#981=CARTESIAN_POINT('',(-0.0498991715414137,0.0498991715414137,0.217485134505527));
#982=CARTESIAN_POINT('',(-0.0270052370387392,0.0651964095140245,0.217485134505527));
#983=CARTESIAN_POINT('',(-7.31836466427715E-18,0.0705680851450488,0.217485134505527));
#984=CARTESIAN_POINT('',(0.0270052370387392,0.0651964095140245,0.217485134505527));
#985=CARTESIAN_POINT('',(0.0498991715414138,0.0498991715414138,0.217485134505527));
#986=CARTESIAN_POINT('',(0.0651964095140243,0.0270052370387392,0.217485134505527));
#987=CARTESIAN_POINT('',(0.0705680851450489,1.64464152203631E-17,0.217485134505527));
#988=CARTESIAN_POINT('',(0.0651964095140245,-0.0270052370387392,0.217485134505527));
#989=CARTESIAN_POINT('',(0.0498991715414137,-0.0498991715414137,0.217485134505527));
#990=CARTESIAN_POINT('',(0.0270052370387392,-0.0651964095140245,0.217485134505527));
#991=CARTESIAN_POINT('',(1.99493199737333E-17,-0.0705680851450489,0.217485134505527));
#992=CARTESIAN_POINT('',(-0.0270052370387392,-0.0651964095140244,0.217485134505527));
#993=CARTESIAN_POINT('',(-0.0498991715414138,-0.0498991715414137,0.217485134505527));
#994=CARTESIAN_POINT('',(-0.0651964095140245,-0.0270052370387391,0.217485134505527));
#995=CARTESIAN_POINT('',(-0.0705680851450488,-4.85722573273506E-17,0.217485134505527));
#996=CARTESIAN_POINT('',(-0.0651964095140245,0.0270052370387392,0.217485134505527));
#997=CARTESIAN_POINT('',(-0.0629962880590527,-0.0260939168932217,0.221856080103807));
#998=CARTESIAN_POINT('',(-0.0681866908424914,-4.90059381963448E-17,0.221856080103807));
#999=CARTESIAN_POINT('',(-0.0629962880590526,0.0260939168932219,0.221856080103807));
#1000=CARTESIAN_POINT('',(-0.0482152714813964,0.0482152714813963,0.221856080103807));
#1001=CARTESIAN_POINT('',(-0.0260939168932218,0.0629962880590526,0.221856080103807));
#1002=CARTESIAN_POINT('',(-2.21990394816407E-17,0.0681866908424914,0.221856080103807));
#1003=CARTESIAN_POINT('',(0.0260939168932218,0.0629962880590526,0.221856080103807));
#1004=CARTESIAN_POINT('',(0.0482152714813963,0.0482152714813964,0.221856080103807));
#1005=CARTESIAN_POINT('',(0.0629962880590526,0.0260939168932219,0.221856080103807));
#1006=CARTESIAN_POINT('',(0.0681866908424914,7.57692147142653E-18,0.221856080103807));
#1007=CARTESIAN_POINT('',(0.0629962880590526,-0.0260939168932218,0.221856080103807));
#1008=CARTESIAN_POINT('',(0.0482152714813964,-0.0482152714813963,0.221856080103807));
#1009=CARTESIAN_POINT('',(0.0260939168932219,-0.0629962880590526,0.221856080103807));
#1010=CARTESIAN_POINT('',(1.52330405234213E-17,-0.0681866908424914,0.221856080103807));
#1011=CARTESIAN_POINT('',(-0.0260939168932218,-0.0629962880590526,0.221856080103807));
#1012=CARTESIAN_POINT('',(-0.0482152714813964,-0.0482152714813963,0.221856080103807));
#1013=CARTESIAN_POINT('',(-0.0629962880590527,-0.0260939168932217,0.221856080103807));
#1014=CARTESIAN_POINT('',(-0.0681866908424914,-4.90059381963448E-17,0.221856080103807));
#1015=CARTESIAN_POINT('',(-0.0629962880590526,0.0260939168932219,0.221856080103807));
#1016=CARTESIAN_POINT('',(0.,0.,0.221856080103807));
#1017=CARTESIAN_POINT('',(-0.0664565565813453,0.,0.221856080103807));
#1018=CARTESIAN_POINT('',(0.,0.,0.209362146969206));
#1019=CARTESIAN_POINT('',(-0.075565,0.,0.209362146969206));
#1020=CARTESIAN_POINT('',(-0.03175,0.,0.2286));
#1021=CARTESIAN_POINT('',(0.003175,-0.0538756841669814,0.2286));
#1022=CARTESIAN_POINT('',(0.003175,-0.0507006841669814,0.2286));
#1023=CARTESIAN_POINT('',(0.003175,-0.0551485034436759,0.2286));
#1024=CARTESIAN_POINT('',(0.,0.,0.2286));
#1025=CARTESIAN_POINT('',(0.0551485034436759,-0.003175,0.2286));
#1026=CARTESIAN_POINT('',(0.0538756841669814,-0.003175,0.2286));
#1027=CARTESIAN_POINT('',(0.0507006841669814,-0.003175,0.2286));
#1028=CARTESIAN_POINT('',(6.93889390390723E-18,-1.95156391047391E-18,0.2286));
#1029=CARTESIAN_POINT('',(-0.03175,0.,0.2286));
#1030=CARTESIAN_POINT('',(0.0538756841669814,0.003175,0.2286));
#1031=CARTESIAN_POINT('',(0.0507006841669814,0.003175,0.2286));
#1032=CARTESIAN_POINT('',(0.0551485034436759,0.003175,0.2286));
#1033=CARTESIAN_POINT('',(0.,0.,0.2286));
#1034=CARTESIAN_POINT('',(0.003175,0.0551485034436759,0.2286));
#1035=CARTESIAN_POINT('',(0.003175,0.0538756841669814,0.2286));
#1036=CARTESIAN_POINT('',(0.003175,0.0507006841669814,0.2286));
#1037=CARTESIAN_POINT('',(-1.49619899803E-17,-2.16840434497101E-18,0.2286));
#1038=CARTESIAN_POINT('',(-0.03175,0.,0.2286));
#1039=CARTESIAN_POINT('',(-0.003175,0.0538756841669814,0.2286));
#1040=CARTESIAN_POINT('',(-0.003175,0.0507006841669814,0.2286));
#1041=CARTESIAN_POINT('',(-0.003175,0.0551485034436759,0.2286));
#1042=CARTESIAN_POINT('',(0.,0.,0.2286));
#1043=CARTESIAN_POINT('',(-0.0551485034436759,0.003175,0.2286));
#1044=CARTESIAN_POINT('',(-0.0538756841669814,0.003175,0.2286));
#1045=CARTESIAN_POINT('',(-0.0507006841669814,0.003175,0.2286));
#1046=CARTESIAN_POINT('',(6.93889390390723E-18,-1.27935856353289E-17,0.2286));
#1047=CARTESIAN_POINT('',(-0.03175,0.,0.2286));
#1048=CARTESIAN_POINT('',(-0.0538756841669814,-0.003175,0.2286));
#1049=CARTESIAN_POINT('',(-0.0507006841669814,-0.00317500000000003,0.2286));
#1050=CARTESIAN_POINT('',(-0.0551485034436759,-0.003175,0.2286));
#1051=CARTESIAN_POINT('',(0.,0.,0.2286));
#1052=CARTESIAN_POINT('',(-0.003175,-0.0551485034436759,0.2286));
#1053=CARTESIAN_POINT('',(-0.003175,-0.0538756841669814,0.2286));
#1054=CARTESIAN_POINT('',(-0.003175,-0.0507006841669814,0.2286));
#1055=CARTESIAN_POINT('',(2.08166817117217E-17,-1.0842021724855E-18,0.2286));
#1056=CARTESIAN_POINT('',(-0.003175,0.0538756841669814,0.1016));
#1057=CARTESIAN_POINT('',(-0.003175,0.0570506841669814,0.1016));
#1058=CARTESIAN_POINT('',(-0.003175,0.0570506841669814,0.1016));
#1059=CARTESIAN_POINT('',(-0.003175,0.0570506841669814,0.228457199706765));
#1060=CARTESIAN_POINT('',(-0.003175,0.0570506841669814,0.228457199706765));
#1061=CARTESIAN_POINT('',(-0.003175,0.056420197859575,0.228552406623991));
#1062=CARTESIAN_POINT('',(-0.003175,0.0557861371138598,0.2286));
#1063=CARTESIAN_POINT('',(-0.003175,0.0551485034436759,0.2286));
#1064=CARTESIAN_POINT('',(-0.003175,0.0507006841669814,0.1016));
#1065=CARTESIAN_POINT('',(-0.003175,0.0507006841669814,0.1016));
#1066=CARTESIAN_POINT('',(-0.003175,0.0538756841669814,0.1016));
#1067=CARTESIAN_POINT('',(6.93889390390723E-18,-1.27935856353289E-17,0.1016));
#1068=CARTESIAN_POINT('',(-0.0507006841669814,0.003175,0.1016));
#1069=CARTESIAN_POINT('',(-0.0507006841669814,0.003175,0.1016));
#1070=CARTESIAN_POINT('',(6.93889390390723E-18,-1.27935856353289E-17,0.1016));
#1071=CARTESIAN_POINT('',(-0.0538756841669814,0.003175,0.1016));
#1072=CARTESIAN_POINT('',(-0.0551485034436759,0.003175,0.2286));
#1073=CARTESIAN_POINT('',(-0.0557861371138598,0.003175,0.2286));
#1074=CARTESIAN_POINT('',(-0.056420197859575,0.003175,0.228552406623991));
#1075=CARTESIAN_POINT('',(-0.0570506841669814,0.003175,0.228457199706765));
#1076=CARTESIAN_POINT('',(-0.0570506841669814,0.003175,0.228457199706765));
#1077=CARTESIAN_POINT('',(-0.0570506841669814,0.003175,0.1016));
#1078=CARTESIAN_POINT('',(-0.0570506841669814,0.003175,0.1016));
#1079=CARTESIAN_POINT('',(-0.0538756841669814,0.003175,0.1016));
#1080=CARTESIAN_POINT('',(-0.0570506841669814,6.93889390390723E-18,0.1016));
#1081=CARTESIAN_POINT('',(-0.0570506841669814,0.003175,0.228457199706765));
#1082=CARTESIAN_POINT('',(-0.0570506841669814,0.00105833333333333,0.228474987750438));
#1083=CARTESIAN_POINT('',(-0.0570506841669814,-0.00105833333333333,0.228474987750438));
#1084=CARTESIAN_POINT('',(-0.0570506841669814,-0.003175,0.228457199706765));
#1085=CARTESIAN_POINT('',(-0.0570506841669814,-0.003175,0.228457199706765));
#1086=CARTESIAN_POINT('',(-0.0570506841669814,-0.003175,0.1016));
#1087=CARTESIAN_POINT('',(-0.0570506841669814,-0.003175,0.1016));
#1088=CARTESIAN_POINT('',(-0.0570506841669814,6.93889390390723E-18,0.1016));
#1089=CARTESIAN_POINT('',(-0.0538756841669814,-0.003175,0.1016));
#1090=CARTESIAN_POINT('',(-0.0570506841669814,-0.003175,0.228457199706765));
#1091=CARTESIAN_POINT('',(-0.056420197859575,-0.003175,0.228552406623991));
#1092=CARTESIAN_POINT('',(-0.0557861371138598,-0.003175,0.2286));
#1093=CARTESIAN_POINT('',(-0.0551485034436759,-0.003175,0.2286));
#1094=CARTESIAN_POINT('',(-0.0507006841669814,-0.00317500000000003,0.1016));
#1095=CARTESIAN_POINT('',(-0.0507006841669814,-0.00317500000000003,0.1016));
#1096=CARTESIAN_POINT('',(-0.0538756841669814,-0.003175,0.1016));
#1097=CARTESIAN_POINT('',(2.08166817117217E-17,-1.0842021724855E-18,0.1016));
#1098=CARTESIAN_POINT('',(-0.003175,-0.0507006841669814,0.1016));
#1099=CARTESIAN_POINT('',(-0.003175,-0.0507006841669814,0.1016));
#1100=CARTESIAN_POINT('',(2.08166817117217E-17,-1.0842021724855E-18,0.1016));
#1101=CARTESIAN_POINT('',(-0.003175,-0.0538756841669814,0.1016));
#1102=CARTESIAN_POINT('',(-0.003175,-0.0551485034436759,0.2286));
#1103=CARTESIAN_POINT('',(-0.003175,-0.0557861371138598,0.2286));
#1104=CARTESIAN_POINT('',(-0.003175,-0.056420197859575,0.228552406623991));
#1105=CARTESIAN_POINT('',(-0.003175,-0.0570506841669814,0.228457199706765));
#1106=CARTESIAN_POINT('',(-0.003175,-0.0570506841669814,0.228457199706765));
#1107=CARTESIAN_POINT('',(-0.003175,-0.0570506841669814,0.1016));
#1108=CARTESIAN_POINT('',(-0.003175,-0.0570506841669814,0.1016));
#1109=CARTESIAN_POINT('',(-0.003175,-0.0538756841669814,0.1016));
#1110=CARTESIAN_POINT('',(-1.04083408558608E-17,-0.0570506841669814,0.1016));
#1111=CARTESIAN_POINT('',(-0.003175,-0.0570506841669814,0.228457199706765));
#1112=CARTESIAN_POINT('',(-0.00105833333333333,-0.0570506841669814,0.228474987750438));
#1113=CARTESIAN_POINT('',(0.00105833333333333,-0.0570506841669814,0.228474987750438));
#1114=CARTESIAN_POINT('',(0.003175,-0.0570506841669814,0.228457199706765));
#1115=CARTESIAN_POINT('',(0.003175,-0.0570506841669814,0.228457199706765));
#1116=CARTESIAN_POINT('',(0.003175,-0.0570506841669814,0.1016));
#1117=CARTESIAN_POINT('',(0.003175,-0.0570506841669814,0.1016));
#1118=CARTESIAN_POINT('',(-1.04083408558608E-17,-0.0570506841669814,0.1016));
#1119=CARTESIAN_POINT('',(0.003175,-0.0538756841669814,0.1016));
#1120=CARTESIAN_POINT('',(0.003175,-0.0570506841669814,0.228457199706765));
#1121=CARTESIAN_POINT('',(0.003175,-0.056420197859575,0.228552406623991));
#1122=CARTESIAN_POINT('',(0.003175,-0.0557861371138598,0.2286));
#1123=CARTESIAN_POINT('',(0.003175,-0.0551485034436759,0.2286));
#1124=CARTESIAN_POINT('',(0.003175,-0.0507006841669814,0.1016));
#1125=CARTESIAN_POINT('',(0.003175,-0.0507006841669814,0.1016));
#1126=CARTESIAN_POINT('',(0.003175,-0.0538756841669814,0.1016));
#1127=CARTESIAN_POINT('',(6.93889390390723E-18,-1.95156391047391E-18,0.1016));
#1128=CARTESIAN_POINT('',(0.0507006841669814,-0.003175,0.1016));
#1129=CARTESIAN_POINT('',(0.0507006841669814,-0.003175,0.1016));
#1130=CARTESIAN_POINT('',(6.93889390390723E-18,-1.95156391047391E-18,0.1016));
#1131=CARTESIAN_POINT('',(0.0538756841669814,-0.003175,0.1016));
#1132=CARTESIAN_POINT('',(0.0551485034436759,-0.003175,0.2286));
#1133=CARTESIAN_POINT('',(0.0557861371138598,-0.003175,0.2286));
#1134=CARTESIAN_POINT('',(0.056420197859575,-0.003175,0.228552406623991));
#1135=CARTESIAN_POINT('',(0.0570506841669814,-0.003175,0.228457199706765));
#1136=CARTESIAN_POINT('',(0.0570506841669814,-0.003175,0.228457199706765));
#1137=CARTESIAN_POINT('',(0.0570506841669814,-0.003175,0.1016));
#1138=CARTESIAN_POINT('',(0.0570506841669814,-0.003175,0.1016));
#1139=CARTESIAN_POINT('',(0.0538756841669814,-0.003175,0.1016));
#1140=CARTESIAN_POINT('',(0.0570506841669814,-1.38777878078145E-17,0.1016));
#1141=CARTESIAN_POINT('',(0.0570506841669814,-0.003175,0.228457199706765));
#1142=CARTESIAN_POINT('',(0.0570506841669814,-0.00105833333333333,0.228474987750438));
#1143=CARTESIAN_POINT('',(0.0570506841669814,0.00105833333333333,0.228474987750438));
#1144=CARTESIAN_POINT('',(0.0570506841669814,0.003175,0.228457199706765));
#1145=CARTESIAN_POINT('',(0.0570506841669814,0.003175,0.228457199706765));
#1146=CARTESIAN_POINT('',(0.0570506841669814,0.003175,0.1016));
#1147=CARTESIAN_POINT('',(0.0570506841669814,0.003175,0.1016));
#1148=CARTESIAN_POINT('',(0.0570506841669814,-1.38777878078145E-17,0.1016));
#1149=CARTESIAN_POINT('',(0.0538756841669814,0.003175,0.1016));
#1150=CARTESIAN_POINT('',(0.0570506841669814,0.003175,0.228457199706765));
#1151=CARTESIAN_POINT('',(0.056420197859575,0.003175,0.228552406623991));
#1152=CARTESIAN_POINT('',(0.0557861371138598,0.003175,0.2286));
#1153=CARTESIAN_POINT('',(0.0551485034436759,0.003175,0.2286));
#1154=CARTESIAN_POINT('',(0.0507006841669814,0.003175,0.1016));
#1155=CARTESIAN_POINT('',(0.0507006841669814,0.003175,0.1016));
#1156=CARTESIAN_POINT('',(0.0538756841669814,0.003175,0.1016));
#1157=CARTESIAN_POINT('',(-1.49619899803E-17,-2.16840434497101E-18,0.1016));
#1158=CARTESIAN_POINT('',(0.003175,0.0507006841669814,0.1016));
#1159=CARTESIAN_POINT('',(0.003175,0.0507006841669814,0.1016));
#1160=CARTESIAN_POINT('',(-1.49619899803E-17,-2.16840434497101E-18,0.1016));
#1161=CARTESIAN_POINT('',(0.003175,0.0538756841669814,0.1016));
#1162=CARTESIAN_POINT('',(0.003175,0.0551485034436759,0.2286));
#1163=CARTESIAN_POINT('',(0.003175,0.0557861371138598,0.2286));
#1164=CARTESIAN_POINT('',(0.003175,0.056420197859575,0.228552406623991));
#1165=CARTESIAN_POINT('',(0.003175,0.0570506841669814,0.228457199706765));
#1166=CARTESIAN_POINT('',(0.003175,0.0570506841669814,0.228457199706765));
#1167=CARTESIAN_POINT('',(0.003175,0.0570506841669814,0.1016));
#1168=CARTESIAN_POINT('',(0.003175,0.0570506841669814,0.1016));
#1169=CARTESIAN_POINT('',(0.003175,0.0538756841669814,0.1016));
#1170=CARTESIAN_POINT('',(4.33680868994202E-19,0.0570506841669814,0.1016));
#1171=CARTESIAN_POINT('',(0.003175,0.0570506841669814,0.228457199706765));
#1172=CARTESIAN_POINT('',(0.00105833333333333,0.0570506841669814,0.228474987750438));
#1173=CARTESIAN_POINT('',(-0.00105833333333333,0.0570506841669814,0.228474987750438));
#1174=CARTESIAN_POINT('',(-0.003175,0.0570506841669814,0.228457199706765));
#1175=CARTESIAN_POINT('',(4.33680868994202E-19,0.0570506841669814,0.1016));
#1176=CARTESIAN_POINT('',(0.,0.,0.1016));
#1177=CARTESIAN_POINT('',(0.,2.52736483174035E-18,0.1016));
#1178=CARTESIAN_POINT('',(0.041275,2.52736483174035E-18,0.1016));
#1179=CARTESIAN_POINT('',(0.,2.52736483174035E-18,-0.103886));
#1180=CARTESIAN_POINT('',(0.,2.52736483174035E-18,-0.103886));
#1181=CARTESIAN_POINT('',(0.041275,2.52736483174035E-18,-0.103886));
#1182=CARTESIAN_POINT('',(0.,-6.93889390390723E-18,-0.103886));
#1183=CARTESIAN_POINT('',(0.,0.,0.2159));
#1184=CARTESIAN_POINT('',(0.0592696903990564,-0.0592696903990564,0.1905));
#1185=CARTESIAN_POINT('',(0.0347193807981128,-0.08382,0.19692657892873));
#1186=CARTESIAN_POINT('',(0.0387459264899419,-0.0797934543081709,0.198354384680241));
#1187=CARTESIAN_POINT('',(0.0468259644725132,-0.0717134163255996,0.20085454520113));
#1188=CARTESIAN_POINT('',(0.0570521123371204,-0.0614872684609924,0.202118929305216));
#1189=CARTESIAN_POINT('',(0.0653545183536524,-0.0531848624444604,0.201650107545491));
#1190=CARTESIAN_POINT('',(0.0736681463710199,-0.0448712344270929,0.200249683640902));
#1191=CARTESIAN_POINT('',(0.0797693188631279,-0.0387700619349849,0.198362943064992));
#1192=CARTESIAN_POINT('',(0.08382,-0.0347193807981128,0.19692657892873));
#1193=CARTESIAN_POINT('',(0.0347193807981128,-0.08382,0.19692657892873));
#1194=CARTESIAN_POINT('',(0.08382,-0.0347193807981128,0.19692657892873));
#1195=CARTESIAN_POINT('',(0.08382,-0.0347193807981128,0.1905));
#1196=CARTESIAN_POINT('',(0.08382,-0.0347193807981128,0.1905));
#1197=CARTESIAN_POINT('',(0.0592696903990564,-0.0592696903990564,0.1905));
#1198=CARTESIAN_POINT('',(0.0347193807981128,-0.08382,0.1905));
#1199=CARTESIAN_POINT('',(0.0347193807981128,-0.08382,0.1905));
#1200=CARTESIAN_POINT('',(0.08382,0.,0.1905));
#1201=CARTESIAN_POINT('',(0.08382,-0.0347193807981128,0.19692657892873));
#1202=CARTESIAN_POINT('',(0.08382,-0.0290249852712132,0.198354384680241));
#1203=CARTESIAN_POINT('',(0.08382,-0.0175980859717709,0.20085454520113));
#1204=CARTESIAN_POINT('',(0.0838199999999999,-0.00313612897081097,0.202118929305216));
#1205=CARTESIAN_POINT('',(0.0838200000000001,0.00860524621809662,0.20165010754549));
#1206=CARTESIAN_POINT('',(0.0838199999999999,0.0203624917127826,0.200249683640902));
#1207=CARTESIAN_POINT('',(0.08382,0.0289908525974994,0.198362943064992));
#1208=CARTESIAN_POINT('',(0.08382,0.0347193807981128,0.19692657892873));
#1209=CARTESIAN_POINT('',(0.08382,0.0347193807981128,0.19692657892873));
#1210=CARTESIAN_POINT('',(0.08382,0.0347193807981128,0.1905));
#1211=CARTESIAN_POINT('',(0.08382,0.0347193807981128,0.1905));
#1212=CARTESIAN_POINT('',(0.08382,0.,0.1905));
#1213=CARTESIAN_POINT('',(0.0592696903990564,0.0592696903990564,0.1905));
#1214=CARTESIAN_POINT('',(0.08382,0.0347193807981128,0.19692657892873));
#1215=CARTESIAN_POINT('',(0.0797934543081709,0.0387459264899419,0.198354384680241));
#1216=CARTESIAN_POINT('',(0.0717134163255995,0.0468259644725132,0.20085454520113));
#1217=CARTESIAN_POINT('',(0.0614872684609925,0.0570521123371204,0.202118929305216));
#1218=CARTESIAN_POINT('',(0.0531848624444604,0.0653545183536524,0.201650107545491));
#1219=CARTESIAN_POINT('',(0.044871234427093,0.0736681463710198,0.200249683640902));
#1220=CARTESIAN_POINT('',(0.0387700619349849,0.0797693188631279,0.198362943064992));
#1221=CARTESIAN_POINT('',(0.0347193807981128,0.08382,0.19692657892873));
#1222=CARTESIAN_POINT('',(0.0347193807981128,0.08382,0.19692657892873));
#1223=CARTESIAN_POINT('',(0.0347193807981128,0.08382,0.1905));
#1224=CARTESIAN_POINT('',(0.0347193807981128,0.08382,0.1905));
#1225=CARTESIAN_POINT('',(0.0592696903990564,0.0592696903990564,0.1905));
#1226=CARTESIAN_POINT('',(6.93889390390723E-18,0.08382,0.1905));
#1227=CARTESIAN_POINT('',(0.0347193807981128,0.08382,0.19692657892873));
#1228=CARTESIAN_POINT('',(0.0290249852712132,0.08382,0.198354384680241));
#1229=CARTESIAN_POINT('',(0.017598085971771,0.08382,0.20085454520113));
#1230=CARTESIAN_POINT('',(0.00313612897081092,0.08382,0.202118929305216));
#1231=CARTESIAN_POINT('',(-0.00860524621809667,0.0838200000000001,0.20165010754549));
#1232=CARTESIAN_POINT('',(-0.0203624917127825,0.0838199999999999,0.200249683640902));
#1233=CARTESIAN_POINT('',(-0.0289908525974994,0.08382,0.198362943064992));
#1234=CARTESIAN_POINT('',(-0.0347193807981128,0.08382,0.19692657892873));
#1235=CARTESIAN_POINT('',(-0.0347193807981128,0.08382,0.19692657892873));
#1236=CARTESIAN_POINT('',(-0.0347193807981128,0.08382,0.1905));
#1237=CARTESIAN_POINT('',(-0.0347193807981128,0.08382,0.1905));
#1238=CARTESIAN_POINT('',(6.93889390390723E-18,0.08382,0.1905));
#1239=CARTESIAN_POINT('',(-0.0592696903990564,0.0592696903990564,0.1905));
#1240=CARTESIAN_POINT('',(-0.0347193807981128,0.08382,0.19692657892873));
#1241=CARTESIAN_POINT('',(-0.0387459264899419,0.079793454308171,0.198354384680241));
#1242=CARTESIAN_POINT('',(-0.0468259644725132,0.0717134163255995,0.20085454520113));
#1243=CARTESIAN_POINT('',(-0.0570521123371204,0.0614872684609925,0.202118929305216));
#1244=CARTESIAN_POINT('',(-0.0653545183536524,0.0531848624444604,0.20165010754549));
#1245=CARTESIAN_POINT('',(-0.0736681463710198,0.044871234427093,0.200249683640902));
#1246=CARTESIAN_POINT('',(-0.0797693188631279,0.0387700619349849,0.198362943064992));
#1247=CARTESIAN_POINT('',(-0.08382,0.0347193807981128,0.19692657892873));
#1248=CARTESIAN_POINT('',(-0.08382,0.0347193807981128,0.19692657892873));
#1249=CARTESIAN_POINT('',(-0.08382,0.0347193807981128,0.1905));
#1250=CARTESIAN_POINT('',(-0.08382,0.0347193807981128,0.1905));
#1251=CARTESIAN_POINT('',(-0.0592696903990564,0.0592696903990564,0.1905));
#1252=CARTESIAN_POINT('',(-0.08382,6.93889390390723E-18,0.1905));
#1253=CARTESIAN_POINT('',(-0.08382,0.0347193807981128,0.19692657892873));
#1254=CARTESIAN_POINT('',(-0.08382,0.0290249852712132,0.198354384680241));
#1255=CARTESIAN_POINT('',(-0.0838199999999999,0.0175980859717711,0.20085454520113));
#1256=CARTESIAN_POINT('',(-0.08382,0.00313612897081096,0.202118929305216));
#1257=CARTESIAN_POINT('',(-0.08382,-0.00860524621809661,0.20165010754549));
#1258=CARTESIAN_POINT('',(-0.08382,-0.0203624917127825,0.200249683640902));
#1259=CARTESIAN_POINT('',(-0.08382,-0.0289908525974994,0.198362943064992));
#1260=CARTESIAN_POINT('',(-0.08382,-0.0347193807981128,0.19692657892873));
#1261=CARTESIAN_POINT('',(-0.08382,-0.0347193807981128,0.19692657892873));
#1262=CARTESIAN_POINT('',(-0.08382,-0.0347193807981128,0.1905));
#1263=CARTESIAN_POINT('',(-0.08382,-0.0347193807981128,0.1905));
#1264=CARTESIAN_POINT('',(-0.08382,6.93889390390723E-18,0.1905));
#1265=CARTESIAN_POINT('',(-0.0592696903990564,-0.0592696903990564,0.1905));
#1266=CARTESIAN_POINT('',(-0.08382,-0.0347193807981128,0.19692657892873));
#1267=CARTESIAN_POINT('',(-0.0797934543081709,-0.0387459264899419,0.198354384680241));
#1268=CARTESIAN_POINT('',(-0.0717134163255996,-0.0468259644725132,0.20085454520113));
#1269=CARTESIAN_POINT('',(-0.0614872684609924,-0.0570521123371204,0.202118929305216));
#1270=CARTESIAN_POINT('',(-0.0531848624444604,-0.0653545183536524,0.201650107545491));
#1271=CARTESIAN_POINT('',(-0.0448712344270931,-0.0736681463710198,0.200249683640902));
#1272=CARTESIAN_POINT('',(-0.0387700619349849,-0.0797693188631279,0.198362943064992));
#1273=CARTESIAN_POINT('',(-0.0347193807981128,-0.08382,0.19692657892873));
#1274=CARTESIAN_POINT('',(-0.0347193807981128,-0.08382,0.19692657892873));
#1275=CARTESIAN_POINT('',(-0.0347193807981128,-0.08382,0.1905));
#1276=CARTESIAN_POINT('',(-0.0347193807981128,-0.08382,0.1905));
#1277=CARTESIAN_POINT('',(-0.0592696903990564,-0.0592696903990564,0.1905));
#1278=CARTESIAN_POINT('',(0.,4.62702176887849E-18,0.1905));
#1279=CARTESIAN_POINT('',(0.,4.62702176887849E-18,0.1905));
#1280=CARTESIAN_POINT('',(0.075565,4.62702176887849E-18,0.1905));
#1281=CARTESIAN_POINT('',(-1.38777878078145E-17,-0.08382,0.1905));
#1282=CARTESIAN_POINT('',(-0.0347193807981128,-0.08382,0.19692657892873));
#1283=CARTESIAN_POINT('',(-0.0290249852712132,-0.08382,0.198354384680241));
#1284=CARTESIAN_POINT('',(-0.0175980859717711,-0.08382,0.20085454520113));
#1285=CARTESIAN_POINT('',(-0.00313612897081093,-0.08382,0.202118929305216));
#1286=CARTESIAN_POINT('',(0.00860524621809658,-0.08382,0.20165010754549));
#1287=CARTESIAN_POINT('',(0.0203624917127826,-0.08382,0.200249683640902));
#1288=CARTESIAN_POINT('',(0.0289908525974994,-0.08382,0.198362943064992));
#1289=CARTESIAN_POINT('',(0.0347193807981128,-0.08382,0.19692657892873));
#1290=CARTESIAN_POINT('',(-1.38777878078145E-17,-0.08382,0.1905));
#1291=CARTESIAN_POINT('',(0.,0.,0.1905));
#1292=CARTESIAN_POINT('',(-0.03175,0.,-0.127));
#1293=CARTESIAN_POINT('',(0.,0.,-0.127));
#1294=CARTESIAN_POINT('',(-0.0635,0.,-0.127));
#1295=CARTESIAN_POINT('',(-0.327696413365138,-0.065182869364282,-0.000821717517853864));
#1296=CARTESIAN_POINT('',(-0.334116365643673,-1.96023752785379E-16,-0.000821717517853863));
#1297=CARTESIAN_POINT('',(-0.327696413365138,0.0651828693642827,-0.000821717517853864));
#1298=CARTESIAN_POINT('',(-0.308683271695247,0.12786079761387,-0.000821717517853864));
#1299=CARTESIAN_POINT('',(-0.27780760500568,0.185625107116318,-0.000821717517853864));
#1300=CARTESIAN_POINT('',(-0.236255947852045,0.236255947852045,-0.000821717517853864));
#1301=CARTESIAN_POINT('',(-0.185625107116318,0.27780760500568,-0.000821717517853864));
#1302=CARTESIAN_POINT('',(-0.12786079761387,0.308683271695247,-0.000821717517853864));
#1303=CARTESIAN_POINT('',(-0.0651828693642826,0.327696413365138,-0.000821717517853864));
#1304=CARTESIAN_POINT('',(-8.34725558530695E-17,0.334116365643673,-0.000821717517853864));
#1305=CARTESIAN_POINT('',(0.0651828693642826,0.327696413365138,-0.000821717517853864));
#1306=CARTESIAN_POINT('',(0.12786079761387,0.308683271695247,-0.000821717517853864));
#1307=CARTESIAN_POINT('',(0.185625107116318,0.27780760500568,-0.000821717517853864));
#1308=CARTESIAN_POINT('',(0.236255947852045,0.236255947852045,-0.000821717517853864));
#1309=CARTESIAN_POINT('',(0.27780760500568,0.185625107116318,-0.000821717517853864));
#1310=CARTESIAN_POINT('',(0.308683271695247,0.12786079761387,-0.000821717517853864));
#1311=CARTESIAN_POINT('',(0.327696413365138,0.0651828693642822,-0.000821717517853864));
#1312=CARTESIAN_POINT('',(0.334116365643673,1.76503982789129E-16,-0.000821717517853864));
#1313=CARTESIAN_POINT('',(0.327696413365138,-0.0651828693642827,-0.000821717517853864));
#1314=CARTESIAN_POINT('',(0.308683271695247,-0.12786079761387,-0.000821717517853863));
#1315=CARTESIAN_POINT('',(0.27780760500568,-0.185625107116318,-0.000821717517853864));
#1316=CARTESIAN_POINT('',(0.236255947852046,-0.236255947852045,-0.000821717517853864));
#1317=CARTESIAN_POINT('',(0.185625107116317,-0.27780760500568,-0.000821717517853864));
#1318=CARTESIAN_POINT('',(0.127860797613871,-0.308683271695247,-0.000821717517853863));
#1319=CARTESIAN_POINT('',(0.0651828693642817,-0.327696413365138,-0.000821717517853864));
#1320=CARTESIAN_POINT('',(3.4619845916883E-16,-0.334116365643673,-0.000821717517853864));
#1321=CARTESIAN_POINT('',(-0.0651828693642828,-0.327696413365138,-0.000821717517853864));
#1322=CARTESIAN_POINT('',(-0.12786079761387,-0.308683271695247,-0.000821717517853864));
#1323=CARTESIAN_POINT('',(-0.185625107116318,-0.27780760500568,-0.000821717517853864));
#1324=CARTESIAN_POINT('',(-0.236255947852045,-0.236255947852045,-0.000821717517853864));
#1325=CARTESIAN_POINT('',(-0.27780760500568,-0.185625107116318,-0.000821717517853864));
#1326=CARTESIAN_POINT('',(-0.308683271695247,-0.12786079761387,-0.000821717517853863));
#1327=CARTESIAN_POINT('',(-0.327696413365138,-0.065182869364282,-0.000821717517853864));
#1328=CARTESIAN_POINT('',(-0.334116365643673,-1.96023752785379E-16,-0.000821717517853863));
#1329=CARTESIAN_POINT('',(-0.327696413365138,0.0651828693642827,-0.000821717517853864));
#1330=CARTESIAN_POINT('',(-0.151019693379891,-0.030039684731144,-0.00708429413845885));
#1331=CARTESIAN_POINT('',(-0.153978344085468,-9.2374025095765E-17,-0.00708429413845884));
#1332=CARTESIAN_POINT('',(-0.151019693379891,0.0300396847311442,-0.00708429413845885));
#1333=CARTESIAN_POINT('',(-0.142257440550545,0.0589249612245199,-0.00708429413845885));
#1334=CARTESIAN_POINT('',(-0.128028314059732,0.085545784503536,-0.00708429413845885));
#1335=CARTESIAN_POINT('',(-0.10887913125871,0.10887913125871,-0.00708429413845885));
#1336=CARTESIAN_POINT('',(-0.0855457845035361,0.128028314059732,-0.00708429413845885));
#1337=CARTESIAN_POINT('',(-0.0589249612245198,0.142257440550545,-0.00708429413845885));
#1338=CARTESIAN_POINT('',(-0.0300396847311441,0.151019693379891,-0.00708429413845885));
#1339=CARTESIAN_POINT('',(-7.18656633768439E-17,0.153978344085468,-0.00708429413845885));
#1340=CARTESIAN_POINT('',(0.0300396847311443,0.151019693379891,-0.00708429413845885));
#1341=CARTESIAN_POINT('',(0.0589249612245198,0.142257440550545,-0.00708429413845885));
#1342=CARTESIAN_POINT('',(0.0855457845035361,0.128028314059732,-0.00708429413845885));
#1343=CARTESIAN_POINT('',(0.10887913125871,0.10887913125871,-0.00708429413845885));
#1344=CARTESIAN_POINT('',(0.128028314059732,0.0855457845035361,-0.00708429413845885));
#1345=CARTESIAN_POINT('',(0.142257440550544,0.0589249612245199,-0.00708429413845885));
#1346=CARTESIAN_POINT('',(0.151019693379891,0.030039684731144,-0.00708429413845885));
#1347=CARTESIAN_POINT('',(0.153978344085468,7.57721414586027E-17,-0.00708429413845885));
#1348=CARTESIAN_POINT('',(0.151019693379891,-0.0300396847311442,-0.00708429413845885));
#1349=CARTESIAN_POINT('',(0.142257440550545,-0.0589249612245198,-0.00708429413845885));
#1350=CARTESIAN_POINT('',(0.128028314059732,-0.0855457845035363,-0.00708429413845885));
#1351=CARTESIAN_POINT('',(0.10887913125871,-0.10887913125871,-0.00708429413845885));
#1352=CARTESIAN_POINT('',(0.0855457845035359,-0.128028314059732,-0.00708429413845885));
#1353=CARTESIAN_POINT('',(0.05892496122452,-0.142257440550544,-0.00708429413845885));
#1354=CARTESIAN_POINT('',(0.0300396847311439,-0.151019693379891,-0.00708429413845885));
#1355=CARTESIAN_POINT('',(1.10784709720811E-16,-0.153978344085468,-0.00708429413845885));
#1356=CARTESIAN_POINT('',(-0.0300396847311442,-0.151019693379891,-0.00708429413845885));
#1357=CARTESIAN_POINT('',(-0.0589249612245198,-0.142257440550544,-0.00708429413845885));
#1358=CARTESIAN_POINT('',(-0.0855457845035363,-0.128028314059732,-0.00708429413845885));
#1359=CARTESIAN_POINT('',(-0.10887913125871,-0.10887913125871,-0.00708429413845885));
#1360=CARTESIAN_POINT('',(-0.128028314059732,-0.0855457845035361,-0.00708429413845885));
#1361=CARTESIAN_POINT('',(-0.142257440550545,-0.0589249612245196,-0.00708429413845885));
#1362=CARTESIAN_POINT('',(-0.151019693379891,-0.030039684731144,-0.00708429413845885));
#1363=CARTESIAN_POINT('',(-0.153978344085468,-9.2374025095765E-17,-0.00708429413845884));
#1364=CARTESIAN_POINT('',(-0.151019693379891,0.0300396847311442,-0.00708429413845885));
#1365=CARTESIAN_POINT('',(-0.0626813333872679,-0.0124680924145749,-0.0491437216325075));
#1366=CARTESIAN_POINT('',(-0.0639093333063661,-3.96817995129695E-17,-0.0491437216325075));
#1367=CARTESIAN_POINT('',(-0.0626813333872678,0.012468092414575,-0.0491437216325075));
#1368=CARTESIAN_POINT('',(-0.0590445249781935,0.0244570430298447,-0.0491437216325075));
#1369=CARTESIAN_POINT('',(-0.0531386685867584,0.0355061231971453,-0.0491437216325075));
#1370=CARTESIAN_POINT('',(-0.0451907229620428,0.0451907229620427,-0.0491437216325075));
#1371=CARTESIAN_POINT('',(-0.0355061231971453,0.0531386685867584,-0.0491437216325075));
#1372=CARTESIAN_POINT('',(-0.0244570430298448,0.0590445249781936,-0.0491437216325075));
#1373=CARTESIAN_POINT('',(-0.0124680924145751,0.0626813333872678,-0.0491437216325075));
#1374=CARTESIAN_POINT('',(6.4501558933415E-18,0.0639093333063662,-0.0491437216325075));
#1375=CARTESIAN_POINT('',(0.012468092414575,0.0626813333872678,-0.0491437216325075));
#1376=CARTESIAN_POINT('',(0.0244570430298447,0.0590445249781936,-0.0491437216325075));
#1377=CARTESIAN_POINT('',(0.0355061231971453,0.0531386685867584,-0.0491437216325075));
#1378=CARTESIAN_POINT('',(0.0451907229620428,0.0451907229620428,-0.0491437216325075));
#1379=CARTESIAN_POINT('',(0.0531386685867584,0.0355061231971453,-0.0491437216325075));
#1380=CARTESIAN_POINT('',(0.0590445249781936,0.0244570430298448,-0.0491437216325075));
#1381=CARTESIAN_POINT('',(0.0626813333872678,0.012468092414575,-0.0491437216325076));
#1382=CARTESIAN_POINT('',(0.0639093333063662,3.79563001691296E-17,-0.0491437216325075));
#1383=CARTESIAN_POINT('',(0.0626813333872678,-0.0124680924145751,-0.0491437216325075));
#1384=CARTESIAN_POINT('',(0.0590445249781936,-0.0244570430298447,-0.0491437216325075));
#1385=CARTESIAN_POINT('',(0.0531386685867584,-0.0355061231971454,-0.0491437216325076));
#1386=CARTESIAN_POINT('',(0.0451907229620428,-0.0451907229620427,-0.0491437216325075));
#1387=CARTESIAN_POINT('',(0.0355061231971451,-0.0531386685867585,-0.0491437216325075));
#1388=CARTESIAN_POINT('',(0.0244570430298448,-0.0590445249781936,-0.0491437216325075));
#1389=CARTESIAN_POINT('',(0.0124680924145748,-0.0626813333872679,-0.0491437216325075));
#1390=CARTESIAN_POINT('',(7.8141330483051E-17,-0.0639093333063661,-0.0491437216325075));
#1391=CARTESIAN_POINT('',(-0.0124680924145751,-0.0626813333872678,-0.0491437216325075));
#1392=CARTESIAN_POINT('',(-0.0244570430298447,-0.0590445249781936,-0.0491437216325075));
#1393=CARTESIAN_POINT('',(-0.0355061231971453,-0.0531386685867584,-0.0491437216325075));
#1394=CARTESIAN_POINT('',(-0.0451907229620428,-0.0451907229620427,-0.0491437216325075));
#1395=CARTESIAN_POINT('',(-0.0531386685867584,-0.0355061231971453,-0.0491437216325075));
#1396=CARTESIAN_POINT('',(-0.0590445249781936,-0.0244570430298446,-0.0491437216325075));
#1397=CARTESIAN_POINT('',(-0.0626813333872679,-0.0124680924145749,-0.0491437216325075));
#1398=CARTESIAN_POINT('',(-0.0639093333063661,-3.96817995129695E-17,-0.0491437216325075));
#1399=CARTESIAN_POINT('',(-0.0626813333872678,0.012468092414575,-0.0491437216325075));
#1400=CARTESIAN_POINT('',(-0.0626813333872678,-0.0124680924145749,-0.127));
#1401=CARTESIAN_POINT('',(-0.0639093333063661,-3.88144377749811E-17,-0.127));
#1402=CARTESIAN_POINT('',(-0.0626813333872678,0.012468092414575,-0.127));
#1403=CARTESIAN_POINT('',(-0.0590445249781935,0.0244570430298447,-0.127));
#1404=CARTESIAN_POINT('',(-0.0531386685867584,0.0355061231971452,-0.127));
#1405=CARTESIAN_POINT('',(-0.0451907229620428,0.0451907229620428,-0.127));
#1406=CARTESIAN_POINT('',(-0.0355061231971453,0.0531386685867584,-0.127));
#1407=CARTESIAN_POINT('',(-0.0244570430298447,0.0590445249781935,-0.127));
#1408=CARTESIAN_POINT('',(-0.012468092414575,0.0626813333872678,-0.127));
#1409=CARTESIAN_POINT('',(-2.21364649226623E-17,0.0639093333063661,-0.127));
#1410=CARTESIAN_POINT('',(0.012468092414575,0.0626813333872678,-0.127));
#1411=CARTESIAN_POINT('',(0.0244570430298447,0.0590445249781935,-0.127));
#1412=CARTESIAN_POINT('',(0.0355061231971453,0.0531386685867584,-0.127));
#1413=CARTESIAN_POINT('',(0.0451907229620428,0.0451907229620428,-0.127));
#1414=CARTESIAN_POINT('',(0.0531386685867584,0.0355061231971453,-0.127));
#1415=CARTESIAN_POINT('',(0.0590445249781935,0.0244570430298448,-0.127));
#1416=CARTESIAN_POINT('',(0.0626813333872678,0.012468092414575,-0.127));
#1417=CARTESIAN_POINT('',(0.0639093333063661,3.58646202744436E-17,-0.127));
#1418=CARTESIAN_POINT('',(0.0626813333872678,-0.0124680924145751,-0.127));
#1419=CARTESIAN_POINT('',(0.0590445249781936,-0.0244570430298447,-0.127));
#1420=CARTESIAN_POINT('',(0.0531386685867583,-0.0355061231971453,-0.127));
#1421=CARTESIAN_POINT('',(0.0451907229620428,-0.0451907229620427,-0.127));
#1422=CARTESIAN_POINT('',(0.0355061231971451,-0.0531386685867584,-0.127));
#1423=CARTESIAN_POINT('',(0.0244570430298448,-0.0590445249781935,-0.127));
#1424=CARTESIAN_POINT('',(0.0124680924145749,-0.0626813333872678,-0.127));
#1425=CARTESIAN_POINT('',(7.04712353874265E-17,-0.0639093333063661,-0.127));
#1426=CARTESIAN_POINT('',(-0.0124680924145751,-0.0626813333872678,-0.127));
#1427=CARTESIAN_POINT('',(-0.0244570430298447,-0.0590445249781935,-0.127));
#1428=CARTESIAN_POINT('',(-0.0355061231971453,-0.0531386685867583,-0.127));
#1429=CARTESIAN_POINT('',(-0.0451907229620428,-0.0451907229620427,-0.127));
#1430=CARTESIAN_POINT('',(-0.0531386685867584,-0.0355061231971452,-0.127));
#1431=CARTESIAN_POINT('',(-0.0590445249781936,-0.0244570430298446,-0.127));
#1432=CARTESIAN_POINT('',(-0.0626813333872678,-0.0124680924145749,-0.127));
#1433=CARTESIAN_POINT('',(-0.0639093333063661,-3.88144377749811E-17,-0.127));
#1434=CARTESIAN_POINT('',(-0.0626813333872678,0.012468092414575,-0.127));
#1435=CARTESIAN_POINT('',(0.,0.,-0.000821717517853871));
#1436=CARTESIAN_POINT('',(-0.331976381550828,0.,-0.000821717517853871));
#1437=CARTESIAN_POINT('',(0.,0.,0.0499472146019562));
#1438=CARTESIAN_POINT('',(0.,0.,0.0499472146019562));
#1439=CARTESIAN_POINT('',(0.381,0.,0.0499472146019562));
#1440=CARTESIAN_POINT('',(0.,0.,0.1905));
#1441=CARTESIAN_POINT('',(0.,0.,0.13973684585718));
#1442=CARTESIAN_POINT('',(0.381,0.,0.13973684585718));
#1443=CARTESIAN_POINT('',(0.,0.,0.13973684585718));
#1444=CARTESIAN_POINT('',(0.,0.,0.152436627724658));
#1445=CARTESIAN_POINT('',(-0.368374434659212,0.,0.152436627724658));
#1446=CARTESIAN_POINT('',(-0.363625208664888,-0.0723295510944543,0.152436627724658));
#1447=CARTESIAN_POINT('',(-0.370749047656374,-2.25514051876985E-16,0.152436627724658));
#1448=CARTESIAN_POINT('',(-0.363625208664888,0.072329551094455,0.152436627724658));
#1449=CARTESIAN_POINT('',(-0.342527456827776,0.14187951810323,0.152436627724658));
#1450=CARTESIAN_POINT('',(-0.308266566916383,0.205977134798247,0.152436627724658));
#1451=CARTESIAN_POINT('',(-0.262159165716277,0.262159165716277,0.152436627724658));
#1452=CARTESIAN_POINT('',(-0.205977134798247,0.308266566916383,0.152436627724658));
#1453=CARTESIAN_POINT('',(-0.14187951810323,0.342527456827776,0.152436627724658));
#1454=CARTESIAN_POINT('',(-0.0723295510944549,0.363625208664888,0.152436627724658));
#1455=CARTESIAN_POINT('',(-8.40027984780507E-17,0.370749047656374,0.152436627724658));
#1456=CARTESIAN_POINT('',(0.0723295510944549,0.363625208664888,0.152436627724658));
#1457=CARTESIAN_POINT('',(0.141879518103229,0.342527456827776,0.152436627724658));
#1458=CARTESIAN_POINT('',(0.205977134798247,0.308266566916383,0.152436627724658));
#1459=CARTESIAN_POINT('',(0.262159165716277,0.262159165716277,0.152436627724658));
#1460=CARTESIAN_POINT('',(0.308266566916383,0.205977134798247,0.152436627724658));
#1461=CARTESIAN_POINT('',(0.342527456827776,0.14187951810323,0.152436627724658));
#1462=CARTESIAN_POINT('',(0.363625208664888,0.0723295510944545,0.152436627724658));
#1463=CARTESIAN_POINT('',(0.370749047656374,2.04306069843254E-16,0.152436627724658));
#1464=CARTESIAN_POINT('',(0.363625208664888,-0.072329551094455,0.152436627724658));
#1465=CARTESIAN_POINT('',(0.342527456827776,-0.141879518103229,0.152436627724658));
#1466=CARTESIAN_POINT('',(0.308266566916383,-0.205977134798248,0.152436627724658));
#1467=CARTESIAN_POINT('',(0.262159165716277,-0.262159165716277,0.152436627724658));
#1468=CARTESIAN_POINT('',(0.205977134798247,-0.308266566916384,0.152436627724658));
#1469=CARTESIAN_POINT('',(0.14187951810323,-0.342527456827776,0.152436627724658));
#1470=CARTESIAN_POINT('',(0.0723295510944539,-0.363625208664888,0.152436627724658));
#1471=CARTESIAN_POINT('',(3.72984182059853E-16,-0.370749047656374,0.152436627724658));
#1472=CARTESIAN_POINT('',(-0.0723295510944551,-0.363625208664888,0.152436627724658));
#1473=CARTESIAN_POINT('',(-0.141879518103229,-0.342527456827776,0.152436627724658));
#1474=CARTESIAN_POINT('',(-0.205977134798248,-0.308266566916383,0.152436627724658));
#1475=CARTESIAN_POINT('',(-0.262159165716277,-0.262159165716277,0.152436627724658));
#1476=CARTESIAN_POINT('',(-0.308266566916383,-0.205977134798247,0.152436627724658));
#1477=CARTESIAN_POINT('',(-0.342527456827776,-0.141879518103229,0.152436627724658));
#1478=CARTESIAN_POINT('',(-0.363625208664888,-0.0723295510944543,0.152436627724658));
#1479=CARTESIAN_POINT('',(-0.370749047656374,-2.25514051876985E-16,0.152436627724658));
#1480=CARTESIAN_POINT('',(-0.363625208664888,0.072329551094455,0.152436627724658));
#1481=CARTESIAN_POINT('',(-0.214334574446967,-0.0426337976145573,0.153323062947751));
#1482=CARTESIAN_POINT('',(-0.21853363700447,-1.34441069388203E-16,0.153323062947751));
#1483=CARTESIAN_POINT('',(-0.214334574446967,0.0426337976145577,0.153323062947751));
#1484=CARTESIAN_POINT('',(-0.201898754393681,0.0836292022960971,0.153323062947751));
#1485=CARTESIAN_POINT('',(-0.181704078435172,0.121410783633195,0.153323062947751));
#1486=CARTESIAN_POINT('',(-0.15452661664322,0.15452661664322,0.153323062947751));
#1487=CARTESIAN_POINT('',(-0.121410783633195,0.181704078435172,0.153323062947751));
#1488=CARTESIAN_POINT('',(-0.0836292022960972,0.201898754393681,0.153323062947751));
#1489=CARTESIAN_POINT('',(-0.0426337976145577,0.214334574446967,0.153323062947751));
#1490=CARTESIAN_POINT('',(-3.89410692005956E-17,0.21853363700447,0.153323062947751));
#1491=CARTESIAN_POINT('',(0.0426337976145578,0.214334574446967,0.153323062947751));
#1492=CARTESIAN_POINT('',(0.0836292022960972,0.201898754393681,0.153323062947751));
#1493=CARTESIAN_POINT('',(0.121410783633194,0.181704078435172,0.153323062947751));
#1494=CARTESIAN_POINT('',(0.15452661664322,0.15452661664322,0.153323062947751));
#1495=CARTESIAN_POINT('',(0.181704078435172,0.121410783633195,0.153323062947751));
#1496=CARTESIAN_POINT('',(0.201898754393681,0.0836292022960972,0.153323062947751));
#1497=CARTESIAN_POINT('',(0.214334574446967,0.0426337976145574,0.153323062947751));
#1498=CARTESIAN_POINT('',(0.21853363700447,1.25546546871299E-16,0.153323062947751));
#1499=CARTESIAN_POINT('',(0.214334574446967,-0.0426337976145578,0.153323062947751));
#1500=CARTESIAN_POINT('',(0.201898754393681,-0.083629202296097,0.153323062947751));
#1501=CARTESIAN_POINT('',(0.181704078435171,-0.121410783633195,0.153323062947751));
#1502=CARTESIAN_POINT('',(0.154526616643221,-0.15452661664322,0.153323062947751));
#1503=CARTESIAN_POINT('',(0.121410783633194,-0.181704078435172,0.153323062947751));
#1504=CARTESIAN_POINT('',(0.0836292022960974,-0.201898754393681,0.153323062947751));
#1505=CARTESIAN_POINT('',(0.0426337976145571,-0.214334574446967,0.153323062947751));
#1506=CARTESIAN_POINT('',(2.81357240023566E-16,-0.21853363700447,0.153323062947751));
#1507=CARTESIAN_POINT('',(-0.0426337976145577,-0.214334574446967,0.153323062947751));
#1508=CARTESIAN_POINT('',(-0.0836292022960971,-0.201898754393681,0.153323062947751));
#1509=CARTESIAN_POINT('',(-0.121410783633195,-0.181704078435172,0.153323062947751));
#1510=CARTESIAN_POINT('',(-0.15452661664322,-0.15452661664322,0.153323062947751));
#1511=CARTESIAN_POINT('',(-0.181704078435172,-0.121410783633194,0.153323062947751));
#1512=CARTESIAN_POINT('',(-0.201898754393681,-0.0836292022960968,0.153323062947751));
#1513=CARTESIAN_POINT('',(-0.214334574446967,-0.0426337976145573,0.153323062947751));
#1514=CARTESIAN_POINT('',(-0.21853363700447,-1.34441069388203E-16,0.153323062947751));
#1515=CARTESIAN_POINT('',(-0.214334574446967,0.0426337976145577,0.153323062947751));
#1516=CARTESIAN_POINT('',(-0.120102145837543,-0.0238898021559223,0.170299101307876));
#1517=CARTESIAN_POINT('',(-0.122455085977804,-7.24247051220317E-17,0.170299101307876));
#1518=CARTESIAN_POINT('',(-0.120102145837543,0.0238898021559226,0.170299101307876));
#1519=CARTESIAN_POINT('',(-0.113133747586803,0.0468615326125484,0.170299101307876));
#1520=CARTESIAN_POINT('',(-0.10181768286244,0.0680324006511243,0.170299101307876));
#1521=CARTESIAN_POINT('',(-0.0865888216856872,0.0865888216856873,0.170299101307876));
#1522=CARTESIAN_POINT('',(-0.0680324006511244,0.10181768286244,0.170299101307876));
#1523=CARTESIAN_POINT('',(-0.0468615326125484,0.113133747586803,0.170299101307876));
#1524=CARTESIAN_POINT('',(-0.0238898021559226,0.120102145837543,0.170299101307876));
#1525=CARTESIAN_POINT('',(-4.47517152187601E-17,0.122455085977805,0.170299101307876));
#1526=CARTESIAN_POINT('',(0.0238898021559225,0.120102145837543,0.170299101307876));
#1527=CARTESIAN_POINT('',(0.0468615326125484,0.113133747586803,0.170299101307876));
#1528=CARTESIAN_POINT('',(0.0680324006511244,0.10181768286244,0.170299101307876));
#1529=CARTESIAN_POINT('',(0.0865888216856872,0.0865888216856873,0.170299101307876));
#1530=CARTESIAN_POINT('',(0.10181768286244,0.0680324006511243,0.170299101307876));
#1531=CARTESIAN_POINT('',(0.113133747586804,0.0468615326125485,0.170299101307876));
#1532=CARTESIAN_POINT('',(0.120102145837543,0.0238898021559224,0.170299101307876));
#1533=CARTESIAN_POINT('',(0.122455085977804,6.93658402264541E-17,0.170299101307876));
#1534=CARTESIAN_POINT('',(0.120102145837543,-0.0238898021559226,0.170299101307876));
#1535=CARTESIAN_POINT('',(0.113133747586803,-0.0468615326125484,0.170299101307876));
#1536=CARTESIAN_POINT('',(0.10181768286244,-0.0680324006511244,0.170299101307876));
#1537=CARTESIAN_POINT('',(0.0865888216856873,-0.0865888216856872,0.170299101307876));
#1538=CARTESIAN_POINT('',(0.0680324006511242,-0.10181768286244,0.170299101307876));
#1539=CARTESIAN_POINT('',(0.0468615326125486,-0.113133747586803,0.170299101307876));
#1540=CARTESIAN_POINT('',(0.0238898021559223,-0.120102145837543,0.170299101307876));
#1541=CARTESIAN_POINT('',(1.04322271849734E-16,-0.122455085977805,0.170299101307876));
#1542=CARTESIAN_POINT('',(-0.0238898021559227,-0.120102145837543,0.170299101307876));
#1543=CARTESIAN_POINT('',(-0.0468615326125484,-0.113133747586804,0.170299101307876));
#1544=CARTESIAN_POINT('',(-0.0680324006511245,-0.10181768286244,0.170299101307876));
#1545=CARTESIAN_POINT('',(-0.0865888216856874,-0.0865888216856872,0.170299101307876));
#1546=CARTESIAN_POINT('',(-0.10181768286244,-0.0680324006511244,0.170299101307876));
#1547=CARTESIAN_POINT('',(-0.113133747586804,-0.0468615326125482,0.170299101307876));
#1548=CARTESIAN_POINT('',(-0.120102145837543,-0.0238898021559223,0.170299101307876));
#1549=CARTESIAN_POINT('',(-0.122455085977804,-7.24247051220317E-17,0.170299101307876));
#1550=CARTESIAN_POINT('',(-0.120102145837543,0.0238898021559226,0.170299101307876));
#1551=CARTESIAN_POINT('',(-0.0809279228366139,-0.016097564718549,0.203364742805031));
#1552=CARTESIAN_POINT('',(-0.0825133945763765,-5.07406616723216E-17,0.203364742805031));
#1553=CARTESIAN_POINT('',(-0.0809279228366138,0.0160975647185492,0.203364742805031));
#1554=CARTESIAN_POINT('',(-0.0762324364071421,0.0315765090525827,0.203364742805031));
#1555=CARTESIAN_POINT('',(-0.0686073801981868,0.0458419858520359,0.203364742805031));
#1556=CARTESIAN_POINT('',(-0.0583457808436771,0.0583457808436771,0.203364742805031));
#1557=CARTESIAN_POINT('',(-0.0458419858520359,0.0686073801981867,0.203364742805031));
#1558=CARTESIAN_POINT('',(-0.0315765090525828,0.0762324364071421,0.203364742805031));
#1559=CARTESIAN_POINT('',(-0.0160975647185491,0.0809279228366139,0.203364742805031));
#1560=CARTESIAN_POINT('',(-2.61145551594421E-17,0.0825133945763765,0.203364742805031));
#1561=CARTESIAN_POINT('',(0.0160975647185492,0.0809279228366138,0.203364742805031));
#1562=CARTESIAN_POINT('',(0.0315765090525827,0.0762324364071421,0.203364742805031));
#1563=CARTESIAN_POINT('',(0.0458419858520359,0.0686073801981868,0.203364742805031));
#1564=CARTESIAN_POINT('',(0.0583457808436772,0.0583457808436771,0.203364742805031));
#1565=CARTESIAN_POINT('',(0.0686073801981867,0.0458419858520359,0.203364742805031));
#1566=CARTESIAN_POINT('',(0.0762324364071421,0.0315765090525828,0.203364742805031));
#1567=CARTESIAN_POINT('',(0.0809279228366139,0.016097564718549,0.203364742805031));
#1568=CARTESIAN_POINT('',(0.0825133945763765,4.55251226606526E-17,0.203364742805031));
#1569=CARTESIAN_POINT('',(0.0809279228366139,-0.0160975647185492,0.203364742805031));
#1570=CARTESIAN_POINT('',(0.0762324364071421,-0.0315765090525827,0.203364742805031));
#1571=CARTESIAN_POINT('',(0.0686073801981867,-0.045841985852036,0.203364742805031));
#1572=CARTESIAN_POINT('',(0.0583457808436772,-0.0583457808436771,0.203364742805031));
#1573=CARTESIAN_POINT('',(0.0458419858520357,-0.0686073801981868,0.203364742805031));
#1574=CARTESIAN_POINT('',(0.0315765090525829,-0.0762324364071421,0.203364742805031));
#1575=CARTESIAN_POINT('',(0.0160975647185489,-0.0809279228366139,0.203364742805031));
#1576=CARTESIAN_POINT('',(8.17611257831422E-17,-0.0825133945763765,0.203364742805031));
#1577=CARTESIAN_POINT('',(-0.0160975647185492,-0.0809279228366138,0.203364742805031));
#1578=CARTESIAN_POINT('',(-0.0315765090525827,-0.0762324364071421,0.203364742805031));
#1579=CARTESIAN_POINT('',(-0.045841985852036,-0.0686073801981867,0.203364742805031));
#1580=CARTESIAN_POINT('',(-0.0583457808436772,-0.0583457808436771,0.203364742805031));
#1581=CARTESIAN_POINT('',(-0.0686073801981868,-0.0458419858520359,0.203364742805031));
#1582=CARTESIAN_POINT('',(-0.0762324364071421,-0.0315765090525826,0.203364742805031));
#1583=CARTESIAN_POINT('',(-0.0809279228366139,-0.016097564718549,0.203364742805031));
#1584=CARTESIAN_POINT('',(-0.0825133945763765,-5.07406616723216E-17,0.203364742805031));
#1585=CARTESIAN_POINT('',(-0.0809279228366138,0.0160975647185492,0.203364742805031));
#1586=MECHANICAL_DESIGN_GEOMETRIC_PRESENTATION_REPRESENTATION('',(#693),
#1587);
#1587=(
GEOMETRIC_REPRESENTATION_CONTEXT(3)
GLOBAL_UNCERTAINTY_ASSIGNED_CONTEXT((#1588))
GLOBAL_UNIT_ASSIGNED_CONTEXT((#1591,#1590,#1589))
REPRESENTATION_CONTEXT('Part 1','TOP_LEVEL_ASSEMBLY_PART')
);
#1588=UNCERTAINTY_MEASURE_WITH_UNIT(LENGTH_MEASURE(2.E-5),#1591,
'DISTANCE_ACCURACY_VALUE','Maximum Tolerance applied to model');
#1589=(
NAMED_UNIT(*)
SI_UNIT($,.STERADIAN.)
SOLID_ANGLE_UNIT()
);
#1590=(
NAMED_UNIT(*)
PLANE_ANGLE_UNIT()
SI_UNIT($,.RADIAN.)
);
#1591=(
LENGTH_UNIT()
NAMED_UNIT(*)
SI_UNIT($,.METRE.)
);
#1592=PRODUCT_DEFINITION_SHAPE('','',#1593);
#1593=PRODUCT_DEFINITION('','',#1595,#1594);
#1594=PRODUCT_DEFINITION_CONTEXT('',#1601,'design');
#1595=PRODUCT_DEFINITION_FORMATION_WITH_SPECIFIED_SOURCE('','',#1597,
 .NOT_KNOWN.);
#1596=PRODUCT_RELATED_PRODUCT_CATEGORY('','',(#1597));
#1597=PRODUCT('Part 1','Part 1','Part 1',(#1599));
#1598=PRODUCT_CATEGORY('','');
#1599=PRODUCT_CONTEXT('',#1601,'mechanical');
#1600=APPLICATION_PROTOCOL_DEFINITION('international standard',
'ap242_managed_model_based_3d_engineering',2020,#1601);
#1601=APPLICATION_CONTEXT('managed model based 3d engineering');
ENDSEC;
END-ISO-10303-21;
