ISO-10303-21;
HEADER;
/* Generated by software containing ST-Developer
 * from STEP Tools, Inc. (www.steptools.com) 
 */
/* OPTION: using custom renumber hook */

FILE_DESCRIPTION(
/* description */ ('STEP AP242 Edition 2',
'CAx-IF Rec.Pracs.---Representation and Presentation of Product Manufa
cturing Information (PMI)---4.0---2014-10-13',
'CAx-IF Rec.Pracs.---3D Tessellated Geometry---0.4---2014-09-14','2;1',
'CAx-IF Rec.Pracs.---User Defined Attributes---1.5---2016-08-15'),
/* implementation_level */ '2;1');

FILE_NAME(
/* name */ 'Snap Top Symetrical - Part 1',
/* time_stamp */ '2026-08-15T18:28:23Z',
/* author */ (''),
/* organization */ (''),
/* preprocessor_version */ 'ST-DEVELOPER v20',
/* originating_system */ 'ONSHAPE BY PTC INC, 1.219',
/* authorisation */ '  ');

FILE_SCHEMA (('AP242_MANAGED_MODEL_BASED_3D_ENGINEERING_MIM_LF { 1 0 10303 442 3 1 4 }'));
ENDSEC;

DATA;
#10=SHAPE_REPRESENTATION_RELATIONSHIP('','',#502,#11);
#11=ADVANCED_BREP_SHAPE_REPRESENTATION('',(#500),#1006);
#12=(
BOUNDED_SURFACE()
B_SPLINE_SURFACE(3,2,((#900,#901,#902),(#903,#904,#905),(#906,#907,#908),
(#909,#910,#911),(#912,#913,#914),(#915,#916,#917),(#918,#919,#920),(#921,
#922,#923),(#924,#925,#926),(#927,#928,#929),(#930,#931,#932),(#933,#934,
#935),(#936,#937,#938),(#939,#940,#941),(#942,#943,#944),(#945,#946,#947),
(#948,#949,#950),(#951,#952,#953),(#954,#955,#956),(#957,#958,#959),(#960,
#961,#962),(#963,#964,#965),(#966,#967,#968),(#969,#970,#971),(#972,#973,
#974),(#975,#976,#977),(#978,#979,#980),(#981,#982,#983),(#984,#985,#986),
(#987,#988,#989)),.UNSPECIFIED.,.F.,.F.,.F.)
B_SPLINE_SURFACE_WITH_KNOTS((4,1,1,1,1,1,1,1,1,1,1,1,1,1,1,1,1,1,1,1,1,
1,1,1,1,1,1,4),(3,3),(0.0135410863414224,0.0205487076317395,0.0240525182768981,
0.0275563289220567,0.0310601395672152,0.0345639502123738,0.041571571502691,
0.0485791927930081,0.0520830034381667,0.0555868140833253,0.0590906247284839,
0.0625944353736424,0.066098246018801,0.0696020566639596,0.0713539619865389,
0.0731058673091182,0.0766096779542767,0.0801134885994353,0.0836172992445939,
0.090624920534911,0.0941287311800696,0.0976325418252282,0.104640163115545,
0.111647784405862,0.115151595051021,0.11865540569618,0.122159216341338,
0.125663026986497),(0.,1.),.UNSPECIFIED.)
GEOMETRIC_REPRESENTATION_ITEM()
RATIONAL_B_SPLINE_SURFACE(((1.,0.873356340045607,1.),(1.,0.856141134102909,
1.),(1.,0.827335241766492,1.),(1.,0.784706062398981,1.),(1.,0.751879800152673,
1.),(1.,0.717989475153308,1.),(1.,0.670907409717731,1.),(1.,0.611417396000497,
1.),(1.,0.549191565686272,1.),(1.,0.50075000572823,1.),(1.,0.465273207312565,
1.),(1.,0.433037760690189,1.),(1.,0.405801781368528,1.),(1.,0.38714971666591,
1.),(1.,0.381558439385376,1.),(1.,0.383815165962312,1.),(1.,0.390241680230477,
1.),(1.,0.40580191539375,1.),(1.,0.432960101053963,1.),(1.,0.476159698240344,
1.),(1.,0.524987300757984,1.),(1.,0.573830448443028,1.),(1.,0.623369747223171,
1.),(1.,0.682874987545631,1.),(1.,0.741082575540494,1.),(1.,0.784698907707592,
1.),(1.,0.816471446139858,1.),(1.,0.846550983203791,1.),(1.,0.864758316061111,
1.),(1.,0.873341798010073,1.)))
REPRESENTATION_ITEM('')
SURFACE()
);
#13=TOROIDAL_SURFACE('',#547,0.11557,0.00508);
#14=TOROIDAL_SURFACE('',#548,0.0931457951031447,0.00508);
#15=CONICAL_SURFACE('',#544,0.09525,0.785398163397448);
#16=CYLINDRICAL_SURFACE('',#511,0.00635);
#17=CYLINDRICAL_SURFACE('',#514,0.12065);
#18=CYLINDRICAL_SURFACE('',#518,0.0700532);
#19=CYLINDRICAL_SURFACE('',#521,0.0127);
#20=CYLINDRICAL_SURFACE('',#526,0.0700532);
#21=CYLINDRICAL_SURFACE('',#533,0.00635);
#22=CYLINDRICAL_SURFACE('',#534,0.00635);
#23=CYLINDRICAL_SURFACE('',#549,0.00508);
#24=CYLINDRICAL_SURFACE('',#550,0.00508);
#25=CYLINDRICAL_SURFACE('',#551,0.00508);
#26=CYLINDRICAL_SURFACE('',#552,0.00508);
#27=LINE('',#703,#61);
#28=LINE('',#708,#62);
#29=LINE('',#712,#63);
#30=LINE('',#716,#64);
#31=LINE('',#727,#65);
#32=LINE('',#746,#66);
#33=LINE('',#750,#67);
#34=LINE('',#755,#68);
#35=LINE('',#794,#69);
#36=LINE('',#798,#70);
#37=LINE('',#800,#71);
#38=LINE('',#801,#72);
#39=LINE('',#802,#73);
#40=LINE('',#806,#74);
#41=LINE('',#808,#75);
#42=LINE('',#819,#76);
#43=LINE('',#821,#77);
#44=LINE('',#822,#78);
#45=LINE('',#823,#79);
#46=LINE('',#824,#80);
#47=LINE('',#828,#81);
#48=LINE('',#830,#82);
#49=LINE('',#834,#83);
#50=LINE('',#839,#84);
#51=LINE('',#843,#85);
#52=LINE('',#847,#86);
#53=LINE('',#851,#87);
#54=LINE('',#852,#88);
#55=LINE('',#854,#89);
#56=LINE('',#855,#90);
#57=LINE('',#857,#91);
#58=LINE('',#858,#92);
#59=LINE('',#860,#93);
#60=LINE('',#861,#94);
#61=VECTOR('',#561,1.);
#62=VECTOR('',#564,1.);
#63=VECTOR('',#567,1.);
#64=VECTOR('',#570,1.);
#65=VECTOR('',#583,1.);
#66=VECTOR('',#586,1.);
#67=VECTOR('',#591,1.);
#68=VECTOR('',#594,1.);
#69=VECTOR('',#601,1.);
#70=VECTOR('',#604,1.);
#71=VECTOR('',#607,1.);
#72=VECTOR('',#608,1.);
#73=VECTOR('',#609,1.);
#74=VECTOR('',#612,1.);
#75=VECTOR('',#615,1.);
#76=VECTOR('',#618,1.);
#77=VECTOR('',#621,1.);
#78=VECTOR('',#622,1.);
#79=VECTOR('',#623,1.);
#80=VECTOR('',#624,1.);
#81=VECTOR('',#631,1.);
#82=VECTOR('',#634,1.);
#83=VECTOR('',#641,1.);
#84=VECTOR('',#644,1.);
#85=VECTOR('',#647,1.);
#86=VECTOR('',#650,1.);
#87=VECTOR('',#655,1.);
#88=VECTOR('',#656,1.);
#89=VECTOR('',#659,1.);
#90=VECTOR('',#660,1.);
#91=VECTOR('',#663,1.);
#92=VECTOR('',#664,1.);
#93=VECTOR('',#667,1.);
#94=VECTOR('',#668,1.);
#95=B_SPLINE_CURVE_WITH_KNOTS('',3,(#692,#693,#694,#695),.UNSPECIFIED.,
 .F.,.F.,(4,4),(0.,0.00212276056017079),.UNSPECIFIED.);
#96=B_SPLINE_CURVE_WITH_KNOTS('',3,(#699,#700,#701,#702),.UNSPECIFIED.,
 .F.,.F.,(4,4),(0.,0.00212276056017082),.UNSPECIFIED.);
#97=B_SPLINE_CURVE_WITH_KNOTS('',3,(#730,#731,#732,#733,#734,#735),
 .UNSPECIFIED.,.F.,.F.,(4,1,1,4),(0.,0.00248352911501365,0.0049670582300273,
0.00993411646005461),.UNSPECIFIED.);
#98=B_SPLINE_CURVE_WITH_KNOTS('',3,(#739,#740,#741,#742,#743,#744),
 .UNSPECIFIED.,.F.,.F.,(4,1,1,4),(0.,0.00248352621343875,0.00496705242687749,
0.00993410485375499),.UNSPECIFIED.);
#99=B_SPLINE_CURVE_WITH_KNOTS('',3,(#759,#760,#761,#762,#763,#764),
 .UNSPECIFIED.,.F.,.F.,(4,1,1,4),(0.,0.00249072643394421,0.00498145286788843,
0.00996290573577685),.UNSPECIFIED.);
#100=B_SPLINE_CURVE_WITH_KNOTS('',3,(#766,#767,#768,#769,#770,#771,#772,
#773,#774,#775,#776,#777,#778,#779,#780,#781,#782,#783,#784,#785,#786,#787,
#788,#789,#790),.UNSPECIFIED.,.F.,.F.,(4,1,1,1,1,1,1,1,1,1,1,1,1,1,1,1,
1,1,1,1,1,1,4),(0.,0.00570254518548283,0.0114050903709657,0.0171076355564485,
0.0228101807419313,0.0285127259274142,0.0313639985201556,0.034215271112897,
0.0370665437056384,0.0399178162983798,0.0427690888911212,0.0456203614838626,
0.0484716340766041,0.0513229066693455,0.0541741792620869,0.0570254518548283,
0.0598767244475697,0.0627279970403112,0.068430542225794,0.0741330874112768,
0.0798356325967596,0.0855381777822425,0.0912407229677253),.UNSPECIFIED.);
#101=B_SPLINE_CURVE_WITH_KNOTS('',3,(#810,#811,#812,#813,#814,#815),
 .UNSPECIFIED.,.F.,.F.,(4,1,1,4),(0.,0.00249073206832607,0.00498146413665215,
0.00996292827330429),.UNSPECIFIED.);
#102=B_SPLINE_CURVE_WITH_KNOTS('',3,(#866,#867,#868,#869,#870,#871,#872,
#873,#874),.UNSPECIFIED.,.F.,.F.,(4,1,1,1,1,1,4),(0.,0.00849148345742191,
0.0127372251861329,0.0169829669148438,0.0254744503722657,0.0297201921009767,
0.0339659338296876),.UNSPECIFIED.);
#103=B_SPLINE_CURVE_WITH_KNOTS('',3,(#878,#879,#880,#881,#882,#883,#884,
#885,#886,#887),.UNSPECIFIED.,.F.,.F.,(4,1,1,1,1,1,1,4),(0.0613987145345441,
0.0656463733940518,0.0698940322535595,0.0741416911130672,0.0783893499725749,
0.0826370088320827,0.0868846676915904,0.0953799854106058),.UNSPECIFIED.);
#104=B_SPLINE_CURVE_WITH_KNOTS('',3,(#889,#890,#891,#892,#893,#894,#895,
#896,#897,#898,#899),.UNSPECIFIED.,.F.,.F.,(4,1,1,1,1,1,1,1,4),(-1.72191469552502E-5,
0.00311855154025011,0.00625432222745546,0.00939009291466082,0.0125258636018662,
0.0156616342890715,0.0187974049762769,0.0219331756634822,0.0250689463506876),
 .UNSPECIFIED.);
#105=B_SPLINE_CURVE_WITH_KNOTS('',3,(#990,#991,#992,#993,#994),
 .UNSPECIFIED.,.F.,.F.,(4,1,4),(0.,0.00345315331785478,0.00690630663570955),
 .UNSPECIFIED.);
#106=B_SPLINE_CURVE_WITH_KNOTS('',3,(#995,#996,#997,#998,#999),
 .UNSPECIFIED.,.F.,.F.,(4,1,4),(0.,0.00345315331785477,0.00690630663570954),
 .UNSPECIFIED.);
#107=ORIENTED_EDGE('',*,*,#245,.T.);
#108=ORIENTED_EDGE('',*,*,#246,.T.);
#109=ORIENTED_EDGE('',*,*,#247,.T.);
#110=ORIENTED_EDGE('',*,*,#248,.T.);
#111=ORIENTED_EDGE('',*,*,#249,.F.);
#112=ORIENTED_EDGE('',*,*,#250,.T.);
#113=ORIENTED_EDGE('',*,*,#251,.T.);
#114=ORIENTED_EDGE('',*,*,#252,.T.);
#115=ORIENTED_EDGE('',*,*,#253,.T.);
#116=ORIENTED_EDGE('',*,*,#254,.T.);
#117=ORIENTED_EDGE('',*,*,#255,.F.);
#118=ORIENTED_EDGE('',*,*,#256,.T.);
#119=ORIENTED_EDGE('',*,*,#257,.T.);
#120=ORIENTED_EDGE('',*,*,#258,.F.);
#121=ORIENTED_EDGE('',*,*,#259,.T.);
#122=ORIENTED_EDGE('',*,*,#260,.F.);
#123=ORIENTED_EDGE('',*,*,#261,.T.);
#124=ORIENTED_EDGE('',*,*,#262,.F.);
#125=ORIENTED_EDGE('',*,*,#263,.T.);
#126=ORIENTED_EDGE('',*,*,#264,.T.);
#127=ORIENTED_EDGE('',*,*,#265,.T.);
#128=ORIENTED_EDGE('',*,*,#266,.F.);
#129=ORIENTED_EDGE('',*,*,#267,.T.);
#130=ORIENTED_EDGE('',*,*,#268,.F.);
#131=ORIENTED_EDGE('',*,*,#269,.F.);
#132=ORIENTED_EDGE('',*,*,#270,.T.);
#133=ORIENTED_EDGE('',*,*,#245,.F.);
#134=ORIENTED_EDGE('',*,*,#271,.T.);
#135=ORIENTED_EDGE('',*,*,#272,.T.);
#136=ORIENTED_EDGE('',*,*,#273,.T.);
#137=ORIENTED_EDGE('',*,*,#274,.F.);
#138=ORIENTED_EDGE('',*,*,#275,.F.);
#139=ORIENTED_EDGE('',*,*,#274,.T.);
#140=ORIENTED_EDGE('',*,*,#276,.T.);
#141=ORIENTED_EDGE('',*,*,#267,.F.);
#142=ORIENTED_EDGE('',*,*,#277,.T.);
#143=ORIENTED_EDGE('',*,*,#265,.F.);
#144=ORIENTED_EDGE('',*,*,#278,.F.);
#145=ORIENTED_EDGE('',*,*,#279,.F.);
#146=ORIENTED_EDGE('',*,*,#280,.F.);
#147=ORIENTED_EDGE('',*,*,#279,.T.);
#148=ORIENTED_EDGE('',*,*,#281,.T.);
#149=ORIENTED_EDGE('',*,*,#282,.T.);
#150=ORIENTED_EDGE('',*,*,#283,.F.);
#151=ORIENTED_EDGE('',*,*,#284,.T.);
#152=ORIENTED_EDGE('',*,*,#257,.F.);
#153=ORIENTED_EDGE('',*,*,#283,.T.);
#154=ORIENTED_EDGE('',*,*,#285,.T.);
#155=ORIENTED_EDGE('',*,*,#262,.T.);
#156=ORIENTED_EDGE('',*,*,#286,.T.);
#157=ORIENTED_EDGE('',*,*,#269,.T.);
#158=ORIENTED_EDGE('',*,*,#287,.F.);
#159=ORIENTED_EDGE('',*,*,#272,.F.);
#160=ORIENTED_EDGE('',*,*,#288,.T.);
#161=ORIENTED_EDGE('',*,*,#288,.F.);
#162=ORIENTED_EDGE('',*,*,#275,.T.);
#163=ORIENTED_EDGE('',*,*,#280,.T.);
#164=ORIENTED_EDGE('',*,*,#284,.F.);
#165=ORIENTED_EDGE('',*,*,#268,.T.);
#166=ORIENTED_EDGE('',*,*,#276,.F.);
#167=ORIENTED_EDGE('',*,*,#273,.F.);
#168=ORIENTED_EDGE('',*,*,#287,.T.);
#169=ORIENTED_EDGE('',*,*,#266,.T.);
#170=ORIENTED_EDGE('',*,*,#289,.T.);
#171=ORIENTED_EDGE('',*,*,#260,.T.);
#172=ORIENTED_EDGE('',*,*,#277,.F.);
#173=ORIENTED_EDGE('',*,*,#264,.F.);
#174=ORIENTED_EDGE('',*,*,#290,.T.);
#175=ORIENTED_EDGE('',*,*,#281,.F.);
#176=ORIENTED_EDGE('',*,*,#278,.T.);
#177=ORIENTED_EDGE('',*,*,#282,.F.);
#178=ORIENTED_EDGE('',*,*,#290,.F.);
#179=ORIENTED_EDGE('',*,*,#263,.F.);
#180=ORIENTED_EDGE('',*,*,#285,.F.);
#181=ORIENTED_EDGE('',*,*,#270,.F.);
#182=ORIENTED_EDGE('',*,*,#286,.F.);
#183=ORIENTED_EDGE('',*,*,#261,.F.);
#184=ORIENTED_EDGE('',*,*,#289,.F.);
#185=ORIENTED_EDGE('',*,*,#291,.F.);
#186=ORIENTED_EDGE('',*,*,#292,.T.);
#187=ORIENTED_EDGE('',*,*,#293,.T.);
#188=ORIENTED_EDGE('',*,*,#294,.T.);
#189=ORIENTED_EDGE('',*,*,#295,.T.);
#190=ORIENTED_EDGE('',*,*,#296,.T.);
#191=ORIENTED_EDGE('',*,*,#297,.F.);
#192=ORIENTED_EDGE('',*,*,#298,.T.);
#193=ORIENTED_EDGE('',*,*,#258,.T.);
#194=ORIENTED_EDGE('',*,*,#251,.F.);
#195=ORIENTED_EDGE('',*,*,#299,.T.);
#196=ORIENTED_EDGE('',*,*,#291,.T.);
#197=ORIENTED_EDGE('',*,*,#300,.T.);
#198=ORIENTED_EDGE('',*,*,#293,.F.);
#199=ORIENTED_EDGE('',*,*,#301,.T.);
#200=ORIENTED_EDGE('',*,*,#249,.T.);
#201=ORIENTED_EDGE('',*,*,#302,.T.);
#202=ORIENTED_EDGE('',*,*,#295,.F.);
#203=ORIENTED_EDGE('',*,*,#303,.T.);
#204=ORIENTED_EDGE('',*,*,#255,.T.);
#205=ORIENTED_EDGE('',*,*,#304,.T.);
#206=ORIENTED_EDGE('',*,*,#253,.F.);
#207=ORIENTED_EDGE('',*,*,#305,.T.);
#208=ORIENTED_EDGE('',*,*,#297,.T.);
#209=ORIENTED_EDGE('',*,*,#306,.T.);
#210=ORIENTED_EDGE('',*,*,#307,.T.);
#211=ORIENTED_EDGE('',*,*,#308,.T.);
#212=ORIENTED_EDGE('',*,*,#309,.T.);
#213=ORIENTED_EDGE('',*,*,#310,.T.);
#214=ORIENTED_EDGE('',*,*,#259,.F.);
#215=ORIENTED_EDGE('',*,*,#309,.F.);
#216=ORIENTED_EDGE('',*,*,#311,.F.);
#217=ORIENTED_EDGE('',*,*,#311,.T.);
#218=ORIENTED_EDGE('',*,*,#308,.F.);
#219=ORIENTED_EDGE('',*,*,#312,.F.);
#220=ORIENTED_EDGE('',*,*,#246,.F.);
#221=ORIENTED_EDGE('',*,*,#271,.F.);
#222=ORIENTED_EDGE('',*,*,#248,.F.);
#223=ORIENTED_EDGE('',*,*,#313,.F.);
#224=ORIENTED_EDGE('',*,*,#310,.F.);
#225=ORIENTED_EDGE('',*,*,#312,.T.);
#226=ORIENTED_EDGE('',*,*,#307,.F.);
#227=ORIENTED_EDGE('',*,*,#313,.T.);
#228=ORIENTED_EDGE('',*,*,#247,.F.);
#229=ORIENTED_EDGE('',*,*,#292,.F.);
#230=ORIENTED_EDGE('',*,*,#299,.F.);
#231=ORIENTED_EDGE('',*,*,#250,.F.);
#232=ORIENTED_EDGE('',*,*,#301,.F.);
#233=ORIENTED_EDGE('',*,*,#294,.F.);
#234=ORIENTED_EDGE('',*,*,#302,.F.);
#235=ORIENTED_EDGE('',*,*,#256,.F.);
#236=ORIENTED_EDGE('',*,*,#303,.F.);
#237=ORIENTED_EDGE('',*,*,#298,.F.);
#238=ORIENTED_EDGE('',*,*,#305,.F.);
#239=ORIENTED_EDGE('',*,*,#252,.F.);
#240=ORIENTED_EDGE('',*,*,#300,.F.);
#241=ORIENTED_EDGE('',*,*,#296,.F.);
#242=ORIENTED_EDGE('',*,*,#304,.F.);
#243=ORIENTED_EDGE('',*,*,#254,.F.);
#244=ORIENTED_EDGE('',*,*,#306,.F.);
#245=EDGE_CURVE('',#314,#315,#361,.F.);
#246=EDGE_CURVE('',#315,#316,#95,.T.);
#247=EDGE_CURVE('',#316,#317,#362,.T.);
#248=EDGE_CURVE('',#317,#314,#96,.T.);
#249=EDGE_CURVE('',#318,#319,#27,.T.);
#250=EDGE_CURVE('',#318,#320,#363,.F.);
#251=EDGE_CURVE('',#320,#321,#28,.T.);
#252=EDGE_CURVE('',#321,#322,#364,.F.);
#253=EDGE_CURVE('',#322,#323,#29,.T.);
#254=EDGE_CURVE('',#323,#324,#365,.F.);
#255=EDGE_CURVE('',#325,#324,#30,.T.);
#256=EDGE_CURVE('',#325,#319,#366,.F.);
#257=EDGE_CURVE('',#326,#326,#367,.T.);
#258=EDGE_CURVE('',#327,#327,#368,.F.);
#259=EDGE_CURVE('',#328,#328,#369,.F.);
#260=EDGE_CURVE('',#329,#330,#31,.T.);
#261=EDGE_CURVE('',#329,#331,#97,.T.);
#262=EDGE_CURVE('',#332,#331,#370,.T.);
#263=EDGE_CURVE('',#332,#333,#98,.T.);
#264=EDGE_CURVE('',#333,#334,#32,.T.);
#265=EDGE_CURVE('',#334,#330,#371,.T.);
#266=EDGE_CURVE('',#335,#336,#33,.F.);
#267=EDGE_CURVE('',#335,#337,#372,.T.);
#268=EDGE_CURVE('',#338,#337,#34,.T.);
#269=EDGE_CURVE('',#339,#338,#373,.T.);
#270=EDGE_CURVE('',#339,#336,#99,.T.);
#271=EDGE_CURVE('',#314,#315,#100,.T.);
#272=EDGE_CURVE('',#340,#341,#374,.T.);
#273=EDGE_CURVE('',#341,#342,#35,.T.);
#274=EDGE_CURVE('',#343,#342,#375,.T.);
#275=EDGE_CURVE('',#340,#343,#36,.T.);
#276=EDGE_CURVE('',#342,#337,#37,.T.);
#277=EDGE_CURVE('',#335,#330,#38,.T.);
#278=EDGE_CURVE('',#344,#334,#39,.T.);
#279=EDGE_CURVE('',#345,#344,#376,.T.);
#280=EDGE_CURVE('',#343,#345,#40,.T.);
#281=EDGE_CURVE('',#344,#346,#41,.F.);
#282=EDGE_CURVE('',#346,#347,#101,.T.);
#283=EDGE_CURVE('',#348,#347,#377,.T.);
#284=EDGE_CURVE('',#348,#345,#42,.T.);
#285=EDGE_CURVE('',#347,#332,#43,.T.);
#286=EDGE_CURVE('',#331,#339,#44,.F.);
#287=EDGE_CURVE('',#341,#338,#45,.T.);
#288=EDGE_CURVE('',#340,#348,#46,.T.);
#289=EDGE_CURVE('',#336,#329,#47,.T.);
#290=EDGE_CURVE('',#333,#346,#48,.F.);
#291=EDGE_CURVE('',#349,#350,#49,.T.);
#292=EDGE_CURVE('',#349,#351,#378,.T.);
#293=EDGE_CURVE('',#351,#352,#50,.T.);
#294=EDGE_CURVE('',#352,#353,#379,.T.);
#295=EDGE_CURVE('',#353,#354,#51,.T.);
#296=EDGE_CURVE('',#354,#355,#380,.T.);
#297=EDGE_CURVE('',#356,#355,#52,.T.);
#298=EDGE_CURVE('',#356,#350,#381,.T.);
#299=EDGE_CURVE('',#320,#349,#53,.F.);
#300=EDGE_CURVE('',#350,#321,#54,.T.);
#301=EDGE_CURVE('',#351,#318,#55,.T.);
#302=EDGE_CURVE('',#319,#352,#56,.F.);
#303=EDGE_CURVE('',#353,#325,#57,.T.);
#304=EDGE_CURVE('',#324,#354,#58,.F.);
#305=EDGE_CURVE('',#322,#356,#59,.F.);
#306=EDGE_CURVE('',#355,#323,#60,.T.);
#307=EDGE_CURVE('',#357,#358,#382,.F.);
#308=EDGE_CURVE('',#358,#359,#102,.T.);
#309=EDGE_CURVE('',#359,#360,#383,.F.);
#310=EDGE_CURVE('',#360,#357,#103,.T.);
#311=EDGE_CURVE('',#360,#359,#104,.F.);
#312=EDGE_CURVE('',#316,#358,#105,.T.);
#313=EDGE_CURVE('',#357,#317,#106,.F.);
#314=VERTEX_POINT('',#690);
#315=VERTEX_POINT('',#691);
#316=VERTEX_POINT('',#696);
#317=VERTEX_POINT('',#698);
#318=VERTEX_POINT('',#704);
#319=VERTEX_POINT('',#705);
#320=VERTEX_POINT('',#707);
#321=VERTEX_POINT('',#709);
#322=VERTEX_POINT('',#711);
#323=VERTEX_POINT('',#713);
#324=VERTEX_POINT('',#715);
#325=VERTEX_POINT('',#717);
#326=VERTEX_POINT('',#721);
#327=VERTEX_POINT('',#723);
#328=VERTEX_POINT('',#726);
#329=VERTEX_POINT('',#728);
#330=VERTEX_POINT('',#729);
#331=VERTEX_POINT('',#736);
#332=VERTEX_POINT('',#738);
#333=VERTEX_POINT('',#745);
#334=VERTEX_POINT('',#747);
#335=VERTEX_POINT('',#751);
#336=VERTEX_POINT('',#752);
#337=VERTEX_POINT('',#754);
#338=VERTEX_POINT('',#756);
#339=VERTEX_POINT('',#758);
#340=VERTEX_POINT('',#792);
#341=VERTEX_POINT('',#793);
#342=VERTEX_POINT('',#795);
#343=VERTEX_POINT('',#797);
#344=VERTEX_POINT('',#803);
#345=VERTEX_POINT('',#805);
#346=VERTEX_POINT('',#809);
#347=VERTEX_POINT('',#816);
#348=VERTEX_POINT('',#818);
#349=VERTEX_POINT('',#835);
#350=VERTEX_POINT('',#836);
#351=VERTEX_POINT('',#838);
#352=VERTEX_POINT('',#840);
#353=VERTEX_POINT('',#842);
#354=VERTEX_POINT('',#844);
#355=VERTEX_POINT('',#846);
#356=VERTEX_POINT('',#848);
#357=VERTEX_POINT('',#864);
#358=VERTEX_POINT('',#865);
#359=VERTEX_POINT('',#875);
#360=VERTEX_POINT('',#877);
#361=CIRCLE('',#505,0.0127);
#362=CIRCLE('',#506,0.0931457951031447);
#363=CIRCLE('',#507,0.00508);
#364=CIRCLE('',#508,0.00508);
#365=CIRCLE('',#509,0.00508);
#366=CIRCLE('',#510,0.00508);
#367=CIRCLE('',#512,0.00635);
#368=CIRCLE('',#513,0.00635);
#369=CIRCLE('',#515,0.12065);
#370=CIRCLE('',#516,0.12065);
#371=CIRCLE('',#517,0.12065);
#372=CIRCLE('',#519,0.0700532);
#373=CIRCLE('',#520,0.0700532);
#374=CIRCLE('',#522,0.0127);
#375=CIRCLE('',#523,0.0127);
#376=CIRCLE('',#525,0.0700532);
#377=CIRCLE('',#527,0.0700532);
#378=CIRCLE('',#536,0.00508);
#379=CIRCLE('',#537,0.00508);
#380=CIRCLE('',#538,0.00508);
#381=CIRCLE('',#539,0.00508);
#382=CIRCLE('',#545,0.0967378975515724);
#383=CIRCLE('',#546,0.119162102448428);
#384=EDGE_LOOP('',(#107,#108,#109,#110));
#385=EDGE_LOOP('',(#111,#112,#113,#114,#115,#116,#117,#118));
#386=EDGE_LOOP('',(#119));
#387=EDGE_LOOP('',(#120));
#388=EDGE_LOOP('',(#121));
#389=EDGE_LOOP('',(#122,#123,#124,#125,#126,#127));
#390=EDGE_LOOP('',(#128,#129,#130,#131,#132));
#391=EDGE_LOOP('',(#133,#134));
#392=EDGE_LOOP('',(#135,#136,#137,#138));
#393=EDGE_LOOP('',(#139,#140,#141,#142,#143,#144,#145,#146));
#394=EDGE_LOOP('',(#147,#148,#149,#150,#151));
#395=EDGE_LOOP('',(#152));
#396=EDGE_LOOP('',(#153,#154,#155,#156,#157,#158,#159,#160));
#397=EDGE_LOOP('',(#161,#162,#163,#164));
#398=EDGE_LOOP('',(#165,#166,#167,#168));
#399=EDGE_LOOP('',(#169,#170,#171,#172));
#400=EDGE_LOOP('',(#173,#174,#175,#176));
#401=EDGE_LOOP('',(#177,#178,#179,#180));
#402=EDGE_LOOP('',(#181,#182,#183,#184));
#403=EDGE_LOOP('',(#185,#186,#187,#188,#189,#190,#191,#192));
#404=EDGE_LOOP('',(#193));
#405=EDGE_LOOP('',(#194,#195,#196,#197));
#406=EDGE_LOOP('',(#198,#199,#200,#201));
#407=EDGE_LOOP('',(#202,#203,#204,#205));
#408=EDGE_LOOP('',(#206,#207,#208,#209));
#409=EDGE_LOOP('',(#210,#211,#212,#213));
#410=EDGE_LOOP('',(#214));
#411=EDGE_LOOP('',(#215,#216));
#412=EDGE_LOOP('',(#217,#218,#219,#220,#221,#222,#223,#224));
#413=EDGE_LOOP('',(#225,#226,#227,#228));
#414=EDGE_LOOP('',(#229,#230,#231,#232));
#415=EDGE_LOOP('',(#233,#234,#235,#236));
#416=EDGE_LOOP('',(#237,#238,#239,#240));
#417=EDGE_LOOP('',(#241,#242,#243,#244));
#418=FACE_BOUND('',#384,.T.);
#419=FACE_BOUND('',#385,.T.);
#420=FACE_BOUND('',#386,.T.);
#421=FACE_BOUND('',#387,.T.);
#422=FACE_BOUND('',#388,.T.);
#423=FACE_BOUND('',#389,.T.);
#424=FACE_BOUND('',#390,.T.);
#425=FACE_BOUND('',#391,.T.);
#426=FACE_BOUND('',#392,.T.);
#427=FACE_BOUND('',#393,.T.);
#428=FACE_BOUND('',#394,.T.);
#429=FACE_BOUND('',#395,.T.);
#430=FACE_BOUND('',#396,.T.);
#431=FACE_BOUND('',#397,.T.);
#432=FACE_BOUND('',#398,.T.);
#433=FACE_BOUND('',#399,.T.);
#434=FACE_BOUND('',#400,.T.);
#435=FACE_BOUND('',#401,.T.);
#436=FACE_BOUND('',#402,.T.);
#437=FACE_BOUND('',#403,.T.);
#438=FACE_BOUND('',#404,.T.);
#439=FACE_BOUND('',#405,.T.);
#440=FACE_BOUND('',#406,.T.);
#441=FACE_BOUND('',#407,.T.);
#442=FACE_BOUND('',#408,.T.);
#443=FACE_BOUND('',#409,.T.);
#444=FACE_BOUND('',#410,.T.);
#445=FACE_BOUND('',#411,.T.);
#446=FACE_BOUND('',#412,.T.);
#447=FACE_BOUND('',#413,.T.);
#448=FACE_BOUND('',#414,.T.);
#449=FACE_BOUND('',#415,.T.);
#450=FACE_BOUND('',#416,.T.);
#451=FACE_BOUND('',#417,.T.);
#452=PLANE('',#504);
#453=PLANE('',#524);
#454=PLANE('',#528);
#455=PLANE('',#529);
#456=PLANE('',#530);
#457=PLANE('',#531);
#458=PLANE('',#532);
#459=PLANE('',#535);
#460=PLANE('',#540);
#461=PLANE('',#541);
#462=PLANE('',#542);
#463=PLANE('',#543);
#464=ADVANCED_FACE('',(#418,#419),#452,.T.);
#465=ADVANCED_FACE('',(#420,#421),#16,.F.);
#466=ADVANCED_FACE('',(#422,#423),#17,.T.);
#467=ADVANCED_FACE('',(#424),#18,.F.);
#468=ADVANCED_FACE('',(#425,#426),#19,.F.);
#469=ADVANCED_FACE('',(#427),#453,.F.);
#470=ADVANCED_FACE('',(#428),#20,.F.);
#471=ADVANCED_FACE('',(#429,#430),#454,.T.);
#472=ADVANCED_FACE('',(#431),#455,.F.);
#473=ADVANCED_FACE('',(#432),#456,.T.);
#474=ADVANCED_FACE('',(#433),#457,.T.);
#475=ADVANCED_FACE('',(#434),#458,.F.);
#476=ADVANCED_FACE('',(#435),#21,.F.);
#477=ADVANCED_FACE('',(#436),#22,.F.);
#478=ADVANCED_FACE('',(#437,#438),#459,.T.);
#479=ADVANCED_FACE('',(#439),#460,.T.);
#480=ADVANCED_FACE('',(#440),#461,.F.);
#481=ADVANCED_FACE('',(#441),#462,.F.);
#482=ADVANCED_FACE('',(#442),#463,.T.);
#483=ADVANCED_FACE('',(#443),#15,.T.);
#484=ADVANCED_FACE('',(#444,#445),#13,.T.);
#485=ADVANCED_FACE('',(#446),#12,.T.);
#486=ADVANCED_FACE('',(#447),#14,.T.);
#487=ADVANCED_FACE('',(#448),#23,.F.);
#488=ADVANCED_FACE('',(#449),#24,.F.);
#489=ADVANCED_FACE('',(#450),#25,.F.);
#490=ADVANCED_FACE('',(#451),#26,.F.);
#491=CLOSED_SHELL('',(#464,#465,#466,#467,#468,#469,#470,#471,#472,#473,
#474,#475,#476,#477,#478,#479,#480,#481,#482,#483,#484,#485,#486,#487,#488,
#489,#490));
#492=STYLED_ITEM('',(#493),#500);
#493=PRESENTATION_STYLE_ASSIGNMENT((#494));
#494=SURFACE_STYLE_USAGE(.BOTH.,#495);
#495=SURFACE_SIDE_STYLE('',(#496));
#496=SURFACE_STYLE_FILL_AREA(#497);
#497=FILL_AREA_STYLE('',(#498));
#498=FILL_AREA_STYLE_COLOUR('',#499);
#499=COLOUR_RGB('',0.615686274509804,0.811764705882353,0.929411764705882);
#500=MANIFOLD_SOLID_BREP('Part 1',#491);
#501=SHAPE_DEFINITION_REPRESENTATION(#1011,#502);
#502=SHAPE_REPRESENTATION('Part 1',(#503),#1006);
#503=AXIS2_PLACEMENT_3D('',#687,#553,#554);
#504=AXIS2_PLACEMENT_3D('',#688,#555,#556);
#505=AXIS2_PLACEMENT_3D('',#689,#557,#558);
#506=AXIS2_PLACEMENT_3D('',#697,#559,#560);
#507=AXIS2_PLACEMENT_3D('',#706,#562,#563);
#508=AXIS2_PLACEMENT_3D('',#710,#565,#566);
#509=AXIS2_PLACEMENT_3D('',#714,#568,#569);
#510=AXIS2_PLACEMENT_3D('',#718,#571,#572);
#511=AXIS2_PLACEMENT_3D('',#719,#573,#574);
#512=AXIS2_PLACEMENT_3D('',#720,#575,#576);
#513=AXIS2_PLACEMENT_3D('',#722,#577,#578);
#514=AXIS2_PLACEMENT_3D('',#724,#579,#580);
#515=AXIS2_PLACEMENT_3D('',#725,#581,#582);
#516=AXIS2_PLACEMENT_3D('',#737,#584,#585);
#517=AXIS2_PLACEMENT_3D('',#748,#587,#588);
#518=AXIS2_PLACEMENT_3D('',#749,#589,#590);
#519=AXIS2_PLACEMENT_3D('',#753,#592,#593);
#520=AXIS2_PLACEMENT_3D('',#757,#595,#596);
#521=AXIS2_PLACEMENT_3D('',#765,#597,#598);
#522=AXIS2_PLACEMENT_3D('',#791,#599,#600);
#523=AXIS2_PLACEMENT_3D('',#796,#602,#603);
#524=AXIS2_PLACEMENT_3D('',#799,#605,#606);
#525=AXIS2_PLACEMENT_3D('',#804,#610,#611);
#526=AXIS2_PLACEMENT_3D('',#807,#613,#614);
#527=AXIS2_PLACEMENT_3D('',#817,#616,#617);
#528=AXIS2_PLACEMENT_3D('',#820,#619,#620);
#529=AXIS2_PLACEMENT_3D('',#825,#625,#626);
#530=AXIS2_PLACEMENT_3D('',#826,#627,#628);
#531=AXIS2_PLACEMENT_3D('',#827,#629,#630);
#532=AXIS2_PLACEMENT_3D('',#829,#632,#633);
#533=AXIS2_PLACEMENT_3D('',#831,#635,#636);
#534=AXIS2_PLACEMENT_3D('',#832,#637,#638);
#535=AXIS2_PLACEMENT_3D('',#833,#639,#640);
#536=AXIS2_PLACEMENT_3D('',#837,#642,#643);
#537=AXIS2_PLACEMENT_3D('',#841,#645,#646);
#538=AXIS2_PLACEMENT_3D('',#845,#648,#649);
#539=AXIS2_PLACEMENT_3D('',#849,#651,#652);
#540=AXIS2_PLACEMENT_3D('',#850,#653,#654);
#541=AXIS2_PLACEMENT_3D('',#853,#657,#658);
#542=AXIS2_PLACEMENT_3D('',#856,#661,#662);
#543=AXIS2_PLACEMENT_3D('',#859,#665,#666);
#544=AXIS2_PLACEMENT_3D('',#862,#669,#670);
#545=AXIS2_PLACEMENT_3D('',#863,#671,#672);
#546=AXIS2_PLACEMENT_3D('',#876,#673,#674);
#547=AXIS2_PLACEMENT_3D('',#888,#675,#676);
#548=AXIS2_PLACEMENT_3D('',#1000,#677,#678);
#549=AXIS2_PLACEMENT_3D('',#1001,#679,#680);
#550=AXIS2_PLACEMENT_3D('',#1002,#681,#682);
#551=AXIS2_PLACEMENT_3D('',#1003,#683,#684);
#552=AXIS2_PLACEMENT_3D('',#1004,#685,#686);
#553=DIRECTION('',(0.,0.,1.));
#554=DIRECTION('',(1.,0.,0.));
#555=DIRECTION('',(0.,0.,1.));
#556=DIRECTION('',(1.,0.,0.));
#557=DIRECTION('',(0.,0.,1.));
#558=DIRECTION('',(1.,0.,0.));
#559=DIRECTION('',(0.,0.,1.));
#560=DIRECTION('',(1.,0.,0.));
#561=DIRECTION('',(0.,1.,0.));
#562=DIRECTION('',(0.,0.,1.));
#563=DIRECTION('',(1.,0.,0.));
#564=DIRECTION('',(-1.,0.,0.));
#565=DIRECTION('',(0.,0.,1.));
#566=DIRECTION('',(1.,0.,0.));
#567=DIRECTION('',(0.,1.,0.));
#568=DIRECTION('',(0.,0.,1.));
#569=DIRECTION('',(1.,0.,0.));
#570=DIRECTION('',(-1.,0.,0.));
#571=DIRECTION('',(0.,0.,1.));
#572=DIRECTION('',(1.,0.,0.));
#573=DIRECTION('',(0.,0.,-1.));
#574=DIRECTION('',(-1.,0.,0.));
#575=DIRECTION('',(0.,0.,-1.));
#576=DIRECTION('',(-1.,0.,0.));
#577=DIRECTION('',(0.,0.,1.));
#578=DIRECTION('',(1.,0.,0.));
#579=DIRECTION('',(0.,0.,-1.));
#580=DIRECTION('',(-1.,0.,0.));
#581=DIRECTION('',(0.,0.,1.));
#582=DIRECTION('',(1.,0.,0.));
#583=DIRECTION('',(0.,0.,-1.));
#584=DIRECTION('',(0.,0.,-1.));
#585=DIRECTION('',(-1.,0.,0.));
#586=DIRECTION('',(0.,0.,-1.));
#587=DIRECTION('',(0.,0.,1.));
#588=DIRECTION('',(1.,0.,0.));
#589=DIRECTION('',(0.,0.,-1.));
#590=DIRECTION('',(-1.,0.,0.));
#591=DIRECTION('',(0.,0.,-1.));
#592=DIRECTION('',(0.,0.,-1.));
#593=DIRECTION('',(-1.,0.,0.));
#594=DIRECTION('',(0.,0.,-1.));
#595=DIRECTION('',(0.,0.,-1.));
#596=DIRECTION('',(-1.,0.,0.));
#597=DIRECTION('',(0.,0.,-1.));
#598=DIRECTION('',(-1.,0.,0.));
#599=DIRECTION('',(0.,0.,-1.));
#600=DIRECTION('',(-1.,0.,0.));
#601=DIRECTION('',(0.,0.,-1.));
#602=DIRECTION('',(0.,0.,1.));
#603=DIRECTION('',(1.,0.,0.));
#604=DIRECTION('',(0.,0.,-1.));
#605=DIRECTION('',(0.,0.,1.));
#606=DIRECTION('',(1.,0.,0.));
#607=DIRECTION('',(-1.86482715470887E-16,-1.,0.));
#608=DIRECTION('',(-1.86482715470887E-16,-1.,0.));
#609=DIRECTION('',(-1.86482715470887E-16,-1.,0.));
#610=DIRECTION('',(0.,0.,-1.));
#611=DIRECTION('',(-1.,0.,0.));
#612=DIRECTION('',(-1.86482715470887E-16,-1.,0.));
#613=DIRECTION('',(0.,0.,-1.));
#614=DIRECTION('',(-1.,0.,0.));
#615=DIRECTION('',(0.,0.,-1.));
#616=DIRECTION('',(0.,0.,-1.));
#617=DIRECTION('',(-1.,0.,0.));
#618=DIRECTION('',(0.,0.,-1.));
#619=DIRECTION('',(0.,0.,-1.));
#620=DIRECTION('',(1.,0.,0.));
#621=DIRECTION('',(-1.86482715470887E-16,-1.,0.));
#622=DIRECTION('',(-1.86482715470887E-16,-1.,0.));
#623=DIRECTION('',(-1.86482715470887E-16,-1.,0.));
#624=DIRECTION('',(-1.86482715470887E-16,-1.,0.));
#625=DIRECTION('',(1.,-1.86482715470887E-16,0.));
#626=DIRECTION('',(1.86482715470887E-16,1.,0.));
#627=DIRECTION('',(1.,-1.86482715470887E-16,0.));
#628=DIRECTION('',(1.86482715470887E-16,1.,0.));
#629=DIRECTION('',(1.,-1.86482715470887E-16,0.));
#630=DIRECTION('',(1.86482715470887E-16,1.,0.));
#631=DIRECTION('',(-1.86482715470887E-16,-1.,0.));
#632=DIRECTION('',(1.,-1.86482715470887E-16,0.));
#633=DIRECTION('',(1.86482715470887E-16,1.,0.));
#634=DIRECTION('',(-1.86482715470887E-16,-1.,0.));
#635=DIRECTION('',(-1.86482715470887E-16,-1.,0.));
#636=DIRECTION('',(1.,-1.86482715470887E-16,0.));
#637=DIRECTION('',(1.86482715470887E-16,1.,0.));
#638=DIRECTION('',(-1.,1.86482715470887E-16,0.));
#639=DIRECTION('',(0.,0.,1.));
#640=DIRECTION('',(1.,0.,0.));
#641=DIRECTION('',(-1.,0.,0.));
#642=DIRECTION('',(0.,0.,1.));
#643=DIRECTION('',(1.,0.,0.));
#644=DIRECTION('',(0.,1.,0.));
#645=DIRECTION('',(0.,0.,1.));
#646=DIRECTION('',(1.,0.,0.));
#647=DIRECTION('',(-1.,0.,0.));
#648=DIRECTION('',(0.,0.,1.));
#649=DIRECTION('',(1.,0.,0.));
#650=DIRECTION('',(0.,1.,0.));
#651=DIRECTION('',(0.,0.,1.));
#652=DIRECTION('',(1.,0.,0.));
#653=DIRECTION('',(0.,1.,0.));
#654=DIRECTION('',(0.,0.,1.));
#655=DIRECTION('',(0.,0.,1.));
#656=DIRECTION('',(0.,0.,1.));
#657=DIRECTION('',(1.,0.,0.));
#658=DIRECTION('',(0.,0.,-1.));
#659=DIRECTION('',(0.,0.,1.));
#660=DIRECTION('',(0.,0.,1.));
#661=DIRECTION('',(0.,1.,0.));
#662=DIRECTION('',(0.,0.,1.));
#663=DIRECTION('',(0.,0.,1.));
#664=DIRECTION('',(0.,0.,1.));
#665=DIRECTION('',(1.,0.,0.));
#666=DIRECTION('',(0.,0.,-1.));
#667=DIRECTION('',(0.,0.,1.));
#668=DIRECTION('',(0.,0.,1.));
#669=DIRECTION('',(0.,0.,-1.));
#670=DIRECTION('',(-1.,0.,0.));
#671=DIRECTION('',(0.,0.,1.));
#672=DIRECTION('',(1.,0.,0.));
#673=DIRECTION('',(0.,0.,-1.));
#674=DIRECTION('',(-1.,0.,0.));
#675=DIRECTION('',(0.,0.,1.));
#676=DIRECTION('',(1.,0.,0.));
#677=DIRECTION('',(0.,0.,1.));
#678=DIRECTION('',(1.,0.,0.));
#679=DIRECTION('',(0.,0.,1.));
#680=DIRECTION('',(1.,0.,0.));
#681=DIRECTION('',(0.,0.,-1.));
#682=DIRECTION('',(-1.,0.,0.));
#683=DIRECTION('',(0.,0.,-1.));
#684=DIRECTION('',(-1.,0.,0.));
#685=DIRECTION('',(0.,0.,1.));
#686=DIRECTION('',(1.,0.,0.));
#687=CARTESIAN_POINT('',(0.,0.,0.));
#688=CARTESIAN_POINT('',(0.,0.,0.0762));
#689=CARTESIAN_POINT('',(0.,0.1016,0.0762));
#690=CARTESIAN_POINT('',(0.00765368850243084,0.091465353863713,0.0762));
#691=CARTESIAN_POINT('',(-0.00765368850243085,0.091465353863713,0.0762));
#692=CARTESIAN_POINT('',(-0.00765368850243085,0.091465353863713,0.0762));
#693=CARTESIAN_POINT('',(-0.00821887500614728,0.0918921829199082,0.0762));
#694=CARTESIAN_POINT('',(-0.008797649144348,0.0922993004936,0.0762));
#695=CARTESIAN_POINT('',(-0.00940144109448408,0.0926701249095088,0.0762));
#696=CARTESIAN_POINT('',(-0.00940144109448406,0.0926701249095088,0.0762));
#697=CARTESIAN_POINT('',(0.,7.38768181585641E-18,0.0762));
#698=CARTESIAN_POINT('',(0.00940144109448408,0.0926701249095088,0.0762));
#699=CARTESIAN_POINT('',(0.00940144109448408,0.0926701249095088,0.0762));
#700=CARTESIAN_POINT('',(0.00879764914434799,0.0922993004936,0.0762));
#701=CARTESIAN_POINT('',(0.00821887500614729,0.0918921829199082,0.0762));
#702=CARTESIAN_POINT('',(0.00765368850243085,0.091465353863713,0.0762));
#703=CARTESIAN_POINT('',(0.0626384392380714,0.,0.0762));
#704=CARTESIAN_POINT('',(0.0626384392380714,-0.0610725130271912,0.0762));
#705=CARTESIAN_POINT('',(0.0626384392380714,0.0610725130271912,0.0762));
#706=CARTESIAN_POINT('',(0.0575584392380714,-0.0610725130271912,0.0762));
#707=CARTESIAN_POINT('',(0.0575584392380714,-0.0661525130271912,0.0762));
#708=CARTESIAN_POINT('',(0.,-0.0661525130271912,0.0762));
#709=CARTESIAN_POINT('',(-0.0575584392380714,-0.0661525130271912,0.0762));
#710=CARTESIAN_POINT('',(-0.0575584392380714,-0.0610725130271912,0.0762));
#711=CARTESIAN_POINT('',(-0.0626384392380714,-0.0610725130271912,0.0762));
#712=CARTESIAN_POINT('',(-0.0626384392380714,0.,0.0762));
#713=CARTESIAN_POINT('',(-0.0626384392380714,0.0610725130271912,0.0762));
#714=CARTESIAN_POINT('',(-0.0575584392380714,0.0610725130271912,0.0762));
#715=CARTESIAN_POINT('',(-0.0575584392380714,0.0661525130271912,0.0762));
#716=CARTESIAN_POINT('',(0.,0.0661525130271912,0.0762));
#717=CARTESIAN_POINT('',(0.0575584392380714,0.0661525130271912,0.0762));
#718=CARTESIAN_POINT('',(0.0575584392380714,0.0610725130271912,0.0762));
#719=CARTESIAN_POINT('',(0.,-0.0235029179124132,0.091186));
#720=CARTESIAN_POINT('',(0.,-0.0235029179124132,0.0254));
#721=CARTESIAN_POINT('',(-0.00635,-0.0235029179124132,0.0254));
#722=CARTESIAN_POINT('',(0.,-0.0235029179124132,0.066802));
#723=CARTESIAN_POINT('',(0.00635,-0.0235029179124132,0.066802));
#724=CARTESIAN_POINT('',(0.,7.38768181585641E-18,0.0762));
#725=CARTESIAN_POINT('',(0.,7.38768181585641E-18,0.0486957951031447));
#726=CARTESIAN_POINT('',(0.12065,7.38768181585641E-18,0.0486957951031447));
#727=CARTESIAN_POINT('',(-0.0126835921042573,-0.11998145269721,0.0762));
#728=CARTESIAN_POINT('',(-0.0126835921042573,-0.11998145269721,0.01905));
#729=CARTESIAN_POINT('',(-0.0126835921042573,-0.11998145269721,0.));
#730=CARTESIAN_POINT('',(-0.0126835921042573,-0.11998145269721,0.01905));
#731=CARTESIAN_POINT('',(-0.0126835921042573,-0.11998145269721,0.0198897992072124));
#732=CARTESIAN_POINT('',(-0.0123513770806552,-0.120017097496697,0.0215430364707635));
#733=CARTESIAN_POINT('',(-0.0104686547937744,-0.120205063321602,0.0243674747636606));
#734=CARTESIAN_POINT('',(-0.00801074488323684,-0.120395477825665,0.0254));
#735=CARTESIAN_POINT('',(-0.00633359210425732,-0.120483642504105,0.0254));
#736=CARTESIAN_POINT('',(-0.00633359210425732,-0.120483642504105,0.0254));
#737=CARTESIAN_POINT('',(0.,7.38768181585641E-18,0.0254));
#738=CARTESIAN_POINT('',(0.00633359210425724,-0.120483642504105,0.0254));
#739=CARTESIAN_POINT('',(0.00633359210425724,-0.120483642504105,0.0254));
#740=CARTESIAN_POINT('',(0.00717222107296631,-0.120439557400897,0.0254));
#741=CARTESIAN_POINT('',(0.00882213001566184,-0.120334821478584,0.0250689544999221));
#742=CARTESIAN_POINT('',(0.0116460196282144,-0.120097739533912,0.0231915972060275));
#743=CARTESIAN_POINT('',(0.0126835921042572,-0.11998145269721,0.0207296766212897));
#744=CARTESIAN_POINT('',(0.0126835921042572,-0.11998145269721,0.01905));
#745=CARTESIAN_POINT('',(0.0126835921042572,-0.11998145269721,0.01905));
#746=CARTESIAN_POINT('',(0.0126835921042572,-0.11998145269721,0.0762));
#747=CARTESIAN_POINT('',(0.0126835921042572,-0.11998145269721,0.));
#748=CARTESIAN_POINT('',(0.,7.38768181585641E-18,0.));
#749=CARTESIAN_POINT('',(0.,-4.28952135750147E-18,0.0254));
#750=CARTESIAN_POINT('',(-0.0126835921042573,-0.0688954085667022,0.0254));
#751=CARTESIAN_POINT('',(-0.0126835921042573,-0.0688954085667022,0.));
#752=CARTESIAN_POINT('',(-0.0126835921042573,-0.0688954085667022,0.01905));
#753=CARTESIAN_POINT('',(0.,-4.28952135750147E-18,0.));
#754=CARTESIAN_POINT('',(-0.0126835921042573,0.0688954085667022,0.));
#755=CARTESIAN_POINT('',(-0.0126835921042573,0.0688954085667022,0.0254));
#756=CARTESIAN_POINT('',(-0.0126835921042573,0.0688954085667022,0.0254));
#757=CARTESIAN_POINT('',(0.,-4.28952135750147E-18,0.0254));
#758=CARTESIAN_POINT('',(-0.00633359210425731,-0.0697662987501623,0.0254));
#759=CARTESIAN_POINT('',(-0.00633359210425731,-0.0697662987501623,0.0254));
#760=CARTESIAN_POINT('',(-0.0071724150341413,-0.0696901479097027,0.0254));
#761=CARTESIAN_POINT('',(-0.00882038228464088,-0.0695092898471087,0.0250688907358429));
#762=CARTESIAN_POINT('',(-0.0116396332568889,-0.0690991115470533,0.0231980147031416));
#763=CARTESIAN_POINT('',(-0.0126835921042573,-0.0688954085667022,0.0207348600185843));
#764=CARTESIAN_POINT('',(-0.0126835921042573,-0.0688954085667022,0.01905));
#765=CARTESIAN_POINT('',(0.,0.1016,0.204724));
#766=CARTESIAN_POINT('',(0.00765368850243084,0.091465353863713,0.0762));
#767=CARTESIAN_POINT('',(0.0087513692278294,0.0922943227526456,0.0748610859003354));
#768=CARTESIAN_POINT('',(0.0104622551653259,0.0941197160343769,0.0719758689620852));
#769=CARTESIAN_POINT('',(0.0120568256106494,0.097163945682242,0.0673951423271246));
#770=CARTESIAN_POINT('',(0.0127876304366097,0.100415192475416,0.0627335401251205));
#771=CARTESIAN_POINT('',(0.0126699596749448,0.103769980884719,0.0581385763241649));
#772=CARTESIAN_POINT('',(0.0117768494899195,0.106631483925425,0.054385665796284));
#773=CARTESIAN_POINT('',(0.0104995136657247,0.108836301827188,0.0515773255763552));
#774=CARTESIAN_POINT('',(0.00919602689519675,0.110445107204936,0.049565428781056));
#775=CARTESIAN_POINT('',(0.00753767779384632,0.111908359542199,0.047766223935804));
#776=CARTESIAN_POINT('',(0.00543516473527881,0.113173876971919,0.0462326885128007));
#777=CARTESIAN_POINT('',(0.00289703692965603,0.114069899873944,0.045159554060888));
#778=CARTESIAN_POINT('',(4.24117316631344E-5,0.114410923200128,0.0447538378466232));
#779=CARTESIAN_POINT('',(-0.00283641985916684,0.11408605941459,0.0451402797038081));
#780=CARTESIAN_POINT('',(-0.00539765856617351,0.113192125989687,0.0462107140966338));
#781=CARTESIAN_POINT('',(-0.0075065305392586,0.111931317921644,0.047738214018347));
#782=CARTESIAN_POINT('',(-0.00917420135867137,0.11046819930414,0.0495368005757991));
#783=CARTESIAN_POINT('',(-0.0104832387401198,0.108860171779112,0.0515471986585347));
#784=CARTESIAN_POINT('',(-0.0117687629040032,0.106651919270816,0.0543591611917886));
#785=CARTESIAN_POINT('',(-0.0126668075748327,0.103787876039295,0.0581146369346105));
#786=CARTESIAN_POINT('',(-0.012790252105247,0.100431431189371,0.0627105387772934));
#787=CARTESIAN_POINT('',(-0.0120573967484387,0.0971672600401116,0.0673903752599206));
#788=CARTESIAN_POINT('',(-0.0104741210201901,0.0941356581741812,0.0719512323932396));
#789=CARTESIAN_POINT('',(-0.00875208618702603,0.0922948642004955,0.0748602113775757));
#790=CARTESIAN_POINT('',(-0.00765368850243083,0.091465353863713,0.0762));
#791=CARTESIAN_POINT('',(0.,0.1016,0.0254));
#792=CARTESIAN_POINT('',(0.0126835921042573,0.100954638602934,0.0254));
#793=CARTESIAN_POINT('',(-0.0126835921042573,0.100954638602934,0.0254));
#794=CARTESIAN_POINT('',(-0.0126835921042573,0.100954638602934,0.204724));
#795=CARTESIAN_POINT('',(-0.0126835921042573,0.100954638602934,0.));
#796=CARTESIAN_POINT('',(0.,0.1016,0.));
#797=CARTESIAN_POINT('',(0.0126835921042573,0.100954638602934,0.));
#798=CARTESIAN_POINT('',(0.0126835921042573,0.100954638602934,0.204724));
#799=CARTESIAN_POINT('',(0.,0.,0.));
#800=CARTESIAN_POINT('',(-0.0126835921042573,-0.0279872373848133,0.));
#801=CARTESIAN_POINT('',(-0.0126835921042573,-0.0279872373848133,0.));
#802=CARTESIAN_POINT('',(0.0126835921042573,-0.0279872373848133,0.));
#803=CARTESIAN_POINT('',(0.0126835921042572,-0.0688954085667022,0.));
#804=CARTESIAN_POINT('',(0.,-4.28952135750147E-18,0.));
#805=CARTESIAN_POINT('',(0.0126835921042573,0.0688954085667022,0.));
#806=CARTESIAN_POINT('',(0.0126835921042573,-0.0279872373848133,0.));
#807=CARTESIAN_POINT('',(0.,-4.28952135750147E-18,0.0254));
#808=CARTESIAN_POINT('',(0.0126835921042572,-0.0688954085667022,0.0254));
#809=CARTESIAN_POINT('',(0.0126835921042572,-0.0688954085667022,0.01905));
#810=CARTESIAN_POINT('',(0.0126835921042572,-0.0688954085667022,0.01905));
#811=CARTESIAN_POINT('',(0.0126835921042572,-0.0688954085667022,0.0198923105837599));
#812=CARTESIAN_POINT('',(0.0123489884883873,-0.0689579662147505,0.0215501545009084));
#813=CARTESIAN_POINT('',(0.0104622820137795,-0.0692853571865306,0.024370962988272));
#814=CARTESIAN_POINT('',(0.00801093181497558,-0.0696140248623643,0.0254));
#815=CARTESIAN_POINT('',(0.00633359210425725,-0.0697662987501623,0.0254));
#816=CARTESIAN_POINT('',(0.00633359210425725,-0.0697662987501623,0.0254));
#817=CARTESIAN_POINT('',(0.,-4.28952135750147E-18,0.0254));
#818=CARTESIAN_POINT('',(0.0126835921042573,0.0688954085667022,0.0254));
#819=CARTESIAN_POINT('',(0.0126835921042573,0.0688954085667022,0.0254));
#820=CARTESIAN_POINT('',(0.,2.77555756156289E-17,0.0254));
#821=CARTESIAN_POINT('',(0.00633359210425726,2.6574470161342E-17,0.0254));
#822=CARTESIAN_POINT('',(-0.00633359210425731,-0.0688954085667022,0.0254));
#823=CARTESIAN_POINT('',(-0.0126835921042573,-0.0279872373848133,0.0254));
#824=CARTESIAN_POINT('',(0.0126835921042573,-0.0279872373848133,0.0254));
#825=CARTESIAN_POINT('',(0.0126835921042573,-0.0279872373848133,0.0254));
#826=CARTESIAN_POINT('',(-0.0126835921042573,-0.0279872373848133,0.0254));
#827=CARTESIAN_POINT('',(-0.0126835921042573,-0.0279872373848133,0.0254));
#828=CARTESIAN_POINT('',(-0.0126835921042573,-0.11998145269721,0.01905));
#829=CARTESIAN_POINT('',(0.0126835921042573,-0.0279872373848133,0.0254));
#830=CARTESIAN_POINT('',(0.0126835921042573,-0.0279872373848133,0.01905));
#831=CARTESIAN_POINT('',(0.00633359210425726,2.6574470161342E-17,0.01905));
#832=CARTESIAN_POINT('',(-0.00633359210425731,-0.0279872373848133,0.01905));
#833=CARTESIAN_POINT('',(0.,2.77555756156289E-17,0.066802));
#834=CARTESIAN_POINT('',(0.,-0.0661525130271912,0.066802));
#835=CARTESIAN_POINT('',(0.0575584392380714,-0.0661525130271912,0.066802));
#836=CARTESIAN_POINT('',(-0.0575584392380714,-0.0661525130271912,0.066802));
#837=CARTESIAN_POINT('',(0.0575584392380714,-0.0610725130271912,0.066802));
#838=CARTESIAN_POINT('',(0.0626384392380714,-0.0610725130271912,0.066802));
#839=CARTESIAN_POINT('',(0.0626384392380714,0.,0.066802));
#840=CARTESIAN_POINT('',(0.0626384392380714,0.0610725130271912,0.066802));
#841=CARTESIAN_POINT('',(0.0575584392380714,0.0610725130271912,0.066802));
#842=CARTESIAN_POINT('',(0.0575584392380714,0.0661525130271912,0.066802));
#843=CARTESIAN_POINT('',(0.,0.0661525130271912,0.066802));
#844=CARTESIAN_POINT('',(-0.0575584392380714,0.0661525130271912,0.066802));
#845=CARTESIAN_POINT('',(-0.0575584392380714,0.0610725130271912,0.066802));
#846=CARTESIAN_POINT('',(-0.0626384392380714,0.0610725130271912,0.066802));
#847=CARTESIAN_POINT('',(-0.0626384392380714,0.,0.066802));
#848=CARTESIAN_POINT('',(-0.0626384392380714,-0.0610725130271912,0.066802));
#849=CARTESIAN_POINT('',(-0.0575584392380714,-0.0610725130271912,0.066802));
#850=CARTESIAN_POINT('',(0.,-0.0661525130271912,0.066802));
#851=CARTESIAN_POINT('',(0.0575584392380714,-0.0661525130271912,0.066802));
#852=CARTESIAN_POINT('',(-0.0575584392380714,-0.0661525130271912,0.0762));
#853=CARTESIAN_POINT('',(0.0626384392380714,0.,0.066802));
#854=CARTESIAN_POINT('',(0.0626384392380714,-0.0610725130271912,0.066802));
#855=CARTESIAN_POINT('',(0.0626384392380714,0.0610725130271912,0.066802));
#856=CARTESIAN_POINT('',(0.,0.0661525130271912,0.066802));
#857=CARTESIAN_POINT('',(0.0575584392380714,0.0661525130271912,0.0762));
#858=CARTESIAN_POINT('',(-0.0575584392380714,0.0661525130271912,0.066802));
#859=CARTESIAN_POINT('',(-0.0626384392380714,0.,0.066802));
#860=CARTESIAN_POINT('',(-0.0626384392380714,-0.0610725130271912,0.066802));
#861=CARTESIAN_POINT('',(-0.0626384392380714,0.0610725130271912,0.066802));
#862=CARTESIAN_POINT('',(0.,7.38768181585641E-18,0.0762));
#863=CARTESIAN_POINT('',(0.,7.38768181585641E-18,0.0747121024484277));
#864=CARTESIAN_POINT('',(0.0155037610064887,0.0954874558114949,0.0747121024484277));
#865=CARTESIAN_POINT('',(-0.0155037610064887,0.0954874558114949,0.0747121024484277));
#866=CARTESIAN_POINT('',(-0.0155037610064887,0.0954874558114949,0.0747121024484277));
#867=CARTESIAN_POINT('',(-0.0166787505178657,0.0972486238538964,0.0727853889585508));
#868=CARTESIAN_POINT('',(-0.0178754014837087,0.100049027519644,0.0698161061990853));
#869=CARTESIAN_POINT('',(-0.0184599112653052,0.104057678783835,0.0657678739534899));
#870=CARTESIAN_POINT('',(-0.0183394523758061,0.10807557016312,0.0618312365248892));
#871=CARTESIAN_POINT('',(-0.0171261527142007,0.112186980209546,0.0579766174575696));
#872=CARTESIAN_POINT('',(-0.0146878597839641,0.115998522128232,0.0545341466945728));
#873=CARTESIAN_POINT('',(-0.0130184667401872,0.117749248180654,0.052987621540876));
#874=CARTESIAN_POINT('',(-0.0120793371804247,0.118548286673453,0.0522878975515723));
#875=CARTESIAN_POINT('',(-0.0120793371804248,0.118548286673453,0.0522878975515723));
#876=CARTESIAN_POINT('',(0.,7.38768181585641E-18,0.0522878975515723));
#877=CARTESIAN_POINT('',(0.0120793371804392,0.118548286673441,0.0522878975515831));
#878=CARTESIAN_POINT('',(0.0120793371804392,0.118548286673441,0.0522878975515831));
#879=CARTESIAN_POINT('',(0.0130193585480267,0.117748489404842,0.0529882860065337));
#880=CARTESIAN_POINT('',(0.0146968616144912,0.115986958981198,0.0545444188737456));
#881=CARTESIAN_POINT('',(0.0165157101098152,0.113140939399592,0.057115280869385));
#882=CARTESIAN_POINT('',(0.0177416109013762,0.110110952055595,0.0599217772884179));
#883=CARTESIAN_POINT('',(0.0183680111942831,0.107071720025652,0.0628152341396872));
#884=CARTESIAN_POINT('',(0.0184605584877637,0.104048270825542,0.0657769785977526));
#885=CARTESIAN_POINT('',(0.0178699452204307,0.100033768651417,0.0698321091620311));
#886=CARTESIAN_POINT('',(0.0166796054261367,0.0972499052586336,0.072783987104932));
#887=CARTESIAN_POINT('',(0.0155037610064887,0.0954874558114949,0.0747121024484276));
#888=CARTESIAN_POINT('',(0.,7.38768181585641E-18,0.0486957951031447));
#889=CARTESIAN_POINT('',(-0.0120793371804243,0.118548286673449,0.0522878975515765));
#890=CARTESIAN_POINT('',(-0.0111435111940667,0.118922340933272,0.0520106337796681));
#891=CARTESIAN_POINT('',(-0.0092013088891069,0.119552891283265,0.0514249251106881));
#892=CARTESIAN_POINT('',(-0.00624336872978354,0.120145163975921,0.0506169899333305));
#893=CARTESIAN_POINT('',(-0.00314202551349766,0.120460675336924,0.0499943055143947));
#894=CARTESIAN_POINT('',(8.48231195717983E-7,0.120550023093065,0.0497574719551563));
#895=CARTESIAN_POINT('',(0.00312833442581472,0.120461350226472,0.0499926957993955));
#896=CARTESIAN_POINT('',(0.00623868119503382,0.120146181274689,0.0506154713963558));
#897=CARTESIAN_POINT('',(0.00920068278883148,0.119553114309975,0.0514247949601018));
#898=CARTESIAN_POINT('',(0.0111435111940641,0.118922340933271,0.0520106337796682));
#899=CARTESIAN_POINT('',(0.0120793371804248,0.118548286673453,0.0522878975515724));
#900=CARTESIAN_POINT('',(0.0106881456594654,0.0906516744897404,0.0801704155058111));
#901=CARTESIAN_POINT('',(0.0086202286513304,0.0921414615349206,0.0789330140352636));
#902=CARTESIAN_POINT('',(0.00733395554368396,0.0912316300180179,0.0765783130573834));
#903=CARTESIAN_POINT('',(0.0123510264213798,0.0917788897274052,0.0788562436538351));
#904=CARTESIAN_POINT('',(0.00992307004726689,0.093280480533847,0.0776871131516184));
#905=CARTESIAN_POINT('',(0.00847931084237528,0.0920417848308691,0.0752641412050905));
#906=CARTESIAN_POINT('',(0.0143398840750857,0.0937000676534635,0.07666445773766));
#907=CARTESIAN_POINT('',(0.0113708899124157,0.095204248443549,0.0756234504852936));
#908=CARTESIAN_POINT('',(0.00985397910331586,0.0934208896091935,0.0730723552893038));
#909=CARTESIAN_POINT('',(0.0162704906150524,0.0966185564119199,0.0734723833065562));
#910=CARTESIAN_POINT('',(0.0125442648208474,0.0979656104577531,0.0727620162307308));
#911=CARTESIAN_POINT('',(0.0111955124211315,0.0955116594342307,0.0698802808581151));
#912=CARTESIAN_POINT('',(0.0173282872616738,0.098894092596042,0.0710495262711732));
#913=CARTESIAN_POINT('',(0.0130526478329745,0.100102794319191,0.0705965970968518));
#914=CARTESIAN_POINT('',(0.0119344200155074,0.0971399347548872,0.0674574238227491));
#915=CARTESIAN_POINT('',(0.018042569811118,0.101262189167054,0.068593008915726));
#916=CARTESIAN_POINT('',(0.0132125992639236,0.1022761332608,0.0684419729967879));
#917=CARTESIAN_POINT('',(0.0124374536803424,0.0988327054907595,0.0650009064672974));
#918=CARTESIAN_POINT('',(0.0185318512306907,0.104561500926529,0.0652589137497006));
#919=CARTESIAN_POINT('',(0.0129429362973519,0.105259714679163,0.065547013835858));
#920=CARTESIAN_POINT('',(0.0127893574830954,0.101188928420311,0.0616668113012735));
#921=CARTESIAN_POINT('',(0.0182596707064079,0.108714818823483,0.0612173063204571));
#922=CARTESIAN_POINT('',(0.0116858775010646,0.108807478515232,0.0622146389222988));
#923=CARTESIAN_POINT('',(0.012618254950624,0.104151445022432,0.0576252038720293));
#924=CARTESIAN_POINT('',(0.0167003543614114,0.112922654117336,0.0573091439954072));
#925=CARTESIAN_POINT('',(0.00930861790995235,0.111759789314461,0.0595358203194595));
#926=CARTESIAN_POINT('',(0.0115539869022504,0.107149125160144,0.0537170415469796));
#927=CARTESIAN_POINT('',(0.0146021889941282,0.116051405710757,0.0544897344433063));
#928=CARTESIAN_POINT('',(0.00693306928728161,0.113475339101216,0.0579991916213907));
#929=CARTESIAN_POINT('',(0.0101100672722173,0.109376549876818,0.0508976319948787));
#930=CARTESIAN_POINT('',(0.0125428894790505,0.118257038712573,0.0525383191893556));
#931=CARTESIAN_POINT('',(0.0049383490745412,0.114385686064395,0.0571831151127721));
#932=CARTESIAN_POINT('',(0.00868884089385403,0.110946193301974,0.0489462167409279));
#933=CARTESIAN_POINT('',(0.0100284028815994,0.120173971960184,0.0508698219157514));
#934=CARTESIAN_POINT('',(0.00301945966992684,0.114790528033258,0.0568052597821891));
#935=CARTESIAN_POINT('',(0.00695001093332499,0.112309957489874,0.0472777194673237));
#936=CARTESIAN_POINT('',(0.00703224610260968,0.121720119899286,0.0495417523213916));
#937=CARTESIAN_POINT('',(0.00142969585093556,0.11473045304846,0.0568228504659572));
#938=CARTESIAN_POINT('',(0.00487523885412367,0.113409674161293,0.045949649872964));
#939=CARTESIAN_POINT('',(0.00362593688370324,0.122735154040146,0.0486784120374401));
#940=CARTESIAN_POINT('',(0.000446269480553641,0.114416506493452,0.0570595854753319));
#941=CARTESIAN_POINT('',(0.00251429777666178,0.11413150955718,0.0450863095890124));
#942=CARTESIAN_POINT('',(0.000617016147046926,0.123031926568243,0.048427249510229));
#943=CARTESIAN_POINT('',(7.63909913806848E-5,0.114271063841842,0.0571724181739322));
#944=CARTESIAN_POINT('',(0.000427851730654725,0.114342540336963,0.0448351470618013));
#945=CARTESIAN_POINT('',(-0.00183150243714255,0.12291180854927,0.0485289612687406));
#946=CARTESIAN_POINT('',(-0.000226193305526248,0.114328275176005,0.0571281244989986));
#947=CARTESIAN_POINT('',(-0.00127000124968687,0.114257125364594,0.044936858820313));
#948=CARTESIAN_POINT('',(-0.00418600828105513,0.122567070762076,0.048821347432869));
#949=CARTESIAN_POINT('',(-0.000616083407426569,0.11447167835521,0.0570179114721796));
#950=CARTESIAN_POINT('',(-0.00290248557371298,0.114011978537517,0.0452292449844413));
#951=CARTESIAN_POINT('',(-0.00703283670070463,0.121720022306831,0.0495418518452663));
#952=CARTESIAN_POINT('',(-0.00142981483880092,0.11472992306902,0.0568232936240421));
#953=CARTESIAN_POINT('',(-0.00487564812814889,0.113409604491758,0.0459497493968386));
#954=CARTESIAN_POINT('',(-0.0100217825542488,0.120178460349,0.050865948262539));
#955=CARTESIAN_POINT('',(-0.0030147200037866,0.114790861075546,0.0568048771919996));
#956=CARTESIAN_POINT('',(-0.00694542939113427,0.112313150314758,0.0472738458141114));
#957=CARTESIAN_POINT('',(-0.0133901223745064,0.117610143579849,0.053101257985433));
#958=CARTESIAN_POINT('',(-0.00552754471049901,0.114263705006724,0.0572972293228298));
#959=CARTESIAN_POINT('',(-0.00927472744395429,0.110485973582075,0.0495091555370053));
#960=CARTESIAN_POINT('',(-0.0157987779424277,0.114510992710744,0.0558629237761488));
#961=CARTESIAN_POINT('',(-0.00819243271040449,0.112751503821534,0.0586427616602242));
#962=CARTESIAN_POINT('',(-0.010934686213266,0.108280157065205,0.0522708213277211));
#963=CARTESIAN_POINT('',(-0.0173201068095454,0.111257071754063,0.0588554094283887));
#964=CARTESIAN_POINT('',(-0.0103144764083352,0.110519761724388,0.0606606340577239));
#965=CARTESIAN_POINT('',(-0.0119770187603707,0.10596256877646,0.055263306979961));
#966=CARTESIAN_POINT('',(-0.0183151759980114,0.10788029662853,0.0620294839145161));
#967=CARTESIAN_POINT('',(-0.0119572577645483,0.108039663848047,0.062935824131744));
#968=CARTESIAN_POINT('',(-0.0126531959186146,0.103556188532339,0.0584373814660883));
#969=CARTESIAN_POINT('',(-0.0185860951448341,0.103725804604437,0.066071879248533));
#970=CARTESIAN_POINT('',(-0.0131697803645132,0.104621364676076,0.0661463232480809));
#971=CARTESIAN_POINT('',(-0.0128234301828032,0.100592840919475,0.0624797768001067));
#972=CARTESIAN_POINT('',(-0.0176801262608562,0.0996423694772095,0.0702520959432143));
#973=CARTESIAN_POINT('',(-0.0132337408863528,0.10084967237925,0.0698393793501989));
#974=CARTESIAN_POINT('',(-0.0121801538979622,0.0976753872532495,0.0666599934947829));
#975=CARTESIAN_POINT('',(-0.0162685978817669,0.0966191158880034,0.0734720231860267));
#976=CARTESIAN_POINT('',(-0.0125422627618721,0.0979652577267372,0.0727625227446508));
#977=CARTESIAN_POINT('',(-0.0111942151036781,0.0955120537454033,0.0698799207376055));
#978=CARTESIAN_POINT('',(-0.014836101178505,0.0944438254229159,0.0758507939278316));
#979=CARTESIAN_POINT('',(-0.0116621898814879,0.0958813091104312,0.0749217989113587));
#980=CARTESIAN_POINT('',(-0.0101987508957726,0.0939537126386589,0.0722586914793792));
#981=CARTESIAN_POINT('',(-0.0130049731258428,0.0924179667429629,0.0781267754458542));
#982=CARTESIAN_POINT('',(-0.0103879590148622,0.0939064060780731,0.0770150977197001));
#983=CARTESIAN_POINT('',(-0.00893134334559256,0.092500558937602,0.0745346729975187));
#984=CARTESIAN_POINT('',(-0.0115185037946186,0.0912146611317996,0.0795140623493036));
#985=CARTESIAN_POINT('',(-0.00926428074244156,0.0927046525467284,0.0783169819216974));
#986=CARTESIAN_POINT('',(-0.0079058886844707,0.091636260807831,0.0759219599006772));
#987=CARTESIAN_POINT('',(-0.0106895501958899,0.0906526266767163,0.0801693053993424));
#988=CARTESIAN_POINT('',(-0.00862130737895623,0.0921424047243173,0.0789319823458144));
#989=CARTESIAN_POINT('',(-0.00733492295792341,0.0912323143758441,0.0765772029509148));
#990=CARTESIAN_POINT('',(-0.00940144109448406,0.0926701249095088,0.0762));
#991=CARTESIAN_POINT('',(-0.0103961604313297,0.0932810409990589,0.0762));
#992=CARTESIAN_POINT('',(-0.0124152341645862,0.0943401489821994,0.0759257054412378));
#993=CARTESIAN_POINT('',(-0.0145050870851847,0.0951682970379446,0.0751871888649072));
#994=CARTESIAN_POINT('',(-0.0155037610064887,0.0954874558114949,0.0747121024484276));
#995=CARTESIAN_POINT('',(0.00940144109448408,0.0926701249095088,0.0762));
#996=CARTESIAN_POINT('',(0.0103961604313297,0.0932810409990588,0.0762));
#997=CARTESIAN_POINT('',(0.0124152341645614,0.0943401489822333,0.0759257054412084));
#998=CARTESIAN_POINT('',(0.0145050870852343,0.095168297037877,0.075187188864966));
#999=CARTESIAN_POINT('',(0.0155037610064887,0.0954874558114949,0.0747121024484276));
#1000=CARTESIAN_POINT('',(0.,7.38768181585641E-18,0.07112));
#1001=CARTESIAN_POINT('',(0.0575584392380714,-0.0610725130271912,0.066802));
#1002=CARTESIAN_POINT('',(0.0575584392380714,0.0610725130271912,0.066802));
#1003=CARTESIAN_POINT('',(-0.0575584392380714,-0.0610725130271912,0.066802));
#1004=CARTESIAN_POINT('',(-0.0575584392380714,0.0610725130271912,0.066802));
#1005=MECHANICAL_DESIGN_GEOMETRIC_PRESENTATION_REPRESENTATION('',(#492),
#1006);
#1006=(
GEOMETRIC_REPRESENTATION_CONTEXT(3)
GLOBAL_UNCERTAINTY_ASSIGNED_CONTEXT((#1007))
GLOBAL_UNIT_ASSIGNED_CONTEXT((#1010,#1009,#1008))
REPRESENTATION_CONTEXT('Part 1','TOP_LEVEL_ASSEMBLY_PART')
);
#1007=UNCERTAINTY_MEASURE_WITH_UNIT(LENGTH_MEASURE(2.E-5),#1010,
'DISTANCE_ACCURACY_VALUE','Maximum Tolerance applied to model');
#1008=(
NAMED_UNIT(*)
SI_UNIT($,.STERADIAN.)
SOLID_ANGLE_UNIT()
);
#1009=(
NAMED_UNIT(*)
PLANE_ANGLE_UNIT()
SI_UNIT($,.RADIAN.)
);
#1010=(
LENGTH_UNIT()
NAMED_UNIT(*)
SI_UNIT($,.METRE.)
);
#1011=PRODUCT_DEFINITION_SHAPE('','',#1012);
#1012=PRODUCT_DEFINITION('','',#1014,#1013);
#1013=PRODUCT_DEFINITION_CONTEXT('',#1020,'design');
#1014=PRODUCT_DEFINITION_FORMATION_WITH_SPECIFIED_SOURCE('','',#1016,
 .NOT_KNOWN.);
#1015=PRODUCT_RELATED_PRODUCT_CATEGORY('','',(#1016));
#1016=PRODUCT('Part 1','Part 1','Part 1',(#1018));
#1017=PRODUCT_CATEGORY('','');
#1018=PRODUCT_CONTEXT('',#1020,'mechanical');
#1019=APPLICATION_PROTOCOL_DEFINITION('international standard',
'ap242_managed_model_based_3d_engineering',2020,#1020);
#1020=APPLICATION_CONTEXT('managed model based 3d engineering');
ENDSEC;
END-ISO-10303-21;
