ISO-10303-21;
HEADER;
/* Generated by software containing ST-Developer
 * from STEP Tools, Inc. (www.steptools.com) 
 */
/* OPTION: using custom renumber hook */

FILE_DESCRIPTION(
/* description */ ('STEP AP242 Edition 2',
'CAx-IF Rec.Pracs.---Representation and Presentation of Product Manufa
cturing Information (PMI)---4.0---2014-10-13',
'CAx-IF Rec.Pracs.---3D Tessellated Geometry---0.4---2014-09-14','2;1',
'CAx-IF Rec.Pracs.---User Defined Attributes---1.5---2016-08-15'),
/* implementation_level */ '2;1');

FILE_NAME(
/* name */ 'Master Reference - Part 2',
/* time_stamp */ '2026-08-15T18:30:46Z',
/* author */ (''),
/* organization */ (''),
/* preprocessor_version */ 'ST-DEVELOPER v20',
/* originating_system */ 'ONSHAPE BY PTC INC, 1.219',
/* authorisation */ '  ');

FILE_SCHEMA (('AP242_MANAGED_MODEL_BASED_3D_ENGINEERING_MIM_LF { 1 0 10303 442 3 1 4 }'));
ENDSEC;

DATA;
#10=SHAPE_REPRESENTATION_RELATIONSHIP('','',#632,#11);
#11=ADVANCED_BREP_SHAPE_REPRESENTATION('',(#630),#1010);
#12=CYLINDRICAL_SURFACE('',#650,0.003683);
#13=CYLINDRICAL_SURFACE('',#652,0.22225);
#14=CYLINDRICAL_SURFACE('',#654,0.228599999999523);
#15=CYLINDRICAL_SURFACE('',#657,0.22225);
#16=CIRCLE('',#637,0.228599999999523);
#17=CIRCLE('',#638,0.22225);
#18=CIRCLE('',#639,0.003683);
#19=CIRCLE('',#640,0.22225);
#20=CIRCLE('',#642,0.22225);
#21=CIRCLE('',#643,0.003683);
#22=CIRCLE('',#644,0.22225);
#23=CIRCLE('',#645,0.228599999999523);
#24=ORIENTED_EDGE('',*,*,#198,.F.);
#25=ORIENTED_EDGE('',*,*,#199,.F.);
#26=ORIENTED_EDGE('',*,*,#200,.T.);
#27=ORIENTED_EDGE('',*,*,#201,.T.);
#28=ORIENTED_EDGE('',*,*,#202,.T.);
#29=ORIENTED_EDGE('',*,*,#203,.F.);
#30=ORIENTED_EDGE('',*,*,#204,.F.);
#31=ORIENTED_EDGE('',*,*,#205,.T.);
#32=ORIENTED_EDGE('',*,*,#206,.T.);
#33=ORIENTED_EDGE('',*,*,#207,.F.);
#34=ORIENTED_EDGE('',*,*,#208,.F.);
#35=ORIENTED_EDGE('',*,*,#209,.T.);
#36=ORIENTED_EDGE('',*,*,#210,.F.);
#37=ORIENTED_EDGE('',*,*,#211,.T.);
#38=ORIENTED_EDGE('',*,*,#212,.T.);
#39=ORIENTED_EDGE('',*,*,#213,.F.);
#40=ORIENTED_EDGE('',*,*,#214,.T.);
#41=ORIENTED_EDGE('',*,*,#215,.T.);
#42=ORIENTED_EDGE('',*,*,#216,.F.);
#43=ORIENTED_EDGE('',*,*,#217,.F.);
#44=ORIENTED_EDGE('',*,*,#218,.F.);
#45=ORIENTED_EDGE('',*,*,#219,.T.);
#46=ORIENTED_EDGE('',*,*,#220,.T.);
#47=ORIENTED_EDGE('',*,*,#221,.F.);
#48=ORIENTED_EDGE('',*,*,#201,.F.);
#49=ORIENTED_EDGE('',*,*,#222,.T.);
#50=ORIENTED_EDGE('',*,*,#219,.F.);
#51=ORIENTED_EDGE('',*,*,#223,.F.);
#52=ORIENTED_EDGE('',*,*,#224,.T.);
#53=ORIENTED_EDGE('',*,*,#225,.T.);
#54=ORIENTED_EDGE('',*,*,#226,.F.);
#55=ORIENTED_EDGE('',*,*,#227,.T.);
#56=ORIENTED_EDGE('',*,*,#228,.T.);
#57=ORIENTED_EDGE('',*,*,#229,.F.);
#58=ORIENTED_EDGE('',*,*,#230,.T.);
#59=ORIENTED_EDGE('',*,*,#231,.T.);
#60=ORIENTED_EDGE('',*,*,#232,.T.);
#61=ORIENTED_EDGE('',*,*,#233,.F.);
#62=ORIENTED_EDGE('',*,*,#203,.T.);
#63=ORIENTED_EDGE('',*,*,#234,.F.);
#64=ORIENTED_EDGE('',*,*,#235,.F.);
#65=ORIENTED_EDGE('',*,*,#236,.F.);
#66=ORIENTED_EDGE('',*,*,#237,.T.);
#67=ORIENTED_EDGE('',*,*,#238,.F.);
#68=ORIENTED_EDGE('',*,*,#239,.F.);
#69=ORIENTED_EDGE('',*,*,#240,.T.);
#70=ORIENTED_EDGE('',*,*,#241,.F.);
#71=ORIENTED_EDGE('',*,*,#242,.F.);
#72=ORIENTED_EDGE('',*,*,#243,.T.);
#73=ORIENTED_EDGE('',*,*,#217,.T.);
#74=ORIENTED_EDGE('',*,*,#244,.F.);
#75=ORIENTED_EDGE('',*,*,#225,.F.);
#76=ORIENTED_EDGE('',*,*,#245,.T.);
#77=ORIENTED_EDGE('',*,*,#241,.T.);
#78=ORIENTED_EDGE('',*,*,#246,.T.);
#79=ORIENTED_EDGE('',*,*,#247,.T.);
#80=ORIENTED_EDGE('',*,*,#248,.F.);
#81=ORIENTED_EDGE('',*,*,#249,.T.);
#82=ORIENTED_EDGE('',*,*,#250,.F.);
#83=ORIENTED_EDGE('',*,*,#251,.F.);
#84=ORIENTED_EDGE('',*,*,#252,.T.);
#85=ORIENTED_EDGE('',*,*,#253,.F.);
#86=ORIENTED_EDGE('',*,*,#227,.F.);
#87=ORIENTED_EDGE('',*,*,#254,.T.);
#88=ORIENTED_EDGE('',*,*,#255,.T.);
#89=ORIENTED_EDGE('',*,*,#256,.F.);
#90=ORIENTED_EDGE('',*,*,#257,.F.);
#91=ORIENTED_EDGE('',*,*,#258,.T.);
#92=ORIENTED_EDGE('',*,*,#259,.T.);
#93=ORIENTED_EDGE('',*,*,#260,.T.);
#94=ORIENTED_EDGE('',*,*,#261,.F.);
#95=ORIENTED_EDGE('',*,*,#262,.F.);
#96=ORIENTED_EDGE('',*,*,#239,.T.);
#97=ORIENTED_EDGE('',*,*,#263,.F.);
#98=ORIENTED_EDGE('',*,*,#257,.T.);
#99=ORIENTED_EDGE('',*,*,#264,.T.);
#100=ORIENTED_EDGE('',*,*,#251,.T.);
#101=ORIENTED_EDGE('',*,*,#265,.T.);
#102=ORIENTED_EDGE('',*,*,#266,.F.);
#103=ORIENTED_EDGE('',*,*,#259,.F.);
#104=ORIENTED_EDGE('',*,*,#267,.F.);
#105=ORIENTED_EDGE('',*,*,#249,.F.);
#106=ORIENTED_EDGE('',*,*,#236,.T.);
#107=ORIENTED_EDGE('',*,*,#268,.F.);
#108=ORIENTED_EDGE('',*,*,#230,.F.);
#109=ORIENTED_EDGE('',*,*,#269,.T.);
#110=ORIENTED_EDGE('',*,*,#235,.T.);
#111=ORIENTED_EDGE('',*,*,#270,.F.);
#112=ORIENTED_EDGE('',*,*,#231,.F.);
#113=ORIENTED_EDGE('',*,*,#268,.T.);
#114=ORIENTED_EDGE('',*,*,#234,.T.);
#115=ORIENTED_EDGE('',*,*,#202,.F.);
#116=ORIENTED_EDGE('',*,*,#232,.F.);
#117=ORIENTED_EDGE('',*,*,#270,.T.);
#118=ORIENTED_EDGE('',*,*,#271,.F.);
#119=ORIENTED_EDGE('',*,*,#212,.F.);
#120=ORIENTED_EDGE('',*,*,#272,.T.);
#121=ORIENTED_EDGE('',*,*,#208,.T.);
#122=ORIENTED_EDGE('',*,*,#243,.F.);
#123=ORIENTED_EDGE('',*,*,#273,.F.);
#124=ORIENTED_EDGE('',*,*,#223,.T.);
#125=ORIENTED_EDGE('',*,*,#218,.T.);
#126=ORIENTED_EDGE('',*,*,#242,.T.);
#127=ORIENTED_EDGE('',*,*,#245,.F.);
#128=ORIENTED_EDGE('',*,*,#224,.F.);
#129=ORIENTED_EDGE('',*,*,#273,.T.);
#130=ORIENTED_EDGE('',*,*,#267,.T.);
#131=ORIENTED_EDGE('',*,*,#258,.F.);
#132=ORIENTED_EDGE('',*,*,#265,.F.);
#133=ORIENTED_EDGE('',*,*,#250,.T.);
#134=ORIENTED_EDGE('',*,*,#238,.T.);
#135=ORIENTED_EDGE('',*,*,#274,.F.);
#136=ORIENTED_EDGE('',*,*,#228,.F.);
#137=ORIENTED_EDGE('',*,*,#263,.T.);
#138=ORIENTED_EDGE('',*,*,#237,.F.);
#139=ORIENTED_EDGE('',*,*,#269,.F.);
#140=ORIENTED_EDGE('',*,*,#229,.T.);
#141=ORIENTED_EDGE('',*,*,#274,.T.);
#142=ORIENTED_EDGE('',*,*,#275,.F.);
#143=ORIENTED_EDGE('',*,*,#209,.F.);
#144=ORIENTED_EDGE('',*,*,#272,.F.);
#145=ORIENTED_EDGE('',*,*,#211,.F.);
#146=ORIENTED_EDGE('',*,*,#207,.T.);
#147=ORIENTED_EDGE('',*,*,#276,.T.);
#148=ORIENTED_EDGE('',*,*,#213,.T.);
#149=ORIENTED_EDGE('',*,*,#271,.T.);
#150=ORIENTED_EDGE('',*,*,#261,.T.);
#151=ORIENTED_EDGE('',*,*,#277,.T.);
#152=ORIENTED_EDGE('',*,*,#247,.F.);
#153=ORIENTED_EDGE('',*,*,#278,.F.);
#154=ORIENTED_EDGE('',*,*,#262,.T.);
#155=ORIENTED_EDGE('',*,*,#278,.T.);
#156=ORIENTED_EDGE('',*,*,#246,.F.);
#157=ORIENTED_EDGE('',*,*,#240,.F.);
#158=ORIENTED_EDGE('',*,*,#266,.T.);
#159=ORIENTED_EDGE('',*,*,#248,.T.);
#160=ORIENTED_EDGE('',*,*,#277,.F.);
#161=ORIENTED_EDGE('',*,*,#260,.F.);
#162=ORIENTED_EDGE('',*,*,#279,.T.);
#163=ORIENTED_EDGE('',*,*,#253,.T.);
#164=ORIENTED_EDGE('',*,*,#280,.F.);
#165=ORIENTED_EDGE('',*,*,#255,.F.);
#166=ORIENTED_EDGE('',*,*,#226,.T.);
#167=ORIENTED_EDGE('',*,*,#244,.T.);
#168=ORIENTED_EDGE('',*,*,#279,.F.);
#169=ORIENTED_EDGE('',*,*,#254,.F.);
#170=ORIENTED_EDGE('',*,*,#256,.T.);
#171=ORIENTED_EDGE('',*,*,#280,.T.);
#172=ORIENTED_EDGE('',*,*,#252,.F.);
#173=ORIENTED_EDGE('',*,*,#264,.F.);
#174=ORIENTED_EDGE('',*,*,#281,.T.);
#175=ORIENTED_EDGE('',*,*,#214,.F.);
#176=ORIENTED_EDGE('',*,*,#276,.F.);
#177=ORIENTED_EDGE('',*,*,#206,.F.);
#178=ORIENTED_EDGE('',*,*,#204,.T.);
#179=ORIENTED_EDGE('',*,*,#233,.T.);
#180=ORIENTED_EDGE('',*,*,#216,.T.);
#181=ORIENTED_EDGE('',*,*,#282,.F.);
#182=ORIENTED_EDGE('',*,*,#282,.T.);
#183=ORIENTED_EDGE('',*,*,#215,.F.);
#184=ORIENTED_EDGE('',*,*,#281,.F.);
#185=ORIENTED_EDGE('',*,*,#205,.F.);
#186=ORIENTED_EDGE('',*,*,#198,.T.);
#187=ORIENTED_EDGE('',*,*,#275,.T.);
#188=ORIENTED_EDGE('',*,*,#210,.T.);
#189=ORIENTED_EDGE('',*,*,#283,.F.);
#190=ORIENTED_EDGE('',*,*,#199,.T.);
#191=ORIENTED_EDGE('',*,*,#283,.T.);
#192=ORIENTED_EDGE('',*,*,#221,.T.);
#193=ORIENTED_EDGE('',*,*,#284,.F.);
#194=ORIENTED_EDGE('',*,*,#284,.T.);
#195=ORIENTED_EDGE('',*,*,#220,.F.);
#196=ORIENTED_EDGE('',*,*,#222,.F.);
#197=ORIENTED_EDGE('',*,*,#200,.F.);
#198=EDGE_CURVE('',#285,#286,#343,.T.);
#199=EDGE_CURVE('',#287,#285,#344,.T.);
#200=EDGE_CURVE('',#287,#288,#345,.T.);
#201=EDGE_CURVE('',#288,#289,#346,.T.);
#202=EDGE_CURVE('',#289,#290,#347,.T.);
#203=EDGE_CURVE('',#291,#290,#348,.T.);
#204=EDGE_CURVE('',#292,#291,#349,.T.);
#205=EDGE_CURVE('',#292,#293,#350,.T.);
#206=EDGE_CURVE('',#293,#294,#351,.T.);
#207=EDGE_CURVE('',#295,#294,#352,.T.);
#208=EDGE_CURVE('',#296,#295,#353,.T.);
#209=EDGE_CURVE('',#296,#286,#354,.T.);
#210=EDGE_CURVE('',#297,#298,#355,.T.);
#211=EDGE_CURVE('',#297,#299,#356,.T.);
#212=EDGE_CURVE('',#299,#300,#357,.T.);
#213=EDGE_CURVE('',#301,#300,#358,.T.);
#214=EDGE_CURVE('',#301,#302,#359,.T.);
#215=EDGE_CURVE('',#302,#303,#360,.T.);
#216=EDGE_CURVE('',#304,#303,#361,.T.);
#217=EDGE_CURVE('',#305,#304,#362,.T.);
#218=EDGE_CURVE('',#306,#305,#363,.T.);
#219=EDGE_CURVE('',#306,#307,#364,.T.);
#220=EDGE_CURVE('',#307,#308,#365,.T.);
#221=EDGE_CURVE('',#298,#308,#366,.T.);
#222=EDGE_CURVE('',#288,#307,#367,.T.);
#223=EDGE_CURVE('',#309,#306,#16,.T.);
#224=EDGE_CURVE('',#309,#310,#368,.T.);
#225=EDGE_CURVE('',#310,#311,#369,.T.);
#226=EDGE_CURVE('',#312,#311,#370,.T.);
#227=EDGE_CURVE('',#312,#313,#371,.T.);
#228=EDGE_CURVE('',#313,#314,#17,.T.);
#229=EDGE_CURVE('',#315,#314,#372,.T.);
#230=EDGE_CURVE('',#315,#316,#18,.T.);
#231=EDGE_CURVE('',#316,#317,#373,.T.);
#232=EDGE_CURVE('',#317,#289,#19,.T.);
#233=EDGE_CURVE('',#291,#304,#374,.T.);
#234=EDGE_CURVE('',#318,#290,#20,.T.);
#235=EDGE_CURVE('',#319,#318,#375,.T.);
#236=EDGE_CURVE('',#320,#319,#21,.T.);
#237=EDGE_CURVE('',#320,#321,#376,.T.);
#238=EDGE_CURVE('',#322,#321,#22,.T.);
#239=EDGE_CURVE('',#323,#322,#377,.T.);
#240=EDGE_CURVE('',#323,#324,#378,.T.);
#241=EDGE_CURVE('',#325,#324,#379,.T.);
#242=EDGE_CURVE('',#326,#325,#380,.T.);
#243=EDGE_CURVE('',#326,#305,#23,.T.);
#244=EDGE_CURVE('',#311,#327,#381,.T.);
#245=EDGE_CURVE('',#310,#325,#382,.T.);
#246=EDGE_CURVE('',#324,#328,#383,.T.);
#247=EDGE_CURVE('',#328,#329,#384,.F.);
#248=EDGE_CURVE('',#330,#329,#385,.T.);
#249=EDGE_CURVE('',#330,#331,#386,.T.);
#250=EDGE_CURVE('',#332,#331,#387,.T.);
#251=EDGE_CURVE('',#333,#332,#388,.T.);
#252=EDGE_CURVE('',#333,#334,#389,.F.);
#253=EDGE_CURVE('',#327,#334,#390,.T.);
#254=EDGE_CURVE('',#312,#335,#391,.T.);
#255=EDGE_CURVE('',#335,#336,#392,.T.);
#256=EDGE_CURVE('',#337,#336,#393,.T.);
#257=EDGE_CURVE('',#338,#337,#394,.T.);
#258=EDGE_CURVE('',#338,#339,#395,.T.);
#259=EDGE_CURVE('',#339,#340,#396,.T.);
#260=EDGE_CURVE('',#340,#341,#397,.T.);
#261=EDGE_CURVE('',#342,#341,#398,.T.);
#262=EDGE_CURVE('',#323,#342,#399,.T.);
#263=EDGE_CURVE('',#313,#322,#400,.T.);
#264=EDGE_CURVE('',#337,#333,#401,.T.);
#265=EDGE_CURVE('',#332,#338,#402,.T.);
#266=EDGE_CURVE('',#340,#330,#403,.T.);
#267=EDGE_CURVE('',#331,#339,#404,.T.);
#268=EDGE_CURVE('',#316,#319,#405,.T.);
#269=EDGE_CURVE('',#315,#320,#406,.T.);
#270=EDGE_CURVE('',#317,#318,#407,.T.);
#271=EDGE_CURVE('',#300,#295,#408,.T.);
#272=EDGE_CURVE('',#299,#296,#409,.T.);
#273=EDGE_CURVE('',#309,#326,#410,.T.);
#274=EDGE_CURVE('',#314,#321,#411,.T.);
#275=EDGE_CURVE('',#286,#297,#412,.T.);
#276=EDGE_CURVE('',#294,#301,#413,.T.);
#277=EDGE_CURVE('',#341,#329,#414,.T.);
#278=EDGE_CURVE('',#342,#328,#415,.T.);
#279=EDGE_CURVE('',#335,#327,#416,.T.);
#280=EDGE_CURVE('',#336,#334,#417,.T.);
#281=EDGE_CURVE('',#293,#302,#418,.T.);
#282=EDGE_CURVE('',#292,#303,#419,.T.);
#283=EDGE_CURVE('',#285,#298,#420,.T.);
#284=EDGE_CURVE('',#287,#308,#421,.T.);
#285=VERTEX_POINT('',#835);
#286=VERTEX_POINT('',#836);
#287=VERTEX_POINT('',#838);
#288=VERTEX_POINT('',#840);
#289=VERTEX_POINT('',#842);
#290=VERTEX_POINT('',#844);
#291=VERTEX_POINT('',#846);
#292=VERTEX_POINT('',#848);
#293=VERTEX_POINT('',#850);
#294=VERTEX_POINT('',#852);
#295=VERTEX_POINT('',#854);
#296=VERTEX_POINT('',#856);
#297=VERTEX_POINT('',#860);
#298=VERTEX_POINT('',#861);
#299=VERTEX_POINT('',#863);
#300=VERTEX_POINT('',#865);
#301=VERTEX_POINT('',#867);
#302=VERTEX_POINT('',#869);
#303=VERTEX_POINT('',#871);
#304=VERTEX_POINT('',#873);
#305=VERTEX_POINT('',#875);
#306=VERTEX_POINT('',#877);
#307=VERTEX_POINT('',#879);
#308=VERTEX_POINT('',#881);
#309=VERTEX_POINT('',#886);
#310=VERTEX_POINT('',#888);
#311=VERTEX_POINT('',#890);
#312=VERTEX_POINT('',#892);
#313=VERTEX_POINT('',#894);
#314=VERTEX_POINT('',#896);
#315=VERTEX_POINT('',#898);
#316=VERTEX_POINT('',#900);
#317=VERTEX_POINT('',#902);
#318=VERTEX_POINT('',#907);
#319=VERTEX_POINT('',#909);
#320=VERTEX_POINT('',#911);
#321=VERTEX_POINT('',#913);
#322=VERTEX_POINT('',#915);
#323=VERTEX_POINT('',#917);
#324=VERTEX_POINT('',#919);
#325=VERTEX_POINT('',#921);
#326=VERTEX_POINT('',#923);
#327=VERTEX_POINT('',#927);
#328=VERTEX_POINT('',#930);
#329=VERTEX_POINT('',#932);
#330=VERTEX_POINT('',#934);
#331=VERTEX_POINT('',#936);
#332=VERTEX_POINT('',#938);
#333=VERTEX_POINT('',#940);
#334=VERTEX_POINT('',#942);
#335=VERTEX_POINT('',#946);
#336=VERTEX_POINT('',#948);
#337=VERTEX_POINT('',#950);
#338=VERTEX_POINT('',#952);
#339=VERTEX_POINT('',#954);
#340=VERTEX_POINT('',#956);
#341=VERTEX_POINT('',#958);
#342=VERTEX_POINT('',#960);
#343=LINE('',#834,#422);
#344=LINE('',#837,#423);
#345=LINE('',#839,#424);
#346=LINE('',#841,#425);
#347=LINE('',#843,#426);
#348=LINE('',#845,#427);
#349=LINE('',#847,#428);
#350=LINE('',#849,#429);
#351=LINE('',#851,#430);
#352=LINE('',#853,#431);
#353=LINE('',#855,#432);
#354=LINE('',#857,#433);
#355=LINE('',#859,#434);
#356=LINE('',#862,#435);
#357=LINE('',#864,#436);
#358=LINE('',#866,#437);
#359=LINE('',#868,#438);
#360=LINE('',#870,#439);
#361=LINE('',#872,#440);
#362=LINE('',#874,#441);
#363=LINE('',#876,#442);
#364=LINE('',#878,#443);
#365=LINE('',#880,#444);
#366=LINE('',#882,#445);
#367=LINE('',#884,#446);
#368=LINE('',#887,#447);
#369=LINE('',#889,#448);
#370=LINE('',#891,#449);
#371=LINE('',#893,#450);
#372=LINE('',#897,#451);
#373=LINE('',#901,#452);
#374=LINE('',#905,#453);
#375=LINE('',#908,#454);
#376=LINE('',#912,#455);
#377=LINE('',#916,#456);
#378=LINE('',#918,#457);
#379=LINE('',#920,#458);
#380=LINE('',#922,#459);
#381=LINE('',#926,#460);
#382=LINE('',#928,#461);
#383=LINE('',#929,#462);
#384=LINE('',#931,#463);
#385=LINE('',#933,#464);
#386=LINE('',#935,#465);
#387=LINE('',#937,#466);
#388=LINE('',#939,#467);
#389=LINE('',#941,#468);
#390=LINE('',#943,#469);
#391=LINE('',#945,#470);
#392=LINE('',#947,#471);
#393=LINE('',#949,#472);
#394=LINE('',#951,#473);
#395=LINE('',#953,#474);
#396=LINE('',#955,#475);
#397=LINE('',#957,#476);
#398=LINE('',#959,#477);
#399=LINE('',#961,#478);
#400=LINE('',#962,#479);
#401=LINE('',#964,#480);
#402=LINE('',#965,#481);
#403=LINE('',#967,#482);
#404=LINE('',#968,#483);
#405=LINE('',#970,#484);
#406=LINE('',#971,#485);
#407=LINE('',#973,#486);
#408=LINE('',#976,#487);
#409=LINE('',#977,#488);
#410=LINE('',#979,#489);
#411=LINE('',#983,#490);
#412=LINE('',#986,#491);
#413=LINE('',#988,#492);
#414=LINE('',#990,#493);
#415=LINE('',#991,#494);
#416=LINE('',#995,#495);
#417=LINE('',#996,#496);
#418=LINE('',#1000,#497);
#419=LINE('',#1002,#498);
#420=LINE('',#1005,#499);
#421=LINE('',#1007,#500);
#422=VECTOR('',#677,1.);
#423=VECTOR('',#678,1.);
#424=VECTOR('',#679,1.);
#425=VECTOR('',#680,1.);
#426=VECTOR('',#681,1.);
#427=VECTOR('',#682,1.);
#428=VECTOR('',#683,1.);
#429=VECTOR('',#684,1.);
#430=VECTOR('',#685,1.);
#431=VECTOR('',#686,1.);
#432=VECTOR('',#687,1.);
#433=VECTOR('',#688,1.);
#434=VECTOR('',#691,1.);
#435=VECTOR('',#692,1.);
#436=VECTOR('',#693,1.);
#437=VECTOR('',#694,1.);
#438=VECTOR('',#695,1.);
#439=VECTOR('',#696,1.);
#440=VECTOR('',#697,1.);
#441=VECTOR('',#698,1.);
#442=VECTOR('',#699,1.);
#443=VECTOR('',#700,1.);
#444=VECTOR('',#701,1.);
#445=VECTOR('',#702,1.);
#446=VECTOR('',#705,1.);
#447=VECTOR('',#708,1.);
#448=VECTOR('',#709,1.);
#449=VECTOR('',#710,1.);
#450=VECTOR('',#711,1.);
#451=VECTOR('',#714,1.);
#452=VECTOR('',#717,1.);
#453=VECTOR('',#722,1.);
#454=VECTOR('',#725,1.);
#455=VECTOR('',#728,1.);
#456=VECTOR('',#731,1.);
#457=VECTOR('',#732,1.);
#458=VECTOR('',#733,1.);
#459=VECTOR('',#734,1.);
#460=VECTOR('',#739,1.);
#461=VECTOR('',#740,1.);
#462=VECTOR('',#741,1.);
#463=VECTOR('',#742,1.);
#464=VECTOR('',#743,1.);
#465=VECTOR('',#744,1.);
#466=VECTOR('',#745,1.);
#467=VECTOR('',#746,1.);
#468=VECTOR('',#747,1.);
#469=VECTOR('',#748,1.);
#470=VECTOR('',#751,1.);
#471=VECTOR('',#752,1.);
#472=VECTOR('',#753,1.);
#473=VECTOR('',#754,1.);
#474=VECTOR('',#755,1.);
#475=VECTOR('',#756,1.);
#476=VECTOR('',#757,1.);
#477=VECTOR('',#758,1.);
#478=VECTOR('',#759,1.);
#479=VECTOR('',#760,1.);
#480=VECTOR('',#763,1.);
#481=VECTOR('',#764,1.);
#482=VECTOR('',#767,1.);
#483=VECTOR('',#768,1.);
#484=VECTOR('',#771,1.);
#485=VECTOR('',#772,1.);
#486=VECTOR('',#775,1.);
#487=VECTOR('',#780,1.);
#488=VECTOR('',#781,1.);
#489=VECTOR('',#784,1.);
#490=VECTOR('',#791,1.);
#491=VECTOR('',#796,1.);
#492=VECTOR('',#799,1.);
#493=VECTOR('',#802,1.);
#494=VECTOR('',#803,1.);
#495=VECTOR('',#810,1.);
#496=VECTOR('',#811,1.);
#497=VECTOR('',#818,1.);
#498=VECTOR('',#821,1.);
#499=VECTOR('',#826,1.);
#500=VECTOR('',#829,1.);
#501=EDGE_LOOP('',(#24,#25,#26,#27,#28,#29,#30,#31,#32,#33,#34,#35));
#502=EDGE_LOOP('',(#36,#37,#38,#39,#40,#41,#42,#43,#44,#45,#46,#47));
#503=EDGE_LOOP('',(#48,#49,#50,#51,#52,#53,#54,#55,#56,#57,#58,#59,#60));
#504=EDGE_LOOP('',(#61,#62,#63,#64,#65,#66,#67,#68,#69,#70,#71,#72,#73));
#505=EDGE_LOOP('',(#74,#75,#76,#77,#78,#79,#80,#81,#82,#83,#84,#85));
#506=EDGE_LOOP('',(#86,#87,#88,#89,#90,#91,#92,#93,#94,#95,#96,#97));
#507=EDGE_LOOP('',(#98,#99,#100,#101));
#508=EDGE_LOOP('',(#102,#103,#104,#105));
#509=EDGE_LOOP('',(#106,#107,#108,#109));
#510=EDGE_LOOP('',(#110,#111,#112,#113));
#511=EDGE_LOOP('',(#114,#115,#116,#117));
#512=EDGE_LOOP('',(#118,#119,#120,#121));
#513=EDGE_LOOP('',(#122,#123,#124,#125));
#514=EDGE_LOOP('',(#126,#127,#128,#129));
#515=EDGE_LOOP('',(#130,#131,#132,#133));
#516=EDGE_LOOP('',(#134,#135,#136,#137));
#517=EDGE_LOOP('',(#138,#139,#140,#141));
#518=EDGE_LOOP('',(#142,#143,#144,#145));
#519=EDGE_LOOP('',(#146,#147,#148,#149));
#520=EDGE_LOOP('',(#150,#151,#152,#153));
#521=EDGE_LOOP('',(#154,#155,#156,#157));
#522=EDGE_LOOP('',(#158,#159,#160,#161));
#523=EDGE_LOOP('',(#162,#163,#164,#165));
#524=EDGE_LOOP('',(#166,#167,#168,#169));
#525=EDGE_LOOP('',(#170,#171,#172,#173));
#526=EDGE_LOOP('',(#174,#175,#176,#177));
#527=EDGE_LOOP('',(#178,#179,#180,#181));
#528=EDGE_LOOP('',(#182,#183,#184,#185));
#529=EDGE_LOOP('',(#186,#187,#188,#189));
#530=EDGE_LOOP('',(#190,#191,#192,#193));
#531=EDGE_LOOP('',(#194,#195,#196,#197));
#532=FACE_BOUND('',#501,.T.);
#533=FACE_BOUND('',#502,.T.);
#534=FACE_BOUND('',#503,.T.);
#535=FACE_BOUND('',#504,.T.);
#536=FACE_BOUND('',#505,.T.);
#537=FACE_BOUND('',#506,.T.);
#538=FACE_BOUND('',#507,.T.);
#539=FACE_BOUND('',#508,.T.);
#540=FACE_BOUND('',#509,.T.);
#541=FACE_BOUND('',#510,.T.);
#542=FACE_BOUND('',#511,.T.);
#543=FACE_BOUND('',#512,.T.);
#544=FACE_BOUND('',#513,.T.);
#545=FACE_BOUND('',#514,.T.);
#546=FACE_BOUND('',#515,.T.);
#547=FACE_BOUND('',#516,.T.);
#548=FACE_BOUND('',#517,.T.);
#549=FACE_BOUND('',#518,.T.);
#550=FACE_BOUND('',#519,.T.);
#551=FACE_BOUND('',#520,.T.);
#552=FACE_BOUND('',#521,.T.);
#553=FACE_BOUND('',#522,.T.);
#554=FACE_BOUND('',#523,.T.);
#555=FACE_BOUND('',#524,.T.);
#556=FACE_BOUND('',#525,.T.);
#557=FACE_BOUND('',#526,.T.);
#558=FACE_BOUND('',#527,.T.);
#559=FACE_BOUND('',#528,.T.);
#560=FACE_BOUND('',#529,.T.);
#561=FACE_BOUND('',#530,.T.);
#562=FACE_BOUND('',#531,.T.);
#563=PLANE('',#634);
#564=PLANE('',#635);
#565=PLANE('',#636);
#566=PLANE('',#641);
#567=PLANE('',#646);
#568=PLANE('',#647);
#569=PLANE('',#648);
#570=PLANE('',#649);
#571=PLANE('',#651);
#572=PLANE('',#653);
#573=PLANE('',#655);
#574=PLANE('',#656);
#575=PLANE('',#658);
#576=PLANE('',#659);
#577=PLANE('',#660);
#578=PLANE('',#661);
#579=PLANE('',#662);
#580=PLANE('',#663);
#581=PLANE('',#664);
#582=PLANE('',#665);
#583=PLANE('',#666);
#584=PLANE('',#667);
#585=PLANE('',#668);
#586=PLANE('',#669);
#587=PLANE('',#670);
#588=PLANE('',#671);
#589=PLANE('',#672);
#590=ADVANCED_FACE('',(#532),#563,.T.);
#591=ADVANCED_FACE('',(#533),#564,.T.);
#592=ADVANCED_FACE('',(#534),#565,.T.);
#593=ADVANCED_FACE('',(#535),#566,.F.);
#594=ADVANCED_FACE('',(#536),#567,.F.);
#595=ADVANCED_FACE('',(#537),#568,.F.);
#596=ADVANCED_FACE('',(#538),#569,.T.);
#597=ADVANCED_FACE('',(#539),#570,.F.);
#598=ADVANCED_FACE('',(#540),#12,.T.);
#599=ADVANCED_FACE('',(#541),#571,.F.);
#600=ADVANCED_FACE('',(#542),#13,.F.);
#601=ADVANCED_FACE('',(#543),#572,.T.);
#602=ADVANCED_FACE('',(#544),#14,.T.);
#603=ADVANCED_FACE('',(#545),#573,.F.);
#604=ADVANCED_FACE('',(#546),#574,.F.);
#605=ADVANCED_FACE('',(#547),#15,.F.);
#606=ADVANCED_FACE('',(#548),#575,.T.);
#607=ADVANCED_FACE('',(#549),#576,.T.);
#608=ADVANCED_FACE('',(#550),#577,.F.);
#609=ADVANCED_FACE('',(#551),#578,.T.);
#610=ADVANCED_FACE('',(#552),#579,.T.);
#611=ADVANCED_FACE('',(#553),#580,.F.);
#612=ADVANCED_FACE('',(#554),#581,.F.);
#613=ADVANCED_FACE('',(#555),#582,.F.);
#614=ADVANCED_FACE('',(#556),#583,.T.);
#615=ADVANCED_FACE('',(#557),#584,.T.);
#616=ADVANCED_FACE('',(#558),#585,.F.);
#617=ADVANCED_FACE('',(#559),#586,.T.);
#618=ADVANCED_FACE('',(#560),#587,.F.);
#619=ADVANCED_FACE('',(#561),#588,.F.);
#620=ADVANCED_FACE('',(#562),#589,.T.);
#621=CLOSED_SHELL('',(#590,#591,#592,#593,#594,#595,#596,#597,#598,#599,
#600,#601,#602,#603,#604,#605,#606,#607,#608,#609,#610,#611,#612,#613,#614,
#615,#616,#617,#618,#619,#620));
#622=STYLED_ITEM('',(#623),#630);
#623=PRESENTATION_STYLE_ASSIGNMENT((#624));
#624=SURFACE_STYLE_USAGE(.BOTH.,#625);
#625=SURFACE_SIDE_STYLE('',(#626));
#626=SURFACE_STYLE_FILL_AREA(#627);
#627=FILL_AREA_STYLE('',(#628));
#628=FILL_AREA_STYLE_COLOUR('',#629);
#629=COLOUR_RGB('',0.647058823529412,0.647058823529412,0.647058823529412);
#630=MANIFOLD_SOLID_BREP('Part 2',#621);
#631=SHAPE_DEFINITION_REPRESENTATION(#1015,#632);
#632=SHAPE_REPRESENTATION('Part 2',(#633),#1010);
#633=AXIS2_PLACEMENT_3D('',#832,#673,#674);
#634=AXIS2_PLACEMENT_3D('',#833,#675,#676);
#635=AXIS2_PLACEMENT_3D('',#858,#689,#690);
#636=AXIS2_PLACEMENT_3D('',#883,#703,#704);
#637=AXIS2_PLACEMENT_3D('',#885,#706,#707);
#638=AXIS2_PLACEMENT_3D('',#895,#712,#713);
#639=AXIS2_PLACEMENT_3D('',#899,#715,#716);
#640=AXIS2_PLACEMENT_3D('',#903,#718,#719);
#641=AXIS2_PLACEMENT_3D('',#904,#720,#721);
#642=AXIS2_PLACEMENT_3D('',#906,#723,#724);
#643=AXIS2_PLACEMENT_3D('',#910,#726,#727);
#644=AXIS2_PLACEMENT_3D('',#914,#729,#730);
#645=AXIS2_PLACEMENT_3D('',#924,#735,#736);
#646=AXIS2_PLACEMENT_3D('',#925,#737,#738);
#647=AXIS2_PLACEMENT_3D('',#944,#749,#750);
#648=AXIS2_PLACEMENT_3D('',#963,#761,#762);
#649=AXIS2_PLACEMENT_3D('',#966,#765,#766);
#650=AXIS2_PLACEMENT_3D('',#969,#769,#770);
#651=AXIS2_PLACEMENT_3D('',#972,#773,#774);
#652=AXIS2_PLACEMENT_3D('',#974,#776,#777);
#653=AXIS2_PLACEMENT_3D('',#975,#778,#779);
#654=AXIS2_PLACEMENT_3D('',#978,#782,#783);
#655=AXIS2_PLACEMENT_3D('',#980,#785,#786);
#656=AXIS2_PLACEMENT_3D('',#981,#787,#788);
#657=AXIS2_PLACEMENT_3D('',#982,#789,#790);
#658=AXIS2_PLACEMENT_3D('',#984,#792,#793);
#659=AXIS2_PLACEMENT_3D('',#985,#794,#795);
#660=AXIS2_PLACEMENT_3D('',#987,#797,#798);
#661=AXIS2_PLACEMENT_3D('',#989,#800,#801);
#662=AXIS2_PLACEMENT_3D('',#992,#804,#805);
#663=AXIS2_PLACEMENT_3D('',#993,#806,#807);
#664=AXIS2_PLACEMENT_3D('',#994,#808,#809);
#665=AXIS2_PLACEMENT_3D('',#997,#812,#813);
#666=AXIS2_PLACEMENT_3D('',#998,#814,#815);
#667=AXIS2_PLACEMENT_3D('',#999,#816,#817);
#668=AXIS2_PLACEMENT_3D('',#1001,#819,#820);
#669=AXIS2_PLACEMENT_3D('',#1003,#822,#823);
#670=AXIS2_PLACEMENT_3D('',#1004,#824,#825);
#671=AXIS2_PLACEMENT_3D('',#1006,#827,#828);
#672=AXIS2_PLACEMENT_3D('',#1008,#830,#831);
#673=DIRECTION('',(0.,0.,1.));
#674=DIRECTION('',(1.,0.,0.));
#675=DIRECTION('',(-0.866025403784439,0.5,0.));
#676=DIRECTION('',(-0.5,-0.866025403784439,0.));
#677=DIRECTION('',(0.,0.,1.));
#678=DIRECTION('',(-0.5,-0.866025403784439,0.));
#679=DIRECTION('',(0.,0.,1.));
#680=DIRECTION('',(0.5,0.866025403784439,0.));
#681=DIRECTION('',(0.,0.,-1.));
#682=DIRECTION('',(0.5,0.866025403784439,0.));
#683=DIRECTION('',(0.,0.,-1.));
#684=DIRECTION('',(-0.5,-0.866025403784439,0.));
#685=DIRECTION('',(0.,0.,-1.));
#686=DIRECTION('',(0.5,0.866025403784439,0.));
#687=DIRECTION('',(0.,0.,-1.));
#688=DIRECTION('',(0.5,0.866025403784439,0.));
#689=DIRECTION('',(0.866025403784439,-0.5,0.));
#690=DIRECTION('',(0.5,0.866025403784439,0.));
#691=DIRECTION('',(0.,0.,-1.));
#692=DIRECTION('',(-0.5,-0.866025403784439,0.));
#693=DIRECTION('',(0.,0.,-1.));
#694=DIRECTION('',(-0.5,-0.866025403784439,0.));
#695=DIRECTION('',(0.,0.,1.));
#696=DIRECTION('',(0.5,0.866025403784439,0.));
#697=DIRECTION('',(0.,0.,1.));
#698=DIRECTION('',(-0.5,-0.866025403784439,0.));
#699=DIRECTION('',(0.,0.,-1.));
#700=DIRECTION('',(-0.5,-0.866025403784439,0.));
#701=DIRECTION('',(0.,0.,-1.));
#702=DIRECTION('',(0.5,0.866025403784439,0.));
#703=DIRECTION('',(0.,0.,1.));
#704=DIRECTION('',(1.,0.,0.));
#705=DIRECTION('',(0.866025403784439,-0.5,0.));
#706=DIRECTION('',(0.,0.,-1.));
#707=DIRECTION('',(1.,0.,0.));
#708=DIRECTION('',(0.5,-0.866025403784438,0.));
#709=DIRECTION('',(0.500003398832386,-0.866023441458753,0.));
#710=DIRECTION('',(-0.866025403784438,-0.5,0.));
#711=DIRECTION('',(-0.5,0.866025403784438,0.));
#712=DIRECTION('',(0.,0.,-1.));
#713=DIRECTION('',(1.,0.,0.));
#714=DIRECTION('',(-1.21785890558136E-16,1.,0.));
#715=DIRECTION('',(0.,0.,1.));
#716=DIRECTION('',(1.,0.,0.));
#717=DIRECTION('',(-1.21785890558136E-16,1.,0.));
#718=DIRECTION('',(0.,0.,-1.));
#719=DIRECTION('',(1.,0.,0.));
#720=DIRECTION('',(0.,0.,1.));
#721=DIRECTION('',(1.,0.,0.));
#722=DIRECTION('',(0.866025403784439,-0.5,0.));
#723=DIRECTION('',(0.,0.,-1.));
#724=DIRECTION('',(1.,0.,0.));
#725=DIRECTION('',(-1.21785890558136E-16,1.,0.));
#726=DIRECTION('',(0.,0.,1.));
#727=DIRECTION('',(1.,0.,0.));
#728=DIRECTION('',(-1.21785890558136E-16,1.,0.));
#729=DIRECTION('',(0.,0.,-1.));
#730=DIRECTION('',(1.,0.,0.));
#731=DIRECTION('',(-0.5,0.866025403784438,0.));
#732=DIRECTION('',(-0.866025403784438,-0.5,0.));
#733=DIRECTION('',(0.500003398832386,-0.866023441458753,0.));
#734=DIRECTION('',(0.5,-0.866025403784438,0.));
#735=DIRECTION('',(0.,0.,-1.));
#736=DIRECTION('',(1.,0.,0.));
#737=DIRECTION('',(0.866023441458753,0.500003398832386,0.));
#738=DIRECTION('',(-0.500003398832386,0.866023441458753,0.));
#739=DIRECTION('',(0.,0.,-1.));
#740=DIRECTION('',(0.,0.,-1.));
#741=DIRECTION('',(0.,0.,1.));
#742=DIRECTION('',(-0.500003398832386,0.866023441458753,0.));
#743=DIRECTION('',(0.,0.,1.));
#744=DIRECTION('',(0.500003398832386,-0.866023441458753,0.));
#745=DIRECTION('',(0.,0.,-1.));
#746=DIRECTION('',(0.500003398832386,-0.866023441458753,0.));
#747=DIRECTION('',(0.,0.,1.));
#748=DIRECTION('',(0.500003398832386,-0.866023441458753,0.));
#749=DIRECTION('',(-0.866025403784438,-0.5,0.));
#750=DIRECTION('',(0.5,-0.866025403784439,0.));
#751=DIRECTION('',(0.,0.,-1.));
#752=DIRECTION('',(0.5,-0.866025403784439,0.));
#753=DIRECTION('',(0.,0.,-1.));
#754=DIRECTION('',(-0.5,0.866025403784438,0.));
#755=DIRECTION('',(0.,0.,-1.));
#756=DIRECTION('',(-0.5,0.866025403784438,0.));
#757=DIRECTION('',(0.,0.,1.));
#758=DIRECTION('',(0.5,-0.866025403784439,0.));
#759=DIRECTION('',(0.,0.,1.));
#760=DIRECTION('',(0.,0.,-1.));
#761=DIRECTION('',(0.,0.,1.));
#762=DIRECTION('',(1.,0.,0.));
#763=DIRECTION('',(-0.866025403784438,-0.5,0.));
#764=DIRECTION('',(0.866025403784439,0.5,0.));
#765=DIRECTION('',(0.,0.,1.));
#766=DIRECTION('',(1.,0.,0.));
#767=DIRECTION('',(-0.866025403784438,-0.5,0.));
#768=DIRECTION('',(0.866025403784439,0.5,0.));
#769=DIRECTION('',(0.,0.,-1.));
#770=DIRECTION('',(-1.,0.,0.));
#771=DIRECTION('',(0.,0.,-1.));
#772=DIRECTION('',(0.,0.,-1.));
#773=DIRECTION('',(-1.,-1.21785890558136E-16,0.));
#774=DIRECTION('',(1.21785890558136E-16,-1.,0.));
#775=DIRECTION('',(0.,0.,-1.));
#776=DIRECTION('',(0.,0.,-1.));
#777=DIRECTION('',(-1.,0.,0.));
#778=DIRECTION('',(-0.5,-0.866025403784439,0.));
#779=DIRECTION('',(0.866025403784439,-0.5,0.));
#780=DIRECTION('',(-0.866025403784439,0.5,0.));
#781=DIRECTION('',(-0.866025403784439,0.5,0.));
#782=DIRECTION('',(0.,0.,-1.));
#783=DIRECTION('',(-1.,0.,0.));
#784=DIRECTION('',(0.,0.,-1.));
#785=DIRECTION('',(0.866025403784438,0.5,0.));
#786=DIRECTION('',(-0.5,0.866025403784439,0.));
#787=DIRECTION('',(-0.5,0.866025403784439,0.));
#788=DIRECTION('',(-0.866025403784439,-0.5,0.));
#789=DIRECTION('',(0.,0.,-1.));
#790=DIRECTION('',(-1.,0.,0.));
#791=DIRECTION('',(0.,0.,-1.));
#792=DIRECTION('',(-1.,-1.21785890558136E-16,0.));
#793=DIRECTION('',(1.21785890558136E-16,-1.,0.));
#794=DIRECTION('',(0.,0.,1.));
#795=DIRECTION('',(1.,0.,0.));
#796=DIRECTION('',(0.866025403784439,-0.5,0.));
#797=DIRECTION('',(0.,0.,1.));
#798=DIRECTION('',(1.,0.,0.));
#799=DIRECTION('',(0.866025403784439,-0.5,0.));
#800=DIRECTION('',(0.,0.,-1.));
#801=DIRECTION('',(-1.,0.,0.));
#802=DIRECTION('',(-0.866025403784438,-0.5,0.));
#803=DIRECTION('',(-0.866025403784438,-0.5,0.));
#804=DIRECTION('',(0.5,-0.866025403784438,0.));
#805=DIRECTION('',(0.866025403784438,0.5,0.));
#806=DIRECTION('',(0.5,-0.866025403784438,0.));
#807=DIRECTION('',(0.866025403784438,0.5,0.));
#808=DIRECTION('',(0.,0.,-1.));
#809=DIRECTION('',(-1.,0.,0.));
#810=DIRECTION('',(-0.866025403784438,-0.5,0.));
#811=DIRECTION('',(-0.866025403784438,-0.5,0.));
#812=DIRECTION('',(-0.5,0.866025403784438,0.));
#813=DIRECTION('',(-0.866025403784438,-0.5,0.));
#814=DIRECTION('',(-0.5,0.866025403784438,0.));
#815=DIRECTION('',(-0.866025403784438,-0.5,0.));
#816=DIRECTION('',(0.5,0.866025403784439,0.));
#817=DIRECTION('',(-0.866025403784439,0.5,0.));
#818=DIRECTION('',(0.866025403784439,-0.5,0.));
#819=DIRECTION('',(0.5,0.866025403784439,0.));
#820=DIRECTION('',(-0.866025403784439,0.5,0.));
#821=DIRECTION('',(0.866025403784439,-0.5,0.));
#822=DIRECTION('',(0.,0.,-1.));
#823=DIRECTION('',(-1.,0.,0.));
#824=DIRECTION('',(-0.5,-0.866025403784439,0.));
#825=DIRECTION('',(0.866025403784439,-0.5,0.));
#826=DIRECTION('',(0.866025403784439,-0.5,0.));
#827=DIRECTION('',(0.,0.,-1.));
#828=DIRECTION('',(-1.,0.,0.));
#829=DIRECTION('',(0.866025403784439,-0.5,0.));
#830=DIRECTION('',(-0.5,-0.866025403784439,0.));
#831=DIRECTION('',(0.866025403784439,-0.5,0.));
#832=CARTESIAN_POINT('',(0.,0.,0.));
#833=CARTESIAN_POINT('',(0.0673095829163646,0.126489617447414,0.2032));
#834=CARTESIAN_POINT('',(0.0941355761750555,0.172953600734967,0.2032));
#835=CARTESIAN_POINT('',(0.0941355761750555,0.172953600734967,0.1778));
#836=CARTESIAN_POINT('',(0.0941355761750555,0.172953600734967,0.2032));
#837=CARTESIAN_POINT('',(0.0673095829163646,0.126489617447414,0.1778));
#838=CARTESIAN_POINT('',(0.0973105761750555,0.178452862048998,0.1778));
#839=CARTESIAN_POINT('',(0.0973105761750555,0.178452862048998,0.2032));
#840=CARTESIAN_POINT('',(0.0973105761750555,0.178452862048998,0.2032));
#841=CARTESIAN_POINT('',(0.0673095829163646,0.126489617447414,0.2032));
#842=CARTESIAN_POINT('',(0.106807977462169,0.194902843618149,0.2032));
#843=CARTESIAN_POINT('',(0.106807977462169,0.194902843618149,0.2032));
#844=CARTESIAN_POINT('',(0.106807977462169,0.194902843618149,0.));
#845=CARTESIAN_POINT('',(0.0673095829163646,0.126489617447414,0.));
#846=CARTESIAN_POINT('',(0.0973105761750555,0.178452862048998,0.));
#847=CARTESIAN_POINT('',(0.0973105761750555,0.178452862048998,0.2032));
#848=CARTESIAN_POINT('',(0.0973105761750555,0.178452862048998,0.0254));
#849=CARTESIAN_POINT('',(0.0673095829163646,0.126489617447414,0.0254));
#850=CARTESIAN_POINT('',(0.0941355761750555,0.172953600734967,0.0254));
#851=CARTESIAN_POINT('',(0.0941355761750556,0.172953600734967,0.2032));
#852=CARTESIAN_POINT('',(0.0941355761750556,0.172953600734967,0.));
#853=CARTESIAN_POINT('',(0.0673095829163646,0.126489617447414,0.));
#854=CARTESIAN_POINT('',(0.0278111883705598,0.0580763912766784,0.));
#855=CARTESIAN_POINT('',(0.0278111883705598,0.0580763912766784,0.2032));
#856=CARTESIAN_POINT('',(0.0278111883705598,0.0580763912766784,0.2032));
#857=CARTESIAN_POINT('',(0.0673095829163646,0.126489617447414,0.2032));
#858=CARTESIAN_POINT('',(0.071612806097752,0.124037018633885,0.2032));
#859=CARTESIAN_POINT('',(0.098425,0.170477100734967,0.1905));
#860=CARTESIAN_POINT('',(0.098425,0.170477100734967,0.2032));
#861=CARTESIAN_POINT('',(0.098425,0.170477100734967,0.1778));
#862=CARTESIAN_POINT('',(0.071612806097752,0.124037018633885,0.2032));
#863=CARTESIAN_POINT('',(0.0321006121955042,0.0555998912766784,0.2032));
#864=CARTESIAN_POINT('',(0.0321006121955042,0.0555998912766784,0.2032));
#865=CARTESIAN_POINT('',(0.0321006121955042,0.0555998912766784,0.));
#866=CARTESIAN_POINT('',(0.071612806097752,0.124037018633885,0.));
#867=CARTESIAN_POINT('',(0.098425,0.170477100734967,0.));
#868=CARTESIAN_POINT('',(0.098425,0.170477100734967,0.0127));
#869=CARTESIAN_POINT('',(0.098425,0.170477100734967,0.0254));
#870=CARTESIAN_POINT('',(0.1000125,0.173226731391982,0.0254));
#871=CARTESIAN_POINT('',(0.1016,0.175976362048998,0.0254));
#872=CARTESIAN_POINT('',(0.1016,0.175976362048998,0.0127));
#873=CARTESIAN_POINT('',(0.1016,0.175976362048998,0.));
#874=CARTESIAN_POINT('',(0.071612806097752,0.124037018633885,0.));
#875=CARTESIAN_POINT('',(0.1143,0.197973407305123,0.));
#876=CARTESIAN_POINT('',(0.1143,0.197973407305123,0.2032));
#877=CARTESIAN_POINT('',(0.1143,0.197973407305123,0.2032));
#878=CARTESIAN_POINT('',(0.071612806097752,0.124037018633885,0.2032));
#879=CARTESIAN_POINT('',(0.1016,0.175976362048998,0.2032));
#880=CARTESIAN_POINT('',(0.1016,0.175976362048998,0.1905));
#881=CARTESIAN_POINT('',(0.1016,0.175976362048998,0.1778));
#882=CARTESIAN_POINT('',(0.1000125,0.173226731391982,0.1778));
#883=CARTESIAN_POINT('',(-1.2490009027033E-16,0.1143,0.2032));
#884=CARTESIAN_POINT('',(0.0796029547438752,0.188676362048998,0.2032));
#885=CARTESIAN_POINT('',(-1.38777878078145E-17,4.77048955893622E-13,0.2032));
#886=CARTESIAN_POINT('',(-0.1143,0.197973407305123,0.2032));
#887=CARTESIAN_POINT('',(-0.112712116733858,0.195223112811676,0.2032));
#888=CARTESIAN_POINT('',(-0.111124985161961,0.19247415455785,0.2032));
#889=CARTESIAN_POINT('',(-0.0716125155144488,0.124037185455985,0.2032));
#890=CARTESIAN_POINT('',(-0.10159995683478,0.17597638697045,0.2032));
#891=CARTESIAN_POINT('',(-0.0796029547438754,0.188676362048998,0.2032));
#892=CARTESIAN_POINT('',(-0.0973100174105344,0.178453184651845,0.2032));
#893=CARTESIAN_POINT('',(-0.0673090201462613,0.126489933112389,0.2032));
#894=CARTESIAN_POINT('',(-0.106807411505959,0.194903153764624,0.2032));
#895=CARTESIAN_POINT('',(-2.25080371007991E-16,1.01307850997045E-15,0.2032));
#896=CARTESIAN_POINT('',(-0.002413,0.222236900471096,0.2032));
#897=CARTESIAN_POINT('',(-0.002413,0.145675168724968,0.2032));
#898=CARTESIAN_POINT('',(-0.002413,0.06911343697884,0.2032));
#899=CARTESIAN_POINT('',(2.12447557817698E-18,0.0663310063867137,0.2032));
#900=CARTESIAN_POINT('',(0.002413,0.06911343697884,0.2032));
#901=CARTESIAN_POINT('',(0.002413,0.145675168724968,0.2032));
#902=CARTESIAN_POINT('',(0.002413,0.222236900471096,0.2032));
#903=CARTESIAN_POINT('',(9.36750677027476E-17,6.10622663543836E-16,0.2032));
#904=CARTESIAN_POINT('',(-1.2490009027033E-16,0.1143,0.));
#905=CARTESIAN_POINT('',(0.0796029547438752,0.188676362048998,0.));
#906=CARTESIAN_POINT('',(9.36750677027476E-17,6.10622663543836E-16,0.));
#907=CARTESIAN_POINT('',(0.002413,0.222236900471096,0.));
#908=CARTESIAN_POINT('',(0.002413,0.145675168724968,0.));
#909=CARTESIAN_POINT('',(0.002413,0.06911343697884,0.));
#910=CARTESIAN_POINT('',(2.12447557817698E-18,0.0663310063867137,0.));
#911=CARTESIAN_POINT('',(-0.002413,0.06911343697884,0.));
#912=CARTESIAN_POINT('',(-0.002413,0.145675168724968,0.));
#913=CARTESIAN_POINT('',(-0.002413,0.222236900471096,0.));
#914=CARTESIAN_POINT('',(-2.25080371007991E-16,1.01307850997045E-15,0.));
#915=CARTESIAN_POINT('',(-0.106807411505959,0.194903153764624,0.));
#916=CARTESIAN_POINT('',(-0.0673090201462613,0.126489933112389,0.));
#917=CARTESIAN_POINT('',(-0.0973100174105344,0.178453184651845,0.));
#918=CARTESIAN_POINT('',(-0.0796029547438754,0.188676362048998,0.));
#919=CARTESIAN_POINT('',(-0.10159995683478,0.17597638697045,0.));
#920=CARTESIAN_POINT('',(-0.0716125155144488,0.124037185455985,0.));
#921=CARTESIAN_POINT('',(-0.111124985161961,0.19247415455785,0.));
#922=CARTESIAN_POINT('',(-0.112712116733858,0.195223112811676,0.));
#923=CARTESIAN_POINT('',(-0.1143,0.197973407305123,0.));
#924=CARTESIAN_POINT('',(-1.38777878078145E-17,4.77048955893622E-13,0.));
#925=CARTESIAN_POINT('',(-0.0716125155144488,0.124037185455985,0.2032));
#926=CARTESIAN_POINT('',(-0.10159991366956,0.175976411891901,0.1905));
#927=CARTESIAN_POINT('',(-0.10159991366956,0.175976411891901,0.1778));
#928=CARTESIAN_POINT('',(-0.111124985161961,0.19247415455785,0.2032));
#929=CARTESIAN_POINT('',(-0.101599913669755,0.17597641189224,0.2032));
#930=CARTESIAN_POINT('',(-0.101599913669657,0.175976411892071,0.0254));
#931=CARTESIAN_POINT('',(-0.0716125155144488,0.124037185455985,0.0254));
#932=CARTESIAN_POINT('',(-0.0984248920869495,0.170477163038595,0.0254));
#933=CARTESIAN_POINT('',(-0.0984248920869495,0.170477163038595,0.0127));
#934=CARTESIAN_POINT('',(-0.0984249460434748,0.170477131886781,0.));
#935=CARTESIAN_POINT('',(-0.0716125155144488,0.124037185455985,0.));
#936=CARTESIAN_POINT('',(-0.0321000526115083,0.0556002124601536,0.));
#937=CARTESIAN_POINT('',(-0.0321000526115083,0.0556002124601536,0.2032));
#938=CARTESIAN_POINT('',(-0.0321000526115083,0.0556002124601536,0.2032));
#939=CARTESIAN_POINT('',(-0.0716125155144488,0.124037185455985,0.2032));
#940=CARTESIAN_POINT('',(-0.0984249460434748,0.170477131886781,0.2032));
#941=CARTESIAN_POINT('',(-0.0984248920871941,0.170477163039019,0.2032));
#942=CARTESIAN_POINT('',(-0.0984248920870718,0.170477163038807,0.1778));
#943=CARTESIAN_POINT('',(-0.100012353035233,0.173226701135384,0.1778));
#944=CARTESIAN_POINT('',(-0.0673090201462613,0.126489933112389,0.2032));
#945=CARTESIAN_POINT('',(-0.0973100174105344,0.178453184651845,0.2032));
#946=CARTESIAN_POINT('',(-0.0973100174105344,0.178453184651845,0.1778));
#947=CARTESIAN_POINT('',(-0.0673090201462613,0.126489933112389,0.1778));
#948=CARTESIAN_POINT('',(-0.0941350174105344,0.172953923337814,0.1778));
#949=CARTESIAN_POINT('',(-0.0941350174105344,0.172953923337814,0.2032));
#950=CARTESIAN_POINT('',(-0.0941350174105344,0.172953923337814,0.2032));
#951=CARTESIAN_POINT('',(-0.0673090201462613,0.126489933112389,0.2032));
#952=CARTESIAN_POINT('',(-0.0278106287865639,0.0580767124601535,0.2032));
#953=CARTESIAN_POINT('',(-0.0278106287865639,0.0580767124601535,0.2032));
#954=CARTESIAN_POINT('',(-0.0278106287865639,0.0580767124601535,0.));
#955=CARTESIAN_POINT('',(-0.0673090201462613,0.126489933112389,0.));
#956=CARTESIAN_POINT('',(-0.0941350174105344,0.172953923337814,0.));
#957=CARTESIAN_POINT('',(-0.0941350174105344,0.172953923337814,0.2032));
#958=CARTESIAN_POINT('',(-0.0941350174105344,0.172953923337814,0.0254));
#959=CARTESIAN_POINT('',(-0.0673090201462613,0.126489933112389,0.0254));
#960=CARTESIAN_POINT('',(-0.0973100174105344,0.178453184651845,0.0254));
#961=CARTESIAN_POINT('',(-0.0973100174105344,0.178453184651845,0.2032));
#962=CARTESIAN_POINT('',(-0.106807411505959,0.194903153764624,0.2032));
#963=CARTESIAN_POINT('',(-1.2490009027033E-16,0.1143,0.2032));
#964=CARTESIAN_POINT('',(-0.0764279547438754,0.183177100734967,0.2032));
#965=CARTESIAN_POINT('',(-0.0299553406990361,0.0568384624601536,0.2032));
#966=CARTESIAN_POINT('',(-1.2490009027033E-16,0.1143,0.));
#967=CARTESIAN_POINT('',(-0.0764279547438754,0.183177100734967,0.));
#968=CARTESIAN_POINT('',(-0.0299553406990361,0.0568384624601536,0.));
#969=CARTESIAN_POINT('',(2.12447557817698E-18,0.0663310063867137,0.2032));
#970=CARTESIAN_POINT('',(0.002413,0.06911343697884,0.2032));
#971=CARTESIAN_POINT('',(-0.002413,0.06911343697884,0.2032));
#972=CARTESIAN_POINT('',(0.002413,0.145675168724968,0.2032));
#973=CARTESIAN_POINT('',(0.002413,0.222236900471096,0.2032));
#974=CARTESIAN_POINT('',(9.36750677027476E-17,6.10622663543836E-16,0.2032));
#975=CARTESIAN_POINT('',(0.0299559002830319,0.0568381412766784,0.2032));
#976=CARTESIAN_POINT('',(0.0299559002830319,0.0568381412766784,0.));
#977=CARTESIAN_POINT('',(0.0299559002830319,0.0568381412766784,0.2032));
#978=CARTESIAN_POINT('',(-1.38777878078145E-17,4.77048955893622E-13,0.2032));
#979=CARTESIAN_POINT('',(-0.1143,0.197973407305123,0.2032));
#980=CARTESIAN_POINT('',(-0.112712116733858,0.195223112811676,0.2032));
#981=CARTESIAN_POINT('',(-0.0299553406990361,0.0568384624601536,0.2032));
#982=CARTESIAN_POINT('',(-2.25080371007991E-16,1.01307850997045E-15,0.2032));
#983=CARTESIAN_POINT('',(-0.002413,0.222236900471096,0.2032));
#984=CARTESIAN_POINT('',(-0.002413,0.145675168724968,0.2032));
#985=CARTESIAN_POINT('',(-1.2490009027033E-16,0.1143,0.2032));
#986=CARTESIAN_POINT('',(0.0764279547438751,0.183177100734967,0.2032));
#987=CARTESIAN_POINT('',(-1.2490009027033E-16,0.1143,0.));
#988=CARTESIAN_POINT('',(0.0764279547438752,0.183177100734967,0.));
#989=CARTESIAN_POINT('',(-0.0780154547438754,0.185926731391983,0.0254));
#990=CARTESIAN_POINT('',(-0.0764279547438754,0.183177100734967,0.0254));
#991=CARTESIAN_POINT('',(-0.0796029547438754,0.188676362048998,0.0254));
#992=CARTESIAN_POINT('',(-0.0796029547438754,0.188676362048998,0.0127));
#993=CARTESIAN_POINT('',(-0.0764279547438754,0.183177100734967,0.0127));
#994=CARTESIAN_POINT('',(-0.0780154547438754,0.185926731391983,0.1778));
#995=CARTESIAN_POINT('',(-0.0796029547438754,0.188676362048998,0.1778));
#996=CARTESIAN_POINT('',(-0.0764279547438754,0.183177100734967,0.1778));
#997=CARTESIAN_POINT('',(-0.0796029547438754,0.188676362048998,0.1905));
#998=CARTESIAN_POINT('',(-0.0764279547438754,0.183177100734967,0.1905));
#999=CARTESIAN_POINT('',(0.0764279547438752,0.183177100734967,0.0127));
#1000=CARTESIAN_POINT('',(0.0764279547438751,0.183177100734967,0.0254));
#1001=CARTESIAN_POINT('',(0.0796029547438752,0.188676362048998,0.0127));
#1002=CARTESIAN_POINT('',(0.0796029547438752,0.188676362048998,0.0254));
#1003=CARTESIAN_POINT('',(0.0780154547438751,0.185926731391983,0.0254));
#1004=CARTESIAN_POINT('',(0.0764279547438751,0.183177100734967,0.1905));
#1005=CARTESIAN_POINT('',(0.0764279547438751,0.183177100734967,0.1778));
#1006=CARTESIAN_POINT('',(0.0780154547438751,0.185926731391983,0.1778));
#1007=CARTESIAN_POINT('',(0.0796029547438752,0.188676362048998,0.1778));
#1008=CARTESIAN_POINT('',(0.0796029547438752,0.188676362048998,0.1905));
#1009=MECHANICAL_DESIGN_GEOMETRIC_PRESENTATION_REPRESENTATION('',(#622),
#1010);
#1010=(
GEOMETRIC_REPRESENTATION_CONTEXT(3)
GLOBAL_UNCERTAINTY_ASSIGNED_CONTEXT((#1011))
GLOBAL_UNIT_ASSIGNED_CONTEXT((#1014,#1013,#1012))
REPRESENTATION_CONTEXT('Part 2','TOP_LEVEL_ASSEMBLY_PART')
);
#1011=UNCERTAINTY_MEASURE_WITH_UNIT(LENGTH_MEASURE(2.01246072575832E-5),
#1014,'DISTANCE_ACCURACY_VALUE','Maximum Tolerance applied to model');
#1012=(
NAMED_UNIT(*)
SI_UNIT($,.STERADIAN.)
SOLID_ANGLE_UNIT()
);
#1013=(
NAMED_UNIT(*)
PLANE_ANGLE_UNIT()
SI_UNIT($,.RADIAN.)
);
#1014=(
LENGTH_UNIT()
NAMED_UNIT(*)
SI_UNIT($,.METRE.)
);
#1015=PRODUCT_DEFINITION_SHAPE('','',#1016);
#1016=PRODUCT_DEFINITION('','',#1018,#1017);
#1017=PRODUCT_DEFINITION_CONTEXT('',#1024,'design');
#1018=PRODUCT_DEFINITION_FORMATION_WITH_SPECIFIED_SOURCE('','',#1020,
 .NOT_KNOWN.);
#1019=PRODUCT_RELATED_PRODUCT_CATEGORY('','',(#1020));
#1020=PRODUCT('Part 2','Part 2','Part 2',(#1022));
#1021=PRODUCT_CATEGORY('','');
#1022=PRODUCT_CONTEXT('',#1024,'mechanical');
#1023=APPLICATION_PROTOCOL_DEFINITION('international standard',
'ap242_managed_model_based_3d_engineering',2020,#1024);
#1024=APPLICATION_CONTEXT('managed model based 3d engineering');
ENDSEC;
END-ISO-10303-21;
