ISO-10303-21;
HEADER;
/* Generated by software containing ST-Developer
 * from STEP Tools, Inc. (www.steptools.com) 
 */
/* OPTION: using custom renumber hook */

FILE_DESCRIPTION(
/* description */ ('STEP AP242 Edition 2',
'CAx-IF Rec.Pracs.---Representation and Presentation of Product Manufa
cturing Information (PMI)---4.0---2014-10-13',
'CAx-IF Rec.Pracs.---3D Tessellated Geometry---0.4---2014-09-14','2;1',
'CAx-IF Rec.Pracs.---User Defined Attributes---1.5---2016-08-15'),
/* implementation_level */ '2;1');

FILE_NAME(
/* name */ 'Single Snap Shell - Part 2',
/* time_stamp */ '2026-08-15T18:30:16Z',
/* author */ (''),
/* organization */ (''),
/* preprocessor_version */ 'ST-DEVELOPER v20',
/* originating_system */ 'ONSHAPE BY PTC INC, 1.219',
/* authorisation */ '  ');

FILE_SCHEMA (('AP242_MANAGED_MODEL_BASED_3D_ENGINEERING_MIM_LF { 1 0 10303 442 3 1 4 }'));
ENDSEC;

DATA;
#10=SHAPE_REPRESENTATION_RELATIONSHIP('','',#233,#11);
#11=ADVANCED_BREP_SHAPE_REPRESENTATION('',(#231),#383);
#12=PLANE('',#238);
#13=PLANE('',#242);
#14=PLANE('',#243);
#15=PLANE('',#247);
#16=PLANE('',#248);
#17=PLANE('',#252);
#18=PLANE('',#253);
#19=PLANE('',#254);
#20=LINE('',#324,#42);
#21=LINE('',#328,#43);
#22=LINE('',#330,#44);
#23=LINE('',#332,#45);
#24=LINE('',#334,#46);
#25=LINE('',#338,#47);
#26=LINE('',#342,#48);
#27=LINE('',#344,#49);
#28=LINE('',#346,#50);
#29=LINE('',#348,#51);
#30=LINE('',#350,#52);
#31=LINE('',#352,#53);
#32=LINE('',#356,#54);
#33=LINE('',#360,#55);
#34=LINE('',#362,#56);
#35=LINE('',#364,#57);
#36=LINE('',#366,#58);
#37=LINE('',#368,#59);
#38=LINE('',#370,#60);
#39=LINE('',#374,#61);
#40=LINE('',#378,#62);
#41=LINE('',#379,#63);
#42=VECTOR('',#261,1.);
#43=VECTOR('',#264,1.);
#44=VECTOR('',#267,1.);
#45=VECTOR('',#268,1.);
#46=VECTOR('',#269,1.);
#47=VECTOR('',#274,1.);
#48=VECTOR('',#279,1.);
#49=VECTOR('',#280,1.);
#50=VECTOR('',#281,1.);
#51=VECTOR('',#284,1.);
#52=VECTOR('',#285,1.);
#53=VECTOR('',#286,1.);
#54=VECTOR('',#291,1.);
#55=VECTOR('',#296,1.);
#56=VECTOR('',#297,1.);
#57=VECTOR('',#298,1.);
#58=VECTOR('',#301,1.);
#59=VECTOR('',#302,1.);
#60=VECTOR('',#303,1.);
#61=VECTOR('',#308,1.);
#62=VECTOR('',#313,1.);
#63=VECTOR('',#314,1.);
#64=ORIENTED_EDGE('',*,*,#124,.T.);
#65=ORIENTED_EDGE('',*,*,#125,.F.);
#66=ORIENTED_EDGE('',*,*,#126,.F.);
#67=ORIENTED_EDGE('',*,*,#127,.T.);
#68=ORIENTED_EDGE('',*,*,#128,.T.);
#69=ORIENTED_EDGE('',*,*,#129,.F.);
#70=ORIENTED_EDGE('',*,*,#130,.F.);
#71=ORIENTED_EDGE('',*,*,#125,.T.);
#72=ORIENTED_EDGE('',*,*,#131,.T.);
#73=ORIENTED_EDGE('',*,*,#132,.F.);
#74=ORIENTED_EDGE('',*,*,#133,.F.);
#75=ORIENTED_EDGE('',*,*,#129,.T.);
#76=ORIENTED_EDGE('',*,*,#134,.T.);
#77=ORIENTED_EDGE('',*,*,#135,.F.);
#78=ORIENTED_EDGE('',*,*,#136,.F.);
#79=ORIENTED_EDGE('',*,*,#132,.T.);
#80=ORIENTED_EDGE('',*,*,#137,.T.);
#81=ORIENTED_EDGE('',*,*,#138,.F.);
#82=ORIENTED_EDGE('',*,*,#139,.F.);
#83=ORIENTED_EDGE('',*,*,#135,.T.);
#84=ORIENTED_EDGE('',*,*,#140,.F.);
#85=ORIENTED_EDGE('',*,*,#141,.F.);
#86=ORIENTED_EDGE('',*,*,#142,.T.);
#87=ORIENTED_EDGE('',*,*,#138,.T.);
#88=ORIENTED_EDGE('',*,*,#143,.T.);
#89=ORIENTED_EDGE('',*,*,#144,.F.);
#90=ORIENTED_EDGE('',*,*,#145,.F.);
#91=ORIENTED_EDGE('',*,*,#141,.T.);
#92=ORIENTED_EDGE('',*,*,#146,.T.);
#93=ORIENTED_EDGE('',*,*,#147,.F.);
#94=ORIENTED_EDGE('',*,*,#148,.F.);
#95=ORIENTED_EDGE('',*,*,#144,.T.);
#96=ORIENTED_EDGE('',*,*,#149,.T.);
#97=ORIENTED_EDGE('',*,*,#150,.F.);
#98=ORIENTED_EDGE('',*,*,#151,.F.);
#99=ORIENTED_EDGE('',*,*,#147,.T.);
#100=ORIENTED_EDGE('',*,*,#152,.F.);
#101=ORIENTED_EDGE('',*,*,#127,.F.);
#102=ORIENTED_EDGE('',*,*,#153,.T.);
#103=ORIENTED_EDGE('',*,*,#150,.T.);
#104=ORIENTED_EDGE('',*,*,#126,.T.);
#105=ORIENTED_EDGE('',*,*,#130,.T.);
#106=ORIENTED_EDGE('',*,*,#133,.T.);
#107=ORIENTED_EDGE('',*,*,#136,.T.);
#108=ORIENTED_EDGE('',*,*,#139,.T.);
#109=ORIENTED_EDGE('',*,*,#142,.F.);
#110=ORIENTED_EDGE('',*,*,#145,.T.);
#111=ORIENTED_EDGE('',*,*,#148,.T.);
#112=ORIENTED_EDGE('',*,*,#151,.T.);
#113=ORIENTED_EDGE('',*,*,#153,.F.);
#114=ORIENTED_EDGE('',*,*,#124,.F.);
#115=ORIENTED_EDGE('',*,*,#152,.T.);
#116=ORIENTED_EDGE('',*,*,#149,.F.);
#117=ORIENTED_EDGE('',*,*,#146,.F.);
#118=ORIENTED_EDGE('',*,*,#143,.F.);
#119=ORIENTED_EDGE('',*,*,#140,.T.);
#120=ORIENTED_EDGE('',*,*,#137,.F.);
#121=ORIENTED_EDGE('',*,*,#134,.F.);
#122=ORIENTED_EDGE('',*,*,#131,.F.);
#123=ORIENTED_EDGE('',*,*,#128,.F.);
#124=EDGE_CURVE('',#154,#155,#174,.T.);
#125=EDGE_CURVE('',#156,#155,#20,.T.);
#126=EDGE_CURVE('',#157,#156,#175,.T.);
#127=EDGE_CURVE('',#157,#154,#21,.T.);
#128=EDGE_CURVE('',#155,#158,#22,.T.);
#129=EDGE_CURVE('',#159,#158,#23,.T.);
#130=EDGE_CURVE('',#156,#159,#24,.T.);
#131=EDGE_CURVE('',#158,#160,#176,.T.);
#132=EDGE_CURVE('',#161,#160,#25,.T.);
#133=EDGE_CURVE('',#159,#161,#177,.T.);
#134=EDGE_CURVE('',#160,#162,#26,.T.);
#135=EDGE_CURVE('',#163,#162,#27,.T.);
#136=EDGE_CURVE('',#161,#163,#28,.T.);
#137=EDGE_CURVE('',#162,#164,#29,.T.);
#138=EDGE_CURVE('',#165,#164,#30,.T.);
#139=EDGE_CURVE('',#163,#165,#31,.T.);
#140=EDGE_CURVE('',#166,#164,#178,.T.);
#141=EDGE_CURVE('',#167,#166,#32,.T.);
#142=EDGE_CURVE('',#167,#165,#179,.T.);
#143=EDGE_CURVE('',#166,#168,#33,.T.);
#144=EDGE_CURVE('',#169,#168,#34,.T.);
#145=EDGE_CURVE('',#167,#169,#35,.T.);
#146=EDGE_CURVE('',#168,#170,#36,.T.);
#147=EDGE_CURVE('',#171,#170,#37,.T.);
#148=EDGE_CURVE('',#169,#171,#38,.T.);
#149=EDGE_CURVE('',#170,#172,#180,.T.);
#150=EDGE_CURVE('',#173,#172,#39,.T.);
#151=EDGE_CURVE('',#171,#173,#181,.T.);
#152=EDGE_CURVE('',#154,#172,#40,.T.);
#153=EDGE_CURVE('',#157,#173,#41,.T.);
#154=VERTEX_POINT('',#322);
#155=VERTEX_POINT('',#323);
#156=VERTEX_POINT('',#325);
#157=VERTEX_POINT('',#327);
#158=VERTEX_POINT('',#331);
#159=VERTEX_POINT('',#333);
#160=VERTEX_POINT('',#337);
#161=VERTEX_POINT('',#339);
#162=VERTEX_POINT('',#343);
#163=VERTEX_POINT('',#345);
#164=VERTEX_POINT('',#349);
#165=VERTEX_POINT('',#351);
#166=VERTEX_POINT('',#355);
#167=VERTEX_POINT('',#357);
#168=VERTEX_POINT('',#361);
#169=VERTEX_POINT('',#363);
#170=VERTEX_POINT('',#367);
#171=VERTEX_POINT('',#369);
#172=VERTEX_POINT('',#373);
#173=VERTEX_POINT('',#375);
#174=CIRCLE('',#236,0.003683);
#175=CIRCLE('',#237,0.003683);
#176=CIRCLE('',#240,0.22225);
#177=CIRCLE('',#241,0.22225);
#178=CIRCLE('',#245,0.228599999999523);
#179=CIRCLE('',#246,0.228599999999523);
#180=CIRCLE('',#250,0.22225);
#181=CIRCLE('',#251,0.22225);
#182=EDGE_LOOP('',(#64,#65,#66,#67));
#183=EDGE_LOOP('',(#68,#69,#70,#71));
#184=EDGE_LOOP('',(#72,#73,#74,#75));
#185=EDGE_LOOP('',(#76,#77,#78,#79));
#186=EDGE_LOOP('',(#80,#81,#82,#83));
#187=EDGE_LOOP('',(#84,#85,#86,#87));
#188=EDGE_LOOP('',(#88,#89,#90,#91));
#189=EDGE_LOOP('',(#92,#93,#94,#95));
#190=EDGE_LOOP('',(#96,#97,#98,#99));
#191=EDGE_LOOP('',(#100,#101,#102,#103));
#192=EDGE_LOOP('',(#104,#105,#106,#107,#108,#109,#110,#111,#112,#113));
#193=EDGE_LOOP('',(#114,#115,#116,#117,#118,#119,#120,#121,#122,#123));
#194=FACE_BOUND('',#182,.T.);
#195=FACE_BOUND('',#183,.T.);
#196=FACE_BOUND('',#184,.T.);
#197=FACE_BOUND('',#185,.T.);
#198=FACE_BOUND('',#186,.T.);
#199=FACE_BOUND('',#187,.T.);
#200=FACE_BOUND('',#188,.T.);
#201=FACE_BOUND('',#189,.T.);
#202=FACE_BOUND('',#190,.T.);
#203=FACE_BOUND('',#191,.T.);
#204=FACE_BOUND('',#192,.T.);
#205=FACE_BOUND('',#193,.T.);
#206=CYLINDRICAL_SURFACE('',#235,0.003683);
#207=CYLINDRICAL_SURFACE('',#239,0.22225);
#208=CYLINDRICAL_SURFACE('',#244,0.228599999999523);
#209=CYLINDRICAL_SURFACE('',#249,0.22225);
#210=ADVANCED_FACE('',(#194),#206,.T.);
#211=ADVANCED_FACE('',(#195),#12,.F.);
#212=ADVANCED_FACE('',(#196),#207,.F.);
#213=ADVANCED_FACE('',(#197),#13,.F.);
#214=ADVANCED_FACE('',(#198),#14,.F.);
#215=ADVANCED_FACE('',(#199),#208,.T.);
#216=ADVANCED_FACE('',(#200),#15,.F.);
#217=ADVANCED_FACE('',(#201),#16,.F.);
#218=ADVANCED_FACE('',(#202),#209,.F.);
#219=ADVANCED_FACE('',(#203),#17,.T.);
#220=ADVANCED_FACE('',(#204),#18,.T.);
#221=ADVANCED_FACE('',(#205),#19,.F.);
#222=CLOSED_SHELL('',(#210,#211,#212,#213,#214,#215,#216,#217,#218,#219,
#220,#221));
#223=STYLED_ITEM('',(#224),#231);
#224=PRESENTATION_STYLE_ASSIGNMENT((#225));
#225=SURFACE_STYLE_USAGE(.BOTH.,#226);
#226=SURFACE_SIDE_STYLE('',(#227));
#227=SURFACE_STYLE_FILL_AREA(#228);
#228=FILL_AREA_STYLE('',(#229));
#229=FILL_AREA_STYLE_COLOUR('',#230);
#230=COLOUR_RGB('',0.647058823529412,0.647058823529412,0.647058823529412);
#231=MANIFOLD_SOLID_BREP('Part 2',#222);
#232=SHAPE_DEFINITION_REPRESENTATION(#388,#233);
#233=SHAPE_REPRESENTATION('Part 2',(#234),#383);
#234=AXIS2_PLACEMENT_3D('',#319,#255,#256);
#235=AXIS2_PLACEMENT_3D('',#320,#257,#258);
#236=AXIS2_PLACEMENT_3D('',#321,#259,#260);
#237=AXIS2_PLACEMENT_3D('',#326,#262,#263);
#238=AXIS2_PLACEMENT_3D('',#329,#265,#266);
#239=AXIS2_PLACEMENT_3D('',#335,#270,#271);
#240=AXIS2_PLACEMENT_3D('',#336,#272,#273);
#241=AXIS2_PLACEMENT_3D('',#340,#275,#276);
#242=AXIS2_PLACEMENT_3D('',#341,#277,#278);
#243=AXIS2_PLACEMENT_3D('',#347,#282,#283);
#244=AXIS2_PLACEMENT_3D('',#353,#287,#288);
#245=AXIS2_PLACEMENT_3D('',#354,#289,#290);
#246=AXIS2_PLACEMENT_3D('',#358,#292,#293);
#247=AXIS2_PLACEMENT_3D('',#359,#294,#295);
#248=AXIS2_PLACEMENT_3D('',#365,#299,#300);
#249=AXIS2_PLACEMENT_3D('',#371,#304,#305);
#250=AXIS2_PLACEMENT_3D('',#372,#306,#307);
#251=AXIS2_PLACEMENT_3D('',#376,#309,#310);
#252=AXIS2_PLACEMENT_3D('',#377,#311,#312);
#253=AXIS2_PLACEMENT_3D('',#380,#315,#316);
#254=AXIS2_PLACEMENT_3D('',#381,#317,#318);
#255=DIRECTION('',(0.,0.,1.));
#256=DIRECTION('',(1.,0.,0.));
#257=DIRECTION('',(0.,0.,-1.));
#258=DIRECTION('',(-1.,0.,0.));
#259=DIRECTION('',(0.,0.,1.));
#260=DIRECTION('',(1.,0.,0.));
#261=DIRECTION('',(0.,0.,-1.));
#262=DIRECTION('',(0.,0.,1.));
#263=DIRECTION('',(1.,0.,0.));
#264=DIRECTION('',(0.,0.,-1.));
#265=DIRECTION('',(-1.,-1.23088838642291E-16,0.));
#266=DIRECTION('',(1.23088838642291E-16,-1.,0.));
#267=DIRECTION('',(-1.23088838642291E-16,1.,0.));
#268=DIRECTION('',(0.,0.,-1.));
#269=DIRECTION('',(-1.23088838642291E-16,1.,0.));
#270=DIRECTION('',(0.,0.,-1.));
#271=DIRECTION('',(-1.,0.,0.));
#272=DIRECTION('',(0.,0.,-1.));
#273=DIRECTION('',(1.,0.,0.));
#274=DIRECTION('',(0.,0.,-1.));
#275=DIRECTION('',(0.,0.,-1.));
#276=DIRECTION('',(1.,0.,0.));
#277=DIRECTION('',(-0.965590744665638,-0.260066364253548,0.));
#278=DIRECTION('',(0.260066364253548,-0.965590744665638,0.));
#279=DIRECTION('',(-0.260066364253548,0.965590744665638,0.));
#280=DIRECTION('',(0.,0.,-1.));
#281=DIRECTION('',(-0.260066364253548,0.965590744665638,0.));
#282=DIRECTION('',(-0.26006636425355,0.965590744665637,0.));
#283=DIRECTION('',(-0.965590744665637,-0.26006636425355,0.));
#284=DIRECTION('',(0.965590744665637,0.26006636425355,0.));
#285=DIRECTION('',(0.,0.,-1.));
#286=DIRECTION('',(0.965590744665637,0.26006636425355,0.));
#287=DIRECTION('',(0.,0.,-1.));
#288=DIRECTION('',(-1.,0.,0.));
#289=DIRECTION('',(0.,0.,-1.));
#290=DIRECTION('',(1.,0.,0.));
#291=DIRECTION('',(0.,0.,-1.));
#292=DIRECTION('',(0.,0.,-1.));
#293=DIRECTION('',(1.,0.,0.));
#294=DIRECTION('',(0.965925826289068,-0.258819045102521,0.));
#295=DIRECTION('',(0.258819045102521,0.965925826289068,0.));
#296=DIRECTION('',(-0.258819045102521,-0.965925826289069,0.));
#297=DIRECTION('',(0.,0.,-1.));
#298=DIRECTION('',(-0.258819045102521,-0.965925826289069,0.));
#299=DIRECTION('',(0.258819045102518,0.965925826289069,0.));
#300=DIRECTION('',(-0.965925826289069,0.258819045102518,0.));
#301=DIRECTION('',(0.965925826289069,-0.258819045102518,0.));
#302=DIRECTION('',(0.,0.,-1.));
#303=DIRECTION('',(0.965925826289069,-0.258819045102518,0.));
#304=DIRECTION('',(0.,0.,-1.));
#305=DIRECTION('',(-1.,0.,0.));
#306=DIRECTION('',(0.,0.,-1.));
#307=DIRECTION('',(1.,0.,0.));
#308=DIRECTION('',(0.,0.,-1.));
#309=DIRECTION('',(0.,0.,-1.));
#310=DIRECTION('',(1.,0.,0.));
#311=DIRECTION('',(-1.,-1.23088838642291E-16,0.));
#312=DIRECTION('',(1.23088838642291E-16,-1.,0.));
#313=DIRECTION('',(-1.23088838642291E-16,1.,0.));
#314=DIRECTION('',(-1.23088838642291E-16,1.,0.));
#315=DIRECTION('',(0.,0.,1.));
#316=DIRECTION('',(1.,0.,0.));
#317=DIRECTION('',(0.,0.,1.));
#318=DIRECTION('',(1.,0.,0.));
#319=CARTESIAN_POINT('',(0.,0.,0.));
#320=CARTESIAN_POINT('',(-6.9541778898908E-18,0.0644285678863525,0.2032));
#321=CARTESIAN_POINT('',(-6.9541778898908E-18,0.0644285678863525,0.));
#322=CARTESIAN_POINT('',(-0.002413,0.0672109984784788,0.));
#323=CARTESIAN_POINT('',(0.002413,0.0672109984784788,0.));
#324=CARTESIAN_POINT('',(0.002413,0.0672109984784788,0.2032));
#325=CARTESIAN_POINT('',(0.002413,0.0672109984784788,0.2032));
#326=CARTESIAN_POINT('',(-6.9541778898908E-18,0.0644285678863525,0.2032));
#327=CARTESIAN_POINT('',(-0.002413,0.0672109984784788,0.2032));
#328=CARTESIAN_POINT('',(-0.002413,0.0672109984784788,0.2032));
#329=CARTESIAN_POINT('',(0.002413,0.144723949474788,0.2032));
#330=CARTESIAN_POINT('',(0.002413,0.144723949474788,0.));
#331=CARTESIAN_POINT('',(0.002413,0.222236900471096,0.));
#332=CARTESIAN_POINT('',(0.002413,0.222236900471096,0.2032));
#333=CARTESIAN_POINT('',(0.002413,0.222236900471096,0.2032));
#334=CARTESIAN_POINT('',(0.002413,0.144723949474788,0.2032));
#335=CARTESIAN_POINT('',(-5.00901403688303E-17,-2.77555756156289E-17,0.2032));
#336=CARTESIAN_POINT('',(-5.00901403688303E-17,-2.77555756156289E-17,0.));
#337=CARTESIAN_POINT('',(0.110876318625786,0.19261750820731,0.));
#338=CARTESIAN_POINT('',(0.110876318625786,0.19261750820731,0.2032));
#339=CARTESIAN_POINT('',(0.110876318625786,0.19261750820731,0.2032));
#340=CARTESIAN_POINT('',(-5.00901403688303E-17,-2.77555756156289E-17,0.2032));
#341=CARTESIAN_POINT('',(0.110292452985918,0.194785321256118,0.2032));
#342=CARTESIAN_POINT('',(0.110292452985918,0.194785321256118,0.));
#343=CARTESIAN_POINT('',(0.10970858734605,0.196953134304926,0.));
#344=CARTESIAN_POINT('',(0.10970858734605,0.196953134304926,0.2032));
#345=CARTESIAN_POINT('',(0.10970858734605,0.196953134304926,0.2032));
#346=CARTESIAN_POINT('',(0.110292452985918,0.194785321256118,0.2032));
#347=CARTESIAN_POINT('',(0.111876400394858,0.197536999944794,0.2032));
#348=CARTESIAN_POINT('',(0.111876400394858,0.197536999944794,0.));
#349=CARTESIAN_POINT('',(0.114044213443666,0.198120865584662,0.));
#350=CARTESIAN_POINT('',(0.114044213443666,0.198120865584662,0.2032));
#351=CARTESIAN_POINT('',(0.114044213443666,0.198120865584662,0.2032));
#352=CARTESIAN_POINT('',(0.111876400394858,0.197536999944794,0.2032));
#353=CARTESIAN_POINT('',(-1.38777878078145E-17,4.77048955893622E-13,0.2032));
#354=CARTESIAN_POINT('',(-1.38777878078145E-17,4.77048955893622E-13,0.));
#355=CARTESIAN_POINT('',(-0.1143,0.197973407305123,0.));
#356=CARTESIAN_POINT('',(-0.1143,0.197973407305123,0.2032));
#357=CARTESIAN_POINT('',(-0.1143,0.197973407305123,0.2032));
#358=CARTESIAN_POINT('',(-1.38777878078145E-17,4.77048955893622E-13,0.2032));
#359=CARTESIAN_POINT('',(-0.114881065328508,0.195804841976615,0.2032));
#360=CARTESIAN_POINT('',(-0.114881065328508,0.195804841976615,0.));
#361=CARTESIAN_POINT('',(-0.115462130657016,0.193636276648107,0.));
#362=CARTESIAN_POINT('',(-0.115462130657016,0.193636276648107,0.2032));
#363=CARTESIAN_POINT('',(-0.115462130657016,0.193636276648107,0.2032));
#364=CARTESIAN_POINT('',(-0.114881065328508,0.195804841976615,0.2032));
#365=CARTESIAN_POINT('',(-0.113293565328508,0.193055211319599,0.2032));
#366=CARTESIAN_POINT('',(-0.113293565328508,0.193055211319599,0.));
#367=CARTESIAN_POINT('',(-0.111125,0.192474145991091,0.));
#368=CARTESIAN_POINT('',(-0.111125,0.192474145991091,0.2032));
#369=CARTESIAN_POINT('',(-0.111125,0.192474145991091,0.2032));
#370=CARTESIAN_POINT('',(-0.113293565328508,0.193055211319599,0.2032));
#371=CARTESIAN_POINT('',(2.20309881449055E-16,-4.85722573273506E-16,0.2032));
#372=CARTESIAN_POINT('',(2.20309881449055E-16,-4.85722573273506E-16,0.));
#373=CARTESIAN_POINT('',(-0.002413,0.222236900471096,0.));
#374=CARTESIAN_POINT('',(-0.002413,0.222236900471096,0.2032));
#375=CARTESIAN_POINT('',(-0.002413,0.222236900471096,0.2032));
#376=CARTESIAN_POINT('',(2.20309881449055E-16,-4.85722573273506E-16,0.2032));
#377=CARTESIAN_POINT('',(-0.002413,0.144723949474788,0.2032));
#378=CARTESIAN_POINT('',(-0.002413,0.144723949474788,0.));
#379=CARTESIAN_POINT('',(-0.002413,0.144723949474788,0.2032));
#380=CARTESIAN_POINT('',(-0.000708958606674998,0.1143,0.2032));
#381=CARTESIAN_POINT('',(-0.000708958606674998,0.1143,0.));
#382=MECHANICAL_DESIGN_GEOMETRIC_PRESENTATION_REPRESENTATION('',(#223),
#383);
#383=(
GEOMETRIC_REPRESENTATION_CONTEXT(3)
GLOBAL_UNCERTAINTY_ASSIGNED_CONTEXT((#384))
GLOBAL_UNIT_ASSIGNED_CONTEXT((#387,#386,#385))
REPRESENTATION_CONTEXT('Part 2','TOP_LEVEL_ASSEMBLY_PART')
);
#384=UNCERTAINTY_MEASURE_WITH_UNIT(LENGTH_MEASURE(1.E-8),#387,
'DISTANCE_ACCURACY_VALUE','Maximum Tolerance applied to model');
#385=(
NAMED_UNIT(*)
SI_UNIT($,.STERADIAN.)
SOLID_ANGLE_UNIT()
);
#386=(
NAMED_UNIT(*)
PLANE_ANGLE_UNIT()
SI_UNIT($,.RADIAN.)
);
#387=(
LENGTH_UNIT()
NAMED_UNIT(*)
SI_UNIT($,.METRE.)
);
#388=PRODUCT_DEFINITION_SHAPE('','',#389);
#389=PRODUCT_DEFINITION('','',#391,#390);
#390=PRODUCT_DEFINITION_CONTEXT('',#397,'design');
#391=PRODUCT_DEFINITION_FORMATION_WITH_SPECIFIED_SOURCE('','',#393,
 .NOT_KNOWN.);
#392=PRODUCT_RELATED_PRODUCT_CATEGORY('','',(#393));
#393=PRODUCT('Part 2','Part 2','Part 2',(#395));
#394=PRODUCT_CATEGORY('','');
#395=PRODUCT_CONTEXT('',#397,'mechanical');
#396=APPLICATION_PROTOCOL_DEFINITION('international standard',
'ap242_managed_model_based_3d_engineering',2020,#397);
#397=APPLICATION_CONTEXT('managed model based 3d engineering');
ENDSEC;
END-ISO-10303-21;
