ISO-10303-21;
HEADER;
/* Generated by software containing ST-Developer
 * from STEP Tools, Inc. (www.steptools.com) 
 */
/* OPTION: using custom renumber hook */

FILE_DESCRIPTION(
/* description */ ('STEP AP242 Edition 2',
'CAx-IF Rec.Pracs.---Representation and Presentation of Product Manufa
cturing Information (PMI)---4.0---2014-10-13',
'CAx-IF Rec.Pracs.---3D Tessellated Geometry---0.4---2014-09-14','2;1',
'CAx-IF Rec.Pracs.---User Defined Attributes---1.5---2016-08-15'),
/* implementation_level */ '2;1');

FILE_NAME(
/* name */ 'Main - Part 1',
/* time_stamp */ '2026-08-15T18:28:59Z',
/* author */ (''),
/* organization */ (''),
/* preprocessor_version */ 'ST-DEVELOPER v20',
/* originating_system */ 'ONSHAPE BY PTC INC, 1.219',
/* authorisation */ '  ');

FILE_SCHEMA (('AP242_MANAGED_MODEL_BASED_3D_ENGINEERING_MIM_LF { 1 0 10303 442 3 1 4 }'));
ENDSEC;

DATA;
#10=SHAPE_REPRESENTATION_RELATIONSHIP('','',#731,#11);
#11=ADVANCED_BREP_SHAPE_REPRESENTATION('',(#729),#1159);
#12=CYLINDRICAL_SURFACE('',#765,0.0635);
#13=CYLINDRICAL_SURFACE('',#766,0.0635);
#14=CYLINDRICAL_SURFACE('',#767,0.0635);
#15=CYLINDRICAL_SURFACE('',#768,0.0635);
#16=CYLINDRICAL_SURFACE('',#769,0.057785);
#17=CIRCLE('',#754,0.0635);
#18=CIRCLE('',#755,0.0635);
#19=CIRCLE('',#756,0.0635);
#20=CIRCLE('',#757,0.0635);
#21=CIRCLE('',#758,0.057785);
#22=CIRCLE('',#760,0.0635);
#23=CIRCLE('',#761,0.0635);
#24=CIRCLE('',#762,0.0635);
#25=CIRCLE('',#763,0.0635);
#26=CIRCLE('',#764,0.057785);
#27=ORIENTED_EDGE('',*,*,#223,.F.);
#28=ORIENTED_EDGE('',*,*,#224,.F.);
#29=ORIENTED_EDGE('',*,*,#225,.T.);
#30=ORIENTED_EDGE('',*,*,#226,.T.);
#31=ORIENTED_EDGE('',*,*,#227,.F.);
#32=ORIENTED_EDGE('',*,*,#228,.F.);
#33=ORIENTED_EDGE('',*,*,#229,.T.);
#34=ORIENTED_EDGE('',*,*,#230,.T.);
#35=ORIENTED_EDGE('',*,*,#231,.F.);
#36=ORIENTED_EDGE('',*,*,#232,.F.);
#37=ORIENTED_EDGE('',*,*,#233,.T.);
#38=ORIENTED_EDGE('',*,*,#234,.T.);
#39=ORIENTED_EDGE('',*,*,#235,.F.);
#40=ORIENTED_EDGE('',*,*,#236,.F.);
#41=ORIENTED_EDGE('',*,*,#237,.T.);
#42=ORIENTED_EDGE('',*,*,#238,.T.);
#43=ORIENTED_EDGE('',*,*,#239,.T.);
#44=ORIENTED_EDGE('',*,*,#225,.F.);
#45=ORIENTED_EDGE('',*,*,#240,.F.);
#46=ORIENTED_EDGE('',*,*,#241,.T.);
#47=ORIENTED_EDGE('',*,*,#242,.F.);
#48=ORIENTED_EDGE('',*,*,#243,.T.);
#49=ORIENTED_EDGE('',*,*,#244,.T.);
#50=ORIENTED_EDGE('',*,*,#245,.F.);
#51=ORIENTED_EDGE('',*,*,#246,.T.);
#52=ORIENTED_EDGE('',*,*,#229,.F.);
#53=ORIENTED_EDGE('',*,*,#247,.F.);
#54=ORIENTED_EDGE('',*,*,#245,.T.);
#55=ORIENTED_EDGE('',*,*,#248,.F.);
#56=ORIENTED_EDGE('',*,*,#249,.T.);
#57=ORIENTED_EDGE('',*,*,#250,.T.);
#58=ORIENTED_EDGE('',*,*,#251,.F.);
#59=ORIENTED_EDGE('',*,*,#252,.T.);
#60=ORIENTED_EDGE('',*,*,#233,.F.);
#61=ORIENTED_EDGE('',*,*,#253,.F.);
#62=ORIENTED_EDGE('',*,*,#251,.T.);
#63=ORIENTED_EDGE('',*,*,#254,.F.);
#64=ORIENTED_EDGE('',*,*,#255,.T.);
#65=ORIENTED_EDGE('',*,*,#256,.T.);
#66=ORIENTED_EDGE('',*,*,#257,.F.);
#67=ORIENTED_EDGE('',*,*,#258,.T.);
#68=ORIENTED_EDGE('',*,*,#237,.F.);
#69=ORIENTED_EDGE('',*,*,#259,.F.);
#70=ORIENTED_EDGE('',*,*,#257,.T.);
#71=ORIENTED_EDGE('',*,*,#260,.F.);
#72=ORIENTED_EDGE('',*,*,#261,.F.);
#73=ORIENTED_EDGE('',*,*,#262,.T.);
#74=ORIENTED_EDGE('',*,*,#263,.T.);
#75=ORIENTED_EDGE('',*,*,#264,.F.);
#76=ORIENTED_EDGE('',*,*,#265,.F.);
#77=ORIENTED_EDGE('',*,*,#266,.T.);
#78=ORIENTED_EDGE('',*,*,#261,.T.);
#79=ORIENTED_EDGE('',*,*,#267,.F.);
#80=ORIENTED_EDGE('',*,*,#268,.F.);
#81=ORIENTED_EDGE('',*,*,#269,.T.);
#82=ORIENTED_EDGE('',*,*,#265,.T.);
#83=ORIENTED_EDGE('',*,*,#270,.F.);
#84=ORIENTED_EDGE('',*,*,#271,.F.);
#85=ORIENTED_EDGE('',*,*,#272,.T.);
#86=ORIENTED_EDGE('',*,*,#268,.T.);
#87=ORIENTED_EDGE('',*,*,#273,.F.);
#88=ORIENTED_EDGE('',*,*,#274,.F.);
#89=ORIENTED_EDGE('',*,*,#275,.T.);
#90=ORIENTED_EDGE('',*,*,#271,.T.);
#91=ORIENTED_EDGE('',*,*,#276,.F.);
#92=ORIENTED_EDGE('',*,*,#277,.F.);
#93=ORIENTED_EDGE('',*,*,#278,.T.);
#94=ORIENTED_EDGE('',*,*,#274,.T.);
#95=ORIENTED_EDGE('',*,*,#279,.F.);
#96=ORIENTED_EDGE('',*,*,#280,.F.);
#97=ORIENTED_EDGE('',*,*,#281,.T.);
#98=ORIENTED_EDGE('',*,*,#277,.T.);
#99=ORIENTED_EDGE('',*,*,#282,.F.);
#100=ORIENTED_EDGE('',*,*,#263,.F.);
#101=ORIENTED_EDGE('',*,*,#283,.T.);
#102=ORIENTED_EDGE('',*,*,#280,.T.);
#103=ORIENTED_EDGE('',*,*,#284,.F.);
#104=ORIENTED_EDGE('',*,*,#285,.T.);
#105=ORIENTED_EDGE('',*,*,#286,.T.);
#106=ORIENTED_EDGE('',*,*,#241,.F.);
#107=ORIENTED_EDGE('',*,*,#287,.T.);
#108=ORIENTED_EDGE('',*,*,#242,.T.);
#109=ORIENTED_EDGE('',*,*,#247,.T.);
#110=ORIENTED_EDGE('',*,*,#228,.T.);
#111=ORIENTED_EDGE('',*,*,#288,.F.);
#112=ORIENTED_EDGE('',*,*,#289,.T.);
#113=ORIENTED_EDGE('',*,*,#290,.T.);
#114=ORIENTED_EDGE('',*,*,#248,.T.);
#115=ORIENTED_EDGE('',*,*,#253,.T.);
#116=ORIENTED_EDGE('',*,*,#232,.T.);
#117=ORIENTED_EDGE('',*,*,#291,.F.);
#118=ORIENTED_EDGE('',*,*,#292,.T.);
#119=ORIENTED_EDGE('',*,*,#293,.T.);
#120=ORIENTED_EDGE('',*,*,#254,.T.);
#121=ORIENTED_EDGE('',*,*,#259,.T.);
#122=ORIENTED_EDGE('',*,*,#236,.T.);
#123=ORIENTED_EDGE('',*,*,#294,.F.);
#124=ORIENTED_EDGE('',*,*,#295,.T.);
#125=ORIENTED_EDGE('',*,*,#262,.F.);
#126=ORIENTED_EDGE('',*,*,#266,.F.);
#127=ORIENTED_EDGE('',*,*,#269,.F.);
#128=ORIENTED_EDGE('',*,*,#272,.F.);
#129=ORIENTED_EDGE('',*,*,#275,.F.);
#130=ORIENTED_EDGE('',*,*,#278,.F.);
#131=ORIENTED_EDGE('',*,*,#281,.F.);
#132=ORIENTED_EDGE('',*,*,#283,.F.);
#133=ORIENTED_EDGE('',*,*,#240,.T.);
#134=ORIENTED_EDGE('',*,*,#224,.T.);
#135=ORIENTED_EDGE('',*,*,#296,.F.);
#136=ORIENTED_EDGE('',*,*,#297,.T.);
#137=ORIENTED_EDGE('',*,*,#298,.T.);
#138=ORIENTED_EDGE('',*,*,#284,.T.);
#139=ORIENTED_EDGE('',*,*,#299,.F.);
#140=ORIENTED_EDGE('',*,*,#244,.F.);
#141=ORIENTED_EDGE('',*,*,#300,.F.);
#142=ORIENTED_EDGE('',*,*,#301,.F.);
#143=ORIENTED_EDGE('',*,*,#302,.T.);
#144=ORIENTED_EDGE('',*,*,#230,.F.);
#145=ORIENTED_EDGE('',*,*,#246,.F.);
#146=ORIENTED_EDGE('',*,*,#250,.F.);
#147=ORIENTED_EDGE('',*,*,#303,.F.);
#148=ORIENTED_EDGE('',*,*,#304,.F.);
#149=ORIENTED_EDGE('',*,*,#305,.T.);
#150=ORIENTED_EDGE('',*,*,#234,.F.);
#151=ORIENTED_EDGE('',*,*,#252,.F.);
#152=ORIENTED_EDGE('',*,*,#256,.F.);
#153=ORIENTED_EDGE('',*,*,#306,.F.);
#154=ORIENTED_EDGE('',*,*,#307,.F.);
#155=ORIENTED_EDGE('',*,*,#308,.T.);
#156=ORIENTED_EDGE('',*,*,#238,.F.);
#157=ORIENTED_EDGE('',*,*,#258,.F.);
#158=ORIENTED_EDGE('',*,*,#260,.T.);
#159=ORIENTED_EDGE('',*,*,#282,.T.);
#160=ORIENTED_EDGE('',*,*,#279,.T.);
#161=ORIENTED_EDGE('',*,*,#276,.T.);
#162=ORIENTED_EDGE('',*,*,#273,.T.);
#163=ORIENTED_EDGE('',*,*,#270,.T.);
#164=ORIENTED_EDGE('',*,*,#267,.T.);
#165=ORIENTED_EDGE('',*,*,#264,.T.);
#166=ORIENTED_EDGE('',*,*,#239,.F.);
#167=ORIENTED_EDGE('',*,*,#286,.F.);
#168=ORIENTED_EDGE('',*,*,#309,.F.);
#169=ORIENTED_EDGE('',*,*,#310,.F.);
#170=ORIENTED_EDGE('',*,*,#311,.T.);
#171=ORIENTED_EDGE('',*,*,#226,.F.);
#172=ORIENTED_EDGE('',*,*,#312,.T.);
#173=ORIENTED_EDGE('',*,*,#313,.F.);
#174=ORIENTED_EDGE('',*,*,#292,.F.);
#175=ORIENTED_EDGE('',*,*,#314,.T.);
#176=ORIENTED_EDGE('',*,*,#304,.T.);
#177=ORIENTED_EDGE('',*,*,#315,.F.);
#178=ORIENTED_EDGE('',*,*,#295,.F.);
#179=ORIENTED_EDGE('',*,*,#316,.T.);
#180=ORIENTED_EDGE('',*,*,#307,.T.);
#181=ORIENTED_EDGE('',*,*,#317,.F.);
#182=ORIENTED_EDGE('',*,*,#297,.F.);
#183=ORIENTED_EDGE('',*,*,#318,.T.);
#184=ORIENTED_EDGE('',*,*,#310,.T.);
#185=ORIENTED_EDGE('',*,*,#289,.F.);
#186=ORIENTED_EDGE('',*,*,#319,.T.);
#187=ORIENTED_EDGE('',*,*,#301,.T.);
#188=ORIENTED_EDGE('',*,*,#320,.F.);
#189=ORIENTED_EDGE('',*,*,#299,.T.);
#190=ORIENTED_EDGE('',*,*,#312,.F.);
#191=ORIENTED_EDGE('',*,*,#316,.F.);
#192=ORIENTED_EDGE('',*,*,#294,.T.);
#193=ORIENTED_EDGE('',*,*,#235,.T.);
#194=ORIENTED_EDGE('',*,*,#308,.F.);
#195=ORIENTED_EDGE('',*,*,#298,.F.);
#196=ORIENTED_EDGE('',*,*,#317,.T.);
#197=ORIENTED_EDGE('',*,*,#309,.T.);
#198=ORIENTED_EDGE('',*,*,#285,.F.);
#199=ORIENTED_EDGE('',*,*,#314,.F.);
#200=ORIENTED_EDGE('',*,*,#291,.T.);
#201=ORIENTED_EDGE('',*,*,#231,.T.);
#202=ORIENTED_EDGE('',*,*,#305,.F.);
#203=ORIENTED_EDGE('',*,*,#293,.F.);
#204=ORIENTED_EDGE('',*,*,#315,.T.);
#205=ORIENTED_EDGE('',*,*,#306,.T.);
#206=ORIENTED_EDGE('',*,*,#255,.F.);
#207=ORIENTED_EDGE('',*,*,#319,.F.);
#208=ORIENTED_EDGE('',*,*,#288,.T.);
#209=ORIENTED_EDGE('',*,*,#227,.T.);
#210=ORIENTED_EDGE('',*,*,#302,.F.);
#211=ORIENTED_EDGE('',*,*,#290,.F.);
#212=ORIENTED_EDGE('',*,*,#313,.T.);
#213=ORIENTED_EDGE('',*,*,#303,.T.);
#214=ORIENTED_EDGE('',*,*,#249,.F.);
#215=ORIENTED_EDGE('',*,*,#318,.F.);
#216=ORIENTED_EDGE('',*,*,#296,.T.);
#217=ORIENTED_EDGE('',*,*,#223,.T.);
#218=ORIENTED_EDGE('',*,*,#311,.F.);
#219=ORIENTED_EDGE('',*,*,#287,.F.);
#220=ORIENTED_EDGE('',*,*,#320,.T.);
#221=ORIENTED_EDGE('',*,*,#300,.T.);
#222=ORIENTED_EDGE('',*,*,#243,.F.);
#223=EDGE_CURVE('',#321,#322,#387,.T.);
#224=EDGE_CURVE('',#323,#321,#388,.T.);
#225=EDGE_CURVE('',#323,#324,#389,.T.);
#226=EDGE_CURVE('',#324,#322,#390,.T.);
#227=EDGE_CURVE('',#325,#326,#391,.T.);
#228=EDGE_CURVE('',#327,#325,#392,.T.);
#229=EDGE_CURVE('',#327,#328,#393,.T.);
#230=EDGE_CURVE('',#328,#326,#394,.T.);
#231=EDGE_CURVE('',#329,#330,#395,.T.);
#232=EDGE_CURVE('',#331,#329,#396,.T.);
#233=EDGE_CURVE('',#331,#332,#397,.T.);
#234=EDGE_CURVE('',#332,#330,#398,.T.);
#235=EDGE_CURVE('',#333,#334,#399,.T.);
#236=EDGE_CURVE('',#335,#333,#400,.T.);
#237=EDGE_CURVE('',#335,#336,#401,.T.);
#238=EDGE_CURVE('',#336,#334,#402,.T.);
#239=EDGE_CURVE('',#337,#324,#403,.T.);
#240=EDGE_CURVE('',#338,#323,#404,.T.);
#241=EDGE_CURVE('',#338,#337,#405,.T.);
#242=EDGE_CURVE('',#339,#340,#406,.T.);
#243=EDGE_CURVE('',#339,#341,#407,.T.);
#244=EDGE_CURVE('',#341,#342,#408,.T.);
#245=EDGE_CURVE('',#340,#342,#409,.T.);
#246=EDGE_CURVE('',#342,#328,#410,.T.);
#247=EDGE_CURVE('',#340,#327,#411,.T.);
#248=EDGE_CURVE('',#343,#344,#412,.T.);
#249=EDGE_CURVE('',#343,#345,#413,.T.);
#250=EDGE_CURVE('',#345,#346,#414,.T.);
#251=EDGE_CURVE('',#344,#346,#415,.T.);
#252=EDGE_CURVE('',#346,#332,#416,.T.);
#253=EDGE_CURVE('',#344,#331,#417,.T.);
#254=EDGE_CURVE('',#347,#348,#418,.T.);
#255=EDGE_CURVE('',#347,#349,#419,.T.);
#256=EDGE_CURVE('',#349,#350,#420,.T.);
#257=EDGE_CURVE('',#348,#350,#421,.T.);
#258=EDGE_CURVE('',#350,#336,#422,.T.);
#259=EDGE_CURVE('',#348,#335,#423,.T.);
#260=EDGE_CURVE('',#351,#352,#424,.T.);
#261=EDGE_CURVE('',#353,#351,#425,.T.);
#262=EDGE_CURVE('',#353,#354,#426,.T.);
#263=EDGE_CURVE('',#354,#352,#427,.T.);
#264=EDGE_CURVE('',#355,#351,#428,.T.);
#265=EDGE_CURVE('',#356,#355,#429,.T.);
#266=EDGE_CURVE('',#356,#353,#430,.T.);
#267=EDGE_CURVE('',#357,#355,#431,.T.);
#268=EDGE_CURVE('',#358,#357,#432,.T.);
#269=EDGE_CURVE('',#358,#356,#433,.T.);
#270=EDGE_CURVE('',#359,#357,#434,.T.);
#271=EDGE_CURVE('',#360,#359,#435,.T.);
#272=EDGE_CURVE('',#360,#358,#436,.T.);
#273=EDGE_CURVE('',#361,#359,#437,.T.);
#274=EDGE_CURVE('',#362,#361,#438,.T.);
#275=EDGE_CURVE('',#362,#360,#439,.T.);
#276=EDGE_CURVE('',#363,#361,#440,.T.);
#277=EDGE_CURVE('',#364,#363,#441,.T.);
#278=EDGE_CURVE('',#364,#362,#442,.T.);
#279=EDGE_CURVE('',#365,#363,#443,.T.);
#280=EDGE_CURVE('',#366,#365,#444,.T.);
#281=EDGE_CURVE('',#366,#364,#445,.T.);
#282=EDGE_CURVE('',#352,#365,#446,.T.);
#283=EDGE_CURVE('',#354,#366,#447,.T.);
#284=EDGE_CURVE('',#367,#338,#448,.T.);
#285=EDGE_CURVE('',#367,#368,#449,.T.);
#286=EDGE_CURVE('',#368,#337,#450,.T.);
#287=EDGE_CURVE('',#369,#339,#451,.T.);
#288=EDGE_CURVE('',#370,#325,#452,.T.);
#289=EDGE_CURVE('',#370,#369,#17,.T.);
#290=EDGE_CURVE('',#371,#343,#453,.T.);
#291=EDGE_CURVE('',#372,#329,#454,.T.);
#292=EDGE_CURVE('',#372,#371,#18,.T.);
#293=EDGE_CURVE('',#373,#347,#455,.T.);
#294=EDGE_CURVE('',#374,#333,#456,.T.);
#295=EDGE_CURVE('',#374,#373,#19,.T.);
#296=EDGE_CURVE('',#375,#321,#457,.T.);
#297=EDGE_CURVE('',#375,#376,#20,.T.);
#298=EDGE_CURVE('',#376,#367,#458,.T.);
#299=EDGE_CURVE('',#377,#377,#21,.T.);
#300=EDGE_CURVE('',#378,#341,#459,.T.);
#301=EDGE_CURVE('',#379,#378,#22,.T.);
#302=EDGE_CURVE('',#379,#326,#460,.T.);
#303=EDGE_CURVE('',#380,#345,#461,.T.);
#304=EDGE_CURVE('',#381,#380,#23,.T.);
#305=EDGE_CURVE('',#381,#330,#462,.T.);
#306=EDGE_CURVE('',#382,#349,#463,.T.);
#307=EDGE_CURVE('',#383,#382,#24,.T.);
#308=EDGE_CURVE('',#383,#334,#464,.T.);
#309=EDGE_CURVE('',#384,#368,#465,.T.);
#310=EDGE_CURVE('',#385,#384,#25,.T.);
#311=EDGE_CURVE('',#385,#322,#466,.T.);
#312=EDGE_CURVE('',#386,#386,#26,.T.);
#313=EDGE_CURVE('',#371,#380,#467,.T.);
#314=EDGE_CURVE('',#372,#381,#468,.T.);
#315=EDGE_CURVE('',#373,#382,#469,.T.);
#316=EDGE_CURVE('',#374,#383,#470,.T.);
#317=EDGE_CURVE('',#376,#384,#471,.T.);
#318=EDGE_CURVE('',#375,#385,#472,.T.);
#319=EDGE_CURVE('',#370,#379,#473,.T.);
#320=EDGE_CURVE('',#369,#378,#474,.T.);
#321=VERTEX_POINT('',#961);
#322=VERTEX_POINT('',#962);
#323=VERTEX_POINT('',#964);
#324=VERTEX_POINT('',#966);
#325=VERTEX_POINT('',#970);
#326=VERTEX_POINT('',#971);
#327=VERTEX_POINT('',#973);
#328=VERTEX_POINT('',#975);
#329=VERTEX_POINT('',#979);
#330=VERTEX_POINT('',#980);
#331=VERTEX_POINT('',#982);
#332=VERTEX_POINT('',#984);
#333=VERTEX_POINT('',#988);
#334=VERTEX_POINT('',#989);
#335=VERTEX_POINT('',#991);
#336=VERTEX_POINT('',#993);
#337=VERTEX_POINT('',#997);
#338=VERTEX_POINT('',#999);
#339=VERTEX_POINT('',#1003);
#340=VERTEX_POINT('',#1004);
#341=VERTEX_POINT('',#1006);
#342=VERTEX_POINT('',#1008);
#343=VERTEX_POINT('',#1015);
#344=VERTEX_POINT('',#1016);
#345=VERTEX_POINT('',#1018);
#346=VERTEX_POINT('',#1020);
#347=VERTEX_POINT('',#1027);
#348=VERTEX_POINT('',#1028);
#349=VERTEX_POINT('',#1030);
#350=VERTEX_POINT('',#1032);
#351=VERTEX_POINT('',#1039);
#352=VERTEX_POINT('',#1040);
#353=VERTEX_POINT('',#1042);
#354=VERTEX_POINT('',#1044);
#355=VERTEX_POINT('',#1048);
#356=VERTEX_POINT('',#1050);
#357=VERTEX_POINT('',#1054);
#358=VERTEX_POINT('',#1056);
#359=VERTEX_POINT('',#1060);
#360=VERTEX_POINT('',#1062);
#361=VERTEX_POINT('',#1066);
#362=VERTEX_POINT('',#1068);
#363=VERTEX_POINT('',#1072);
#364=VERTEX_POINT('',#1074);
#365=VERTEX_POINT('',#1078);
#366=VERTEX_POINT('',#1080);
#367=VERTEX_POINT('',#1087);
#368=VERTEX_POINT('',#1089);
#369=VERTEX_POINT('',#1093);
#370=VERTEX_POINT('',#1095);
#371=VERTEX_POINT('',#1098);
#372=VERTEX_POINT('',#1100);
#373=VERTEX_POINT('',#1103);
#374=VERTEX_POINT('',#1105);
#375=VERTEX_POINT('',#1108);
#376=VERTEX_POINT('',#1110);
#377=VERTEX_POINT('',#1113);
#378=VERTEX_POINT('',#1116);
#379=VERTEX_POINT('',#1118);
#380=VERTEX_POINT('',#1121);
#381=VERTEX_POINT('',#1123);
#382=VERTEX_POINT('',#1126);
#383=VERTEX_POINT('',#1128);
#384=VERTEX_POINT('',#1131);
#385=VERTEX_POINT('',#1133);
#386=VERTEX_POINT('',#1136);
#387=LINE('',#960,#475);
#388=LINE('',#963,#476);
#389=LINE('',#965,#477);
#390=LINE('',#967,#478);
#391=LINE('',#969,#479);
#392=LINE('',#972,#480);
#393=LINE('',#974,#481);
#394=LINE('',#976,#482);
#395=LINE('',#978,#483);
#396=LINE('',#981,#484);
#397=LINE('',#983,#485);
#398=LINE('',#985,#486);
#399=LINE('',#987,#487);
#400=LINE('',#990,#488);
#401=LINE('',#992,#489);
#402=LINE('',#994,#490);
#403=LINE('',#996,#491);
#404=LINE('',#998,#492);
#405=LINE('',#1000,#493);
#406=LINE('',#1002,#494);
#407=LINE('',#1005,#495);
#408=LINE('',#1007,#496);
#409=LINE('',#1009,#497);
#410=LINE('',#1011,#498);
#411=LINE('',#1012,#499);
#412=LINE('',#1014,#500);
#413=LINE('',#1017,#501);
#414=LINE('',#1019,#502);
#415=LINE('',#1021,#503);
#416=LINE('',#1023,#504);
#417=LINE('',#1024,#505);
#418=LINE('',#1026,#506);
#419=LINE('',#1029,#507);
#420=LINE('',#1031,#508);
#421=LINE('',#1033,#509);
#422=LINE('',#1035,#510);
#423=LINE('',#1036,#511);
#424=LINE('',#1038,#512);
#425=LINE('',#1041,#513);
#426=LINE('',#1043,#514);
#427=LINE('',#1045,#515);
#428=LINE('',#1047,#516);
#429=LINE('',#1049,#517);
#430=LINE('',#1051,#518);
#431=LINE('',#1053,#519);
#432=LINE('',#1055,#520);
#433=LINE('',#1057,#521);
#434=LINE('',#1059,#522);
#435=LINE('',#1061,#523);
#436=LINE('',#1063,#524);
#437=LINE('',#1065,#525);
#438=LINE('',#1067,#526);
#439=LINE('',#1069,#527);
#440=LINE('',#1071,#528);
#441=LINE('',#1073,#529);
#442=LINE('',#1075,#530);
#443=LINE('',#1077,#531);
#444=LINE('',#1079,#532);
#445=LINE('',#1081,#533);
#446=LINE('',#1083,#534);
#447=LINE('',#1084,#535);
#448=LINE('',#1086,#536);
#449=LINE('',#1088,#537);
#450=LINE('',#1090,#538);
#451=LINE('',#1092,#539);
#452=LINE('',#1094,#540);
#453=LINE('',#1097,#541);
#454=LINE('',#1099,#542);
#455=LINE('',#1102,#543);
#456=LINE('',#1104,#544);
#457=LINE('',#1107,#545);
#458=LINE('',#1111,#546);
#459=LINE('',#1115,#547);
#460=LINE('',#1119,#548);
#461=LINE('',#1120,#549);
#462=LINE('',#1124,#550);
#463=LINE('',#1125,#551);
#464=LINE('',#1129,#552);
#465=LINE('',#1130,#553);
#466=LINE('',#1134,#554);
#467=LINE('',#1138,#555);
#468=LINE('',#1139,#556);
#469=LINE('',#1141,#557);
#470=LINE('',#1142,#558);
#471=LINE('',#1144,#559);
#472=LINE('',#1145,#560);
#473=LINE('',#1147,#561);
#474=LINE('',#1148,#562);
#475=VECTOR('',#782,1.);
#476=VECTOR('',#783,1.);
#477=VECTOR('',#784,1.);
#478=VECTOR('',#785,1.);
#479=VECTOR('',#788,1.);
#480=VECTOR('',#789,1.);
#481=VECTOR('',#790,1.);
#482=VECTOR('',#791,1.);
#483=VECTOR('',#794,1.);
#484=VECTOR('',#795,1.);
#485=VECTOR('',#796,1.);
#486=VECTOR('',#797,1.);
#487=VECTOR('',#800,1.);
#488=VECTOR('',#801,1.);
#489=VECTOR('',#802,1.);
#490=VECTOR('',#803,1.);
#491=VECTOR('',#806,1.);
#492=VECTOR('',#807,1.);
#493=VECTOR('',#808,1.);
#494=VECTOR('',#811,1.);
#495=VECTOR('',#812,1.);
#496=VECTOR('',#813,1.);
#497=VECTOR('',#814,1.);
#498=VECTOR('',#817,1.);
#499=VECTOR('',#818,1.);
#500=VECTOR('',#821,1.);
#501=VECTOR('',#822,1.);
#502=VECTOR('',#823,1.);
#503=VECTOR('',#824,1.);
#504=VECTOR('',#827,1.);
#505=VECTOR('',#828,1.);
#506=VECTOR('',#831,1.);
#507=VECTOR('',#832,1.);
#508=VECTOR('',#833,1.);
#509=VECTOR('',#834,1.);
#510=VECTOR('',#837,1.);
#511=VECTOR('',#838,1.);
#512=VECTOR('',#841,1.);
#513=VECTOR('',#842,1.);
#514=VECTOR('',#843,1.);
#515=VECTOR('',#844,1.);
#516=VECTOR('',#847,1.);
#517=VECTOR('',#848,1.);
#518=VECTOR('',#849,1.);
#519=VECTOR('',#852,1.);
#520=VECTOR('',#853,1.);
#521=VECTOR('',#854,1.);
#522=VECTOR('',#857,1.);
#523=VECTOR('',#858,1.);
#524=VECTOR('',#859,1.);
#525=VECTOR('',#862,1.);
#526=VECTOR('',#863,1.);
#527=VECTOR('',#864,1.);
#528=VECTOR('',#867,1.);
#529=VECTOR('',#868,1.);
#530=VECTOR('',#869,1.);
#531=VECTOR('',#872,1.);
#532=VECTOR('',#873,1.);
#533=VECTOR('',#874,1.);
#534=VECTOR('',#877,1.);
#535=VECTOR('',#878,1.);
#536=VECTOR('',#881,1.);
#537=VECTOR('',#882,1.);
#538=VECTOR('',#883,1.);
#539=VECTOR('',#886,1.);
#540=VECTOR('',#887,1.);
#541=VECTOR('',#890,1.);
#542=VECTOR('',#891,1.);
#543=VECTOR('',#894,1.);
#544=VECTOR('',#895,1.);
#545=VECTOR('',#898,1.);
#546=VECTOR('',#901,1.);
#547=VECTOR('',#906,1.);
#548=VECTOR('',#909,1.);
#549=VECTOR('',#910,1.);
#550=VECTOR('',#913,1.);
#551=VECTOR('',#914,1.);
#552=VECTOR('',#917,1.);
#553=VECTOR('',#918,1.);
#554=VECTOR('',#921,1.);
#555=VECTOR('',#926,1.);
#556=VECTOR('',#927,1.);
#557=VECTOR('',#930,1.);
#558=VECTOR('',#931,1.);
#559=VECTOR('',#934,1.);
#560=VECTOR('',#935,1.);
#561=VECTOR('',#938,1.);
#562=VECTOR('',#939,1.);
#563=EDGE_LOOP('',(#27,#28,#29,#30));
#564=EDGE_LOOP('',(#31,#32,#33,#34));
#565=EDGE_LOOP('',(#35,#36,#37,#38));
#566=EDGE_LOOP('',(#39,#40,#41,#42));
#567=EDGE_LOOP('',(#43,#44,#45,#46));
#568=EDGE_LOOP('',(#47,#48,#49,#50));
#569=EDGE_LOOP('',(#51,#52,#53,#54));
#570=EDGE_LOOP('',(#55,#56,#57,#58));
#571=EDGE_LOOP('',(#59,#60,#61,#62));
#572=EDGE_LOOP('',(#63,#64,#65,#66));
#573=EDGE_LOOP('',(#67,#68,#69,#70));
#574=EDGE_LOOP('',(#71,#72,#73,#74));
#575=EDGE_LOOP('',(#75,#76,#77,#78));
#576=EDGE_LOOP('',(#79,#80,#81,#82));
#577=EDGE_LOOP('',(#83,#84,#85,#86));
#578=EDGE_LOOP('',(#87,#88,#89,#90));
#579=EDGE_LOOP('',(#91,#92,#93,#94));
#580=EDGE_LOOP('',(#95,#96,#97,#98));
#581=EDGE_LOOP('',(#99,#100,#101,#102));
#582=EDGE_LOOP('',(#103,#104,#105,#106));
#583=EDGE_LOOP('',(#107,#108,#109,#110,#111,#112));
#584=EDGE_LOOP('',(#113,#114,#115,#116,#117,#118));
#585=EDGE_LOOP('',(#119,#120,#121,#122,#123,#124));
#586=EDGE_LOOP('',(#125,#126,#127,#128,#129,#130,#131,#132));
#587=EDGE_LOOP('',(#133,#134,#135,#136,#137,#138));
#588=EDGE_LOOP('',(#139));
#589=EDGE_LOOP('',(#140,#141,#142,#143,#144,#145));
#590=EDGE_LOOP('',(#146,#147,#148,#149,#150,#151));
#591=EDGE_LOOP('',(#152,#153,#154,#155,#156,#157));
#592=EDGE_LOOP('',(#158,#159,#160,#161,#162,#163,#164,#165));
#593=EDGE_LOOP('',(#166,#167,#168,#169,#170,#171));
#594=EDGE_LOOP('',(#172));
#595=EDGE_LOOP('',(#173,#174,#175,#176));
#596=EDGE_LOOP('',(#177,#178,#179,#180));
#597=EDGE_LOOP('',(#181,#182,#183,#184));
#598=EDGE_LOOP('',(#185,#186,#187,#188));
#599=EDGE_LOOP('',(#189));
#600=EDGE_LOOP('',(#190));
#601=EDGE_LOOP('',(#191,#192,#193,#194));
#602=EDGE_LOOP('',(#195,#196,#197,#198));
#603=EDGE_LOOP('',(#199,#200,#201,#202));
#604=EDGE_LOOP('',(#203,#204,#205,#206));
#605=EDGE_LOOP('',(#207,#208,#209,#210));
#606=EDGE_LOOP('',(#211,#212,#213,#214));
#607=EDGE_LOOP('',(#215,#216,#217,#218));
#608=EDGE_LOOP('',(#219,#220,#221,#222));
#609=FACE_BOUND('',#563,.T.);
#610=FACE_BOUND('',#564,.T.);
#611=FACE_BOUND('',#565,.T.);
#612=FACE_BOUND('',#566,.T.);
#613=FACE_BOUND('',#567,.T.);
#614=FACE_BOUND('',#568,.T.);
#615=FACE_BOUND('',#569,.T.);
#616=FACE_BOUND('',#570,.T.);
#617=FACE_BOUND('',#571,.T.);
#618=FACE_BOUND('',#572,.T.);
#619=FACE_BOUND('',#573,.T.);
#620=FACE_BOUND('',#574,.T.);
#621=FACE_BOUND('',#575,.T.);
#622=FACE_BOUND('',#576,.T.);
#623=FACE_BOUND('',#577,.T.);
#624=FACE_BOUND('',#578,.T.);
#625=FACE_BOUND('',#579,.T.);
#626=FACE_BOUND('',#580,.T.);
#627=FACE_BOUND('',#581,.T.);
#628=FACE_BOUND('',#582,.T.);
#629=FACE_BOUND('',#583,.T.);
#630=FACE_BOUND('',#584,.T.);
#631=FACE_BOUND('',#585,.T.);
#632=FACE_BOUND('',#586,.T.);
#633=FACE_BOUND('',#587,.T.);
#634=FACE_BOUND('',#588,.T.);
#635=FACE_BOUND('',#589,.T.);
#636=FACE_BOUND('',#590,.T.);
#637=FACE_BOUND('',#591,.T.);
#638=FACE_BOUND('',#592,.T.);
#639=FACE_BOUND('',#593,.T.);
#640=FACE_BOUND('',#594,.T.);
#641=FACE_BOUND('',#595,.T.);
#642=FACE_BOUND('',#596,.T.);
#643=FACE_BOUND('',#597,.T.);
#644=FACE_BOUND('',#598,.T.);
#645=FACE_BOUND('',#599,.T.);
#646=FACE_BOUND('',#600,.T.);
#647=FACE_BOUND('',#601,.T.);
#648=FACE_BOUND('',#602,.T.);
#649=FACE_BOUND('',#603,.T.);
#650=FACE_BOUND('',#604,.T.);
#651=FACE_BOUND('',#605,.T.);
#652=FACE_BOUND('',#606,.T.);
#653=FACE_BOUND('',#607,.T.);
#654=FACE_BOUND('',#608,.T.);
#655=PLANE('',#733);
#656=PLANE('',#734);
#657=PLANE('',#735);
#658=PLANE('',#736);
#659=PLANE('',#737);
#660=PLANE('',#738);
#661=PLANE('',#739);
#662=PLANE('',#740);
#663=PLANE('',#741);
#664=PLANE('',#742);
#665=PLANE('',#743);
#666=PLANE('',#744);
#667=PLANE('',#745);
#668=PLANE('',#746);
#669=PLANE('',#747);
#670=PLANE('',#748);
#671=PLANE('',#749);
#672=PLANE('',#750);
#673=PLANE('',#751);
#674=PLANE('',#752);
#675=PLANE('',#753);
#676=PLANE('',#759);
#677=PLANE('',#770);
#678=PLANE('',#771);
#679=PLANE('',#772);
#680=PLANE('',#773);
#681=PLANE('',#774);
#682=PLANE('',#775);
#683=PLANE('',#776);
#684=PLANE('',#777);
#685=ADVANCED_FACE('',(#609),#655,.F.);
#686=ADVANCED_FACE('',(#610),#656,.F.);
#687=ADVANCED_FACE('',(#611),#657,.F.);
#688=ADVANCED_FACE('',(#612),#658,.F.);
#689=ADVANCED_FACE('',(#613),#659,.F.);
#690=ADVANCED_FACE('',(#614),#660,.F.);
#691=ADVANCED_FACE('',(#615),#661,.F.);
#692=ADVANCED_FACE('',(#616),#662,.F.);
#693=ADVANCED_FACE('',(#617),#663,.F.);
#694=ADVANCED_FACE('',(#618),#664,.F.);
#695=ADVANCED_FACE('',(#619),#665,.F.);
#696=ADVANCED_FACE('',(#620),#666,.T.);
#697=ADVANCED_FACE('',(#621),#667,.T.);
#698=ADVANCED_FACE('',(#622),#668,.T.);
#699=ADVANCED_FACE('',(#623),#669,.T.);
#700=ADVANCED_FACE('',(#624),#670,.T.);
#701=ADVANCED_FACE('',(#625),#671,.T.);
#702=ADVANCED_FACE('',(#626),#672,.T.);
#703=ADVANCED_FACE('',(#627),#673,.T.);
#704=ADVANCED_FACE('',(#628),#674,.F.);
#705=ADVANCED_FACE('',(#629,#630,#631,#632,#633,#634),#675,.T.);
#706=ADVANCED_FACE('',(#635,#636,#637,#638,#639,#640),#676,.F.);
#707=ADVANCED_FACE('',(#641),#12,.T.);
#708=ADVANCED_FACE('',(#642),#13,.T.);
#709=ADVANCED_FACE('',(#643),#14,.T.);
#710=ADVANCED_FACE('',(#644),#15,.T.);
#711=ADVANCED_FACE('',(#645,#646),#16,.F.);
#712=ADVANCED_FACE('',(#647),#677,.T.);
#713=ADVANCED_FACE('',(#648),#678,.F.);
#714=ADVANCED_FACE('',(#649),#679,.T.);
#715=ADVANCED_FACE('',(#650),#680,.F.);
#716=ADVANCED_FACE('',(#651),#681,.T.);
#717=ADVANCED_FACE('',(#652),#682,.F.);
#718=ADVANCED_FACE('',(#653),#683,.T.);
#719=ADVANCED_FACE('',(#654),#684,.F.);
#720=CLOSED_SHELL('',(#685,#686,#687,#688,#689,#690,#691,#692,#693,#694,
#695,#696,#697,#698,#699,#700,#701,#702,#703,#704,#705,#706,#707,#708,#709,
#710,#711,#712,#713,#714,#715,#716,#717,#718,#719));
#721=STYLED_ITEM('',(#722),#729);
#722=PRESENTATION_STYLE_ASSIGNMENT((#723));
#723=SURFACE_STYLE_USAGE(.BOTH.,#724);
#724=SURFACE_SIDE_STYLE('',(#725));
#725=SURFACE_STYLE_FILL_AREA(#726);
#726=FILL_AREA_STYLE('',(#727));
#727=FILL_AREA_STYLE_COLOUR('',#728);
#728=COLOUR_RGB('',0.615686274509804,0.811764705882353,0.929411764705882);
#729=MANIFOLD_SOLID_BREP('Part 1',#720);
#730=SHAPE_DEFINITION_REPRESENTATION(#1164,#731);
#731=SHAPE_REPRESENTATION('Part 1',(#732),#1159);
#732=AXIS2_PLACEMENT_3D('',#958,#778,#779);
#733=AXIS2_PLACEMENT_3D('',#959,#780,#781);
#734=AXIS2_PLACEMENT_3D('',#968,#786,#787);
#735=AXIS2_PLACEMENT_3D('',#977,#792,#793);
#736=AXIS2_PLACEMENT_3D('',#986,#798,#799);
#737=AXIS2_PLACEMENT_3D('',#995,#804,#805);
#738=AXIS2_PLACEMENT_3D('',#1001,#809,#810);
#739=AXIS2_PLACEMENT_3D('',#1010,#815,#816);
#740=AXIS2_PLACEMENT_3D('',#1013,#819,#820);
#741=AXIS2_PLACEMENT_3D('',#1022,#825,#826);
#742=AXIS2_PLACEMENT_3D('',#1025,#829,#830);
#743=AXIS2_PLACEMENT_3D('',#1034,#835,#836);
#744=AXIS2_PLACEMENT_3D('',#1037,#839,#840);
#745=AXIS2_PLACEMENT_3D('',#1046,#845,#846);
#746=AXIS2_PLACEMENT_3D('',#1052,#850,#851);
#747=AXIS2_PLACEMENT_3D('',#1058,#855,#856);
#748=AXIS2_PLACEMENT_3D('',#1064,#860,#861);
#749=AXIS2_PLACEMENT_3D('',#1070,#865,#866);
#750=AXIS2_PLACEMENT_3D('',#1076,#870,#871);
#751=AXIS2_PLACEMENT_3D('',#1082,#875,#876);
#752=AXIS2_PLACEMENT_3D('',#1085,#879,#880);
#753=AXIS2_PLACEMENT_3D('',#1091,#884,#885);
#754=AXIS2_PLACEMENT_3D('',#1096,#888,#889);
#755=AXIS2_PLACEMENT_3D('',#1101,#892,#893);
#756=AXIS2_PLACEMENT_3D('',#1106,#896,#897);
#757=AXIS2_PLACEMENT_3D('',#1109,#899,#900);
#758=AXIS2_PLACEMENT_3D('',#1112,#902,#903);
#759=AXIS2_PLACEMENT_3D('',#1114,#904,#905);
#760=AXIS2_PLACEMENT_3D('',#1117,#907,#908);
#761=AXIS2_PLACEMENT_3D('',#1122,#911,#912);
#762=AXIS2_PLACEMENT_3D('',#1127,#915,#916);
#763=AXIS2_PLACEMENT_3D('',#1132,#919,#920);
#764=AXIS2_PLACEMENT_3D('',#1135,#922,#923);
#765=AXIS2_PLACEMENT_3D('',#1137,#924,#925);
#766=AXIS2_PLACEMENT_3D('',#1140,#928,#929);
#767=AXIS2_PLACEMENT_3D('',#1143,#932,#933);
#768=AXIS2_PLACEMENT_3D('',#1146,#936,#937);
#769=AXIS2_PLACEMENT_3D('',#1149,#940,#941);
#770=AXIS2_PLACEMENT_3D('',#1150,#942,#943);
#771=AXIS2_PLACEMENT_3D('',#1151,#944,#945);
#772=AXIS2_PLACEMENT_3D('',#1152,#946,#947);
#773=AXIS2_PLACEMENT_3D('',#1153,#948,#949);
#774=AXIS2_PLACEMENT_3D('',#1154,#950,#951);
#775=AXIS2_PLACEMENT_3D('',#1155,#952,#953);
#776=AXIS2_PLACEMENT_3D('',#1156,#954,#955);
#777=AXIS2_PLACEMENT_3D('',#1157,#956,#957);
#778=DIRECTION('',(0.,0.,1.));
#779=DIRECTION('',(1.,0.,0.));
#780=DIRECTION('',(-2.92697999321171E-16,1.,0.));
#781=DIRECTION('',(-1.,-2.92697999321171E-16,0.));
#782=DIRECTION('',(0.,0.,-1.));
#783=DIRECTION('',(1.,2.92697999321171E-16,0.));
#784=DIRECTION('',(0.,0.,-1.));
#785=DIRECTION('',(1.,2.92697999321171E-16,0.));
#786=DIRECTION('',(1.,9.75659997737237E-17,0.));
#787=DIRECTION('',(-9.75659997737237E-17,1.,0.));
#788=DIRECTION('',(0.,0.,-1.));
#789=DIRECTION('',(9.75659997737237E-17,-1.,0.));
#790=DIRECTION('',(0.,0.,-1.));
#791=DIRECTION('',(9.75659997737237E-17,-1.,0.));
#792=DIRECTION('',(9.75659997737237E-17,-1.,0.));
#793=DIRECTION('',(1.,9.75659997737237E-17,0.));
#794=DIRECTION('',(0.,0.,-1.));
#795=DIRECTION('',(-1.,-9.75659997737237E-17,0.));
#796=DIRECTION('',(0.,0.,-1.));
#797=DIRECTION('',(-1.,-9.75659997737237E-17,0.));
#798=DIRECTION('',(-1.,0.,0.));
#799=DIRECTION('',(0.,0.,1.));
#800=DIRECTION('',(0.,0.,-1.));
#801=DIRECTION('',(0.,1.,0.));
#802=DIRECTION('',(0.,0.,-1.));
#803=DIRECTION('',(0.,1.,0.));
#804=DIRECTION('',(-0.707106781186547,0.707106781186548,0.));
#805=DIRECTION('',(-0.707106781186548,-0.707106781186547,0.));
#806=DIRECTION('',(0.707106781186548,0.707106781186547,0.));
#807=DIRECTION('',(0.707106781186548,0.707106781186547,0.));
#808=DIRECTION('',(0.,0.,-1.));
#809=DIRECTION('',(-2.92697999321171E-16,1.,0.));
#810=DIRECTION('',(-1.,-2.92697999321171E-16,0.));
#811=DIRECTION('',(1.,2.92697999321171E-16,0.));
#812=DIRECTION('',(0.,0.,-1.));
#813=DIRECTION('',(1.,2.92697999321171E-16,0.));
#814=DIRECTION('',(0.,0.,-1.));
#815=DIRECTION('',(0.707106781186547,0.707106781186548,0.));
#816=DIRECTION('',(-0.707106781186548,0.707106781186547,0.));
#817=DIRECTION('',(0.707106781186548,-0.707106781186547,0.));
#818=DIRECTION('',(0.707106781186548,-0.707106781186547,0.));
#819=DIRECTION('',(1.,9.75659997737237E-17,0.));
#820=DIRECTION('',(-9.75659997737237E-17,1.,0.));
#821=DIRECTION('',(9.75659997737237E-17,-1.,0.));
#822=DIRECTION('',(0.,0.,-1.));
#823=DIRECTION('',(9.75659997737237E-17,-1.,0.));
#824=DIRECTION('',(0.,0.,-1.));
#825=DIRECTION('',(0.707106781186548,-0.707106781186548,0.));
#826=DIRECTION('',(0.707106781186548,0.707106781186548,0.));
#827=DIRECTION('',(-0.707106781186548,-0.707106781186548,0.));
#828=DIRECTION('',(-0.707106781186548,-0.707106781186548,0.));
#829=DIRECTION('',(9.75659997737237E-17,-1.,0.));
#830=DIRECTION('',(1.,9.75659997737237E-17,0.));
#831=DIRECTION('',(-1.,-9.75659997737237E-17,0.));
#832=DIRECTION('',(0.,0.,-1.));
#833=DIRECTION('',(-1.,-9.75659997737237E-17,0.));
#834=DIRECTION('',(0.,0.,-1.));
#835=DIRECTION('',(-0.707106781186547,-0.707106781186548,0.));
#836=DIRECTION('',(0.707106781186548,-0.707106781186547,0.));
#837=DIRECTION('',(-0.707106781186548,0.707106781186547,0.));
#838=DIRECTION('',(-0.707106781186548,0.707106781186547,0.));
#839=DIRECTION('',(1.,0.,0.));
#840=DIRECTION('',(0.,0.,-1.));
#841=DIRECTION('',(0.,-1.,0.));
#842=DIRECTION('',(0.,0.,-1.));
#843=DIRECTION('',(0.,-1.,0.));
#844=DIRECTION('',(0.,0.,-1.));
#845=DIRECTION('',(0.707106781186548,0.707106781186547,0.));
#846=DIRECTION('',(-0.707106781186547,0.707106781186548,0.));
#847=DIRECTION('',(0.707106781186547,-0.707106781186548,0.));
#848=DIRECTION('',(0.,0.,-1.));
#849=DIRECTION('',(0.707106781186547,-0.707106781186548,0.));
#850=DIRECTION('',(0.,1.,0.));
#851=DIRECTION('',(0.,0.,1.));
#852=DIRECTION('',(1.,0.,0.));
#853=DIRECTION('',(0.,0.,-1.));
#854=DIRECTION('',(1.,0.,0.));
#855=DIRECTION('',(-0.707106781186547,0.707106781186548,0.));
#856=DIRECTION('',(-0.707106781186548,-0.707106781186547,0.));
#857=DIRECTION('',(0.707106781186548,0.707106781186547,0.));
#858=DIRECTION('',(0.,0.,-1.));
#859=DIRECTION('',(0.707106781186548,0.707106781186547,0.));
#860=DIRECTION('',(-1.,0.,0.));
#861=DIRECTION('',(0.,0.,1.));
#862=DIRECTION('',(0.,1.,0.));
#863=DIRECTION('',(0.,0.,-1.));
#864=DIRECTION('',(0.,1.,0.));
#865=DIRECTION('',(-0.707106781186548,-0.707106781186547,0.));
#866=DIRECTION('',(0.707106781186547,-0.707106781186548,0.));
#867=DIRECTION('',(-0.707106781186547,0.707106781186548,0.));
#868=DIRECTION('',(0.,0.,-1.));
#869=DIRECTION('',(-0.707106781186547,0.707106781186548,0.));
#870=DIRECTION('',(0.,-1.,0.));
#871=DIRECTION('',(0.,0.,-1.));
#872=DIRECTION('',(-1.,0.,0.));
#873=DIRECTION('',(0.,0.,-1.));
#874=DIRECTION('',(-1.,0.,0.));
#875=DIRECTION('',(0.707106781186548,-0.707106781186548,0.));
#876=DIRECTION('',(0.707106781186548,0.707106781186548,0.));
#877=DIRECTION('',(-0.707106781186548,-0.707106781186548,0.));
#878=DIRECTION('',(-0.707106781186548,-0.707106781186548,0.));
#879=DIRECTION('',(-1.,0.,0.));
#880=DIRECTION('',(0.,0.,1.));
#881=DIRECTION('',(0.,1.,0.));
#882=DIRECTION('',(0.,0.,-1.));
#883=DIRECTION('',(0.,1.,0.));
#884=DIRECTION('',(0.,0.,1.));
#885=DIRECTION('',(1.,0.,0.));
#886=DIRECTION('',(0.,1.,0.));
#887=DIRECTION('',(1.,6.12323399573677E-17,0.));
#888=DIRECTION('',(0.,0.,1.));
#889=DIRECTION('',(1.,0.,0.));
#890=DIRECTION('',(1.,6.12323399573677E-17,0.));
#891=DIRECTION('',(1.22464679914735E-16,-1.,0.));
#892=DIRECTION('',(0.,0.,1.));
#893=DIRECTION('',(1.,0.,0.));
#894=DIRECTION('',(1.22464679914735E-16,-1.,0.));
#895=DIRECTION('',(-1.,-1.83697019872103E-16,0.));
#896=DIRECTION('',(0.,0.,1.));
#897=DIRECTION('',(1.,0.,0.));
#898=DIRECTION('',(0.,1.,0.));
#899=DIRECTION('',(0.,0.,1.));
#900=DIRECTION('',(1.,0.,0.));
#901=DIRECTION('',(-1.,-1.83697019872103E-16,0.));
#902=DIRECTION('',(0.,0.,1.));
#903=DIRECTION('',(1.,0.,0.));
#904=DIRECTION('',(0.,0.,1.));
#905=DIRECTION('',(1.,0.,0.));
#906=DIRECTION('',(0.,1.,0.));
#907=DIRECTION('',(0.,0.,1.));
#908=DIRECTION('',(1.,0.,0.));
#909=DIRECTION('',(1.,6.12323399573677E-17,0.));
#910=DIRECTION('',(1.,6.12323399573677E-17,0.));
#911=DIRECTION('',(0.,0.,1.));
#912=DIRECTION('',(1.,0.,0.));
#913=DIRECTION('',(1.22464679914735E-16,-1.,0.));
#914=DIRECTION('',(1.22464679914735E-16,-1.,0.));
#915=DIRECTION('',(0.,0.,1.));
#916=DIRECTION('',(1.,0.,0.));
#917=DIRECTION('',(-1.,-1.83697019872103E-16,0.));
#918=DIRECTION('',(-1.,-1.83697019872103E-16,0.));
#919=DIRECTION('',(0.,0.,1.));
#920=DIRECTION('',(1.,0.,0.));
#921=DIRECTION('',(0.,1.,0.));
#922=DIRECTION('',(0.,0.,1.));
#923=DIRECTION('',(1.,0.,0.));
#924=DIRECTION('',(0.,0.,-1.));
#925=DIRECTION('',(-1.,0.,0.));
#926=DIRECTION('',(0.,0.,-1.));
#927=DIRECTION('',(0.,0.,-1.));
#928=DIRECTION('',(0.,0.,-1.));
#929=DIRECTION('',(-1.,0.,0.));
#930=DIRECTION('',(0.,0.,-1.));
#931=DIRECTION('',(0.,0.,-1.));
#932=DIRECTION('',(0.,0.,-1.));
#933=DIRECTION('',(-1.,0.,0.));
#934=DIRECTION('',(0.,0.,-1.));
#935=DIRECTION('',(0.,0.,-1.));
#936=DIRECTION('',(0.,0.,-1.));
#937=DIRECTION('',(-1.,0.,0.));
#938=DIRECTION('',(0.,0.,-1.));
#939=DIRECTION('',(0.,0.,-1.));
#940=DIRECTION('',(0.,0.,-1.));
#941=DIRECTION('',(-1.,0.,0.));
#942=DIRECTION('',(1.83697019872103E-16,-1.,0.));
#943=DIRECTION('',(0.,0.,1.));
#944=DIRECTION('',(1.83697019872103E-16,-1.,0.));
#945=DIRECTION('',(0.,0.,1.));
#946=DIRECTION('',(1.,1.22464679914735E-16,0.));
#947=DIRECTION('',(0.,0.,1.));
#948=DIRECTION('',(1.,1.22464679914735E-16,0.));
#949=DIRECTION('',(0.,0.,1.));
#950=DIRECTION('',(-6.12323399573677E-17,1.,0.));
#951=DIRECTION('',(0.,0.,1.));
#952=DIRECTION('',(-6.12323399573677E-17,1.,0.));
#953=DIRECTION('',(0.,0.,1.));
#954=DIRECTION('',(-1.,0.,0.));
#955=DIRECTION('',(0.,0.,1.));
#956=DIRECTION('',(-1.,0.,0.));
#957=DIRECTION('',(0.,0.,1.));
#958=CARTESIAN_POINT('',(0.,0.,0.));
#959=CARTESIAN_POINT('',(-5.55111512312578E-17,0.12192,0.0635));
#960=CARTESIAN_POINT('',(-0.00254,0.12192,0.0635));
#961=CARTESIAN_POINT('',(-0.00254,0.12192,0.0635));
#962=CARTESIAN_POINT('',(-0.00254,0.12192,0.));
#963=CARTESIAN_POINT('',(-5.55111512312578E-17,0.12192,0.0635));
#964=CARTESIAN_POINT('',(-0.07112,0.12192,0.0635));
#965=CARTESIAN_POINT('',(-0.07112,0.12192,0.0635));
#966=CARTESIAN_POINT('',(-0.07112,0.12192,0.));
#967=CARTESIAN_POINT('',(-5.55111512312578E-17,0.12192,0.));
#968=CARTESIAN_POINT('',(0.12192,9.71445146547012E-17,0.0635));
#969=CARTESIAN_POINT('',(0.12192,0.00254,0.0635));
#970=CARTESIAN_POINT('',(0.12192,0.00254,0.0635));
#971=CARTESIAN_POINT('',(0.12192,0.00254,0.));
#972=CARTESIAN_POINT('',(0.12192,9.71445146547012E-17,0.0635));
#973=CARTESIAN_POINT('',(0.12192,0.07112,0.0635));
#974=CARTESIAN_POINT('',(0.12192,0.07112,0.0635));
#975=CARTESIAN_POINT('',(0.12192,0.07112,0.));
#976=CARTESIAN_POINT('',(0.12192,9.71445146547012E-17,0.));
#977=CARTESIAN_POINT('',(-5.55111512312578E-17,-0.12192,0.0635));
#978=CARTESIAN_POINT('',(0.00254,-0.12192,0.0635));
#979=CARTESIAN_POINT('',(0.00254,-0.12192,0.0635));
#980=CARTESIAN_POINT('',(0.00254,-0.12192,0.));
#981=CARTESIAN_POINT('',(-5.55111512312578E-17,-0.12192,0.0635));
#982=CARTESIAN_POINT('',(0.07112,-0.12192,0.0635));
#983=CARTESIAN_POINT('',(0.07112,-0.12192,0.0635));
#984=CARTESIAN_POINT('',(0.07112,-0.12192,0.));
#985=CARTESIAN_POINT('',(-5.55111512312578E-17,-0.12192,0.));
#986=CARTESIAN_POINT('',(-0.12192,6.93889390390723E-17,0.0635));
#987=CARTESIAN_POINT('',(-0.12192,-0.00254,0.0635));
#988=CARTESIAN_POINT('',(-0.12192,-0.00254,0.0635));
#989=CARTESIAN_POINT('',(-0.12192,-0.00254,0.));
#990=CARTESIAN_POINT('',(-0.12192,6.93889390390723E-17,0.0635));
#991=CARTESIAN_POINT('',(-0.12192,-0.07112,0.0635));
#992=CARTESIAN_POINT('',(-0.12192,-0.07112,0.0635));
#993=CARTESIAN_POINT('',(-0.12192,-0.07112,0.));
#994=CARTESIAN_POINT('',(-0.12192,6.93889390390723E-17,0.));
#995=CARTESIAN_POINT('',(-0.09652,0.09652,0.0635));
#996=CARTESIAN_POINT('',(-0.09652,0.09652,0.));
#997=CARTESIAN_POINT('',(-0.12192,0.07112,0.));
#998=CARTESIAN_POINT('',(-0.09652,0.09652,0.0635));
#999=CARTESIAN_POINT('',(-0.12192,0.07112,0.0635));
#1000=CARTESIAN_POINT('',(-0.12192,0.07112,0.0635));
#1001=CARTESIAN_POINT('',(-5.55111512312578E-17,0.12192,0.0635));
#1002=CARTESIAN_POINT('',(-5.55111512312578E-17,0.12192,0.0635));
#1003=CARTESIAN_POINT('',(0.00254,0.12192,0.0635));
#1004=CARTESIAN_POINT('',(0.07112,0.12192,0.0635));
#1005=CARTESIAN_POINT('',(0.00254,0.12192,0.0635));
#1006=CARTESIAN_POINT('',(0.00254,0.12192,0.));
#1007=CARTESIAN_POINT('',(-5.55111512312578E-17,0.12192,0.));
#1008=CARTESIAN_POINT('',(0.07112,0.12192,0.));
#1009=CARTESIAN_POINT('',(0.07112,0.12192,0.0635));
#1010=CARTESIAN_POINT('',(0.09652,0.09652,0.0635));
#1011=CARTESIAN_POINT('',(0.09652,0.09652,0.));
#1012=CARTESIAN_POINT('',(0.09652,0.09652,0.0635));
#1013=CARTESIAN_POINT('',(0.12192,9.71445146547012E-17,0.0635));
#1014=CARTESIAN_POINT('',(0.12192,9.71445146547012E-17,0.0635));
#1015=CARTESIAN_POINT('',(0.12192,-0.00254,0.0635));
#1016=CARTESIAN_POINT('',(0.12192,-0.07112,0.0635));
#1017=CARTESIAN_POINT('',(0.12192,-0.00254,0.0635));
#1018=CARTESIAN_POINT('',(0.12192,-0.00254,0.));
#1019=CARTESIAN_POINT('',(0.12192,9.71445146547012E-17,0.));
#1020=CARTESIAN_POINT('',(0.12192,-0.07112,0.));
#1021=CARTESIAN_POINT('',(0.12192,-0.07112,0.0635));
#1022=CARTESIAN_POINT('',(0.09652,-0.09652,0.0635));
#1023=CARTESIAN_POINT('',(0.09652,-0.09652,0.));
#1024=CARTESIAN_POINT('',(0.09652,-0.09652,0.0635));
#1025=CARTESIAN_POINT('',(-5.55111512312578E-17,-0.12192,0.0635));
#1026=CARTESIAN_POINT('',(-5.55111512312578E-17,-0.12192,0.0635));
#1027=CARTESIAN_POINT('',(-0.00254,-0.12192,0.0635));
#1028=CARTESIAN_POINT('',(-0.07112,-0.12192,0.0635));
#1029=CARTESIAN_POINT('',(-0.00254,-0.12192,0.0635));
#1030=CARTESIAN_POINT('',(-0.00254,-0.12192,0.));
#1031=CARTESIAN_POINT('',(-5.55111512312578E-17,-0.12192,0.));
#1032=CARTESIAN_POINT('',(-0.07112,-0.12192,0.));
#1033=CARTESIAN_POINT('',(-0.07112,-0.12192,0.0635));
#1034=CARTESIAN_POINT('',(-0.09652,-0.09652,0.0635));
#1035=CARTESIAN_POINT('',(-0.09652,-0.09652,0.));
#1036=CARTESIAN_POINT('',(-0.09652,-0.09652,0.0635));
#1037=CARTESIAN_POINT('',(0.127,0.0397812692585573,0.0635));
#1038=CARTESIAN_POINT('',(0.127,0.0397812692585573,0.));
#1039=CARTESIAN_POINT('',(0.127,0.0762,0.));
#1040=CARTESIAN_POINT('',(0.127,-0.0762,0.));
#1041=CARTESIAN_POINT('',(0.127,0.0762,0.0635));
#1042=CARTESIAN_POINT('',(0.127,0.0762,0.0635));
#1043=CARTESIAN_POINT('',(0.127,0.0397812692585573,0.0635));
#1044=CARTESIAN_POINT('',(0.127,-0.0762,0.0635));
#1045=CARTESIAN_POINT('',(0.127,-0.0762,0.0635));
#1046=CARTESIAN_POINT('',(0.1016,0.1016,0.0635));
#1047=CARTESIAN_POINT('',(0.1016,0.1016,0.));
#1048=CARTESIAN_POINT('',(0.0762,0.127,0.));
#1049=CARTESIAN_POINT('',(0.0762,0.127,0.0635));
#1050=CARTESIAN_POINT('',(0.0762,0.127,0.0635));
#1051=CARTESIAN_POINT('',(0.1016,0.1016,0.0635));
#1052=CARTESIAN_POINT('',(0.0387409405004977,0.127,0.0635));
#1053=CARTESIAN_POINT('',(0.0387409405004977,0.127,0.));
#1054=CARTESIAN_POINT('',(-0.0762,0.127,0.));
#1055=CARTESIAN_POINT('',(-0.0762,0.127,0.0635));
#1056=CARTESIAN_POINT('',(-0.0762,0.127,0.0635));
#1057=CARTESIAN_POINT('',(0.0387409405004977,0.127,0.0635));
#1058=CARTESIAN_POINT('',(-0.1016,0.1016,0.0635));
#1059=CARTESIAN_POINT('',(-0.1016,0.1016,0.));
#1060=CARTESIAN_POINT('',(-0.127,0.0762,0.));
#1061=CARTESIAN_POINT('',(-0.127,0.0762,0.0635));
#1062=CARTESIAN_POINT('',(-0.127,0.0762,0.0635));
#1063=CARTESIAN_POINT('',(-0.1016,0.1016,0.0635));
#1064=CARTESIAN_POINT('',(-0.127,0.03937,0.0635));
#1065=CARTESIAN_POINT('',(-0.127,0.03937,0.));
#1066=CARTESIAN_POINT('',(-0.127,-0.0762,0.));
#1067=CARTESIAN_POINT('',(-0.127,-0.0762,0.0635));
#1068=CARTESIAN_POINT('',(-0.127,-0.0762,0.0635));
#1069=CARTESIAN_POINT('',(-0.127,0.03937,0.0635));
#1070=CARTESIAN_POINT('',(-0.1016,-0.1016,0.0635));
#1071=CARTESIAN_POINT('',(-0.1016,-0.1016,0.));
#1072=CARTESIAN_POINT('',(-0.0762,-0.127,0.));
#1073=CARTESIAN_POINT('',(-0.0762,-0.127,0.0635));
#1074=CARTESIAN_POINT('',(-0.0762,-0.127,0.0635));
#1075=CARTESIAN_POINT('',(-0.1016,-0.1016,0.0635));
#1076=CARTESIAN_POINT('',(-0.0321668080103397,-0.127,0.0635));
#1077=CARTESIAN_POINT('',(-0.0321668080103397,-0.127,0.));
#1078=CARTESIAN_POINT('',(0.0762,-0.127,0.));
#1079=CARTESIAN_POINT('',(0.0762,-0.127,0.0635));
#1080=CARTESIAN_POINT('',(0.0762,-0.127,0.0635));
#1081=CARTESIAN_POINT('',(-0.0321668080103397,-0.127,0.0635));
#1082=CARTESIAN_POINT('',(0.1016,-0.1016,0.0635));
#1083=CARTESIAN_POINT('',(0.1016,-0.1016,0.));
#1084=CARTESIAN_POINT('',(0.1016,-0.1016,0.0635));
#1085=CARTESIAN_POINT('',(-0.12192,6.93889390390723E-17,0.0635));
#1086=CARTESIAN_POINT('',(-0.12192,6.93889390390723E-17,0.0635));
#1087=CARTESIAN_POINT('',(-0.12192,0.00254,0.0635));
#1088=CARTESIAN_POINT('',(-0.12192,0.00254,0.0635));
#1089=CARTESIAN_POINT('',(-0.12192,0.00254,0.));
#1090=CARTESIAN_POINT('',(-0.12192,6.93889390390723E-17,0.));
#1091=CARTESIAN_POINT('',(0.,2.77555756156289E-17,0.0635));
#1092=CARTESIAN_POINT('',(0.00254,0.092554917178154,0.0635));
#1093=CARTESIAN_POINT('',(0.00254,0.0634491796637277,0.0635));
#1094=CARTESIAN_POINT('',(0.092554917178154,0.00254,0.0635));
#1095=CARTESIAN_POINT('',(0.0634491796637278,0.00254,0.0635));
#1096=CARTESIAN_POINT('',(2.55871712706579E-17,-3.46944695195361E-18,0.0635));
#1097=CARTESIAN_POINT('',(0.092554917178154,-0.00254,0.0635));
#1098=CARTESIAN_POINT('',(0.0634491796637278,-0.00254,0.0635));
#1099=CARTESIAN_POINT('',(0.00254,-0.092554917178154,0.0635));
#1100=CARTESIAN_POINT('',(0.00254,-0.0634491796637277,0.0635));
#1101=CARTESIAN_POINT('',(2.55871712706579E-17,-3.46944695195361E-18,0.0635));
#1102=CARTESIAN_POINT('',(-0.00254,-0.092554917178154,0.0635));
#1103=CARTESIAN_POINT('',(-0.00254,-0.0634491796637277,0.0635));
#1104=CARTESIAN_POINT('',(-0.092554917178154,-0.00254,0.0635));
#1105=CARTESIAN_POINT('',(-0.0634491796637277,-0.00254,0.0635));
#1106=CARTESIAN_POINT('',(2.55871712706579E-17,-3.46944695195361E-18,0.0635));
#1107=CARTESIAN_POINT('',(-0.00254,0.092554917178154,0.0635));
#1108=CARTESIAN_POINT('',(-0.00254,0.0634491796637277,0.0635));
#1109=CARTESIAN_POINT('',(2.55871712706579E-17,-3.46944695195361E-18,0.0635));
#1110=CARTESIAN_POINT('',(-0.0634491796637277,0.00254,0.0635));
#1111=CARTESIAN_POINT('',(-0.092554917178154,0.00254,0.0635));
#1112=CARTESIAN_POINT('',(0.,-0.000940656987950202,0.0635));
#1113=CARTESIAN_POINT('',(0.057785,-0.000940656987950202,0.0635));
#1114=CARTESIAN_POINT('',(0.,2.77555756156289E-17,0.));
#1115=CARTESIAN_POINT('',(0.00254,0.092554917178154,0.));
#1116=CARTESIAN_POINT('',(0.00254,0.0634491796637277,0.));
#1117=CARTESIAN_POINT('',(2.55871712706579E-17,-3.46944695195361E-18,0.));
#1118=CARTESIAN_POINT('',(0.0634491796637278,0.00254,0.));
#1119=CARTESIAN_POINT('',(0.092554917178154,0.00254,0.));
#1120=CARTESIAN_POINT('',(0.092554917178154,-0.00254,0.));
#1121=CARTESIAN_POINT('',(0.0634491796637278,-0.00254,0.));
#1122=CARTESIAN_POINT('',(2.55871712706579E-17,-3.46944695195361E-18,0.));
#1123=CARTESIAN_POINT('',(0.00254,-0.0634491796637277,0.));
#1124=CARTESIAN_POINT('',(0.00254,-0.092554917178154,0.));
#1125=CARTESIAN_POINT('',(-0.00254,-0.092554917178154,0.));
#1126=CARTESIAN_POINT('',(-0.00254,-0.0634491796637277,0.));
#1127=CARTESIAN_POINT('',(2.55871712706579E-17,-3.46944695195361E-18,0.));
#1128=CARTESIAN_POINT('',(-0.0634491796637277,-0.00254,0.));
#1129=CARTESIAN_POINT('',(-0.092554917178154,-0.00254,0.));
#1130=CARTESIAN_POINT('',(-0.092554917178154,0.00254,0.));
#1131=CARTESIAN_POINT('',(-0.0634491796637277,0.00254,0.));
#1132=CARTESIAN_POINT('',(2.55871712706579E-17,-3.46944695195361E-18,0.));
#1133=CARTESIAN_POINT('',(-0.00254,0.0634491796637277,0.));
#1134=CARTESIAN_POINT('',(-0.00254,0.092554917178154,0.));
#1135=CARTESIAN_POINT('',(0.,-0.000940656987950202,0.));
#1136=CARTESIAN_POINT('',(0.057785,-0.000940656987950202,0.));
#1137=CARTESIAN_POINT('',(2.55871712706579E-17,-3.46944695195361E-18,0.0635));
#1138=CARTESIAN_POINT('',(0.0634491796637278,-0.00254,0.0635));
#1139=CARTESIAN_POINT('',(0.00254,-0.0634491796637277,0.0635));
#1140=CARTESIAN_POINT('',(2.55871712706579E-17,-3.46944695195361E-18,0.0635));
#1141=CARTESIAN_POINT('',(-0.00254,-0.0634491796637277,0.0635));
#1142=CARTESIAN_POINT('',(-0.0634491796637277,-0.00254,0.0635));
#1143=CARTESIAN_POINT('',(2.55871712706579E-17,-3.46944695195361E-18,0.0635));
#1144=CARTESIAN_POINT('',(-0.0634491796637277,0.00254,0.0635));
#1145=CARTESIAN_POINT('',(-0.00254,0.0634491796637277,0.0635));
#1146=CARTESIAN_POINT('',(2.55871712706579E-17,-3.46944695195361E-18,0.0635));
#1147=CARTESIAN_POINT('',(0.0634491796637278,0.00254,0.0635));
#1148=CARTESIAN_POINT('',(0.00254,0.0634491796637277,0.0635));
#1149=CARTESIAN_POINT('',(0.,-0.000940656987950202,0.0635));
#1150=CARTESIAN_POINT('',(-0.092554917178154,-0.00254,0.0635));
#1151=CARTESIAN_POINT('',(-0.092554917178154,0.00254,0.0635));
#1152=CARTESIAN_POINT('',(0.00254,-0.092554917178154,0.0635));
#1153=CARTESIAN_POINT('',(-0.00254,-0.092554917178154,0.0635));
#1154=CARTESIAN_POINT('',(0.092554917178154,0.00254,0.0635));
#1155=CARTESIAN_POINT('',(0.092554917178154,-0.00254,0.0635));
#1156=CARTESIAN_POINT('',(-0.00254,0.092554917178154,0.0635));
#1157=CARTESIAN_POINT('',(0.00254,0.092554917178154,0.0635));
#1158=MECHANICAL_DESIGN_GEOMETRIC_PRESENTATION_REPRESENTATION('',(#721),
#1159);
#1159=(
GEOMETRIC_REPRESENTATION_CONTEXT(3)
GLOBAL_UNCERTAINTY_ASSIGNED_CONTEXT((#1160))
GLOBAL_UNIT_ASSIGNED_CONTEXT((#1163,#1162,#1161))
REPRESENTATION_CONTEXT('Part 1','TOP_LEVEL_ASSEMBLY_PART')
);
#1160=UNCERTAINTY_MEASURE_WITH_UNIT(LENGTH_MEASURE(1.E-8),#1163,
'DISTANCE_ACCURACY_VALUE','Maximum Tolerance applied to model');
#1161=(
NAMED_UNIT(*)
SI_UNIT($,.STERADIAN.)
SOLID_ANGLE_UNIT()
);
#1162=(
NAMED_UNIT(*)
PLANE_ANGLE_UNIT()
SI_UNIT($,.RADIAN.)
);
#1163=(
LENGTH_UNIT()
NAMED_UNIT(*)
SI_UNIT($,.METRE.)
);
#1164=PRODUCT_DEFINITION_SHAPE('','',#1165);
#1165=PRODUCT_DEFINITION('','',#1167,#1166);
#1166=PRODUCT_DEFINITION_CONTEXT('',#1173,'design');
#1167=PRODUCT_DEFINITION_FORMATION_WITH_SPECIFIED_SOURCE('','',#1169,
 .NOT_KNOWN.);
#1168=PRODUCT_RELATED_PRODUCT_CATEGORY('','',(#1169));
#1169=PRODUCT('Part 1','Part 1','Part 1',(#1171));
#1170=PRODUCT_CATEGORY('','');
#1171=PRODUCT_CONTEXT('',#1173,'mechanical');
#1172=APPLICATION_PROTOCOL_DEFINITION('international standard',
'ap242_managed_model_based_3d_engineering',2020,#1173);
#1173=APPLICATION_CONTEXT('managed model based 3d engineering');
ENDSEC;
END-ISO-10303-21;
