ISO-10303-21;
HEADER;
/* Generated by software containing ST-Developer
 * from STEP Tools, Inc. (www.steptools.com) 
 */
/* OPTION: using custom renumber hook */

FILE_DESCRIPTION(
/* description */ ('STEP AP242 Edition 2',
'CAx-IF Rec.Pracs.---Representation and Presentation of Product Manufa
cturing Information (PMI)---4.0---2014-10-13',
'CAx-IF Rec.Pracs.---3D Tessellated Geometry---0.4---2014-09-14','2;1',
'CAx-IF Rec.Pracs.---User Defined Attributes---1.5---2016-08-15'),
/* implementation_level */ '2;1');

FILE_NAME(
/* name */ 'Snap Top - Part 1',
/* time_stamp */ '2026-08-15T18:27:35Z',
/* author */ (''),
/* organization */ (''),
/* preprocessor_version */ 'ST-DEVELOPER v20',
/* originating_system */ 'ONSHAPE BY PTC INC, 1.219',
/* authorisation */ '  ');

FILE_SCHEMA (('AP242_MANAGED_MODEL_BASED_3D_ENGINEERING_MIM_LF { 1 0 10303 442 3 1 4 }'));
ENDSEC;

DATA;
#10=SHAPE_REPRESENTATION_RELATIONSHIP('','',#551,#11);
#11=ADVANCED_BREP_SHAPE_REPRESENTATION('',(#549),#990);
#12=(
BOUNDED_SURFACE()
B_SPLINE_SURFACE(3,2,((#888,#889,#890),(#891,#892,#893),(#894,#895,#896),
(#897,#898,#899),(#900,#901,#902),(#903,#904,#905),(#906,#907,#908),(#909,
#910,#911),(#912,#913,#914),(#915,#916,#917),(#918,#919,#920),(#921,#922,
#923),(#924,#925,#926),(#927,#928,#929),(#930,#931,#932),(#933,#934,#935),
(#936,#937,#938),(#939,#940,#941),(#942,#943,#944)),.UNSPECIFIED.,.T.,.F.,
 .F.)
B_SPLINE_SURFACE_WITH_KNOTS((1,3,1,1,1,1,1,1,1,1,1,1,1,1,1,1,1,3,1),(3,
3),(-0.392699081698725,0.,0.392699081698724,0.785398163397448,1.17809724509617,
1.5707963267949,1.96349540849362,2.35619449019234,2.74889357189107,3.14159265358979,
3.53429173528852,3.92699081698724,4.31968989868597,4.71238898038469,5.10508806208341,
5.49778714378214,5.89048622548086,6.28318530717959,6.67588438887831),(0.,
1.),.UNSPECIFIED.)
GEOMETRIC_REPRESENTATION_ITEM()
RATIONAL_B_SPLINE_SURFACE(((1.,0.796906088017981,1.),(1.,0.796906088017981,
1.),(1.,0.792512009753343,1.),(1.,0.773424849294772,1.),(1.,0.743912654267969,
1.),(1.,0.707454418491806,1.),(1.,0.668910358884093,1.),(1.,0.634284061459454,
1.),(1.,0.609965866155659,1.),(1.,0.601171880118967,1.),(1.,0.609965866155666,
1.),(1.,0.634284061459451,1.),(1.,0.668910358884098,1.),(1.,0.707454418491805,
1.),(1.,0.743912654267967,1.),(1.,0.773424849294776,1.),(1.,0.792512009753342,
1.),(1.,0.796906088017981,1.),(1.,0.796906088017981,1.)))
REPRESENTATION_ITEM('')
SURFACE()
);
#13=B_SPLINE_CURVE_WITH_KNOTS('',3,(#816,#817,#818,#819,#820,#821),
 .UNSPECIFIED.,.F.,.F.,(4,1,1,4),(0.,0.00248352911501365,0.0049670582300273,
0.00993411646005461),.UNSPECIFIED.);
#14=B_SPLINE_CURVE_WITH_KNOTS('',3,(#825,#826,#827,#828,#829,#830),
 .UNSPECIFIED.,.F.,.F.,(4,1,1,4),(0.,0.00248352621343875,0.00496705242687749,
0.00993410485375499),.UNSPECIFIED.);
#15=B_SPLINE_CURVE_WITH_KNOTS('',3,(#845,#846,#847,#848,#849,#850),
 .UNSPECIFIED.,.F.,.F.,(4,1,1,4),(0.,0.00249072643394421,0.00498145286788843,
0.00996290573577685),.UNSPECIFIED.);
#16=B_SPLINE_CURVE_WITH_KNOTS('',3,(#871,#872,#873,#874,#875,#876),
 .UNSPECIFIED.,.F.,.F.,(4,1,1,4),(0.,0.00249073206832607,0.00498146413665215,
0.00996292827330429),.UNSPECIFIED.);
#17=CYLINDRICAL_SURFACE('',#568,0.12065);
#18=CYLINDRICAL_SURFACE('',#572,0.0700532);
#19=CYLINDRICAL_SURFACE('',#575,0.0127);
#20=CYLINDRICAL_SURFACE('',#580,0.0700532);
#21=CYLINDRICAL_SURFACE('',#588,0.00635);
#22=CYLINDRICAL_SURFACE('',#589,0.00635);
#23=CYLINDRICAL_SURFACE('',#594,0.00635);
#24=CYLINDRICAL_SURFACE('',#595,0.00635);
#25=CYLINDRICAL_SURFACE('',#596,0.00635);
#26=CYLINDRICAL_SURFACE('',#597,0.00635);
#27=CYLINDRICAL_SURFACE('',#604,0.00635);
#28=ELLIPSE('',#559,0.122670006029532,0.11811);
#29=ELLIPSE('',#560,0.122670006029532,0.11811);
#30=ELLIPSE('',#561,0.122670006029532,0.11811);
#31=ELLIPSE('',#562,0.122670006029532,0.11811);
#32=ELLIPSE('',#563,0.013190323228982,0.0127);
#33=ELLIPSE('',#569,0.125117467922291,0.12065);
#34=ELLIPSE('',#603,0.00659516161449099,0.00635);
#35=CIRCLE('',#554,0.00635);
#36=CIRCLE('',#555,0.00635);
#37=CIRCLE('',#556,0.00635);
#38=CIRCLE('',#557,0.00635);
#39=CIRCLE('',#564,0.00635);
#40=CIRCLE('',#565,0.00635);
#41=CIRCLE('',#566,0.00635);
#42=CIRCLE('',#567,0.00635);
#43=CIRCLE('',#570,0.12065);
#44=CIRCLE('',#571,0.12065);
#45=CIRCLE('',#573,0.0700532);
#46=CIRCLE('',#574,0.0700532);
#47=CIRCLE('',#576,0.0127);
#48=CIRCLE('',#577,0.0127);
#49=CIRCLE('',#579,0.0700532);
#50=CIRCLE('',#581,0.0700532);
#51=CIRCLE('',#583,0.00635);
#52=ORIENTED_EDGE('',*,*,#200,.T.);
#53=ORIENTED_EDGE('',*,*,#201,.T.);
#54=ORIENTED_EDGE('',*,*,#202,.F.);
#55=ORIENTED_EDGE('',*,*,#203,.T.);
#56=ORIENTED_EDGE('',*,*,#204,.F.);
#57=ORIENTED_EDGE('',*,*,#205,.T.);
#58=ORIENTED_EDGE('',*,*,#206,.T.);
#59=ORIENTED_EDGE('',*,*,#207,.T.);
#60=ORIENTED_EDGE('',*,*,#208,.F.);
#61=ORIENTED_EDGE('',*,*,#209,.T.);
#62=ORIENTED_EDGE('',*,*,#210,.T.);
#63=ORIENTED_EDGE('',*,*,#211,.F.);
#64=ORIENTED_EDGE('',*,*,#212,.T.);
#65=ORIENTED_EDGE('',*,*,#213,.T.);
#66=ORIENTED_EDGE('',*,*,#214,.T.);
#67=ORIENTED_EDGE('',*,*,#215,.T.);
#68=ORIENTED_EDGE('',*,*,#216,.F.);
#69=ORIENTED_EDGE('',*,*,#217,.T.);
#70=ORIENTED_EDGE('',*,*,#218,.T.);
#71=ORIENTED_EDGE('',*,*,#219,.T.);
#72=ORIENTED_EDGE('',*,*,#220,.T.);
#73=ORIENTED_EDGE('',*,*,#221,.T.);
#74=ORIENTED_EDGE('',*,*,#222,.F.);
#75=ORIENTED_EDGE('',*,*,#223,.T.);
#76=ORIENTED_EDGE('',*,*,#224,.F.);
#77=ORIENTED_EDGE('',*,*,#225,.T.);
#78=ORIENTED_EDGE('',*,*,#226,.F.);
#79=ORIENTED_EDGE('',*,*,#227,.T.);
#80=ORIENTED_EDGE('',*,*,#228,.F.);
#81=ORIENTED_EDGE('',*,*,#229,.T.);
#82=ORIENTED_EDGE('',*,*,#230,.T.);
#83=ORIENTED_EDGE('',*,*,#231,.T.);
#84=ORIENTED_EDGE('',*,*,#232,.F.);
#85=ORIENTED_EDGE('',*,*,#233,.T.);
#86=ORIENTED_EDGE('',*,*,#234,.F.);
#87=ORIENTED_EDGE('',*,*,#235,.F.);
#88=ORIENTED_EDGE('',*,*,#236,.T.);
#89=ORIENTED_EDGE('',*,*,#216,.T.);
#90=ORIENTED_EDGE('',*,*,#237,.T.);
#91=ORIENTED_EDGE('',*,*,#238,.T.);
#92=ORIENTED_EDGE('',*,*,#239,.F.);
#93=ORIENTED_EDGE('',*,*,#240,.F.);
#94=ORIENTED_EDGE('',*,*,#239,.T.);
#95=ORIENTED_EDGE('',*,*,#241,.T.);
#96=ORIENTED_EDGE('',*,*,#233,.F.);
#97=ORIENTED_EDGE('',*,*,#242,.T.);
#98=ORIENTED_EDGE('',*,*,#231,.F.);
#99=ORIENTED_EDGE('',*,*,#243,.F.);
#100=ORIENTED_EDGE('',*,*,#244,.F.);
#101=ORIENTED_EDGE('',*,*,#245,.F.);
#102=ORIENTED_EDGE('',*,*,#244,.T.);
#103=ORIENTED_EDGE('',*,*,#246,.T.);
#104=ORIENTED_EDGE('',*,*,#247,.T.);
#105=ORIENTED_EDGE('',*,*,#248,.F.);
#106=ORIENTED_EDGE('',*,*,#249,.T.);
#107=ORIENTED_EDGE('',*,*,#250,.F.);
#108=ORIENTED_EDGE('',*,*,#248,.T.);
#109=ORIENTED_EDGE('',*,*,#251,.T.);
#110=ORIENTED_EDGE('',*,*,#228,.T.);
#111=ORIENTED_EDGE('',*,*,#252,.T.);
#112=ORIENTED_EDGE('',*,*,#235,.T.);
#113=ORIENTED_EDGE('',*,*,#253,.F.);
#114=ORIENTED_EDGE('',*,*,#237,.F.);
#115=ORIENTED_EDGE('',*,*,#254,.T.);
#116=ORIENTED_EDGE('',*,*,#215,.F.);
#117=ORIENTED_EDGE('',*,*,#214,.F.);
#118=ORIENTED_EDGE('',*,*,#213,.F.);
#119=ORIENTED_EDGE('',*,*,#212,.F.);
#120=ORIENTED_EDGE('',*,*,#225,.F.);
#121=ORIENTED_EDGE('',*,*,#254,.F.);
#122=ORIENTED_EDGE('',*,*,#240,.T.);
#123=ORIENTED_EDGE('',*,*,#245,.T.);
#124=ORIENTED_EDGE('',*,*,#249,.F.);
#125=ORIENTED_EDGE('',*,*,#234,.T.);
#126=ORIENTED_EDGE('',*,*,#241,.F.);
#127=ORIENTED_EDGE('',*,*,#238,.F.);
#128=ORIENTED_EDGE('',*,*,#253,.T.);
#129=ORIENTED_EDGE('',*,*,#232,.T.);
#130=ORIENTED_EDGE('',*,*,#255,.T.);
#131=ORIENTED_EDGE('',*,*,#226,.T.);
#132=ORIENTED_EDGE('',*,*,#242,.F.);
#133=ORIENTED_EDGE('',*,*,#230,.F.);
#134=ORIENTED_EDGE('',*,*,#256,.T.);
#135=ORIENTED_EDGE('',*,*,#246,.F.);
#136=ORIENTED_EDGE('',*,*,#243,.T.);
#137=ORIENTED_EDGE('',*,*,#247,.F.);
#138=ORIENTED_EDGE('',*,*,#256,.F.);
#139=ORIENTED_EDGE('',*,*,#229,.F.);
#140=ORIENTED_EDGE('',*,*,#251,.F.);
#141=ORIENTED_EDGE('',*,*,#236,.F.);
#142=ORIENTED_EDGE('',*,*,#252,.F.);
#143=ORIENTED_EDGE('',*,*,#227,.F.);
#144=ORIENTED_EDGE('',*,*,#255,.F.);
#145=ORIENTED_EDGE('',*,*,#204,.T.);
#146=ORIENTED_EDGE('',*,*,#257,.T.);
#147=ORIENTED_EDGE('',*,*,#218,.F.);
#148=ORIENTED_EDGE('',*,*,#258,.T.);
#149=ORIENTED_EDGE('',*,*,#224,.T.);
#150=ORIENTED_EDGE('',*,*,#259,.T.);
#151=ORIENTED_EDGE('',*,*,#206,.F.);
#152=ORIENTED_EDGE('',*,*,#260,.T.);
#153=ORIENTED_EDGE('',*,*,#222,.T.);
#154=ORIENTED_EDGE('',*,*,#261,.T.);
#155=ORIENTED_EDGE('',*,*,#200,.F.);
#156=ORIENTED_EDGE('',*,*,#262,.T.);
#157=ORIENTED_EDGE('',*,*,#202,.T.);
#158=ORIENTED_EDGE('',*,*,#263,.T.);
#159=ORIENTED_EDGE('',*,*,#220,.F.);
#160=ORIENTED_EDGE('',*,*,#264,.T.);
#161=ORIENTED_EDGE('',*,*,#201,.F.);
#162=ORIENTED_EDGE('',*,*,#261,.F.);
#163=ORIENTED_EDGE('',*,*,#221,.F.);
#164=ORIENTED_EDGE('',*,*,#263,.F.);
#165=ORIENTED_EDGE('',*,*,#207,.F.);
#166=ORIENTED_EDGE('',*,*,#259,.F.);
#167=ORIENTED_EDGE('',*,*,#223,.F.);
#168=ORIENTED_EDGE('',*,*,#262,.F.);
#169=ORIENTED_EDGE('',*,*,#203,.F.);
#170=ORIENTED_EDGE('',*,*,#264,.F.);
#171=ORIENTED_EDGE('',*,*,#219,.F.);
#172=ORIENTED_EDGE('',*,*,#257,.F.);
#173=ORIENTED_EDGE('',*,*,#205,.F.);
#174=ORIENTED_EDGE('',*,*,#258,.F.);
#175=ORIENTED_EDGE('',*,*,#217,.F.);
#176=ORIENTED_EDGE('',*,*,#260,.F.);
#177=ORIENTED_EDGE('',*,*,#209,.F.);
#178=ORIENTED_EDGE('',*,*,#265,.F.);
#179=ORIENTED_EDGE('',*,*,#266,.T.);
#180=ORIENTED_EDGE('',*,*,#267,.T.);
#181=ORIENTED_EDGE('',*,*,#208,.T.);
#182=ORIENTED_EDGE('',*,*,#268,.F.);
#183=ORIENTED_EDGE('',*,*,#269,.F.);
#184=ORIENTED_EDGE('',*,*,#265,.T.);
#185=ORIENTED_EDGE('',*,*,#211,.T.);
#186=ORIENTED_EDGE('',*,*,#270,.F.);
#187=ORIENTED_EDGE('',*,*,#271,.F.);
#188=ORIENTED_EDGE('',*,*,#268,.T.);
#189=ORIENTED_EDGE('',*,*,#210,.F.);
#190=ORIENTED_EDGE('',*,*,#267,.F.);
#191=ORIENTED_EDGE('',*,*,#272,.T.);
#192=ORIENTED_EDGE('',*,*,#270,.T.);
#193=ORIENTED_EDGE('',*,*,#273,.F.);
#194=ORIENTED_EDGE('',*,*,#266,.F.);
#195=ORIENTED_EDGE('',*,*,#269,.T.);
#196=ORIENTED_EDGE('',*,*,#271,.T.);
#197=ORIENTED_EDGE('',*,*,#272,.F.);
#198=ORIENTED_EDGE('',*,*,#273,.T.);
#199=ORIENTED_EDGE('',*,*,#250,.T.);
#200=EDGE_CURVE('',#274,#275,#326,.T.);
#201=EDGE_CURVE('',#275,#276,#35,.T.);
#202=EDGE_CURVE('',#277,#276,#327,.T.);
#203=EDGE_CURVE('',#277,#278,#36,.T.);
#204=EDGE_CURVE('',#279,#278,#328,.T.);
#205=EDGE_CURVE('',#279,#280,#37,.T.);
#206=EDGE_CURVE('',#280,#281,#329,.T.);
#207=EDGE_CURVE('',#281,#274,#38,.T.);
#208=EDGE_CURVE('',#282,#283,#330,.T.);
#209=EDGE_CURVE('',#282,#284,#331,.T.);
#210=EDGE_CURVE('',#284,#285,#332,.T.);
#211=EDGE_CURVE('',#283,#285,#333,.T.);
#212=EDGE_CURVE('',#286,#287,#28,.F.);
#213=EDGE_CURVE('',#287,#288,#29,.F.);
#214=EDGE_CURVE('',#288,#289,#30,.F.);
#215=EDGE_CURVE('',#289,#286,#31,.F.);
#216=EDGE_CURVE('',#290,#290,#32,.F.);
#217=EDGE_CURVE('',#291,#292,#39,.T.);
#218=EDGE_CURVE('',#292,#293,#334,.T.);
#219=EDGE_CURVE('',#293,#294,#40,.T.);
#220=EDGE_CURVE('',#294,#295,#335,.T.);
#221=EDGE_CURVE('',#295,#296,#41,.T.);
#222=EDGE_CURVE('',#297,#296,#336,.T.);
#223=EDGE_CURVE('',#297,#298,#42,.T.);
#224=EDGE_CURVE('',#291,#298,#337,.T.);
#225=EDGE_CURVE('',#299,#299,#33,.F.);
#226=EDGE_CURVE('',#300,#301,#338,.T.);
#227=EDGE_CURVE('',#300,#302,#13,.T.);
#228=EDGE_CURVE('',#303,#302,#43,.T.);
#229=EDGE_CURVE('',#303,#304,#14,.T.);
#230=EDGE_CURVE('',#304,#305,#339,.T.);
#231=EDGE_CURVE('',#305,#301,#44,.T.);
#232=EDGE_CURVE('',#306,#307,#340,.F.);
#233=EDGE_CURVE('',#306,#308,#45,.T.);
#234=EDGE_CURVE('',#309,#308,#341,.T.);
#235=EDGE_CURVE('',#310,#309,#46,.T.);
#236=EDGE_CURVE('',#310,#307,#15,.T.);
#237=EDGE_CURVE('',#311,#312,#47,.T.);
#238=EDGE_CURVE('',#312,#313,#342,.T.);
#239=EDGE_CURVE('',#314,#313,#48,.T.);
#240=EDGE_CURVE('',#311,#314,#343,.T.);
#241=EDGE_CURVE('',#313,#308,#344,.T.);
#242=EDGE_CURVE('',#306,#301,#345,.T.);
#243=EDGE_CURVE('',#315,#305,#346,.T.);
#244=EDGE_CURVE('',#316,#315,#49,.T.);
#245=EDGE_CURVE('',#314,#316,#347,.T.);
#246=EDGE_CURVE('',#315,#317,#348,.F.);
#247=EDGE_CURVE('',#317,#318,#16,.T.);
#248=EDGE_CURVE('',#319,#318,#50,.T.);
#249=EDGE_CURVE('',#319,#316,#349,.T.);
#250=EDGE_CURVE('',#320,#320,#51,.T.);
#251=EDGE_CURVE('',#318,#303,#350,.T.);
#252=EDGE_CURVE('',#302,#310,#351,.F.);
#253=EDGE_CURVE('',#312,#309,#352,.T.);
#254=EDGE_CURVE('',#311,#319,#353,.T.);
#255=EDGE_CURVE('',#307,#300,#354,.T.);
#256=EDGE_CURVE('',#304,#317,#355,.F.);
#257=EDGE_CURVE('',#278,#293,#356,.T.);
#258=EDGE_CURVE('',#292,#279,#357,.F.);
#259=EDGE_CURVE('',#298,#281,#358,.F.);
#260=EDGE_CURVE('',#280,#291,#359,.T.);
#261=EDGE_CURVE('',#296,#275,#360,.F.);
#262=EDGE_CURVE('',#274,#297,#361,.T.);
#263=EDGE_CURVE('',#276,#295,#362,.T.);
#264=EDGE_CURVE('',#294,#277,#363,.F.);
#265=EDGE_CURVE('',#321,#282,#364,.T.);
#266=EDGE_CURVE('',#321,#322,#365,.T.);
#267=EDGE_CURVE('',#322,#284,#366,.T.);
#268=EDGE_CURVE('',#323,#283,#367,.T.);
#269=EDGE_CURVE('',#321,#323,#368,.T.);
#270=EDGE_CURVE('',#324,#285,#369,.T.);
#271=EDGE_CURVE('',#323,#324,#370,.T.);
#272=EDGE_CURVE('',#322,#324,#371,.T.);
#273=EDGE_CURVE('',#325,#325,#34,.T.);
#274=VERTEX_POINT('',#760);
#275=VERTEX_POINT('',#761);
#276=VERTEX_POINT('',#763);
#277=VERTEX_POINT('',#765);
#278=VERTEX_POINT('',#767);
#279=VERTEX_POINT('',#769);
#280=VERTEX_POINT('',#771);
#281=VERTEX_POINT('',#773);
#282=VERTEX_POINT('',#776);
#283=VERTEX_POINT('',#777);
#284=VERTEX_POINT('',#779);
#285=VERTEX_POINT('',#781);
#286=VERTEX_POINT('',#785);
#287=VERTEX_POINT('',#786);
#288=VERTEX_POINT('',#788);
#289=VERTEX_POINT('',#790);
#290=VERTEX_POINT('',#793);
#291=VERTEX_POINT('',#795);
#292=VERTEX_POINT('',#796);
#293=VERTEX_POINT('',#798);
#294=VERTEX_POINT('',#800);
#295=VERTEX_POINT('',#802);
#296=VERTEX_POINT('',#804);
#297=VERTEX_POINT('',#806);
#298=VERTEX_POINT('',#808);
#299=VERTEX_POINT('',#812);
#300=VERTEX_POINT('',#814);
#301=VERTEX_POINT('',#815);
#302=VERTEX_POINT('',#822);
#303=VERTEX_POINT('',#824);
#304=VERTEX_POINT('',#831);
#305=VERTEX_POINT('',#833);
#306=VERTEX_POINT('',#837);
#307=VERTEX_POINT('',#838);
#308=VERTEX_POINT('',#840);
#309=VERTEX_POINT('',#842);
#310=VERTEX_POINT('',#844);
#311=VERTEX_POINT('',#853);
#312=VERTEX_POINT('',#854);
#313=VERTEX_POINT('',#856);
#314=VERTEX_POINT('',#858);
#315=VERTEX_POINT('',#864);
#316=VERTEX_POINT('',#866);
#317=VERTEX_POINT('',#870);
#318=VERTEX_POINT('',#877);
#319=VERTEX_POINT('',#879);
#320=VERTEX_POINT('',#883);
#321=VERTEX_POINT('',#971);
#322=VERTEX_POINT('',#973);
#323=VERTEX_POINT('',#977);
#324=VERTEX_POINT('',#981);
#325=VERTEX_POINT('',#987);
#326=LINE('',#759,#372);
#327=LINE('',#764,#373);
#328=LINE('',#768,#374);
#329=LINE('',#772,#375);
#330=LINE('',#775,#376);
#331=LINE('',#778,#377);
#332=LINE('',#780,#378);
#333=LINE('',#782,#379);
#334=LINE('',#797,#380);
#335=LINE('',#801,#381);
#336=LINE('',#805,#382);
#337=LINE('',#809,#383);
#338=LINE('',#813,#384);
#339=LINE('',#832,#385);
#340=LINE('',#836,#386);
#341=LINE('',#841,#387);
#342=LINE('',#855,#388);
#343=LINE('',#859,#389);
#344=LINE('',#861,#390);
#345=LINE('',#862,#391);
#346=LINE('',#863,#392);
#347=LINE('',#867,#393);
#348=LINE('',#869,#394);
#349=LINE('',#880,#395);
#350=LINE('',#884,#396);
#351=LINE('',#885,#397);
#352=LINE('',#886,#398);
#353=LINE('',#887,#399);
#354=LINE('',#948,#400);
#355=LINE('',#950,#401);
#356=LINE('',#954,#402);
#357=LINE('',#955,#403);
#358=LINE('',#957,#404);
#359=LINE('',#958,#405);
#360=LINE('',#960,#406);
#361=LINE('',#961,#407);
#362=LINE('',#963,#408);
#363=LINE('',#964,#409);
#364=LINE('',#970,#410);
#365=LINE('',#972,#411);
#366=LINE('',#974,#412);
#367=LINE('',#976,#413);
#368=LINE('',#978,#414);
#369=LINE('',#980,#415);
#370=LINE('',#982,#416);
#371=LINE('',#984,#417);
#372=VECTOR('',#609,1.);
#373=VECTOR('',#612,1.);
#374=VECTOR('',#615,1.);
#375=VECTOR('',#618,1.);
#376=VECTOR('',#621,1.);
#377=VECTOR('',#622,1.);
#378=VECTOR('',#623,1.);
#379=VECTOR('',#624,1.);
#380=VECTOR('',#639,1.);
#381=VECTOR('',#642,1.);
#382=VECTOR('',#645,1.);
#383=VECTOR('',#648,1.);
#384=VECTOR('',#653,1.);
#385=VECTOR('',#656,1.);
#386=VECTOR('',#661,1.);
#387=VECTOR('',#664,1.);
#388=VECTOR('',#671,1.);
#389=VECTOR('',#674,1.);
#390=VECTOR('',#677,1.);
#391=VECTOR('',#678,1.);
#392=VECTOR('',#679,1.);
#393=VECTOR('',#682,1.);
#394=VECTOR('',#685,1.);
#395=VECTOR('',#688,1.);
#396=VECTOR('',#693,1.);
#397=VECTOR('',#694,1.);
#398=VECTOR('',#695,1.);
#399=VECTOR('',#696,1.);
#400=VECTOR('',#703,1.);
#401=VECTOR('',#706,1.);
#402=VECTOR('',#713,1.);
#403=VECTOR('',#714,1.);
#404=VECTOR('',#717,1.);
#405=VECTOR('',#718,1.);
#406=VECTOR('',#721,1.);
#407=VECTOR('',#722,1.);
#408=VECTOR('',#725,1.);
#409=VECTOR('',#726,1.);
#410=VECTOR('',#737,1.);
#411=VECTOR('',#738,1.);
#412=VECTOR('',#739,1.);
#413=VECTOR('',#742,1.);
#414=VECTOR('',#743,1.);
#415=VECTOR('',#746,1.);
#416=VECTOR('',#747,1.);
#417=VECTOR('',#750,1.);
#418=EDGE_LOOP('',(#52,#53,#54,#55,#56,#57,#58,#59));
#419=EDGE_LOOP('',(#60,#61,#62,#63));
#420=EDGE_LOOP('',(#64,#65,#66,#67));
#421=EDGE_LOOP('',(#68));
#422=EDGE_LOOP('',(#69,#70,#71,#72,#73,#74,#75,#76));
#423=EDGE_LOOP('',(#77));
#424=EDGE_LOOP('',(#78,#79,#80,#81,#82,#83));
#425=EDGE_LOOP('',(#84,#85,#86,#87,#88));
#426=EDGE_LOOP('',(#89));
#427=EDGE_LOOP('',(#90,#91,#92,#93));
#428=EDGE_LOOP('',(#94,#95,#96,#97,#98,#99,#100,#101));
#429=EDGE_LOOP('',(#102,#103,#104,#105,#106));
#430=EDGE_LOOP('',(#107));
#431=EDGE_LOOP('',(#108,#109,#110,#111,#112,#113,#114,#115));
#432=EDGE_LOOP('',(#116,#117,#118,#119));
#433=EDGE_LOOP('',(#120));
#434=EDGE_LOOP('',(#121,#122,#123,#124));
#435=EDGE_LOOP('',(#125,#126,#127,#128));
#436=EDGE_LOOP('',(#129,#130,#131,#132));
#437=EDGE_LOOP('',(#133,#134,#135,#136));
#438=EDGE_LOOP('',(#137,#138,#139,#140));
#439=EDGE_LOOP('',(#141,#142,#143,#144));
#440=EDGE_LOOP('',(#145,#146,#147,#148));
#441=EDGE_LOOP('',(#149,#150,#151,#152));
#442=EDGE_LOOP('',(#153,#154,#155,#156));
#443=EDGE_LOOP('',(#157,#158,#159,#160));
#444=EDGE_LOOP('',(#161,#162,#163,#164));
#445=EDGE_LOOP('',(#165,#166,#167,#168));
#446=EDGE_LOOP('',(#169,#170,#171,#172));
#447=EDGE_LOOP('',(#173,#174,#175,#176));
#448=EDGE_LOOP('',(#177,#178,#179,#180));
#449=EDGE_LOOP('',(#181,#182,#183,#184));
#450=EDGE_LOOP('',(#185,#186,#187,#188));
#451=EDGE_LOOP('',(#189,#190,#191,#192));
#452=EDGE_LOOP('',(#193));
#453=EDGE_LOOP('',(#194,#195,#196,#197));
#454=EDGE_LOOP('',(#198));
#455=EDGE_LOOP('',(#199));
#456=FACE_BOUND('',#418,.T.);
#457=FACE_BOUND('',#419,.T.);
#458=FACE_BOUND('',#420,.T.);
#459=FACE_BOUND('',#421,.T.);
#460=FACE_BOUND('',#422,.T.);
#461=FACE_BOUND('',#423,.T.);
#462=FACE_BOUND('',#424,.T.);
#463=FACE_BOUND('',#425,.T.);
#464=FACE_BOUND('',#426,.T.);
#465=FACE_BOUND('',#427,.T.);
#466=FACE_BOUND('',#428,.T.);
#467=FACE_BOUND('',#429,.T.);
#468=FACE_BOUND('',#430,.T.);
#469=FACE_BOUND('',#431,.T.);
#470=FACE_BOUND('',#432,.T.);
#471=FACE_BOUND('',#433,.T.);
#472=FACE_BOUND('',#434,.T.);
#473=FACE_BOUND('',#435,.T.);
#474=FACE_BOUND('',#436,.T.);
#475=FACE_BOUND('',#437,.T.);
#476=FACE_BOUND('',#438,.T.);
#477=FACE_BOUND('',#439,.T.);
#478=FACE_BOUND('',#440,.T.);
#479=FACE_BOUND('',#441,.T.);
#480=FACE_BOUND('',#442,.T.);
#481=FACE_BOUND('',#443,.T.);
#482=FACE_BOUND('',#444,.T.);
#483=FACE_BOUND('',#445,.T.);
#484=FACE_BOUND('',#446,.T.);
#485=FACE_BOUND('',#447,.T.);
#486=FACE_BOUND('',#448,.T.);
#487=FACE_BOUND('',#449,.T.);
#488=FACE_BOUND('',#450,.T.);
#489=FACE_BOUND('',#451,.T.);
#490=FACE_BOUND('',#452,.T.);
#491=FACE_BOUND('',#453,.T.);
#492=FACE_BOUND('',#454,.T.);
#493=FACE_BOUND('',#455,.T.);
#494=PLANE('',#553);
#495=PLANE('',#558);
#496=PLANE('',#578);
#497=PLANE('',#582);
#498=PLANE('',#584);
#499=PLANE('',#585);
#500=PLANE('',#586);
#501=PLANE('',#587);
#502=PLANE('',#590);
#503=PLANE('',#591);
#504=PLANE('',#592);
#505=PLANE('',#593);
#506=PLANE('',#598);
#507=PLANE('',#599);
#508=PLANE('',#600);
#509=PLANE('',#601);
#510=PLANE('',#602);
#511=ADVANCED_FACE('',(#456,#457),#494,.T.);
#512=ADVANCED_FACE('',(#458,#459,#460),#495,.F.);
#513=ADVANCED_FACE('',(#461,#462),#17,.T.);
#514=ADVANCED_FACE('',(#463),#18,.F.);
#515=ADVANCED_FACE('',(#464,#465),#19,.F.);
#516=ADVANCED_FACE('',(#466),#496,.F.);
#517=ADVANCED_FACE('',(#467),#20,.F.);
#518=ADVANCED_FACE('',(#468,#469),#497,.T.);
#519=ADVANCED_FACE('',(#470,#471),#12,.T.);
#520=ADVANCED_FACE('',(#472),#498,.F.);
#521=ADVANCED_FACE('',(#473),#499,.T.);
#522=ADVANCED_FACE('',(#474),#500,.T.);
#523=ADVANCED_FACE('',(#475),#501,.F.);
#524=ADVANCED_FACE('',(#476),#21,.F.);
#525=ADVANCED_FACE('',(#477),#22,.F.);
#526=ADVANCED_FACE('',(#478),#502,.T.);
#527=ADVANCED_FACE('',(#479),#503,.F.);
#528=ADVANCED_FACE('',(#480),#504,.F.);
#529=ADVANCED_FACE('',(#481),#505,.T.);
#530=ADVANCED_FACE('',(#482),#23,.F.);
#531=ADVANCED_FACE('',(#483),#24,.F.);
#532=ADVANCED_FACE('',(#484),#25,.F.);
#533=ADVANCED_FACE('',(#485),#26,.F.);
#534=ADVANCED_FACE('',(#486),#506,.T.);
#535=ADVANCED_FACE('',(#487),#507,.F.);
#536=ADVANCED_FACE('',(#488),#508,.F.);
#537=ADVANCED_FACE('',(#489),#509,.T.);
#538=ADVANCED_FACE('',(#490,#491),#510,.T.);
#539=ADVANCED_FACE('',(#492,#493),#27,.F.);
#540=CLOSED_SHELL('',(#511,#512,#513,#514,#515,#516,#517,#518,#519,#520,
#521,#522,#523,#524,#525,#526,#527,#528,#529,#530,#531,#532,#533,#534,#535,
#536,#537,#538,#539));
#541=STYLED_ITEM('',(#542),#549);
#542=PRESENTATION_STYLE_ASSIGNMENT((#543));
#543=SURFACE_STYLE_USAGE(.BOTH.,#544);
#544=SURFACE_SIDE_STYLE('',(#545));
#545=SURFACE_STYLE_FILL_AREA(#546);
#546=FILL_AREA_STYLE('',(#547));
#547=FILL_AREA_STYLE_COLOUR('',#548);
#548=COLOUR_RGB('',0.615686274509804,0.811764705882353,0.929411764705882);
#549=MANIFOLD_SOLID_BREP('Part 1',#540);
#550=SHAPE_DEFINITION_REPRESENTATION(#995,#551);
#551=SHAPE_REPRESENTATION('Part 1',(#552),#990);
#552=AXIS2_PLACEMENT_3D('',#757,#605,#606);
#553=AXIS2_PLACEMENT_3D('',#758,#607,#608);
#554=AXIS2_PLACEMENT_3D('',#762,#610,#611);
#555=AXIS2_PLACEMENT_3D('',#766,#613,#614);
#556=AXIS2_PLACEMENT_3D('',#770,#616,#617);
#557=AXIS2_PLACEMENT_3D('',#774,#619,#620);
#558=AXIS2_PLACEMENT_3D('',#783,#625,#626);
#559=AXIS2_PLACEMENT_3D('',#784,#627,#628);
#560=AXIS2_PLACEMENT_3D('',#787,#629,#630);
#561=AXIS2_PLACEMENT_3D('',#789,#631,#632);
#562=AXIS2_PLACEMENT_3D('',#791,#633,#634);
#563=AXIS2_PLACEMENT_3D('',#792,#635,#636);
#564=AXIS2_PLACEMENT_3D('',#794,#637,#638);
#565=AXIS2_PLACEMENT_3D('',#799,#640,#641);
#566=AXIS2_PLACEMENT_3D('',#803,#643,#644);
#567=AXIS2_PLACEMENT_3D('',#807,#646,#647);
#568=AXIS2_PLACEMENT_3D('',#810,#649,#650);
#569=AXIS2_PLACEMENT_3D('',#811,#651,#652);
#570=AXIS2_PLACEMENT_3D('',#823,#654,#655);
#571=AXIS2_PLACEMENT_3D('',#834,#657,#658);
#572=AXIS2_PLACEMENT_3D('',#835,#659,#660);
#573=AXIS2_PLACEMENT_3D('',#839,#662,#663);
#574=AXIS2_PLACEMENT_3D('',#843,#665,#666);
#575=AXIS2_PLACEMENT_3D('',#851,#667,#668);
#576=AXIS2_PLACEMENT_3D('',#852,#669,#670);
#577=AXIS2_PLACEMENT_3D('',#857,#672,#673);
#578=AXIS2_PLACEMENT_3D('',#860,#675,#676);
#579=AXIS2_PLACEMENT_3D('',#865,#680,#681);
#580=AXIS2_PLACEMENT_3D('',#868,#683,#684);
#581=AXIS2_PLACEMENT_3D('',#878,#686,#687);
#582=AXIS2_PLACEMENT_3D('',#881,#689,#690);
#583=AXIS2_PLACEMENT_3D('',#882,#691,#692);
#584=AXIS2_PLACEMENT_3D('',#945,#697,#698);
#585=AXIS2_PLACEMENT_3D('',#946,#699,#700);
#586=AXIS2_PLACEMENT_3D('',#947,#701,#702);
#587=AXIS2_PLACEMENT_3D('',#949,#704,#705);
#588=AXIS2_PLACEMENT_3D('',#951,#707,#708);
#589=AXIS2_PLACEMENT_3D('',#952,#709,#710);
#590=AXIS2_PLACEMENT_3D('',#953,#711,#712);
#591=AXIS2_PLACEMENT_3D('',#956,#715,#716);
#592=AXIS2_PLACEMENT_3D('',#959,#719,#720);
#593=AXIS2_PLACEMENT_3D('',#962,#723,#724);
#594=AXIS2_PLACEMENT_3D('',#965,#727,#728);
#595=AXIS2_PLACEMENT_3D('',#966,#729,#730);
#596=AXIS2_PLACEMENT_3D('',#967,#731,#732);
#597=AXIS2_PLACEMENT_3D('',#968,#733,#734);
#598=AXIS2_PLACEMENT_3D('',#969,#735,#736);
#599=AXIS2_PLACEMENT_3D('',#975,#740,#741);
#600=AXIS2_PLACEMENT_3D('',#979,#744,#745);
#601=AXIS2_PLACEMENT_3D('',#983,#748,#749);
#602=AXIS2_PLACEMENT_3D('',#985,#751,#752);
#603=AXIS2_PLACEMENT_3D('',#986,#753,#754);
#604=AXIS2_PLACEMENT_3D('',#988,#755,#756);
#605=DIRECTION('',(0.,0.,1.));
#606=DIRECTION('',(1.,0.,0.));
#607=DIRECTION('',(0.,-0.270118626240244,0.962827049764434));
#608=DIRECTION('',(1.,0.,0.));
#609=DIRECTION('',(1.,0.,0.));
#610=DIRECTION('',(0.,-0.270118626240244,0.962827049764434));
#611=DIRECTION('',(0.,-0.962827049764434,-0.270118626240244));
#612=DIRECTION('',(0.,-0.962827049764434,-0.270118626240244));
#613=DIRECTION('',(0.,-0.270118626240244,0.962827049764434));
#614=DIRECTION('',(0.,-0.962827049764434,-0.270118626240244));
#615=DIRECTION('',(1.,0.,0.));
#616=DIRECTION('',(0.,-0.270118626240244,0.962827049764434));
#617=DIRECTION('',(0.,-0.962827049764434,-0.270118626240244));
#618=DIRECTION('',(0.,-0.962827049764434,-0.270118626240244));
#619=DIRECTION('',(0.,-0.270118626240244,0.962827049764434));
#620=DIRECTION('',(0.,-0.962827049764434,-0.270118626240244));
#621=DIRECTION('',(0.,0.962827049764434,0.270118626240244));
#622=DIRECTION('',(-1.,-1.68834749286707E-16,-4.73661500786661E-17));
#623=DIRECTION('',(0.,0.962827049764434,0.270118626240244));
#624=DIRECTION('',(-1.,-1.2662606196503E-16,-3.55246125589995E-17));
#625=DIRECTION('',(0.,0.270118626240244,-0.962827049764434));
#626=DIRECTION('',(0.,0.962827049764434,0.270118626240244));
#627=DIRECTION('',(0.,0.270118626240244,-0.962827049764434));
#628=DIRECTION('',(0.,-0.962827049764434,-0.270118626240244));
#629=DIRECTION('',(0.,0.270118626240244,-0.962827049764434));
#630=DIRECTION('',(0.,-0.962827049764434,-0.270118626240244));
#631=DIRECTION('',(0.,0.270118626240244,-0.962827049764434));
#632=DIRECTION('',(0.,-0.962827049764434,-0.270118626240244));
#633=DIRECTION('',(0.,0.270118626240244,-0.962827049764434));
#634=DIRECTION('',(0.,-0.962827049764434,-0.270118626240244));
#635=DIRECTION('',(0.,0.270118626240244,-0.962827049764434));
#636=DIRECTION('',(0.,-0.962827049764434,-0.270118626240244));
#637=DIRECTION('',(0.,0.270118626240244,-0.962827049764434));
#638=DIRECTION('',(0.,0.962827049764434,0.270118626240244));
#639=DIRECTION('',(1.,0.,0.));
#640=DIRECTION('',(0.,0.270118626240244,-0.962827049764434));
#641=DIRECTION('',(0.,0.962827049764434,0.270118626240244));
#642=DIRECTION('',(0.,-0.962827049764434,-0.270118626240244));
#643=DIRECTION('',(0.,0.270118626240244,-0.962827049764434));
#644=DIRECTION('',(0.,0.962827049764434,0.270118626240244));
#645=DIRECTION('',(1.,0.,0.));
#646=DIRECTION('',(0.,0.270118626240244,-0.962827049764434));
#647=DIRECTION('',(0.,0.962827049764434,0.270118626240244));
#648=DIRECTION('',(0.,-0.962827049764434,-0.270118626240244));
#649=DIRECTION('',(0.,0.,-1.));
#650=DIRECTION('',(-1.,0.,0.));
#651=DIRECTION('',(0.,-0.264834751372684,0.96429381127609));
#652=DIRECTION('',(0.,-0.96429381127609,-0.264834751372684));
#653=DIRECTION('',(0.,0.,-1.));
#654=DIRECTION('',(0.,0.,-1.));
#655=DIRECTION('',(-1.,0.,0.));
#656=DIRECTION('',(0.,0.,-1.));
#657=DIRECTION('',(0.,0.,1.));
#658=DIRECTION('',(1.,0.,0.));
#659=DIRECTION('',(0.,0.,-1.));
#660=DIRECTION('',(-1.,0.,0.));
#661=DIRECTION('',(0.,0.,-1.));
#662=DIRECTION('',(0.,0.,-1.));
#663=DIRECTION('',(-1.,0.,0.));
#664=DIRECTION('',(0.,0.,-1.));
#665=DIRECTION('',(0.,0.,-1.));
#666=DIRECTION('',(-1.,0.,0.));
#667=DIRECTION('',(0.,0.,-1.));
#668=DIRECTION('',(-1.,0.,0.));
#669=DIRECTION('',(0.,0.,-1.));
#670=DIRECTION('',(-1.,0.,0.));
#671=DIRECTION('',(0.,0.,-1.));
#672=DIRECTION('',(0.,0.,1.));
#673=DIRECTION('',(1.,0.,0.));
#674=DIRECTION('',(0.,0.,-1.));
#675=DIRECTION('',(0.,0.,1.));
#676=DIRECTION('',(1.,0.,0.));
#677=DIRECTION('',(-1.86482715470887E-16,-1.,0.));
#678=DIRECTION('',(-1.86482715470887E-16,-1.,0.));
#679=DIRECTION('',(-1.86482715470887E-16,-1.,0.));
#680=DIRECTION('',(0.,0.,-1.));
#681=DIRECTION('',(-1.,0.,0.));
#682=DIRECTION('',(-1.86482715470887E-16,-1.,0.));
#683=DIRECTION('',(0.,0.,-1.));
#684=DIRECTION('',(-1.,0.,0.));
#685=DIRECTION('',(0.,0.,-1.));
#686=DIRECTION('',(0.,0.,-1.));
#687=DIRECTION('',(-1.,0.,0.));
#688=DIRECTION('',(0.,0.,-1.));
#689=DIRECTION('',(0.,0.,-1.));
#690=DIRECTION('',(1.,0.,0.));
#691=DIRECTION('',(0.,0.,-1.));
#692=DIRECTION('',(-1.,0.,0.));
#693=DIRECTION('',(-1.86482715470887E-16,-1.,0.));
#694=DIRECTION('',(-1.86482715470887E-16,-1.,0.));
#695=DIRECTION('',(-1.86482715470887E-16,-1.,0.));
#696=DIRECTION('',(-1.86482715470887E-16,-1.,0.));
#697=DIRECTION('',(1.,-1.86482715470887E-16,0.));
#698=DIRECTION('',(1.86482715470887E-16,1.,0.));
#699=DIRECTION('',(1.,-1.86482715470887E-16,0.));
#700=DIRECTION('',(1.86482715470887E-16,1.,0.));
#701=DIRECTION('',(1.,-1.86482715470887E-16,0.));
#702=DIRECTION('',(1.86482715470887E-16,1.,0.));
#703=DIRECTION('',(-1.86482715470887E-16,-1.,0.));
#704=DIRECTION('',(1.,-1.86482715470887E-16,0.));
#705=DIRECTION('',(1.86482715470887E-16,1.,0.));
#706=DIRECTION('',(-1.86482715470887E-16,-1.,0.));
#707=DIRECTION('',(-1.86482715470887E-16,-1.,0.));
#708=DIRECTION('',(1.,-1.86482715470887E-16,0.));
#709=DIRECTION('',(1.86482715470887E-16,1.,0.));
#710=DIRECTION('',(-1.,1.86482715470887E-16,0.));
#711=DIRECTION('',(0.,-0.962827049764434,-0.270118626240244));
#712=DIRECTION('',(0.,0.270118626240244,-0.962827049764434));
#713=DIRECTION('',(0.,-0.270118626240244,0.962827049764434));
#714=DIRECTION('',(0.,-0.270118626240244,0.962827049764434));
#715=DIRECTION('',(-1.,0.,0.));
#716=DIRECTION('',(0.,0.,1.));
#717=DIRECTION('',(0.,-0.270118626240244,0.962827049764434));
#718=DIRECTION('',(0.,-0.270118626240244,0.962827049764434));
#719=DIRECTION('',(0.,-0.962827049764434,-0.270118626240244));
#720=DIRECTION('',(0.,0.270118626240244,-0.962827049764434));
#721=DIRECTION('',(0.,-0.270118626240244,0.962827049764434));
#722=DIRECTION('',(0.,-0.270118626240244,0.962827049764434));
#723=DIRECTION('',(-1.,0.,0.));
#724=DIRECTION('',(0.,0.,1.));
#725=DIRECTION('',(0.,-0.270118626240244,0.962827049764434));
#726=DIRECTION('',(0.,-0.270118626240244,0.962827049764434));
#727=DIRECTION('',(0.,-0.270118626240244,0.962827049764434));
#728=DIRECTION('',(0.,-0.962827049764434,-0.270118626240244));
#729=DIRECTION('',(0.,0.270118626240244,-0.962827049764434));
#730=DIRECTION('',(0.,0.962827049764434,0.270118626240244));
#731=DIRECTION('',(0.,0.270118626240244,-0.962827049764434));
#732=DIRECTION('',(0.,0.962827049764434,0.270118626240244));
#733=DIRECTION('',(0.,-0.270118626240244,0.962827049764434));
#734=DIRECTION('',(0.,-0.962827049764434,-0.270118626240244));
#735=DIRECTION('',(-1.75353142942976E-16,0.962827049764434,0.270118626240244));
#736=DIRECTION('',(0.,-0.270118626240244,0.962827049764434));
#737=DIRECTION('',(0.,-0.270118626240244,0.962827049764434));
#738=DIRECTION('',(-1.,-1.68834749286707E-16,-4.73661500786661E-17));
#739=DIRECTION('',(0.,-0.270118626240244,0.962827049764434));
#740=DIRECTION('',(1.,0.,0.));
#741=DIRECTION('',(0.,0.,-1.));
#742=DIRECTION('',(0.,-0.270118626240244,0.962827049764434));
#743=DIRECTION('',(0.,0.962827049764434,0.270118626240244));
#744=DIRECTION('',(-1.31514857207232E-16,0.962827049764434,0.270118626240244));
#745=DIRECTION('',(0.,-0.270118626240244,0.962827049764434));
#746=DIRECTION('',(0.,-0.270118626240244,0.962827049764434));
#747=DIRECTION('',(-1.,-1.2662606196503E-16,-3.55246125589995E-17));
#748=DIRECTION('',(1.,0.,0.));
#749=DIRECTION('',(0.,0.,-1.));
#750=DIRECTION('',(0.,0.962827049764434,0.270118626240244));
#751=DIRECTION('',(0.,-0.270118626240244,0.962827049764434));
#752=DIRECTION('',(1.,0.,0.));
#753=DIRECTION('',(0.,-0.270118626240244,0.962827049764434));
#754=DIRECTION('',(0.,-0.962827049764434,-0.270118626240244));
#755=DIRECTION('',(0.,0.,-1.));
#756=DIRECTION('',(-1.,0.,0.));
#757=CARTESIAN_POINT('',(0.,0.,0.));
#758=CARTESIAN_POINT('',(0.,0.00102915196597535,0.0860628651906661));
#759=CARTESIAN_POINT('',(1.38777878078145E-17,-0.0805341881307494,0.0631804821252096));
#760=CARTESIAN_POINT('',(-0.0790747835950787,-0.0805341881307494,0.0631804821252096));
#761=CARTESIAN_POINT('',(0.0790747835950787,-0.0805341881307494,0.0631804821252096));
#762=CARTESIAN_POINT('',(0.0790747835950787,-0.0744202363647452,0.0648957354018352));
#763=CARTESIAN_POINT('',(0.0854247835950787,-0.0744202363647452,0.0648957354018352));
#764=CARTESIAN_POINT('',(0.0854247835950787,0.00102915196597533,0.0860628651906661));
#765=CARTESIAN_POINT('',(0.0854247835950787,0.0764785402966959,0.107229994979497));
#766=CARTESIAN_POINT('',(0.0790747835950787,0.0764785402966959,0.107229994979497));
#767=CARTESIAN_POINT('',(0.0790747835950787,0.0825924920627001,0.108945248256123));
#768=CARTESIAN_POINT('',(1.38777878078145E-17,0.0825924920627001,0.108945248256123));
#769=CARTESIAN_POINT('',(-0.0790747835950787,0.0825924920627001,0.108945248256123));
#770=CARTESIAN_POINT('',(-0.0790747835950787,0.0764785402966959,0.107229994979497));
#771=CARTESIAN_POINT('',(-0.0854247835950786,0.0764785402966959,0.107229994979497));
#772=CARTESIAN_POINT('',(-0.0854247835950786,0.00102915196597533,0.0860628651906661));
#773=CARTESIAN_POINT('',(-0.0854247835950786,-0.0744202363647452,0.0648957354018352));
#774=CARTESIAN_POINT('',(-0.0790747835950787,-0.0744202363647452,0.0648957354018352));
#775=CARTESIAN_POINT('',(0.0381,-0.02230792542357,0.079515708786545));
#776=CARTESIAN_POINT('',(0.0381,-0.0589916360195949,0.0692241891267917));
#777=CARTESIAN_POINT('',(0.0381,0.014375785172455,0.0898072284462983));
#778=CARTESIAN_POINT('',(6.93889390390723E-18,-0.0589916360195949,0.0692241891267917));
#779=CARTESIAN_POINT('',(-0.0381,-0.0589916360195949,0.0692241891267917));
#780=CARTESIAN_POINT('',(-0.0381,-0.02230792542357,0.079515708786545));
#781=CARTESIAN_POINT('',(-0.0381,0.014375785172455,0.0898072284462983));
#782=CARTESIAN_POINT('',(6.93889390390723E-18,0.014375785172455,0.0898072284462983));
#783=CARTESIAN_POINT('',(-0.14224,0.00676140934228897,0.0942661967128515));
#784=CARTESIAN_POINT('',(0.,-0.000686101310650213,0.0921768169566703));
#785=CARTESIAN_POINT('',(0.0854247835950787,0.0808772387860745,0.115059200022127));
#786=CARTESIAN_POINT('',(-0.0854247835950786,0.0808772387860745,0.115059200022127));
#787=CARTESIAN_POINT('',(0.,-0.000686101310650213,0.0921768169566703));
#788=CARTESIAN_POINT('',(-0.0854247835950786,-0.0822494414073749,0.0692944338912138));
#789=CARTESIAN_POINT('',(0.,-0.000686101310650213,0.0921768169566703));
#790=CARTESIAN_POINT('',(0.0854247835950787,-0.0822494414073749,0.0692944338912138));
#791=CARTESIAN_POINT('',(0.,-0.000686101310650213,0.0921768169566703));
#792=CARTESIAN_POINT('',(0.,0.1016,0.120872916818284));
#793=CARTESIAN_POINT('',(0.,0.0889,0.117309964828007));
#794=CARTESIAN_POINT('',(-0.0790747835950787,0.0747632870200704,0.113343946745501));
#795=CARTESIAN_POINT('',(-0.0854247835950786,0.0747632870200704,0.113343946745501));
#796=CARTESIAN_POINT('',(-0.0790747835950787,0.0808772387860745,0.115059200022127));
#797=CARTESIAN_POINT('',(1.38777878078145E-17,0.0808772387860745,0.115059200022127));
#798=CARTESIAN_POINT('',(0.0790747835950787,0.0808772387860745,0.115059200022127));
#799=CARTESIAN_POINT('',(0.0790747835950787,0.0747632870200704,0.113343946745501));
#800=CARTESIAN_POINT('',(0.0854247835950787,0.0747632870200704,0.113343946745501));
#801=CARTESIAN_POINT('',(0.0854247835950787,-0.000686101310650221,0.0921768169566703));
#802=CARTESIAN_POINT('',(0.0854247835950787,-0.0761354896413708,0.0710096871678393));
#803=CARTESIAN_POINT('',(0.0790747835950787,-0.0761354896413708,0.0710096871678393));
#804=CARTESIAN_POINT('',(0.0790747835950787,-0.082249441407375,0.0692944338912138));
#805=CARTESIAN_POINT('',(1.38777878078145E-17,-0.082249441407375,0.0692944338912138));
#806=CARTESIAN_POINT('',(-0.0790747835950787,-0.082249441407375,0.0692944338912138));
#807=CARTESIAN_POINT('',(-0.0790747835950787,-0.0761354896413708,0.0710096871678393));
#808=CARTESIAN_POINT('',(-0.0854247835950786,-0.0761354896413708,0.0710096871678393));
#809=CARTESIAN_POINT('',(-0.0854247835950786,-0.000686101310650224,0.0921768169566703));
#810=CARTESIAN_POINT('',(0.,7.38768181585641E-18,0.127));
#811=CARTESIAN_POINT('',(0.,7.38768181585641E-18,0.0897312362502686));
#812=CARTESIAN_POINT('',(0.,-0.12065,0.0565957827406888));
#813=CARTESIAN_POINT('',(-0.0126835921042573,-0.11998145269721,0.127));
#814=CARTESIAN_POINT('',(-0.0126835921042573,-0.11998145269721,0.01905));
#815=CARTESIAN_POINT('',(-0.0126835921042573,-0.11998145269721,0.));
#816=CARTESIAN_POINT('',(-0.0126835921042573,-0.11998145269721,0.01905));
#817=CARTESIAN_POINT('',(-0.0126835921042573,-0.11998145269721,0.0198897992072124));
#818=CARTESIAN_POINT('',(-0.0123513770806552,-0.120017097496697,0.0215430364707635));
#819=CARTESIAN_POINT('',(-0.0104686547937744,-0.120205063321602,0.0243674747636606));
#820=CARTESIAN_POINT('',(-0.00801074488323684,-0.120395477825665,0.0254));
#821=CARTESIAN_POINT('',(-0.00633359210425732,-0.120483642504105,0.0254));
#822=CARTESIAN_POINT('',(-0.00633359210425732,-0.120483642504105,0.0254));
#823=CARTESIAN_POINT('',(0.,7.38768181585641E-18,0.0254));
#824=CARTESIAN_POINT('',(0.00633359210425724,-0.120483642504105,0.0254));
#825=CARTESIAN_POINT('',(0.00633359210425724,-0.120483642504105,0.0254));
#826=CARTESIAN_POINT('',(0.00717222107296631,-0.120439557400897,0.0254));
#827=CARTESIAN_POINT('',(0.00882213001566184,-0.120334821478584,0.0250689544999221));
#828=CARTESIAN_POINT('',(0.0116460196282144,-0.120097739533912,0.0231915972060275));
#829=CARTESIAN_POINT('',(0.0126835921042572,-0.11998145269721,0.0207296766212897));
#830=CARTESIAN_POINT('',(0.0126835921042572,-0.11998145269721,0.01905));
#831=CARTESIAN_POINT('',(0.0126835921042572,-0.11998145269721,0.01905));
#832=CARTESIAN_POINT('',(0.0126835921042572,-0.11998145269721,0.127));
#833=CARTESIAN_POINT('',(0.0126835921042572,-0.11998145269721,0.));
#834=CARTESIAN_POINT('',(0.,7.38768181585641E-18,0.));
#835=CARTESIAN_POINT('',(0.,-4.28952135750147E-18,0.0254));
#836=CARTESIAN_POINT('',(-0.0126835921042573,-0.0688954085667022,0.0254));
#837=CARTESIAN_POINT('',(-0.0126835921042573,-0.0688954085667022,0.));
#838=CARTESIAN_POINT('',(-0.0126835921042573,-0.0688954085667022,0.01905));
#839=CARTESIAN_POINT('',(0.,-4.28952135750147E-18,0.));
#840=CARTESIAN_POINT('',(-0.0126835921042573,0.0688954085667022,0.));
#841=CARTESIAN_POINT('',(-0.0126835921042573,0.0688954085667022,0.0254));
#842=CARTESIAN_POINT('',(-0.0126835921042573,0.0688954085667022,0.0254));
#843=CARTESIAN_POINT('',(0.,-4.28952135750147E-18,0.0254));
#844=CARTESIAN_POINT('',(-0.00633359210425731,-0.0697662987501623,0.0254));
#845=CARTESIAN_POINT('',(-0.00633359210425731,-0.0697662987501623,0.0254));
#846=CARTESIAN_POINT('',(-0.0071724150341413,-0.0696901479097027,0.0254));
#847=CARTESIAN_POINT('',(-0.00882038228464088,-0.0695092898471087,0.0250688907358429));
#848=CARTESIAN_POINT('',(-0.0116396332568889,-0.0690991115470533,0.0231980147031416));
#849=CARTESIAN_POINT('',(-0.0126835921042573,-0.0688954085667022,0.0207348600185843));
#850=CARTESIAN_POINT('',(-0.0126835921042573,-0.0688954085667022,0.01905));
#851=CARTESIAN_POINT('',(0.,0.1016,0.204724));
#852=CARTESIAN_POINT('',(0.,0.1016,0.0254));
#853=CARTESIAN_POINT('',(0.0126835921042573,0.100954638602934,0.0254));
#854=CARTESIAN_POINT('',(-0.0126835921042573,0.100954638602934,0.0254));
#855=CARTESIAN_POINT('',(-0.0126835921042573,0.100954638602934,0.204724));
#856=CARTESIAN_POINT('',(-0.0126835921042573,0.100954638602934,0.));
#857=CARTESIAN_POINT('',(0.,0.1016,0.));
#858=CARTESIAN_POINT('',(0.0126835921042573,0.100954638602934,0.));
#859=CARTESIAN_POINT('',(0.0126835921042573,0.100954638602934,0.204724));
#860=CARTESIAN_POINT('',(0.,0.,0.));
#861=CARTESIAN_POINT('',(-0.0126835921042573,-0.0279872373848133,0.));
#862=CARTESIAN_POINT('',(-0.0126835921042573,-0.0279872373848133,0.));
#863=CARTESIAN_POINT('',(0.0126835921042573,-0.0279872373848133,0.));
#864=CARTESIAN_POINT('',(0.0126835921042572,-0.0688954085667022,0.));
#865=CARTESIAN_POINT('',(0.,-4.28952135750147E-18,0.));
#866=CARTESIAN_POINT('',(0.0126835921042573,0.0688954085667022,0.));
#867=CARTESIAN_POINT('',(0.0126835921042573,-0.0279872373848133,0.));
#868=CARTESIAN_POINT('',(0.,-4.28952135750147E-18,0.0254));
#869=CARTESIAN_POINT('',(0.0126835921042572,-0.0688954085667022,0.0254));
#870=CARTESIAN_POINT('',(0.0126835921042572,-0.0688954085667022,0.01905));
#871=CARTESIAN_POINT('',(0.0126835921042572,-0.0688954085667022,0.01905));
#872=CARTESIAN_POINT('',(0.0126835921042572,-0.0688954085667022,0.0198923105837599));
#873=CARTESIAN_POINT('',(0.0123489884883873,-0.0689579662147505,0.0215501545009084));
#874=CARTESIAN_POINT('',(0.0104622820137795,-0.0692853571865306,0.024370962988272));
#875=CARTESIAN_POINT('',(0.00801093181497558,-0.0696140248623643,0.0254));
#876=CARTESIAN_POINT('',(0.00633359210425725,-0.0697662987501623,0.0254));
#877=CARTESIAN_POINT('',(0.00633359210425725,-0.0697662987501623,0.0254));
#878=CARTESIAN_POINT('',(0.,-4.28952135750147E-18,0.0254));
#879=CARTESIAN_POINT('',(0.0126835921042573,0.0688954085667022,0.0254));
#880=CARTESIAN_POINT('',(0.0126835921042573,0.0688954085667022,0.0254));
#881=CARTESIAN_POINT('',(0.,2.77555756156289E-17,0.0254));
#882=CARTESIAN_POINT('',(0.,-0.0235029179124132,0.0254));
#883=CARTESIAN_POINT('',(-0.00635,-0.0235029179124132,0.0254));
#884=CARTESIAN_POINT('',(0.00633359210425726,2.6574470161342E-17,0.0254));
#885=CARTESIAN_POINT('',(-0.00633359210425731,-0.0688954085667022,0.0254));
#886=CARTESIAN_POINT('',(-0.0126835921042573,-0.0279872373848133,0.0254));
#887=CARTESIAN_POINT('',(0.0126835921042573,-0.0279872373848133,0.0254));
#888=CARTESIAN_POINT('',(0.,-0.11879610131065,0.0590413634470904));
#889=CARTESIAN_POINT('',(1.08841148415073E-18,-0.12065,0.0585212569884297));
#890=CARTESIAN_POINT('',(0.,-0.12065,0.0565957827406888));
#891=CARTESIAN_POINT('',(-0.0154584823670284,-0.11879610131065,0.0590413634470904));
#892=CARTESIAN_POINT('',(-0.0157171685919812,-0.12065,0.0585212569884297));
#893=CARTESIAN_POINT('',(-0.0157909228480397,-0.12065,0.0565957827406888));
#894=CARTESIAN_POINT('',(-0.046375447101085,-0.112646334663206,0.0607666644956144));
#895=CARTESIAN_POINT('',(-0.0474129370276158,-0.114339256273302,0.0602917197381282));
#896=CARTESIAN_POINT('',(-0.0473727685441191,-0.114367980306374,0.0583210837892128));
#897=CARTESIAN_POINT('',(-0.0856906527755047,-0.0863767540861548,0.068136527046855));
#898=CARTESIAN_POINT('',(-0.0875926962353717,-0.0874606544642802,0.0678324416130358));
#899=CARTESIAN_POINT('',(-0.0875334625126123,-0.0875334625126123,0.0656909463404533));
#900=CARTESIAN_POINT('',(-0.111960233352556,-0.0470615484117351,0.0791663058110943));
#901=CARTESIAN_POINT('',(-0.114412245695837,-0.0472482622651569,0.0791139237248217));
#902=CARTESIAN_POINT('',(-0.114367980306374,-0.047372768544119,0.0767207251046926));
#903=CARTESIAN_POINT('',(-0.121184883323722,-0.000686101310650254,0.0921768169566703));
#904=CARTESIAN_POINT('',(-0.123788691588499,0.000158122032915464,0.0924136616214101));
#905=CARTESIAN_POINT('',(-0.123791009846813,-3.68628738645072E-17,0.0897312362502686));
#906=CARTESIAN_POINT('',(-0.111960233352556,0.0456893457904348,0.105187328102246));
#907=CARTESIAN_POINT('',(-0.114308970125292,0.0475254148923896,0.105702432516506));
#908=CARTESIAN_POINT('',(-0.114367980306374,0.0473727685441191,0.102741747395845));
#909=CARTESIAN_POINT('',(-0.0856906527755045,0.0850045514648546,0.116217106866486));
#910=CARTESIAN_POINT('',(-0.0874430258317626,0.087640113620384,0.11695650697889));
#911=CARTESIAN_POINT('',(-0.0875334625126121,0.0875334625126124,0.113771526160084));
#912=CARTESIAN_POINT('',(-0.0463754471010853,0.111274132041905,0.123586969417726));
#913=CARTESIAN_POINT('',(-0.0473045199567945,0.114416237574187,0.124468478957876));
#914=CARTESIAN_POINT('',(-0.0473727685441194,0.114367980306374,0.121141388711324));
#915=CARTESIAN_POINT('',(1.37025155152039E-16,0.120498782013072,0.126174920990512));
#916=CARTESIAN_POINT('',(8.64852003373081E-18,0.123812475178245,0.12710456899508));
#917=CARTESIAN_POINT('',(1.39417282074203E-16,0.123791009846813,0.12372934028411));
#918=CARTESIAN_POINT('',(0.0463754471010847,0.111274132041905,0.123586969417726));
#919=CARTESIAN_POINT('',(0.0473045199567938,0.114416237574187,0.124468478957876));
#920=CARTESIAN_POINT('',(0.0473727685441188,0.114367980306374,0.121141388711324));
#921=CARTESIAN_POINT('',(0.0856906527755049,0.0850045514648542,0.116217106866485));
#922=CARTESIAN_POINT('',(0.0874430258317631,0.0876401136203836,0.11695650697889));
#923=CARTESIAN_POINT('',(0.0875334625126125,0.087533462512612,0.113771526160084));
#924=CARTESIAN_POINT('',(0.111960233352555,0.0456893457904351,0.105187328102246));
#925=CARTESIAN_POINT('',(0.114308970125291,0.0475254148923899,0.105702432516506));
#926=CARTESIAN_POINT('',(0.114367980306374,0.0473727685441194,0.102741747395845));
#927=CARTESIAN_POINT('',(0.121184883323722,-0.000686101310650668,0.0921768169566701));
#928=CARTESIAN_POINT('',(0.123788691588499,0.000158122032914902,0.0924136616214099));
#929=CARTESIAN_POINT('',(0.123791009846813,-4.57533316788883E-16,0.0897312362502685));
#930=CARTESIAN_POINT('',(0.111960233352556,-0.0470615484117349,0.0791663058110944));
#931=CARTESIAN_POINT('',(0.114412245695837,-0.0472482622651566,0.0791139237248218));
#932=CARTESIAN_POINT('',(0.114367980306374,-0.0473727685441187,0.0767207251046927));
#933=CARTESIAN_POINT('',(0.085690652775505,-0.0863767540861545,0.0681365270468551));
#934=CARTESIAN_POINT('',(0.087592696235372,-0.0874606544642799,0.0678324416130358));
#935=CARTESIAN_POINT('',(0.0875334625126126,-0.0875334625126119,0.0656909463404534));
#936=CARTESIAN_POINT('',(0.0463754471010851,-0.112646334663206,0.0607666644956145));
#937=CARTESIAN_POINT('',(0.0474129370276159,-0.114339256273302,0.0602917197381282));
#938=CARTESIAN_POINT('',(0.0473727685441192,-0.114367980306374,0.0583210837892128));
#939=CARTESIAN_POINT('',(0.0154584823670284,-0.11879610131065,0.0590413634470905));
#940=CARTESIAN_POINT('',(0.0157171685919813,-0.12065,0.0585212569884297));
#941=CARTESIAN_POINT('',(0.0157909228480397,-0.12065,0.0565957827406888));
#942=CARTESIAN_POINT('',(0.,-0.11879610131065,0.0590413634470904));
#943=CARTESIAN_POINT('',(1.08841148415073E-18,-0.12065,0.0585212569884297));
#944=CARTESIAN_POINT('',(0.,-0.12065,0.0565957827406888));
#945=CARTESIAN_POINT('',(0.0126835921042573,-0.0279872373848133,0.0254));
#946=CARTESIAN_POINT('',(-0.0126835921042573,-0.0279872373848133,0.0254));
#947=CARTESIAN_POINT('',(-0.0126835921042573,-0.0279872373848133,0.0254));
#948=CARTESIAN_POINT('',(-0.0126835921042573,-0.11998145269721,0.01905));
#949=CARTESIAN_POINT('',(0.0126835921042573,-0.0279872373848133,0.0254));
#950=CARTESIAN_POINT('',(0.0126835921042573,-0.0279872373848133,0.01905));
#951=CARTESIAN_POINT('',(0.00633359210425726,2.6574470161342E-17,0.01905));
#952=CARTESIAN_POINT('',(-0.00633359210425731,-0.0279872373848133,0.01905));
#953=CARTESIAN_POINT('',(1.38777878078145E-17,0.0825924920627001,0.108945248256123));
#954=CARTESIAN_POINT('',(0.0790747835950787,0.0808772387860745,0.115059200022127));
#955=CARTESIAN_POINT('',(-0.0790747835950787,0.0825924920627001,0.108945248256123));
#956=CARTESIAN_POINT('',(-0.0854247835950786,0.00102915196597533,0.0860628651906661));
#957=CARTESIAN_POINT('',(-0.0854247835950786,-0.0744202363647452,0.0648957354018352));
#958=CARTESIAN_POINT('',(-0.0854247835950786,0.0764785402966959,0.107229994979497));
#959=CARTESIAN_POINT('',(1.38777878078145E-17,-0.0805341881307494,0.0631804821252096));
#960=CARTESIAN_POINT('',(0.0790747835950787,-0.0805341881307494,0.0631804821252096));
#961=CARTESIAN_POINT('',(-0.0790747835950787,-0.082249441407375,0.0692944338912138));
#962=CARTESIAN_POINT('',(0.0854247835950787,0.00102915196597533,0.0860628651906661));
#963=CARTESIAN_POINT('',(0.0854247835950787,-0.0744202363647452,0.0648957354018352));
#964=CARTESIAN_POINT('',(0.0854247835950787,0.0764785402966959,0.107229994979497));
#965=CARTESIAN_POINT('',(0.0790747835950787,-0.0744202363647452,0.0648957354018352));
#966=CARTESIAN_POINT('',(-0.0790747835950787,-0.0744202363647452,0.0648957354018352));
#967=CARTESIAN_POINT('',(0.0790747835950787,0.0764785402966959,0.107229994979497));
#968=CARTESIAN_POINT('',(-0.0790747835950787,0.0764785402966959,0.107229994979497));
#969=CARTESIAN_POINT('',(6.93889390390723E-18,-0.0555611294663438,0.0569962855947834));
#970=CARTESIAN_POINT('',(0.0381,-0.0555611294663438,0.0569962855947834));
#971=CARTESIAN_POINT('',(0.0381,-0.0555611294663438,0.0569962855947834));
#972=CARTESIAN_POINT('',(6.93889390390723E-18,-0.0555611294663438,0.0569962855947834));
#973=CARTESIAN_POINT('',(-0.0381,-0.0555611294663438,0.0569962855947834));
#974=CARTESIAN_POINT('',(-0.0381,-0.0555611294663438,0.0569962855947834));
#975=CARTESIAN_POINT('',(0.0381,-0.0188774188703188,0.0672878052545367));
#976=CARTESIAN_POINT('',(0.0381,0.0178062917257061,0.07757932491429));
#977=CARTESIAN_POINT('',(0.0381,0.0178062917257061,0.07757932491429));
#978=CARTESIAN_POINT('',(0.0381,-0.0188774188703188,0.0672878052545367));
#979=CARTESIAN_POINT('',(6.93889390390723E-18,0.017806291725706,0.07757932491429));
#980=CARTESIAN_POINT('',(-0.0381,0.0178062917257061,0.07757932491429));
#981=CARTESIAN_POINT('',(-0.0381,0.0178062917257061,0.07757932491429));
#982=CARTESIAN_POINT('',(6.93889390390723E-18,0.017806291725706,0.07757932491429));
#983=CARTESIAN_POINT('',(-0.0381,-0.0188774188703188,0.0672878052545367));
#984=CARTESIAN_POINT('',(-0.0381,-0.0188774188703188,0.0672878052545367));
#985=CARTESIAN_POINT('',(1.38777878078145E-17,0.00445965851922644,0.0738349616586578));
#986=CARTESIAN_POINT('',(0.,-0.0235029179124132,0.0659901335208315));
#987=CARTESIAN_POINT('',(0.,-0.0298529179124132,0.0642086575256928));
#988=CARTESIAN_POINT('',(0.,-0.0235029179124132,0.091186));
#989=MECHANICAL_DESIGN_GEOMETRIC_PRESENTATION_REPRESENTATION('',(#541),
#990);
#990=(
GEOMETRIC_REPRESENTATION_CONTEXT(3)
GLOBAL_UNCERTAINTY_ASSIGNED_CONTEXT((#991))
GLOBAL_UNIT_ASSIGNED_CONTEXT((#994,#993,#992))
REPRESENTATION_CONTEXT('Part 1','TOP_LEVEL_ASSEMBLY_PART')
);
#991=UNCERTAINTY_MEASURE_WITH_UNIT(LENGTH_MEASURE(2.E-5),#994,
'DISTANCE_ACCURACY_VALUE','Maximum Tolerance applied to model');
#992=(
NAMED_UNIT(*)
SI_UNIT($,.STERADIAN.)
SOLID_ANGLE_UNIT()
);
#993=(
NAMED_UNIT(*)
PLANE_ANGLE_UNIT()
SI_UNIT($,.RADIAN.)
);
#994=(
LENGTH_UNIT()
NAMED_UNIT(*)
SI_UNIT($,.METRE.)
);
#995=PRODUCT_DEFINITION_SHAPE('','',#996);
#996=PRODUCT_DEFINITION('','',#998,#997);
#997=PRODUCT_DEFINITION_CONTEXT('',#1004,'design');
#998=PRODUCT_DEFINITION_FORMATION_WITH_SPECIFIED_SOURCE('','',#1000,
 .NOT_KNOWN.);
#999=PRODUCT_RELATED_PRODUCT_CATEGORY('','',(#1000));
#1000=PRODUCT('Part 1','Part 1','Part 1',(#1002));
#1001=PRODUCT_CATEGORY('','');
#1002=PRODUCT_CONTEXT('',#1004,'mechanical');
#1003=APPLICATION_PROTOCOL_DEFINITION('international standard',
'ap242_managed_model_based_3d_engineering',2020,#1004);
#1004=APPLICATION_CONTEXT('managed model based 3d engineering');
ENDSEC;
END-ISO-10303-21;
