ISO-10303-21;
HEADER;
/* Generated by software containing ST-Developer
 * from STEP Tools, Inc. (www.steptools.com) 
 */
/* OPTION: using custom renumber hook */

FILE_DESCRIPTION(
/* description */ ('STEP AP242 Edition 2',
'CAx-IF Rec.Pracs.---Representation and Presentation of Product Manufa
cturing Information (PMI)---4.0---2014-10-13',
'CAx-IF Rec.Pracs.---3D Tessellated Geometry---0.4---2014-09-14','2;1',
'CAx-IF Rec.Pracs.---User Defined Attributes---1.5---2016-08-15'),
/* implementation_level */ '2;1');

FILE_NAME(
/* name */ 'Snap Floatation - Part 1',
/* time_stamp */ '2026-08-15T18:27:17Z',
/* author */ (''),
/* organization */ (''),
/* preprocessor_version */ 'ST-DEVELOPER v20',
/* originating_system */ 'ONSHAPE BY PTC INC, 1.219',
/* authorisation */ '  ');

FILE_SCHEMA (('AP242_MANAGED_MODEL_BASED_3D_ENGINEERING_MIM_LF { 1 0 10303 442 3 1 4 }'));
ENDSEC;

DATA;
#10=SHAPE_REPRESENTATION_RELATIONSHIP('','',#615,#11);
#11=ADVANCED_BREP_SHAPE_REPRESENTATION('',(#613),#1029);
#12=PLANE('',#635);
#13=PLANE('',#646);
#14=PLANE('',#664);
#15=PLANE('',#667);
#16=PLANE('',#669);
#17=PLANE('',#670);
#18=PLANE('',#671);
#19=PLANE('',#672);
#20=PLANE('',#673);
#21=PLANE('',#674);
#22=PLANE('',#675);
#23=PLANE('',#676);
#24=PLANE('',#677);
#25=PLANE('',#678);
#26=PLANE('',#679);
#27=PLANE('',#680);
#28=CIRCLE('',#618,0.118851222446664);
#29=CIRCLE('',#619,0.118851222446664);
#30=CIRCLE('',#621,0.118851222446664);
#31=CIRCLE('',#622,0.118851222446664);
#32=CIRCLE('',#624,0.118851222446664);
#33=CIRCLE('',#625,0.118851222446664);
#34=CIRCLE('',#627,0.118851222446664);
#35=CIRCLE('',#628,0.118851222446664);
#36=CIRCLE('',#630,0.118851222446664);
#37=CIRCLE('',#631,0.118851222446664);
#38=CIRCLE('',#633,0.118851222446664);
#39=CIRCLE('',#634,0.118851222446664);
#40=CIRCLE('',#636,0.072543169476831);
#41=CIRCLE('',#637,0.072543169476831);
#42=CIRCLE('',#638,0.072543169476831);
#43=CIRCLE('',#639,0.072543169476831);
#44=CIRCLE('',#640,0.072543169476831);
#45=CIRCLE('',#641,0.072543169476831);
#46=CIRCLE('',#642,0.12065);
#47=CIRCLE('',#643,0.06985);
#48=CIRCLE('',#645,0.12065);
#49=CIRCLE('',#647,0.072543169476831);
#50=CIRCLE('',#648,0.072543169476831);
#51=CIRCLE('',#649,0.072543169476831);
#52=CIRCLE('',#650,0.072543169476831);
#53=CIRCLE('',#651,0.072543169476831);
#54=CIRCLE('',#652,0.072543169476831);
#55=CIRCLE('',#653,0.0700532);
#56=CIRCLE('',#660,0.057785);
#57=CIRCLE('',#661,0.057785);
#58=CIRCLE('',#663,0.06985);
#59=CIRCLE('',#666,0.0700532);
#60=ORIENTED_EDGE('',*,*,#220,.F.);
#61=ORIENTED_EDGE('',*,*,#221,.F.);
#62=ORIENTED_EDGE('',*,*,#222,.T.);
#63=ORIENTED_EDGE('',*,*,#223,.T.);
#64=ORIENTED_EDGE('',*,*,#224,.F.);
#65=ORIENTED_EDGE('',*,*,#225,.F.);
#66=ORIENTED_EDGE('',*,*,#226,.T.);
#67=ORIENTED_EDGE('',*,*,#227,.T.);
#68=ORIENTED_EDGE('',*,*,#228,.F.);
#69=ORIENTED_EDGE('',*,*,#229,.F.);
#70=ORIENTED_EDGE('',*,*,#230,.T.);
#71=ORIENTED_EDGE('',*,*,#231,.T.);
#72=ORIENTED_EDGE('',*,*,#232,.F.);
#73=ORIENTED_EDGE('',*,*,#233,.F.);
#74=ORIENTED_EDGE('',*,*,#234,.T.);
#75=ORIENTED_EDGE('',*,*,#235,.T.);
#76=ORIENTED_EDGE('',*,*,#236,.F.);
#77=ORIENTED_EDGE('',*,*,#237,.F.);
#78=ORIENTED_EDGE('',*,*,#238,.T.);
#79=ORIENTED_EDGE('',*,*,#239,.T.);
#80=ORIENTED_EDGE('',*,*,#240,.F.);
#81=ORIENTED_EDGE('',*,*,#241,.T.);
#82=ORIENTED_EDGE('',*,*,#242,.T.);
#83=ORIENTED_EDGE('',*,*,#243,.F.);
#84=ORIENTED_EDGE('',*,*,#223,.F.);
#85=ORIENTED_EDGE('',*,*,#244,.T.);
#86=ORIENTED_EDGE('',*,*,#245,.T.);
#87=ORIENTED_EDGE('',*,*,#246,.F.);
#88=ORIENTED_EDGE('',*,*,#242,.F.);
#89=ORIENTED_EDGE('',*,*,#247,.T.);
#90=ORIENTED_EDGE('',*,*,#248,.T.);
#91=ORIENTED_EDGE('',*,*,#249,.F.);
#92=ORIENTED_EDGE('',*,*,#239,.F.);
#93=ORIENTED_EDGE('',*,*,#250,.T.);
#94=ORIENTED_EDGE('',*,*,#251,.T.);
#95=ORIENTED_EDGE('',*,*,#252,.F.);
#96=ORIENTED_EDGE('',*,*,#235,.F.);
#97=ORIENTED_EDGE('',*,*,#253,.T.);
#98=ORIENTED_EDGE('',*,*,#254,.T.);
#99=ORIENTED_EDGE('',*,*,#255,.F.);
#100=ORIENTED_EDGE('',*,*,#231,.F.);
#101=ORIENTED_EDGE('',*,*,#256,.T.);
#102=ORIENTED_EDGE('',*,*,#257,.T.);
#103=ORIENTED_EDGE('',*,*,#258,.F.);
#104=ORIENTED_EDGE('',*,*,#259,.F.);
#105=ORIENTED_EDGE('',*,*,#227,.F.);
#106=ORIENTED_EDGE('',*,*,#260,.T.);
#107=ORIENTED_EDGE('',*,*,#261,.T.);
#108=ORIENTED_EDGE('',*,*,#262,.T.);
#109=ORIENTED_EDGE('',*,*,#263,.F.);
#110=ORIENTED_EDGE('',*,*,#262,.F.);
#111=ORIENTED_EDGE('',*,*,#264,.T.);
#112=ORIENTED_EDGE('',*,*,#265,.F.);
#113=ORIENTED_EDGE('',*,*,#221,.T.);
#114=ORIENTED_EDGE('',*,*,#266,.T.);
#115=ORIENTED_EDGE('',*,*,#267,.F.);
#116=ORIENTED_EDGE('',*,*,#268,.F.);
#117=ORIENTED_EDGE('',*,*,#240,.T.);
#118=ORIENTED_EDGE('',*,*,#269,.T.);
#119=ORIENTED_EDGE('',*,*,#270,.F.);
#120=ORIENTED_EDGE('',*,*,#271,.F.);
#121=ORIENTED_EDGE('',*,*,#237,.T.);
#122=ORIENTED_EDGE('',*,*,#272,.T.);
#123=ORIENTED_EDGE('',*,*,#273,.F.);
#124=ORIENTED_EDGE('',*,*,#274,.F.);
#125=ORIENTED_EDGE('',*,*,#233,.T.);
#126=ORIENTED_EDGE('',*,*,#275,.T.);
#127=ORIENTED_EDGE('',*,*,#276,.F.);
#128=ORIENTED_EDGE('',*,*,#277,.F.);
#129=ORIENTED_EDGE('',*,*,#229,.T.);
#130=ORIENTED_EDGE('',*,*,#278,.T.);
#131=ORIENTED_EDGE('',*,*,#279,.F.);
#132=ORIENTED_EDGE('',*,*,#225,.T.);
#133=ORIENTED_EDGE('',*,*,#280,.T.);
#134=ORIENTED_EDGE('',*,*,#281,.F.);
#135=ORIENTED_EDGE('',*,*,#282,.F.);
#136=ORIENTED_EDGE('',*,*,#264,.F.);
#137=ORIENTED_EDGE('',*,*,#283,.F.);
#138=ORIENTED_EDGE('',*,*,#270,.T.);
#139=ORIENTED_EDGE('',*,*,#284,.T.);
#140=ORIENTED_EDGE('',*,*,#248,.F.);
#141=ORIENTED_EDGE('',*,*,#285,.F.);
#142=ORIENTED_EDGE('',*,*,#286,.F.);
#143=ORIENTED_EDGE('',*,*,#273,.T.);
#144=ORIENTED_EDGE('',*,*,#287,.T.);
#145=ORIENTED_EDGE('',*,*,#251,.F.);
#146=ORIENTED_EDGE('',*,*,#288,.F.);
#147=ORIENTED_EDGE('',*,*,#276,.T.);
#148=ORIENTED_EDGE('',*,*,#289,.T.);
#149=ORIENTED_EDGE('',*,*,#254,.F.);
#150=ORIENTED_EDGE('',*,*,#290,.F.);
#151=ORIENTED_EDGE('',*,*,#279,.T.);
#152=ORIENTED_EDGE('',*,*,#291,.T.);
#153=ORIENTED_EDGE('',*,*,#257,.F.);
#154=ORIENTED_EDGE('',*,*,#292,.F.);
#155=ORIENTED_EDGE('',*,*,#281,.T.);
#156=ORIENTED_EDGE('',*,*,#293,.T.);
#157=ORIENTED_EDGE('',*,*,#261,.F.);
#158=ORIENTED_EDGE('',*,*,#294,.T.);
#159=ORIENTED_EDGE('',*,*,#295,.T.);
#160=ORIENTED_EDGE('',*,*,#296,.F.);
#161=ORIENTED_EDGE('',*,*,#263,.T.);
#162=ORIENTED_EDGE('',*,*,#294,.F.);
#163=ORIENTED_EDGE('',*,*,#296,.T.);
#164=ORIENTED_EDGE('',*,*,#297,.F.);
#165=ORIENTED_EDGE('',*,*,#283,.T.);
#166=ORIENTED_EDGE('',*,*,#295,.F.);
#167=ORIENTED_EDGE('',*,*,#297,.T.);
#168=ORIENTED_EDGE('',*,*,#298,.F.);
#169=ORIENTED_EDGE('',*,*,#267,.T.);
#170=ORIENTED_EDGE('',*,*,#299,.T.);
#171=ORIENTED_EDGE('',*,*,#245,.F.);
#172=ORIENTED_EDGE('',*,*,#268,.T.);
#173=ORIENTED_EDGE('',*,*,#285,.T.);
#174=ORIENTED_EDGE('',*,*,#247,.F.);
#175=ORIENTED_EDGE('',*,*,#241,.F.);
#176=ORIENTED_EDGE('',*,*,#299,.F.);
#177=ORIENTED_EDGE('',*,*,#266,.F.);
#178=ORIENTED_EDGE('',*,*,#220,.T.);
#179=ORIENTED_EDGE('',*,*,#246,.T.);
#180=ORIENTED_EDGE('',*,*,#265,.T.);
#181=ORIENTED_EDGE('',*,*,#298,.T.);
#182=ORIENTED_EDGE('',*,*,#244,.F.);
#183=ORIENTED_EDGE('',*,*,#222,.F.);
#184=ORIENTED_EDGE('',*,*,#293,.F.);
#185=ORIENTED_EDGE('',*,*,#280,.F.);
#186=ORIENTED_EDGE('',*,*,#224,.T.);
#187=ORIENTED_EDGE('',*,*,#259,.T.);
#188=ORIENTED_EDGE('',*,*,#282,.T.);
#189=ORIENTED_EDGE('',*,*,#292,.T.);
#190=ORIENTED_EDGE('',*,*,#260,.F.);
#191=ORIENTED_EDGE('',*,*,#226,.F.);
#192=ORIENTED_EDGE('',*,*,#291,.F.);
#193=ORIENTED_EDGE('',*,*,#278,.F.);
#194=ORIENTED_EDGE('',*,*,#228,.T.);
#195=ORIENTED_EDGE('',*,*,#258,.T.);
#196=ORIENTED_EDGE('',*,*,#277,.T.);
#197=ORIENTED_EDGE('',*,*,#290,.T.);
#198=ORIENTED_EDGE('',*,*,#256,.F.);
#199=ORIENTED_EDGE('',*,*,#230,.F.);
#200=ORIENTED_EDGE('',*,*,#289,.F.);
#201=ORIENTED_EDGE('',*,*,#275,.F.);
#202=ORIENTED_EDGE('',*,*,#232,.T.);
#203=ORIENTED_EDGE('',*,*,#255,.T.);
#204=ORIENTED_EDGE('',*,*,#274,.T.);
#205=ORIENTED_EDGE('',*,*,#288,.T.);
#206=ORIENTED_EDGE('',*,*,#253,.F.);
#207=ORIENTED_EDGE('',*,*,#234,.F.);
#208=ORIENTED_EDGE('',*,*,#287,.F.);
#209=ORIENTED_EDGE('',*,*,#272,.F.);
#210=ORIENTED_EDGE('',*,*,#236,.T.);
#211=ORIENTED_EDGE('',*,*,#252,.T.);
#212=ORIENTED_EDGE('',*,*,#271,.T.);
#213=ORIENTED_EDGE('',*,*,#286,.T.);
#214=ORIENTED_EDGE('',*,*,#250,.F.);
#215=ORIENTED_EDGE('',*,*,#238,.F.);
#216=ORIENTED_EDGE('',*,*,#284,.F.);
#217=ORIENTED_EDGE('',*,*,#269,.F.);
#218=ORIENTED_EDGE('',*,*,#243,.T.);
#219=ORIENTED_EDGE('',*,*,#249,.T.);
#220=EDGE_CURVE('',#300,#301,#356,.T.);
#221=EDGE_CURVE('',#302,#300,#28,.T.);
#222=EDGE_CURVE('',#302,#303,#357,.T.);
#223=EDGE_CURVE('',#303,#301,#29,.T.);
#224=EDGE_CURVE('',#304,#305,#358,.T.);
#225=EDGE_CURVE('',#306,#304,#30,.T.);
#226=EDGE_CURVE('',#306,#307,#359,.T.);
#227=EDGE_CURVE('',#307,#305,#31,.T.);
#228=EDGE_CURVE('',#308,#309,#360,.T.);
#229=EDGE_CURVE('',#310,#308,#32,.T.);
#230=EDGE_CURVE('',#310,#311,#361,.T.);
#231=EDGE_CURVE('',#311,#309,#33,.T.);
#232=EDGE_CURVE('',#312,#313,#362,.T.);
#233=EDGE_CURVE('',#314,#312,#34,.T.);
#234=EDGE_CURVE('',#314,#315,#363,.T.);
#235=EDGE_CURVE('',#315,#313,#35,.T.);
#236=EDGE_CURVE('',#316,#317,#364,.T.);
#237=EDGE_CURVE('',#318,#316,#36,.T.);
#238=EDGE_CURVE('',#318,#319,#365,.T.);
#239=EDGE_CURVE('',#319,#317,#37,.T.);
#240=EDGE_CURVE('',#320,#321,#38,.T.);
#241=EDGE_CURVE('',#320,#322,#366,.T.);
#242=EDGE_CURVE('',#322,#323,#39,.T.);
#243=EDGE_CURVE('',#321,#323,#367,.T.);
#244=EDGE_CURVE('',#303,#324,#368,.T.);
#245=EDGE_CURVE('',#324,#325,#40,.T.);
#246=EDGE_CURVE('',#301,#325,#369,.T.);
#247=EDGE_CURVE('',#322,#326,#370,.T.);
#248=EDGE_CURVE('',#326,#327,#41,.T.);
#249=EDGE_CURVE('',#323,#327,#371,.T.);
#250=EDGE_CURVE('',#319,#328,#372,.T.);
#251=EDGE_CURVE('',#328,#329,#42,.T.);
#252=EDGE_CURVE('',#317,#329,#373,.T.);
#253=EDGE_CURVE('',#315,#330,#374,.T.);
#254=EDGE_CURVE('',#330,#331,#43,.T.);
#255=EDGE_CURVE('',#313,#331,#375,.T.);
#256=EDGE_CURVE('',#311,#332,#376,.T.);
#257=EDGE_CURVE('',#332,#333,#44,.T.);
#258=EDGE_CURVE('',#309,#333,#377,.T.);
#259=EDGE_CURVE('',#305,#334,#378,.T.);
#260=EDGE_CURVE('',#307,#335,#379,.T.);
#261=EDGE_CURVE('',#335,#334,#45,.T.);
#262=EDGE_CURVE('',#336,#336,#46,.T.);
#263=EDGE_CURVE('',#337,#337,#47,.T.);
#264=EDGE_CURVE('',#338,#338,#48,.T.);
#265=EDGE_CURVE('',#302,#339,#380,.T.);
#266=EDGE_CURVE('',#300,#340,#381,.T.);
#267=EDGE_CURVE('',#339,#340,#49,.T.);
#268=EDGE_CURVE('',#320,#341,#382,.T.);
#269=EDGE_CURVE('',#321,#342,#383,.T.);
#270=EDGE_CURVE('',#341,#342,#50,.T.);
#271=EDGE_CURVE('',#318,#343,#384,.T.);
#272=EDGE_CURVE('',#316,#344,#385,.T.);
#273=EDGE_CURVE('',#343,#344,#51,.T.);
#274=EDGE_CURVE('',#314,#345,#386,.T.);
#275=EDGE_CURVE('',#312,#346,#387,.T.);
#276=EDGE_CURVE('',#345,#346,#52,.T.);
#277=EDGE_CURVE('',#310,#347,#388,.T.);
#278=EDGE_CURVE('',#308,#348,#389,.T.);
#279=EDGE_CURVE('',#347,#348,#53,.T.);
#280=EDGE_CURVE('',#304,#349,#390,.T.);
#281=EDGE_CURVE('',#350,#349,#54,.T.);
#282=EDGE_CURVE('',#306,#350,#391,.T.);
#283=EDGE_CURVE('',#351,#351,#55,.T.);
#284=EDGE_CURVE('',#342,#327,#392,.T.);
#285=EDGE_CURVE('',#341,#326,#393,.T.);
#286=EDGE_CURVE('',#343,#328,#394,.T.);
#287=EDGE_CURVE('',#344,#329,#395,.T.);
#288=EDGE_CURVE('',#345,#330,#396,.T.);
#289=EDGE_CURVE('',#346,#331,#397,.T.);
#290=EDGE_CURVE('',#347,#332,#398,.T.);
#291=EDGE_CURVE('',#348,#333,#399,.T.);
#292=EDGE_CURVE('',#350,#335,#400,.T.);
#293=EDGE_CURVE('',#349,#334,#401,.T.);
#294=EDGE_CURVE('',#352,#352,#56,.T.);
#295=EDGE_CURVE('',#353,#353,#57,.T.);
#296=EDGE_CURVE('',#354,#354,#58,.T.);
#297=EDGE_CURVE('',#355,#355,#59,.T.);
#298=EDGE_CURVE('',#339,#324,#402,.T.);
#299=EDGE_CURVE('',#340,#325,#403,.T.);
#300=VERTEX_POINT('',#862);
#301=VERTEX_POINT('',#863);
#302=VERTEX_POINT('',#865);
#303=VERTEX_POINT('',#867);
#304=VERTEX_POINT('',#871);
#305=VERTEX_POINT('',#872);
#306=VERTEX_POINT('',#874);
#307=VERTEX_POINT('',#876);
#308=VERTEX_POINT('',#880);
#309=VERTEX_POINT('',#881);
#310=VERTEX_POINT('',#883);
#311=VERTEX_POINT('',#885);
#312=VERTEX_POINT('',#889);
#313=VERTEX_POINT('',#890);
#314=VERTEX_POINT('',#892);
#315=VERTEX_POINT('',#894);
#316=VERTEX_POINT('',#898);
#317=VERTEX_POINT('',#899);
#318=VERTEX_POINT('',#901);
#319=VERTEX_POINT('',#903);
#320=VERTEX_POINT('',#907);
#321=VERTEX_POINT('',#908);
#322=VERTEX_POINT('',#910);
#323=VERTEX_POINT('',#912);
#324=VERTEX_POINT('',#916);
#325=VERTEX_POINT('',#918);
#326=VERTEX_POINT('',#921);
#327=VERTEX_POINT('',#923);
#328=VERTEX_POINT('',#926);
#329=VERTEX_POINT('',#928);
#330=VERTEX_POINT('',#931);
#331=VERTEX_POINT('',#933);
#332=VERTEX_POINT('',#936);
#333=VERTEX_POINT('',#938);
#334=VERTEX_POINT('',#941);
#335=VERTEX_POINT('',#943);
#336=VERTEX_POINT('',#946);
#337=VERTEX_POINT('',#948);
#338=VERTEX_POINT('',#951);
#339=VERTEX_POINT('',#954);
#340=VERTEX_POINT('',#956);
#341=VERTEX_POINT('',#959);
#342=VERTEX_POINT('',#961);
#343=VERTEX_POINT('',#964);
#344=VERTEX_POINT('',#966);
#345=VERTEX_POINT('',#969);
#346=VERTEX_POINT('',#971);
#347=VERTEX_POINT('',#974);
#348=VERTEX_POINT('',#976);
#349=VERTEX_POINT('',#979);
#350=VERTEX_POINT('',#981);
#351=VERTEX_POINT('',#984);
#352=VERTEX_POINT('',#1002);
#353=VERTEX_POINT('',#1004);
#354=VERTEX_POINT('',#1007);
#355=VERTEX_POINT('',#1011);
#356=LINE('',#861,#404);
#357=LINE('',#866,#405);
#358=LINE('',#870,#406);
#359=LINE('',#875,#407);
#360=LINE('',#879,#408);
#361=LINE('',#884,#409);
#362=LINE('',#888,#410);
#363=LINE('',#893,#411);
#364=LINE('',#897,#412);
#365=LINE('',#902,#413);
#366=LINE('',#909,#414);
#367=LINE('',#913,#415);
#368=LINE('',#915,#416);
#369=LINE('',#919,#417);
#370=LINE('',#920,#418);
#371=LINE('',#924,#419);
#372=LINE('',#925,#420);
#373=LINE('',#929,#421);
#374=LINE('',#930,#422);
#375=LINE('',#934,#423);
#376=LINE('',#935,#424);
#377=LINE('',#939,#425);
#378=LINE('',#940,#426);
#379=LINE('',#942,#427);
#380=LINE('',#953,#428);
#381=LINE('',#955,#429);
#382=LINE('',#958,#430);
#383=LINE('',#960,#431);
#384=LINE('',#963,#432);
#385=LINE('',#965,#433);
#386=LINE('',#968,#434);
#387=LINE('',#970,#435);
#388=LINE('',#973,#436);
#389=LINE('',#975,#437);
#390=LINE('',#978,#438);
#391=LINE('',#982,#439);
#392=LINE('',#986,#440);
#393=LINE('',#987,#441);
#394=LINE('',#989,#442);
#395=LINE('',#990,#443);
#396=LINE('',#992,#444);
#397=LINE('',#993,#445);
#398=LINE('',#995,#446);
#399=LINE('',#996,#447);
#400=LINE('',#998,#448);
#401=LINE('',#999,#449);
#402=LINE('',#1014,#450);
#403=LINE('',#1015,#451);
#404=VECTOR('',#685,1.);
#405=VECTOR('',#688,1.);
#406=VECTOR('',#693,1.);
#407=VECTOR('',#696,1.);
#408=VECTOR('',#701,1.);
#409=VECTOR('',#704,1.);
#410=VECTOR('',#709,1.);
#411=VECTOR('',#712,1.);
#412=VECTOR('',#717,1.);
#413=VECTOR('',#720,1.);
#414=VECTOR('',#727,1.);
#415=VECTOR('',#730,1.);
#416=VECTOR('',#733,1.);
#417=VECTOR('',#736,1.);
#418=VECTOR('',#737,1.);
#419=VECTOR('',#740,1.);
#420=VECTOR('',#741,1.);
#421=VECTOR('',#744,1.);
#422=VECTOR('',#745,1.);
#423=VECTOR('',#748,1.);
#424=VECTOR('',#749,1.);
#425=VECTOR('',#752,1.);
#426=VECTOR('',#753,1.);
#427=VECTOR('',#754,1.);
#428=VECTOR('',#767,1.);
#429=VECTOR('',#768,1.);
#430=VECTOR('',#771,1.);
#431=VECTOR('',#772,1.);
#432=VECTOR('',#775,1.);
#433=VECTOR('',#776,1.);
#434=VECTOR('',#779,1.);
#435=VECTOR('',#780,1.);
#436=VECTOR('',#783,1.);
#437=VECTOR('',#784,1.);
#438=VECTOR('',#787,1.);
#439=VECTOR('',#790,1.);
#440=VECTOR('',#795,1.);
#441=VECTOR('',#796,1.);
#442=VECTOR('',#799,1.);
#443=VECTOR('',#800,1.);
#444=VECTOR('',#803,1.);
#445=VECTOR('',#804,1.);
#446=VECTOR('',#807,1.);
#447=VECTOR('',#808,1.);
#448=VECTOR('',#811,1.);
#449=VECTOR('',#812,1.);
#450=VECTOR('',#833,1.);
#451=VECTOR('',#834,1.);
#452=EDGE_LOOP('',(#60,#61,#62,#63));
#453=EDGE_LOOP('',(#64,#65,#66,#67));
#454=EDGE_LOOP('',(#68,#69,#70,#71));
#455=EDGE_LOOP('',(#72,#73,#74,#75));
#456=EDGE_LOOP('',(#76,#77,#78,#79));
#457=EDGE_LOOP('',(#80,#81,#82,#83));
#458=EDGE_LOOP('',(#84,#85,#86,#87));
#459=EDGE_LOOP('',(#88,#89,#90,#91));
#460=EDGE_LOOP('',(#92,#93,#94,#95));
#461=EDGE_LOOP('',(#96,#97,#98,#99));
#462=EDGE_LOOP('',(#100,#101,#102,#103));
#463=EDGE_LOOP('',(#104,#105,#106,#107));
#464=EDGE_LOOP('',(#108));
#465=EDGE_LOOP('',(#109));
#466=EDGE_LOOP('',(#110));
#467=EDGE_LOOP('',(#111));
#468=EDGE_LOOP('',(#112,#113,#114,#115));
#469=EDGE_LOOP('',(#116,#117,#118,#119));
#470=EDGE_LOOP('',(#120,#121,#122,#123));
#471=EDGE_LOOP('',(#124,#125,#126,#127));
#472=EDGE_LOOP('',(#128,#129,#130,#131));
#473=EDGE_LOOP('',(#132,#133,#134,#135));
#474=EDGE_LOOP('',(#136));
#475=EDGE_LOOP('',(#137));
#476=EDGE_LOOP('',(#138,#139,#140,#141));
#477=EDGE_LOOP('',(#142,#143,#144,#145));
#478=EDGE_LOOP('',(#146,#147,#148,#149));
#479=EDGE_LOOP('',(#150,#151,#152,#153));
#480=EDGE_LOOP('',(#154,#155,#156,#157));
#481=EDGE_LOOP('',(#158));
#482=EDGE_LOOP('',(#159));
#483=EDGE_LOOP('',(#160));
#484=EDGE_LOOP('',(#161));
#485=EDGE_LOOP('',(#162));
#486=EDGE_LOOP('',(#163));
#487=EDGE_LOOP('',(#164));
#488=EDGE_LOOP('',(#165));
#489=EDGE_LOOP('',(#166));
#490=EDGE_LOOP('',(#167));
#491=EDGE_LOOP('',(#168,#169,#170,#171));
#492=EDGE_LOOP('',(#172,#173,#174,#175));
#493=EDGE_LOOP('',(#176,#177,#178,#179));
#494=EDGE_LOOP('',(#180,#181,#182,#183));
#495=EDGE_LOOP('',(#184,#185,#186,#187));
#496=EDGE_LOOP('',(#188,#189,#190,#191));
#497=EDGE_LOOP('',(#192,#193,#194,#195));
#498=EDGE_LOOP('',(#196,#197,#198,#199));
#499=EDGE_LOOP('',(#200,#201,#202,#203));
#500=EDGE_LOOP('',(#204,#205,#206,#207));
#501=EDGE_LOOP('',(#208,#209,#210,#211));
#502=EDGE_LOOP('',(#212,#213,#214,#215));
#503=EDGE_LOOP('',(#216,#217,#218,#219));
#504=FACE_BOUND('',#452,.T.);
#505=FACE_BOUND('',#453,.T.);
#506=FACE_BOUND('',#454,.T.);
#507=FACE_BOUND('',#455,.T.);
#508=FACE_BOUND('',#456,.T.);
#509=FACE_BOUND('',#457,.T.);
#510=FACE_BOUND('',#458,.T.);
#511=FACE_BOUND('',#459,.T.);
#512=FACE_BOUND('',#460,.T.);
#513=FACE_BOUND('',#461,.T.);
#514=FACE_BOUND('',#462,.T.);
#515=FACE_BOUND('',#463,.T.);
#516=FACE_BOUND('',#464,.T.);
#517=FACE_BOUND('',#465,.T.);
#518=FACE_BOUND('',#466,.T.);
#519=FACE_BOUND('',#467,.T.);
#520=FACE_BOUND('',#468,.T.);
#521=FACE_BOUND('',#469,.T.);
#522=FACE_BOUND('',#470,.T.);
#523=FACE_BOUND('',#471,.T.);
#524=FACE_BOUND('',#472,.T.);
#525=FACE_BOUND('',#473,.T.);
#526=FACE_BOUND('',#474,.T.);
#527=FACE_BOUND('',#475,.T.);
#528=FACE_BOUND('',#476,.T.);
#529=FACE_BOUND('',#477,.T.);
#530=FACE_BOUND('',#478,.T.);
#531=FACE_BOUND('',#479,.T.);
#532=FACE_BOUND('',#480,.T.);
#533=FACE_BOUND('',#481,.T.);
#534=FACE_BOUND('',#482,.T.);
#535=FACE_BOUND('',#483,.T.);
#536=FACE_BOUND('',#484,.T.);
#537=FACE_BOUND('',#485,.T.);
#538=FACE_BOUND('',#486,.T.);
#539=FACE_BOUND('',#487,.T.);
#540=FACE_BOUND('',#488,.T.);
#541=FACE_BOUND('',#489,.T.);
#542=FACE_BOUND('',#490,.T.);
#543=FACE_BOUND('',#491,.T.);
#544=FACE_BOUND('',#492,.T.);
#545=FACE_BOUND('',#493,.T.);
#546=FACE_BOUND('',#494,.T.);
#547=FACE_BOUND('',#495,.T.);
#548=FACE_BOUND('',#496,.T.);
#549=FACE_BOUND('',#497,.T.);
#550=FACE_BOUND('',#498,.T.);
#551=FACE_BOUND('',#499,.T.);
#552=FACE_BOUND('',#500,.T.);
#553=FACE_BOUND('',#501,.T.);
#554=FACE_BOUND('',#502,.T.);
#555=FACE_BOUND('',#503,.T.);
#556=CYLINDRICAL_SURFACE('',#617,0.118851222446664);
#557=CYLINDRICAL_SURFACE('',#620,0.118851222446664);
#558=CYLINDRICAL_SURFACE('',#623,0.118851222446664);
#559=CYLINDRICAL_SURFACE('',#626,0.118851222446664);
#560=CYLINDRICAL_SURFACE('',#629,0.118851222446664);
#561=CYLINDRICAL_SURFACE('',#632,0.118851222446664);
#562=CYLINDRICAL_SURFACE('',#644,0.12065);
#563=CYLINDRICAL_SURFACE('',#654,0.072543169476831);
#564=CYLINDRICAL_SURFACE('',#655,0.072543169476831);
#565=CYLINDRICAL_SURFACE('',#656,0.072543169476831);
#566=CYLINDRICAL_SURFACE('',#657,0.072543169476831);
#567=CYLINDRICAL_SURFACE('',#658,0.072543169476831);
#568=CYLINDRICAL_SURFACE('',#659,0.057785);
#569=CYLINDRICAL_SURFACE('',#662,0.06985);
#570=CYLINDRICAL_SURFACE('',#665,0.0700532);
#571=CYLINDRICAL_SURFACE('',#668,0.072543169476831);
#572=ADVANCED_FACE('',(#504),#556,.F.);
#573=ADVANCED_FACE('',(#505),#557,.F.);
#574=ADVANCED_FACE('',(#506),#558,.F.);
#575=ADVANCED_FACE('',(#507),#559,.F.);
#576=ADVANCED_FACE('',(#508),#560,.F.);
#577=ADVANCED_FACE('',(#509),#561,.F.);
#578=ADVANCED_FACE('',(#510,#511,#512,#513,#514,#515,#516,#517),#12,.T.);
#579=ADVANCED_FACE('',(#518,#519),#562,.T.);
#580=ADVANCED_FACE('',(#520,#521,#522,#523,#524,#525,#526,#527),#13,.F.);
#581=ADVANCED_FACE('',(#528),#563,.T.);
#582=ADVANCED_FACE('',(#529),#564,.T.);
#583=ADVANCED_FACE('',(#530),#565,.T.);
#584=ADVANCED_FACE('',(#531),#566,.T.);
#585=ADVANCED_FACE('',(#532),#567,.T.);
#586=ADVANCED_FACE('',(#533,#534),#568,.F.);
#587=ADVANCED_FACE('',(#535,#536),#569,.T.);
#588=ADVANCED_FACE('',(#537,#538),#14,.T.);
#589=ADVANCED_FACE('',(#539,#540),#570,.F.);
#590=ADVANCED_FACE('',(#541,#542),#15,.T.);
#591=ADVANCED_FACE('',(#543),#571,.T.);
#592=ADVANCED_FACE('',(#544),#16,.T.);
#593=ADVANCED_FACE('',(#545),#17,.F.);
#594=ADVANCED_FACE('',(#546),#18,.T.);
#595=ADVANCED_FACE('',(#547),#19,.F.);
#596=ADVANCED_FACE('',(#548),#20,.T.);
#597=ADVANCED_FACE('',(#549),#21,.F.);
#598=ADVANCED_FACE('',(#550),#22,.T.);
#599=ADVANCED_FACE('',(#551),#23,.F.);
#600=ADVANCED_FACE('',(#552),#24,.T.);
#601=ADVANCED_FACE('',(#553),#25,.F.);
#602=ADVANCED_FACE('',(#554),#26,.T.);
#603=ADVANCED_FACE('',(#555),#27,.F.);
#604=CLOSED_SHELL('',(#572,#573,#574,#575,#576,#577,#578,#579,#580,#581,
#582,#583,#584,#585,#586,#587,#588,#589,#590,#591,#592,#593,#594,#595,#596,
#597,#598,#599,#600,#601,#602,#603));
#605=STYLED_ITEM('',(#606),#613);
#606=PRESENTATION_STYLE_ASSIGNMENT((#607));
#607=SURFACE_STYLE_USAGE(.BOTH.,#608);
#608=SURFACE_SIDE_STYLE('',(#609));
#609=SURFACE_STYLE_FILL_AREA(#610);
#610=FILL_AREA_STYLE('',(#611));
#611=FILL_AREA_STYLE_COLOUR('',#612);
#612=COLOUR_RGB('',0.615686274509804,0.811764705882353,0.929411764705882);
#613=MANIFOLD_SOLID_BREP('Part 1',#604);
#614=SHAPE_DEFINITION_REPRESENTATION(#1034,#615);
#615=SHAPE_REPRESENTATION('Part 1',(#616),#1029);
#616=AXIS2_PLACEMENT_3D('',#859,#681,#682);
#617=AXIS2_PLACEMENT_3D('',#860,#683,#684);
#618=AXIS2_PLACEMENT_3D('',#864,#686,#687);
#619=AXIS2_PLACEMENT_3D('',#868,#689,#690);
#620=AXIS2_PLACEMENT_3D('',#869,#691,#692);
#621=AXIS2_PLACEMENT_3D('',#873,#694,#695);
#622=AXIS2_PLACEMENT_3D('',#877,#697,#698);
#623=AXIS2_PLACEMENT_3D('',#878,#699,#700);
#624=AXIS2_PLACEMENT_3D('',#882,#702,#703);
#625=AXIS2_PLACEMENT_3D('',#886,#705,#706);
#626=AXIS2_PLACEMENT_3D('',#887,#707,#708);
#627=AXIS2_PLACEMENT_3D('',#891,#710,#711);
#628=AXIS2_PLACEMENT_3D('',#895,#713,#714);
#629=AXIS2_PLACEMENT_3D('',#896,#715,#716);
#630=AXIS2_PLACEMENT_3D('',#900,#718,#719);
#631=AXIS2_PLACEMENT_3D('',#904,#721,#722);
#632=AXIS2_PLACEMENT_3D('',#905,#723,#724);
#633=AXIS2_PLACEMENT_3D('',#906,#725,#726);
#634=AXIS2_PLACEMENT_3D('',#911,#728,#729);
#635=AXIS2_PLACEMENT_3D('',#914,#731,#732);
#636=AXIS2_PLACEMENT_3D('',#917,#734,#735);
#637=AXIS2_PLACEMENT_3D('',#922,#738,#739);
#638=AXIS2_PLACEMENT_3D('',#927,#742,#743);
#639=AXIS2_PLACEMENT_3D('',#932,#746,#747);
#640=AXIS2_PLACEMENT_3D('',#937,#750,#751);
#641=AXIS2_PLACEMENT_3D('',#944,#755,#756);
#642=AXIS2_PLACEMENT_3D('',#945,#757,#758);
#643=AXIS2_PLACEMENT_3D('',#947,#759,#760);
#644=AXIS2_PLACEMENT_3D('',#949,#761,#762);
#645=AXIS2_PLACEMENT_3D('',#950,#763,#764);
#646=AXIS2_PLACEMENT_3D('',#952,#765,#766);
#647=AXIS2_PLACEMENT_3D('',#957,#769,#770);
#648=AXIS2_PLACEMENT_3D('',#962,#773,#774);
#649=AXIS2_PLACEMENT_3D('',#967,#777,#778);
#650=AXIS2_PLACEMENT_3D('',#972,#781,#782);
#651=AXIS2_PLACEMENT_3D('',#977,#785,#786);
#652=AXIS2_PLACEMENT_3D('',#980,#788,#789);
#653=AXIS2_PLACEMENT_3D('',#983,#791,#792);
#654=AXIS2_PLACEMENT_3D('',#985,#793,#794);
#655=AXIS2_PLACEMENT_3D('',#988,#797,#798);
#656=AXIS2_PLACEMENT_3D('',#991,#801,#802);
#657=AXIS2_PLACEMENT_3D('',#994,#805,#806);
#658=AXIS2_PLACEMENT_3D('',#997,#809,#810);
#659=AXIS2_PLACEMENT_3D('',#1000,#813,#814);
#660=AXIS2_PLACEMENT_3D('',#1001,#815,#816);
#661=AXIS2_PLACEMENT_3D('',#1003,#817,#818);
#662=AXIS2_PLACEMENT_3D('',#1005,#819,#820);
#663=AXIS2_PLACEMENT_3D('',#1006,#821,#822);
#664=AXIS2_PLACEMENT_3D('',#1008,#823,#824);
#665=AXIS2_PLACEMENT_3D('',#1009,#825,#826);
#666=AXIS2_PLACEMENT_3D('',#1010,#827,#828);
#667=AXIS2_PLACEMENT_3D('',#1012,#829,#830);
#668=AXIS2_PLACEMENT_3D('',#1013,#831,#832);
#669=AXIS2_PLACEMENT_3D('',#1016,#835,#836);
#670=AXIS2_PLACEMENT_3D('',#1017,#837,#838);
#671=AXIS2_PLACEMENT_3D('',#1018,#839,#840);
#672=AXIS2_PLACEMENT_3D('',#1019,#841,#842);
#673=AXIS2_PLACEMENT_3D('',#1020,#843,#844);
#674=AXIS2_PLACEMENT_3D('',#1021,#845,#846);
#675=AXIS2_PLACEMENT_3D('',#1022,#847,#848);
#676=AXIS2_PLACEMENT_3D('',#1023,#849,#850);
#677=AXIS2_PLACEMENT_3D('',#1024,#851,#852);
#678=AXIS2_PLACEMENT_3D('',#1025,#853,#854);
#679=AXIS2_PLACEMENT_3D('',#1026,#855,#856);
#680=AXIS2_PLACEMENT_3D('',#1027,#857,#858);
#681=DIRECTION('',(0.,0.,1.));
#682=DIRECTION('',(1.,0.,0.));
#683=DIRECTION('',(0.,0.,1.));
#684=DIRECTION('',(1.,0.,0.));
#685=DIRECTION('',(0.,0.,1.));
#686=DIRECTION('',(0.,0.,1.));
#687=DIRECTION('',(1.,0.,0.));
#688=DIRECTION('',(0.,0.,1.));
#689=DIRECTION('',(0.,0.,1.));
#690=DIRECTION('',(1.,0.,0.));
#691=DIRECTION('',(0.,0.,1.));
#692=DIRECTION('',(1.,0.,0.));
#693=DIRECTION('',(0.,0.,1.));
#694=DIRECTION('',(0.,0.,1.));
#695=DIRECTION('',(1.,0.,0.));
#696=DIRECTION('',(0.,0.,1.));
#697=DIRECTION('',(0.,0.,1.));
#698=DIRECTION('',(1.,0.,0.));
#699=DIRECTION('',(0.,0.,1.));
#700=DIRECTION('',(1.,0.,0.));
#701=DIRECTION('',(0.,0.,1.));
#702=DIRECTION('',(0.,0.,1.));
#703=DIRECTION('',(1.,0.,0.));
#704=DIRECTION('',(0.,0.,1.));
#705=DIRECTION('',(0.,0.,1.));
#706=DIRECTION('',(1.,0.,0.));
#707=DIRECTION('',(0.,0.,1.));
#708=DIRECTION('',(1.,0.,0.));
#709=DIRECTION('',(0.,0.,1.));
#710=DIRECTION('',(0.,0.,1.));
#711=DIRECTION('',(1.,0.,0.));
#712=DIRECTION('',(0.,0.,1.));
#713=DIRECTION('',(0.,0.,1.));
#714=DIRECTION('',(1.,0.,0.));
#715=DIRECTION('',(0.,0.,1.));
#716=DIRECTION('',(1.,0.,0.));
#717=DIRECTION('',(0.,0.,1.));
#718=DIRECTION('',(0.,0.,1.));
#719=DIRECTION('',(1.,0.,0.));
#720=DIRECTION('',(0.,0.,1.));
#721=DIRECTION('',(0.,0.,1.));
#722=DIRECTION('',(1.,0.,0.));
#723=DIRECTION('',(0.,0.,1.));
#724=DIRECTION('',(1.,0.,0.));
#725=DIRECTION('',(0.,0.,1.));
#726=DIRECTION('',(1.,0.,0.));
#727=DIRECTION('',(0.,0.,1.));
#728=DIRECTION('',(0.,0.,1.));
#729=DIRECTION('',(1.,0.,0.));
#730=DIRECTION('',(0.,0.,1.));
#731=DIRECTION('',(0.,0.,1.));
#732=DIRECTION('',(1.,0.,0.));
#733=DIRECTION('',(-0.866025403784439,-0.5,0.));
#734=DIRECTION('',(0.,0.,1.));
#735=DIRECTION('',(1.,0.,0.));
#736=DIRECTION('',(0.,-1.,0.));
#737=DIRECTION('',(0.,-1.,0.));
#738=DIRECTION('',(0.,0.,1.));
#739=DIRECTION('',(1.,0.,0.));
#740=DIRECTION('',(0.866025403784439,-0.5,0.));
#741=DIRECTION('',(0.866025403784439,-0.5,0.));
#742=DIRECTION('',(0.,0.,1.));
#743=DIRECTION('',(1.,0.,0.));
#744=DIRECTION('',(0.866025403784438,0.5,0.));
#745=DIRECTION('',(0.866025403784438,0.5,0.));
#746=DIRECTION('',(0.,0.,1.));
#747=DIRECTION('',(1.,0.,0.));
#748=DIRECTION('',(-1.22464679914735E-16,1.,0.));
#749=DIRECTION('',(-1.22464679914735E-16,1.,0.));
#750=DIRECTION('',(0.,0.,1.));
#751=DIRECTION('',(1.,0.,0.));
#752=DIRECTION('',(-0.866025403784439,0.5,0.));
#753=DIRECTION('',(-0.866025403784439,-0.5,0.));
#754=DIRECTION('',(-0.866025403784439,0.5,0.));
#755=DIRECTION('',(0.,0.,1.));
#756=DIRECTION('',(1.,0.,0.));
#757=DIRECTION('',(0.,0.,1.));
#758=DIRECTION('',(1.,0.,0.));
#759=DIRECTION('',(0.,0.,1.));
#760=DIRECTION('',(1.,0.,0.));
#761=DIRECTION('',(0.,0.,-1.));
#762=DIRECTION('',(-1.,0.,0.));
#763=DIRECTION('',(0.,0.,1.));
#764=DIRECTION('',(1.,0.,0.));
#765=DIRECTION('',(0.,0.,1.));
#766=DIRECTION('',(1.,0.,0.));
#767=DIRECTION('',(-0.866025403784439,-0.5,0.));
#768=DIRECTION('',(0.,-1.,0.));
#769=DIRECTION('',(0.,0.,1.));
#770=DIRECTION('',(1.,0.,0.));
#771=DIRECTION('',(0.,-1.,0.));
#772=DIRECTION('',(0.866025403784439,-0.5,0.));
#773=DIRECTION('',(0.,0.,1.));
#774=DIRECTION('',(1.,0.,0.));
#775=DIRECTION('',(0.866025403784439,-0.5,0.));
#776=DIRECTION('',(0.866025403784438,0.5,0.));
#777=DIRECTION('',(0.,0.,1.));
#778=DIRECTION('',(1.,0.,0.));
#779=DIRECTION('',(0.866025403784438,0.5,0.));
#780=DIRECTION('',(-1.22464679914735E-16,1.,0.));
#781=DIRECTION('',(0.,0.,1.));
#782=DIRECTION('',(1.,0.,0.));
#783=DIRECTION('',(-1.22464679914735E-16,1.,0.));
#784=DIRECTION('',(-0.866025403784439,0.5,0.));
#785=DIRECTION('',(0.,0.,1.));
#786=DIRECTION('',(1.,0.,0.));
#787=DIRECTION('',(-0.866025403784439,-0.5,0.));
#788=DIRECTION('',(0.,0.,1.));
#789=DIRECTION('',(1.,0.,0.));
#790=DIRECTION('',(-0.866025403784439,0.5,0.));
#791=DIRECTION('',(0.,0.,-1.));
#792=DIRECTION('',(-1.,0.,0.));
#793=DIRECTION('',(0.,0.,1.));
#794=DIRECTION('',(1.,0.,0.));
#795=DIRECTION('',(0.,0.,1.));
#796=DIRECTION('',(0.,0.,1.));
#797=DIRECTION('',(0.,0.,1.));
#798=DIRECTION('',(1.,0.,0.));
#799=DIRECTION('',(0.,0.,1.));
#800=DIRECTION('',(0.,0.,1.));
#801=DIRECTION('',(0.,0.,1.));
#802=DIRECTION('',(1.,0.,0.));
#803=DIRECTION('',(0.,0.,1.));
#804=DIRECTION('',(0.,0.,1.));
#805=DIRECTION('',(0.,0.,1.));
#806=DIRECTION('',(1.,0.,0.));
#807=DIRECTION('',(0.,0.,1.));
#808=DIRECTION('',(0.,0.,1.));
#809=DIRECTION('',(0.,0.,1.));
#810=DIRECTION('',(1.,0.,0.));
#811=DIRECTION('',(0.,0.,1.));
#812=DIRECTION('',(0.,0.,1.));
#813=DIRECTION('',(0.,0.,-1.));
#814=DIRECTION('',(-1.,0.,0.));
#815=DIRECTION('',(0.,0.,1.));
#816=DIRECTION('',(1.,0.,0.));
#817=DIRECTION('',(0.,0.,-1.));
#818=DIRECTION('',(-1.,0.,0.));
#819=DIRECTION('',(0.,0.,-1.));
#820=DIRECTION('',(-1.,0.,0.));
#821=DIRECTION('',(0.,0.,1.));
#822=DIRECTION('',(1.,0.,0.));
#823=DIRECTION('',(0.,0.,1.));
#824=DIRECTION('',(1.,0.,0.));
#825=DIRECTION('',(0.,0.,-1.));
#826=DIRECTION('',(-1.,0.,0.));
#827=DIRECTION('',(0.,0.,-1.));
#828=DIRECTION('',(-1.,0.,0.));
#829=DIRECTION('',(0.,0.,-1.));
#830=DIRECTION('',(1.,0.,0.));
#831=DIRECTION('',(0.,0.,1.));
#832=DIRECTION('',(1.,0.,0.));
#833=DIRECTION('',(0.,0.,1.));
#834=DIRECTION('',(0.,0.,1.));
#835=DIRECTION('',(-1.,0.,0.));
#836=DIRECTION('',(0.,0.,1.));
#837=DIRECTION('',(-1.,0.,0.));
#838=DIRECTION('',(0.,0.,1.));
#839=DIRECTION('',(-0.5,0.866025403784439,0.));
#840=DIRECTION('',(0.,0.,1.));
#841=DIRECTION('',(-0.5,0.866025403784439,0.));
#842=DIRECTION('',(0.,0.,1.));
#843=DIRECTION('',(0.5,0.866025403784439,0.));
#844=DIRECTION('',(0.,0.,1.));
#845=DIRECTION('',(0.5,0.866025403784439,0.));
#846=DIRECTION('',(0.,0.,1.));
#847=DIRECTION('',(1.,1.22464679914735E-16,0.));
#848=DIRECTION('',(0.,0.,1.));
#849=DIRECTION('',(1.,1.22464679914735E-16,0.));
#850=DIRECTION('',(0.,0.,1.));
#851=DIRECTION('',(0.5,-0.866025403784438,0.));
#852=DIRECTION('',(0.,0.,1.));
#853=DIRECTION('',(0.5,-0.866025403784438,0.));
#854=DIRECTION('',(0.,0.,1.));
#855=DIRECTION('',(-0.5,-0.866025403784439,0.));
#856=DIRECTION('',(0.,0.,1.));
#857=DIRECTION('',(-0.5,-0.866025403784439,0.));
#858=DIRECTION('',(0.,0.,1.));
#859=CARTESIAN_POINT('',(0.,0.,0.));
#860=CARTESIAN_POINT('',(0.,1.1554617403225E-17,-0.0127));
#861=CARTESIAN_POINT('',(0.00127,0.118844436878915,0.));
#862=CARTESIAN_POINT('',(0.00127,0.118844436878915,0.));
#863=CARTESIAN_POINT('',(0.00127,0.118844436878915,0.0635));
#864=CARTESIAN_POINT('',(0.,1.1554617403225E-17,0.));
#865=CARTESIAN_POINT('',(0.102287301435597,0.0605220707022639,0.));
#866=CARTESIAN_POINT('',(0.102287301435597,0.0605220707022639,0.));
#867=CARTESIAN_POINT('',(0.102287301435597,0.0605220707022639,0.0635));
#868=CARTESIAN_POINT('',(0.,1.1554617403225E-17,0.0635));
#869=CARTESIAN_POINT('',(0.,1.1554617403225E-17,-0.0127));
#870=CARTESIAN_POINT('',(0.103557301435597,0.0583223661766514,0.));
#871=CARTESIAN_POINT('',(0.103557301435597,0.0583223661766514,0.));
#872=CARTESIAN_POINT('',(0.103557301435597,0.0583223661766514,0.0635));
#873=CARTESIAN_POINT('',(0.,1.1554617403225E-17,0.));
#874=CARTESIAN_POINT('',(0.103557301435597,-0.0583223661766514,0.));
#875=CARTESIAN_POINT('',(0.103557301435597,-0.0583223661766514,0.));
#876=CARTESIAN_POINT('',(0.103557301435597,-0.0583223661766514,0.0635));
#877=CARTESIAN_POINT('',(0.,1.1554617403225E-17,0.0635));
#878=CARTESIAN_POINT('',(0.,1.1554617403225E-17,-0.0127));
#879=CARTESIAN_POINT('',(0.102287301435597,-0.0605220707022639,0.));
#880=CARTESIAN_POINT('',(0.102287301435597,-0.0605220707022639,0.));
#881=CARTESIAN_POINT('',(0.102287301435597,-0.0605220707022639,0.0635));
#882=CARTESIAN_POINT('',(0.,1.1554617403225E-17,0.));
#883=CARTESIAN_POINT('',(0.00127000000000001,-0.118844436878915,0.));
#884=CARTESIAN_POINT('',(0.00127000000000001,-0.118844436878915,0.));
#885=CARTESIAN_POINT('',(0.00127000000000001,-0.118844436878915,0.0635));
#886=CARTESIAN_POINT('',(0.,1.1554617403225E-17,0.0635));
#887=CARTESIAN_POINT('',(0.,1.1554617403225E-17,-0.0127));
#888=CARTESIAN_POINT('',(-0.00126999999999999,-0.118844436878915,0.));
#889=CARTESIAN_POINT('',(-0.00126999999999999,-0.118844436878915,0.));
#890=CARTESIAN_POINT('',(-0.00126999999999999,-0.118844436878915,0.0635));
#891=CARTESIAN_POINT('',(0.,1.1554617403225E-17,0.));
#892=CARTESIAN_POINT('',(-0.102287301435597,-0.060522070702264,0.));
#893=CARTESIAN_POINT('',(-0.102287301435597,-0.060522070702264,0.));
#894=CARTESIAN_POINT('',(-0.102287301435597,-0.060522070702264,0.0635));
#895=CARTESIAN_POINT('',(0.,1.1554617403225E-17,0.0635));
#896=CARTESIAN_POINT('',(0.,1.1554617403225E-17,-0.0127));
#897=CARTESIAN_POINT('',(-0.103557301435597,-0.0583223661766515,0.));
#898=CARTESIAN_POINT('',(-0.103557301435597,-0.0583223661766515,0.));
#899=CARTESIAN_POINT('',(-0.103557301435597,-0.0583223661766515,0.0635));
#900=CARTESIAN_POINT('',(0.,1.1554617403225E-17,0.));
#901=CARTESIAN_POINT('',(-0.103557301435597,0.0583223661766514,0.));
#902=CARTESIAN_POINT('',(-0.103557301435597,0.0583223661766514,0.));
#903=CARTESIAN_POINT('',(-0.103557301435597,0.0583223661766514,0.0635));
#904=CARTESIAN_POINT('',(0.,1.1554617403225E-17,0.0635));
#905=CARTESIAN_POINT('',(0.,1.1554617403225E-17,-0.0127));
#906=CARTESIAN_POINT('',(0.,1.1554617403225E-17,0.));
#907=CARTESIAN_POINT('',(-0.00127,0.118844436878915,0.));
#908=CARTESIAN_POINT('',(-0.102287301435597,0.0605220707022638,0.));
#909=CARTESIAN_POINT('',(-0.00127,0.118844436878915,0.));
#910=CARTESIAN_POINT('',(-0.00127,0.118844436878915,0.0635));
#911=CARTESIAN_POINT('',(0.,1.1554617403225E-17,0.0635));
#912=CARTESIAN_POINT('',(-0.102287301435597,0.0605220707022638,0.0635));
#913=CARTESIAN_POINT('',(-0.102287301435597,0.0605220707022638,0.));
#914=CARTESIAN_POINT('',(0.,0.,0.0635));
#915=CARTESIAN_POINT('',(0.0823297420168269,0.0489995683994691,0.0635));
#916=CARTESIAN_POINT('',(0.0621795994439841,0.037365878160829,0.0635));
#917=CARTESIAN_POINT('',(0.,8.71906696101239E-18,0.0635));
#918=CARTESIAN_POINT('',(0.00127,0.0725320517960455,0.0635));
#919=CARTESIAN_POINT('',(0.00127,0.0957994322733257,0.0635));
#920=CARTESIAN_POINT('',(-0.00127,0.0957994322733257,0.0635));
#921=CARTESIAN_POINT('',(-0.00127,0.0725320517960455,0.0635));
#922=CARTESIAN_POINT('',(0.,8.71906696101239E-18,0.0635));
#923=CARTESIAN_POINT('',(-0.0621795994439842,0.037365878160829,0.0635));
#924=CARTESIAN_POINT('',(-0.0823297420168269,0.048999568399469,0.0635));
#925=CARTESIAN_POINT('',(-0.0835997420168269,0.0467998638738566,0.0635));
#926=CARTESIAN_POINT('',(-0.0634495994439842,0.0351661736352165,0.0635));
#927=CARTESIAN_POINT('',(0.,8.71906696101239E-18,0.0635));
#928=CARTESIAN_POINT('',(-0.0634495994439841,-0.0351661736352166,0.0635));
#929=CARTESIAN_POINT('',(-0.0835997420168269,-0.0467998638738567,0.0635));
#930=CARTESIAN_POINT('',(-0.0823297420168269,-0.0489995683994691,0.0635));
#931=CARTESIAN_POINT('',(-0.0621795994439841,-0.037365878160829,0.0635));
#932=CARTESIAN_POINT('',(0.,8.71906696101239E-18,0.0635));
#933=CARTESIAN_POINT('',(-0.00127,-0.0725320517960455,0.0635));
#934=CARTESIAN_POINT('',(-0.00127,-0.0957994322733257,0.0635));
#935=CARTESIAN_POINT('',(0.00127000000000001,-0.0957994322733257,0.0635));
#936=CARTESIAN_POINT('',(0.00127,-0.0725320517960455,0.0635));
#937=CARTESIAN_POINT('',(0.,8.71906696101239E-18,0.0635));
#938=CARTESIAN_POINT('',(0.0621795994439842,-0.037365878160829,0.0635));
#939=CARTESIAN_POINT('',(0.0823297420168269,-0.0489995683994691,0.0635));
#940=CARTESIAN_POINT('',(0.0835997420168269,0.0467998638738566,0.0635));
#941=CARTESIAN_POINT('',(0.0634495994439841,0.0351661736352166,0.0635));
#942=CARTESIAN_POINT('',(0.0835997420168269,-0.0467998638738566,0.0635));
#943=CARTESIAN_POINT('',(0.0634495994439842,-0.0351661736352165,0.0635));
#944=CARTESIAN_POINT('',(0.,8.71906696101239E-18,0.0635));
#945=CARTESIAN_POINT('',(0.,7.38768181585641E-18,0.0635));
#946=CARTESIAN_POINT('',(0.12065,7.38768181585641E-18,0.0635));
#947=CARTESIAN_POINT('',(0.,4.27707894602213E-18,0.0635));
#948=CARTESIAN_POINT('',(0.06985,4.27707894602213E-18,0.0635));
#949=CARTESIAN_POINT('',(0.,7.38768181585641E-18,0.0635));
#950=CARTESIAN_POINT('',(0.,7.38768181585641E-18,0.));
#951=CARTESIAN_POINT('',(0.12065,7.38768181585641E-18,0.));
#952=CARTESIAN_POINT('',(0.,0.,0.));
#953=CARTESIAN_POINT('',(0.0823297420168269,0.0489995683994691,0.));
#954=CARTESIAN_POINT('',(0.0621795994439841,0.037365878160829,0.));
#955=CARTESIAN_POINT('',(0.00127,0.0957994322733257,0.));
#956=CARTESIAN_POINT('',(0.00127,0.0725320517960455,0.));
#957=CARTESIAN_POINT('',(0.,8.71906696101239E-18,0.));
#958=CARTESIAN_POINT('',(-0.00127,0.0957994322733257,0.));
#959=CARTESIAN_POINT('',(-0.00127,0.0725320517960455,0.));
#960=CARTESIAN_POINT('',(-0.0823297420168269,0.048999568399469,0.));
#961=CARTESIAN_POINT('',(-0.0621795994439842,0.037365878160829,0.));
#962=CARTESIAN_POINT('',(0.,8.71906696101239E-18,0.));
#963=CARTESIAN_POINT('',(-0.0835997420168269,0.0467998638738566,0.));
#964=CARTESIAN_POINT('',(-0.0634495994439842,0.0351661736352165,0.));
#965=CARTESIAN_POINT('',(-0.0835997420168269,-0.0467998638738567,0.));
#966=CARTESIAN_POINT('',(-0.0634495994439841,-0.0351661736352166,0.));
#967=CARTESIAN_POINT('',(0.,8.71906696101239E-18,0.));
#968=CARTESIAN_POINT('',(-0.0823297420168269,-0.0489995683994691,0.));
#969=CARTESIAN_POINT('',(-0.0621795994439841,-0.037365878160829,0.));
#970=CARTESIAN_POINT('',(-0.00127,-0.0957994322733257,0.));
#971=CARTESIAN_POINT('',(-0.00127,-0.0725320517960455,0.));
#972=CARTESIAN_POINT('',(0.,8.71906696101239E-18,0.));
#973=CARTESIAN_POINT('',(0.00127000000000001,-0.0957994322733257,0.));
#974=CARTESIAN_POINT('',(0.00127,-0.0725320517960455,0.));
#975=CARTESIAN_POINT('',(0.0823297420168269,-0.0489995683994691,0.));
#976=CARTESIAN_POINT('',(0.0621795994439842,-0.037365878160829,0.));
#977=CARTESIAN_POINT('',(0.,8.71906696101239E-18,0.));
#978=CARTESIAN_POINT('',(0.0835997420168269,0.0467998638738566,0.));
#979=CARTESIAN_POINT('',(0.0634495994439841,0.0351661736352166,0.));
#980=CARTESIAN_POINT('',(0.,8.71906696101239E-18,0.));
#981=CARTESIAN_POINT('',(0.0634495994439842,-0.0351661736352165,0.));
#982=CARTESIAN_POINT('',(0.0835997420168269,-0.0467998638738566,0.));
#983=CARTESIAN_POINT('',(0.,-4.28952135750147E-18,0.));
#984=CARTESIAN_POINT('',(-0.0700532,-4.28952135750147E-18,0.));
#985=CARTESIAN_POINT('',(0.,8.71906696101239E-18,-0.0127));
#986=CARTESIAN_POINT('',(-0.0621795994439842,0.037365878160829,-0.0127));
#987=CARTESIAN_POINT('',(-0.00127,0.0725320517960455,-0.0127));
#988=CARTESIAN_POINT('',(0.,8.71906696101239E-18,-0.0127));
#989=CARTESIAN_POINT('',(-0.0634495994439842,0.0351661736352165,-0.0127));
#990=CARTESIAN_POINT('',(-0.0634495994439841,-0.0351661736352166,-0.0127));
#991=CARTESIAN_POINT('',(0.,8.71906696101239E-18,-0.0127));
#992=CARTESIAN_POINT('',(-0.0621795994439841,-0.037365878160829,-0.0127));
#993=CARTESIAN_POINT('',(-0.00127,-0.0725320517960455,-0.0127));
#994=CARTESIAN_POINT('',(0.,8.71906696101239E-18,-0.0127));
#995=CARTESIAN_POINT('',(0.00127,-0.0725320517960455,-0.0127));
#996=CARTESIAN_POINT('',(0.0621795994439841,-0.037365878160829,-0.0127));
#997=CARTESIAN_POINT('',(0.,8.71906696101239E-18,-0.0127));
#998=CARTESIAN_POINT('',(0.0634495994439841,-0.0351661736352165,-0.0127));
#999=CARTESIAN_POINT('',(0.0634495994439841,0.0351661736352166,-0.0127));
#1000=CARTESIAN_POINT('',(0.,3.53831076443649E-18,0.0635));
#1001=CARTESIAN_POINT('',(0.,3.53831076443649E-18,0.0889));
#1002=CARTESIAN_POINT('',(0.057785,3.53831076443649E-18,0.0889));
#1003=CARTESIAN_POINT('',(0.,3.53831076443649E-18,0.0254));
#1004=CARTESIAN_POINT('',(-0.057785,3.53831076443649E-18,0.0254));
#1005=CARTESIAN_POINT('',(0.,4.27707894602213E-18,0.0889));
#1006=CARTESIAN_POINT('',(0.,4.27707894602213E-18,0.0889));
#1007=CARTESIAN_POINT('',(0.06985,4.27707894602213E-18,0.0889));
#1008=CARTESIAN_POINT('',(0.,2.77555756156289E-17,0.0889));
#1009=CARTESIAN_POINT('',(0.,-4.28952135750147E-18,0.0254));
#1010=CARTESIAN_POINT('',(0.,-4.28952135750147E-18,0.0254));
#1011=CARTESIAN_POINT('',(-0.0700532,-4.28952135750147E-18,0.0254));
#1012=CARTESIAN_POINT('',(0.,2.77555756156289E-17,0.0254));
#1013=CARTESIAN_POINT('',(0.,8.71906696101239E-18,-0.0127));
#1014=CARTESIAN_POINT('',(0.0621795994439841,0.037365878160829,-0.0127));
#1015=CARTESIAN_POINT('',(0.00127,0.0725320517960455,-0.0127));
#1016=CARTESIAN_POINT('',(-0.00127,0.0957994322733257,0.));
#1017=CARTESIAN_POINT('',(0.00127,0.0957994322733257,0.));
#1018=CARTESIAN_POINT('',(0.0823297420168269,0.0489995683994691,0.));
#1019=CARTESIAN_POINT('',(0.0835997420168269,0.0467998638738566,0.));
#1020=CARTESIAN_POINT('',(0.0835997420168269,-0.0467998638738566,0.));
#1021=CARTESIAN_POINT('',(0.0823297420168269,-0.0489995683994691,0.));
#1022=CARTESIAN_POINT('',(0.00127000000000001,-0.0957994322733257,0.));
#1023=CARTESIAN_POINT('',(-0.00127,-0.0957994322733257,0.));
#1024=CARTESIAN_POINT('',(-0.0823297420168269,-0.0489995683994691,0.));
#1025=CARTESIAN_POINT('',(-0.0835997420168269,-0.0467998638738567,0.));
#1026=CARTESIAN_POINT('',(-0.0835997420168269,0.0467998638738566,0.));
#1027=CARTESIAN_POINT('',(-0.0823297420168269,0.048999568399469,0.));
#1028=MECHANICAL_DESIGN_GEOMETRIC_PRESENTATION_REPRESENTATION('',(#605),
#1029);
#1029=(
GEOMETRIC_REPRESENTATION_CONTEXT(3)
GLOBAL_UNCERTAINTY_ASSIGNED_CONTEXT((#1030))
GLOBAL_UNIT_ASSIGNED_CONTEXT((#1033,#1032,#1031))
REPRESENTATION_CONTEXT('Part 1','TOP_LEVEL_ASSEMBLY_PART')
);
#1030=UNCERTAINTY_MEASURE_WITH_UNIT(LENGTH_MEASURE(1.E-8),#1033,
'DISTANCE_ACCURACY_VALUE','Maximum Tolerance applied to model');
#1031=(
NAMED_UNIT(*)
SI_UNIT($,.STERADIAN.)
SOLID_ANGLE_UNIT()
);
#1032=(
NAMED_UNIT(*)
PLANE_ANGLE_UNIT()
SI_UNIT($,.RADIAN.)
);
#1033=(
LENGTH_UNIT()
NAMED_UNIT(*)
SI_UNIT($,.METRE.)
);
#1034=PRODUCT_DEFINITION_SHAPE('','',#1035);
#1035=PRODUCT_DEFINITION('','',#1037,#1036);
#1036=PRODUCT_DEFINITION_CONTEXT('',#1043,'design');
#1037=PRODUCT_DEFINITION_FORMATION_WITH_SPECIFIED_SOURCE('','',#1039,
 .NOT_KNOWN.);
#1038=PRODUCT_RELATED_PRODUCT_CATEGORY('','',(#1039));
#1039=PRODUCT('Part 1','Part 1','Part 1',(#1041));
#1040=PRODUCT_CATEGORY('','');
#1041=PRODUCT_CONTEXT('',#1043,'mechanical');
#1042=APPLICATION_PROTOCOL_DEFINITION('international standard',
'ap242_managed_model_based_3d_engineering',2020,#1043);
#1043=APPLICATION_CONTEXT('managed model based 3d engineering');
ENDSEC;
END-ISO-10303-21;
