ISO-10303-21;
HEADER;
/* Generated by software containing ST-Developer
 * from STEP Tools, Inc. (www.steptools.com) 
 */
/* OPTION: using custom renumber hook */

FILE_DESCRIPTION(
/* description */ ('STEP AP242 Edition 2',
'CAx-IF Rec.Pracs.---Representation and Presentation of Product Manufa
cturing Information (PMI)---4.0---2014-10-13',
'CAx-IF Rec.Pracs.---3D Tessellated Geometry---0.4---2014-09-14','2;1',
'CAx-IF Rec.Pracs.---User Defined Attributes---1.5---2016-08-15'),
/* implementation_level */ '2;1');

FILE_NAME(
/* name */ 'Single Snap Shell - Chassis',
/* time_stamp */ '2026-08-15T18:30:16Z',
/* author */ (''),
/* organization */ (''),
/* preprocessor_version */ 'ST-DEVELOPER v20',
/* originating_system */ 'ONSHAPE BY PTC INC, 1.219',
/* authorisation */ '  ');

FILE_SCHEMA (('AP242_MANAGED_MODEL_BASED_3D_ENGINEERING_MIM_LF { 1 0 10303 442 3 1 4 }'));
ENDSEC;

DATA;
#10=SHAPE_REPRESENTATION_RELATIONSHIP('','',#531,#11);
#11=ADVANCED_BREP_SHAPE_REPRESENTATION('',(#529),#895);
#12=PLANE('',#536);
#13=PLANE('',#540);
#14=PLANE('',#544);
#15=PLANE('',#548);
#16=PLANE('',#552);
#17=PLANE('',#556);
#18=PLANE('',#560);
#19=PLANE('',#564);
#20=PLANE('',#568);
#21=PLANE('',#572);
#22=PLANE('',#576);
#23=PLANE('',#583);
#24=PLANE('',#584);
#25=PLANE('',#585);
#26=LINE('',#747,#74);
#27=LINE('',#751,#75);
#28=LINE('',#753,#76);
#29=LINE('',#755,#77);
#30=LINE('',#757,#78);
#31=LINE('',#761,#79);
#32=LINE('',#765,#80);
#33=LINE('',#767,#81);
#34=LINE('',#769,#82);
#35=LINE('',#773,#83);
#36=LINE('',#777,#84);
#37=LINE('',#779,#85);
#38=LINE('',#781,#86);
#39=LINE('',#785,#87);
#40=LINE('',#789,#88);
#41=LINE('',#791,#89);
#42=LINE('',#793,#90);
#43=LINE('',#797,#91);
#44=LINE('',#801,#92);
#45=LINE('',#803,#93);
#46=LINE('',#805,#94);
#47=LINE('',#809,#95);
#48=LINE('',#813,#96);
#49=LINE('',#815,#97);
#50=LINE('',#817,#98);
#51=LINE('',#821,#99);
#52=LINE('',#825,#100);
#53=LINE('',#827,#101);
#54=LINE('',#829,#102);
#55=LINE('',#833,#103);
#56=LINE('',#837,#104);
#57=LINE('',#839,#105);
#58=LINE('',#841,#106);
#59=LINE('',#845,#107);
#60=LINE('',#849,#108);
#61=LINE('',#851,#109);
#62=LINE('',#853,#110);
#63=LINE('',#857,#111);
#64=LINE('',#861,#112);
#65=LINE('',#863,#113);
#66=LINE('',#865,#114);
#67=LINE('',#869,#115);
#68=LINE('',#873,#116);
#69=LINE('',#875,#117);
#70=LINE('',#877,#118);
#71=LINE('',#881,#119);
#72=LINE('',#890,#120);
#73=LINE('',#891,#121);
#74=VECTOR('',#592,1.);
#75=VECTOR('',#595,1.);
#76=VECTOR('',#598,1.);
#77=VECTOR('',#599,1.);
#78=VECTOR('',#600,1.);
#79=VECTOR('',#605,1.);
#80=VECTOR('',#610,1.);
#81=VECTOR('',#611,1.);
#82=VECTOR('',#612,1.);
#83=VECTOR('',#617,1.);
#84=VECTOR('',#622,1.);
#85=VECTOR('',#623,1.);
#86=VECTOR('',#624,1.);
#87=VECTOR('',#629,1.);
#88=VECTOR('',#634,1.);
#89=VECTOR('',#635,1.);
#90=VECTOR('',#636,1.);
#91=VECTOR('',#641,1.);
#92=VECTOR('',#646,1.);
#93=VECTOR('',#647,1.);
#94=VECTOR('',#648,1.);
#95=VECTOR('',#653,1.);
#96=VECTOR('',#658,1.);
#97=VECTOR('',#659,1.);
#98=VECTOR('',#660,1.);
#99=VECTOR('',#665,1.);
#100=VECTOR('',#670,1.);
#101=VECTOR('',#671,1.);
#102=VECTOR('',#672,1.);
#103=VECTOR('',#677,1.);
#104=VECTOR('',#682,1.);
#105=VECTOR('',#683,1.);
#106=VECTOR('',#684,1.);
#107=VECTOR('',#689,1.);
#108=VECTOR('',#694,1.);
#109=VECTOR('',#695,1.);
#110=VECTOR('',#696,1.);
#111=VECTOR('',#701,1.);
#112=VECTOR('',#706,1.);
#113=VECTOR('',#707,1.);
#114=VECTOR('',#708,1.);
#115=VECTOR('',#713,1.);
#116=VECTOR('',#718,1.);
#117=VECTOR('',#719,1.);
#118=VECTOR('',#720,1.);
#119=VECTOR('',#725,1.);
#120=VECTOR('',#736,1.);
#121=VECTOR('',#737,1.);
#122=ORIENTED_EDGE('',*,*,#270,.T.);
#123=ORIENTED_EDGE('',*,*,#271,.F.);
#124=ORIENTED_EDGE('',*,*,#272,.F.);
#125=ORIENTED_EDGE('',*,*,#273,.T.);
#126=ORIENTED_EDGE('',*,*,#274,.T.);
#127=ORIENTED_EDGE('',*,*,#275,.F.);
#128=ORIENTED_EDGE('',*,*,#276,.F.);
#129=ORIENTED_EDGE('',*,*,#271,.T.);
#130=ORIENTED_EDGE('',*,*,#277,.F.);
#131=ORIENTED_EDGE('',*,*,#278,.F.);
#132=ORIENTED_EDGE('',*,*,#279,.T.);
#133=ORIENTED_EDGE('',*,*,#275,.T.);
#134=ORIENTED_EDGE('',*,*,#280,.F.);
#135=ORIENTED_EDGE('',*,*,#281,.F.);
#136=ORIENTED_EDGE('',*,*,#282,.T.);
#137=ORIENTED_EDGE('',*,*,#278,.T.);
#138=ORIENTED_EDGE('',*,*,#283,.T.);
#139=ORIENTED_EDGE('',*,*,#284,.F.);
#140=ORIENTED_EDGE('',*,*,#285,.F.);
#141=ORIENTED_EDGE('',*,*,#281,.T.);
#142=ORIENTED_EDGE('',*,*,#286,.T.);
#143=ORIENTED_EDGE('',*,*,#287,.F.);
#144=ORIENTED_EDGE('',*,*,#288,.F.);
#145=ORIENTED_EDGE('',*,*,#284,.T.);
#146=ORIENTED_EDGE('',*,*,#289,.F.);
#147=ORIENTED_EDGE('',*,*,#290,.F.);
#148=ORIENTED_EDGE('',*,*,#291,.T.);
#149=ORIENTED_EDGE('',*,*,#287,.T.);
#150=ORIENTED_EDGE('',*,*,#292,.F.);
#151=ORIENTED_EDGE('',*,*,#293,.F.);
#152=ORIENTED_EDGE('',*,*,#294,.T.);
#153=ORIENTED_EDGE('',*,*,#290,.T.);
#154=ORIENTED_EDGE('',*,*,#295,.T.);
#155=ORIENTED_EDGE('',*,*,#296,.F.);
#156=ORIENTED_EDGE('',*,*,#297,.F.);
#157=ORIENTED_EDGE('',*,*,#293,.T.);
#158=ORIENTED_EDGE('',*,*,#298,.T.);
#159=ORIENTED_EDGE('',*,*,#299,.F.);
#160=ORIENTED_EDGE('',*,*,#300,.F.);
#161=ORIENTED_EDGE('',*,*,#296,.T.);
#162=ORIENTED_EDGE('',*,*,#301,.F.);
#163=ORIENTED_EDGE('',*,*,#302,.F.);
#164=ORIENTED_EDGE('',*,*,#303,.T.);
#165=ORIENTED_EDGE('',*,*,#299,.T.);
#166=ORIENTED_EDGE('',*,*,#304,.F.);
#167=ORIENTED_EDGE('',*,*,#305,.F.);
#168=ORIENTED_EDGE('',*,*,#306,.T.);
#169=ORIENTED_EDGE('',*,*,#302,.T.);
#170=ORIENTED_EDGE('',*,*,#307,.T.);
#171=ORIENTED_EDGE('',*,*,#308,.F.);
#172=ORIENTED_EDGE('',*,*,#309,.F.);
#173=ORIENTED_EDGE('',*,*,#305,.T.);
#174=ORIENTED_EDGE('',*,*,#310,.T.);
#175=ORIENTED_EDGE('',*,*,#311,.F.);
#176=ORIENTED_EDGE('',*,*,#312,.F.);
#177=ORIENTED_EDGE('',*,*,#308,.T.);
#178=ORIENTED_EDGE('',*,*,#313,.F.);
#179=ORIENTED_EDGE('',*,*,#314,.F.);
#180=ORIENTED_EDGE('',*,*,#315,.T.);
#181=ORIENTED_EDGE('',*,*,#311,.T.);
#182=ORIENTED_EDGE('',*,*,#316,.F.);
#183=ORIENTED_EDGE('',*,*,#317,.F.);
#184=ORIENTED_EDGE('',*,*,#318,.T.);
#185=ORIENTED_EDGE('',*,*,#314,.T.);
#186=ORIENTED_EDGE('',*,*,#319,.T.);
#187=ORIENTED_EDGE('',*,*,#320,.F.);
#188=ORIENTED_EDGE('',*,*,#321,.F.);
#189=ORIENTED_EDGE('',*,*,#317,.T.);
#190=ORIENTED_EDGE('',*,*,#322,.T.);
#191=ORIENTED_EDGE('',*,*,#323,.F.);
#192=ORIENTED_EDGE('',*,*,#324,.F.);
#193=ORIENTED_EDGE('',*,*,#320,.T.);
#194=ORIENTED_EDGE('',*,*,#325,.F.);
#195=ORIENTED_EDGE('',*,*,#326,.F.);
#196=ORIENTED_EDGE('',*,*,#327,.T.);
#197=ORIENTED_EDGE('',*,*,#323,.T.);
#198=ORIENTED_EDGE('',*,*,#328,.F.);
#199=ORIENTED_EDGE('',*,*,#329,.F.);
#200=ORIENTED_EDGE('',*,*,#330,.T.);
#201=ORIENTED_EDGE('',*,*,#326,.T.);
#202=ORIENTED_EDGE('',*,*,#331,.T.);
#203=ORIENTED_EDGE('',*,*,#332,.F.);
#204=ORIENTED_EDGE('',*,*,#333,.F.);
#205=ORIENTED_EDGE('',*,*,#329,.T.);
#206=ORIENTED_EDGE('',*,*,#334,.T.);
#207=ORIENTED_EDGE('',*,*,#335,.F.);
#208=ORIENTED_EDGE('',*,*,#336,.F.);
#209=ORIENTED_EDGE('',*,*,#332,.T.);
#210=ORIENTED_EDGE('',*,*,#337,.F.);
#211=ORIENTED_EDGE('',*,*,#338,.F.);
#212=ORIENTED_EDGE('',*,*,#339,.T.);
#213=ORIENTED_EDGE('',*,*,#335,.T.);
#214=ORIENTED_EDGE('',*,*,#340,.T.);
#215=ORIENTED_EDGE('',*,*,#341,.F.);
#216=ORIENTED_EDGE('',*,*,#342,.F.);
#217=ORIENTED_EDGE('',*,*,#273,.F.);
#218=ORIENTED_EDGE('',*,*,#343,.T.);
#219=ORIENTED_EDGE('',*,*,#338,.T.);
#220=ORIENTED_EDGE('',*,*,#340,.F.);
#221=ORIENTED_EDGE('',*,*,#272,.T.);
#222=ORIENTED_EDGE('',*,*,#276,.T.);
#223=ORIENTED_EDGE('',*,*,#279,.F.);
#224=ORIENTED_EDGE('',*,*,#282,.F.);
#225=ORIENTED_EDGE('',*,*,#285,.T.);
#226=ORIENTED_EDGE('',*,*,#288,.T.);
#227=ORIENTED_EDGE('',*,*,#291,.F.);
#228=ORIENTED_EDGE('',*,*,#294,.F.);
#229=ORIENTED_EDGE('',*,*,#297,.T.);
#230=ORIENTED_EDGE('',*,*,#300,.T.);
#231=ORIENTED_EDGE('',*,*,#303,.F.);
#232=ORIENTED_EDGE('',*,*,#306,.F.);
#233=ORIENTED_EDGE('',*,*,#309,.T.);
#234=ORIENTED_EDGE('',*,*,#312,.T.);
#235=ORIENTED_EDGE('',*,*,#315,.F.);
#236=ORIENTED_EDGE('',*,*,#318,.F.);
#237=ORIENTED_EDGE('',*,*,#321,.T.);
#238=ORIENTED_EDGE('',*,*,#324,.T.);
#239=ORIENTED_EDGE('',*,*,#327,.F.);
#240=ORIENTED_EDGE('',*,*,#330,.F.);
#241=ORIENTED_EDGE('',*,*,#333,.T.);
#242=ORIENTED_EDGE('',*,*,#336,.T.);
#243=ORIENTED_EDGE('',*,*,#339,.F.);
#244=ORIENTED_EDGE('',*,*,#343,.F.);
#245=ORIENTED_EDGE('',*,*,#341,.T.);
#246=ORIENTED_EDGE('',*,*,#270,.F.);
#247=ORIENTED_EDGE('',*,*,#342,.T.);
#248=ORIENTED_EDGE('',*,*,#337,.T.);
#249=ORIENTED_EDGE('',*,*,#334,.F.);
#250=ORIENTED_EDGE('',*,*,#331,.F.);
#251=ORIENTED_EDGE('',*,*,#328,.T.);
#252=ORIENTED_EDGE('',*,*,#325,.T.);
#253=ORIENTED_EDGE('',*,*,#322,.F.);
#254=ORIENTED_EDGE('',*,*,#319,.F.);
#255=ORIENTED_EDGE('',*,*,#316,.T.);
#256=ORIENTED_EDGE('',*,*,#313,.T.);
#257=ORIENTED_EDGE('',*,*,#310,.F.);
#258=ORIENTED_EDGE('',*,*,#307,.F.);
#259=ORIENTED_EDGE('',*,*,#304,.T.);
#260=ORIENTED_EDGE('',*,*,#301,.T.);
#261=ORIENTED_EDGE('',*,*,#298,.F.);
#262=ORIENTED_EDGE('',*,*,#295,.F.);
#263=ORIENTED_EDGE('',*,*,#292,.T.);
#264=ORIENTED_EDGE('',*,*,#289,.T.);
#265=ORIENTED_EDGE('',*,*,#286,.F.);
#266=ORIENTED_EDGE('',*,*,#283,.F.);
#267=ORIENTED_EDGE('',*,*,#280,.T.);
#268=ORIENTED_EDGE('',*,*,#277,.T.);
#269=ORIENTED_EDGE('',*,*,#274,.F.);
#270=EDGE_CURVE('',#344,#345,#394,.T.);
#271=EDGE_CURVE('',#346,#345,#26,.T.);
#272=EDGE_CURVE('',#347,#346,#395,.T.);
#273=EDGE_CURVE('',#347,#344,#27,.T.);
#274=EDGE_CURVE('',#345,#348,#28,.T.);
#275=EDGE_CURVE('',#349,#348,#29,.T.);
#276=EDGE_CURVE('',#346,#349,#30,.T.);
#277=EDGE_CURVE('',#350,#348,#396,.T.);
#278=EDGE_CURVE('',#351,#350,#31,.T.);
#279=EDGE_CURVE('',#351,#349,#397,.T.);
#280=EDGE_CURVE('',#352,#350,#32,.T.);
#281=EDGE_CURVE('',#353,#352,#33,.T.);
#282=EDGE_CURVE('',#353,#351,#34,.T.);
#283=EDGE_CURVE('',#352,#354,#398,.T.);
#284=EDGE_CURVE('',#355,#354,#35,.T.);
#285=EDGE_CURVE('',#353,#355,#399,.T.);
#286=EDGE_CURVE('',#354,#356,#36,.T.);
#287=EDGE_CURVE('',#357,#356,#37,.T.);
#288=EDGE_CURVE('',#355,#357,#38,.T.);
#289=EDGE_CURVE('',#358,#356,#400,.T.);
#290=EDGE_CURVE('',#359,#358,#39,.T.);
#291=EDGE_CURVE('',#359,#357,#401,.T.);
#292=EDGE_CURVE('',#360,#358,#40,.T.);
#293=EDGE_CURVE('',#361,#360,#41,.T.);
#294=EDGE_CURVE('',#361,#359,#42,.T.);
#295=EDGE_CURVE('',#360,#362,#402,.T.);
#296=EDGE_CURVE('',#363,#362,#43,.T.);
#297=EDGE_CURVE('',#361,#363,#403,.T.);
#298=EDGE_CURVE('',#362,#364,#44,.T.);
#299=EDGE_CURVE('',#365,#364,#45,.T.);
#300=EDGE_CURVE('',#363,#365,#46,.T.);
#301=EDGE_CURVE('',#366,#364,#404,.T.);
#302=EDGE_CURVE('',#367,#366,#47,.T.);
#303=EDGE_CURVE('',#367,#365,#405,.T.);
#304=EDGE_CURVE('',#368,#366,#48,.T.);
#305=EDGE_CURVE('',#369,#368,#49,.T.);
#306=EDGE_CURVE('',#369,#367,#50,.T.);
#307=EDGE_CURVE('',#368,#370,#406,.T.);
#308=EDGE_CURVE('',#371,#370,#51,.T.);
#309=EDGE_CURVE('',#369,#371,#407,.T.);
#310=EDGE_CURVE('',#370,#372,#52,.T.);
#311=EDGE_CURVE('',#373,#372,#53,.T.);
#312=EDGE_CURVE('',#371,#373,#54,.T.);
#313=EDGE_CURVE('',#374,#372,#408,.T.);
#314=EDGE_CURVE('',#375,#374,#55,.T.);
#315=EDGE_CURVE('',#375,#373,#409,.T.);
#316=EDGE_CURVE('',#376,#374,#56,.T.);
#317=EDGE_CURVE('',#377,#376,#57,.T.);
#318=EDGE_CURVE('',#377,#375,#58,.T.);
#319=EDGE_CURVE('',#376,#378,#410,.T.);
#320=EDGE_CURVE('',#379,#378,#59,.T.);
#321=EDGE_CURVE('',#377,#379,#411,.T.);
#322=EDGE_CURVE('',#378,#380,#60,.T.);
#323=EDGE_CURVE('',#381,#380,#61,.T.);
#324=EDGE_CURVE('',#379,#381,#62,.T.);
#325=EDGE_CURVE('',#382,#380,#412,.T.);
#326=EDGE_CURVE('',#383,#382,#63,.T.);
#327=EDGE_CURVE('',#383,#381,#413,.T.);
#328=EDGE_CURVE('',#384,#382,#64,.T.);
#329=EDGE_CURVE('',#385,#384,#65,.T.);
#330=EDGE_CURVE('',#385,#383,#66,.T.);
#331=EDGE_CURVE('',#384,#386,#414,.T.);
#332=EDGE_CURVE('',#387,#386,#67,.T.);
#333=EDGE_CURVE('',#385,#387,#415,.T.);
#334=EDGE_CURVE('',#386,#388,#68,.T.);
#335=EDGE_CURVE('',#389,#388,#69,.T.);
#336=EDGE_CURVE('',#387,#389,#70,.T.);
#337=EDGE_CURVE('',#390,#388,#416,.T.);
#338=EDGE_CURVE('',#391,#390,#71,.T.);
#339=EDGE_CURVE('',#391,#389,#417,.T.);
#340=EDGE_CURVE('',#392,#392,#418,.T.);
#341=EDGE_CURVE('',#393,#393,#419,.T.);
#342=EDGE_CURVE('',#344,#390,#72,.T.);
#343=EDGE_CURVE('',#347,#391,#73,.T.);
#344=VERTEX_POINT('',#745);
#345=VERTEX_POINT('',#746);
#346=VERTEX_POINT('',#748);
#347=VERTEX_POINT('',#750);
#348=VERTEX_POINT('',#754);
#349=VERTEX_POINT('',#756);
#350=VERTEX_POINT('',#760);
#351=VERTEX_POINT('',#762);
#352=VERTEX_POINT('',#766);
#353=VERTEX_POINT('',#768);
#354=VERTEX_POINT('',#772);
#355=VERTEX_POINT('',#774);
#356=VERTEX_POINT('',#778);
#357=VERTEX_POINT('',#780);
#358=VERTEX_POINT('',#784);
#359=VERTEX_POINT('',#786);
#360=VERTEX_POINT('',#790);
#361=VERTEX_POINT('',#792);
#362=VERTEX_POINT('',#796);
#363=VERTEX_POINT('',#798);
#364=VERTEX_POINT('',#802);
#365=VERTEX_POINT('',#804);
#366=VERTEX_POINT('',#808);
#367=VERTEX_POINT('',#810);
#368=VERTEX_POINT('',#814);
#369=VERTEX_POINT('',#816);
#370=VERTEX_POINT('',#820);
#371=VERTEX_POINT('',#822);
#372=VERTEX_POINT('',#826);
#373=VERTEX_POINT('',#828);
#374=VERTEX_POINT('',#832);
#375=VERTEX_POINT('',#834);
#376=VERTEX_POINT('',#838);
#377=VERTEX_POINT('',#840);
#378=VERTEX_POINT('',#844);
#379=VERTEX_POINT('',#846);
#380=VERTEX_POINT('',#850);
#381=VERTEX_POINT('',#852);
#382=VERTEX_POINT('',#856);
#383=VERTEX_POINT('',#858);
#384=VERTEX_POINT('',#862);
#385=VERTEX_POINT('',#864);
#386=VERTEX_POINT('',#868);
#387=VERTEX_POINT('',#870);
#388=VERTEX_POINT('',#874);
#389=VERTEX_POINT('',#876);
#390=VERTEX_POINT('',#880);
#391=VERTEX_POINT('',#882);
#392=VERTEX_POINT('',#886);
#393=VERTEX_POINT('',#888);
#394=CIRCLE('',#534,0.06985);
#395=CIRCLE('',#535,0.06985);
#396=CIRCLE('',#538,0.00381);
#397=CIRCLE('',#539,0.00381);
#398=CIRCLE('',#542,0.06985);
#399=CIRCLE('',#543,0.06985);
#400=CIRCLE('',#546,0.00381);
#401=CIRCLE('',#547,0.00381);
#402=CIRCLE('',#550,0.06985);
#403=CIRCLE('',#551,0.06985);
#404=CIRCLE('',#554,0.00381);
#405=CIRCLE('',#555,0.00381);
#406=CIRCLE('',#558,0.06985);
#407=CIRCLE('',#559,0.06985);
#408=CIRCLE('',#562,0.00381);
#409=CIRCLE('',#563,0.00381);
#410=CIRCLE('',#566,0.06985);
#411=CIRCLE('',#567,0.06985);
#412=CIRCLE('',#570,0.00381);
#413=CIRCLE('',#571,0.00381);
#414=CIRCLE('',#574,0.06985);
#415=CIRCLE('',#575,0.06985);
#416=CIRCLE('',#578,0.00381);
#417=CIRCLE('',#579,0.00381);
#418=CIRCLE('',#581,0.057785);
#419=CIRCLE('',#582,0.057785);
#420=EDGE_LOOP('',(#122,#123,#124,#125));
#421=EDGE_LOOP('',(#126,#127,#128,#129));
#422=EDGE_LOOP('',(#130,#131,#132,#133));
#423=EDGE_LOOP('',(#134,#135,#136,#137));
#424=EDGE_LOOP('',(#138,#139,#140,#141));
#425=EDGE_LOOP('',(#142,#143,#144,#145));
#426=EDGE_LOOP('',(#146,#147,#148,#149));
#427=EDGE_LOOP('',(#150,#151,#152,#153));
#428=EDGE_LOOP('',(#154,#155,#156,#157));
#429=EDGE_LOOP('',(#158,#159,#160,#161));
#430=EDGE_LOOP('',(#162,#163,#164,#165));
#431=EDGE_LOOP('',(#166,#167,#168,#169));
#432=EDGE_LOOP('',(#170,#171,#172,#173));
#433=EDGE_LOOP('',(#174,#175,#176,#177));
#434=EDGE_LOOP('',(#178,#179,#180,#181));
#435=EDGE_LOOP('',(#182,#183,#184,#185));
#436=EDGE_LOOP('',(#186,#187,#188,#189));
#437=EDGE_LOOP('',(#190,#191,#192,#193));
#438=EDGE_LOOP('',(#194,#195,#196,#197));
#439=EDGE_LOOP('',(#198,#199,#200,#201));
#440=EDGE_LOOP('',(#202,#203,#204,#205));
#441=EDGE_LOOP('',(#206,#207,#208,#209));
#442=EDGE_LOOP('',(#210,#211,#212,#213));
#443=EDGE_LOOP('',(#214));
#444=EDGE_LOOP('',(#215));
#445=EDGE_LOOP('',(#216,#217,#218,#219));
#446=EDGE_LOOP('',(#220));
#447=EDGE_LOOP('',(#221,#222,#223,#224,#225,#226,#227,#228,#229,#230,#231,
#232,#233,#234,#235,#236,#237,#238,#239,#240,#241,#242,#243,#244));
#448=EDGE_LOOP('',(#245));
#449=EDGE_LOOP('',(#246,#247,#248,#249,#250,#251,#252,#253,#254,#255,#256,
#257,#258,#259,#260,#261,#262,#263,#264,#265,#266,#267,#268,#269));
#450=FACE_BOUND('',#420,.T.);
#451=FACE_BOUND('',#421,.T.);
#452=FACE_BOUND('',#422,.T.);
#453=FACE_BOUND('',#423,.T.);
#454=FACE_BOUND('',#424,.T.);
#455=FACE_BOUND('',#425,.T.);
#456=FACE_BOUND('',#426,.T.);
#457=FACE_BOUND('',#427,.T.);
#458=FACE_BOUND('',#428,.T.);
#459=FACE_BOUND('',#429,.T.);
#460=FACE_BOUND('',#430,.T.);
#461=FACE_BOUND('',#431,.T.);
#462=FACE_BOUND('',#432,.T.);
#463=FACE_BOUND('',#433,.T.);
#464=FACE_BOUND('',#434,.T.);
#465=FACE_BOUND('',#435,.T.);
#466=FACE_BOUND('',#436,.T.);
#467=FACE_BOUND('',#437,.T.);
#468=FACE_BOUND('',#438,.T.);
#469=FACE_BOUND('',#439,.T.);
#470=FACE_BOUND('',#440,.T.);
#471=FACE_BOUND('',#441,.T.);
#472=FACE_BOUND('',#442,.T.);
#473=FACE_BOUND('',#443,.T.);
#474=FACE_BOUND('',#444,.T.);
#475=FACE_BOUND('',#445,.T.);
#476=FACE_BOUND('',#446,.T.);
#477=FACE_BOUND('',#447,.T.);
#478=FACE_BOUND('',#448,.T.);
#479=FACE_BOUND('',#449,.T.);
#480=CYLINDRICAL_SURFACE('',#533,0.06985);
#481=CYLINDRICAL_SURFACE('',#537,0.00381);
#482=CYLINDRICAL_SURFACE('',#541,0.06985);
#483=CYLINDRICAL_SURFACE('',#545,0.00381);
#484=CYLINDRICAL_SURFACE('',#549,0.06985);
#485=CYLINDRICAL_SURFACE('',#553,0.00381);
#486=CYLINDRICAL_SURFACE('',#557,0.06985);
#487=CYLINDRICAL_SURFACE('',#561,0.00381);
#488=CYLINDRICAL_SURFACE('',#565,0.06985);
#489=CYLINDRICAL_SURFACE('',#569,0.00381);
#490=CYLINDRICAL_SURFACE('',#573,0.06985);
#491=CYLINDRICAL_SURFACE('',#577,0.00381);
#492=CYLINDRICAL_SURFACE('',#580,0.057785);
#493=ADVANCED_FACE('',(#450),#480,.T.);
#494=ADVANCED_FACE('',(#451),#12,.F.);
#495=ADVANCED_FACE('',(#452),#481,.F.);
#496=ADVANCED_FACE('',(#453),#13,.T.);
#497=ADVANCED_FACE('',(#454),#482,.T.);
#498=ADVANCED_FACE('',(#455),#14,.F.);
#499=ADVANCED_FACE('',(#456),#483,.F.);
#500=ADVANCED_FACE('',(#457),#15,.T.);
#501=ADVANCED_FACE('',(#458),#484,.T.);
#502=ADVANCED_FACE('',(#459),#16,.F.);
#503=ADVANCED_FACE('',(#460),#485,.F.);
#504=ADVANCED_FACE('',(#461),#17,.T.);
#505=ADVANCED_FACE('',(#462),#486,.T.);
#506=ADVANCED_FACE('',(#463),#18,.F.);
#507=ADVANCED_FACE('',(#464),#487,.F.);
#508=ADVANCED_FACE('',(#465),#19,.T.);
#509=ADVANCED_FACE('',(#466),#488,.T.);
#510=ADVANCED_FACE('',(#467),#20,.F.);
#511=ADVANCED_FACE('',(#468),#489,.F.);
#512=ADVANCED_FACE('',(#469),#21,.T.);
#513=ADVANCED_FACE('',(#470),#490,.T.);
#514=ADVANCED_FACE('',(#471),#22,.F.);
#515=ADVANCED_FACE('',(#472),#491,.F.);
#516=ADVANCED_FACE('',(#473,#474),#492,.F.);
#517=ADVANCED_FACE('',(#475),#23,.T.);
#518=ADVANCED_FACE('',(#476,#477),#24,.T.);
#519=ADVANCED_FACE('',(#478,#479),#25,.F.);
#520=CLOSED_SHELL('',(#493,#494,#495,#496,#497,#498,#499,#500,#501,#502,
#503,#504,#505,#506,#507,#508,#509,#510,#511,#512,#513,#514,#515,#516,#517,
#518,#519));
#521=STYLED_ITEM('',(#522),#529);
#522=PRESENTATION_STYLE_ASSIGNMENT((#523));
#523=SURFACE_STYLE_USAGE(.BOTH.,#524);
#524=SURFACE_SIDE_STYLE('',(#525));
#525=SURFACE_STYLE_FILL_AREA(#526);
#526=FILL_AREA_STYLE('',(#527));
#527=FILL_AREA_STYLE_COLOUR('',#528);
#528=COLOUR_RGB('',0.615686274509804,0.811764705882353,0.929411764705882);
#529=MANIFOLD_SOLID_BREP('Chassis',#520);
#530=SHAPE_DEFINITION_REPRESENTATION(#900,#531);
#531=SHAPE_REPRESENTATION('Chassis',(#532),#895);
#532=AXIS2_PLACEMENT_3D('',#742,#586,#587);
#533=AXIS2_PLACEMENT_3D('',#743,#588,#589);
#534=AXIS2_PLACEMENT_3D('',#744,#590,#591);
#535=AXIS2_PLACEMENT_3D('',#749,#593,#594);
#536=AXIS2_PLACEMENT_3D('',#752,#596,#597);
#537=AXIS2_PLACEMENT_3D('',#758,#601,#602);
#538=AXIS2_PLACEMENT_3D('',#759,#603,#604);
#539=AXIS2_PLACEMENT_3D('',#763,#606,#607);
#540=AXIS2_PLACEMENT_3D('',#764,#608,#609);
#541=AXIS2_PLACEMENT_3D('',#770,#613,#614);
#542=AXIS2_PLACEMENT_3D('',#771,#615,#616);
#543=AXIS2_PLACEMENT_3D('',#775,#618,#619);
#544=AXIS2_PLACEMENT_3D('',#776,#620,#621);
#545=AXIS2_PLACEMENT_3D('',#782,#625,#626);
#546=AXIS2_PLACEMENT_3D('',#783,#627,#628);
#547=AXIS2_PLACEMENT_3D('',#787,#630,#631);
#548=AXIS2_PLACEMENT_3D('',#788,#632,#633);
#549=AXIS2_PLACEMENT_3D('',#794,#637,#638);
#550=AXIS2_PLACEMENT_3D('',#795,#639,#640);
#551=AXIS2_PLACEMENT_3D('',#799,#642,#643);
#552=AXIS2_PLACEMENT_3D('',#800,#644,#645);
#553=AXIS2_PLACEMENT_3D('',#806,#649,#650);
#554=AXIS2_PLACEMENT_3D('',#807,#651,#652);
#555=AXIS2_PLACEMENT_3D('',#811,#654,#655);
#556=AXIS2_PLACEMENT_3D('',#812,#656,#657);
#557=AXIS2_PLACEMENT_3D('',#818,#661,#662);
#558=AXIS2_PLACEMENT_3D('',#819,#663,#664);
#559=AXIS2_PLACEMENT_3D('',#823,#666,#667);
#560=AXIS2_PLACEMENT_3D('',#824,#668,#669);
#561=AXIS2_PLACEMENT_3D('',#830,#673,#674);
#562=AXIS2_PLACEMENT_3D('',#831,#675,#676);
#563=AXIS2_PLACEMENT_3D('',#835,#678,#679);
#564=AXIS2_PLACEMENT_3D('',#836,#680,#681);
#565=AXIS2_PLACEMENT_3D('',#842,#685,#686);
#566=AXIS2_PLACEMENT_3D('',#843,#687,#688);
#567=AXIS2_PLACEMENT_3D('',#847,#690,#691);
#568=AXIS2_PLACEMENT_3D('',#848,#692,#693);
#569=AXIS2_PLACEMENT_3D('',#854,#697,#698);
#570=AXIS2_PLACEMENT_3D('',#855,#699,#700);
#571=AXIS2_PLACEMENT_3D('',#859,#702,#703);
#572=AXIS2_PLACEMENT_3D('',#860,#704,#705);
#573=AXIS2_PLACEMENT_3D('',#866,#709,#710);
#574=AXIS2_PLACEMENT_3D('',#867,#711,#712);
#575=AXIS2_PLACEMENT_3D('',#871,#714,#715);
#576=AXIS2_PLACEMENT_3D('',#872,#716,#717);
#577=AXIS2_PLACEMENT_3D('',#878,#721,#722);
#578=AXIS2_PLACEMENT_3D('',#879,#723,#724);
#579=AXIS2_PLACEMENT_3D('',#883,#726,#727);
#580=AXIS2_PLACEMENT_3D('',#884,#728,#729);
#581=AXIS2_PLACEMENT_3D('',#885,#730,#731);
#582=AXIS2_PLACEMENT_3D('',#887,#732,#733);
#583=AXIS2_PLACEMENT_3D('',#889,#734,#735);
#584=AXIS2_PLACEMENT_3D('',#892,#738,#739);
#585=AXIS2_PLACEMENT_3D('',#893,#740,#741);
#586=DIRECTION('',(0.,0.,1.));
#587=DIRECTION('',(1.,0.,0.));
#588=DIRECTION('',(0.,0.,-1.));
#589=DIRECTION('',(-1.,0.,0.));
#590=DIRECTION('',(0.,0.,1.));
#591=DIRECTION('',(1.,0.,0.));
#592=DIRECTION('',(0.,0.,-1.));
#593=DIRECTION('',(0.,0.,1.));
#594=DIRECTION('',(1.,0.,0.));
#595=DIRECTION('',(0.,0.,-1.));
#596=DIRECTION('',(0.5,0.866025403784439,0.));
#597=DIRECTION('',(-0.866025403784439,0.5,0.));
#598=DIRECTION('',(0.866025403784439,-0.5,0.));
#599=DIRECTION('',(0.,0.,-1.));
#600=DIRECTION('',(0.866025403784439,-0.5,0.));
#601=DIRECTION('',(0.,0.,-1.));
#602=DIRECTION('',(-1.,0.,0.));
#603=DIRECTION('',(0.,0.,1.));
#604=DIRECTION('',(1.,0.,0.));
#605=DIRECTION('',(0.,0.,-1.));
#606=DIRECTION('',(0.,0.,1.));
#607=DIRECTION('',(1.,0.,0.));
#608=DIRECTION('',(0.5,0.866025403784439,0.));
#609=DIRECTION('',(-0.866025403784439,0.5,0.));
#610=DIRECTION('',(0.866025403784439,-0.5,0.));
#611=DIRECTION('',(0.,0.,-1.));
#612=DIRECTION('',(0.866025403784439,-0.5,0.));
#613=DIRECTION('',(0.,0.,-1.));
#614=DIRECTION('',(-1.,0.,0.));
#615=DIRECTION('',(0.,0.,1.));
#616=DIRECTION('',(1.,0.,0.));
#617=DIRECTION('',(0.,0.,-1.));
#618=DIRECTION('',(0.,0.,1.));
#619=DIRECTION('',(1.,0.,0.));
#620=DIRECTION('',(-0.5,0.866025403784439,0.));
#621=DIRECTION('',(-0.866025403784439,-0.5,0.));
#622=DIRECTION('',(0.866025403784439,0.5,0.));
#623=DIRECTION('',(0.,0.,-1.));
#624=DIRECTION('',(0.866025403784439,0.5,0.));
#625=DIRECTION('',(0.,0.,-1.));
#626=DIRECTION('',(-1.,0.,0.));
#627=DIRECTION('',(0.,0.,1.));
#628=DIRECTION('',(1.,0.,0.));
#629=DIRECTION('',(0.,0.,-1.));
#630=DIRECTION('',(0.,0.,1.));
#631=DIRECTION('',(1.,0.,0.));
#632=DIRECTION('',(-0.5,0.866025403784439,0.));
#633=DIRECTION('',(-0.866025403784439,-0.5,0.));
#634=DIRECTION('',(0.866025403784439,0.5,0.));
#635=DIRECTION('',(0.,0.,-1.));
#636=DIRECTION('',(0.866025403784439,0.5,0.));
#637=DIRECTION('',(0.,0.,-1.));
#638=DIRECTION('',(-1.,0.,0.));
#639=DIRECTION('',(0.,0.,1.));
#640=DIRECTION('',(1.,0.,0.));
#641=DIRECTION('',(0.,0.,-1.));
#642=DIRECTION('',(0.,0.,1.));
#643=DIRECTION('',(1.,0.,0.));
#644=DIRECTION('',(-1.,1.71048340337804E-16,0.));
#645=DIRECTION('',(-1.71048340337804E-16,-1.,0.));
#646=DIRECTION('',(1.71048340337804E-16,1.,0.));
#647=DIRECTION('',(0.,0.,-1.));
#648=DIRECTION('',(1.71048340337804E-16,1.,0.));
#649=DIRECTION('',(0.,0.,-1.));
#650=DIRECTION('',(-1.,0.,0.));
#651=DIRECTION('',(0.,0.,1.));
#652=DIRECTION('',(1.,0.,0.));
#653=DIRECTION('',(0.,0.,-1.));
#654=DIRECTION('',(0.,0.,1.));
#655=DIRECTION('',(1.,0.,0.));
#656=DIRECTION('',(-1.,1.71048340337804E-16,0.));
#657=DIRECTION('',(-1.71048340337804E-16,-1.,0.));
#658=DIRECTION('',(1.71048340337804E-16,1.,0.));
#659=DIRECTION('',(0.,0.,-1.));
#660=DIRECTION('',(1.71048340337804E-16,1.,0.));
#661=DIRECTION('',(0.,0.,-1.));
#662=DIRECTION('',(-1.,0.,0.));
#663=DIRECTION('',(0.,0.,1.));
#664=DIRECTION('',(1.,0.,0.));
#665=DIRECTION('',(0.,0.,-1.));
#666=DIRECTION('',(0.,0.,1.));
#667=DIRECTION('',(1.,0.,0.));
#668=DIRECTION('',(-0.5,-0.866025403784438,0.));
#669=DIRECTION('',(0.866025403784438,-0.5,0.));
#670=DIRECTION('',(-0.866025403784438,0.5,0.));
#671=DIRECTION('',(0.,0.,-1.));
#672=DIRECTION('',(-0.866025403784438,0.5,0.));
#673=DIRECTION('',(0.,0.,-1.));
#674=DIRECTION('',(-1.,0.,0.));
#675=DIRECTION('',(0.,0.,1.));
#676=DIRECTION('',(1.,0.,0.));
#677=DIRECTION('',(0.,0.,-1.));
#678=DIRECTION('',(0.,0.,1.));
#679=DIRECTION('',(1.,0.,0.));
#680=DIRECTION('',(-0.5,-0.866025403784438,0.));
#681=DIRECTION('',(0.866025403784438,-0.5,0.));
#682=DIRECTION('',(-0.866025403784438,0.5,0.));
#683=DIRECTION('',(0.,0.,-1.));
#684=DIRECTION('',(-0.866025403784438,0.5,0.));
#685=DIRECTION('',(0.,0.,-1.));
#686=DIRECTION('',(-1.,0.,0.));
#687=DIRECTION('',(0.,0.,1.));
#688=DIRECTION('',(1.,0.,0.));
#689=DIRECTION('',(0.,0.,-1.));
#690=DIRECTION('',(0.,0.,1.));
#691=DIRECTION('',(1.,0.,0.));
#692=DIRECTION('',(0.5,-0.866025403784439,0.));
#693=DIRECTION('',(0.866025403784439,0.5,0.));
#694=DIRECTION('',(-0.866025403784439,-0.5,0.));
#695=DIRECTION('',(0.,0.,-1.));
#696=DIRECTION('',(-0.866025403784439,-0.5,0.));
#697=DIRECTION('',(0.,0.,-1.));
#698=DIRECTION('',(-1.,0.,0.));
#699=DIRECTION('',(0.,0.,1.));
#700=DIRECTION('',(1.,0.,0.));
#701=DIRECTION('',(0.,0.,-1.));
#702=DIRECTION('',(0.,0.,1.));
#703=DIRECTION('',(1.,0.,0.));
#704=DIRECTION('',(0.5,-0.866025403784439,0.));
#705=DIRECTION('',(0.866025403784439,0.5,0.));
#706=DIRECTION('',(-0.866025403784439,-0.5,0.));
#707=DIRECTION('',(0.,0.,-1.));
#708=DIRECTION('',(-0.866025403784439,-0.5,0.));
#709=DIRECTION('',(0.,0.,-1.));
#710=DIRECTION('',(-1.,0.,0.));
#711=DIRECTION('',(0.,0.,1.));
#712=DIRECTION('',(1.,0.,0.));
#713=DIRECTION('',(0.,0.,-1.));
#714=DIRECTION('',(0.,0.,1.));
#715=DIRECTION('',(1.,0.,0.));
#716=DIRECTION('',(1.,0.,0.));
#717=DIRECTION('',(0.,0.,-1.));
#718=DIRECTION('',(0.,-1.,0.));
#719=DIRECTION('',(0.,0.,-1.));
#720=DIRECTION('',(0.,-1.,0.));
#721=DIRECTION('',(0.,0.,-1.));
#722=DIRECTION('',(-1.,0.,0.));
#723=DIRECTION('',(0.,0.,1.));
#724=DIRECTION('',(1.,0.,0.));
#725=DIRECTION('',(0.,0.,-1.));
#726=DIRECTION('',(0.,0.,1.));
#727=DIRECTION('',(1.,0.,0.));
#728=DIRECTION('',(0.,0.,-1.));
#729=DIRECTION('',(-1.,0.,0.));
#730=DIRECTION('',(0.,0.,1.));
#731=DIRECTION('',(1.,0.,0.));
#732=DIRECTION('',(0.,0.,1.));
#733=DIRECTION('',(1.,0.,0.));
#734=DIRECTION('',(1.,0.,0.));
#735=DIRECTION('',(0.,0.,-1.));
#736=DIRECTION('',(0.,-1.,0.));
#737=DIRECTION('',(0.,-1.,0.));
#738=DIRECTION('',(0.,0.,1.));
#739=DIRECTION('',(1.,0.,0.));
#740=DIRECTION('',(0.,0.,1.));
#741=DIRECTION('',(1.,0.,0.));
#742=CARTESIAN_POINT('',(0.,0.,0.));
#743=CARTESIAN_POINT('',(-1.75640751942651E-17,2.42861286636753E-17,0.2032));
#744=CARTESIAN_POINT('',(-1.75640751942651E-17,2.42861286636753E-17,0.));
#745=CARTESIAN_POINT('',(-0.00254,0.0698038029049994,0.));
#746=CARTESIAN_POINT('',(-0.0591818665964915,0.0371016059781121,0.));
#747=CARTESIAN_POINT('',(-0.0591818665964915,0.0371016059781121,0.2032));
#748=CARTESIAN_POINT('',(-0.0591818665964915,0.0371016059781121,0.2032));
#749=CARTESIAN_POINT('',(-1.75640751942651E-17,2.42861286636753E-17,0.2032));
#750=CARTESIAN_POINT('',(-0.00254,0.0698038029049994,0.2032));
#751=CARTESIAN_POINT('',(-0.00254,0.0698038029049994,0.2032));
#752=CARTESIAN_POINT('',(-0.0580839937701824,0.0364677488063066,0.2032));
#753=CARTESIAN_POINT('',(-0.0580839937701824,0.0364677488063066,0.));
#754=CARTESIAN_POINT('',(-0.0569861209438733,0.0358338916345011,0.));
#755=CARTESIAN_POINT('',(-0.0569861209438733,0.0358338916345011,0.2032));
#756=CARTESIAN_POINT('',(-0.0569861209438733,0.0358338916345011,0.2032));
#757=CARTESIAN_POINT('',(-0.0580839937701824,0.0364677488063066,0.2032));
#758=CARTESIAN_POINT('',(-0.0557967765190316,0.0322142839431762,0.2032));
#759=CARTESIAN_POINT('',(-0.0557967765190316,0.0322142839431762,0.));
#760=CARTESIAN_POINT('',(-0.0595261209438733,0.0314344825832761,0.));
#761=CARTESIAN_POINT('',(-0.0595261209438733,0.0314344825832761,0.2032));
#762=CARTESIAN_POINT('',(-0.0595261209438733,0.0314344825832761,0.2032));
#763=CARTESIAN_POINT('',(-0.0557967765190316,0.0322142839431762,0.2032));
#764=CARTESIAN_POINT('',(-0.0606239937701824,0.0320683397550817,0.2032));
#765=CARTESIAN_POINT('',(-0.0606239937701824,0.0320683397550817,0.));
#766=CARTESIAN_POINT('',(-0.0617218665964915,0.0327021969268872,0.));
#767=CARTESIAN_POINT('',(-0.0617218665964915,0.0327021969268872,0.2032));
#768=CARTESIAN_POINT('',(-0.0617218665964915,0.0327021969268872,0.2032));
#769=CARTESIAN_POINT('',(-0.0606239937701824,0.0320683397550817,0.2032));
#770=CARTESIAN_POINT('',(6.93889390390723E-17,-2.42861286636753E-17,0.2032));
#771=CARTESIAN_POINT('',(6.93889390390723E-17,-2.42861286636753E-17,0.));
#772=CARTESIAN_POINT('',(-0.0617218665964915,-0.0327021969268872,0.));
#773=CARTESIAN_POINT('',(-0.0617218665964915,-0.0327021969268872,0.2032));
#774=CARTESIAN_POINT('',(-0.0617218665964915,-0.0327021969268872,0.2032));
#775=CARTESIAN_POINT('',(6.93889390390723E-17,-2.42861286636753E-17,0.2032));
#776=CARTESIAN_POINT('',(-0.0606239937701824,-0.0320683397550817,0.2032));
#777=CARTESIAN_POINT('',(-0.0606239937701824,-0.0320683397550817,0.));
#778=CARTESIAN_POINT('',(-0.0595261209438733,-0.0314344825832761,0.));
#779=CARTESIAN_POINT('',(-0.0595261209438733,-0.0314344825832761,0.2032));
#780=CARTESIAN_POINT('',(-0.0595261209438733,-0.0314344825832761,0.2032));
#781=CARTESIAN_POINT('',(-0.0606239937701824,-0.0320683397550817,0.2032));
#782=CARTESIAN_POINT('',(-0.0557967765190316,-0.0322142839431762,0.2032));
#783=CARTESIAN_POINT('',(-0.0557967765190316,-0.0322142839431762,0.));
#784=CARTESIAN_POINT('',(-0.0569861209438733,-0.0358338916345011,0.));
#785=CARTESIAN_POINT('',(-0.0569861209438733,-0.0358338916345011,0.2032));
#786=CARTESIAN_POINT('',(-0.0569861209438733,-0.0358338916345011,0.2032));
#787=CARTESIAN_POINT('',(-0.0557967765190316,-0.0322142839431762,0.2032));
#788=CARTESIAN_POINT('',(-0.0580839937701824,-0.0364677488063066,0.2032));
#789=CARTESIAN_POINT('',(-0.0580839937701824,-0.0364677488063066,0.));
#790=CARTESIAN_POINT('',(-0.0591818665964915,-0.0371016059781122,0.));
#791=CARTESIAN_POINT('',(-0.0591818665964915,-0.0371016059781122,0.2032));
#792=CARTESIAN_POINT('',(-0.0591818665964915,-0.0371016059781122,0.2032));
#793=CARTESIAN_POINT('',(-0.0580839937701824,-0.0364677488063066,0.2032));
#794=CARTESIAN_POINT('',(-1.32272665043232E-17,-6.93889390390723E-18,0.2032));
#795=CARTESIAN_POINT('',(-1.32272665043232E-17,-6.93889390390723E-18,0.));
#796=CARTESIAN_POINT('',(-0.00254,-0.0698038029049994,0.));
#797=CARTESIAN_POINT('',(-0.00254,-0.0698038029049994,0.2032));
#798=CARTESIAN_POINT('',(-0.00254,-0.0698038029049994,0.2032));
#799=CARTESIAN_POINT('',(-1.32272665043232E-17,-6.93889390390723E-18,0.2032));
#800=CARTESIAN_POINT('',(-0.00254,-0.0685360885613883,0.2032));
#801=CARTESIAN_POINT('',(-0.00254,-0.0685360885613883,0.));
#802=CARTESIAN_POINT('',(-0.00254,-0.0672683742177773,0.));
#803=CARTESIAN_POINT('',(-0.00254,-0.0672683742177773,0.2032));
#804=CARTESIAN_POINT('',(-0.00254,-0.0672683742177773,0.2032));
#805=CARTESIAN_POINT('',(-0.00254,-0.0685360885613883,0.2032));
#806=CARTESIAN_POINT('',(-1.43914403085474E-17,-0.0644285678863525,0.2032));
#807=CARTESIAN_POINT('',(-1.43914403085474E-17,-0.0644285678863525,0.));
#808=CARTESIAN_POINT('',(0.00254,-0.0672683742177773,0.));
#809=CARTESIAN_POINT('',(0.00254,-0.0672683742177773,0.2032));
#810=CARTESIAN_POINT('',(0.00254,-0.0672683742177773,0.2032));
#811=CARTESIAN_POINT('',(-1.43914403085474E-17,-0.0644285678863525,0.2032));
#812=CARTESIAN_POINT('',(0.00254,-0.0685360885613883,0.2032));
#813=CARTESIAN_POINT('',(0.00254,-0.0685360885613883,0.));
#814=CARTESIAN_POINT('',(0.00254,-0.0698038029049994,0.));
#815=CARTESIAN_POINT('',(0.00254,-0.0698038029049994,0.2032));
#816=CARTESIAN_POINT('',(0.00254,-0.0698038029049994,0.2032));
#817=CARTESIAN_POINT('',(0.00254,-0.0685360885613883,0.2032));
#818=CARTESIAN_POINT('',(1.7347234759768E-17,-1.04083408558608E-17,0.2032));
#819=CARTESIAN_POINT('',(1.7347234759768E-17,-1.04083408558608E-17,0.));
#820=CARTESIAN_POINT('',(0.0591818665964915,-0.0371016059781122,0.));
#821=CARTESIAN_POINT('',(0.0591818665964915,-0.0371016059781122,0.2032));
#822=CARTESIAN_POINT('',(0.0591818665964915,-0.0371016059781122,0.2032));
#823=CARTESIAN_POINT('',(1.7347234759768E-17,-1.04083408558608E-17,0.2032));
#824=CARTESIAN_POINT('',(0.0580839937701824,-0.0364677488063066,0.2032));
#825=CARTESIAN_POINT('',(0.0580839937701824,-0.0364677488063066,0.));
#826=CARTESIAN_POINT('',(0.0569861209438733,-0.0358338916345012,0.));
#827=CARTESIAN_POINT('',(0.0569861209438733,-0.0358338916345012,0.2032));
#828=CARTESIAN_POINT('',(0.0569861209438733,-0.0358338916345012,0.2032));
#829=CARTESIAN_POINT('',(0.0580839937701824,-0.0364677488063066,0.2032));
#830=CARTESIAN_POINT('',(0.0557967765190316,-0.0322142839431763,0.2032));
#831=CARTESIAN_POINT('',(0.0557967765190316,-0.0322142839431763,0.));
#832=CARTESIAN_POINT('',(0.0595261209438733,-0.0314344825832762,0.));
#833=CARTESIAN_POINT('',(0.0595261209438733,-0.0314344825832762,0.2032));
#834=CARTESIAN_POINT('',(0.0595261209438733,-0.0314344825832762,0.2032));
#835=CARTESIAN_POINT('',(0.0557967765190316,-0.0322142839431763,0.2032));
#836=CARTESIAN_POINT('',(0.0606239937701824,-0.0320683397550817,0.2032));
#837=CARTESIAN_POINT('',(0.0606239937701824,-0.0320683397550817,0.));
#838=CARTESIAN_POINT('',(0.0617218665964915,-0.0327021969268873,0.));
#839=CARTESIAN_POINT('',(0.0617218665964915,-0.0327021969268873,0.2032));
#840=CARTESIAN_POINT('',(0.0617218665964915,-0.0327021969268873,0.2032));
#841=CARTESIAN_POINT('',(0.0606239937701824,-0.0320683397550817,0.2032));
#842=CARTESIAN_POINT('',(-3.46944695195361E-18,6.93889390390723E-18,0.2032));
#843=CARTESIAN_POINT('',(-3.46944695195361E-18,6.93889390390723E-18,0.));
#844=CARTESIAN_POINT('',(0.0617218665964915,0.0327021969268873,0.));
#845=CARTESIAN_POINT('',(0.0617218665964915,0.0327021969268873,0.2032));
#846=CARTESIAN_POINT('',(0.0617218665964915,0.0327021969268873,0.2032));
#847=CARTESIAN_POINT('',(-3.46944695195361E-18,6.93889390390723E-18,0.2032));
#848=CARTESIAN_POINT('',(0.0606239937701824,0.0320683397550817,0.2032));
#849=CARTESIAN_POINT('',(0.0606239937701824,0.0320683397550817,0.));
#850=CARTESIAN_POINT('',(0.0595261209438733,0.0314344825832761,0.));
#851=CARTESIAN_POINT('',(0.0595261209438733,0.0314344825832761,0.2032));
#852=CARTESIAN_POINT('',(0.0595261209438733,0.0314344825832761,0.2032));
#853=CARTESIAN_POINT('',(0.0606239937701824,0.0320683397550817,0.2032));
#854=CARTESIAN_POINT('',(0.0557967765190316,0.0322142839431762,0.2032));
#855=CARTESIAN_POINT('',(0.0557967765190316,0.0322142839431762,0.));
#856=CARTESIAN_POINT('',(0.0569861209438733,0.0358338916345011,0.));
#857=CARTESIAN_POINT('',(0.0569861209438733,0.0358338916345011,0.2032));
#858=CARTESIAN_POINT('',(0.0569861209438733,0.0358338916345011,0.2032));
#859=CARTESIAN_POINT('',(0.0557967765190316,0.0322142839431762,0.2032));
#860=CARTESIAN_POINT('',(0.0580839937701824,0.0364677488063066,0.2032));
#861=CARTESIAN_POINT('',(0.0580839937701824,0.0364677488063066,0.));
#862=CARTESIAN_POINT('',(0.0591818665964915,0.0371016059781122,0.));
#863=CARTESIAN_POINT('',(0.0591818665964915,0.0371016059781122,0.2032));
#864=CARTESIAN_POINT('',(0.0591818665964915,0.0371016059781122,0.2032));
#865=CARTESIAN_POINT('',(0.0580839937701824,0.0364677488063066,0.2032));
#866=CARTESIAN_POINT('',(1.34441069388203E-17,1.04083408558608E-17,0.2032));
#867=CARTESIAN_POINT('',(1.34441069388203E-17,1.04083408558608E-17,0.));
#868=CARTESIAN_POINT('',(0.00254,0.0698038029049994,0.));
#869=CARTESIAN_POINT('',(0.00254,0.0698038029049994,0.2032));
#870=CARTESIAN_POINT('',(0.00254,0.0698038029049994,0.2032));
#871=CARTESIAN_POINT('',(1.34441069388203E-17,1.04083408558608E-17,0.2032));
#872=CARTESIAN_POINT('',(0.00254,0.0685360885613883,0.2032));
#873=CARTESIAN_POINT('',(0.00254,0.0685360885613883,0.));
#874=CARTESIAN_POINT('',(0.00254,0.0672683742177773,0.));
#875=CARTESIAN_POINT('',(0.00254,0.0672683742177773,0.2032));
#876=CARTESIAN_POINT('',(0.00254,0.0672683742177773,0.2032));
#877=CARTESIAN_POINT('',(0.00254,0.0685360885613883,0.2032));
#878=CARTESIAN_POINT('',(6.65162073306461E-18,0.0644285678863525,0.2032));
#879=CARTESIAN_POINT('',(6.65162073306461E-18,0.0644285678863525,0.));
#880=CARTESIAN_POINT('',(-0.00254,0.0672683742177773,0.));
#881=CARTESIAN_POINT('',(-0.00254,0.0672683742177773,0.2032));
#882=CARTESIAN_POINT('',(-0.00254,0.0672683742177773,0.2032));
#883=CARTESIAN_POINT('',(6.65162073306461E-18,0.0644285678863525,0.2032));
#884=CARTESIAN_POINT('',(0.,3.53831076443649E-18,0.2032));
#885=CARTESIAN_POINT('',(0.,3.53831076443649E-18,0.2032));
#886=CARTESIAN_POINT('',(0.057785,3.53831076443649E-18,0.2032));
#887=CARTESIAN_POINT('',(0.,3.53831076443649E-18,0.));
#888=CARTESIAN_POINT('',(0.057785,3.53831076443649E-18,0.));
#889=CARTESIAN_POINT('',(-0.00254,0.0685360885613883,0.2032));
#890=CARTESIAN_POINT('',(-0.00254,0.0685360885613883,0.));
#891=CARTESIAN_POINT('',(-0.00254,0.0685360885613883,0.2032));
#892=CARTESIAN_POINT('',(0.,0.,0.2032));
#893=CARTESIAN_POINT('',(0.,0.,0.));
#894=MECHANICAL_DESIGN_GEOMETRIC_PRESENTATION_REPRESENTATION('',(#521),
#895);
#895=(
GEOMETRIC_REPRESENTATION_CONTEXT(3)
GLOBAL_UNCERTAINTY_ASSIGNED_CONTEXT((#896))
GLOBAL_UNIT_ASSIGNED_CONTEXT((#899,#898,#897))
REPRESENTATION_CONTEXT('Chassis','TOP_LEVEL_ASSEMBLY_PART')
);
#896=UNCERTAINTY_MEASURE_WITH_UNIT(LENGTH_MEASURE(1.E-8),#899,
'DISTANCE_ACCURACY_VALUE','Maximum Tolerance applied to model');
#897=(
NAMED_UNIT(*)
SI_UNIT($,.STERADIAN.)
SOLID_ANGLE_UNIT()
);
#898=(
NAMED_UNIT(*)
PLANE_ANGLE_UNIT()
SI_UNIT($,.RADIAN.)
);
#899=(
LENGTH_UNIT()
NAMED_UNIT(*)
SI_UNIT($,.METRE.)
);
#900=PRODUCT_DEFINITION_SHAPE('','',#901);
#901=PRODUCT_DEFINITION('','',#903,#902);
#902=PRODUCT_DEFINITION_CONTEXT('',#909,'design');
#903=PRODUCT_DEFINITION_FORMATION_WITH_SPECIFIED_SOURCE('','',#905,
 .NOT_KNOWN.);
#904=PRODUCT_RELATED_PRODUCT_CATEGORY('','',(#905));
#905=PRODUCT('Chassis','Chassis','Chassis',(#907));
#906=PRODUCT_CATEGORY('','');
#907=PRODUCT_CONTEXT('',#909,'mechanical');
#908=APPLICATION_PROTOCOL_DEFINITION('international standard',
'ap242_managed_model_based_3d_engineering',2020,#909);
#909=APPLICATION_CONTEXT('managed model based 3d engineering');
ENDSEC;
END-ISO-10303-21;
