ISO-10303-21;
HEADER;
/* Generated by software containing ST-Developer
 * from STEP Tools, Inc. (www.steptools.com) 
 */
/* OPTION: using custom renumber hook */

FILE_DESCRIPTION(
/* description */ ('STEP AP242 Edition 2',
'CAx-IF Rec.Pracs.---Representation and Presentation of Product Manufa
cturing Information (PMI)---4.0---2014-10-13',
'CAx-IF Rec.Pracs.---3D Tessellated Geometry---0.4---2014-09-14','2;1',
'CAx-IF Rec.Pracs.---User Defined Attributes---1.5---2016-08-15'),
/* implementation_level */ '2;1');

FILE_NAME(
/* name */ 'Floatation - Part 1',
/* time_stamp */ '2026-08-15T18:25:10Z',
/* author */ (''),
/* organization */ (''),
/* preprocessor_version */ 'ST-DEVELOPER v20',
/* originating_system */ 'ONSHAPE BY PTC INC, 1.219',
/* authorisation */ '  ');

FILE_SCHEMA (('AP242_MANAGED_MODEL_BASED_3D_ENGINEERING_MIM_LF { 1 0 10303 442 3 1 4 }'));
ENDSEC;

DATA;
#10=SHAPE_REPRESENTATION_RELATIONSHIP('','',#524,#11);
#11=ADVANCED_BREP_SHAPE_REPRESENTATION('',(#522),#1175);
#12=TOROIDAL_SURFACE('',#571,0.3683,0.0127);
#13=TOROIDAL_SURFACE('',#572,0.3683,0.0127);
#14=TOROIDAL_SURFACE('',#573,0.0552398231086698,0.0127);
#15=TOROIDAL_SURFACE('',#574,0.0490629145024084,0.0127);
#16=B_SPLINE_CURVE_WITH_KNOTS('',3,(#1050,#1051,#1052,#1053),
 .UNSPECIFIED.,.F.,.F.,(4,4),(0.,0.00190753333597691),.UNSPECIFIED.);
#17=B_SPLINE_CURVE_WITH_KNOTS('',3,(#1062,#1063,#1064,#1065),
 .UNSPECIFIED.,.F.,.F.,(4,4),(0.,0.00190753333597691),.UNSPECIFIED.);
#18=B_SPLINE_CURVE_WITH_KNOTS('',3,(#1071,#1072,#1073,#1074),
 .UNSPECIFIED.,.F.,.F.,(4,4),(0.,0.00635),.UNSPECIFIED.);
#19=B_SPLINE_CURVE_WITH_KNOTS('',3,(#1080,#1081,#1082,#1083),
 .UNSPECIFIED.,.F.,.F.,(4,4),(0.,0.00190753333597691),.UNSPECIFIED.);
#20=B_SPLINE_CURVE_WITH_KNOTS('',3,(#1092,#1093,#1094,#1095),
 .UNSPECIFIED.,.F.,.F.,(4,4),(0.,0.00190753333597691),.UNSPECIFIED.);
#21=B_SPLINE_CURVE_WITH_KNOTS('',3,(#1101,#1102,#1103,#1104),
 .UNSPECIFIED.,.F.,.F.,(4,4),(0.,0.00635),.UNSPECIFIED.);
#22=B_SPLINE_CURVE_WITH_KNOTS('',3,(#1110,#1111,#1112,#1113),
 .UNSPECIFIED.,.F.,.F.,(4,4),(0.,0.00190753333597691),.UNSPECIFIED.);
#23=B_SPLINE_CURVE_WITH_KNOTS('',3,(#1122,#1123,#1124,#1125),
 .UNSPECIFIED.,.F.,.F.,(4,4),(0.,0.00190753333597691),.UNSPECIFIED.);
#24=B_SPLINE_CURVE_WITH_KNOTS('',3,(#1131,#1132,#1133,#1134),
 .UNSPECIFIED.,.F.,.F.,(4,4),(0.,0.00635),.UNSPECIFIED.);
#25=B_SPLINE_CURVE_WITH_KNOTS('',3,(#1140,#1141,#1142,#1143),
 .UNSPECIFIED.,.F.,.F.,(4,4),(0.,0.00190753333597691),.UNSPECIFIED.);
#26=B_SPLINE_CURVE_WITH_KNOTS('',3,(#1152,#1153,#1154,#1155),
 .UNSPECIFIED.,.F.,.F.,(4,4),(0.,0.00190753333597691),.UNSPECIFIED.);
#27=B_SPLINE_CURVE_WITH_KNOTS('',3,(#1161,#1162,#1163,#1164),
 .UNSPECIFIED.,.F.,.F.,(4,4),(0.,0.00635),.UNSPECIFIED.);
#28=CYLINDRICAL_SURFACE('',#543,0.381);
#29=CYLINDRICAL_SURFACE('',#549,0.0508);
#30=CYLINDRICAL_SURFACE('',#554,0.0508);
#31=CYLINDRICAL_SURFACE('',#559,0.0508);
#32=CYLINDRICAL_SURFACE('',#564,0.0508);
#33=CYLINDRICAL_SURFACE('',#570,0.041275);
#34=B_SPLINE_SURFACE_WITH_KNOTS('',3,3,((#753,#754,#755,#756,#757,#758,
#759,#760,#761,#762,#763,#764,#765,#766,#767,#768,#769,#770,#771,#772,#773,
#774,#775,#776,#777,#778,#779,#780,#781,#782,#783,#784,#785,#786,#787),
(#788,#789,#790,#791,#792,#793,#794,#795,#796,#797,#798,#799,#800,#801,
#802,#803,#804,#805,#806,#807,#808,#809,#810,#811,#812,#813,#814,#815,#816,
#817,#818,#819,#820,#821,#822),(#823,#824,#825,#826,#827,#828,#829,#830,
#831,#832,#833,#834,#835,#836,#837,#838,#839,#840,#841,#842,#843,#844,#845,
#846,#847,#848,#849,#850,#851,#852,#853,#854,#855,#856,#857),(#858,#859,
#860,#861,#862,#863,#864,#865,#866,#867,#868,#869,#870,#871,#872,#873,#874,
#875,#876,#877,#878,#879,#880,#881,#882,#883,#884,#885,#886,#887,#888,#889,
#890,#891,#892)),.UNSPECIFIED.,.F.,.T.,.F.,(4,4),(1,1,1,1,1,1,1,1,1,1,1,
1,1,1,1,1,1,1,1,1,1,1,1,1,1,1,1,1,1,1,1,1,1,1,1,1,1,1,1),(0.0219243882761381,
0.954723580007944),(-0.589048622548086,-0.392699081698725,-0.196349540849362,
0.,0.196349540849362,0.392699081698724,0.589048622548086,0.785398163397448,
0.98174770424681,1.17809724509617,1.37444678594553,1.5707963267949,1.76714586764426,
1.96349540849362,2.15984494934298,2.35619449019234,2.55254403104171,2.74889357189107,
2.94524311274043,3.14159265358979,3.33794219443916,3.53429173528852,3.73064127613788,
3.92699081698724,4.1233403578366,4.31968989868597,4.51603943953533,4.71238898038469,
4.90873852123405,5.10508806208341,5.30143760293278,5.49778714378214,5.6941366846315,
5.89048622548086,6.08683576633022,6.28318530717959,6.47953484802895,6.67588438887831,
6.87223392972767),.UNSPECIFIED.);
#35=B_SPLINE_SURFACE_WITH_KNOTS('',3,3,((#902,#903,#904,#905,#906,#907,
#908,#909,#910,#911,#912,#913,#914,#915,#916,#917,#918,#919,#920,#921,#922,
#923,#924,#925,#926,#927,#928,#929,#930,#931,#932,#933,#934,#935,#936),
(#937,#938,#939,#940,#941,#942,#943,#944,#945,#946,#947,#948,#949,#950,
#951,#952,#953,#954,#955,#956,#957,#958,#959,#960,#961,#962,#963,#964,#965,
#966,#967,#968,#969,#970,#971),(#972,#973,#974,#975,#976,#977,#978,#979,
#980,#981,#982,#983,#984,#985,#986,#987,#988,#989,#990,#991,#992,#993,#994,
#995,#996,#997,#998,#999,#1000,#1001,#1002,#1003,#1004,#1005,#1006),(#1007,
#1008,#1009,#1010,#1011,#1012,#1013,#1014,#1015,#1016,#1017,#1018,#1019,
#1020,#1021,#1022,#1023,#1024,#1025,#1026,#1027,#1028,#1029,#1030,#1031,
#1032,#1033,#1034,#1035,#1036,#1037,#1038,#1039,#1040,#1041)),
 .UNSPECIFIED.,.F.,.T.,.F.,(4,4),(1,1,1,1,1,1,1,1,1,1,1,1,1,1,1,1,1,1,1,
1,1,1,1,1,1,1,1,1,1,1,1,1,1,1,1,1,1,1,1),(0.0185298061424835,0.945950265385142),
(-0.589048622548086,-0.392699081698725,-0.196349540849362,0.,0.196349540849362,
0.392699081698724,0.589048622548086,0.785398163397448,0.98174770424681,
1.17809724509617,1.37444678594553,1.5707963267949,1.76714586764426,1.96349540849362,
2.15984494934298,2.35619449019234,2.55254403104171,2.74889357189107,2.94524311274043,
3.14159265358979,3.33794219443916,3.53429173528852,3.73064127613788,3.92699081698724,
4.1233403578366,4.31968989868597,4.51603943953533,4.71238898038469,4.90873852123405,
5.10508806208341,5.30143760293278,5.49778714378214,5.6941366846315,5.89048622548086,
6.08683576633022,6.28318530717959,6.47953484802895,6.67588438887831,6.87223392972767),
 .UNSPECIFIED.);
#36=CIRCLE('',#527,0.0552398231086698);
#37=CIRCLE('',#528,0.0508);
#38=CIRCLE('',#530,0.0552398231086698);
#39=CIRCLE('',#531,0.0508);
#40=CIRCLE('',#533,0.0552398231086698);
#41=CIRCLE('',#534,0.0508);
#42=CIRCLE('',#536,0.0552398231086698);
#43=CIRCLE('',#537,0.0508);
#44=CIRCLE('',#539,0.0490629145024084);
#45=CIRCLE('',#540,0.041275);
#46=CIRCLE('',#541,0.0664565565813453);
#47=CIRCLE('',#542,0.368374434659212);
#48=CIRCLE('',#544,0.381);
#49=CIRCLE('',#545,0.381);
#50=CIRCLE('',#546,0.0617458770274181);
#51=CIRCLE('',#547,0.36838871678588);
#52=CIRCLE('',#550,0.0508);
#53=CIRCLE('',#555,0.0508);
#54=CIRCLE('',#560,0.0508);
#55=CIRCLE('',#565,0.0508);
#56=CIRCLE('',#569,0.041275);
#57=ORIENTED_EDGE('',*,*,#195,.T.);
#58=ORIENTED_EDGE('',*,*,#196,.T.);
#59=ORIENTED_EDGE('',*,*,#197,.F.);
#60=ORIENTED_EDGE('',*,*,#198,.F.);
#61=ORIENTED_EDGE('',*,*,#199,.T.);
#62=ORIENTED_EDGE('',*,*,#200,.T.);
#63=ORIENTED_EDGE('',*,*,#201,.F.);
#64=ORIENTED_EDGE('',*,*,#202,.F.);
#65=ORIENTED_EDGE('',*,*,#203,.T.);
#66=ORIENTED_EDGE('',*,*,#204,.T.);
#67=ORIENTED_EDGE('',*,*,#205,.F.);
#68=ORIENTED_EDGE('',*,*,#206,.F.);
#69=ORIENTED_EDGE('',*,*,#207,.T.);
#70=ORIENTED_EDGE('',*,*,#208,.T.);
#71=ORIENTED_EDGE('',*,*,#209,.F.);
#72=ORIENTED_EDGE('',*,*,#210,.F.);
#73=ORIENTED_EDGE('',*,*,#211,.T.);
#74=ORIENTED_EDGE('',*,*,#212,.F.);
#75=ORIENTED_EDGE('',*,*,#213,.T.);
#76=ORIENTED_EDGE('',*,*,#214,.T.);
#77=ORIENTED_EDGE('',*,*,#215,.T.);
#78=ORIENTED_EDGE('',*,*,#216,.T.);
#79=ORIENTED_EDGE('',*,*,#217,.T.);
#80=ORIENTED_EDGE('',*,*,#218,.T.);
#81=ORIENTED_EDGE('',*,*,#219,.T.);
#82=ORIENTED_EDGE('',*,*,#220,.T.);
#83=ORIENTED_EDGE('',*,*,#203,.F.);
#84=ORIENTED_EDGE('',*,*,#221,.F.);
#85=ORIENTED_EDGE('',*,*,#222,.T.);
#86=ORIENTED_EDGE('',*,*,#206,.T.);
#87=ORIENTED_EDGE('',*,*,#223,.F.);
#88=ORIENTED_EDGE('',*,*,#224,.F.);
#89=ORIENTED_EDGE('',*,*,#221,.T.);
#90=ORIENTED_EDGE('',*,*,#205,.T.);
#91=ORIENTED_EDGE('',*,*,#225,.T.);
#92=ORIENTED_EDGE('',*,*,#226,.F.);
#93=ORIENTED_EDGE('',*,*,#227,.F.);
#94=ORIENTED_EDGE('',*,*,#223,.T.);
#95=ORIENTED_EDGE('',*,*,#226,.T.);
#96=ORIENTED_EDGE('',*,*,#228,.T.);
#97=ORIENTED_EDGE('',*,*,#229,.F.);
#98=ORIENTED_EDGE('',*,*,#230,.T.);
#99=ORIENTED_EDGE('',*,*,#229,.T.);
#100=ORIENTED_EDGE('',*,*,#231,.T.);
#101=ORIENTED_EDGE('',*,*,#207,.F.);
#102=ORIENTED_EDGE('',*,*,#232,.F.);
#103=ORIENTED_EDGE('',*,*,#233,.T.);
#104=ORIENTED_EDGE('',*,*,#210,.T.);
#105=ORIENTED_EDGE('',*,*,#234,.F.);
#106=ORIENTED_EDGE('',*,*,#235,.F.);
#107=ORIENTED_EDGE('',*,*,#232,.T.);
#108=ORIENTED_EDGE('',*,*,#209,.T.);
#109=ORIENTED_EDGE('',*,*,#236,.T.);
#110=ORIENTED_EDGE('',*,*,#237,.F.);
#111=ORIENTED_EDGE('',*,*,#238,.F.);
#112=ORIENTED_EDGE('',*,*,#234,.T.);
#113=ORIENTED_EDGE('',*,*,#237,.T.);
#114=ORIENTED_EDGE('',*,*,#239,.T.);
#115=ORIENTED_EDGE('',*,*,#240,.F.);
#116=ORIENTED_EDGE('',*,*,#241,.T.);
#117=ORIENTED_EDGE('',*,*,#240,.T.);
#118=ORIENTED_EDGE('',*,*,#242,.T.);
#119=ORIENTED_EDGE('',*,*,#195,.F.);
#120=ORIENTED_EDGE('',*,*,#243,.F.);
#121=ORIENTED_EDGE('',*,*,#244,.T.);
#122=ORIENTED_EDGE('',*,*,#198,.T.);
#123=ORIENTED_EDGE('',*,*,#245,.F.);
#124=ORIENTED_EDGE('',*,*,#246,.F.);
#125=ORIENTED_EDGE('',*,*,#243,.T.);
#126=ORIENTED_EDGE('',*,*,#197,.T.);
#127=ORIENTED_EDGE('',*,*,#247,.T.);
#128=ORIENTED_EDGE('',*,*,#248,.F.);
#129=ORIENTED_EDGE('',*,*,#249,.F.);
#130=ORIENTED_EDGE('',*,*,#245,.T.);
#131=ORIENTED_EDGE('',*,*,#248,.T.);
#132=ORIENTED_EDGE('',*,*,#250,.T.);
#133=ORIENTED_EDGE('',*,*,#251,.F.);
#134=ORIENTED_EDGE('',*,*,#252,.T.);
#135=ORIENTED_EDGE('',*,*,#251,.T.);
#136=ORIENTED_EDGE('',*,*,#253,.T.);
#137=ORIENTED_EDGE('',*,*,#199,.F.);
#138=ORIENTED_EDGE('',*,*,#254,.F.);
#139=ORIENTED_EDGE('',*,*,#255,.T.);
#140=ORIENTED_EDGE('',*,*,#202,.T.);
#141=ORIENTED_EDGE('',*,*,#256,.F.);
#142=ORIENTED_EDGE('',*,*,#257,.F.);
#143=ORIENTED_EDGE('',*,*,#254,.T.);
#144=ORIENTED_EDGE('',*,*,#201,.T.);
#145=ORIENTED_EDGE('',*,*,#258,.T.);
#146=ORIENTED_EDGE('',*,*,#259,.F.);
#147=ORIENTED_EDGE('',*,*,#260,.F.);
#148=ORIENTED_EDGE('',*,*,#256,.T.);
#149=ORIENTED_EDGE('',*,*,#259,.T.);
#150=ORIENTED_EDGE('',*,*,#261,.T.);
#151=ORIENTED_EDGE('',*,*,#219,.F.);
#152=ORIENTED_EDGE('',*,*,#262,.T.);
#153=ORIENTED_EDGE('',*,*,#263,.F.);
#154=ORIENTED_EDGE('',*,*,#222,.F.);
#155=ORIENTED_EDGE('',*,*,#224,.T.);
#156=ORIENTED_EDGE('',*,*,#227,.T.);
#157=ORIENTED_EDGE('',*,*,#230,.F.);
#158=ORIENTED_EDGE('',*,*,#233,.F.);
#159=ORIENTED_EDGE('',*,*,#235,.T.);
#160=ORIENTED_EDGE('',*,*,#238,.T.);
#161=ORIENTED_EDGE('',*,*,#241,.F.);
#162=ORIENTED_EDGE('',*,*,#244,.F.);
#163=ORIENTED_EDGE('',*,*,#246,.T.);
#164=ORIENTED_EDGE('',*,*,#249,.T.);
#165=ORIENTED_EDGE('',*,*,#252,.F.);
#166=ORIENTED_EDGE('',*,*,#255,.F.);
#167=ORIENTED_EDGE('',*,*,#257,.T.);
#168=ORIENTED_EDGE('',*,*,#260,.T.);
#169=ORIENTED_EDGE('',*,*,#262,.F.);
#170=ORIENTED_EDGE('',*,*,#212,.T.);
#171=ORIENTED_EDGE('',*,*,#263,.T.);
#172=ORIENTED_EDGE('',*,*,#214,.F.);
#173=ORIENTED_EDGE('',*,*,#216,.F.);
#174=ORIENTED_EDGE('',*,*,#215,.F.);
#175=ORIENTED_EDGE('',*,*,#218,.F.);
#176=ORIENTED_EDGE('',*,*,#247,.F.);
#177=ORIENTED_EDGE('',*,*,#196,.F.);
#178=ORIENTED_EDGE('',*,*,#242,.F.);
#179=ORIENTED_EDGE('',*,*,#239,.F.);
#180=ORIENTED_EDGE('',*,*,#236,.F.);
#181=ORIENTED_EDGE('',*,*,#208,.F.);
#182=ORIENTED_EDGE('',*,*,#231,.F.);
#183=ORIENTED_EDGE('',*,*,#228,.F.);
#184=ORIENTED_EDGE('',*,*,#225,.F.);
#185=ORIENTED_EDGE('',*,*,#204,.F.);
#186=ORIENTED_EDGE('',*,*,#220,.F.);
#187=ORIENTED_EDGE('',*,*,#261,.F.);
#188=ORIENTED_EDGE('',*,*,#258,.F.);
#189=ORIENTED_EDGE('',*,*,#200,.F.);
#190=ORIENTED_EDGE('',*,*,#253,.F.);
#191=ORIENTED_EDGE('',*,*,#250,.F.);
#192=ORIENTED_EDGE('',*,*,#213,.F.);
#193=ORIENTED_EDGE('',*,*,#217,.F.);
#194=ORIENTED_EDGE('',*,*,#211,.F.);
#195=EDGE_CURVE('',#264,#265,#313,.T.);
#196=EDGE_CURVE('',#265,#266,#36,.F.);
#197=EDGE_CURVE('',#267,#266,#314,.T.);
#198=EDGE_CURVE('',#264,#267,#37,.T.);
#199=EDGE_CURVE('',#268,#269,#315,.T.);
#200=EDGE_CURVE('',#269,#270,#38,.F.);
#201=EDGE_CURVE('',#271,#270,#316,.T.);
#202=EDGE_CURVE('',#268,#271,#39,.T.);
#203=EDGE_CURVE('',#272,#273,#317,.T.);
#204=EDGE_CURVE('',#273,#274,#40,.F.);
#205=EDGE_CURVE('',#275,#274,#318,.T.);
#206=EDGE_CURVE('',#272,#275,#41,.T.);
#207=EDGE_CURVE('',#276,#277,#319,.T.);
#208=EDGE_CURVE('',#277,#278,#42,.F.);
#209=EDGE_CURVE('',#279,#278,#320,.T.);
#210=EDGE_CURVE('',#276,#279,#43,.T.);
#211=EDGE_CURVE('',#280,#280,#44,.T.);
#212=EDGE_CURVE('',#281,#281,#45,.T.);
#213=EDGE_CURVE('',#282,#282,#46,.T.);
#214=EDGE_CURVE('',#283,#283,#47,.F.);
#215=EDGE_CURVE('',#284,#284,#48,.T.);
#216=EDGE_CURVE('',#285,#285,#49,.F.);
#217=EDGE_CURVE('',#286,#286,#50,.F.);
#218=EDGE_CURVE('',#287,#287,#51,.T.);
#219=EDGE_CURVE('',#288,#289,#321,.T.);
#220=EDGE_CURVE('',#289,#273,#16,.T.);
#221=EDGE_CURVE('',#290,#272,#322,.T.);
#222=EDGE_CURVE('',#290,#288,#323,.T.);
#223=EDGE_CURVE('',#291,#275,#324,.T.);
#224=EDGE_CURVE('',#290,#291,#52,.T.);
#225=EDGE_CURVE('',#274,#292,#17,.T.);
#226=EDGE_CURVE('',#293,#292,#325,.T.);
#227=EDGE_CURVE('',#291,#293,#326,.T.);
#228=EDGE_CURVE('',#292,#294,#18,.T.);
#229=EDGE_CURVE('',#295,#294,#327,.T.);
#230=EDGE_CURVE('',#295,#293,#328,.T.);
#231=EDGE_CURVE('',#294,#277,#19,.T.);
#232=EDGE_CURVE('',#296,#276,#329,.T.);
#233=EDGE_CURVE('',#296,#295,#330,.T.);
#234=EDGE_CURVE('',#297,#279,#331,.T.);
#235=EDGE_CURVE('',#296,#297,#53,.T.);
#236=EDGE_CURVE('',#278,#298,#20,.T.);
#237=EDGE_CURVE('',#299,#298,#332,.T.);
#238=EDGE_CURVE('',#297,#299,#333,.T.);
#239=EDGE_CURVE('',#298,#300,#21,.T.);
#240=EDGE_CURVE('',#301,#300,#334,.T.);
#241=EDGE_CURVE('',#301,#299,#335,.T.);
#242=EDGE_CURVE('',#300,#265,#22,.T.);
#243=EDGE_CURVE('',#302,#264,#336,.T.);
#244=EDGE_CURVE('',#302,#301,#337,.T.);
#245=EDGE_CURVE('',#303,#267,#338,.T.);
#246=EDGE_CURVE('',#302,#303,#54,.T.);
#247=EDGE_CURVE('',#266,#304,#23,.T.);
#248=EDGE_CURVE('',#305,#304,#339,.T.);
#249=EDGE_CURVE('',#303,#305,#340,.T.);
#250=EDGE_CURVE('',#304,#306,#24,.T.);
#251=EDGE_CURVE('',#307,#306,#341,.T.);
#252=EDGE_CURVE('',#307,#305,#342,.T.);
#253=EDGE_CURVE('',#306,#269,#25,.T.);
#254=EDGE_CURVE('',#308,#268,#343,.T.);
#255=EDGE_CURVE('',#308,#307,#344,.T.);
#256=EDGE_CURVE('',#309,#271,#345,.T.);
#257=EDGE_CURVE('',#308,#309,#55,.T.);
#258=EDGE_CURVE('',#270,#310,#26,.T.);
#259=EDGE_CURVE('',#311,#310,#346,.T.);
#260=EDGE_CURVE('',#309,#311,#347,.T.);
#261=EDGE_CURVE('',#310,#289,#27,.T.);
#262=EDGE_CURVE('',#288,#311,#348,.T.);
#263=EDGE_CURVE('',#312,#312,#56,.T.);
#264=VERTEX_POINT('',#714);
#265=VERTEX_POINT('',#715);
#266=VERTEX_POINT('',#717);
#267=VERTEX_POINT('',#719);
#268=VERTEX_POINT('',#723);
#269=VERTEX_POINT('',#724);
#270=VERTEX_POINT('',#726);
#271=VERTEX_POINT('',#728);
#272=VERTEX_POINT('',#732);
#273=VERTEX_POINT('',#733);
#274=VERTEX_POINT('',#735);
#275=VERTEX_POINT('',#737);
#276=VERTEX_POINT('',#741);
#277=VERTEX_POINT('',#742);
#278=VERTEX_POINT('',#744);
#279=VERTEX_POINT('',#746);
#280=VERTEX_POINT('',#750);
#281=VERTEX_POINT('',#752);
#282=VERTEX_POINT('',#894);
#283=VERTEX_POINT('',#896);
#284=VERTEX_POINT('',#899);
#285=VERTEX_POINT('',#901);
#286=VERTEX_POINT('',#1043);
#287=VERTEX_POINT('',#1045);
#288=VERTEX_POINT('',#1048);
#289=VERTEX_POINT('',#1049);
#290=VERTEX_POINT('',#1055);
#291=VERTEX_POINT('',#1059);
#292=VERTEX_POINT('',#1066);
#293=VERTEX_POINT('',#1068);
#294=VERTEX_POINT('',#1075);
#295=VERTEX_POINT('',#1077);
#296=VERTEX_POINT('',#1085);
#297=VERTEX_POINT('',#1089);
#298=VERTEX_POINT('',#1096);
#299=VERTEX_POINT('',#1098);
#300=VERTEX_POINT('',#1105);
#301=VERTEX_POINT('',#1107);
#302=VERTEX_POINT('',#1115);
#303=VERTEX_POINT('',#1119);
#304=VERTEX_POINT('',#1126);
#305=VERTEX_POINT('',#1128);
#306=VERTEX_POINT('',#1135);
#307=VERTEX_POINT('',#1137);
#308=VERTEX_POINT('',#1145);
#309=VERTEX_POINT('',#1149);
#310=VERTEX_POINT('',#1156);
#311=VERTEX_POINT('',#1158);
#312=VERTEX_POINT('',#1168);
#313=LINE('',#713,#349);
#314=LINE('',#718,#350);
#315=LINE('',#722,#351);
#316=LINE('',#727,#352);
#317=LINE('',#731,#353);
#318=LINE('',#736,#354);
#319=LINE('',#740,#355);
#320=LINE('',#745,#356);
#321=LINE('',#1047,#357);
#322=LINE('',#1054,#358);
#323=LINE('',#1056,#359);
#324=LINE('',#1058,#360);
#325=LINE('',#1067,#361);
#326=LINE('',#1069,#362);
#327=LINE('',#1076,#363);
#328=LINE('',#1078,#364);
#329=LINE('',#1084,#365);
#330=LINE('',#1086,#366);
#331=LINE('',#1088,#367);
#332=LINE('',#1097,#368);
#333=LINE('',#1099,#369);
#334=LINE('',#1106,#370);
#335=LINE('',#1108,#371);
#336=LINE('',#1114,#372);
#337=LINE('',#1116,#373);
#338=LINE('',#1118,#374);
#339=LINE('',#1127,#375);
#340=LINE('',#1129,#376);
#341=LINE('',#1136,#377);
#342=LINE('',#1138,#378);
#343=LINE('',#1144,#379);
#344=LINE('',#1146,#380);
#345=LINE('',#1148,#381);
#346=LINE('',#1157,#382);
#347=LINE('',#1159,#383);
#348=LINE('',#1165,#384);
#349=VECTOR('',#579,1.);
#350=VECTOR('',#582,1.);
#351=VECTOR('',#587,1.);
#352=VECTOR('',#590,1.);
#353=VECTOR('',#595,1.);
#354=VECTOR('',#598,1.);
#355=VECTOR('',#603,1.);
#356=VECTOR('',#606,1.);
#357=VECTOR('',#631,1.);
#358=VECTOR('',#632,1.);
#359=VECTOR('',#633,1.);
#360=VECTOR('',#636,1.);
#361=VECTOR('',#641,1.);
#362=VECTOR('',#642,1.);
#363=VECTOR('',#645,1.);
#364=VECTOR('',#646,1.);
#365=VECTOR('',#649,1.);
#366=VECTOR('',#650,1.);
#367=VECTOR('',#653,1.);
#368=VECTOR('',#658,1.);
#369=VECTOR('',#659,1.);
#370=VECTOR('',#662,1.);
#371=VECTOR('',#663,1.);
#372=VECTOR('',#666,1.);
#373=VECTOR('',#667,1.);
#374=VECTOR('',#670,1.);
#375=VECTOR('',#675,1.);
#376=VECTOR('',#676,1.);
#377=VECTOR('',#679,1.);
#378=VECTOR('',#680,1.);
#379=VECTOR('',#683,1.);
#380=VECTOR('',#684,1.);
#381=VECTOR('',#687,1.);
#382=VECTOR('',#692,1.);
#383=VECTOR('',#693,1.);
#384=VECTOR('',#696,1.);
#385=EDGE_LOOP('',(#57,#58,#59,#60));
#386=EDGE_LOOP('',(#61,#62,#63,#64));
#387=EDGE_LOOP('',(#65,#66,#67,#68));
#388=EDGE_LOOP('',(#69,#70,#71,#72));
#389=EDGE_LOOP('',(#73));
#390=EDGE_LOOP('',(#74));
#391=EDGE_LOOP('',(#75));
#392=EDGE_LOOP('',(#76));
#393=EDGE_LOOP('',(#77));
#394=EDGE_LOOP('',(#78));
#395=EDGE_LOOP('',(#79));
#396=EDGE_LOOP('',(#80));
#397=EDGE_LOOP('',(#81,#82,#83,#84,#85));
#398=EDGE_LOOP('',(#86,#87,#88,#89));
#399=EDGE_LOOP('',(#90,#91,#92,#93,#94));
#400=EDGE_LOOP('',(#95,#96,#97,#98));
#401=EDGE_LOOP('',(#99,#100,#101,#102,#103));
#402=EDGE_LOOP('',(#104,#105,#106,#107));
#403=EDGE_LOOP('',(#108,#109,#110,#111,#112));
#404=EDGE_LOOP('',(#113,#114,#115,#116));
#405=EDGE_LOOP('',(#117,#118,#119,#120,#121));
#406=EDGE_LOOP('',(#122,#123,#124,#125));
#407=EDGE_LOOP('',(#126,#127,#128,#129,#130));
#408=EDGE_LOOP('',(#131,#132,#133,#134));
#409=EDGE_LOOP('',(#135,#136,#137,#138,#139));
#410=EDGE_LOOP('',(#140,#141,#142,#143));
#411=EDGE_LOOP('',(#144,#145,#146,#147,#148));
#412=EDGE_LOOP('',(#149,#150,#151,#152));
#413=EDGE_LOOP('',(#153));
#414=EDGE_LOOP('',(#154,#155,#156,#157,#158,#159,#160,#161,#162,#163,#164,
#165,#166,#167,#168,#169));
#415=EDGE_LOOP('',(#170));
#416=EDGE_LOOP('',(#171));
#417=EDGE_LOOP('',(#172));
#418=EDGE_LOOP('',(#173));
#419=EDGE_LOOP('',(#174));
#420=EDGE_LOOP('',(#175));
#421=EDGE_LOOP('',(#176,#177,#178,#179,#180,#181,#182,#183,#184,#185,#186,
#187,#188,#189,#190,#191));
#422=EDGE_LOOP('',(#192));
#423=EDGE_LOOP('',(#193));
#424=EDGE_LOOP('',(#194));
#425=FACE_BOUND('',#385,.T.);
#426=FACE_BOUND('',#386,.T.);
#427=FACE_BOUND('',#387,.T.);
#428=FACE_BOUND('',#388,.T.);
#429=FACE_BOUND('',#389,.T.);
#430=FACE_BOUND('',#390,.T.);
#431=FACE_BOUND('',#391,.T.);
#432=FACE_BOUND('',#392,.T.);
#433=FACE_BOUND('',#393,.T.);
#434=FACE_BOUND('',#394,.T.);
#435=FACE_BOUND('',#395,.T.);
#436=FACE_BOUND('',#396,.T.);
#437=FACE_BOUND('',#397,.T.);
#438=FACE_BOUND('',#398,.T.);
#439=FACE_BOUND('',#399,.T.);
#440=FACE_BOUND('',#400,.T.);
#441=FACE_BOUND('',#401,.T.);
#442=FACE_BOUND('',#402,.T.);
#443=FACE_BOUND('',#403,.T.);
#444=FACE_BOUND('',#404,.T.);
#445=FACE_BOUND('',#405,.T.);
#446=FACE_BOUND('',#406,.T.);
#447=FACE_BOUND('',#407,.T.);
#448=FACE_BOUND('',#408,.T.);
#449=FACE_BOUND('',#409,.T.);
#450=FACE_BOUND('',#410,.T.);
#451=FACE_BOUND('',#411,.T.);
#452=FACE_BOUND('',#412,.T.);
#453=FACE_BOUND('',#413,.T.);
#454=FACE_BOUND('',#414,.T.);
#455=FACE_BOUND('',#415,.T.);
#456=FACE_BOUND('',#416,.T.);
#457=FACE_BOUND('',#417,.T.);
#458=FACE_BOUND('',#418,.T.);
#459=FACE_BOUND('',#419,.T.);
#460=FACE_BOUND('',#420,.T.);
#461=FACE_BOUND('',#421,.T.);
#462=FACE_BOUND('',#422,.T.);
#463=FACE_BOUND('',#423,.T.);
#464=FACE_BOUND('',#424,.T.);
#465=PLANE('',#526);
#466=PLANE('',#529);
#467=PLANE('',#532);
#468=PLANE('',#535);
#469=PLANE('',#538);
#470=PLANE('',#548);
#471=PLANE('',#551);
#472=PLANE('',#552);
#473=PLANE('',#553);
#474=PLANE('',#556);
#475=PLANE('',#557);
#476=PLANE('',#558);
#477=PLANE('',#561);
#478=PLANE('',#562);
#479=PLANE('',#563);
#480=PLANE('',#566);
#481=PLANE('',#567);
#482=PLANE('',#568);
#483=ADVANCED_FACE('',(#425),#465,.F.);
#484=ADVANCED_FACE('',(#426),#466,.F.);
#485=ADVANCED_FACE('',(#427),#467,.F.);
#486=ADVANCED_FACE('',(#428),#468,.F.);
#487=ADVANCED_FACE('',(#429,#430),#469,.T.);
#488=ADVANCED_FACE('',(#431,#432),#34,.T.);
#489=ADVANCED_FACE('',(#433,#434),#28,.T.);
#490=ADVANCED_FACE('',(#435,#436),#35,.F.);
#491=ADVANCED_FACE('',(#437),#470,.T.);
#492=ADVANCED_FACE('',(#438),#29,.F.);
#493=ADVANCED_FACE('',(#439),#471,.F.);
#494=ADVANCED_FACE('',(#440),#472,.T.);
#495=ADVANCED_FACE('',(#441),#473,.T.);
#496=ADVANCED_FACE('',(#442),#30,.F.);
#497=ADVANCED_FACE('',(#443),#474,.F.);
#498=ADVANCED_FACE('',(#444),#475,.T.);
#499=ADVANCED_FACE('',(#445),#476,.T.);
#500=ADVANCED_FACE('',(#446),#31,.F.);
#501=ADVANCED_FACE('',(#447),#477,.F.);
#502=ADVANCED_FACE('',(#448),#478,.T.);
#503=ADVANCED_FACE('',(#449),#479,.T.);
#504=ADVANCED_FACE('',(#450),#32,.F.);
#505=ADVANCED_FACE('',(#451),#480,.F.);
#506=ADVANCED_FACE('',(#452),#481,.T.);
#507=ADVANCED_FACE('',(#453,#454),#482,.T.);
#508=ADVANCED_FACE('',(#455,#456),#33,.F.);
#509=ADVANCED_FACE('',(#457,#458),#12,.T.);
#510=ADVANCED_FACE('',(#459,#460),#13,.T.);
#511=ADVANCED_FACE('',(#461,#462),#14,.T.);
#512=ADVANCED_FACE('',(#463,#464),#15,.T.);
#513=CLOSED_SHELL('',(#483,#484,#485,#486,#487,#488,#489,#490,#491,#492,
#493,#494,#495,#496,#497,#498,#499,#500,#501,#502,#503,#504,#505,#506,#507,
#508,#509,#510,#511,#512));
#514=STYLED_ITEM('',(#515),#522);
#515=PRESENTATION_STYLE_ASSIGNMENT((#516));
#516=SURFACE_STYLE_USAGE(.BOTH.,#517);
#517=SURFACE_SIDE_STYLE('',(#518));
#518=SURFACE_STYLE_FILL_AREA(#519);
#519=FILL_AREA_STYLE('',(#520));
#520=FILL_AREA_STYLE_COLOUR('',#521);
#521=COLOUR_RGB('',0.615686274509804,0.811764705882353,0.929411764705882);
#522=MANIFOLD_SOLID_BREP('Part 1',#513);
#523=SHAPE_DEFINITION_REPRESENTATION(#1180,#524);
#524=SHAPE_REPRESENTATION('Part 1',(#525),#1175);
#525=AXIS2_PLACEMENT_3D('',#711,#575,#576);
#526=AXIS2_PLACEMENT_3D('',#712,#577,#578);
#527=AXIS2_PLACEMENT_3D('',#716,#580,#581);
#528=AXIS2_PLACEMENT_3D('',#720,#583,#584);
#529=AXIS2_PLACEMENT_3D('',#721,#585,#586);
#530=AXIS2_PLACEMENT_3D('',#725,#588,#589);
#531=AXIS2_PLACEMENT_3D('',#729,#591,#592);
#532=AXIS2_PLACEMENT_3D('',#730,#593,#594);
#533=AXIS2_PLACEMENT_3D('',#734,#596,#597);
#534=AXIS2_PLACEMENT_3D('',#738,#599,#600);
#535=AXIS2_PLACEMENT_3D('',#739,#601,#602);
#536=AXIS2_PLACEMENT_3D('',#743,#604,#605);
#537=AXIS2_PLACEMENT_3D('',#747,#607,#608);
#538=AXIS2_PLACEMENT_3D('',#748,#609,#610);
#539=AXIS2_PLACEMENT_3D('',#749,#611,#612);
#540=AXIS2_PLACEMENT_3D('',#751,#613,#614);
#541=AXIS2_PLACEMENT_3D('',#893,#615,#616);
#542=AXIS2_PLACEMENT_3D('',#895,#617,#618);
#543=AXIS2_PLACEMENT_3D('',#897,#619,#620);
#544=AXIS2_PLACEMENT_3D('',#898,#621,#622);
#545=AXIS2_PLACEMENT_3D('',#900,#623,#624);
#546=AXIS2_PLACEMENT_3D('',#1042,#625,#626);
#547=AXIS2_PLACEMENT_3D('',#1044,#627,#628);
#548=AXIS2_PLACEMENT_3D('',#1046,#629,#630);
#549=AXIS2_PLACEMENT_3D('',#1057,#634,#635);
#550=AXIS2_PLACEMENT_3D('',#1060,#637,#638);
#551=AXIS2_PLACEMENT_3D('',#1061,#639,#640);
#552=AXIS2_PLACEMENT_3D('',#1070,#643,#644);
#553=AXIS2_PLACEMENT_3D('',#1079,#647,#648);
#554=AXIS2_PLACEMENT_3D('',#1087,#651,#652);
#555=AXIS2_PLACEMENT_3D('',#1090,#654,#655);
#556=AXIS2_PLACEMENT_3D('',#1091,#656,#657);
#557=AXIS2_PLACEMENT_3D('',#1100,#660,#661);
#558=AXIS2_PLACEMENT_3D('',#1109,#664,#665);
#559=AXIS2_PLACEMENT_3D('',#1117,#668,#669);
#560=AXIS2_PLACEMENT_3D('',#1120,#671,#672);
#561=AXIS2_PLACEMENT_3D('',#1121,#673,#674);
#562=AXIS2_PLACEMENT_3D('',#1130,#677,#678);
#563=AXIS2_PLACEMENT_3D('',#1139,#681,#682);
#564=AXIS2_PLACEMENT_3D('',#1147,#685,#686);
#565=AXIS2_PLACEMENT_3D('',#1150,#688,#689);
#566=AXIS2_PLACEMENT_3D('',#1151,#690,#691);
#567=AXIS2_PLACEMENT_3D('',#1160,#694,#695);
#568=AXIS2_PLACEMENT_3D('',#1166,#697,#698);
#569=AXIS2_PLACEMENT_3D('',#1167,#699,#700);
#570=AXIS2_PLACEMENT_3D('',#1169,#701,#702);
#571=AXIS2_PLACEMENT_3D('',#1170,#703,#704);
#572=AXIS2_PLACEMENT_3D('',#1171,#705,#706);
#573=AXIS2_PLACEMENT_3D('',#1172,#707,#708);
#574=AXIS2_PLACEMENT_3D('',#1173,#709,#710);
#575=DIRECTION('',(0.,0.,1.));
#576=DIRECTION('',(1.,0.,0.));
#577=DIRECTION('',(0.,0.,-1.));
#578=DIRECTION('',(-1.,0.,0.));
#579=DIRECTION('',(1.36592399683213E-16,-1.,0.));
#580=DIRECTION('',(0.,0.,-1.));
#581=DIRECTION('',(-1.,0.,0.));
#582=DIRECTION('',(1.,0.,0.));
#583=DIRECTION('',(0.,0.,1.));
#584=DIRECTION('',(1.,0.,0.));
#585=DIRECTION('',(0.,0.,-1.));
#586=DIRECTION('',(-1.,0.,0.));
#587=DIRECTION('',(1.,6.82961998416066E-17,0.));
#588=DIRECTION('',(0.,0.,-1.));
#589=DIRECTION('',(-1.,0.,0.));
#590=DIRECTION('',(0.,1.,0.));
#591=DIRECTION('',(0.,0.,1.));
#592=DIRECTION('',(1.,0.,0.));
#593=DIRECTION('',(0.,0.,-1.));
#594=DIRECTION('',(-1.,0.,0.));
#595=DIRECTION('',(0.,1.,0.));
#596=DIRECTION('',(0.,0.,-1.));
#597=DIRECTION('',(-1.,0.,0.));
#598=DIRECTION('',(-1.,-1.36592399683213E-16,0.));
#599=DIRECTION('',(0.,0.,1.));
#600=DIRECTION('',(1.,0.,0.));
#601=DIRECTION('',(0.,0.,-1.));
#602=DIRECTION('',(-1.,0.,0.));
#603=DIRECTION('',(-1.,-2.04888599524819E-16,0.));
#604=DIRECTION('',(0.,0.,-1.));
#605=DIRECTION('',(-1.,0.,0.));
#606=DIRECTION('',(1.36592399683213E-16,-1.,0.));
#607=DIRECTION('',(0.,0.,1.));
#608=DIRECTION('',(1.,0.,0.));
#609=DIRECTION('',(0.,0.,-1.));
#610=DIRECTION('',(-1.,0.,0.));
#611=DIRECTION('',(0.,0.,-1.));
#612=DIRECTION('',(-1.,0.,0.));
#613=DIRECTION('',(0.,0.,-1.));
#614=DIRECTION('',(-1.,0.,0.));
#615=DIRECTION('',(0.,0.,-1.));
#616=DIRECTION('',(-1.,0.,0.));
#617=DIRECTION('',(0.,0.,-1.));
#618=DIRECTION('',(-1.,0.,0.));
#619=DIRECTION('',(0.,0.,-1.));
#620=DIRECTION('',(-1.,0.,0.));
#621=DIRECTION('',(0.,0.,1.));
#622=DIRECTION('',(1.,0.,0.));
#623=DIRECTION('',(0.,0.,1.));
#624=DIRECTION('',(1.,0.,0.));
#625=DIRECTION('',(0.,0.,-1.));
#626=DIRECTION('',(-1.,0.,0.));
#627=DIRECTION('',(0.,0.,-1.));
#628=DIRECTION('',(-1.,0.,0.));
#629=DIRECTION('',(1.,0.,0.));
#630=DIRECTION('',(0.,0.,-1.));
#631=DIRECTION('',(0.,0.,1.));
#632=DIRECTION('',(0.,0.,1.));
#633=DIRECTION('',(0.,1.,0.));
#634=DIRECTION('',(0.,0.,1.));
#635=DIRECTION('',(1.,0.,0.));
#636=DIRECTION('',(0.,0.,1.));
#637=DIRECTION('',(0.,0.,1.));
#638=DIRECTION('',(1.,0.,0.));
#639=DIRECTION('',(-1.36592399683213E-16,1.,0.));
#640=DIRECTION('',(-1.,-1.36592399683213E-16,0.));
#641=DIRECTION('',(0.,0.,1.));
#642=DIRECTION('',(-1.,-1.36592399683213E-16,0.));
#643=DIRECTION('',(1.,0.,0.));
#644=DIRECTION('',(0.,0.,-1.));
#645=DIRECTION('',(0.,0.,1.));
#646=DIRECTION('',(0.,1.,0.));
#647=DIRECTION('',(-2.04888599524819E-16,1.,0.));
#648=DIRECTION('',(-1.,-2.04888599524819E-16,0.));
#649=DIRECTION('',(0.,0.,1.));
#650=DIRECTION('',(-1.,-2.04888599524819E-16,0.));
#651=DIRECTION('',(0.,0.,1.));
#652=DIRECTION('',(1.,0.,0.));
#653=DIRECTION('',(0.,0.,1.));
#654=DIRECTION('',(0.,0.,1.));
#655=DIRECTION('',(1.,0.,0.));
#656=DIRECTION('',(-1.,-1.36592399683213E-16,0.));
#657=DIRECTION('',(1.36592399683213E-16,-1.,0.));
#658=DIRECTION('',(0.,0.,1.));
#659=DIRECTION('',(1.36592399683213E-16,-1.,0.));
#660=DIRECTION('',(0.,1.,0.));
#661=DIRECTION('',(0.,0.,1.));
#662=DIRECTION('',(0.,0.,1.));
#663=DIRECTION('',(-1.,0.,0.));
#664=DIRECTION('',(-1.,-1.36592399683213E-16,0.));
#665=DIRECTION('',(1.36592399683213E-16,-1.,0.));
#666=DIRECTION('',(0.,0.,1.));
#667=DIRECTION('',(1.36592399683213E-16,-1.,0.));
#668=DIRECTION('',(0.,0.,1.));
#669=DIRECTION('',(1.,0.,0.));
#670=DIRECTION('',(0.,0.,1.));
#671=DIRECTION('',(0.,0.,1.));
#672=DIRECTION('',(1.,0.,0.));
#673=DIRECTION('',(0.,-1.,0.));
#674=DIRECTION('',(0.,0.,-1.));
#675=DIRECTION('',(0.,0.,1.));
#676=DIRECTION('',(1.,0.,0.));
#677=DIRECTION('',(-1.,0.,0.));
#678=DIRECTION('',(0.,0.,1.));
#679=DIRECTION('',(0.,0.,1.));
#680=DIRECTION('',(0.,-1.,0.));
#681=DIRECTION('',(6.82961998416066E-17,-1.,0.));
#682=DIRECTION('',(1.,6.82961998416066E-17,0.));
#683=DIRECTION('',(0.,0.,1.));
#684=DIRECTION('',(1.,6.82961998416066E-17,0.));
#685=DIRECTION('',(0.,0.,1.));
#686=DIRECTION('',(1.,0.,0.));
#687=DIRECTION('',(0.,0.,1.));
#688=DIRECTION('',(0.,0.,1.));
#689=DIRECTION('',(1.,0.,0.));
#690=DIRECTION('',(1.,0.,0.));
#691=DIRECTION('',(0.,0.,-1.));
#692=DIRECTION('',(0.,0.,1.));
#693=DIRECTION('',(0.,1.,0.));
#694=DIRECTION('',(0.,-1.,0.));
#695=DIRECTION('',(0.,0.,-1.));
#696=DIRECTION('',(1.,0.,0.));
#697=DIRECTION('',(0.,0.,1.));
#698=DIRECTION('',(1.,0.,0.));
#699=DIRECTION('',(0.,0.,1.));
#700=DIRECTION('',(1.,0.,0.));
#701=DIRECTION('',(0.,0.,1.));
#702=DIRECTION('',(1.,0.,0.));
#703=DIRECTION('',(0.,0.,1.));
#704=DIRECTION('',(1.,0.,0.));
#705=DIRECTION('',(0.,0.,1.));
#706=DIRECTION('',(1.,0.,0.));
#707=DIRECTION('',(0.,0.,-1.));
#708=DIRECTION('',(-1.,0.,0.));
#709=DIRECTION('',(0.,0.,-1.));
#710=DIRECTION('',(-1.,0.,0.));
#711=CARTESIAN_POINT('',(0.,0.,0.));
#712=CARTESIAN_POINT('',(-0.03175,0.,0.127));
#713=CARTESIAN_POINT('',(0.003175,-0.0538756841669814,0.127));
#714=CARTESIAN_POINT('',(0.003175,-0.0507006841669814,0.127));
#715=CARTESIAN_POINT('',(0.003175,-0.0551485034436759,0.127));
#716=CARTESIAN_POINT('',(0.,0.,0.127));
#717=CARTESIAN_POINT('',(0.0551485034436759,-0.003175,0.127));
#718=CARTESIAN_POINT('',(0.0538756841669814,-0.003175,0.127));
#719=CARTESIAN_POINT('',(0.0507006841669814,-0.003175,0.127));
#720=CARTESIAN_POINT('',(6.93889390390723E-18,-1.95156391047391E-18,0.127));
#721=CARTESIAN_POINT('',(-0.03175,0.,0.127));
#722=CARTESIAN_POINT('',(0.0538756841669814,0.003175,0.127));
#723=CARTESIAN_POINT('',(0.0507006841669814,0.003175,0.127));
#724=CARTESIAN_POINT('',(0.0551485034436759,0.003175,0.127));
#725=CARTESIAN_POINT('',(0.,0.,0.127));
#726=CARTESIAN_POINT('',(0.003175,0.0551485034436759,0.127));
#727=CARTESIAN_POINT('',(0.003175,0.0538756841669814,0.127));
#728=CARTESIAN_POINT('',(0.003175,0.0507006841669814,0.127));
#729=CARTESIAN_POINT('',(-1.49619899803E-17,-2.16840434497101E-18,0.127));
#730=CARTESIAN_POINT('',(-0.03175,0.,0.127));
#731=CARTESIAN_POINT('',(-0.003175,0.0538756841669814,0.127));
#732=CARTESIAN_POINT('',(-0.003175,0.0507006841669814,0.127));
#733=CARTESIAN_POINT('',(-0.003175,0.0551485034436759,0.127));
#734=CARTESIAN_POINT('',(0.,0.,0.127));
#735=CARTESIAN_POINT('',(-0.0551485034436759,0.003175,0.127));
#736=CARTESIAN_POINT('',(-0.0538756841669814,0.003175,0.127));
#737=CARTESIAN_POINT('',(-0.0507006841669814,0.003175,0.127));
#738=CARTESIAN_POINT('',(6.93889390390723E-18,-1.27935856353289E-17,0.127));
#739=CARTESIAN_POINT('',(-0.03175,0.,0.127));
#740=CARTESIAN_POINT('',(-0.0538756841669814,-0.003175,0.127));
#741=CARTESIAN_POINT('',(-0.0507006841669814,-0.00317500000000003,0.127));
#742=CARTESIAN_POINT('',(-0.0551485034436759,-0.003175,0.127));
#743=CARTESIAN_POINT('',(0.,0.,0.127));
#744=CARTESIAN_POINT('',(-0.003175,-0.0551485034436759,0.127));
#745=CARTESIAN_POINT('',(-0.003175,-0.0538756841669814,0.127));
#746=CARTESIAN_POINT('',(-0.003175,-0.0507006841669814,0.127));
#747=CARTESIAN_POINT('',(2.08166817117217E-17,-1.0842021724855E-18,0.127));
#748=CARTESIAN_POINT('',(-0.03175,0.,-0.127));
#749=CARTESIAN_POINT('',(0.,0.,-0.127));
#750=CARTESIAN_POINT('',(-0.0490629145024084,0.,-0.127));
#751=CARTESIAN_POINT('',(0.,2.52736483174035E-18,-0.127));
#752=CARTESIAN_POINT('',(-0.041275,2.52736483174035E-18,-0.127));
#753=CARTESIAN_POINT('',(-0.363625208664888,-0.0723295510944543,0.0508366277246578));
#754=CARTESIAN_POINT('',(-0.370749047656374,-2.25514051876985E-16,0.0508366277246577));
#755=CARTESIAN_POINT('',(-0.363625208664888,0.072329551094455,0.0508366277246578));
#756=CARTESIAN_POINT('',(-0.342527456827776,0.14187951810323,0.0508366277246577));
#757=CARTESIAN_POINT('',(-0.308266566916383,0.205977134798247,0.0508366277246578));
#758=CARTESIAN_POINT('',(-0.262159165716277,0.262159165716277,0.0508366277246578));
#759=CARTESIAN_POINT('',(-0.205977134798247,0.308266566916383,0.0508366277246578));
#760=CARTESIAN_POINT('',(-0.14187951810323,0.342527456827776,0.0508366277246578));
#761=CARTESIAN_POINT('',(-0.0723295510944549,0.363625208664888,0.0508366277246578));
#762=CARTESIAN_POINT('',(-8.40027984780507E-17,0.370749047656374,0.0508366277246578));
#763=CARTESIAN_POINT('',(0.0723295510944549,0.363625208664888,0.0508366277246578));
#764=CARTESIAN_POINT('',(0.141879518103229,0.342527456827776,0.0508366277246578));
#765=CARTESIAN_POINT('',(0.205977134798247,0.308266566916383,0.0508366277246578));
#766=CARTESIAN_POINT('',(0.262159165716277,0.262159165716277,0.0508366277246578));
#767=CARTESIAN_POINT('',(0.308266566916383,0.205977134798247,0.0508366277246578));
#768=CARTESIAN_POINT('',(0.342527456827776,0.14187951810323,0.0508366277246578));
#769=CARTESIAN_POINT('',(0.363625208664888,0.0723295510944545,0.0508366277246578));
#770=CARTESIAN_POINT('',(0.370749047656374,2.04306069843254E-16,0.0508366277246578));
#771=CARTESIAN_POINT('',(0.363625208664888,-0.072329551094455,0.0508366277246578));
#772=CARTESIAN_POINT('',(0.342527456827776,-0.141879518103229,0.0508366277246578));
#773=CARTESIAN_POINT('',(0.308266566916383,-0.205977134798248,0.0508366277246578));
#774=CARTESIAN_POINT('',(0.262159165716277,-0.262159165716277,0.0508366277246578));
#775=CARTESIAN_POINT('',(0.205977134798247,-0.308266566916384,0.0508366277246578));
#776=CARTESIAN_POINT('',(0.14187951810323,-0.342527456827776,0.0508366277246578));
#777=CARTESIAN_POINT('',(0.0723295510944539,-0.363625208664888,0.0508366277246578));
#778=CARTESIAN_POINT('',(3.72984182059853E-16,-0.370749047656374,0.0508366277246578));
#779=CARTESIAN_POINT('',(-0.0723295510944551,-0.363625208664888,0.0508366277246578));
#780=CARTESIAN_POINT('',(-0.141879518103229,-0.342527456827776,0.0508366277246578));
#781=CARTESIAN_POINT('',(-0.205977134798248,-0.308266566916383,0.0508366277246577));
#782=CARTESIAN_POINT('',(-0.262159165716277,-0.262159165716277,0.0508366277246578));
#783=CARTESIAN_POINT('',(-0.308266566916383,-0.205977134798247,0.0508366277246578));
#784=CARTESIAN_POINT('',(-0.342527456827776,-0.141879518103229,0.0508366277246577));
#785=CARTESIAN_POINT('',(-0.363625208664888,-0.0723295510944543,0.0508366277246578));
#786=CARTESIAN_POINT('',(-0.370749047656374,-2.25514051876985E-16,0.0508366277246577));
#787=CARTESIAN_POINT('',(-0.363625208664888,0.072329551094455,0.0508366277246578));
#788=CARTESIAN_POINT('',(-0.188654675004916,-0.0375257480224675,0.0518755411491481));
#789=CARTESIAN_POINT('',(-0.192350638589676,-1.14491749414469E-16,0.051875541149148));
#790=CARTESIAN_POINT('',(-0.188654675004916,0.0375257480224679,0.0518755411491481));
#791=CARTESIAN_POINT('',(-0.177708818058478,0.0736094025931142,0.0518755411491481));
#792=CARTESIAN_POINT('',(-0.159933710894305,0.106864289102736,0.0518755411491481));
#793=CARTESIAN_POINT('',(-0.136012440912323,0.136012440912323,0.0518755411491481));
#794=CARTESIAN_POINT('',(-0.106864289102736,0.159933710894305,0.0518755411491481));
#795=CARTESIAN_POINT('',(-0.0736094025931142,0.177708818058478,0.0518755411491481));
#796=CARTESIAN_POINT('',(-0.0375257480224678,0.188654675004916,0.0518755411491481));
#797=CARTESIAN_POINT('',(-2.03266731517351E-17,0.192350638589676,0.0518755411491481));
#798=CARTESIAN_POINT('',(0.0375257480224678,0.188654675004916,0.0518755411491481));
#799=CARTESIAN_POINT('',(0.0736094025931142,0.177708818058478,0.0518755411491481));
#800=CARTESIAN_POINT('',(0.106864289102736,0.159933710894305,0.0518755411491481));
#801=CARTESIAN_POINT('',(0.136012440912323,0.136012440912323,0.0518755411491481));
#802=CARTESIAN_POINT('',(0.159933710894305,0.106864289102736,0.0518755411491481));
#803=CARTESIAN_POINT('',(0.177708818058478,0.0736094025931144,0.0518755411491481));
#804=CARTESIAN_POINT('',(0.188654675004916,0.0375257480224676,0.0518755411491481));
#805=CARTESIAN_POINT('',(0.192350638589676,1.09382977009264E-16,0.0518755411491481));
#806=CARTESIAN_POINT('',(0.188654675004916,-0.0375257480224679,0.0518755411491481));
#807=CARTESIAN_POINT('',(0.177708818058478,-0.0736094025931141,0.0518755411491481));
#808=CARTESIAN_POINT('',(0.159933710894305,-0.106864289102736,0.0518755411491481));
#809=CARTESIAN_POINT('',(0.136012440912323,-0.136012440912323,0.0518755411491481));
#810=CARTESIAN_POINT('',(0.106864289102735,-0.159933710894305,0.0518755411491481));
#811=CARTESIAN_POINT('',(0.0736094025931146,-0.177708818058477,0.0518755411491481));
#812=CARTESIAN_POINT('',(0.0375257480224673,-0.188654675004916,0.0518755411491481));
#813=CARTESIAN_POINT('',(2.75671954881596E-16,-0.192350638589676,0.0518755411491481));
#814=CARTESIAN_POINT('',(-0.0375257480224679,-0.188654675004916,0.0518755411491481));
#815=CARTESIAN_POINT('',(-0.0736094025931142,-0.177708818058478,0.0518755411491481));
#816=CARTESIAN_POINT('',(-0.106864289102736,-0.159933710894305,0.0518755411491481));
#817=CARTESIAN_POINT('',(-0.136012440912323,-0.136012440912323,0.0518755411491481));
#818=CARTESIAN_POINT('',(-0.159933710894305,-0.106864289102736,0.0518755411491481));
#819=CARTESIAN_POINT('',(-0.177708818058478,-0.0736094025931139,0.0518755411491481));
#820=CARTESIAN_POINT('',(-0.188654675004916,-0.0375257480224675,0.0518755411491481));
#821=CARTESIAN_POINT('',(-0.192350638589676,-1.14491749414469E-16,0.051875541149148));
#822=CARTESIAN_POINT('',(-0.188654675004916,0.0375257480224679,0.0518755411491481));
#823=CARTESIAN_POINT('',(-0.089312863081687,-0.0177654330330335,0.0750153586088645));
#824=CARTESIAN_POINT('',(-0.0910626055123582,-5.55111512312578E-17,0.0750153586088644));
#825=CARTESIAN_POINT('',(-0.0893128630816871,0.0177654330330336,0.0750153586088645));
#826=CARTESIAN_POINT('',(-0.0841308774100172,0.0348481504375774,0.0750153586088645));
#827=CARTESIAN_POINT('',(-0.0757157893006202,0.050591672963873,0.0750153586088645));
#828=CARTESIAN_POINT('',(-0.064390985870304,0.064390985870304,0.0750153586088645));
#829=CARTESIAN_POINT('',(-0.050591672963873,0.0757157893006201,0.0750153586088645));
#830=CARTESIAN_POINT('',(-0.0348481504375774,0.0841308774100172,0.0750153586088645));
#831=CARTESIAN_POINT('',(-0.0177654330330337,0.0893128630816871,0.0750153586088645));
#832=CARTESIAN_POINT('',(-3.09141614759402E-17,0.0910626055123582,0.0750153586088645));
#833=CARTESIAN_POINT('',(0.0177654330330337,0.0893128630816871,0.0750153586088645));
#834=CARTESIAN_POINT('',(0.0348481504375773,0.0841308774100172,0.0750153586088645));
#835=CARTESIAN_POINT('',(0.050591672963873,0.0757157893006201,0.0750153586088645));
#836=CARTESIAN_POINT('',(0.0643909858703039,0.064390985870304,0.0750153586088645));
#837=CARTESIAN_POINT('',(0.0757157893006202,0.050591672963873,0.0750153586088645));
#838=CARTESIAN_POINT('',(0.0841308774100173,0.0348481504375774,0.0750153586088645));
#839=CARTESIAN_POINT('',(0.0893128630816871,0.0177654330330335,0.0750153586088645));
#840=CARTESIAN_POINT('',(0.0910626055123582,5.18796697860053E-17,0.0750153586088645));
#841=CARTESIAN_POINT('',(0.0893128630816871,-0.0177654330330337,0.0750153586088645));
#842=CARTESIAN_POINT('',(0.0841308774100173,-0.0348481504375773,0.0750153586088645));
#843=CARTESIAN_POINT('',(0.07571578930062,-0.0505916729638731,0.0750153586088645));
#844=CARTESIAN_POINT('',(0.064390985870304,-0.064390985870304,0.0750153586088645));
#845=CARTESIAN_POINT('',(0.0505916729638729,-0.0757157893006202,0.0750153586088645));
#846=CARTESIAN_POINT('',(0.0348481504375775,-0.0841308774100173,0.0750153586088645));
#847=CARTESIAN_POINT('',(0.0177654330330334,-0.089312863081687,0.0750153586088645));
#848=CARTESIAN_POINT('',(7.90836546368714E-17,-0.0910626055123582,0.0750153586088645));
#849=CARTESIAN_POINT('',(-0.0177654330330337,-0.0893128630816871,0.0750153586088645));
#850=CARTESIAN_POINT('',(-0.0348481504375774,-0.0841308774100172,0.0750153586088645));
#851=CARTESIAN_POINT('',(-0.050591672963873,-0.0757157893006201,0.0750153586088645));
#852=CARTESIAN_POINT('',(-0.0643909858703041,-0.064390985870304,0.0750153586088645));
#853=CARTESIAN_POINT('',(-0.0757157893006202,-0.0505916729638729,0.0750153586088645));
#854=CARTESIAN_POINT('',(-0.0841308774100173,-0.0348481504375773,0.0750153586088644));
#855=CARTESIAN_POINT('',(-0.089312863081687,-0.0177654330330335,0.0750153586088645));
#856=CARTESIAN_POINT('',(-0.0910626055123582,-5.55111512312578E-17,0.0750153586088644));
#857=CARTESIAN_POINT('',(-0.0893128630816871,0.0177654330330336,0.0750153586088645));
#858=CARTESIAN_POINT('',(-0.0655997728951989,-0.0130486061261518,0.120256080103807));
#859=CARTESIAN_POINT('',(-0.0668849484244184,-4.03323208164608E-17,0.120256080103807));
#860=CARTESIAN_POINT('',(-0.0655997728951988,0.0130486061261519,0.120256080103807));
#861=CARTESIAN_POINT('',(-0.0617936348823932,0.0255957616366185,0.120256080103807));
#862=CARTESIAN_POINT('',(-0.0556128021353269,0.0371592863816582,0.120256080103807));
#863=CARTESIAN_POINT('',(-0.0472948005902188,0.0472948005902188,0.120256080103807));
#864=CARTESIAN_POINT('',(-0.0371592863816582,0.0556128021353269,0.120256080103807));
#865=CARTESIAN_POINT('',(-0.0255957616366185,0.0617936348823932,0.120256080103807));
#866=CARTESIAN_POINT('',(-0.0130486061261519,0.0655997728951988,0.120256080103807));
#867=CARTESIAN_POINT('',(-2.37190401054885E-17,0.0668849484244184,0.120256080103807));
#868=CARTESIAN_POINT('',(0.0130486061261519,0.0655997728951988,0.120256080103807));
#869=CARTESIAN_POINT('',(0.0255957616366184,0.0617936348823932,0.120256080103807));
#870=CARTESIAN_POINT('',(0.0371592863816582,0.0556128021353269,0.120256080103807));
#871=CARTESIAN_POINT('',(0.0472948005902188,0.0472948005902188,0.120256080103807));
#872=CARTESIAN_POINT('',(0.0556128021353269,0.0371592863816582,0.120256080103807));
#873=CARTESIAN_POINT('',(0.0617936348823932,0.0255957616366185,0.120256080103807));
#874=CARTESIAN_POINT('',(0.0655997728951989,0.0130486061261518,0.120256080103807));
#875=CARTESIAN_POINT('',(0.0668849484244184,3.66767345373286E-17,0.120256080103807));
#876=CARTESIAN_POINT('',(0.0655997728951989,-0.0130486061261519,0.120256080103807));
#877=CARTESIAN_POINT('',(0.0617936348823932,-0.0255957616366184,0.120256080103807));
#878=CARTESIAN_POINT('',(0.0556128021353269,-0.0371592863816583,0.120256080103807));
#879=CARTESIAN_POINT('',(0.0472948005902188,-0.0472948005902187,0.120256080103807));
#880=CARTESIAN_POINT('',(0.0371592863816581,-0.055612802135327,0.120256080103807));
#881=CARTESIAN_POINT('',(0.0255957616366185,-0.0617936348823932,0.120256080103807));
#882=CARTESIAN_POINT('',(0.0130486061261517,-0.0655997728951989,0.120256080103807));
#883=CARTESIAN_POINT('',(7.46828949594117E-17,-0.0668849484244184,0.120256080103807));
#884=CARTESIAN_POINT('',(-0.0130486061261519,-0.0655997728951988,0.120256080103807));
#885=CARTESIAN_POINT('',(-0.0255957616366184,-0.0617936348823933,0.120256080103807));
#886=CARTESIAN_POINT('',(-0.0371592863816583,-0.0556128021353269,0.120256080103807));
#887=CARTESIAN_POINT('',(-0.0472948005902188,-0.0472948005902187,0.120256080103807));
#888=CARTESIAN_POINT('',(-0.0556128021353269,-0.0371592863816582,0.120256080103807));
#889=CARTESIAN_POINT('',(-0.0617936348823933,-0.0255957616366184,0.120256080103807));
#890=CARTESIAN_POINT('',(-0.0655997728951989,-0.0130486061261518,0.120256080103807));
#891=CARTESIAN_POINT('',(-0.0668849484244184,-4.03323208164608E-17,0.120256080103807));
#892=CARTESIAN_POINT('',(-0.0655997728951988,0.0130486061261519,0.120256080103807));
#893=CARTESIAN_POINT('',(0.,0.,0.120256080103807));
#894=CARTESIAN_POINT('',(-0.0664565565813453,0.,0.120256080103807));
#895=CARTESIAN_POINT('',(0.,0.,0.0508366277246577));
#896=CARTESIAN_POINT('',(-0.368374434659212,0.,0.0508366277246577));
#897=CARTESIAN_POINT('',(0.,0.,0.0889));
#898=CARTESIAN_POINT('',(0.,0.,0.0126560842055058));
#899=CARTESIAN_POINT('',(0.381,0.,0.0126560842055058));
#900=CARTESIAN_POINT('',(0.,0.,0.0381368458571804));
#901=CARTESIAN_POINT('',(0.381,0.,0.0381368458571804));
#902=CARTESIAN_POINT('',(-0.363639306660843,-0.072332355360205,-4.36059218911087E-5));
#903=CARTESIAN_POINT('',(-0.370763421848398,-2.25514051876985E-16,-4.36059218911086E-5));
#904=CARTESIAN_POINT('',(-0.363639306660843,0.0723323553602057,-4.36059218911087E-5));
#905=CARTESIAN_POINT('',(-0.342540736849583,0.141885018868371,-4.36059218911086E-5));
#906=CARTESIAN_POINT('',(-0.308278518620253,0.20598512067146,-4.36059218911086E-5));
#907=CARTESIAN_POINT('',(-0.262169329804931,0.262169329804931,-4.36059218911086E-5));
#908=CARTESIAN_POINT('',(-0.20598512067146,0.308278518620253,-4.36059218911086E-5));
#909=CARTESIAN_POINT('',(-0.141885018868371,0.342540736849584,-4.36059218911087E-5));
#910=CARTESIAN_POINT('',(-0.0723323553602057,0.363639306660843,-4.36059218911086E-5));
#911=CARTESIAN_POINT('',(-8.28906442183058E-17,0.370763421848399,-4.36059218911086E-5));
#912=CARTESIAN_POINT('',(0.0723323553602057,0.363639306660843,-4.36059218911086E-5));
#913=CARTESIAN_POINT('',(0.141885018868371,0.342540736849584,-4.36059218911087E-5));
#914=CARTESIAN_POINT('',(0.20598512067146,0.308278518620253,-4.36059218911086E-5));
#915=CARTESIAN_POINT('',(0.262169329804931,0.262169329804931,-4.36059218911087E-5));
#916=CARTESIAN_POINT('',(0.308278518620253,0.20598512067146,-4.36059218911087E-5));
#917=CARTESIAN_POINT('',(0.342540736849583,0.141885018868371,-4.36059218911086E-5));
#918=CARTESIAN_POINT('',(0.363639306660843,0.0723323553602052,-4.36059218911087E-5));
#919=CARTESIAN_POINT('',(0.370763421848399,2.10334753882191E-16,-4.36059218911086E-5));
#920=CARTESIAN_POINT('',(0.363639306660843,-0.0723323553602058,-4.36059218911087E-5));
#921=CARTESIAN_POINT('',(0.342540736849584,-0.141885018868371,-4.36059218911086E-5));
#922=CARTESIAN_POINT('',(0.308278518620253,-0.20598512067146,-4.36059218911087E-5));
#923=CARTESIAN_POINT('',(0.262169329804932,-0.262169329804931,-4.36059218911086E-5));
#924=CARTESIAN_POINT('',(0.205985120671459,-0.308278518620253,-4.36059218911086E-5));
#925=CARTESIAN_POINT('',(0.141885018868371,-0.342540736849583,-4.36059218911086E-5));
#926=CARTESIAN_POINT('',(0.0723323553602047,-0.363639306660843,-4.36059218911087E-5));
#927=CARTESIAN_POINT('',(3.72545418993175E-16,-0.370763421848399,-4.36059218911086E-5));
#928=CARTESIAN_POINT('',(-0.0723323553602058,-0.363639306660843,-4.36059218911087E-5));
#929=CARTESIAN_POINT('',(-0.141885018868371,-0.342540736849583,-4.36059218911086E-5));
#930=CARTESIAN_POINT('',(-0.20598512067146,-0.308278518620253,-4.36059218911086E-5));
#931=CARTESIAN_POINT('',(-0.262169329804931,-0.262169329804931,-4.36059218911086E-5));
#932=CARTESIAN_POINT('',(-0.308278518620253,-0.20598512067146,-4.36059218911086E-5));
#933=CARTESIAN_POINT('',(-0.342540736849584,-0.14188501886837,-4.36059218911086E-5));
#934=CARTESIAN_POINT('',(-0.363639306660843,-0.072332355360205,-4.36059218911087E-5));
#935=CARTESIAN_POINT('',(-0.370763421848398,-2.25514051876985E-16,-4.36059218911086E-5));
#936=CARTESIAN_POINT('',(-0.363639306660843,0.0723323553602057,-4.36059218911087E-5));
#937=CARTESIAN_POINT('',(-0.15804464394169,-0.0314370342781163,-0.00149859592718253));
#938=CARTESIAN_POINT('',(-0.161140921565129,-9.80118763926896E-17,-0.00149859592718253));
#939=CARTESIAN_POINT('',(-0.15804464394169,0.0314370342781166,-0.00149859592718253));
#940=CARTESIAN_POINT('',(-0.148874799284029,0.0616659609590171,-0.00149859592718253));
#941=CARTESIAN_POINT('',(-0.133983779579833,0.089525099342932,-0.00149859592718253));
#942=CARTESIAN_POINT('',(-0.113943838365352,0.113943838365352,-0.00149859592718253));
#943=CARTESIAN_POINT('',(-0.089525099342932,0.133983779579833,-0.00149859592718253));
#944=CARTESIAN_POINT('',(-0.0616659609590172,0.148874799284029,-0.00149859592718253));
#945=CARTESIAN_POINT('',(-0.0314370342781166,0.15804464394169,-0.00149859592718253));
#946=CARTESIAN_POINT('',(-2.22632022273952E-17,0.161140921565129,-0.00149859592718253));
#947=CARTESIAN_POINT('',(0.0314370342781166,0.15804464394169,-0.00149859592718253));
#948=CARTESIAN_POINT('',(0.0616659609590172,0.148874799284029,-0.00149859592718253));
#949=CARTESIAN_POINT('',(0.0895250993429319,0.133983779579832,-0.00149859592718253));
#950=CARTESIAN_POINT('',(0.113943838365352,0.113943838365352,-0.00149859592718253));
#951=CARTESIAN_POINT('',(0.133983779579832,0.089525099342932,-0.00149859592718253));
#952=CARTESIAN_POINT('',(0.148874799284029,0.0616659609590173,-0.00149859592718253));
#953=CARTESIAN_POINT('',(0.15804464394169,0.0314370342781164,-0.00149859592718253));
#954=CARTESIAN_POINT('',(0.161140921565129,8.82610907141134E-17,-0.00149859592718253));
#955=CARTESIAN_POINT('',(0.15804464394169,-0.0314370342781166,-0.00149859592718253));
#956=CARTESIAN_POINT('',(0.148874799284029,-0.0616659609590171,-0.00149859592718253));
#957=CARTESIAN_POINT('',(0.133983779579832,-0.0895250993429321,-0.00149859592718253));
#958=CARTESIAN_POINT('',(0.113943838365352,-0.113943838365352,-0.00149859592718253));
#959=CARTESIAN_POINT('',(0.0895250993429319,-0.133983779579833,-0.00149859592718253));
#960=CARTESIAN_POINT('',(0.0616659609590174,-0.148874799284029,-0.00149859592718253));
#961=CARTESIAN_POINT('',(0.0314370342781162,-0.15804464394169,-0.00149859592718253));
#962=CARTESIAN_POINT('',(2.82023854953056E-16,-0.161140921565129,-0.00149859592718253));
#963=CARTESIAN_POINT('',(-0.0314370342781167,-0.15804464394169,-0.00149859592718253));
#964=CARTESIAN_POINT('',(-0.0616659609590171,-0.148874799284029,-0.00149859592718253));
#965=CARTESIAN_POINT('',(-0.0895250993429321,-0.133983779579832,-0.00149859592718253));
#966=CARTESIAN_POINT('',(-0.113943838365352,-0.113943838365352,-0.00149859592718253));
#967=CARTESIAN_POINT('',(-0.133983779579832,-0.089525099342932,-0.00149859592718253));
#968=CARTESIAN_POINT('',(-0.148874799284029,-0.0616659609590169,-0.00149859592718253));
#969=CARTESIAN_POINT('',(-0.15804464394169,-0.0314370342781163,-0.00149859592718253));
#970=CARTESIAN_POINT('',(-0.161140921565129,-9.80118763926896E-17,-0.00149859592718253));
#971=CARTESIAN_POINT('',(-0.15804464394169,0.0314370342781166,-0.00149859592718253));
#972=CARTESIAN_POINT('',(-0.0571481501373921,-0.0113674738351967,-0.0393648545805328));
#973=CARTESIAN_POINT('',(-0.0582677485880465,-3.25260651745651E-17,-0.0393648545805328));
#974=CARTESIAN_POINT('',(-0.057148150137392,0.0113674738351968,-0.0393648545805328));
#975=CARTESIAN_POINT('',(-0.0538323803260096,0.0222981020258597,-0.0393648545805328));
#976=CARTESIAN_POINT('',(-0.0484478623282451,0.0323718266605886,-0.0393648545805328));
#977=CARTESIAN_POINT('',(-0.0412015201510806,0.0412015201510805,-0.0393648545805328));
#978=CARTESIAN_POINT('',(-0.0323718266605885,0.0484478623282451,-0.0393648545805328));
#979=CARTESIAN_POINT('',(-0.0222981020258597,0.0538323803260096,-0.0393648545805328));
#980=CARTESIAN_POINT('',(-0.0113674738351968,0.057148150137392,-0.0393648545805328));
#981=CARTESIAN_POINT('',(-2.34330606066718E-17,0.0582677485880465,-0.0393648545805328));
#982=CARTESIAN_POINT('',(0.0113674738351968,0.057148150137392,-0.0393648545805328));
#983=CARTESIAN_POINT('',(0.0222981020258596,0.0538323803260096,-0.0393648545805328));
#984=CARTESIAN_POINT('',(0.0323718266605886,0.0484478623282452,-0.0393648545805328));
#985=CARTESIAN_POINT('',(0.0412015201510804,0.0412015201510806,-0.0393648545805328));
#986=CARTESIAN_POINT('',(0.0484478623282453,0.0323718266605886,-0.0393648545805328));
#987=CARTESIAN_POINT('',(0.0538323803260095,0.0222981020258597,-0.0393648545805328));
#988=CARTESIAN_POINT('',(0.0571481501373921,0.0113674738351967,-0.0393648545805328));
#989=CARTESIAN_POINT('',(0.0582677485880464,3.32192515101451E-17,-0.0393648545805328));
#990=CARTESIAN_POINT('',(0.0571481501373921,-0.0113674738351968,-0.0393648545805328));
#991=CARTESIAN_POINT('',(0.0538323803260095,-0.0222981020258597,-0.0393648545805328));
#992=CARTESIAN_POINT('',(0.0484478623282451,-0.0323718266605887,-0.0393648545805328));
#993=CARTESIAN_POINT('',(0.0412015201510806,-0.0412015201510805,-0.0393648545805328));
#994=CARTESIAN_POINT('',(0.0323718266605884,-0.0484478623282452,-0.0393648545805328));
#995=CARTESIAN_POINT('',(0.0222981020258598,-0.0538323803260095,-0.0393648545805328));
#996=CARTESIAN_POINT('',(0.0113674738351966,-0.0571481501373921,-0.0393648545805328));
#997=CARTESIAN_POINT('',(-9.10623945769417E-18,-0.0582677485880465,-0.0393648545805328));
#998=CARTESIAN_POINT('',(-0.0113674738351968,-0.057148150137392,-0.0393648545805328));
#999=CARTESIAN_POINT('',(-0.0222981020258597,-0.0538323803260096,-0.0393648545805328));
#1000=CARTESIAN_POINT('',(-0.0323718266605887,-0.0484478623282451,-0.0393648545805328));
#1001=CARTESIAN_POINT('',(-0.0412015201510805,-0.0412015201510805,-0.0393648545805328));
#1002=CARTESIAN_POINT('',(-0.0484478623282452,-0.0323718266605886,-0.0393648545805328));
#1003=CARTESIAN_POINT('',(-0.0538323803260096,-0.0222981020258596,-0.0393648545805328));
#1004=CARTESIAN_POINT('',(-0.0571481501373921,-0.0113674738351967,-0.0393648545805328));
#1005=CARTESIAN_POINT('',(-0.0582677485880465,-3.25260651745651E-17,-0.0393648545805328));
#1006=CARTESIAN_POINT('',(-0.057148150137392,0.0113674738351968,-0.0393648545805328));
#1007=CARTESIAN_POINT('',(-0.0609498252479502,-0.0121236740314461,-0.113642381881942));
#1008=CARTESIAN_POINT('',(-0.0621439029171521,-3.88144377749811E-17,-0.113642381881942));
#1009=CARTESIAN_POINT('',(-0.0609498252479502,0.0121236740314462,-0.113642381881942));
#1010=CARTESIAN_POINT('',(-0.0574134799755253,0.0237814420688987,-0.113642381881942));
#1011=CARTESIAN_POINT('',(-0.0516707668654915,0.0345253026244297,-0.113642381881942));
#1012=CARTESIAN_POINT('',(-0.0439423751621168,0.0439423751621168,-0.113642381881942));
#1013=CARTESIAN_POINT('',(-0.0345253026244298,0.0516707668654915,-0.113642381881942));
#1014=CARTESIAN_POINT('',(-0.0237814420688987,0.0574134799755253,-0.113642381881942));
#1015=CARTESIAN_POINT('',(-0.0121236740314462,0.0609498252479502,-0.113642381881942));
#1016=CARTESIAN_POINT('',(-1.04043174493614E-17,0.0621439029171522,-0.113642381881942));
#1017=CARTESIAN_POINT('',(0.0121236740314462,0.0609498252479502,-0.113642381881942));
#1018=CARTESIAN_POINT('',(0.0237814420688987,0.0574134799755253,-0.113642381881942));
#1019=CARTESIAN_POINT('',(0.0345253026244298,0.0516707668654915,-0.113642381881942));
#1020=CARTESIAN_POINT('',(0.0439423751621168,0.0439423751621168,-0.113642381881942));
#1021=CARTESIAN_POINT('',(0.0516707668654915,0.0345253026244298,-0.113642381881942));
#1022=CARTESIAN_POINT('',(0.0574134799755253,0.0237814420688987,-0.113642381881942));
#1023=CARTESIAN_POINT('',(0.0609498252479502,0.0121236740314461,-0.113642381881942));
#1024=CARTESIAN_POINT('',(0.0621439029171522,3.44022234773055E-17,-0.113642381881942));
#1025=CARTESIAN_POINT('',(0.0609498252479502,-0.0121236740314462,-0.113642381881942));
#1026=CARTESIAN_POINT('',(0.0574134799755254,-0.0237814420688987,-0.113642381881942));
#1027=CARTESIAN_POINT('',(0.0516707668654914,-0.0345253026244298,-0.113642381881942));
#1028=CARTESIAN_POINT('',(0.0439423751621168,-0.0439423751621167,-0.113642381881942));
#1029=CARTESIAN_POINT('',(0.0345253026244297,-0.0516707668654916,-0.113642381881942));
#1030=CARTESIAN_POINT('',(0.0237814420688988,-0.0574134799755253,-0.113642381881942));
#1031=CARTESIAN_POINT('',(0.012123674031446,-0.0609498252479503,-0.113642381881942));
#1032=CARTESIAN_POINT('',(6.91337703637119E-17,-0.0621439029171522,-0.113642381881942));
#1033=CARTESIAN_POINT('',(-0.0121236740314462,-0.0609498252479502,-0.113642381881942));
#1034=CARTESIAN_POINT('',(-0.0237814420688987,-0.0574134799755253,-0.113642381881942));
#1035=CARTESIAN_POINT('',(-0.0345253026244298,-0.0516707668654915,-0.113642381881942));
#1036=CARTESIAN_POINT('',(-0.0439423751621168,-0.0439423751621167,-0.113642381881942));
#1037=CARTESIAN_POINT('',(-0.0516707668654915,-0.0345253026244297,-0.113642381881942));
#1038=CARTESIAN_POINT('',(-0.0574134799755254,-0.0237814420688986,-0.113642381881942));
#1039=CARTESIAN_POINT('',(-0.0609498252479502,-0.0121236740314461,-0.113642381881942));
#1040=CARTESIAN_POINT('',(-0.0621439029171521,-3.88144377749811E-17,-0.113642381881942));
#1041=CARTESIAN_POINT('',(-0.0609498252479502,0.0121236740314462,-0.113642381881942));
#1042=CARTESIAN_POINT('',(0.,0.,-0.113642381881942));
#1043=CARTESIAN_POINT('',(-0.0617458770274181,0.,-0.113642381881942));
#1044=CARTESIAN_POINT('',(0.,0.,-4.36059218911072E-5));
#1045=CARTESIAN_POINT('',(-0.36838871678588,0.,-4.36059218911072E-5));
#1046=CARTESIAN_POINT('',(-0.003175,0.0538756841669814,5.55111512312578E-17));
#1047=CARTESIAN_POINT('',(-0.003175,0.0570506841669814,5.55111512312578E-17));
#1048=CARTESIAN_POINT('',(-0.003175,0.0570506841669814,5.55111512312578E-17));
#1049=CARTESIAN_POINT('',(-0.003175,0.0570506841669814,0.126857199706764));
#1050=CARTESIAN_POINT('',(-0.003175,0.0570506841669814,0.126857199706764));
#1051=CARTESIAN_POINT('',(-0.003175,0.056420197859575,0.126952406623991));
#1052=CARTESIAN_POINT('',(-0.003175,0.0557861371138598,0.127));
#1053=CARTESIAN_POINT('',(-0.003175,0.0551485034436759,0.127));
#1054=CARTESIAN_POINT('',(-0.003175,0.0507006841669814,5.55111512312578E-17));
#1055=CARTESIAN_POINT('',(-0.003175,0.0507006841669814,5.55111512312578E-17));
#1056=CARTESIAN_POINT('',(-0.003175,0.0538756841669814,5.55111512312578E-17));
#1057=CARTESIAN_POINT('',(6.93889390390723E-18,-1.27935856353289E-17,5.55111512312578E-17));
#1058=CARTESIAN_POINT('',(-0.0507006841669814,0.003175,5.55111512312578E-17));
#1059=CARTESIAN_POINT('',(-0.0507006841669814,0.003175,5.55111512312578E-17));
#1060=CARTESIAN_POINT('',(6.93889390390723E-18,-1.27935856353289E-17,5.55111512312578E-17));
#1061=CARTESIAN_POINT('',(-0.0538756841669814,0.003175,5.55111512312578E-17));
#1062=CARTESIAN_POINT('',(-0.0551485034436759,0.003175,0.127));
#1063=CARTESIAN_POINT('',(-0.0557861371138598,0.003175,0.127));
#1064=CARTESIAN_POINT('',(-0.056420197859575,0.003175,0.126952406623991));
#1065=CARTESIAN_POINT('',(-0.0570506841669814,0.003175,0.126857199706764));
#1066=CARTESIAN_POINT('',(-0.0570506841669814,0.003175,0.126857199706764));
#1067=CARTESIAN_POINT('',(-0.0570506841669814,0.003175,5.55111512312578E-17));
#1068=CARTESIAN_POINT('',(-0.0570506841669814,0.003175,5.55111512312578E-17));
#1069=CARTESIAN_POINT('',(-0.0538756841669814,0.003175,5.55111512312578E-17));
#1070=CARTESIAN_POINT('',(-0.0570506841669814,6.93889390390723E-18,5.55111512312578E-17));
#1071=CARTESIAN_POINT('',(-0.0570506841669814,0.003175,0.126857199706764));
#1072=CARTESIAN_POINT('',(-0.0570506841669814,0.00105833333333333,0.126874987750438));
#1073=CARTESIAN_POINT('',(-0.0570506841669814,-0.00105833333333333,0.126874987750438));
#1074=CARTESIAN_POINT('',(-0.0570506841669814,-0.003175,0.126857199706764));
#1075=CARTESIAN_POINT('',(-0.0570506841669814,-0.003175,0.126857199706764));
#1076=CARTESIAN_POINT('',(-0.0570506841669814,-0.003175,5.55111512312578E-17));
#1077=CARTESIAN_POINT('',(-0.0570506841669814,-0.003175,5.55111512312578E-17));
#1078=CARTESIAN_POINT('',(-0.0570506841669814,6.93889390390723E-18,5.55111512312578E-17));
#1079=CARTESIAN_POINT('',(-0.0538756841669814,-0.003175,5.55111512312578E-17));
#1080=CARTESIAN_POINT('',(-0.0570506841669814,-0.003175,0.126857199706764));
#1081=CARTESIAN_POINT('',(-0.056420197859575,-0.003175,0.126952406623991));
#1082=CARTESIAN_POINT('',(-0.0557861371138598,-0.003175,0.127));
#1083=CARTESIAN_POINT('',(-0.0551485034436759,-0.003175,0.127));
#1084=CARTESIAN_POINT('',(-0.0507006841669814,-0.00317500000000003,5.55111512312578E-17));
#1085=CARTESIAN_POINT('',(-0.0507006841669814,-0.00317500000000003,5.55111512312578E-17));
#1086=CARTESIAN_POINT('',(-0.0538756841669814,-0.003175,5.55111512312578E-17));
#1087=CARTESIAN_POINT('',(2.08166817117217E-17,-1.0842021724855E-18,5.55111512312578E-17));
#1088=CARTESIAN_POINT('',(-0.003175,-0.0507006841669814,5.55111512312578E-17));
#1089=CARTESIAN_POINT('',(-0.003175,-0.0507006841669814,5.55111512312578E-17));
#1090=CARTESIAN_POINT('',(2.08166817117217E-17,-1.0842021724855E-18,5.55111512312578E-17));
#1091=CARTESIAN_POINT('',(-0.003175,-0.0538756841669814,5.55111512312578E-17));
#1092=CARTESIAN_POINT('',(-0.003175,-0.0551485034436759,0.127));
#1093=CARTESIAN_POINT('',(-0.003175,-0.0557861371138598,0.127));
#1094=CARTESIAN_POINT('',(-0.003175,-0.056420197859575,0.126952406623991));
#1095=CARTESIAN_POINT('',(-0.003175,-0.0570506841669814,0.126857199706764));
#1096=CARTESIAN_POINT('',(-0.003175,-0.0570506841669814,0.126857199706764));
#1097=CARTESIAN_POINT('',(-0.003175,-0.0570506841669814,5.55111512312578E-17));
#1098=CARTESIAN_POINT('',(-0.003175,-0.0570506841669814,5.55111512312578E-17));
#1099=CARTESIAN_POINT('',(-0.003175,-0.0538756841669814,5.55111512312578E-17));
#1100=CARTESIAN_POINT('',(-1.04083408558608E-17,-0.0570506841669814,5.55111512312578E-17));
#1101=CARTESIAN_POINT('',(-0.003175,-0.0570506841669814,0.126857199706764));
#1102=CARTESIAN_POINT('',(-0.00105833333333333,-0.0570506841669814,0.126874987750438));
#1103=CARTESIAN_POINT('',(0.00105833333333333,-0.0570506841669814,0.126874987750438));
#1104=CARTESIAN_POINT('',(0.003175,-0.0570506841669814,0.126857199706764));
#1105=CARTESIAN_POINT('',(0.003175,-0.0570506841669814,0.126857199706764));
#1106=CARTESIAN_POINT('',(0.003175,-0.0570506841669814,5.55111512312578E-17));
#1107=CARTESIAN_POINT('',(0.003175,-0.0570506841669814,5.55111512312578E-17));
#1108=CARTESIAN_POINT('',(-1.04083408558608E-17,-0.0570506841669814,5.55111512312578E-17));
#1109=CARTESIAN_POINT('',(0.003175,-0.0538756841669814,5.55111512312578E-17));
#1110=CARTESIAN_POINT('',(0.003175,-0.0570506841669814,0.126857199706764));
#1111=CARTESIAN_POINT('',(0.003175,-0.056420197859575,0.126952406623991));
#1112=CARTESIAN_POINT('',(0.003175,-0.0557861371138598,0.127));
#1113=CARTESIAN_POINT('',(0.003175,-0.0551485034436759,0.127));
#1114=CARTESIAN_POINT('',(0.003175,-0.0507006841669814,5.55111512312578E-17));
#1115=CARTESIAN_POINT('',(0.003175,-0.0507006841669814,5.55111512312578E-17));
#1116=CARTESIAN_POINT('',(0.003175,-0.0538756841669814,5.55111512312578E-17));
#1117=CARTESIAN_POINT('',(6.93889390390723E-18,-1.95156391047391E-18,5.55111512312578E-17));
#1118=CARTESIAN_POINT('',(0.0507006841669814,-0.003175,5.55111512312578E-17));
#1119=CARTESIAN_POINT('',(0.0507006841669814,-0.003175,5.55111512312578E-17));
#1120=CARTESIAN_POINT('',(6.93889390390723E-18,-1.95156391047391E-18,5.55111512312578E-17));
#1121=CARTESIAN_POINT('',(0.0538756841669814,-0.003175,5.55111512312578E-17));
#1122=CARTESIAN_POINT('',(0.0551485034436759,-0.003175,0.127));
#1123=CARTESIAN_POINT('',(0.0557861371138598,-0.003175,0.127));
#1124=CARTESIAN_POINT('',(0.056420197859575,-0.003175,0.126952406623991));
#1125=CARTESIAN_POINT('',(0.0570506841669814,-0.003175,0.126857199706764));
#1126=CARTESIAN_POINT('',(0.0570506841669814,-0.003175,0.126857199706764));
#1127=CARTESIAN_POINT('',(0.0570506841669814,-0.003175,5.55111512312578E-17));
#1128=CARTESIAN_POINT('',(0.0570506841669814,-0.003175,5.55111512312578E-17));
#1129=CARTESIAN_POINT('',(0.0538756841669814,-0.003175,5.55111512312578E-17));
#1130=CARTESIAN_POINT('',(0.0570506841669814,-1.38777878078145E-17,5.55111512312578E-17));
#1131=CARTESIAN_POINT('',(0.0570506841669814,-0.003175,0.126857199706764));
#1132=CARTESIAN_POINT('',(0.0570506841669814,-0.00105833333333333,0.126874987750438));
#1133=CARTESIAN_POINT('',(0.0570506841669814,0.00105833333333333,0.126874987750438));
#1134=CARTESIAN_POINT('',(0.0570506841669814,0.003175,0.126857199706764));
#1135=CARTESIAN_POINT('',(0.0570506841669814,0.003175,0.126857199706764));
#1136=CARTESIAN_POINT('',(0.0570506841669814,0.003175,5.55111512312578E-17));
#1137=CARTESIAN_POINT('',(0.0570506841669814,0.003175,5.55111512312578E-17));
#1138=CARTESIAN_POINT('',(0.0570506841669814,-1.38777878078145E-17,5.55111512312578E-17));
#1139=CARTESIAN_POINT('',(0.0538756841669814,0.003175,5.55111512312578E-17));
#1140=CARTESIAN_POINT('',(0.0570506841669814,0.003175,0.126857199706764));
#1141=CARTESIAN_POINT('',(0.056420197859575,0.003175,0.126952406623991));
#1142=CARTESIAN_POINT('',(0.0557861371138598,0.003175,0.127));
#1143=CARTESIAN_POINT('',(0.0551485034436759,0.003175,0.127));
#1144=CARTESIAN_POINT('',(0.0507006841669814,0.003175,5.55111512312578E-17));
#1145=CARTESIAN_POINT('',(0.0507006841669814,0.003175,5.55111512312578E-17));
#1146=CARTESIAN_POINT('',(0.0538756841669814,0.003175,5.55111512312578E-17));
#1147=CARTESIAN_POINT('',(-1.49619899803E-17,-2.16840434497101E-18,5.55111512312578E-17));
#1148=CARTESIAN_POINT('',(0.003175,0.0507006841669814,5.55111512312578E-17));
#1149=CARTESIAN_POINT('',(0.003175,0.0507006841669814,5.55111512312578E-17));
#1150=CARTESIAN_POINT('',(-1.49619899803E-17,-2.16840434497101E-18,5.55111512312578E-17));
#1151=CARTESIAN_POINT('',(0.003175,0.0538756841669814,5.55111512312578E-17));
#1152=CARTESIAN_POINT('',(0.003175,0.0551485034436759,0.127));
#1153=CARTESIAN_POINT('',(0.003175,0.0557861371138598,0.127));
#1154=CARTESIAN_POINT('',(0.003175,0.056420197859575,0.126952406623991));
#1155=CARTESIAN_POINT('',(0.003175,0.0570506841669814,0.126857199706764));
#1156=CARTESIAN_POINT('',(0.003175,0.0570506841669814,0.126857199706764));
#1157=CARTESIAN_POINT('',(0.003175,0.0570506841669814,5.55111512312578E-17));
#1158=CARTESIAN_POINT('',(0.003175,0.0570506841669814,5.55111512312578E-17));
#1159=CARTESIAN_POINT('',(0.003175,0.0538756841669814,5.55111512312578E-17));
#1160=CARTESIAN_POINT('',(4.33680868994202E-19,0.0570506841669814,5.55111512312578E-17));
#1161=CARTESIAN_POINT('',(0.003175,0.0570506841669814,0.126857199706764));
#1162=CARTESIAN_POINT('',(0.00105833333333333,0.0570506841669814,0.126874987750438));
#1163=CARTESIAN_POINT('',(-0.00105833333333333,0.0570506841669814,0.126874987750438));
#1164=CARTESIAN_POINT('',(-0.003175,0.0570506841669814,0.126857199706764));
#1165=CARTESIAN_POINT('',(4.33680868994202E-19,0.0570506841669814,5.55111512312578E-17));
#1166=CARTESIAN_POINT('',(0.,0.,5.55111512312578E-17));
#1167=CARTESIAN_POINT('',(0.,2.52736483174035E-18,5.55111512312578E-17));
#1168=CARTESIAN_POINT('',(0.041275,2.52736483174035E-18,5.55111512312578E-17));
#1169=CARTESIAN_POINT('',(0.,2.52736483174035E-18,-0.15113));
#1170=CARTESIAN_POINT('',(0.,0.,0.0381368458571804));
#1171=CARTESIAN_POINT('',(0.,0.,0.0126560842055058));
#1172=CARTESIAN_POINT('',(0.,0.,0.1143));
#1173=CARTESIAN_POINT('',(0.,0.,-0.1143));
#1174=MECHANICAL_DESIGN_GEOMETRIC_PRESENTATION_REPRESENTATION('',(#514),
#1175);
#1175=(
GEOMETRIC_REPRESENTATION_CONTEXT(3)
GLOBAL_UNCERTAINTY_ASSIGNED_CONTEXT((#1176))
GLOBAL_UNIT_ASSIGNED_CONTEXT((#1179,#1178,#1177))
REPRESENTATION_CONTEXT('Part 1','TOP_LEVEL_ASSEMBLY_PART')
);
#1176=UNCERTAINTY_MEASURE_WITH_UNIT(LENGTH_MEASURE(2.E-5),#1179,
'DISTANCE_ACCURACY_VALUE','Maximum Tolerance applied to model');
#1177=(
NAMED_UNIT(*)
SI_UNIT($,.STERADIAN.)
SOLID_ANGLE_UNIT()
);
#1178=(
NAMED_UNIT(*)
PLANE_ANGLE_UNIT()
SI_UNIT($,.RADIAN.)
);
#1179=(
LENGTH_UNIT()
NAMED_UNIT(*)
SI_UNIT($,.METRE.)
);
#1180=PRODUCT_DEFINITION_SHAPE('','',#1181);
#1181=PRODUCT_DEFINITION('','',#1183,#1182);
#1182=PRODUCT_DEFINITION_CONTEXT('',#1189,'design');
#1183=PRODUCT_DEFINITION_FORMATION_WITH_SPECIFIED_SOURCE('','',#1185,
 .NOT_KNOWN.);
#1184=PRODUCT_RELATED_PRODUCT_CATEGORY('','',(#1185));
#1185=PRODUCT('Part 1','Part 1','Part 1',(#1187));
#1186=PRODUCT_CATEGORY('','');
#1187=PRODUCT_CONTEXT('',#1189,'mechanical');
#1188=APPLICATION_PROTOCOL_DEFINITION('international standard',
'ap242_managed_model_based_3d_engineering',2020,#1189);
#1189=APPLICATION_CONTEXT('managed model based 3d engineering');
ENDSEC;
END-ISO-10303-21;
