ISO-10303-21;
HEADER;
/* Generated by software containing ST-Developer
 * from STEP Tools, Inc. (www.steptools.com) 
 */
/* OPTION: using custom renumber hook */

FILE_DESCRIPTION(
/* description */ ('STEP AP242 Edition 2',
'CAx-IF Rec.Pracs.---Representation and Presentation of Product Manufa
cturing Information (PMI)---4.0---2014-10-13',
'CAx-IF Rec.Pracs.---3D Tessellated Geometry---0.4---2014-09-14','2;1',
'CAx-IF Rec.Pracs.---User Defined Attributes---1.5---2016-08-15'),
/* implementation_level */ '2;1');

FILE_NAME(
/* name */ 'Snap Bottom - Part 1',
/* time_stamp */ '2026-08-15T18:28:00Z',
/* author */ (''),
/* organization */ (''),
/* preprocessor_version */ 'ST-DEVELOPER v20',
/* originating_system */ 'ONSHAPE BY PTC INC, 1.219',
/* authorisation */ '  ');

FILE_SCHEMA (('AP242_MANAGED_MODEL_BASED_3D_ENGINEERING_MIM_LF { 1 0 10303 442 3 1 4 }'));
ENDSEC;

DATA;
#10=SHAPE_REPRESENTATION_RELATIONSHIP('','',#640,#11);
#11=ADVANCED_BREP_SHAPE_REPRESENTATION('',(#638),#1091);
#12=TOROIDAL_SURFACE('',#713,0.0679489951031446,0.00508);
#13=TOROIDAL_SURFACE('',#714,0.11557,0.00508);
#14=CONICAL_SURFACE('',#710,0.0700532,0.785398163397448);
#15=PLANE('',#675);
#16=PLANE('',#676);
#17=PLANE('',#677);
#18=PLANE('',#678);
#19=PLANE('',#679);
#20=PLANE('',#683);
#21=PLANE('',#686);
#22=PLANE('',#690);
#23=PLANE('',#691);
#24=PLANE('',#695);
#25=PLANE('',#696);
#26=PLANE('',#697);
#27=PLANE('',#698);
#28=PLANE('',#699);
#29=PLANE('',#700);
#30=PLANE('',#701);
#31=PLANE('',#702);
#32=PLANE('',#703);
#33=PLANE('',#704);
#34=PLANE('',#705);
#35=PLANE('',#706);
#36=PLANE('',#709);
#37=LINE('',#916,#85);
#38=LINE('',#920,#86);
#39=LINE('',#922,#87);
#40=LINE('',#927,#88);
#41=LINE('',#931,#89);
#42=LINE('',#936,#90);
#43=LINE('',#940,#91);
#44=LINE('',#945,#92);
#45=LINE('',#949,#93);
#46=LINE('',#954,#94);
#47=LINE('',#958,#95);
#48=LINE('',#963,#96);
#49=LINE('',#970,#97);
#50=LINE('',#974,#98);
#51=LINE('',#979,#99);
#52=LINE('',#983,#100);
#53=LINE('',#988,#101);
#54=LINE('',#992,#102);
#55=LINE('',#997,#103);
#56=LINE('',#1001,#104);
#57=LINE('',#1006,#105);
#58=LINE('',#1010,#106);
#59=LINE('',#1012,#107);
#60=LINE('',#1013,#108);
#61=LINE('',#1015,#109);
#62=LINE('',#1016,#110);
#63=LINE('',#1018,#111);
#64=LINE('',#1019,#112);
#65=LINE('',#1021,#113);
#66=LINE('',#1022,#114);
#67=LINE('',#1024,#115);
#68=LINE('',#1025,#116);
#69=LINE('',#1032,#117);
#70=LINE('',#1033,#118);
#71=LINE('',#1034,#119);
#72=LINE('',#1035,#120);
#73=LINE('',#1036,#121);
#74=LINE('',#1037,#122);
#75=LINE('',#1038,#123);
#76=LINE('',#1039,#124);
#77=LINE('',#1040,#125);
#78=LINE('',#1044,#126);
#79=LINE('',#1045,#127);
#80=LINE('',#1046,#128);
#81=LINE('',#1053,#129);
#82=LINE('',#1057,#130);
#83=LINE('',#1059,#131);
#84=LINE('',#1060,#132);
#85=VECTOR('',#721,1.);
#86=VECTOR('',#724,1.);
#87=VECTOR('',#727,1.);
#88=VECTOR('',#730,1.);
#89=VECTOR('',#735,1.);
#90=VECTOR('',#738,1.);
#91=VECTOR('',#743,1.);
#92=VECTOR('',#746,1.);
#93=VECTOR('',#751,1.);
#94=VECTOR('',#754,1.);
#95=VECTOR('',#759,1.);
#96=VECTOR('',#762,1.);
#97=VECTOR('',#769,1.);
#98=VECTOR('',#772,1.);
#99=VECTOR('',#777,1.);
#100=VECTOR('',#780,1.);
#101=VECTOR('',#785,1.);
#102=VECTOR('',#788,1.);
#103=VECTOR('',#793,1.);
#104=VECTOR('',#796,1.);
#105=VECTOR('',#801,1.);
#106=VECTOR('',#804,1.);
#107=VECTOR('',#807,1.);
#108=VECTOR('',#808,1.);
#109=VECTOR('',#811,1.);
#110=VECTOR('',#812,1.);
#111=VECTOR('',#815,1.);
#112=VECTOR('',#816,1.);
#113=VECTOR('',#819,1.);
#114=VECTOR('',#820,1.);
#115=VECTOR('',#823,1.);
#116=VECTOR('',#824,1.);
#117=VECTOR('',#833,1.);
#118=VECTOR('',#834,1.);
#119=VECTOR('',#835,1.);
#120=VECTOR('',#836,1.);
#121=VECTOR('',#837,1.);
#122=VECTOR('',#838,1.);
#123=VECTOR('',#839,1.);
#124=VECTOR('',#840,1.);
#125=VECTOR('',#841,1.);
#126=VECTOR('',#844,1.);
#127=VECTOR('',#845,1.);
#128=VECTOR('',#846,1.);
#129=VECTOR('',#855,1.);
#130=VECTOR('',#858,1.);
#131=VECTOR('',#861,1.);
#132=VECTOR('',#862,1.);
#133=ORIENTED_EDGE('',*,*,#295,.T.);
#134=ORIENTED_EDGE('',*,*,#296,.T.);
#135=ORIENTED_EDGE('',*,*,#297,.F.);
#136=ORIENTED_EDGE('',*,*,#298,.F.);
#137=ORIENTED_EDGE('',*,*,#299,.F.);
#138=ORIENTED_EDGE('',*,*,#300,.T.);
#139=ORIENTED_EDGE('',*,*,#301,.T.);
#140=ORIENTED_EDGE('',*,*,#302,.F.);
#141=ORIENTED_EDGE('',*,*,#303,.F.);
#142=ORIENTED_EDGE('',*,*,#304,.T.);
#143=ORIENTED_EDGE('',*,*,#305,.T.);
#144=ORIENTED_EDGE('',*,*,#306,.F.);
#145=ORIENTED_EDGE('',*,*,#307,.F.);
#146=ORIENTED_EDGE('',*,*,#308,.T.);
#147=ORIENTED_EDGE('',*,*,#309,.T.);
#148=ORIENTED_EDGE('',*,*,#310,.F.);
#149=ORIENTED_EDGE('',*,*,#311,.F.);
#150=ORIENTED_EDGE('',*,*,#312,.T.);
#151=ORIENTED_EDGE('',*,*,#313,.T.);
#152=ORIENTED_EDGE('',*,*,#314,.F.);
#153=ORIENTED_EDGE('',*,*,#315,.F.);
#154=ORIENTED_EDGE('',*,*,#316,.F.);
#155=ORIENTED_EDGE('',*,*,#317,.T.);
#156=ORIENTED_EDGE('',*,*,#318,.T.);
#157=ORIENTED_EDGE('',*,*,#319,.F.);
#158=ORIENTED_EDGE('',*,*,#320,.T.);
#159=ORIENTED_EDGE('',*,*,#321,.T.);
#160=ORIENTED_EDGE('',*,*,#322,.F.);
#161=ORIENTED_EDGE('',*,*,#323,.F.);
#162=ORIENTED_EDGE('',*,*,#324,.T.);
#163=ORIENTED_EDGE('',*,*,#325,.T.);
#164=ORIENTED_EDGE('',*,*,#326,.F.);
#165=ORIENTED_EDGE('',*,*,#327,.F.);
#166=ORIENTED_EDGE('',*,*,#328,.T.);
#167=ORIENTED_EDGE('',*,*,#329,.T.);
#168=ORIENTED_EDGE('',*,*,#330,.F.);
#169=ORIENTED_EDGE('',*,*,#331,.F.);
#170=ORIENTED_EDGE('',*,*,#332,.T.);
#171=ORIENTED_EDGE('',*,*,#333,.T.);
#172=ORIENTED_EDGE('',*,*,#334,.F.);
#173=ORIENTED_EDGE('',*,*,#335,.F.);
#174=ORIENTED_EDGE('',*,*,#336,.T.);
#175=ORIENTED_EDGE('',*,*,#337,.T.);
#176=ORIENTED_EDGE('',*,*,#338,.F.);
#177=ORIENTED_EDGE('',*,*,#316,.T.);
#178=ORIENTED_EDGE('',*,*,#339,.T.);
#179=ORIENTED_EDGE('',*,*,#295,.F.);
#180=ORIENTED_EDGE('',*,*,#340,.F.);
#181=ORIENTED_EDGE('',*,*,#341,.F.);
#182=ORIENTED_EDGE('',*,*,#319,.T.);
#183=ORIENTED_EDGE('',*,*,#342,.T.);
#184=ORIENTED_EDGE('',*,*,#300,.F.);
#185=ORIENTED_EDGE('',*,*,#343,.F.);
#186=ORIENTED_EDGE('',*,*,#323,.T.);
#187=ORIENTED_EDGE('',*,*,#344,.T.);
#188=ORIENTED_EDGE('',*,*,#304,.F.);
#189=ORIENTED_EDGE('',*,*,#345,.F.);
#190=ORIENTED_EDGE('',*,*,#327,.T.);
#191=ORIENTED_EDGE('',*,*,#346,.T.);
#192=ORIENTED_EDGE('',*,*,#308,.F.);
#193=ORIENTED_EDGE('',*,*,#347,.F.);
#194=ORIENTED_EDGE('',*,*,#331,.T.);
#195=ORIENTED_EDGE('',*,*,#348,.T.);
#196=ORIENTED_EDGE('',*,*,#312,.F.);
#197=ORIENTED_EDGE('',*,*,#349,.T.);
#198=ORIENTED_EDGE('',*,*,#350,.F.);
#199=ORIENTED_EDGE('',*,*,#321,.F.);
#200=ORIENTED_EDGE('',*,*,#351,.T.);
#201=ORIENTED_EDGE('',*,*,#302,.T.);
#202=ORIENTED_EDGE('',*,*,#352,.F.);
#203=ORIENTED_EDGE('',*,*,#325,.F.);
#204=ORIENTED_EDGE('',*,*,#353,.T.);
#205=ORIENTED_EDGE('',*,*,#306,.T.);
#206=ORIENTED_EDGE('',*,*,#354,.F.);
#207=ORIENTED_EDGE('',*,*,#329,.F.);
#208=ORIENTED_EDGE('',*,*,#355,.T.);
#209=ORIENTED_EDGE('',*,*,#310,.T.);
#210=ORIENTED_EDGE('',*,*,#356,.F.);
#211=ORIENTED_EDGE('',*,*,#333,.F.);
#212=ORIENTED_EDGE('',*,*,#357,.T.);
#213=ORIENTED_EDGE('',*,*,#314,.T.);
#214=ORIENTED_EDGE('',*,*,#358,.F.);
#215=ORIENTED_EDGE('',*,*,#337,.F.);
#216=ORIENTED_EDGE('',*,*,#359,.T.);
#217=ORIENTED_EDGE('',*,*,#360,.T.);
#218=ORIENTED_EDGE('',*,*,#361,.F.);
#219=ORIENTED_EDGE('',*,*,#318,.F.);
#220=ORIENTED_EDGE('',*,*,#362,.T.);
#221=ORIENTED_EDGE('',*,*,#297,.T.);
#222=ORIENTED_EDGE('',*,*,#363,.F.);
#223=ORIENTED_EDGE('',*,*,#350,.T.);
#224=ORIENTED_EDGE('',*,*,#364,.F.);
#225=ORIENTED_EDGE('',*,*,#365,.T.);
#226=ORIENTED_EDGE('',*,*,#366,.F.);
#227=ORIENTED_EDGE('',*,*,#367,.T.);
#228=ORIENTED_EDGE('',*,*,#368,.T.);
#229=ORIENTED_EDGE('',*,*,#360,.F.);
#230=ORIENTED_EDGE('',*,*,#369,.F.);
#231=ORIENTED_EDGE('',*,*,#335,.T.);
#232=ORIENTED_EDGE('',*,*,#370,.T.);
#233=ORIENTED_EDGE('',*,*,#367,.F.);
#234=ORIENTED_EDGE('',*,*,#371,.F.);
#235=ORIENTED_EDGE('',*,*,#372,.T.);
#236=ORIENTED_EDGE('',*,*,#372,.F.);
#237=ORIENTED_EDGE('',*,*,#364,.T.);
#238=ORIENTED_EDGE('',*,*,#340,.T.);
#239=ORIENTED_EDGE('',*,*,#298,.T.);
#240=ORIENTED_EDGE('',*,*,#362,.F.);
#241=ORIENTED_EDGE('',*,*,#317,.F.);
#242=ORIENTED_EDGE('',*,*,#368,.F.);
#243=ORIENTED_EDGE('',*,*,#370,.F.);
#244=ORIENTED_EDGE('',*,*,#338,.T.);
#245=ORIENTED_EDGE('',*,*,#361,.T.);
#246=ORIENTED_EDGE('',*,*,#369,.T.);
#247=ORIENTED_EDGE('',*,*,#366,.T.);
#248=ORIENTED_EDGE('',*,*,#359,.F.);
#249=ORIENTED_EDGE('',*,*,#336,.F.);
#250=ORIENTED_EDGE('',*,*,#313,.F.);
#251=ORIENTED_EDGE('',*,*,#348,.F.);
#252=ORIENTED_EDGE('',*,*,#334,.T.);
#253=ORIENTED_EDGE('',*,*,#358,.T.);
#254=ORIENTED_EDGE('',*,*,#347,.T.);
#255=ORIENTED_EDGE('',*,*,#311,.T.);
#256=ORIENTED_EDGE('',*,*,#357,.F.);
#257=ORIENTED_EDGE('',*,*,#332,.F.);
#258=ORIENTED_EDGE('',*,*,#309,.F.);
#259=ORIENTED_EDGE('',*,*,#346,.F.);
#260=ORIENTED_EDGE('',*,*,#330,.T.);
#261=ORIENTED_EDGE('',*,*,#356,.T.);
#262=ORIENTED_EDGE('',*,*,#345,.T.);
#263=ORIENTED_EDGE('',*,*,#307,.T.);
#264=ORIENTED_EDGE('',*,*,#355,.F.);
#265=ORIENTED_EDGE('',*,*,#328,.F.);
#266=ORIENTED_EDGE('',*,*,#305,.F.);
#267=ORIENTED_EDGE('',*,*,#344,.F.);
#268=ORIENTED_EDGE('',*,*,#326,.T.);
#269=ORIENTED_EDGE('',*,*,#354,.T.);
#270=ORIENTED_EDGE('',*,*,#343,.T.);
#271=ORIENTED_EDGE('',*,*,#303,.T.);
#272=ORIENTED_EDGE('',*,*,#353,.F.);
#273=ORIENTED_EDGE('',*,*,#324,.F.);
#274=ORIENTED_EDGE('',*,*,#301,.F.);
#275=ORIENTED_EDGE('',*,*,#342,.F.);
#276=ORIENTED_EDGE('',*,*,#322,.T.);
#277=ORIENTED_EDGE('',*,*,#352,.T.);
#278=ORIENTED_EDGE('',*,*,#341,.T.);
#279=ORIENTED_EDGE('',*,*,#299,.T.);
#280=ORIENTED_EDGE('',*,*,#351,.F.);
#281=ORIENTED_EDGE('',*,*,#320,.F.);
#282=ORIENTED_EDGE('',*,*,#296,.F.);
#283=ORIENTED_EDGE('',*,*,#339,.F.);
#284=ORIENTED_EDGE('',*,*,#315,.T.);
#285=ORIENTED_EDGE('',*,*,#363,.T.);
#286=ORIENTED_EDGE('',*,*,#373,.F.);
#287=ORIENTED_EDGE('',*,*,#371,.T.);
#288=ORIENTED_EDGE('',*,*,#373,.T.);
#289=ORIENTED_EDGE('',*,*,#374,.T.);
#290=ORIENTED_EDGE('',*,*,#375,.T.);
#291=ORIENTED_EDGE('',*,*,#374,.F.);
#292=ORIENTED_EDGE('',*,*,#365,.F.);
#293=ORIENTED_EDGE('',*,*,#375,.F.);
#294=ORIENTED_EDGE('',*,*,#349,.F.);
#295=EDGE_CURVE('',#376,#377,#433,.T.);
#296=EDGE_CURVE('',#377,#378,#37,.T.);
#297=EDGE_CURVE('',#379,#378,#434,.T.);
#298=EDGE_CURVE('',#376,#379,#38,.T.);
#299=EDGE_CURVE('',#380,#381,#39,.T.);
#300=EDGE_CURVE('',#380,#382,#435,.T.);
#301=EDGE_CURVE('',#382,#383,#40,.T.);
#302=EDGE_CURVE('',#381,#383,#436,.T.);
#303=EDGE_CURVE('',#384,#385,#41,.T.);
#304=EDGE_CURVE('',#384,#386,#437,.T.);
#305=EDGE_CURVE('',#386,#387,#42,.T.);
#306=EDGE_CURVE('',#385,#387,#438,.T.);
#307=EDGE_CURVE('',#388,#389,#43,.T.);
#308=EDGE_CURVE('',#388,#390,#439,.T.);
#309=EDGE_CURVE('',#390,#391,#44,.T.);
#310=EDGE_CURVE('',#389,#391,#440,.T.);
#311=EDGE_CURVE('',#392,#393,#45,.T.);
#312=EDGE_CURVE('',#392,#394,#441,.T.);
#313=EDGE_CURVE('',#394,#395,#46,.T.);
#314=EDGE_CURVE('',#393,#395,#442,.T.);
#315=EDGE_CURVE('',#396,#397,#47,.T.);
#316=EDGE_CURVE('',#398,#396,#443,.T.);
#317=EDGE_CURVE('',#398,#399,#48,.T.);
#318=EDGE_CURVE('',#399,#397,#444,.T.);
#319=EDGE_CURVE('',#400,#401,#445,.T.);
#320=EDGE_CURVE('',#400,#402,#49,.T.);
#321=EDGE_CURVE('',#402,#403,#446,.T.);
#322=EDGE_CURVE('',#401,#403,#50,.T.);
#323=EDGE_CURVE('',#404,#405,#447,.T.);
#324=EDGE_CURVE('',#404,#406,#51,.T.);
#325=EDGE_CURVE('',#406,#407,#448,.T.);
#326=EDGE_CURVE('',#405,#407,#52,.T.);
#327=EDGE_CURVE('',#408,#409,#449,.T.);
#328=EDGE_CURVE('',#408,#410,#53,.T.);
#329=EDGE_CURVE('',#410,#411,#450,.T.);
#330=EDGE_CURVE('',#409,#411,#54,.T.);
#331=EDGE_CURVE('',#412,#413,#451,.T.);
#332=EDGE_CURVE('',#412,#414,#55,.T.);
#333=EDGE_CURVE('',#414,#415,#452,.T.);
#334=EDGE_CURVE('',#413,#415,#56,.T.);
#335=EDGE_CURVE('',#416,#417,#453,.T.);
#336=EDGE_CURVE('',#416,#418,#57,.T.);
#337=EDGE_CURVE('',#418,#419,#454,.T.);
#338=EDGE_CURVE('',#417,#419,#58,.T.);
#339=EDGE_CURVE('',#396,#377,#59,.T.);
#340=EDGE_CURVE('',#398,#376,#60,.T.);
#341=EDGE_CURVE('',#400,#380,#61,.T.);
#342=EDGE_CURVE('',#401,#382,#62,.T.);
#343=EDGE_CURVE('',#404,#384,#63,.T.);
#344=EDGE_CURVE('',#405,#386,#64,.T.);
#345=EDGE_CURVE('',#408,#388,#65,.T.);
#346=EDGE_CURVE('',#409,#390,#66,.T.);
#347=EDGE_CURVE('',#412,#392,#67,.T.);
#348=EDGE_CURVE('',#413,#394,#68,.T.);
#349=EDGE_CURVE('',#420,#420,#455,.F.);
#350=EDGE_CURVE('',#421,#421,#456,.T.);
#351=EDGE_CURVE('',#402,#381,#69,.T.);
#352=EDGE_CURVE('',#403,#383,#70,.T.);
#353=EDGE_CURVE('',#406,#385,#71,.T.);
#354=EDGE_CURVE('',#407,#387,#72,.T.);
#355=EDGE_CURVE('',#410,#389,#73,.T.);
#356=EDGE_CURVE('',#411,#391,#74,.T.);
#357=EDGE_CURVE('',#414,#393,#75,.T.);
#358=EDGE_CURVE('',#415,#395,#76,.T.);
#359=EDGE_CURVE('',#418,#422,#77,.T.);
#360=EDGE_CURVE('',#422,#423,#457,.T.);
#361=EDGE_CURVE('',#419,#423,#78,.T.);
#362=EDGE_CURVE('',#399,#379,#79,.T.);
#363=EDGE_CURVE('',#397,#378,#80,.T.);
#364=EDGE_CURVE('',#424,#424,#458,.T.);
#365=EDGE_CURVE('',#425,#425,#459,.T.);
#366=EDGE_CURVE('',#426,#422,#81,.T.);
#367=EDGE_CURVE('',#426,#427,#460,.T.);
#368=EDGE_CURVE('',#427,#423,#82,.T.);
#369=EDGE_CURVE('',#416,#426,#83,.T.);
#370=EDGE_CURVE('',#417,#427,#84,.T.);
#371=EDGE_CURVE('',#428,#428,#461,.T.);
#372=EDGE_CURVE('',#429,#429,#462,.T.);
#373=EDGE_CURVE('',#430,#430,#463,.T.);
#374=EDGE_CURVE('',#431,#431,#464,.T.);
#375=EDGE_CURVE('',#432,#432,#465,.T.);
#376=VERTEX_POINT('',#914);
#377=VERTEX_POINT('',#915);
#378=VERTEX_POINT('',#917);
#379=VERTEX_POINT('',#919);
#380=VERTEX_POINT('',#923);
#381=VERTEX_POINT('',#924);
#382=VERTEX_POINT('',#926);
#383=VERTEX_POINT('',#928);
#384=VERTEX_POINT('',#932);
#385=VERTEX_POINT('',#933);
#386=VERTEX_POINT('',#935);
#387=VERTEX_POINT('',#937);
#388=VERTEX_POINT('',#941);
#389=VERTEX_POINT('',#942);
#390=VERTEX_POINT('',#944);
#391=VERTEX_POINT('',#946);
#392=VERTEX_POINT('',#950);
#393=VERTEX_POINT('',#951);
#394=VERTEX_POINT('',#953);
#395=VERTEX_POINT('',#955);
#396=VERTEX_POINT('',#959);
#397=VERTEX_POINT('',#960);
#398=VERTEX_POINT('',#962);
#399=VERTEX_POINT('',#964);
#400=VERTEX_POINT('',#968);
#401=VERTEX_POINT('',#969);
#402=VERTEX_POINT('',#971);
#403=VERTEX_POINT('',#973);
#404=VERTEX_POINT('',#977);
#405=VERTEX_POINT('',#978);
#406=VERTEX_POINT('',#980);
#407=VERTEX_POINT('',#982);
#408=VERTEX_POINT('',#986);
#409=VERTEX_POINT('',#987);
#410=VERTEX_POINT('',#989);
#411=VERTEX_POINT('',#991);
#412=VERTEX_POINT('',#995);
#413=VERTEX_POINT('',#996);
#414=VERTEX_POINT('',#998);
#415=VERTEX_POINT('',#1000);
#416=VERTEX_POINT('',#1004);
#417=VERTEX_POINT('',#1005);
#418=VERTEX_POINT('',#1007);
#419=VERTEX_POINT('',#1009);
#420=VERTEX_POINT('',#1028);
#421=VERTEX_POINT('',#1030);
#422=VERTEX_POINT('',#1041);
#423=VERTEX_POINT('',#1043);
#424=VERTEX_POINT('',#1048);
#425=VERTEX_POINT('',#1051);
#426=VERTEX_POINT('',#1054);
#427=VERTEX_POINT('',#1056);
#428=VERTEX_POINT('',#1063);
#429=VERTEX_POINT('',#1065);
#430=VERTEX_POINT('',#1081);
#431=VERTEX_POINT('',#1085);
#432=VERTEX_POINT('',#1087);
#433=CIRCLE('',#643,0.072543169476831);
#434=CIRCLE('',#644,0.072543169476831);
#435=CIRCLE('',#646,0.072543169476831);
#436=CIRCLE('',#647,0.072543169476831);
#437=CIRCLE('',#649,0.072543169476831);
#438=CIRCLE('',#650,0.072543169476831);
#439=CIRCLE('',#652,0.072543169476831);
#440=CIRCLE('',#653,0.072543169476831);
#441=CIRCLE('',#655,0.072543169476831);
#442=CIRCLE('',#656,0.072543169476831);
#443=CIRCLE('',#658,0.118851222446664);
#444=CIRCLE('',#659,0.118851222446664);
#445=CIRCLE('',#661,0.118851222446664);
#446=CIRCLE('',#662,0.118851222446664);
#447=CIRCLE('',#664,0.118851222446664);
#448=CIRCLE('',#665,0.118851222446664);
#449=CIRCLE('',#667,0.118851222446664);
#450=CIRCLE('',#668,0.118851222446664);
#451=CIRCLE('',#670,0.118851222446664);
#452=CIRCLE('',#671,0.118851222446664);
#453=CIRCLE('',#673,0.118851222446664);
#454=CIRCLE('',#674,0.118851222446664);
#455=CIRCLE('',#681,0.12065);
#456=CIRCLE('',#682,0.12065);
#457=CIRCLE('',#684,0.072543169476831);
#458=CIRCLE('',#685,0.06985);
#459=CIRCLE('',#687,0.0679489951031446);
#460=CIRCLE('',#689,0.072543169476831);
#461=CIRCLE('',#692,0.0254);
#462=CIRCLE('',#693,0.06985);
#463=CIRCLE('',#708,0.0254);
#464=CIRCLE('',#711,0.0715410975515723);
#465=CIRCLE('',#712,0.119162102448428);
#466=EDGE_LOOP('',(#133,#134,#135,#136));
#467=EDGE_LOOP('',(#137,#138,#139,#140));
#468=EDGE_LOOP('',(#141,#142,#143,#144));
#469=EDGE_LOOP('',(#145,#146,#147,#148));
#470=EDGE_LOOP('',(#149,#150,#151,#152));
#471=EDGE_LOOP('',(#153,#154,#155,#156));
#472=EDGE_LOOP('',(#157,#158,#159,#160));
#473=EDGE_LOOP('',(#161,#162,#163,#164));
#474=EDGE_LOOP('',(#165,#166,#167,#168));
#475=EDGE_LOOP('',(#169,#170,#171,#172));
#476=EDGE_LOOP('',(#173,#174,#175,#176));
#477=EDGE_LOOP('',(#177,#178,#179,#180));
#478=EDGE_LOOP('',(#181,#182,#183,#184));
#479=EDGE_LOOP('',(#185,#186,#187,#188));
#480=EDGE_LOOP('',(#189,#190,#191,#192));
#481=EDGE_LOOP('',(#193,#194,#195,#196));
#482=EDGE_LOOP('',(#197));
#483=EDGE_LOOP('',(#198));
#484=EDGE_LOOP('',(#199,#200,#201,#202));
#485=EDGE_LOOP('',(#203,#204,#205,#206));
#486=EDGE_LOOP('',(#207,#208,#209,#210));
#487=EDGE_LOOP('',(#211,#212,#213,#214));
#488=EDGE_LOOP('',(#215,#216,#217,#218));
#489=EDGE_LOOP('',(#219,#220,#221,#222));
#490=EDGE_LOOP('',(#223));
#491=EDGE_LOOP('',(#224));
#492=EDGE_LOOP('',(#225));
#493=EDGE_LOOP('',(#226,#227,#228,#229));
#494=EDGE_LOOP('',(#230,#231,#232,#233));
#495=EDGE_LOOP('',(#234));
#496=EDGE_LOOP('',(#235));
#497=EDGE_LOOP('',(#236));
#498=EDGE_LOOP('',(#237));
#499=EDGE_LOOP('',(#238,#239,#240,#241));
#500=EDGE_LOOP('',(#242,#243,#244,#245));
#501=EDGE_LOOP('',(#246,#247,#248,#249));
#502=EDGE_LOOP('',(#250,#251,#252,#253));
#503=EDGE_LOOP('',(#254,#255,#256,#257));
#504=EDGE_LOOP('',(#258,#259,#260,#261));
#505=EDGE_LOOP('',(#262,#263,#264,#265));
#506=EDGE_LOOP('',(#266,#267,#268,#269));
#507=EDGE_LOOP('',(#270,#271,#272,#273));
#508=EDGE_LOOP('',(#274,#275,#276,#277));
#509=EDGE_LOOP('',(#278,#279,#280,#281));
#510=EDGE_LOOP('',(#282,#283,#284,#285));
#511=EDGE_LOOP('',(#286));
#512=EDGE_LOOP('',(#287));
#513=EDGE_LOOP('',(#288));
#514=EDGE_LOOP('',(#289));
#515=EDGE_LOOP('',(#290));
#516=EDGE_LOOP('',(#291));
#517=EDGE_LOOP('',(#292));
#518=EDGE_LOOP('',(#293));
#519=EDGE_LOOP('',(#294));
#520=FACE_BOUND('',#466,.T.);
#521=FACE_BOUND('',#467,.T.);
#522=FACE_BOUND('',#468,.T.);
#523=FACE_BOUND('',#469,.T.);
#524=FACE_BOUND('',#470,.T.);
#525=FACE_BOUND('',#471,.T.);
#526=FACE_BOUND('',#472,.T.);
#527=FACE_BOUND('',#473,.T.);
#528=FACE_BOUND('',#474,.T.);
#529=FACE_BOUND('',#475,.T.);
#530=FACE_BOUND('',#476,.T.);
#531=FACE_BOUND('',#477,.T.);
#532=FACE_BOUND('',#478,.T.);
#533=FACE_BOUND('',#479,.T.);
#534=FACE_BOUND('',#480,.T.);
#535=FACE_BOUND('',#481,.T.);
#536=FACE_BOUND('',#482,.T.);
#537=FACE_BOUND('',#483,.T.);
#538=FACE_BOUND('',#484,.T.);
#539=FACE_BOUND('',#485,.T.);
#540=FACE_BOUND('',#486,.T.);
#541=FACE_BOUND('',#487,.T.);
#542=FACE_BOUND('',#488,.T.);
#543=FACE_BOUND('',#489,.T.);
#544=FACE_BOUND('',#490,.T.);
#545=FACE_BOUND('',#491,.T.);
#546=FACE_BOUND('',#492,.T.);
#547=FACE_BOUND('',#493,.T.);
#548=FACE_BOUND('',#494,.T.);
#549=FACE_BOUND('',#495,.T.);
#550=FACE_BOUND('',#496,.T.);
#551=FACE_BOUND('',#497,.T.);
#552=FACE_BOUND('',#498,.T.);
#553=FACE_BOUND('',#499,.T.);
#554=FACE_BOUND('',#500,.T.);
#555=FACE_BOUND('',#501,.T.);
#556=FACE_BOUND('',#502,.T.);
#557=FACE_BOUND('',#503,.T.);
#558=FACE_BOUND('',#504,.T.);
#559=FACE_BOUND('',#505,.T.);
#560=FACE_BOUND('',#506,.T.);
#561=FACE_BOUND('',#507,.T.);
#562=FACE_BOUND('',#508,.T.);
#563=FACE_BOUND('',#509,.T.);
#564=FACE_BOUND('',#510,.T.);
#565=FACE_BOUND('',#511,.T.);
#566=FACE_BOUND('',#512,.T.);
#567=FACE_BOUND('',#513,.T.);
#568=FACE_BOUND('',#514,.T.);
#569=FACE_BOUND('',#515,.T.);
#570=FACE_BOUND('',#516,.T.);
#571=FACE_BOUND('',#517,.T.);
#572=FACE_BOUND('',#518,.T.);
#573=FACE_BOUND('',#519,.T.);
#574=CYLINDRICAL_SURFACE('',#642,0.072543169476831);
#575=CYLINDRICAL_SURFACE('',#645,0.072543169476831);
#576=CYLINDRICAL_SURFACE('',#648,0.072543169476831);
#577=CYLINDRICAL_SURFACE('',#651,0.072543169476831);
#578=CYLINDRICAL_SURFACE('',#654,0.072543169476831);
#579=CYLINDRICAL_SURFACE('',#657,0.118851222446664);
#580=CYLINDRICAL_SURFACE('',#660,0.118851222446664);
#581=CYLINDRICAL_SURFACE('',#663,0.118851222446664);
#582=CYLINDRICAL_SURFACE('',#666,0.118851222446664);
#583=CYLINDRICAL_SURFACE('',#669,0.118851222446664);
#584=CYLINDRICAL_SURFACE('',#672,0.118851222446664);
#585=CYLINDRICAL_SURFACE('',#680,0.12065);
#586=CYLINDRICAL_SURFACE('',#688,0.072543169476831);
#587=CYLINDRICAL_SURFACE('',#694,0.06985);
#588=CYLINDRICAL_SURFACE('',#707,0.0254);
#589=ADVANCED_FACE('',(#520),#574,.T.);
#590=ADVANCED_FACE('',(#521),#575,.T.);
#591=ADVANCED_FACE('',(#522),#576,.T.);
#592=ADVANCED_FACE('',(#523),#577,.T.);
#593=ADVANCED_FACE('',(#524),#578,.T.);
#594=ADVANCED_FACE('',(#525),#579,.F.);
#595=ADVANCED_FACE('',(#526),#580,.F.);
#596=ADVANCED_FACE('',(#527),#581,.F.);
#597=ADVANCED_FACE('',(#528),#582,.F.);
#598=ADVANCED_FACE('',(#529),#583,.F.);
#599=ADVANCED_FACE('',(#530),#584,.F.);
#600=ADVANCED_FACE('',(#531),#15,.T.);
#601=ADVANCED_FACE('',(#532),#16,.T.);
#602=ADVANCED_FACE('',(#533),#17,.T.);
#603=ADVANCED_FACE('',(#534),#18,.T.);
#604=ADVANCED_FACE('',(#535),#19,.T.);
#605=ADVANCED_FACE('',(#536,#537),#585,.T.);
#606=ADVANCED_FACE('',(#538,#539,#540,#541,#542,#543,#544,#545),#20,.T.);
#607=ADVANCED_FACE('',(#546),#21,.T.);
#608=ADVANCED_FACE('',(#547),#586,.T.);
#609=ADVANCED_FACE('',(#548),#22,.T.);
#610=ADVANCED_FACE('',(#549,#550),#23,.T.);
#611=ADVANCED_FACE('',(#551,#552),#587,.T.);
#612=ADVANCED_FACE('',(#553),#24,.T.);
#613=ADVANCED_FACE('',(#554),#25,.F.);
#614=ADVANCED_FACE('',(#555),#26,.T.);
#615=ADVANCED_FACE('',(#556),#27,.F.);
#616=ADVANCED_FACE('',(#557),#28,.T.);
#617=ADVANCED_FACE('',(#558),#29,.F.);
#618=ADVANCED_FACE('',(#559),#30,.T.);
#619=ADVANCED_FACE('',(#560),#31,.F.);
#620=ADVANCED_FACE('',(#561),#32,.T.);
#621=ADVANCED_FACE('',(#562),#33,.F.);
#622=ADVANCED_FACE('',(#563),#34,.T.);
#623=ADVANCED_FACE('',(#564),#35,.F.);
#624=ADVANCED_FACE('',(#565,#566),#588,.F.);
#625=ADVANCED_FACE('',(#567),#36,.T.);
#626=ADVANCED_FACE('',(#568,#569),#14,.T.);
#627=ADVANCED_FACE('',(#570,#571),#12,.T.);
#628=ADVANCED_FACE('',(#572,#573),#13,.T.);
#629=CLOSED_SHELL('',(#589,#590,#591,#592,#593,#594,#595,#596,#597,#598,
#599,#600,#601,#602,#603,#604,#605,#606,#607,#608,#609,#610,#611,#612,#613,
#614,#615,#616,#617,#618,#619,#620,#621,#622,#623,#624,#625,#626,#627,#628));
#630=STYLED_ITEM('',(#631),#638);
#631=PRESENTATION_STYLE_ASSIGNMENT((#632));
#632=SURFACE_STYLE_USAGE(.BOTH.,#633);
#633=SURFACE_SIDE_STYLE('',(#634));
#634=SURFACE_STYLE_FILL_AREA(#635);
#635=FILL_AREA_STYLE('',(#636));
#636=FILL_AREA_STYLE_COLOUR('',#637);
#637=COLOUR_RGB('',0.615686274509804,0.811764705882353,0.929411764705882);
#638=MANIFOLD_SOLID_BREP('Part 1',#629);
#639=SHAPE_DEFINITION_REPRESENTATION(#1096,#640);
#640=SHAPE_REPRESENTATION('Part 1',(#641),#1091);
#641=AXIS2_PLACEMENT_3D('',#911,#715,#716);
#642=AXIS2_PLACEMENT_3D('',#912,#717,#718);
#643=AXIS2_PLACEMENT_3D('',#913,#719,#720);
#644=AXIS2_PLACEMENT_3D('',#918,#722,#723);
#645=AXIS2_PLACEMENT_3D('',#921,#725,#726);
#646=AXIS2_PLACEMENT_3D('',#925,#728,#729);
#647=AXIS2_PLACEMENT_3D('',#929,#731,#732);
#648=AXIS2_PLACEMENT_3D('',#930,#733,#734);
#649=AXIS2_PLACEMENT_3D('',#934,#736,#737);
#650=AXIS2_PLACEMENT_3D('',#938,#739,#740);
#651=AXIS2_PLACEMENT_3D('',#939,#741,#742);
#652=AXIS2_PLACEMENT_3D('',#943,#744,#745);
#653=AXIS2_PLACEMENT_3D('',#947,#747,#748);
#654=AXIS2_PLACEMENT_3D('',#948,#749,#750);
#655=AXIS2_PLACEMENT_3D('',#952,#752,#753);
#656=AXIS2_PLACEMENT_3D('',#956,#755,#756);
#657=AXIS2_PLACEMENT_3D('',#957,#757,#758);
#658=AXIS2_PLACEMENT_3D('',#961,#760,#761);
#659=AXIS2_PLACEMENT_3D('',#965,#763,#764);
#660=AXIS2_PLACEMENT_3D('',#966,#765,#766);
#661=AXIS2_PLACEMENT_3D('',#967,#767,#768);
#662=AXIS2_PLACEMENT_3D('',#972,#770,#771);
#663=AXIS2_PLACEMENT_3D('',#975,#773,#774);
#664=AXIS2_PLACEMENT_3D('',#976,#775,#776);
#665=AXIS2_PLACEMENT_3D('',#981,#778,#779);
#666=AXIS2_PLACEMENT_3D('',#984,#781,#782);
#667=AXIS2_PLACEMENT_3D('',#985,#783,#784);
#668=AXIS2_PLACEMENT_3D('',#990,#786,#787);
#669=AXIS2_PLACEMENT_3D('',#993,#789,#790);
#670=AXIS2_PLACEMENT_3D('',#994,#791,#792);
#671=AXIS2_PLACEMENT_3D('',#999,#794,#795);
#672=AXIS2_PLACEMENT_3D('',#1002,#797,#798);
#673=AXIS2_PLACEMENT_3D('',#1003,#799,#800);
#674=AXIS2_PLACEMENT_3D('',#1008,#802,#803);
#675=AXIS2_PLACEMENT_3D('',#1011,#805,#806);
#676=AXIS2_PLACEMENT_3D('',#1014,#809,#810);
#677=AXIS2_PLACEMENT_3D('',#1017,#813,#814);
#678=AXIS2_PLACEMENT_3D('',#1020,#817,#818);
#679=AXIS2_PLACEMENT_3D('',#1023,#821,#822);
#680=AXIS2_PLACEMENT_3D('',#1026,#825,#826);
#681=AXIS2_PLACEMENT_3D('',#1027,#827,#828);
#682=AXIS2_PLACEMENT_3D('',#1029,#829,#830);
#683=AXIS2_PLACEMENT_3D('',#1031,#831,#832);
#684=AXIS2_PLACEMENT_3D('',#1042,#842,#843);
#685=AXIS2_PLACEMENT_3D('',#1047,#847,#848);
#686=AXIS2_PLACEMENT_3D('',#1049,#849,#850);
#687=AXIS2_PLACEMENT_3D('',#1050,#851,#852);
#688=AXIS2_PLACEMENT_3D('',#1052,#853,#854);
#689=AXIS2_PLACEMENT_3D('',#1055,#856,#857);
#690=AXIS2_PLACEMENT_3D('',#1058,#859,#860);
#691=AXIS2_PLACEMENT_3D('',#1061,#863,#864);
#692=AXIS2_PLACEMENT_3D('',#1062,#865,#866);
#693=AXIS2_PLACEMENT_3D('',#1064,#867,#868);
#694=AXIS2_PLACEMENT_3D('',#1066,#869,#870);
#695=AXIS2_PLACEMENT_3D('',#1067,#871,#872);
#696=AXIS2_PLACEMENT_3D('',#1068,#873,#874);
#697=AXIS2_PLACEMENT_3D('',#1069,#875,#876);
#698=AXIS2_PLACEMENT_3D('',#1070,#877,#878);
#699=AXIS2_PLACEMENT_3D('',#1071,#879,#880);
#700=AXIS2_PLACEMENT_3D('',#1072,#881,#882);
#701=AXIS2_PLACEMENT_3D('',#1073,#883,#884);
#702=AXIS2_PLACEMENT_3D('',#1074,#885,#886);
#703=AXIS2_PLACEMENT_3D('',#1075,#887,#888);
#704=AXIS2_PLACEMENT_3D('',#1076,#889,#890);
#705=AXIS2_PLACEMENT_3D('',#1077,#891,#892);
#706=AXIS2_PLACEMENT_3D('',#1078,#893,#894);
#707=AXIS2_PLACEMENT_3D('',#1079,#895,#896);
#708=AXIS2_PLACEMENT_3D('',#1080,#897,#898);
#709=AXIS2_PLACEMENT_3D('',#1082,#899,#900);
#710=AXIS2_PLACEMENT_3D('',#1083,#901,#902);
#711=AXIS2_PLACEMENT_3D('',#1084,#903,#904);
#712=AXIS2_PLACEMENT_3D('',#1086,#905,#906);
#713=AXIS2_PLACEMENT_3D('',#1088,#907,#908);
#714=AXIS2_PLACEMENT_3D('',#1089,#909,#910);
#715=DIRECTION('',(0.,0.,1.));
#716=DIRECTION('',(1.,0.,0.));
#717=DIRECTION('',(0.,0.,1.));
#718=DIRECTION('',(1.,0.,0.));
#719=DIRECTION('',(0.,0.,1.));
#720=DIRECTION('',(1.,0.,0.));
#721=DIRECTION('',(0.,0.,1.));
#722=DIRECTION('',(0.,0.,1.));
#723=DIRECTION('',(1.,0.,0.));
#724=DIRECTION('',(0.,0.,1.));
#725=DIRECTION('',(0.,0.,1.));
#726=DIRECTION('',(1.,0.,0.));
#727=DIRECTION('',(0.,0.,1.));
#728=DIRECTION('',(0.,0.,1.));
#729=DIRECTION('',(1.,0.,0.));
#730=DIRECTION('',(0.,0.,1.));
#731=DIRECTION('',(0.,0.,1.));
#732=DIRECTION('',(1.,0.,0.));
#733=DIRECTION('',(0.,0.,1.));
#734=DIRECTION('',(1.,0.,0.));
#735=DIRECTION('',(0.,0.,1.));
#736=DIRECTION('',(0.,0.,1.));
#737=DIRECTION('',(1.,0.,0.));
#738=DIRECTION('',(0.,0.,1.));
#739=DIRECTION('',(0.,0.,1.));
#740=DIRECTION('',(1.,0.,0.));
#741=DIRECTION('',(0.,0.,1.));
#742=DIRECTION('',(1.,0.,0.));
#743=DIRECTION('',(0.,0.,1.));
#744=DIRECTION('',(0.,0.,1.));
#745=DIRECTION('',(1.,0.,0.));
#746=DIRECTION('',(0.,0.,1.));
#747=DIRECTION('',(0.,0.,1.));
#748=DIRECTION('',(1.,0.,0.));
#749=DIRECTION('',(0.,0.,1.));
#750=DIRECTION('',(1.,0.,0.));
#751=DIRECTION('',(0.,0.,1.));
#752=DIRECTION('',(0.,0.,1.));
#753=DIRECTION('',(1.,0.,0.));
#754=DIRECTION('',(0.,0.,1.));
#755=DIRECTION('',(0.,0.,1.));
#756=DIRECTION('',(1.,0.,0.));
#757=DIRECTION('',(0.,0.,1.));
#758=DIRECTION('',(1.,0.,0.));
#759=DIRECTION('',(0.,0.,1.));
#760=DIRECTION('',(0.,0.,1.));
#761=DIRECTION('',(1.,0.,0.));
#762=DIRECTION('',(0.,0.,1.));
#763=DIRECTION('',(0.,0.,1.));
#764=DIRECTION('',(1.,0.,0.));
#765=DIRECTION('',(0.,0.,1.));
#766=DIRECTION('',(1.,0.,0.));
#767=DIRECTION('',(0.,0.,1.));
#768=DIRECTION('',(1.,0.,0.));
#769=DIRECTION('',(0.,0.,1.));
#770=DIRECTION('',(0.,0.,1.));
#771=DIRECTION('',(1.,0.,0.));
#772=DIRECTION('',(0.,0.,1.));
#773=DIRECTION('',(0.,0.,1.));
#774=DIRECTION('',(1.,0.,0.));
#775=DIRECTION('',(0.,0.,1.));
#776=DIRECTION('',(1.,0.,0.));
#777=DIRECTION('',(0.,0.,1.));
#778=DIRECTION('',(0.,0.,1.));
#779=DIRECTION('',(1.,0.,0.));
#780=DIRECTION('',(0.,0.,1.));
#781=DIRECTION('',(0.,0.,1.));
#782=DIRECTION('',(1.,0.,0.));
#783=DIRECTION('',(0.,0.,1.));
#784=DIRECTION('',(1.,0.,0.));
#785=DIRECTION('',(0.,0.,1.));
#786=DIRECTION('',(0.,0.,1.));
#787=DIRECTION('',(1.,0.,0.));
#788=DIRECTION('',(0.,0.,1.));
#789=DIRECTION('',(0.,0.,1.));
#790=DIRECTION('',(1.,0.,0.));
#791=DIRECTION('',(0.,0.,1.));
#792=DIRECTION('',(1.,0.,0.));
#793=DIRECTION('',(0.,0.,1.));
#794=DIRECTION('',(0.,0.,1.));
#795=DIRECTION('',(1.,0.,0.));
#796=DIRECTION('',(0.,0.,1.));
#797=DIRECTION('',(0.,0.,1.));
#798=DIRECTION('',(1.,0.,0.));
#799=DIRECTION('',(0.,0.,1.));
#800=DIRECTION('',(1.,0.,0.));
#801=DIRECTION('',(0.,0.,1.));
#802=DIRECTION('',(0.,0.,1.));
#803=DIRECTION('',(1.,0.,0.));
#804=DIRECTION('',(0.,0.,1.));
#805=DIRECTION('',(0.,0.,1.));
#806=DIRECTION('',(1.,0.,0.));
#807=DIRECTION('',(0.,-1.,0.));
#808=DIRECTION('',(-0.866025403784439,-0.5,0.));
#809=DIRECTION('',(0.,0.,1.));
#810=DIRECTION('',(1.,0.,0.));
#811=DIRECTION('',(0.,-1.,0.));
#812=DIRECTION('',(0.866025403784439,-0.5,0.));
#813=DIRECTION('',(0.,0.,1.));
#814=DIRECTION('',(1.,0.,0.));
#815=DIRECTION('',(0.866025403784439,-0.5,0.));
#816=DIRECTION('',(0.866025403784438,0.5,0.));
#817=DIRECTION('',(0.,0.,1.));
#818=DIRECTION('',(1.,0.,0.));
#819=DIRECTION('',(0.866025403784438,0.5,0.));
#820=DIRECTION('',(-1.22464679914735E-16,1.,0.));
#821=DIRECTION('',(0.,0.,1.));
#822=DIRECTION('',(1.,0.,0.));
#823=DIRECTION('',(-1.22464679914735E-16,1.,0.));
#824=DIRECTION('',(-0.866025403784439,0.5,0.));
#825=DIRECTION('',(0.,0.,-1.));
#826=DIRECTION('',(-1.,0.,0.));
#827=DIRECTION('',(0.,0.,-1.));
#828=DIRECTION('',(-1.,0.,0.));
#829=DIRECTION('',(0.,0.,1.));
#830=DIRECTION('',(1.,0.,0.));
#831=DIRECTION('',(0.,0.,1.));
#832=DIRECTION('',(1.,0.,0.));
#833=DIRECTION('',(0.,-1.,0.));
#834=DIRECTION('',(0.866025403784439,-0.5,0.));
#835=DIRECTION('',(0.866025403784439,-0.5,0.));
#836=DIRECTION('',(0.866025403784438,0.5,0.));
#837=DIRECTION('',(0.866025403784438,0.5,0.));
#838=DIRECTION('',(-1.22464679914735E-16,1.,0.));
#839=DIRECTION('',(-1.22464679914735E-16,1.,0.));
#840=DIRECTION('',(-0.866025403784439,0.5,0.));
#841=DIRECTION('',(-0.866025403784439,0.5,0.));
#842=DIRECTION('',(0.,0.,1.));
#843=DIRECTION('',(1.,0.,0.));
#844=DIRECTION('',(-0.866025403784439,-0.5,0.));
#845=DIRECTION('',(-0.866025403784439,-0.5,0.));
#846=DIRECTION('',(0.,-1.,0.));
#847=DIRECTION('',(0.,0.,1.));
#848=DIRECTION('',(1.,0.,0.));
#849=DIRECTION('',(0.,0.,-1.));
#850=DIRECTION('',(1.,0.,0.));
#851=DIRECTION('',(0.,0.,-1.));
#852=DIRECTION('',(-1.,0.,0.));
#853=DIRECTION('',(0.,0.,1.));
#854=DIRECTION('',(1.,0.,0.));
#855=DIRECTION('',(0.,0.,1.));
#856=DIRECTION('',(0.,0.,1.));
#857=DIRECTION('',(1.,0.,0.));
#858=DIRECTION('',(0.,0.,1.));
#859=DIRECTION('',(0.,0.,1.));
#860=DIRECTION('',(1.,0.,0.));
#861=DIRECTION('',(-0.866025403784439,0.5,0.));
#862=DIRECTION('',(-0.866025403784439,-0.5,0.));
#863=DIRECTION('',(0.,0.,1.));
#864=DIRECTION('',(1.,0.,0.));
#865=DIRECTION('',(0.,0.,1.));
#866=DIRECTION('',(1.,0.,0.));
#867=DIRECTION('',(0.,0.,1.));
#868=DIRECTION('',(1.,0.,0.));
#869=DIRECTION('',(0.,0.,-1.));
#870=DIRECTION('',(-1.,0.,0.));
#871=DIRECTION('',(-0.5,0.866025403784439,0.));
#872=DIRECTION('',(0.,0.,1.));
#873=DIRECTION('',(-0.5,0.866025403784439,0.));
#874=DIRECTION('',(0.,0.,1.));
#875=DIRECTION('',(0.5,0.866025403784439,0.));
#876=DIRECTION('',(0.,0.,1.));
#877=DIRECTION('',(0.5,0.866025403784439,0.));
#878=DIRECTION('',(0.,0.,1.));
#879=DIRECTION('',(1.,1.22464679914735E-16,0.));
#880=DIRECTION('',(0.,0.,1.));
#881=DIRECTION('',(1.,1.22464679914735E-16,0.));
#882=DIRECTION('',(0.,0.,1.));
#883=DIRECTION('',(0.5,-0.866025403784438,0.));
#884=DIRECTION('',(0.,0.,1.));
#885=DIRECTION('',(0.5,-0.866025403784438,0.));
#886=DIRECTION('',(0.,0.,1.));
#887=DIRECTION('',(-0.5,-0.866025403784439,0.));
#888=DIRECTION('',(0.,0.,1.));
#889=DIRECTION('',(-0.5,-0.866025403784439,0.));
#890=DIRECTION('',(0.,0.,1.));
#891=DIRECTION('',(-1.,0.,0.));
#892=DIRECTION('',(0.,0.,1.));
#893=DIRECTION('',(-1.,0.,0.));
#894=DIRECTION('',(0.,0.,1.));
#895=DIRECTION('',(0.,0.,1.));
#896=DIRECTION('',(1.,0.,0.));
#897=DIRECTION('',(0.,0.,1.));
#898=DIRECTION('',(1.,0.,0.));
#899=DIRECTION('',(0.,0.,1.));
#900=DIRECTION('',(1.,0.,0.));
#901=DIRECTION('',(0.,0.,1.));
#902=DIRECTION('',(1.,0.,0.));
#903=DIRECTION('',(0.,0.,1.));
#904=DIRECTION('',(1.,0.,0.));
#905=DIRECTION('',(0.,0.,-1.));
#906=DIRECTION('',(-1.,0.,0.));
#907=DIRECTION('',(0.,0.,-1.));
#908=DIRECTION('',(-1.,0.,0.));
#909=DIRECTION('',(0.,0.,-1.));
#910=DIRECTION('',(-1.,0.,0.));
#911=CARTESIAN_POINT('',(0.,0.,0.));
#912=CARTESIAN_POINT('',(0.,8.71906696101239E-18,0.00635));
#913=CARTESIAN_POINT('',(0.,8.71906696101239E-18,0.00635));
#914=CARTESIAN_POINT('',(0.0621795994439841,0.037365878160829,0.00635));
#915=CARTESIAN_POINT('',(0.00127,0.0725320517960455,0.00635));
#916=CARTESIAN_POINT('',(0.00127,0.0725320517960455,0.00635));
#917=CARTESIAN_POINT('',(0.00127,0.0725320517960455,0.0635));
#918=CARTESIAN_POINT('',(0.,8.71906696101239E-18,0.0635));
#919=CARTESIAN_POINT('',(0.0621795994439841,0.037365878160829,0.0635));
#920=CARTESIAN_POINT('',(0.0621795994439841,0.037365878160829,0.00635));
#921=CARTESIAN_POINT('',(0.,8.71906696101239E-18,0.00635));
#922=CARTESIAN_POINT('',(-0.00127,0.0725320517960455,0.00635));
#923=CARTESIAN_POINT('',(-0.00127,0.0725320517960455,0.00635));
#924=CARTESIAN_POINT('',(-0.00127,0.0725320517960455,0.0635));
#925=CARTESIAN_POINT('',(0.,8.71906696101239E-18,0.00635));
#926=CARTESIAN_POINT('',(-0.0621795994439842,0.037365878160829,0.00635));
#927=CARTESIAN_POINT('',(-0.0621795994439842,0.037365878160829,0.00635));
#928=CARTESIAN_POINT('',(-0.0621795994439842,0.037365878160829,0.0635));
#929=CARTESIAN_POINT('',(0.,8.71906696101239E-18,0.0635));
#930=CARTESIAN_POINT('',(0.,8.71906696101239E-18,0.00635));
#931=CARTESIAN_POINT('',(-0.0634495994439842,0.0351661736352165,0.00635));
#932=CARTESIAN_POINT('',(-0.0634495994439842,0.0351661736352165,0.00635));
#933=CARTESIAN_POINT('',(-0.0634495994439842,0.0351661736352165,0.0635));
#934=CARTESIAN_POINT('',(0.,8.71906696101239E-18,0.00635));
#935=CARTESIAN_POINT('',(-0.0634495994439841,-0.0351661736352166,0.00635));
#936=CARTESIAN_POINT('',(-0.0634495994439841,-0.0351661736352166,0.00635));
#937=CARTESIAN_POINT('',(-0.0634495994439841,-0.0351661736352166,0.0635));
#938=CARTESIAN_POINT('',(0.,8.71906696101239E-18,0.0635));
#939=CARTESIAN_POINT('',(0.,8.71906696101239E-18,0.00635));
#940=CARTESIAN_POINT('',(-0.0621795994439841,-0.037365878160829,0.00635));
#941=CARTESIAN_POINT('',(-0.0621795994439841,-0.037365878160829,0.00635));
#942=CARTESIAN_POINT('',(-0.0621795994439841,-0.037365878160829,0.0635));
#943=CARTESIAN_POINT('',(0.,8.71906696101239E-18,0.00635));
#944=CARTESIAN_POINT('',(-0.00127,-0.0725320517960455,0.00635));
#945=CARTESIAN_POINT('',(-0.00127,-0.0725320517960455,0.00635));
#946=CARTESIAN_POINT('',(-0.00127,-0.0725320517960455,0.0635));
#947=CARTESIAN_POINT('',(0.,8.71906696101239E-18,0.0635));
#948=CARTESIAN_POINT('',(0.,8.71906696101239E-18,0.00635));
#949=CARTESIAN_POINT('',(0.00127,-0.0725320517960455,0.00635));
#950=CARTESIAN_POINT('',(0.00127,-0.0725320517960455,0.00635));
#951=CARTESIAN_POINT('',(0.00127,-0.0725320517960455,0.0635));
#952=CARTESIAN_POINT('',(0.,8.71906696101239E-18,0.00635));
#953=CARTESIAN_POINT('',(0.0621795994439842,-0.037365878160829,0.00635));
#954=CARTESIAN_POINT('',(0.0621795994439841,-0.037365878160829,0.00635));
#955=CARTESIAN_POINT('',(0.0621795994439842,-0.037365878160829,0.0635));
#956=CARTESIAN_POINT('',(0.,8.71906696101239E-18,0.0635));
#957=CARTESIAN_POINT('',(0.,1.1554617403225E-17,0.00635));
#958=CARTESIAN_POINT('',(0.00127,0.118844436878915,0.));
#959=CARTESIAN_POINT('',(0.00127,0.118844436878915,0.00635));
#960=CARTESIAN_POINT('',(0.00127,0.118844436878915,0.0635));
#961=CARTESIAN_POINT('',(0.,1.1554617403225E-17,0.00635));
#962=CARTESIAN_POINT('',(0.102287301435597,0.0605220707022639,0.00635));
#963=CARTESIAN_POINT('',(0.102287301435597,0.0605220707022639,0.));
#964=CARTESIAN_POINT('',(0.102287301435597,0.0605220707022639,0.0635));
#965=CARTESIAN_POINT('',(0.,1.1554617403225E-17,0.0635));
#966=CARTESIAN_POINT('',(0.,1.1554617403225E-17,0.00635));
#967=CARTESIAN_POINT('',(0.,1.1554617403225E-17,0.00635));
#968=CARTESIAN_POINT('',(-0.00127,0.118844436878915,0.00635));
#969=CARTESIAN_POINT('',(-0.102287301435597,0.0605220707022638,0.00635));
#970=CARTESIAN_POINT('',(-0.00127,0.118844436878915,0.));
#971=CARTESIAN_POINT('',(-0.00127,0.118844436878915,0.0635));
#972=CARTESIAN_POINT('',(0.,1.1554617403225E-17,0.0635));
#973=CARTESIAN_POINT('',(-0.102287301435597,0.0605220707022638,0.0635));
#974=CARTESIAN_POINT('',(-0.102287301435597,0.0605220707022638,0.));
#975=CARTESIAN_POINT('',(0.,1.1554617403225E-17,0.00635));
#976=CARTESIAN_POINT('',(0.,1.1554617403225E-17,0.00635));
#977=CARTESIAN_POINT('',(-0.103557301435597,0.0583223661766514,0.00635));
#978=CARTESIAN_POINT('',(-0.103557301435597,-0.0583223661766515,0.00635));
#979=CARTESIAN_POINT('',(-0.103557301435597,0.0583223661766514,0.));
#980=CARTESIAN_POINT('',(-0.103557301435597,0.0583223661766514,0.0635));
#981=CARTESIAN_POINT('',(0.,1.1554617403225E-17,0.0635));
#982=CARTESIAN_POINT('',(-0.103557301435597,-0.0583223661766515,0.0635));
#983=CARTESIAN_POINT('',(-0.103557301435597,-0.0583223661766515,0.));
#984=CARTESIAN_POINT('',(0.,1.1554617403225E-17,0.00635));
#985=CARTESIAN_POINT('',(0.,1.1554617403225E-17,0.00635));
#986=CARTESIAN_POINT('',(-0.102287301435597,-0.060522070702264,0.00635));
#987=CARTESIAN_POINT('',(-0.00126999999999999,-0.118844436878915,0.00635));
#988=CARTESIAN_POINT('',(-0.102287301435597,-0.060522070702264,0.));
#989=CARTESIAN_POINT('',(-0.102287301435597,-0.060522070702264,0.0635));
#990=CARTESIAN_POINT('',(0.,1.1554617403225E-17,0.0635));
#991=CARTESIAN_POINT('',(-0.00126999999999999,-0.118844436878915,0.0635));
#992=CARTESIAN_POINT('',(-0.00126999999999999,-0.118844436878915,0.));
#993=CARTESIAN_POINT('',(0.,1.1554617403225E-17,0.00635));
#994=CARTESIAN_POINT('',(0.,1.1554617403225E-17,0.00635));
#995=CARTESIAN_POINT('',(0.00127000000000001,-0.118844436878915,0.00635));
#996=CARTESIAN_POINT('',(0.102287301435597,-0.0605220707022639,0.00635));
#997=CARTESIAN_POINT('',(0.00127000000000001,-0.118844436878915,0.));
#998=CARTESIAN_POINT('',(0.00127000000000001,-0.118844436878915,0.0635));
#999=CARTESIAN_POINT('',(0.,1.1554617403225E-17,0.0635));
#1000=CARTESIAN_POINT('',(0.102287301435597,-0.0605220707022639,0.0635));
#1001=CARTESIAN_POINT('',(0.102287301435597,-0.0605220707022639,0.));
#1002=CARTESIAN_POINT('',(0.,1.1554617403225E-17,0.00635));
#1003=CARTESIAN_POINT('',(0.,1.1554617403225E-17,0.00635));
#1004=CARTESIAN_POINT('',(0.103557301435597,-0.0583223661766514,0.00635));
#1005=CARTESIAN_POINT('',(0.103557301435597,0.0583223661766514,0.00635));
#1006=CARTESIAN_POINT('',(0.103557301435597,-0.0583223661766514,0.));
#1007=CARTESIAN_POINT('',(0.103557301435597,-0.0583223661766514,0.0635));
#1008=CARTESIAN_POINT('',(0.,1.1554617403225E-17,0.0635));
#1009=CARTESIAN_POINT('',(0.103557301435597,0.0583223661766514,0.0635));
#1010=CARTESIAN_POINT('',(0.103557301435597,0.0583223661766514,0.));
#1011=CARTESIAN_POINT('',(0.,2.77555756156289E-17,0.00635));
#1012=CARTESIAN_POINT('',(0.00127,2.77555756156289E-17,0.00635));
#1013=CARTESIAN_POINT('',(-0.00063499999999999,0.00109985226280625,0.00635));
#1014=CARTESIAN_POINT('',(0.,2.77555756156289E-17,0.00635));
#1015=CARTESIAN_POINT('',(-0.00127,2.77555756156289E-17,0.00635));
#1016=CARTESIAN_POINT('',(0.000634999999999989,0.00109985226280625,0.00635));
#1017=CARTESIAN_POINT('',(0.,2.77555756156289E-17,0.00635));
#1018=CARTESIAN_POINT('',(-0.000635000000000013,-0.00109985226280623,0.00635));
#1019=CARTESIAN_POINT('',(-0.000634999999999983,0.00109985226280623,0.00635));
#1020=CARTESIAN_POINT('',(0.,2.77555756156289E-17,0.00635));
#1021=CARTESIAN_POINT('',(0.000635000000000011,-0.00109985226280623,0.00635));
#1022=CARTESIAN_POINT('',(-0.00127,2.76000454721372E-17,0.00635));
#1023=CARTESIAN_POINT('',(0.,2.77555756156289E-17,0.00635));
#1024=CARTESIAN_POINT('',(0.00127,2.79111057591207E-17,0.00635));
#1025=CARTESIAN_POINT('',(-0.000635000000000014,-0.00109985226280623,0.00635));
#1026=CARTESIAN_POINT('',(0.,7.38768181585641E-18,0.0635));
#1027=CARTESIAN_POINT('',(0.,7.38768181585641E-18,-0.0107989951031446));
#1028=CARTESIAN_POINT('',(-0.12065,7.38768181585641E-18,-0.0107989951031446));
#1029=CARTESIAN_POINT('',(0.,7.38768181585641E-18,0.0635));
#1030=CARTESIAN_POINT('',(0.12065,7.38768181585641E-18,0.0635));
#1031=CARTESIAN_POINT('',(0.,0.,0.0635));
#1032=CARTESIAN_POINT('',(-0.00127,0.0957994322733257,0.0635));
#1033=CARTESIAN_POINT('',(-0.0823297420168269,0.048999568399469,0.0635));
#1034=CARTESIAN_POINT('',(-0.0835997420168269,0.0467998638738566,0.0635));
#1035=CARTESIAN_POINT('',(-0.0835997420168269,-0.0467998638738567,0.0635));
#1036=CARTESIAN_POINT('',(-0.0823297420168269,-0.0489995683994691,0.0635));
#1037=CARTESIAN_POINT('',(-0.00127,-0.0957994322733257,0.0635));
#1038=CARTESIAN_POINT('',(0.00127000000000001,-0.0957994322733257,0.0635));
#1039=CARTESIAN_POINT('',(0.0823297420168269,-0.0489995683994691,0.0635));
#1040=CARTESIAN_POINT('',(0.0835997420168269,-0.0467998638738566,0.0635));
#1041=CARTESIAN_POINT('',(0.0634495994439842,-0.0351661736352165,0.0635));
#1042=CARTESIAN_POINT('',(0.,8.71906696101239E-18,0.0635));
#1043=CARTESIAN_POINT('',(0.0634495994439841,0.0351661736352166,0.0635));
#1044=CARTESIAN_POINT('',(0.0835997420168269,0.0467998638738566,0.0635));
#1045=CARTESIAN_POINT('',(0.0823297420168269,0.0489995683994691,0.0635));
#1046=CARTESIAN_POINT('',(0.00127,0.0957994322733257,0.0635));
#1047=CARTESIAN_POINT('',(0.,4.27707894602213E-18,0.0635));
#1048=CARTESIAN_POINT('',(0.06985,4.27707894602213E-18,0.0635));
#1049=CARTESIAN_POINT('',(0.,2.77555756156289E-17,-0.0635));
#1050=CARTESIAN_POINT('',(0.,-4.28952135750147E-18,-0.0635));
#1051=CARTESIAN_POINT('',(-0.0679489951031446,-4.28952135750147E-18,-0.0635));
#1052=CARTESIAN_POINT('',(0.,8.71906696101239E-18,0.00635));
#1053=CARTESIAN_POINT('',(0.0634495994439841,-0.0351661736352165,0.00635));
#1054=CARTESIAN_POINT('',(0.0634495994439842,-0.0351661736352165,0.00635));
#1055=CARTESIAN_POINT('',(0.,8.71906696101239E-18,0.00635));
#1056=CARTESIAN_POINT('',(0.0634495994439841,0.0351661736352166,0.00635));
#1057=CARTESIAN_POINT('',(0.0634495994439841,0.0351661736352166,0.00635));
#1058=CARTESIAN_POINT('',(0.,2.77555756156289E-17,0.00635));
#1059=CARTESIAN_POINT('',(0.00063499999999999,0.00109985226280625,0.00635));
#1060=CARTESIAN_POINT('',(0.000635000000000011,-0.00109985226280623,0.00635));
#1061=CARTESIAN_POINT('',(0.,2.77555756156289E-17,0.0889));
#1062=CARTESIAN_POINT('',(0.,1.55530143491714E-18,0.0889));
#1063=CARTESIAN_POINT('',(0.0254,1.55530143491714E-18,0.0889));
#1064=CARTESIAN_POINT('',(0.,4.27707894602213E-18,0.0889));
#1065=CARTESIAN_POINT('',(0.06985,4.27707894602213E-18,0.0889));
#1066=CARTESIAN_POINT('',(0.,4.27707894602213E-18,0.0889));
#1067=CARTESIAN_POINT('',(0.0823297420168269,0.0489995683994691,0.));
#1068=CARTESIAN_POINT('',(0.0835997420168269,0.0467998638738566,0.));
#1069=CARTESIAN_POINT('',(0.0835997420168269,-0.0467998638738566,0.));
#1070=CARTESIAN_POINT('',(0.0823297420168269,-0.0489995683994691,0.));
#1071=CARTESIAN_POINT('',(0.00127000000000001,-0.0957994322733257,0.));
#1072=CARTESIAN_POINT('',(-0.00127,-0.0957994322733257,0.));
#1073=CARTESIAN_POINT('',(-0.0823297420168269,-0.0489995683994691,0.));
#1074=CARTESIAN_POINT('',(-0.0835997420168269,-0.0467998638738567,0.));
#1075=CARTESIAN_POINT('',(-0.0835997420168269,0.0467998638738566,0.));
#1076=CARTESIAN_POINT('',(-0.0823297420168269,0.048999568399469,0.));
#1077=CARTESIAN_POINT('',(-0.00127,0.0957994322733257,0.));
#1078=CARTESIAN_POINT('',(0.00127,0.0957994322733257,0.));
#1079=CARTESIAN_POINT('',(0.,1.55530143491714E-18,-0.0381));
#1080=CARTESIAN_POINT('',(0.,1.55530143491714E-18,-0.0381));
#1081=CARTESIAN_POINT('',(0.0254,1.55530143491714E-18,-0.0381));
#1082=CARTESIAN_POINT('',(0.,0.,-0.0381));
#1083=CARTESIAN_POINT('',(0.,-4.28952135750147E-18,-0.0635));
#1084=CARTESIAN_POINT('',(0.,-4.28952135750147E-18,-0.0620121024484277));
#1085=CARTESIAN_POINT('',(0.0715410975515723,-4.28952135750147E-18,-0.0620121024484277));
#1086=CARTESIAN_POINT('',(0.,-4.28952135750147E-18,-0.0143910975515723));
#1087=CARTESIAN_POINT('',(-0.119162102448428,-4.28952135750147E-18,-0.0143910975515723));
#1088=CARTESIAN_POINT('',(0.,-4.28952135750147E-18,-0.05842));
#1089=CARTESIAN_POINT('',(0.,1.54908022917747E-18,-0.0107989951031446));
#1090=MECHANICAL_DESIGN_GEOMETRIC_PRESENTATION_REPRESENTATION('',(#630),
#1091);
#1091=(
GEOMETRIC_REPRESENTATION_CONTEXT(3)
GLOBAL_UNCERTAINTY_ASSIGNED_CONTEXT((#1092))
GLOBAL_UNIT_ASSIGNED_CONTEXT((#1095,#1094,#1093))
REPRESENTATION_CONTEXT('Part 1','TOP_LEVEL_ASSEMBLY_PART')
);
#1092=UNCERTAINTY_MEASURE_WITH_UNIT(LENGTH_MEASURE(1.E-8),#1095,
'DISTANCE_ACCURACY_VALUE','Maximum Tolerance applied to model');
#1093=(
NAMED_UNIT(*)
SI_UNIT($,.STERADIAN.)
SOLID_ANGLE_UNIT()
);
#1094=(
NAMED_UNIT(*)
PLANE_ANGLE_UNIT()
SI_UNIT($,.RADIAN.)
);
#1095=(
LENGTH_UNIT()
NAMED_UNIT(*)
SI_UNIT($,.METRE.)
);
#1096=PRODUCT_DEFINITION_SHAPE('','',#1097);
#1097=PRODUCT_DEFINITION('','',#1099,#1098);
#1098=PRODUCT_DEFINITION_CONTEXT('',#1105,'design');
#1099=PRODUCT_DEFINITION_FORMATION_WITH_SPECIFIED_SOURCE('','',#1101,
 .NOT_KNOWN.);
#1100=PRODUCT_RELATED_PRODUCT_CATEGORY('','',(#1101));
#1101=PRODUCT('Part 1','Part 1','Part 1',(#1103));
#1102=PRODUCT_CATEGORY('','');
#1103=PRODUCT_CONTEXT('',#1105,'mechanical');
#1104=APPLICATION_PROTOCOL_DEFINITION('international standard',
'ap242_managed_model_based_3d_engineering',2020,#1105);
#1105=APPLICATION_CONTEXT('managed model based 3d engineering');
ENDSEC;
END-ISO-10303-21;
