ISO-10303-21;
HEADER;
/* Generated by software containing ST-Developer
 * from STEP Tools, Inc. (www.steptools.com) 
 */
/* OPTION: using custom renumber hook */

FILE_DESCRIPTION(
/* description */ ('STEP AP242 Edition 2',
'CAx-IF Rec.Pracs.---Representation and Presentation of Product Manufa
cturing Information (PMI)---4.0---2014-10-13',
'CAx-IF Rec.Pracs.---3D Tessellated Geometry---0.4---2014-09-14','2;1',
'CAx-IF Rec.Pracs.---User Defined Attributes---1.5---2016-08-15'),
/* implementation_level */ '2;1');

FILE_NAME(
/* name */ 'Bottom - Part 1',
/* time_stamp */ '2026-08-16T04:17:04Z',
/* author */ (''),
/* organization */ (''),
/* preprocessor_version */ 'ST-DEVELOPER v20',
/* originating_system */ 'ONSHAPE BY PTC INC, 1.219',
/* authorisation */ '  ');

FILE_SCHEMA (('AP242_MANAGED_MODEL_BASED_3D_ENGINEERING_MIM_LF { 1 0 10303 442 3 1 4 }'));
ENDSEC;

DATA;
#10=SHAPE_REPRESENTATION_RELATIONSHIP('','',#319,#11);
#11=ADVANCED_BREP_SHAPE_REPRESENTATION('',(#317),#501);
#12=ORIENTED_EDGE('',*,*,#92,.T.);
#13=ORIENTED_EDGE('',*,*,#93,.T.);
#14=ORIENTED_EDGE('',*,*,#94,.F.);
#15=ORIENTED_EDGE('',*,*,#95,.T.);
#16=ORIENTED_EDGE('',*,*,#94,.T.);
#17=ORIENTED_EDGE('',*,*,#96,.T.);
#18=ORIENTED_EDGE('',*,*,#97,.F.);
#19=ORIENTED_EDGE('',*,*,#98,.T.);
#20=ORIENTED_EDGE('',*,*,#97,.T.);
#21=ORIENTED_EDGE('',*,*,#99,.T.);
#22=ORIENTED_EDGE('',*,*,#100,.F.);
#23=ORIENTED_EDGE('',*,*,#101,.T.);
#24=ORIENTED_EDGE('',*,*,#100,.T.);
#25=ORIENTED_EDGE('',*,*,#102,.T.);
#26=ORIENTED_EDGE('',*,*,#103,.F.);
#27=ORIENTED_EDGE('',*,*,#104,.T.);
#28=ORIENTED_EDGE('',*,*,#103,.T.);
#29=ORIENTED_EDGE('',*,*,#105,.T.);
#30=ORIENTED_EDGE('',*,*,#106,.F.);
#31=ORIENTED_EDGE('',*,*,#107,.T.);
#32=ORIENTED_EDGE('',*,*,#106,.T.);
#33=ORIENTED_EDGE('',*,*,#108,.T.);
#34=ORIENTED_EDGE('',*,*,#109,.F.);
#35=ORIENTED_EDGE('',*,*,#110,.T.);
#36=ORIENTED_EDGE('',*,*,#109,.T.);
#37=ORIENTED_EDGE('',*,*,#111,.T.);
#38=ORIENTED_EDGE('',*,*,#112,.F.);
#39=ORIENTED_EDGE('',*,*,#113,.T.);
#40=ORIENTED_EDGE('',*,*,#112,.T.);
#41=ORIENTED_EDGE('',*,*,#114,.T.);
#42=ORIENTED_EDGE('',*,*,#92,.F.);
#43=ORIENTED_EDGE('',*,*,#115,.T.);
#44=ORIENTED_EDGE('',*,*,#95,.F.);
#45=ORIENTED_EDGE('',*,*,#98,.F.);
#46=ORIENTED_EDGE('',*,*,#101,.F.);
#47=ORIENTED_EDGE('',*,*,#104,.F.);
#48=ORIENTED_EDGE('',*,*,#107,.F.);
#49=ORIENTED_EDGE('',*,*,#110,.F.);
#50=ORIENTED_EDGE('',*,*,#113,.F.);
#51=ORIENTED_EDGE('',*,*,#115,.F.);
#52=ORIENTED_EDGE('',*,*,#116,.T.);
#53=ORIENTED_EDGE('',*,*,#117,.T.);
#54=ORIENTED_EDGE('',*,*,#118,.T.);
#55=ORIENTED_EDGE('',*,*,#119,.T.);
#56=ORIENTED_EDGE('',*,*,#120,.T.);
#57=ORIENTED_EDGE('',*,*,#121,.T.);
#58=ORIENTED_EDGE('',*,*,#122,.T.);
#59=ORIENTED_EDGE('',*,*,#123,.T.);
#60=ORIENTED_EDGE('',*,*,#124,.F.);
#61=ORIENTED_EDGE('',*,*,#114,.F.);
#62=ORIENTED_EDGE('',*,*,#125,.F.);
#63=ORIENTED_EDGE('',*,*,#121,.F.);
#64=ORIENTED_EDGE('',*,*,#125,.T.);
#65=ORIENTED_EDGE('',*,*,#111,.F.);
#66=ORIENTED_EDGE('',*,*,#126,.F.);
#67=ORIENTED_EDGE('',*,*,#122,.F.);
#68=ORIENTED_EDGE('',*,*,#124,.T.);
#69=ORIENTED_EDGE('',*,*,#120,.F.);
#70=ORIENTED_EDGE('',*,*,#127,.F.);
#71=ORIENTED_EDGE('',*,*,#93,.F.);
#72=ORIENTED_EDGE('',*,*,#126,.T.);
#73=ORIENTED_EDGE('',*,*,#108,.F.);
#74=ORIENTED_EDGE('',*,*,#128,.F.);
#75=ORIENTED_EDGE('',*,*,#123,.F.);
#76=ORIENTED_EDGE('',*,*,#127,.T.);
#77=ORIENTED_EDGE('',*,*,#119,.F.);
#78=ORIENTED_EDGE('',*,*,#129,.F.);
#79=ORIENTED_EDGE('',*,*,#96,.F.);
#80=ORIENTED_EDGE('',*,*,#128,.T.);
#81=ORIENTED_EDGE('',*,*,#105,.F.);
#82=ORIENTED_EDGE('',*,*,#130,.F.);
#83=ORIENTED_EDGE('',*,*,#116,.F.);
#84=ORIENTED_EDGE('',*,*,#129,.T.);
#85=ORIENTED_EDGE('',*,*,#118,.F.);
#86=ORIENTED_EDGE('',*,*,#131,.F.);
#87=ORIENTED_EDGE('',*,*,#99,.F.);
#88=ORIENTED_EDGE('',*,*,#130,.T.);
#89=ORIENTED_EDGE('',*,*,#102,.F.);
#90=ORIENTED_EDGE('',*,*,#131,.T.);
#91=ORIENTED_EDGE('',*,*,#117,.F.);
#92=EDGE_CURVE('',#132,#133,#156,.T.);
#93=EDGE_CURVE('',#133,#134,#157,.T.);
#94=EDGE_CURVE('',#135,#134,#158,.T.);
#95=EDGE_CURVE('',#135,#132,#159,.T.);
#96=EDGE_CURVE('',#134,#136,#160,.T.);
#97=EDGE_CURVE('',#137,#136,#161,.T.);
#98=EDGE_CURVE('',#137,#135,#162,.T.);
#99=EDGE_CURVE('',#136,#138,#163,.T.);
#100=EDGE_CURVE('',#139,#138,#164,.T.);
#101=EDGE_CURVE('',#139,#137,#165,.T.);
#102=EDGE_CURVE('',#138,#140,#166,.T.);
#103=EDGE_CURVE('',#141,#140,#167,.T.);
#104=EDGE_CURVE('',#141,#139,#168,.T.);
#105=EDGE_CURVE('',#140,#142,#169,.T.);
#106=EDGE_CURVE('',#143,#142,#170,.T.);
#107=EDGE_CURVE('',#143,#141,#171,.T.);
#108=EDGE_CURVE('',#142,#144,#172,.T.);
#109=EDGE_CURVE('',#145,#144,#173,.T.);
#110=EDGE_CURVE('',#145,#143,#174,.T.);
#111=EDGE_CURVE('',#144,#146,#175,.T.);
#112=EDGE_CURVE('',#147,#146,#176,.T.);
#113=EDGE_CURVE('',#147,#145,#177,.T.);
#114=EDGE_CURVE('',#146,#133,#178,.T.);
#115=EDGE_CURVE('',#132,#147,#179,.T.);
#116=EDGE_CURVE('',#148,#149,#180,.T.);
#117=EDGE_CURVE('',#149,#150,#181,.T.);
#118=EDGE_CURVE('',#150,#151,#182,.T.);
#119=EDGE_CURVE('',#151,#152,#183,.T.);
#120=EDGE_CURVE('',#152,#153,#184,.T.);
#121=EDGE_CURVE('',#153,#154,#185,.T.);
#122=EDGE_CURVE('',#154,#155,#186,.T.);
#123=EDGE_CURVE('',#155,#148,#187,.T.);
#124=EDGE_CURVE('',#133,#153,#188,.T.);
#125=EDGE_CURVE('',#154,#146,#189,.F.);
#126=EDGE_CURVE('',#155,#144,#190,.F.);
#127=EDGE_CURVE('',#134,#152,#191,.T.);
#128=EDGE_CURVE('',#148,#142,#192,.F.);
#129=EDGE_CURVE('',#136,#151,#193,.T.);
#130=EDGE_CURVE('',#149,#140,#194,.F.);
#131=EDGE_CURVE('',#138,#150,#195,.F.);
#132=VERTEX_POINT('',#420);
#133=VERTEX_POINT('',#421);
#134=VERTEX_POINT('',#423);
#135=VERTEX_POINT('',#425);
#136=VERTEX_POINT('',#429);
#137=VERTEX_POINT('',#431);
#138=VERTEX_POINT('',#435);
#139=VERTEX_POINT('',#437);
#140=VERTEX_POINT('',#441);
#141=VERTEX_POINT('',#443);
#142=VERTEX_POINT('',#447);
#143=VERTEX_POINT('',#449);
#144=VERTEX_POINT('',#453);
#145=VERTEX_POINT('',#455);
#146=VERTEX_POINT('',#459);
#147=VERTEX_POINT('',#461);
#148=VERTEX_POINT('',#469);
#149=VERTEX_POINT('',#470);
#150=VERTEX_POINT('',#472);
#151=VERTEX_POINT('',#474);
#152=VERTEX_POINT('',#476);
#153=VERTEX_POINT('',#478);
#154=VERTEX_POINT('',#480);
#155=VERTEX_POINT('',#482);
#156=LINE('',#419,#196);
#157=LINE('',#422,#197);
#158=LINE('',#424,#198);
#159=LINE('',#426,#199);
#160=LINE('',#428,#200);
#161=LINE('',#430,#201);
#162=LINE('',#432,#202);
#163=LINE('',#434,#203);
#164=LINE('',#436,#204);
#165=LINE('',#438,#205);
#166=LINE('',#440,#206);
#167=LINE('',#442,#207);
#168=LINE('',#444,#208);
#169=LINE('',#446,#209);
#170=LINE('',#448,#210);
#171=LINE('',#450,#211);
#172=LINE('',#452,#212);
#173=LINE('',#454,#213);
#174=LINE('',#456,#214);
#175=LINE('',#458,#215);
#176=LINE('',#460,#216);
#177=LINE('',#462,#217);
#178=LINE('',#464,#218);
#179=LINE('',#465,#219);
#180=LINE('',#468,#220);
#181=LINE('',#471,#221);
#182=LINE('',#473,#222);
#183=LINE('',#475,#223);
#184=LINE('',#477,#224);
#185=LINE('',#479,#225);
#186=LINE('',#481,#226);
#187=LINE('',#483,#227);
#188=LINE('',#485,#228);
#189=LINE('',#486,#229);
#190=LINE('',#488,#230);
#191=LINE('',#490,#231);
#192=LINE('',#492,#232);
#193=LINE('',#494,#233);
#194=LINE('',#496,#234);
#195=LINE('',#498,#235);
#196=VECTOR('',#343,1.);
#197=VECTOR('',#344,1.);
#198=VECTOR('',#345,1.);
#199=VECTOR('',#346,1.);
#200=VECTOR('',#349,1.);
#201=VECTOR('',#350,1.);
#202=VECTOR('',#351,1.);
#203=VECTOR('',#354,1.);
#204=VECTOR('',#355,1.);
#205=VECTOR('',#356,1.);
#206=VECTOR('',#359,1.);
#207=VECTOR('',#360,1.);
#208=VECTOR('',#361,1.);
#209=VECTOR('',#364,1.);
#210=VECTOR('',#365,1.);
#211=VECTOR('',#366,1.);
#212=VECTOR('',#369,1.);
#213=VECTOR('',#370,1.);
#214=VECTOR('',#371,1.);
#215=VECTOR('',#374,1.);
#216=VECTOR('',#375,1.);
#217=VECTOR('',#376,1.);
#218=VECTOR('',#379,1.);
#219=VECTOR('',#380,1.);
#220=VECTOR('',#385,1.);
#221=VECTOR('',#386,1.);
#222=VECTOR('',#387,1.);
#223=VECTOR('',#388,1.);
#224=VECTOR('',#389,1.);
#225=VECTOR('',#390,1.);
#226=VECTOR('',#391,1.);
#227=VECTOR('',#392,1.);
#228=VECTOR('',#395,1.);
#229=VECTOR('',#396,1.);
#230=VECTOR('',#399,1.);
#231=VECTOR('',#402,1.);
#232=VECTOR('',#405,1.);
#233=VECTOR('',#408,1.);
#234=VECTOR('',#411,1.);
#235=VECTOR('',#414,1.);
#236=EDGE_LOOP('',(#12,#13,#14,#15));
#237=EDGE_LOOP('',(#16,#17,#18,#19));
#238=EDGE_LOOP('',(#20,#21,#22,#23));
#239=EDGE_LOOP('',(#24,#25,#26,#27));
#240=EDGE_LOOP('',(#28,#29,#30,#31));
#241=EDGE_LOOP('',(#32,#33,#34,#35));
#242=EDGE_LOOP('',(#36,#37,#38,#39));
#243=EDGE_LOOP('',(#40,#41,#42,#43));
#244=EDGE_LOOP('',(#44,#45,#46,#47,#48,#49,#50,#51));
#245=EDGE_LOOP('',(#52,#53,#54,#55,#56,#57,#58,#59));
#246=EDGE_LOOP('',(#60,#61,#62,#63));
#247=EDGE_LOOP('',(#64,#65,#66,#67));
#248=EDGE_LOOP('',(#68,#69,#70,#71));
#249=EDGE_LOOP('',(#72,#73,#74,#75));
#250=EDGE_LOOP('',(#76,#77,#78,#79));
#251=EDGE_LOOP('',(#80,#81,#82,#83));
#252=EDGE_LOOP('',(#84,#85,#86,#87));
#253=EDGE_LOOP('',(#88,#89,#90,#91));
#254=FACE_BOUND('',#236,.T.);
#255=FACE_BOUND('',#237,.T.);
#256=FACE_BOUND('',#238,.T.);
#257=FACE_BOUND('',#239,.T.);
#258=FACE_BOUND('',#240,.T.);
#259=FACE_BOUND('',#241,.T.);
#260=FACE_BOUND('',#242,.T.);
#261=FACE_BOUND('',#243,.T.);
#262=FACE_BOUND('',#244,.T.);
#263=FACE_BOUND('',#245,.T.);
#264=FACE_BOUND('',#246,.T.);
#265=FACE_BOUND('',#247,.T.);
#266=FACE_BOUND('',#248,.T.);
#267=FACE_BOUND('',#249,.T.);
#268=FACE_BOUND('',#250,.T.);
#269=FACE_BOUND('',#251,.T.);
#270=FACE_BOUND('',#252,.T.);
#271=FACE_BOUND('',#253,.T.);
#272=PLANE('',#321);
#273=PLANE('',#322);
#274=PLANE('',#323);
#275=PLANE('',#324);
#276=PLANE('',#325);
#277=PLANE('',#326);
#278=PLANE('',#327);
#279=PLANE('',#328);
#280=PLANE('',#329);
#281=PLANE('',#330);
#282=PLANE('',#331);
#283=PLANE('',#332);
#284=PLANE('',#333);
#285=PLANE('',#334);
#286=PLANE('',#335);
#287=PLANE('',#336);
#288=PLANE('',#337);
#289=PLANE('',#338);
#290=ADVANCED_FACE('',(#254),#272,.T.);
#291=ADVANCED_FACE('',(#255),#273,.T.);
#292=ADVANCED_FACE('',(#256),#274,.T.);
#293=ADVANCED_FACE('',(#257),#275,.T.);
#294=ADVANCED_FACE('',(#258),#276,.T.);
#295=ADVANCED_FACE('',(#259),#277,.T.);
#296=ADVANCED_FACE('',(#260),#278,.T.);
#297=ADVANCED_FACE('',(#261),#279,.T.);
#298=ADVANCED_FACE('',(#262),#280,.T.);
#299=ADVANCED_FACE('',(#263),#281,.F.);
#300=ADVANCED_FACE('',(#264),#282,.T.);
#301=ADVANCED_FACE('',(#265),#283,.T.);
#302=ADVANCED_FACE('',(#266),#284,.T.);
#303=ADVANCED_FACE('',(#267),#285,.T.);
#304=ADVANCED_FACE('',(#268),#286,.T.);
#305=ADVANCED_FACE('',(#269),#287,.T.);
#306=ADVANCED_FACE('',(#270),#288,.T.);
#307=ADVANCED_FACE('',(#271),#289,.T.);
#308=CLOSED_SHELL('',(#290,#291,#292,#293,#294,#295,#296,#297,#298,#299,
#300,#301,#302,#303,#304,#305,#306,#307));
#309=STYLED_ITEM('',(#310),#317);
#310=PRESENTATION_STYLE_ASSIGNMENT((#311));
#311=SURFACE_STYLE_USAGE(.BOTH.,#312);
#312=SURFACE_SIDE_STYLE('',(#313));
#313=SURFACE_STYLE_FILL_AREA(#314);
#314=FILL_AREA_STYLE('',(#315));
#315=FILL_AREA_STYLE_COLOUR('',#316);
#316=COLOUR_RGB('',0.615686274509804,0.811764705882353,0.929411764705882);
#317=MANIFOLD_SOLID_BREP('Part 1',#308);
#318=SHAPE_DEFINITION_REPRESENTATION(#506,#319);
#319=SHAPE_REPRESENTATION('Part 1',(#320),#501);
#320=AXIS2_PLACEMENT_3D('',#417,#339,#340);
#321=AXIS2_PLACEMENT_3D('',#418,#341,#342);
#322=AXIS2_PLACEMENT_3D('',#427,#347,#348);
#323=AXIS2_PLACEMENT_3D('',#433,#352,#353);
#324=AXIS2_PLACEMENT_3D('',#439,#357,#358);
#325=AXIS2_PLACEMENT_3D('',#445,#362,#363);
#326=AXIS2_PLACEMENT_3D('',#451,#367,#368);
#327=AXIS2_PLACEMENT_3D('',#457,#372,#373);
#328=AXIS2_PLACEMENT_3D('',#463,#377,#378);
#329=AXIS2_PLACEMENT_3D('',#466,#381,#382);
#330=AXIS2_PLACEMENT_3D('',#467,#383,#384);
#331=AXIS2_PLACEMENT_3D('',#484,#393,#394);
#332=AXIS2_PLACEMENT_3D('',#487,#397,#398);
#333=AXIS2_PLACEMENT_3D('',#489,#400,#401);
#334=AXIS2_PLACEMENT_3D('',#491,#403,#404);
#335=AXIS2_PLACEMENT_3D('',#493,#406,#407);
#336=AXIS2_PLACEMENT_3D('',#495,#409,#410);
#337=AXIS2_PLACEMENT_3D('',#497,#412,#413);
#338=AXIS2_PLACEMENT_3D('',#499,#415,#416);
#339=DIRECTION('',(0.,0.,1.));
#340=DIRECTION('',(1.,0.,0.));
#341=DIRECTION('',(1.,0.,0.));
#342=DIRECTION('',(0.,0.,-1.));
#343=DIRECTION('',(0.,0.,-1.));
#344=DIRECTION('',(0.,1.,0.));
#345=DIRECTION('',(0.,0.,-1.));
#346=DIRECTION('',(0.,-1.,0.));
#347=DIRECTION('',(0.707106781186548,0.707106781186547,0.));
#348=DIRECTION('',(-0.707106781186547,0.707106781186548,0.));
#349=DIRECTION('',(-0.707106781186547,0.707106781186548,0.));
#350=DIRECTION('',(0.,0.,-1.));
#351=DIRECTION('',(0.707106781186547,-0.707106781186548,0.));
#352=DIRECTION('',(0.,1.,0.));
#353=DIRECTION('',(0.,0.,1.));
#354=DIRECTION('',(-1.,0.,0.));
#355=DIRECTION('',(0.,0.,-1.));
#356=DIRECTION('',(1.,0.,0.));
#357=DIRECTION('',(-0.707106781186547,0.707106781186548,0.));
#358=DIRECTION('',(-0.707106781186548,-0.707106781186547,0.));
#359=DIRECTION('',(-0.707106781186548,-0.707106781186547,0.));
#360=DIRECTION('',(0.,0.,-1.));
#361=DIRECTION('',(0.707106781186548,0.707106781186547,0.));
#362=DIRECTION('',(-1.,0.,0.));
#363=DIRECTION('',(0.,0.,1.));
#364=DIRECTION('',(0.,-1.,0.));
#365=DIRECTION('',(0.,0.,-1.));
#366=DIRECTION('',(0.,1.,0.));
#367=DIRECTION('',(-0.707106781186548,-0.707106781186547,0.));
#368=DIRECTION('',(0.707106781186547,-0.707106781186548,0.));
#369=DIRECTION('',(0.707106781186547,-0.707106781186548,0.));
#370=DIRECTION('',(0.,0.,-1.));
#371=DIRECTION('',(-0.707106781186547,0.707106781186548,0.));
#372=DIRECTION('',(0.,-1.,0.));
#373=DIRECTION('',(0.,0.,-1.));
#374=DIRECTION('',(1.,0.,0.));
#375=DIRECTION('',(0.,0.,-1.));
#376=DIRECTION('',(-1.,0.,0.));
#377=DIRECTION('',(0.707106781186548,-0.707106781186548,0.));
#378=DIRECTION('',(0.707106781186548,0.707106781186548,0.));
#379=DIRECTION('',(0.707106781186548,0.707106781186548,0.));
#380=DIRECTION('',(-0.707106781186548,-0.707106781186548,0.));
#381=DIRECTION('',(0.,0.,1.));
#382=DIRECTION('',(1.,0.,0.));
#383=DIRECTION('',(0.,0.,1.));
#384=DIRECTION('',(1.,0.,0.));
#385=DIRECTION('',(0.,1.,0.));
#386=DIRECTION('',(0.707106781186548,0.707106781186547,0.));
#387=DIRECTION('',(1.,0.,0.));
#388=DIRECTION('',(0.707106781186547,-0.707106781186548,0.));
#389=DIRECTION('',(0.,-1.,0.));
#390=DIRECTION('',(-0.707106781186548,-0.707106781186548,0.));
#391=DIRECTION('',(-1.,0.,0.));
#392=DIRECTION('',(-0.707106781186547,0.707106781186548,0.));
#393=DIRECTION('',(0.5,-0.5,-0.707106781186547));
#394=DIRECTION('',(0.707106781186548,0.707106781186548,0.));
#395=DIRECTION('',(-0.678598344545847,0.28108463771482,-0.678598344545847));
#396=DIRECTION('',(-0.28108463771482,0.678598344545847,-0.678598344545847));
#397=DIRECTION('',(0.,-0.707106781186548,-0.707106781186548));
#398=DIRECTION('',(1.,0.,0.));
#399=DIRECTION('',(0.281084637714821,0.678598344545847,-0.678598344545847));
#400=DIRECTION('',(0.707106781186548,0.,-0.707106781186548));
#401=DIRECTION('',(0.,1.,0.));
#402=DIRECTION('',(-0.678598344545847,-0.28108463771482,-0.678598344545847));
#403=DIRECTION('',(-0.5,-0.5,-0.707106781186548));
#404=DIRECTION('',(0.707106781186547,-0.707106781186548,0.));
#405=DIRECTION('',(0.678598344545847,0.28108463771482,-0.678598344545847));
#406=DIRECTION('',(0.5,0.5,-0.707106781186547));
#407=DIRECTION('',(-0.707106781186547,0.707106781186548,0.));
#408=DIRECTION('',(-0.28108463771482,-0.678598344545847,-0.678598344545847));
#409=DIRECTION('',(-0.707106781186548,0.,-0.707106781186548));
#410=DIRECTION('',(0.,-1.,0.));
#411=DIRECTION('',(0.678598344545847,-0.281084637714821,-0.678598344545847));
#412=DIRECTION('',(0.,0.707106781186548,-0.707106781186548));
#413=DIRECTION('',(-1.,0.,0.));
#414=DIRECTION('',(-0.281084637714821,0.678598344545847,0.678598344545847));
#415=DIRECTION('',(-0.5,0.5,-0.707106781186548));
#416=DIRECTION('',(-0.707106781186548,-0.707106781186547,0.));
#417=CARTESIAN_POINT('',(0.,0.,0.));
#418=CARTESIAN_POINT('',(0.127,0.0397812692585573,0.0635));
#419=CARTESIAN_POINT('',(0.127,-0.0762,0.0635));
#420=CARTESIAN_POINT('',(0.127,-0.0762,0.0635));
#421=CARTESIAN_POINT('',(0.127,-0.0762,0.0381));
#422=CARTESIAN_POINT('',(0.127,0.0762,0.0381));
#423=CARTESIAN_POINT('',(0.127,0.0762,0.0381));
#424=CARTESIAN_POINT('',(0.127,0.0762,0.0635));
#425=CARTESIAN_POINT('',(0.127,0.0762,0.0635));
#426=CARTESIAN_POINT('',(0.127,0.0397812692585573,0.0635));
#427=CARTESIAN_POINT('',(0.1016,0.1016,0.0635));
#428=CARTESIAN_POINT('',(0.0762,0.127,0.0381));
#429=CARTESIAN_POINT('',(0.0762,0.127,0.0381));
#430=CARTESIAN_POINT('',(0.0762,0.127,0.0635));
#431=CARTESIAN_POINT('',(0.0762,0.127,0.0635));
#432=CARTESIAN_POINT('',(0.1016,0.1016,0.0635));
#433=CARTESIAN_POINT('',(0.0387409405004977,0.127,0.0635));
#434=CARTESIAN_POINT('',(-0.0762,0.127,0.0381));
#435=CARTESIAN_POINT('',(-0.0762,0.127,0.0381));
#436=CARTESIAN_POINT('',(-0.0762,0.127,0.0635));
#437=CARTESIAN_POINT('',(-0.0762,0.127,0.0635));
#438=CARTESIAN_POINT('',(0.0387409405004977,0.127,0.0635));
#439=CARTESIAN_POINT('',(-0.1016,0.1016,0.0635));
#440=CARTESIAN_POINT('',(-0.127,0.0762,0.0381));
#441=CARTESIAN_POINT('',(-0.127,0.0762,0.0381));
#442=CARTESIAN_POINT('',(-0.127,0.0762,0.0635));
#443=CARTESIAN_POINT('',(-0.127,0.0762,0.0635));
#444=CARTESIAN_POINT('',(-0.1016,0.1016,0.0635));
#445=CARTESIAN_POINT('',(-0.127,0.03937,0.0635));
#446=CARTESIAN_POINT('',(-0.127,-0.0762,0.0381));
#447=CARTESIAN_POINT('',(-0.127,-0.0762,0.0381));
#448=CARTESIAN_POINT('',(-0.127,-0.0762,0.0635));
#449=CARTESIAN_POINT('',(-0.127,-0.0762,0.0635));
#450=CARTESIAN_POINT('',(-0.127,0.03937,0.0635));
#451=CARTESIAN_POINT('',(-0.1016,-0.1016,0.0635));
#452=CARTESIAN_POINT('',(-0.0762,-0.127,0.0381));
#453=CARTESIAN_POINT('',(-0.0762,-0.127,0.0381));
#454=CARTESIAN_POINT('',(-0.0762,-0.127,0.0635));
#455=CARTESIAN_POINT('',(-0.0762,-0.127,0.0635));
#456=CARTESIAN_POINT('',(-0.1016,-0.1016,0.0635));
#457=CARTESIAN_POINT('',(-0.0321668080103397,-0.127,0.0635));
#458=CARTESIAN_POINT('',(0.0762,-0.127,0.0381));
#459=CARTESIAN_POINT('',(0.0762,-0.127,0.0381));
#460=CARTESIAN_POINT('',(0.0762,-0.127,0.0635));
#461=CARTESIAN_POINT('',(0.0762,-0.127,0.0635));
#462=CARTESIAN_POINT('',(-0.0321668080103397,-0.127,0.0635));
#463=CARTESIAN_POINT('',(0.1016,-0.1016,0.0635));
#464=CARTESIAN_POINT('',(0.127,-0.0762,0.0381));
#465=CARTESIAN_POINT('',(0.1016,-0.1016,0.0635));
#466=CARTESIAN_POINT('',(0.,2.77555756156289E-17,0.0635));
#467=CARTESIAN_POINT('',(0.,2.77555756156289E-17,0.));
#468=CARTESIAN_POINT('',(-0.0889,0.0762,0.));
#469=CARTESIAN_POINT('',(-0.0889,-0.060418463273585,0.));
#470=CARTESIAN_POINT('',(-0.0889,0.0604184632735851,0.));
#471=CARTESIAN_POINT('',(-0.0492592316367925,0.100059231636792,0.));
#472=CARTESIAN_POINT('',(-0.060418463273585,0.0889,0.));
#473=CARTESIAN_POINT('',(0.0762,0.0889,0.));
#474=CARTESIAN_POINT('',(0.0604184632735851,0.0889,0.));
#475=CARTESIAN_POINT('',(0.100059231636793,0.0492592316367926,0.));
#476=CARTESIAN_POINT('',(0.0889,0.0604184632735852,0.));
#477=CARTESIAN_POINT('',(0.0889,-0.0762,0.));
#478=CARTESIAN_POINT('',(0.0889,-0.0604184632735851,0.));
#479=CARTESIAN_POINT('',(0.0492592316367926,-0.100059231636792,0.));
#480=CARTESIAN_POINT('',(0.0604184632735851,-0.0889,0.));
#481=CARTESIAN_POINT('',(-0.0762,-0.0889,0.));
#482=CARTESIAN_POINT('',(-0.0604184632735851,-0.0889,0.));
#483=CARTESIAN_POINT('',(-0.100059231636792,-0.0492592316367925,0.));
#484=CARTESIAN_POINT('',(0.0746592316367926,-0.0746592316367925,0.));
#485=CARTESIAN_POINT('',(0.0773755666315207,-0.0556448866736959,-0.0115244333684794));
#486=CARTESIAN_POINT('',(0.0588272710736221,-0.0850585222105069,-0.00384147778949313));
#487=CARTESIAN_POINT('',(0.,-0.0889,0.));
#488=CARTESIAN_POINT('',(-0.0556448866736959,-0.0773755666315206,-0.0115244333684794));
#489=CARTESIAN_POINT('',(0.0889,2.77555756156289E-17,0.));
#490=CARTESIAN_POINT('',(0.0850585222105069,0.0588272710736221,-0.00384147778949312));
#491=CARTESIAN_POINT('',(-0.0746592316367926,-0.0746592316367925,0.));
#492=CARTESIAN_POINT('',(-0.0850585222105069,-0.058827271073622,-0.00384147778949312));
#493=CARTESIAN_POINT('',(0.0746592316367926,0.0746592316367926,0.));
#494=CARTESIAN_POINT('',(0.0556448866736959,0.0773755666315207,-0.0115244333684794));
#495=CARTESIAN_POINT('',(-0.0889,2.77555756156289E-17,0.));
#496=CARTESIAN_POINT('',(-0.0773755666315206,0.0556448866736959,-0.0115244333684794));
#497=CARTESIAN_POINT('',(0.,0.0889,0.));
#498=CARTESIAN_POINT('',(-0.0556448866736958,0.0773755666315207,-0.0115244333684794));
#499=CARTESIAN_POINT('',(-0.0746592316367925,0.0746592316367926,0.));
#500=MECHANICAL_DESIGN_GEOMETRIC_PRESENTATION_REPRESENTATION('',(#309),
#501);
#501=(
GEOMETRIC_REPRESENTATION_CONTEXT(3)
GLOBAL_UNCERTAINTY_ASSIGNED_CONTEXT((#502))
GLOBAL_UNIT_ASSIGNED_CONTEXT((#505,#504,#503))
REPRESENTATION_CONTEXT('Part 1','TOP_LEVEL_ASSEMBLY_PART')
);
#502=UNCERTAINTY_MEASURE_WITH_UNIT(LENGTH_MEASURE(1.E-8),#505,
'DISTANCE_ACCURACY_VALUE','Maximum Tolerance applied to model');
#503=(
NAMED_UNIT(*)
SI_UNIT($,.STERADIAN.)
SOLID_ANGLE_UNIT()
);
#504=(
NAMED_UNIT(*)
PLANE_ANGLE_UNIT()
SI_UNIT($,.RADIAN.)
);
#505=(
LENGTH_UNIT()
NAMED_UNIT(*)
SI_UNIT($,.METRE.)
);
#506=PRODUCT_DEFINITION_SHAPE('','',#507);
#507=PRODUCT_DEFINITION('','',#509,#508);
#508=PRODUCT_DEFINITION_CONTEXT('',#515,'design');
#509=PRODUCT_DEFINITION_FORMATION_WITH_SPECIFIED_SOURCE('','',#511,
 .NOT_KNOWN.);
#510=PRODUCT_RELATED_PRODUCT_CATEGORY('','',(#511));
#511=PRODUCT('Part 1','Part 1','Part 1',(#513));
#512=PRODUCT_CATEGORY('','');
#513=PRODUCT_CONTEXT('',#515,'mechanical');
#514=APPLICATION_PROTOCOL_DEFINITION('international standard',
'ap242_managed_model_based_3d_engineering',2020,#515);
#515=APPLICATION_CONTEXT('managed model based 3d engineering');
ENDSEC;
END-ISO-10303-21;
