ISO-10303-21;
HEADER;
/* Generated by software containing ST-Developer
 * from STEP Tools, Inc. (www.steptools.com) 
 */
/* OPTION: using custom renumber hook */

FILE_DESCRIPTION(
/* description */ ('STEP AP242 Edition 2',
'CAx-IF Rec.Pracs.---Representation and Presentation of Product Manufa
cturing Information (PMI)---4.0---2014-10-13',
'CAx-IF Rec.Pracs.---3D Tessellated Geometry---0.4---2014-09-14','2;1',
'CAx-IF Rec.Pracs.---User Defined Attributes---1.5---2016-08-15'),
/* implementation_level */ '2;1');

FILE_NAME(
/* name */ 'Heat Set Chassis + Wedge - Cap-Chassis',
/* time_stamp */ '2026-08-20T18:19:24Z',
/* author */ (''),
/* organization */ (''),
/* preprocessor_version */ 'ST-DEVELOPER v20',
/* originating_system */ 'ONSHAPE BY PTC INC, 1.219',
/* authorisation */ '  ');

FILE_SCHEMA (('AP242_MANAGED_MODEL_BASED_3D_ENGINEERING_MIM_LF { 1 0 10303 442 3 1 4 }'));
ENDSEC;

DATA;
#10=SHAPE_REPRESENTATION_RELATIONSHIP('','',#189,#11);
#11=ADVANCED_BREP_SHAPE_REPRESENTATION('',(#187),#319);
#12=PLANE('',#209);
#13=PLANE('',#211);
#14=PLANE('',#217);
#15=ORIENTED_EDGE('',*,*,#47,.F.);
#16=ORIENTED_EDGE('',*,*,#48,.F.);
#17=ORIENTED_EDGE('',*,*,#49,.F.);
#18=ORIENTED_EDGE('',*,*,#50,.F.);
#19=ORIENTED_EDGE('',*,*,#51,.F.);
#20=ORIENTED_EDGE('',*,*,#52,.F.);
#21=ORIENTED_EDGE('',*,*,#53,.F.);
#22=ORIENTED_EDGE('',*,*,#54,.F.);
#23=ORIENTED_EDGE('',*,*,#55,.F.);
#24=ORIENTED_EDGE('',*,*,#56,.F.);
#25=ORIENTED_EDGE('',*,*,#57,.F.);
#26=ORIENTED_EDGE('',*,*,#58,.T.);
#27=ORIENTED_EDGE('',*,*,#47,.T.);
#28=ORIENTED_EDGE('',*,*,#49,.T.);
#29=ORIENTED_EDGE('',*,*,#51,.T.);
#30=ORIENTED_EDGE('',*,*,#53,.T.);
#31=ORIENTED_EDGE('',*,*,#55,.T.);
#32=ORIENTED_EDGE('',*,*,#59,.T.);
#33=ORIENTED_EDGE('',*,*,#57,.T.);
#34=ORIENTED_EDGE('',*,*,#60,.F.);
#35=ORIENTED_EDGE('',*,*,#48,.T.);
#36=ORIENTED_EDGE('',*,*,#50,.T.);
#37=ORIENTED_EDGE('',*,*,#52,.T.);
#38=ORIENTED_EDGE('',*,*,#54,.T.);
#39=ORIENTED_EDGE('',*,*,#56,.T.);
#40=ORIENTED_EDGE('',*,*,#61,.T.);
#41=ORIENTED_EDGE('',*,*,#58,.F.);
#42=ORIENTED_EDGE('',*,*,#59,.F.);
#43=ORIENTED_EDGE('',*,*,#61,.F.);
#44=ORIENTED_EDGE('',*,*,#62,.F.);
#45=ORIENTED_EDGE('',*,*,#60,.T.);
#46=ORIENTED_EDGE('',*,*,#62,.T.);
#47=EDGE_CURVE('',#63,#63,#79,.F.);
#48=EDGE_CURVE('',#64,#64,#80,.T.);
#49=EDGE_CURVE('',#65,#65,#81,.F.);
#50=EDGE_CURVE('',#66,#66,#82,.T.);
#51=EDGE_CURVE('',#67,#67,#83,.F.);
#52=EDGE_CURVE('',#68,#68,#84,.T.);
#53=EDGE_CURVE('',#69,#69,#85,.F.);
#54=EDGE_CURVE('',#70,#70,#86,.T.);
#55=EDGE_CURVE('',#71,#71,#87,.F.);
#56=EDGE_CURVE('',#72,#72,#88,.T.);
#57=EDGE_CURVE('',#73,#73,#89,.T.);
#58=EDGE_CURVE('',#74,#74,#90,.T.);
#59=EDGE_CURVE('',#75,#75,#91,.F.);
#60=EDGE_CURVE('',#76,#76,#92,.T.);
#61=EDGE_CURVE('',#77,#77,#93,.T.);
#62=EDGE_CURVE('',#78,#78,#94,.T.);
#63=VERTEX_POINT('',#277);
#64=VERTEX_POINT('',#279);
#65=VERTEX_POINT('',#282);
#66=VERTEX_POINT('',#284);
#67=VERTEX_POINT('',#287);
#68=VERTEX_POINT('',#289);
#69=VERTEX_POINT('',#292);
#70=VERTEX_POINT('',#294);
#71=VERTEX_POINT('',#297);
#72=VERTEX_POINT('',#299);
#73=VERTEX_POINT('',#302);
#74=VERTEX_POINT('',#304);
#75=VERTEX_POINT('',#307);
#76=VERTEX_POINT('',#310);
#77=VERTEX_POINT('',#312);
#78=VERTEX_POINT('',#316);
#79=CIRCLE('',#192,0.0022479);
#80=CIRCLE('',#193,0.0022479);
#81=CIRCLE('',#195,0.0022479);
#82=CIRCLE('',#196,0.0022479);
#83=CIRCLE('',#198,0.0022479);
#84=CIRCLE('',#199,0.0022479);
#85=CIRCLE('',#201,0.0022479);
#86=CIRCLE('',#202,0.0022479);
#87=CIRCLE('',#204,0.0022479);
#88=CIRCLE('',#205,0.0022479);
#89=CIRCLE('',#207,0.073025);
#90=CIRCLE('',#208,0.073025);
#91=CIRCLE('',#210,0.0022479);
#92=CIRCLE('',#212,0.057531);
#93=CIRCLE('',#213,0.0022479);
#94=CIRCLE('',#216,0.057531);
#95=EDGE_LOOP('',(#15));
#96=EDGE_LOOP('',(#16));
#97=EDGE_LOOP('',(#17));
#98=EDGE_LOOP('',(#18));
#99=EDGE_LOOP('',(#19));
#100=EDGE_LOOP('',(#20));
#101=EDGE_LOOP('',(#21));
#102=EDGE_LOOP('',(#22));
#103=EDGE_LOOP('',(#23));
#104=EDGE_LOOP('',(#24));
#105=EDGE_LOOP('',(#25));
#106=EDGE_LOOP('',(#26));
#107=EDGE_LOOP('',(#27));
#108=EDGE_LOOP('',(#28));
#109=EDGE_LOOP('',(#29));
#110=EDGE_LOOP('',(#30));
#111=EDGE_LOOP('',(#31));
#112=EDGE_LOOP('',(#32));
#113=EDGE_LOOP('',(#33));
#114=EDGE_LOOP('',(#34));
#115=EDGE_LOOP('',(#35));
#116=EDGE_LOOP('',(#36));
#117=EDGE_LOOP('',(#37));
#118=EDGE_LOOP('',(#38));
#119=EDGE_LOOP('',(#39));
#120=EDGE_LOOP('',(#40));
#121=EDGE_LOOP('',(#41));
#122=EDGE_LOOP('',(#42));
#123=EDGE_LOOP('',(#43));
#124=EDGE_LOOP('',(#44));
#125=EDGE_LOOP('',(#45));
#126=EDGE_LOOP('',(#46));
#127=FACE_BOUND('',#95,.T.);
#128=FACE_BOUND('',#96,.T.);
#129=FACE_BOUND('',#97,.T.);
#130=FACE_BOUND('',#98,.T.);
#131=FACE_BOUND('',#99,.T.);
#132=FACE_BOUND('',#100,.T.);
#133=FACE_BOUND('',#101,.T.);
#134=FACE_BOUND('',#102,.T.);
#135=FACE_BOUND('',#103,.T.);
#136=FACE_BOUND('',#104,.T.);
#137=FACE_BOUND('',#105,.T.);
#138=FACE_BOUND('',#106,.T.);
#139=FACE_BOUND('',#107,.T.);
#140=FACE_BOUND('',#108,.T.);
#141=FACE_BOUND('',#109,.T.);
#142=FACE_BOUND('',#110,.T.);
#143=FACE_BOUND('',#111,.T.);
#144=FACE_BOUND('',#112,.T.);
#145=FACE_BOUND('',#113,.T.);
#146=FACE_BOUND('',#114,.T.);
#147=FACE_BOUND('',#115,.T.);
#148=FACE_BOUND('',#116,.T.);
#149=FACE_BOUND('',#117,.T.);
#150=FACE_BOUND('',#118,.T.);
#151=FACE_BOUND('',#119,.T.);
#152=FACE_BOUND('',#120,.T.);
#153=FACE_BOUND('',#121,.T.);
#154=FACE_BOUND('',#122,.T.);
#155=FACE_BOUND('',#123,.T.);
#156=FACE_BOUND('',#124,.T.);
#157=FACE_BOUND('',#125,.T.);
#158=FACE_BOUND('',#126,.T.);
#159=CYLINDRICAL_SURFACE('',#191,0.0022479);
#160=CYLINDRICAL_SURFACE('',#194,0.0022479);
#161=CYLINDRICAL_SURFACE('',#197,0.0022479);
#162=CYLINDRICAL_SURFACE('',#200,0.0022479);
#163=CYLINDRICAL_SURFACE('',#203,0.0022479);
#164=CYLINDRICAL_SURFACE('',#206,0.073025);
#165=CYLINDRICAL_SURFACE('',#214,0.0022479);
#166=CYLINDRICAL_SURFACE('',#215,0.057531);
#167=ADVANCED_FACE('',(#127,#128),#159,.F.);
#168=ADVANCED_FACE('',(#129,#130),#160,.F.);
#169=ADVANCED_FACE('',(#131,#132),#161,.F.);
#170=ADVANCED_FACE('',(#133,#134),#162,.F.);
#171=ADVANCED_FACE('',(#135,#136),#163,.F.);
#172=ADVANCED_FACE('',(#137,#138),#164,.T.);
#173=ADVANCED_FACE('',(#139,#140,#141,#142,#143,#144,#145),#12,.T.);
#174=ADVANCED_FACE('',(#146,#147,#148,#149,#150,#151,#152,#153),#13,.F.);
#175=ADVANCED_FACE('',(#154,#155),#165,.F.);
#176=ADVANCED_FACE('',(#156,#157),#166,.T.);
#177=ADVANCED_FACE('',(#158),#14,.T.);
#178=CLOSED_SHELL('',(#167,#168,#169,#170,#171,#172,#173,#174,#175,#176,
#177));
#179=STYLED_ITEM('',(#180),#187);
#180=PRESENTATION_STYLE_ASSIGNMENT((#181));
#181=SURFACE_STYLE_USAGE(.BOTH.,#182);
#182=SURFACE_SIDE_STYLE('',(#183));
#183=SURFACE_STYLE_FILL_AREA(#184);
#184=FILL_AREA_STYLE('',(#185));
#185=FILL_AREA_STYLE_COLOUR('',#186);
#186=COLOUR_RGB('',0.917647058823529,0.917647058823529,0.917647058823529);
#187=MANIFOLD_SOLID_BREP('Cap-Chassis',#178);
#188=SHAPE_DEFINITION_REPRESENTATION(#324,#189);
#189=SHAPE_REPRESENTATION('Cap-Chassis',(#190),#319);
#190=AXIS2_PLACEMENT_3D('',#274,#218,#219);
#191=AXIS2_PLACEMENT_3D('',#275,#220,#221);
#192=AXIS2_PLACEMENT_3D('',#276,#222,#223);
#193=AXIS2_PLACEMENT_3D('',#278,#224,#225);
#194=AXIS2_PLACEMENT_3D('',#280,#226,#227);
#195=AXIS2_PLACEMENT_3D('',#281,#228,#229);
#196=AXIS2_PLACEMENT_3D('',#283,#230,#231);
#197=AXIS2_PLACEMENT_3D('',#285,#232,#233);
#198=AXIS2_PLACEMENT_3D('',#286,#234,#235);
#199=AXIS2_PLACEMENT_3D('',#288,#236,#237);
#200=AXIS2_PLACEMENT_3D('',#290,#238,#239);
#201=AXIS2_PLACEMENT_3D('',#291,#240,#241);
#202=AXIS2_PLACEMENT_3D('',#293,#242,#243);
#203=AXIS2_PLACEMENT_3D('',#295,#244,#245);
#204=AXIS2_PLACEMENT_3D('',#296,#246,#247);
#205=AXIS2_PLACEMENT_3D('',#298,#248,#249);
#206=AXIS2_PLACEMENT_3D('',#300,#250,#251);
#207=AXIS2_PLACEMENT_3D('',#301,#252,#253);
#208=AXIS2_PLACEMENT_3D('',#303,#254,#255);
#209=AXIS2_PLACEMENT_3D('',#305,#256,#257);
#210=AXIS2_PLACEMENT_3D('',#306,#258,#259);
#211=AXIS2_PLACEMENT_3D('',#308,#260,#261);
#212=AXIS2_PLACEMENT_3D('',#309,#262,#263);
#213=AXIS2_PLACEMENT_3D('',#311,#264,#265);
#214=AXIS2_PLACEMENT_3D('',#313,#266,#267);
#215=AXIS2_PLACEMENT_3D('',#314,#268,#269);
#216=AXIS2_PLACEMENT_3D('',#315,#270,#271);
#217=AXIS2_PLACEMENT_3D('',#317,#272,#273);
#218=DIRECTION('',(0.,0.,1.));
#219=DIRECTION('',(1.,0.,0.));
#220=DIRECTION('',(0.,0.,-1.));
#221=DIRECTION('',(-0.5,-0.866025403784439,0.));
#222=DIRECTION('',(0.,0.,1.));
#223=DIRECTION('',(0.5,0.866025403784439,0.));
#224=DIRECTION('',(0.,0.,1.));
#225=DIRECTION('',(0.5,0.866025403784439,0.));
#226=DIRECTION('',(0.,0.,-1.));
#227=DIRECTION('',(0.5,-0.866025403784438,0.));
#228=DIRECTION('',(0.,0.,1.));
#229=DIRECTION('',(-0.5,0.866025403784438,0.));
#230=DIRECTION('',(0.,0.,1.));
#231=DIRECTION('',(-0.5,0.866025403784438,0.));
#232=DIRECTION('',(0.,0.,-1.));
#233=DIRECTION('',(1.,1.22464679914735E-16,0.));
#234=DIRECTION('',(0.,0.,1.));
#235=DIRECTION('',(-1.,-1.22464679914735E-16,0.));
#236=DIRECTION('',(0.,0.,1.));
#237=DIRECTION('',(-1.,-1.22464679914735E-16,0.));
#238=DIRECTION('',(0.,0.,-1.));
#239=DIRECTION('',(0.5,0.866025403784439,0.));
#240=DIRECTION('',(0.,0.,1.));
#241=DIRECTION('',(-0.5,-0.866025403784439,0.));
#242=DIRECTION('',(0.,0.,1.));
#243=DIRECTION('',(-0.5,-0.866025403784439,0.));
#244=DIRECTION('',(0.,0.,-1.));
#245=DIRECTION('',(-0.5,0.866025403784439,0.));
#246=DIRECTION('',(0.,0.,1.));
#247=DIRECTION('',(0.5,-0.866025403784439,0.));
#248=DIRECTION('',(0.,0.,1.));
#249=DIRECTION('',(0.5,-0.866025403784439,0.));
#250=DIRECTION('',(0.,0.,-1.));
#251=DIRECTION('',(-1.,0.,0.));
#252=DIRECTION('',(0.,0.,1.));
#253=DIRECTION('',(1.,0.,0.));
#254=DIRECTION('',(0.,0.,1.));
#255=DIRECTION('',(1.,0.,0.));
#256=DIRECTION('',(0.,0.,1.));
#257=DIRECTION('',(1.,0.,0.));
#258=DIRECTION('',(0.,0.,1.));
#259=DIRECTION('',(1.,0.,0.));
#260=DIRECTION('',(0.,0.,1.));
#261=DIRECTION('',(1.,0.,0.));
#262=DIRECTION('',(0.,0.,-1.));
#263=DIRECTION('',(-1.,0.,0.));
#264=DIRECTION('',(0.,0.,1.));
#265=DIRECTION('',(1.,0.,0.));
#266=DIRECTION('',(0.,0.,-1.));
#267=DIRECTION('',(-1.,0.,0.));
#268=DIRECTION('',(0.,0.,1.));
#269=DIRECTION('',(1.,0.,0.));
#270=DIRECTION('',(0.,0.,-1.));
#271=DIRECTION('',(-1.,0.,0.));
#272=DIRECTION('',(0.,0.,-1.));
#273=DIRECTION('',(1.,0.,0.));
#274=CARTESIAN_POINT('',(0.,0.,0.));
#275=CARTESIAN_POINT('',(-0.0561922823433469,0.0324426293373107,0.25019));
#276=CARTESIAN_POINT('',(-0.0561922823433469,0.0324426293373107,0.2159));
#277=CARTESIAN_POINT('',(-0.0550683323433469,0.0343893678424778,0.2159));
#278=CARTESIAN_POINT('',(-0.0561922823433469,0.0324426293373107,0.2032));
#279=CARTESIAN_POINT('',(-0.0550683323433469,0.0343893678424778,0.2032));
#280=CARTESIAN_POINT('',(-0.0561922823433469,-0.0324426293373108,0.25019));
#281=CARTESIAN_POINT('',(-0.0561922823433469,-0.0324426293373108,0.2159));
#282=CARTESIAN_POINT('',(-0.0573162323433469,-0.0304958908321438,0.2159));
#283=CARTESIAN_POINT('',(-0.0561922823433469,-0.0324426293373108,0.2032));
#284=CARTESIAN_POINT('',(-0.0573162323433469,-0.0304958908321438,0.2032));
#285=CARTESIAN_POINT('',(7.94615243477234E-18,-0.0648852586746216,0.25019));
#286=CARTESIAN_POINT('',(7.94615243477234E-18,-0.0648852586746216,0.2159));
#287=CARTESIAN_POINT('',(-0.00224789999999999,-0.0648852586746216,0.2159));
#288=CARTESIAN_POINT('',(7.94615243477234E-18,-0.0648852586746216,0.2032));
#289=CARTESIAN_POINT('',(-0.00224789999999999,-0.0648852586746216,0.2032));
#290=CARTESIAN_POINT('',(0.0561922823433469,-0.0324426293373108,0.25019));
#291=CARTESIAN_POINT('',(0.0561922823433469,-0.0324426293373108,0.2159));
#292=CARTESIAN_POINT('',(0.0550683323433469,-0.0343893678424778,0.2159));
#293=CARTESIAN_POINT('',(0.0561922823433469,-0.0324426293373108,0.2032));
#294=CARTESIAN_POINT('',(0.0550683323433469,-0.0343893678424778,0.2032));
#295=CARTESIAN_POINT('',(0.0561922823433469,0.0324426293373108,0.25019));
#296=CARTESIAN_POINT('',(0.0561922823433469,0.0324426293373108,0.2159));
#297=CARTESIAN_POINT('',(0.0573162323433469,0.0304958908321438,0.2159));
#298=CARTESIAN_POINT('',(0.0561922823433469,0.0324426293373108,0.2032));
#299=CARTESIAN_POINT('',(0.0573162323433469,0.0304958908321438,0.2032));
#300=CARTESIAN_POINT('',(0.,4.47149162538678E-18,0.2159));
#301=CARTESIAN_POINT('',(0.,4.47149162538678E-18,0.2159));
#302=CARTESIAN_POINT('',(0.073025,4.47149162538678E-18,0.2159));
#303=CARTESIAN_POINT('',(0.,4.47149162538678E-18,0.2032));
#304=CARTESIAN_POINT('',(0.073025,4.47149162538678E-18,0.2032));
#305=CARTESIAN_POINT('',(0.,0.,0.2159));
#306=CARTESIAN_POINT('',(0.,0.0648852586746216,0.2159));
#307=CARTESIAN_POINT('',(0.0022479,0.0648852586746216,0.2159));
#308=CARTESIAN_POINT('',(0.,0.,0.2032));
#309=CARTESIAN_POINT('',(0.,-3.52275775008732E-18,0.2032));
#310=CARTESIAN_POINT('',(-0.057531,-3.52275775008732E-18,0.2032));
#311=CARTESIAN_POINT('',(0.,0.0648852586746216,0.2032));
#312=CARTESIAN_POINT('',(0.0022479,0.0648852586746216,0.2032));
#313=CARTESIAN_POINT('',(0.,0.0648852586746216,0.25019));
#314=CARTESIAN_POINT('',(0.,-3.52275775008732E-18,0.19685));
#315=CARTESIAN_POINT('',(0.,-3.52275775008732E-18,0.19685));
#316=CARTESIAN_POINT('',(-0.057531,-3.52275775008732E-18,0.19685));
#317=CARTESIAN_POINT('',(0.,0.,0.19685));
#318=MECHANICAL_DESIGN_GEOMETRIC_PRESENTATION_REPRESENTATION('',(#179),
#319);
#319=(
GEOMETRIC_REPRESENTATION_CONTEXT(3)
GLOBAL_UNCERTAINTY_ASSIGNED_CONTEXT((#320))
GLOBAL_UNIT_ASSIGNED_CONTEXT((#323,#322,#321))
REPRESENTATION_CONTEXT('Cap-Chassis','TOP_LEVEL_ASSEMBLY_PART')
);
#320=UNCERTAINTY_MEASURE_WITH_UNIT(LENGTH_MEASURE(1.E-8),#323,
'DISTANCE_ACCURACY_VALUE','Maximum Tolerance applied to model');
#321=(
NAMED_UNIT(*)
SI_UNIT($,.STERADIAN.)
SOLID_ANGLE_UNIT()
);
#322=(
NAMED_UNIT(*)
PLANE_ANGLE_UNIT()
SI_UNIT($,.RADIAN.)
);
#323=(
LENGTH_UNIT()
NAMED_UNIT(*)
SI_UNIT($,.METRE.)
);
#324=PRODUCT_DEFINITION_SHAPE('','',#325);
#325=PRODUCT_DEFINITION('','',#327,#326);
#326=PRODUCT_DEFINITION_CONTEXT('',#333,'design');
#327=PRODUCT_DEFINITION_FORMATION_WITH_SPECIFIED_SOURCE('','',#329,
 .NOT_KNOWN.);
#328=PRODUCT_RELATED_PRODUCT_CATEGORY('','',(#329));
#329=PRODUCT('Cap-Chassis','Cap-Chassis','Cap-Chassis',(#331));
#330=PRODUCT_CATEGORY('','');
#331=PRODUCT_CONTEXT('',#333,'mechanical');
#332=APPLICATION_PROTOCOL_DEFINITION('international standard',
'ap242_managed_model_based_3d_engineering',2020,#333);
#333=APPLICATION_CONTEXT('managed model based 3d engineering');
ENDSEC;
END-ISO-10303-21;
