ISO-10303-21;
HEADER;
/* Generated by software containing ST-Developer
 * from STEP Tools, Inc. (www.steptools.com) 
 */
/* OPTION: using custom renumber hook */

FILE_DESCRIPTION(
/* description */ ('STEP AP242 Edition 2',
'CAx-IF Rec.Pracs.---Representation and Presentation of Product Manufa
cturing Information (PMI)---4.0---2014-10-13',
'CAx-IF Rec.Pracs.---3D Tessellated Geometry---0.4---2014-09-14','2;1',
'CAx-IF Rec.Pracs.---User Defined Attributes---1.5---2016-08-15'),
/* implementation_level */ '2;1');

FILE_NAME(
/* name */ 'Heat Set Chassis + Wedge - Wedge Cap',
/* time_stamp */ '2026-08-20T18:19:24Z',
/* author */ (''),
/* organization */ (''),
/* preprocessor_version */ 'ST-DEVELOPER v20',
/* originating_system */ 'ONSHAPE BY PTC INC, 1.219',
/* authorisation */ '  ');

FILE_SCHEMA (('AP242_MANAGED_MODEL_BASED_3D_ENGINEERING_MIM_LF { 1 0 10303 442 3 1 4 }'));
ENDSEC;

DATA;
#10=SHAPE_REPRESENTATION_RELATIONSHIP('','',#275,#11);
#11=ADVANCED_BREP_SHAPE_REPRESENTATION('',(#273),#449);
#12=CONICAL_SURFACE('',#298,0.2286,0.785398163397448);
#13=PLANE('',#280);
#14=PLANE('',#281);
#15=PLANE('',#282);
#16=PLANE('',#288);
#17=PLANE('',#289);
#18=PLANE('',#290);
#19=PLANE('',#291);
#20=PLANE('',#292);
#21=PLANE('',#294);
#22=PLANE('',#295);
#23=PLANE('',#296);
#24=LINE('',#378,#52);
#25=LINE('',#382,#53);
#26=LINE('',#384,#54);
#27=LINE('',#386,#55);
#28=LINE('',#388,#56);
#29=LINE('',#390,#57);
#30=LINE('',#392,#58);
#31=LINE('',#394,#59);
#32=LINE('',#396,#60);
#33=LINE('',#398,#61);
#34=LINE('',#400,#62);
#35=LINE('',#402,#63);
#36=LINE('',#407,#64);
#37=LINE('',#411,#65);
#38=LINE('',#416,#66);
#39=LINE('',#418,#67);
#40=LINE('',#420,#68);
#41=LINE('',#422,#69);
#42=LINE('',#424,#70);
#43=LINE('',#426,#71);
#44=LINE('',#428,#72);
#45=LINE('',#429,#73);
#46=LINE('',#432,#74);
#47=LINE('',#436,#75);
#48=LINE('',#438,#76);
#49=LINE('',#440,#77);
#50=LINE('',#442,#78);
#51=LINE('',#444,#79);
#52=VECTOR('',#305,1.);
#53=VECTOR('',#308,1.);
#54=VECTOR('',#311,1.);
#55=VECTOR('',#312,1.);
#56=VECTOR('',#313,1.);
#57=VECTOR('',#316,1.);
#58=VECTOR('',#317,1.);
#59=VECTOR('',#318,1.);
#60=VECTOR('',#321,1.);
#61=VECTOR('',#322,1.);
#62=VECTOR('',#323,1.);
#63=VECTOR('',#326,1.);
#64=VECTOR('',#329,1.);
#65=VECTOR('',#332,1.);
#66=VECTOR('',#339,1.);
#67=VECTOR('',#340,1.);
#68=VECTOR('',#341,1.);
#69=VECTOR('',#344,1.);
#70=VECTOR('',#345,1.);
#71=VECTOR('',#346,1.);
#72=VECTOR('',#349,1.);
#73=VECTOR('',#350,1.);
#74=VECTOR('',#355,1.);
#75=VECTOR('',#358,1.);
#76=VECTOR('',#361,1.);
#77=VECTOR('',#362,1.);
#78=VECTOR('',#365,1.);
#79=VECTOR('',#366,1.);
#80=ORIENTED_EDGE('',*,*,#152,.T.);
#81=ORIENTED_EDGE('',*,*,#153,.F.);
#82=ORIENTED_EDGE('',*,*,#154,.F.);
#83=ORIENTED_EDGE('',*,*,#155,.T.);
#84=ORIENTED_EDGE('',*,*,#156,.F.);
#85=ORIENTED_EDGE('',*,*,#155,.F.);
#86=ORIENTED_EDGE('',*,*,#157,.T.);
#87=ORIENTED_EDGE('',*,*,#158,.T.);
#88=ORIENTED_EDGE('',*,*,#159,.F.);
#89=ORIENTED_EDGE('',*,*,#158,.F.);
#90=ORIENTED_EDGE('',*,*,#160,.T.);
#91=ORIENTED_EDGE('',*,*,#161,.T.);
#92=ORIENTED_EDGE('',*,*,#162,.F.);
#93=ORIENTED_EDGE('',*,*,#161,.F.);
#94=ORIENTED_EDGE('',*,*,#163,.T.);
#95=ORIENTED_EDGE('',*,*,#164,.T.);
#96=ORIENTED_EDGE('',*,*,#165,.T.);
#97=ORIENTED_EDGE('',*,*,#166,.T.);
#98=ORIENTED_EDGE('',*,*,#167,.F.);
#99=ORIENTED_EDGE('',*,*,#168,.F.);
#100=ORIENTED_EDGE('',*,*,#169,.T.);
#101=ORIENTED_EDGE('',*,*,#170,.T.);
#102=ORIENTED_EDGE('',*,*,#164,.F.);
#103=ORIENTED_EDGE('',*,*,#171,.T.);
#104=ORIENTED_EDGE('',*,*,#172,.F.);
#105=ORIENTED_EDGE('',*,*,#165,.F.);
#106=ORIENTED_EDGE('',*,*,#173,.T.);
#107=ORIENTED_EDGE('',*,*,#174,.T.);
#108=ORIENTED_EDGE('',*,*,#175,.F.);
#109=ORIENTED_EDGE('',*,*,#174,.F.);
#110=ORIENTED_EDGE('',*,*,#176,.T.);
#111=ORIENTED_EDGE('',*,*,#177,.T.);
#112=ORIENTED_EDGE('',*,*,#178,.F.);
#113=ORIENTED_EDGE('',*,*,#177,.F.);
#114=ORIENTED_EDGE('',*,*,#179,.T.);
#115=ORIENTED_EDGE('',*,*,#153,.T.);
#116=ORIENTED_EDGE('',*,*,#154,.T.);
#117=ORIENTED_EDGE('',*,*,#179,.F.);
#118=ORIENTED_EDGE('',*,*,#176,.F.);
#119=ORIENTED_EDGE('',*,*,#173,.F.);
#120=ORIENTED_EDGE('',*,*,#171,.F.);
#121=ORIENTED_EDGE('',*,*,#163,.F.);
#122=ORIENTED_EDGE('',*,*,#160,.F.);
#123=ORIENTED_EDGE('',*,*,#157,.F.);
#124=ORIENTED_EDGE('',*,*,#159,.T.);
#125=ORIENTED_EDGE('',*,*,#162,.T.);
#126=ORIENTED_EDGE('',*,*,#170,.F.);
#127=ORIENTED_EDGE('',*,*,#180,.T.);
#128=ORIENTED_EDGE('',*,*,#181,.T.);
#129=ORIENTED_EDGE('',*,*,#182,.F.);
#130=ORIENTED_EDGE('',*,*,#166,.F.);
#131=ORIENTED_EDGE('',*,*,#172,.T.);
#132=ORIENTED_EDGE('',*,*,#175,.T.);
#133=ORIENTED_EDGE('',*,*,#178,.T.);
#134=ORIENTED_EDGE('',*,*,#152,.F.);
#135=ORIENTED_EDGE('',*,*,#156,.T.);
#136=ORIENTED_EDGE('',*,*,#182,.T.);
#137=ORIENTED_EDGE('',*,*,#183,.T.);
#138=ORIENTED_EDGE('',*,*,#184,.F.);
#139=ORIENTED_EDGE('',*,*,#167,.T.);
#140=ORIENTED_EDGE('',*,*,#185,.T.);
#141=ORIENTED_EDGE('',*,*,#186,.T.);
#142=ORIENTED_EDGE('',*,*,#180,.F.);
#143=ORIENTED_EDGE('',*,*,#169,.F.);
#144=ORIENTED_EDGE('',*,*,#184,.T.);
#145=ORIENTED_EDGE('',*,*,#187,.T.);
#146=ORIENTED_EDGE('',*,*,#185,.F.);
#147=ORIENTED_EDGE('',*,*,#168,.T.);
#148=ORIENTED_EDGE('',*,*,#186,.F.);
#149=ORIENTED_EDGE('',*,*,#187,.F.);
#150=ORIENTED_EDGE('',*,*,#183,.F.);
#151=ORIENTED_EDGE('',*,*,#181,.F.);
#152=EDGE_CURVE('',#188,#189,#212,.T.);
#153=EDGE_CURVE('',#190,#189,#24,.T.);
#154=EDGE_CURVE('',#191,#190,#213,.T.);
#155=EDGE_CURVE('',#191,#188,#25,.T.);
#156=EDGE_CURVE('',#188,#192,#26,.T.);
#157=EDGE_CURVE('',#191,#193,#27,.T.);
#158=EDGE_CURVE('',#193,#192,#28,.T.);
#159=EDGE_CURVE('',#192,#194,#29,.T.);
#160=EDGE_CURVE('',#193,#195,#30,.T.);
#161=EDGE_CURVE('',#195,#194,#31,.T.);
#162=EDGE_CURVE('',#194,#196,#32,.T.);
#163=EDGE_CURVE('',#195,#197,#33,.T.);
#164=EDGE_CURVE('',#197,#196,#34,.T.);
#165=EDGE_CURVE('',#198,#199,#35,.T.);
#166=EDGE_CURVE('',#199,#200,#214,.T.);
#167=EDGE_CURVE('',#201,#200,#36,.T.);
#168=EDGE_CURVE('',#202,#201,#215,.T.);
#169=EDGE_CURVE('',#202,#203,#37,.T.);
#170=EDGE_CURVE('',#203,#196,#216,.T.);
#171=EDGE_CURVE('',#197,#198,#217,.T.);
#172=EDGE_CURVE('',#199,#204,#38,.T.);
#173=EDGE_CURVE('',#198,#205,#39,.T.);
#174=EDGE_CURVE('',#205,#204,#40,.T.);
#175=EDGE_CURVE('',#204,#206,#41,.T.);
#176=EDGE_CURVE('',#205,#207,#42,.T.);
#177=EDGE_CURVE('',#207,#206,#43,.T.);
#178=EDGE_CURVE('',#206,#189,#44,.T.);
#179=EDGE_CURVE('',#207,#190,#45,.T.);
#180=EDGE_CURVE('',#203,#208,#46,.T.);
#181=EDGE_CURVE('',#208,#209,#218,.T.);
#182=EDGE_CURVE('',#200,#209,#47,.T.);
#183=EDGE_CURVE('',#209,#210,#48,.F.);
#184=EDGE_CURVE('',#201,#210,#49,.T.);
#185=EDGE_CURVE('',#202,#211,#50,.T.);
#186=EDGE_CURVE('',#211,#208,#51,.T.);
#187=EDGE_CURVE('',#210,#211,#219,.T.);
#188=VERTEX_POINT('',#376);
#189=VERTEX_POINT('',#377);
#190=VERTEX_POINT('',#379);
#191=VERTEX_POINT('',#381);
#192=VERTEX_POINT('',#385);
#193=VERTEX_POINT('',#387);
#194=VERTEX_POINT('',#391);
#195=VERTEX_POINT('',#393);
#196=VERTEX_POINT('',#397);
#197=VERTEX_POINT('',#399);
#198=VERTEX_POINT('',#403);
#199=VERTEX_POINT('',#404);
#200=VERTEX_POINT('',#406);
#201=VERTEX_POINT('',#408);
#202=VERTEX_POINT('',#410);
#203=VERTEX_POINT('',#412);
#204=VERTEX_POINT('',#417);
#205=VERTEX_POINT('',#419);
#206=VERTEX_POINT('',#423);
#207=VERTEX_POINT('',#425);
#208=VERTEX_POINT('',#433);
#209=VERTEX_POINT('',#435);
#210=VERTEX_POINT('',#439);
#211=VERTEX_POINT('',#443);
#212=CIRCLE('',#278,0.221869);
#213=CIRCLE('',#279,0.221869);
#214=CIRCLE('',#284,0.073406);
#215=CIRCLE('',#285,0.073406);
#216=CIRCLE('',#286,0.073406);
#217=CIRCLE('',#287,0.073406);
#218=CIRCLE('',#293,0.2286);
#219=CIRCLE('',#297,0.2159);
#220=EDGE_LOOP('',(#80,#81,#82,#83));
#221=EDGE_LOOP('',(#84,#85,#86,#87));
#222=EDGE_LOOP('',(#88,#89,#90,#91));
#223=EDGE_LOOP('',(#92,#93,#94,#95));
#224=EDGE_LOOP('',(#96,#97,#98,#99,#100,#101,#102,#103));
#225=EDGE_LOOP('',(#104,#105,#106,#107));
#226=EDGE_LOOP('',(#108,#109,#110,#111));
#227=EDGE_LOOP('',(#112,#113,#114,#115));
#228=EDGE_LOOP('',(#116,#117,#118,#119,#120,#121,#122,#123));
#229=EDGE_LOOP('',(#124,#125,#126,#127,#128,#129,#130,#131,#132,#133,#134,
#135));
#230=EDGE_LOOP('',(#136,#137,#138,#139));
#231=EDGE_LOOP('',(#140,#141,#142,#143));
#232=EDGE_LOOP('',(#144,#145,#146,#147));
#233=EDGE_LOOP('',(#148,#149,#150,#151));
#234=FACE_BOUND('',#220,.T.);
#235=FACE_BOUND('',#221,.T.);
#236=FACE_BOUND('',#222,.T.);
#237=FACE_BOUND('',#223,.T.);
#238=FACE_BOUND('',#224,.T.);
#239=FACE_BOUND('',#225,.T.);
#240=FACE_BOUND('',#226,.T.);
#241=FACE_BOUND('',#227,.T.);
#242=FACE_BOUND('',#228,.T.);
#243=FACE_BOUND('',#229,.T.);
#244=FACE_BOUND('',#230,.T.);
#245=FACE_BOUND('',#231,.T.);
#246=FACE_BOUND('',#232,.T.);
#247=FACE_BOUND('',#233,.T.);
#248=CYLINDRICAL_SURFACE('',#277,0.221869);
#249=CYLINDRICAL_SURFACE('',#283,0.073406);
#250=ADVANCED_FACE('',(#234),#248,.T.);
#251=ADVANCED_FACE('',(#235),#13,.T.);
#252=ADVANCED_FACE('',(#236),#14,.T.);
#253=ADVANCED_FACE('',(#237),#15,.T.);
#254=ADVANCED_FACE('',(#238),#249,.F.);
#255=ADVANCED_FACE('',(#239),#16,.T.);
#256=ADVANCED_FACE('',(#240),#17,.T.);
#257=ADVANCED_FACE('',(#241),#18,.T.);
#258=ADVANCED_FACE('',(#242),#19,.F.);
#259=ADVANCED_FACE('',(#243),#20,.F.);
#260=ADVANCED_FACE('',(#244),#21,.F.);
#261=ADVANCED_FACE('',(#245),#22,.T.);
#262=ADVANCED_FACE('',(#246),#23,.T.);
#263=ADVANCED_FACE('',(#247),#12,.T.);
#264=CLOSED_SHELL('',(#250,#251,#252,#253,#254,#255,#256,#257,#258,#259,
#260,#261,#262,#263));
#265=STYLED_ITEM('',(#266),#273);
#266=PRESENTATION_STYLE_ASSIGNMENT((#267));
#267=SURFACE_STYLE_USAGE(.BOTH.,#268);
#268=SURFACE_SIDE_STYLE('',(#269));
#269=SURFACE_STYLE_FILL_AREA(#270);
#270=FILL_AREA_STYLE('',(#271));
#271=FILL_AREA_STYLE_COLOUR('',#272);
#272=COLOUR_RGB('',0.768627450980392,0.886274509803922,0.952941176470588);
#273=MANIFOLD_SOLID_BREP('Wedge Cap',#264);
#274=SHAPE_DEFINITION_REPRESENTATION(#454,#275);
#275=SHAPE_REPRESENTATION('Wedge Cap',(#276),#449);
#276=AXIS2_PLACEMENT_3D('',#373,#299,#300);
#277=AXIS2_PLACEMENT_3D('',#374,#301,#302);
#278=AXIS2_PLACEMENT_3D('',#375,#303,#304);
#279=AXIS2_PLACEMENT_3D('',#380,#306,#307);
#280=AXIS2_PLACEMENT_3D('',#383,#309,#310);
#281=AXIS2_PLACEMENT_3D('',#389,#314,#315);
#282=AXIS2_PLACEMENT_3D('',#395,#319,#320);
#283=AXIS2_PLACEMENT_3D('',#401,#324,#325);
#284=AXIS2_PLACEMENT_3D('',#405,#327,#328);
#285=AXIS2_PLACEMENT_3D('',#409,#330,#331);
#286=AXIS2_PLACEMENT_3D('',#413,#333,#334);
#287=AXIS2_PLACEMENT_3D('',#414,#335,#336);
#288=AXIS2_PLACEMENT_3D('',#415,#337,#338);
#289=AXIS2_PLACEMENT_3D('',#421,#342,#343);
#290=AXIS2_PLACEMENT_3D('',#427,#347,#348);
#291=AXIS2_PLACEMENT_3D('',#430,#351,#352);
#292=AXIS2_PLACEMENT_3D('',#431,#353,#354);
#293=AXIS2_PLACEMENT_3D('',#434,#356,#357);
#294=AXIS2_PLACEMENT_3D('',#437,#359,#360);
#295=AXIS2_PLACEMENT_3D('',#441,#363,#364);
#296=AXIS2_PLACEMENT_3D('',#445,#367,#368);
#297=AXIS2_PLACEMENT_3D('',#446,#369,#370);
#298=AXIS2_PLACEMENT_3D('',#447,#371,#372);
#299=DIRECTION('',(0.,0.,1.));
#300=DIRECTION('',(1.,0.,0.));
#301=DIRECTION('',(0.,0.,1.));
#302=DIRECTION('',(1.,0.,0.));
#303=DIRECTION('',(0.,0.,-1.));
#304=DIRECTION('',(1.,0.,0.));
#305=DIRECTION('',(0.,0.,1.));
#306=DIRECTION('',(0.,0.,-1.));
#307=DIRECTION('',(1.,0.,0.));
#308=DIRECTION('',(0.,0.,1.));
#309=DIRECTION('',(-0.866025403784439,-0.5,0.));
#310=DIRECTION('',(0.5,-0.866025403784439,0.));
#311=DIRECTION('',(0.5,-0.866025403784439,0.));
#312=DIRECTION('',(0.5,-0.866025403784439,0.));
#313=DIRECTION('',(0.,0.,1.));
#314=DIRECTION('',(0.38268343236509,-0.923879532511287,0.));
#315=DIRECTION('',(0.923879532511287,0.38268343236509,0.));
#316=DIRECTION('',(0.923879532511287,0.38268343236509,0.));
#317=DIRECTION('',(0.923879532511287,0.38268343236509,0.));
#318=DIRECTION('',(0.,0.,1.));
#319=DIRECTION('',(-0.965925826289068,-0.258819045102521,0.));
#320=DIRECTION('',(0.258819045102521,-0.965925826289068,0.));
#321=DIRECTION('',(0.258819045102521,-0.965925826289068,0.));
#322=DIRECTION('',(0.258819045102521,-0.965925826289068,0.));
#323=DIRECTION('',(0.,0.,1.));
#324=DIRECTION('',(0.,0.,1.));
#325=DIRECTION('',(1.,0.,0.));
#326=DIRECTION('',(0.,0.,1.));
#327=DIRECTION('',(0.,0.,-1.));
#328=DIRECTION('',(1.,0.,0.));
#329=DIRECTION('',(0.,0.,-1.));
#330=DIRECTION('',(0.,0.,-1.));
#331=DIRECTION('',(1.,0.,0.));
#332=DIRECTION('',(0.,0.,-1.));
#333=DIRECTION('',(0.,0.,-1.));
#334=DIRECTION('',(1.,0.,0.));
#335=DIRECTION('',(0.,0.,-1.));
#336=DIRECTION('',(1.,0.,0.));
#337=DIRECTION('',(0.965925826289068,-0.258819045102521,0.));
#338=DIRECTION('',(0.258819045102521,0.965925826289068,0.));
#339=DIRECTION('',(0.258819045102521,0.965925826289068,0.));
#340=DIRECTION('',(0.258819045102521,0.965925826289068,0.));
#341=DIRECTION('',(0.,0.,1.));
#342=DIRECTION('',(-0.382683432365091,-0.923879532511287,0.));
#343=DIRECTION('',(0.923879532511287,-0.382683432365091,0.));
#344=DIRECTION('',(0.923879532511287,-0.382683432365091,0.));
#345=DIRECTION('',(0.923879532511287,-0.382683432365091,0.));
#346=DIRECTION('',(0.,0.,1.));
#347=DIRECTION('',(0.866025403784439,-0.5,0.));
#348=DIRECTION('',(0.5,0.866025403784439,0.));
#349=DIRECTION('',(0.5,0.866025403784439,0.));
#350=DIRECTION('',(0.5,0.866025403784439,0.));
#351=DIRECTION('',(0.,0.,1.));
#352=DIRECTION('',(1.,0.,0.));
#353=DIRECTION('',(0.,0.,1.));
#354=DIRECTION('',(1.,0.,0.));
#355=DIRECTION('',(-0.5,0.866025403784439,0.));
#356=DIRECTION('',(0.,0.,-1.));
#357=DIRECTION('',(1.,0.,0.));
#358=DIRECTION('',(0.5,0.866025403784439,0.));
#359=DIRECTION('',(-0.866025403784439,0.5,0.));
#360=DIRECTION('',(-0.5,-0.866025403784439,0.));
#361=DIRECTION('',(0.353553390593274,0.612372435695795,-0.707106781186548));
#362=DIRECTION('',(0.5,0.866025403784439,0.));
#363=DIRECTION('',(-0.866025403784439,-0.5,0.));
#364=DIRECTION('',(0.5,-0.866025403784439,0.));
#365=DIRECTION('',(-0.5,0.866025403784439,0.));
#366=DIRECTION('',(-0.353553390593274,0.612372435695795,-0.707106781186548));
#367=DIRECTION('',(0.,0.,1.));
#368=DIRECTION('',(1.,0.,0.));
#369=DIRECTION('',(0.,0.,1.));
#370=DIRECTION('',(1.,0.,0.));
#371=DIRECTION('',(0.,0.,-1.));
#372=DIRECTION('',(-1.,0.,0.));
#373=CARTESIAN_POINT('',(0.,0.,0.));
#374=CARTESIAN_POINT('',(3.46944695195361E-17,0.,0.19812));
#375=CARTESIAN_POINT('',(3.46944695195361E-17,0.,0.2032));
#376=CARTESIAN_POINT('',(-0.107951649243996,0.193835741251456,0.2032));
#377=CARTESIAN_POINT('',(0.107951649243996,0.193835741251456,0.2032));
#378=CARTESIAN_POINT('',(0.107951649243996,0.193835741251456,0.19812));
#379=CARTESIAN_POINT('',(0.107951649243996,0.193835741251456,0.19812));
#380=CARTESIAN_POINT('',(3.46944695195361E-17,0.,0.19812));
#381=CARTESIAN_POINT('',(-0.107951649243996,0.193835741251456,0.19812));
#382=CARTESIAN_POINT('',(-0.107951649243996,0.193835741251456,0.19812));
#383=CARTESIAN_POINT('',(-0.0716829868721481,0.131016575300853,0.19812));
#384=CARTESIAN_POINT('',(-0.0716829868721481,0.131016575300853,0.2032));
#385=CARTESIAN_POINT('',(-0.0354143245003001,0.068197409350251,0.2032));
#386=CARTESIAN_POINT('',(-0.0716829868721481,0.131016575300853,0.19812));
#387=CARTESIAN_POINT('',(-0.0354143245003001,0.068197409350251,0.19812));
#388=CARTESIAN_POINT('',(-0.0354143245003001,0.068197409350251,0.19812));
#389=CARTESIAN_POINT('',(-0.0275225556547959,0.0714662870371724,0.19812));
#390=CARTESIAN_POINT('',(-0.0275225556547959,0.0714662870371724,0.2032));
#391=CARTESIAN_POINT('',(-0.0196307868092916,0.0747351647240937,0.2032));
#392=CARTESIAN_POINT('',(-0.0275225556547959,0.0714662870371724,0.19812));
#393=CARTESIAN_POINT('',(-0.0196307868092916,0.0747351647240937,0.19812));
#394=CARTESIAN_POINT('',(-0.0196307868092916,0.0747351647240937,0.19812));
#395=CARTESIAN_POINT('',(-0.0191306919920486,0.0728687854575411,0.19812));
#396=CARTESIAN_POINT('',(-0.0191306919920486,0.0728687854575411,0.2032));
#397=CARTESIAN_POINT('',(-0.0186305971748057,0.0710024061909885,0.2032));
#398=CARTESIAN_POINT('',(-0.0191306919920486,0.0728687854575411,0.19812));
#399=CARTESIAN_POINT('',(-0.0186305971748057,0.0710024061909885,0.19812));
#400=CARTESIAN_POINT('',(-0.0186305971748057,0.0710024061909885,0.19812));
#401=CARTESIAN_POINT('',(-5.20417042793042E-18,-4.16333634234434E-16,0.19812));
#402=CARTESIAN_POINT('',(0.0186305971748057,0.0710024061909885,0.19812));
#403=CARTESIAN_POINT('',(0.0186305971748057,0.0710024061909885,0.19812));
#404=CARTESIAN_POINT('',(0.0186305971748057,0.0710024061909885,0.2032));
#405=CARTESIAN_POINT('',(1.04083408558608E-17,-6.93889390390723E-18,0.2032));
#406=CARTESIAN_POINT('',(0.036703,0.0635714607902005,0.2032));
#407=CARTESIAN_POINT('',(0.036703,0.0635714607902005,0.2159));
#408=CARTESIAN_POINT('',(0.036703,0.0635714607902005,0.2159));
#409=CARTESIAN_POINT('',(1.04083408558608E-17,-6.93889390390723E-18,0.2159));
#410=CARTESIAN_POINT('',(-0.036703,0.0635714607902005,0.2159));
#411=CARTESIAN_POINT('',(-0.036703,0.0635714607902005,0.2159));
#412=CARTESIAN_POINT('',(-0.036703,0.0635714607902005,0.2032));
#413=CARTESIAN_POINT('',(1.04083408558608E-17,-6.93889390390723E-18,0.2032));
#414=CARTESIAN_POINT('',(-5.20417042793042E-18,-4.16333634234434E-16,0.19812));
#415=CARTESIAN_POINT('',(0.0191306919920486,0.0728687854575411,0.19812));
#416=CARTESIAN_POINT('',(0.0191306919920486,0.0728687854575411,0.2032));
#417=CARTESIAN_POINT('',(0.0196307868092915,0.0747351647240937,0.2032));
#418=CARTESIAN_POINT('',(0.0191306919920486,0.0728687854575411,0.19812));
#419=CARTESIAN_POINT('',(0.0196307868092915,0.0747351647240937,0.19812));
#420=CARTESIAN_POINT('',(0.0196307868092915,0.0747351647240937,0.19812));
#421=CARTESIAN_POINT('',(0.0275225556547958,0.0714662870371724,0.19812));
#422=CARTESIAN_POINT('',(0.0275225556547958,0.0714662870371724,0.2032));
#423=CARTESIAN_POINT('',(0.0354143245003,0.068197409350251,0.2032));
#424=CARTESIAN_POINT('',(0.0275225556547958,0.0714662870371724,0.19812));
#425=CARTESIAN_POINT('',(0.0354143245003,0.068197409350251,0.19812));
#426=CARTESIAN_POINT('',(0.0354143245003,0.068197409350251,0.19812));
#427=CARTESIAN_POINT('',(0.0716829868721481,0.131016575300853,0.19812));
#428=CARTESIAN_POINT('',(0.0716829868721481,0.131016575300853,0.2032));
#429=CARTESIAN_POINT('',(0.0716829868721481,0.131016575300853,0.19812));
#430=CARTESIAN_POINT('',(0.,0.145920752555679,0.19812));
#431=CARTESIAN_POINT('',(1.38777878078145E-17,0.1460857303951,0.2032));
#432=CARTESIAN_POINT('',(-0.0755015,0.130772434047662,0.2032));
#433=CARTESIAN_POINT('',(-0.1143,0.197973407305123,0.2032));
#434=CARTESIAN_POINT('',(2.77555756156289E-17,-2.77555756156289E-17,0.2032));
#435=CARTESIAN_POINT('',(0.1143,0.197973407305123,0.2032));
#436=CARTESIAN_POINT('',(0.0755015,0.130772434047662,0.2032));
#437=CARTESIAN_POINT('',(0.0755015,0.130772434047662,0.2159));
#438=CARTESIAN_POINT('',(1.57370588257316E-17,-2.08166817117217E-17,0.4318));
#439=CARTESIAN_POINT('',(0.10795,0.18697488467706,0.2159));
#440=CARTESIAN_POINT('',(0.0755015,0.130772434047662,0.2159));
#441=CARTESIAN_POINT('',(-0.0755015,0.130772434047662,0.2159));
#442=CARTESIAN_POINT('',(-0.0755015,0.130772434047662,0.2159));
#443=CARTESIAN_POINT('',(-0.10795,0.18697488467706,0.2159));
#444=CARTESIAN_POINT('',(-4.43555251237547E-17,-6.93889390390722E-17,0.4318));
#445=CARTESIAN_POINT('',(1.38777878078145E-17,0.1460857303951,0.2159));
#446=CARTESIAN_POINT('',(2.77555756156289E-17,-2.77555756156289E-17,0.2159));
#447=CARTESIAN_POINT('',(2.77555756156289E-17,-2.77555756156289E-17,0.2032));
#448=MECHANICAL_DESIGN_GEOMETRIC_PRESENTATION_REPRESENTATION('',(#265),
#449);
#449=(
GEOMETRIC_REPRESENTATION_CONTEXT(3)
GLOBAL_UNCERTAINTY_ASSIGNED_CONTEXT((#450))
GLOBAL_UNIT_ASSIGNED_CONTEXT((#453,#452,#451))
REPRESENTATION_CONTEXT('Wedge Cap','TOP_LEVEL_ASSEMBLY_PART')
);
#450=UNCERTAINTY_MEASURE_WITH_UNIT(LENGTH_MEASURE(1.E-8),#453,
'DISTANCE_ACCURACY_VALUE','Maximum Tolerance applied to model');
#451=(
NAMED_UNIT(*)
SI_UNIT($,.STERADIAN.)
SOLID_ANGLE_UNIT()
);
#452=(
NAMED_UNIT(*)
PLANE_ANGLE_UNIT()
SI_UNIT($,.RADIAN.)
);
#453=(
LENGTH_UNIT()
NAMED_UNIT(*)
SI_UNIT($,.METRE.)
);
#454=PRODUCT_DEFINITION_SHAPE('','',#455);
#455=PRODUCT_DEFINITION('','',#457,#456);
#456=PRODUCT_DEFINITION_CONTEXT('',#463,'design');
#457=PRODUCT_DEFINITION_FORMATION_WITH_SPECIFIED_SOURCE('','',#459,
 .NOT_KNOWN.);
#458=PRODUCT_RELATED_PRODUCT_CATEGORY('','',(#459));
#459=PRODUCT('Wedge Cap','Wedge Cap','Wedge Cap',(#461));
#460=PRODUCT_CATEGORY('','');
#461=PRODUCT_CONTEXT('',#463,'mechanical');
#462=APPLICATION_PROTOCOL_DEFINITION('international standard',
'ap242_managed_model_based_3d_engineering',2020,#463);
#463=APPLICATION_CONTEXT('managed model based 3d engineering');
ENDSEC;
END-ISO-10303-21;
